<svg width="24" height="24" viewBox="0 0 24 24" fill="none" xmlns="http://www.w3.org/2000/svg">
<path d="M17.625 2H6.375C5.21468 2 4.10188 2.46094 3.28141 3.28141C2.46094 4.10188 2 5.21468 2 6.375V17.625C2 18.7853 2.46094 19.8981 3.28141 20.7186C4.10188 21.5391 5.21468 22 6.375 22H17.625C18.7853 22 19.8981 21.5391 20.7186 20.7186C21.5391 19.8981 22 18.7853 22 17.625V6.375C22 5.21468 21.5391 4.10188 20.7186 3.28141C19.8981 2.46094 18.7853 2 17.625 2V2Z" fill="#FBBF4B"/>
<path d="M12.264 9.315C13.142 9.315 13.849 9.671 14.33 10.329L16 8.822C15.462 8.11 14.5 7.397 13.028 7.178V6H10.821V7.26C8.528 7.78 7 9.616 7 12.055C7 14.493 8.528 16.356 10.82 16.849V18H13.028V16.931C14.5 16.74 15.462 16.027 16 15.288L14.302 13.753C13.849 14.383 13.142 14.767 12.236 14.767C10.679 14.767 9.604 13.644 9.604 12.027C9.632 10.384 10.708 9.315 12.264 9.315V9.315Z" fill="white"/>
</svg>
