<svg width="25" height="24" viewBox="0 0 25 24" fill="none" xmlns="http://www.w3.org/2000/svg">
<path d="M12.219 2H3.78C2.91 2.00027 2.07572 2.34606 1.46063 2.96134C0.845538 3.57661 0.5 4.411 0.5 5.281L0.5 13.719C0.5 14.5892 0.845676 15.4237 1.46098 16.039C2.07629 16.6543 2.91082 17 3.781 17H12.219C13.0892 17 13.9237 16.6543 14.539 16.039C15.1543 15.4237 15.5 14.5892 15.5 13.719V5.28C15.4997 4.41 15.1539 3.57572 14.5387 2.96063C13.9234 2.34554 13.089 2 12.219 2Z" fill="#2841C1"/>
<path fill-rule="evenodd" clip-rule="evenodd" d="M11.913 4.946L11.791 4.546C11.7888 4.53857 11.7842 4.53205 11.778 4.52742C11.7718 4.52278 11.7643 4.52028 11.7565 4.52028C11.7488 4.52028 11.7412 4.52278 11.735 4.52742C11.7288 4.53205 11.7242 4.53857 11.722 4.546L11.601 4.946L11.211 4.791C11.179 4.778 11.148 4.816 11.169 4.845L11.406 5.19L11.043 5.397C11.0359 5.40063 11.0303 5.4065 11.0269 5.4137C11.0235 5.4209 11.0226 5.42901 11.0243 5.43678C11.026 5.44455 11.0302 5.45153 11.0363 5.45663C11.0424 5.46174 11.0501 5.46468 11.058 5.465L11.476 5.494L11.411 5.907C11.4095 5.91485 11.4106 5.92299 11.4142 5.93014C11.4177 5.93729 11.4236 5.94305 11.4308 5.94649C11.4381 5.94993 11.4462 5.95086 11.4541 5.94914C11.4619 5.94742 11.4689 5.94315 11.474 5.937L11.757 5.629L12.04 5.937C12.064 5.96399 12.108 5.943 12.102 5.907L12.038 5.494L12.455 5.464C12.4627 5.46353 12.4701 5.46059 12.476 5.45563C12.4819 5.45066 12.486 5.44393 12.4878 5.43642C12.4896 5.42892 12.489 5.42103 12.4859 5.41393C12.4829 5.40683 12.4777 5.4009 12.471 5.397L12.107 5.19L12.345 4.845C12.365 4.815 12.335 4.778 12.302 4.791L11.912 4.946H11.913ZM4.56901 12.706L4.32101 11.886C4.3165 11.8707 4.30715 11.8572 4.29435 11.8476C4.28155 11.838 4.266 11.8329 4.25001 11.8329C4.23402 11.8329 4.21847 11.838 4.20567 11.8476C4.19287 11.8572 4.18352 11.8707 4.17901 11.886L3.93101 12.706L3.13501 12.389C3.12032 12.3831 3.10412 12.382 3.08879 12.386C3.07346 12.39 3.05981 12.3988 3.04985 12.4111C3.03989 12.4234 3.03414 12.4386 3.03345 12.4544C3.03276 12.4702 3.03716 12.4859 3.04601 12.499L3.53301 13.206L2.78801 13.631C2.77466 13.6391 2.76422 13.6512 2.75817 13.6656C2.75212 13.68 2.75077 13.6959 2.75432 13.7111C2.75787 13.7263 2.76614 13.74 2.77793 13.7502C2.78973 13.7604 2.80446 13.7667 2.82001 13.768L3.67501 13.828L3.54301 14.675C3.54088 14.6905 3.54372 14.7063 3.55114 14.7201C3.55856 14.7339 3.57016 14.745 3.58428 14.7518C3.5984 14.7586 3.61431 14.7607 3.62972 14.7578C3.64512 14.755 3.65923 14.7474 3.67001 14.736L4.25001 14.106L4.83001 14.736C4.88001 14.79 4.96901 14.747 4.95701 14.675L4.82501 13.828L5.68001 13.768C5.75301 13.763 5.77501 13.667 5.71201 13.63L4.96701 13.206L5.45401 12.5C5.46265 12.4869 5.46692 12.4715 5.46621 12.4558C5.46551 12.4402 5.45986 12.4252 5.45007 12.4129C5.44029 12.4007 5.42688 12.3919 5.41178 12.3878C5.39667 12.3837 5.38065 12.3844 5.36601 12.39L4.56901 12.706ZM9.08601 8.218L9.20801 8.618L9.59601 8.46399C9.60325 8.46069 9.61139 8.45988 9.61914 8.46169C9.62689 8.46351 9.63383 8.46784 9.63885 8.47401C9.64388 8.48018 9.64673 8.48785 9.64693 8.49581C9.64714 8.50376 9.64471 8.51157 9.64001 8.51799L9.40201 8.863L9.76601 9.06999C9.77267 9.07389 9.7779 9.07983 9.78093 9.08693C9.78396 9.09403 9.78463 9.10192 9.78284 9.10942C9.78104 9.11693 9.77688 9.12366 9.77097 9.12863C9.76506 9.13359 9.75771 9.13653 9.75001 9.137L9.33301 9.167L9.39701 9.58C9.3982 9.58762 9.39691 9.59542 9.39333 9.60226C9.38975 9.6091 9.38407 9.6146 9.37712 9.61796C9.37018 9.62132 9.36233 9.62236 9.35475 9.62093C9.34717 9.61949 9.34025 9.61566 9.33501 9.60999L9.05201 9.302L8.76801 9.60999C8.76277 9.61566 8.75585 9.61949 8.74827 9.62093C8.74069 9.62236 8.73284 9.62132 8.7259 9.61796C8.71895 9.6146 8.71327 9.6091 8.70969 9.60226C8.70611 9.59542 8.70482 9.58762 8.70601 9.58L8.77101 9.167L8.35301 9.137C8.34538 9.13634 8.33817 9.13327 8.3324 9.12824C8.32664 9.1232 8.32263 9.11646 8.32096 9.10899C8.31928 9.10152 8.32004 9.09372 8.3231 9.0867C8.32617 9.07969 8.33139 9.07384 8.33801 9.06999L8.70101 8.863L8.46401 8.51799C8.45956 8.51163 8.45729 8.50401 8.45753 8.49625C8.45778 8.48849 8.46052 8.48102 8.46535 8.47495C8.47019 8.46887 8.47686 8.46453 8.48436 8.46255C8.49187 8.46058 8.49981 8.46109 8.50701 8.46399L8.89601 8.619L9.01701 8.218C9.02701 8.184 9.07601 8.184 9.08701 8.218H9.08601ZM14.476 6.705L14.354 6.304C14.344 6.27 14.294 6.27 14.284 6.304L14.164 6.704L13.774 6.55C13.741 6.536 13.711 6.574 13.731 6.604L13.969 6.948L13.605 7.156C13.5984 7.15984 13.5932 7.16569 13.5901 7.1727C13.587 7.17972 13.5863 7.18752 13.588 7.19499C13.5896 7.20246 13.5936 7.2092 13.5994 7.21424C13.6052 7.21927 13.6124 7.22234 13.62 7.223L14.038 7.253L13.974 7.666C13.968 7.702 14.012 7.723 14.036 7.696L14.319 7.388L14.602 7.696C14.626 7.723 14.67 7.702 14.665 7.666L14.6 7.253L15.018 7.223C15.0256 7.22234 15.0329 7.21927 15.0386 7.21424C15.0444 7.2092 15.0484 7.20246 15.0501 7.19499C15.0517 7.18752 15.051 7.17972 15.0479 7.1727C15.0449 7.16569 15.0396 7.15984 15.033 7.156L14.669 6.948L14.907 6.604C14.927 6.574 14.897 6.536 14.864 6.55L14.475 6.705H14.476ZM11.791 12.783L11.913 13.184L12.302 13.029C12.3092 13.0261 12.3171 13.0256 12.3247 13.0276C12.3322 13.0295 12.3388 13.0339 12.3437 13.0399C12.3485 13.046 12.3512 13.0535 12.3515 13.0612C12.3517 13.069 12.3495 13.0766 12.345 13.083L12.107 13.428L12.471 13.635C12.4781 13.6387 12.4839 13.6446 12.4872 13.6519C12.4906 13.6592 12.4914 13.6674 12.4896 13.6752C12.4877 13.6831 12.4833 13.69 12.4771 13.6951C12.4708 13.7001 12.463 13.7029 12.455 13.703L12.038 13.732L12.102 14.146C12.108 14.181 12.064 14.202 12.04 14.176L11.757 13.867L11.473 14.176C11.4678 14.1817 11.4608 14.1855 11.4533 14.1869C11.4457 14.1884 11.4378 14.1873 11.4309 14.184C11.424 14.1806 11.4183 14.1751 11.4147 14.1683C11.4111 14.1614 11.4098 14.1536 11.411 14.146L11.476 13.732L11.058 13.702C11.0507 13.7011 11.0438 13.6979 11.0383 13.693C11.0328 13.688 11.029 13.6815 11.0274 13.6743C11.0257 13.667 11.0264 13.6595 11.0292 13.6527C11.032 13.6458 11.0368 13.64 11.043 13.636L11.406 13.428L11.169 13.083C11.1646 13.0766 11.1623 13.069 11.1625 13.0612C11.1628 13.0535 11.1655 13.046 11.1704 13.0399C11.1752 13.0339 11.1819 13.0295 11.1894 13.0276C11.1969 13.0256 11.2048 13.0261 11.212 13.029L11.601 13.184L11.722 12.784C11.7239 12.7761 11.7284 12.7691 11.7347 12.7641C11.7411 12.7591 11.7489 12.7564 11.757 12.7564C11.7651 12.7564 11.7729 12.7591 11.7793 12.7641C11.7856 12.7691 11.7901 12.7761 11.792 12.784L11.791 12.783ZM12.633 9.528L12.731 9.23499C12.7334 9.22636 12.7386 9.21876 12.7457 9.21334C12.7528 9.20792 12.7616 9.20498 12.7705 9.20498C12.7795 9.20498 12.7882 9.20792 12.7953 9.21334C12.8024 9.21876 12.8076 9.22636 12.81 9.23499L12.907 9.528L13.215 9.52999C13.255 9.52999 13.271 9.58099 13.239 9.60499L12.992 9.788L13.084 10.081C13.0871 10.0893 13.0873 10.0983 13.0848 10.1068C13.0823 10.1153 13.0771 10.1227 13.07 10.128C13.063 10.1333 13.0544 10.1361 13.0455 10.1361C13.0367 10.1361 13.0281 10.1333 13.021 10.128L12.771 9.948L12.52 10.128C12.5129 10.1328 12.5045 10.1353 12.4959 10.1352C12.4873 10.1351 12.4789 10.1323 12.472 10.1273C12.465 10.1223 12.4597 10.1153 12.4569 10.1072C12.454 10.0991 12.4537 10.0903 12.456 10.082L12.549 9.788L12.301 9.60499C12.2943 9.5997 12.2893 9.59248 12.2868 9.58428C12.2843 9.57608 12.2843 9.56732 12.2869 9.55915C12.2895 9.55099 12.2946 9.54382 12.3014 9.5386C12.3082 9.53339 12.3164 9.53039 12.325 9.52999L12.633 9.528Z" fill="#F5F5F5"/>
<path fill-rule="evenodd" clip-rule="evenodd" d="M8 2V2.585L5.236 4.395V2H8ZM1.313 3.118C1.81724 2.54224 2.50715 2.1612 3.263 2.041V4.396L1.314 3.118H1.313ZM0.541 4.763C0.575 4.546 0.631 4.336 0.706 4.136L1.664 4.763H0.54H0.541ZM0.5 6.737V7.499L1.663 6.737H0.5ZM8.001 7.499V6.737H6.838L8.001 7.499ZM8 9.5H5.236V7.104L8 8.914V9.5ZM8.002 4.763V4.001L6.839 4.763H8H8.002ZM0.5 8.915L3.263 7.105V9.5H0.5V8.915Z" fill="#2841C1"/>
<path fill-rule="evenodd" clip-rule="evenodd" d="M8 4.763V5.158H4.842V2H5.237V4.396L8 2.586V2.969L5.237 4.763H5.962L8 3.44V4L6.836 4.763H8ZM3.657 2.003C3.52502 2.00776 3.39345 2.02045 3.263 2.041V4.396L1.313 3.119C1.19561 3.25284 1.08926 3.39597 0.995 3.547L2.868 4.763H2.143L0.806 3.895C0.769488 3.97364 0.736129 4.0537 0.706 4.135L1.663 4.763H0.54C0.52 4.893 0.507 5.024 0.502 5.158H3.657V2.003ZM3.657 9.5H3.263V7.104L0.5 8.914V8.524L3.252 6.737H2.527L0.5 8.053V7.499L1.663 6.737H0.5V6.342H3.658V9.5H3.657ZM5.237 9.5H4.842V6.342H8V6.737H6.836L8 7.499V7.859L6.27 6.737H5.546L8 8.33V8.915L5.237 7.105V9.5Z" fill="#F5F5F5"/>
<path fill-rule="evenodd" clip-rule="evenodd" d="M3.658 9.5H4.842V6.342H8V5.158H4.842V2H3.782C3.74 2 3.699 2.001 3.658 2.003V5.158H0.503C0.501251 5.19864 0.500251 5.23932 0.5 5.28L0.5 6.341H3.658V9.5ZM2.528 6.737L0.5 8.053V8.523L3.252 6.737H2.527H2.528ZM7.998 8.33L5.545 6.737H6.27L8 7.859V8.329L7.998 8.33ZM2.867 4.763L0.994 3.547C0.924 3.659 0.861 3.775 0.804 3.895L2.142 4.763H2.867ZM7.999 3.44L5.961 4.763H5.236L8 2.97V3.441L7.999 3.44Z" fill="#FF4B55"/>
<path d="M21.5 7H12.5V22H21.5V7Z" fill="#F6F6F6"/>
<path fill-rule="evenodd" clip-rule="evenodd" d="M12.637 7C12.591 7 12.545 7.001 12.5 7.003L12.637 7ZM12.5 21.996C10.831 21.921 9.5 20.482 9.5 18.718V10.281C9.5 8.517 10.831 7.078 12.5 7.003V21.996ZM12.637 21.999L12.5 21.996C12.545 21.998 12.591 21.999 12.637 21.999ZM21.364 7L21.5 7.003C21.4547 7.00099 21.4094 6.99999 21.364 7ZM21.5 7.003C23.17 7.077 24.501 8.516 24.501 10.281V18.718C24.501 20.53 23.097 21.999 21.364 21.999L21.499 21.996L21.5 7.003ZM20.104 14.758L18.569 15.635C18.492 15.679 18.4332 15.7489 18.403 15.8322C18.3728 15.9155 18.3731 16.0069 18.404 16.09L18.536 16.44L17.22 16.328C17.2028 16.3266 17.1855 16.3288 17.1693 16.3346C17.153 16.3403 17.1382 16.3494 17.1257 16.3613C17.1132 16.3732 17.1034 16.3877 17.0969 16.4036C17.0904 16.4196 17.0874 16.4368 17.088 16.454L17.129 17.861H16.87L16.912 16.454C16.9126 16.4367 16.9096 16.4194 16.903 16.4034C16.8965 16.3873 16.8866 16.3729 16.874 16.3609C16.8614 16.349 16.8464 16.3399 16.83 16.3342C16.8137 16.3285 16.7963 16.3264 16.779 16.328L15.464 16.441L15.595 16.09C15.6262 16.007 15.6268 15.9157 15.5967 15.8323C15.5667 15.7489 15.5079 15.679 15.431 15.635L13.897 14.758L14.249 14.582C14.2971 14.5577 14.3364 14.5191 14.3615 14.4714C14.3866 14.4237 14.3962 14.3694 14.389 14.316L14.275 13.457L14.925 13.647C14.959 13.6567 14.9946 13.6594 15.0296 13.6548C15.0646 13.6502 15.0983 13.6386 15.1287 13.6205C15.159 13.6024 15.1854 13.5783 15.206 13.5497C15.2267 13.521 15.2414 13.4885 15.249 13.454L15.311 13.173L15.921 13.887C16.006 13.986 16.167 13.91 16.145 13.782L15.885 12.267L16.283 12.376C16.3397 12.3915 16.4 12.3873 16.4539 12.3641C16.5079 12.3408 16.5524 12.2999 16.58 12.248L17 11.461V11.46V11.461L17.42 12.248C17.477 12.355 17.6 12.408 17.717 12.376L18.116 12.266L17.855 13.782C17.833 13.91 17.995 13.986 18.079 13.887L18.689 13.173L18.751 13.453C18.7586 13.4876 18.7733 13.5203 18.794 13.549C18.8148 13.5777 18.8412 13.6018 18.8717 13.6199C18.9021 13.638 18.936 13.6497 18.9711 13.6541C19.0063 13.6586 19.042 13.6559 19.076 13.646L19.726 13.457L19.611 14.317C19.604 14.3702 19.6137 14.4243 19.6388 14.4718C19.6639 14.5193 19.7031 14.5578 19.751 14.582L20.103 14.758H20.104Z" fill="#FB4B4E"/>
</svg>
