<svg width="24" height="24" viewBox="0 0 24 24" fill="none" xmlns="http://www.w3.org/2000/svg">
<g clip-path="url(#clip0)">
<path d="M11.719 2H3.28C2.41 2.00027 1.57572 2.34606 0.960629 2.96134C0.345538 3.57661 -4.0409e-08 4.411 0 5.281L0 13.719C0 14.5892 0.345676 15.4237 0.960983 16.039C1.57629 16.6543 2.41082 17 3.281 17H11.719C12.5892 17 13.4237 16.6543 14.039 16.039C14.6543 15.4237 15 14.5892 15 13.719V5.28C14.9997 4.41 14.6539 3.57572 14.0387 2.96063C13.4234 2.34554 12.589 2 11.719 2Z" fill="#2841C1"/>
<path fill-rule="evenodd" clip-rule="evenodd" d="M11.413 4.946L11.291 4.546C11.2888 4.53857 11.2842 4.53205 11.278 4.52742C11.2718 4.52278 11.2643 4.52028 11.2565 4.52028C11.2488 4.52028 11.2412 4.52278 11.235 4.52742C11.2288 4.53205 11.2242 4.53857 11.222 4.546L11.101 4.946L10.711 4.791C10.679 4.778 10.648 4.816 10.669 4.845L10.906 5.19L10.543 5.397C10.5359 5.40063 10.5303 5.4065 10.5269 5.4137C10.5235 5.4209 10.5226 5.42901 10.5243 5.43678C10.526 5.44455 10.5302 5.45153 10.5363 5.45663C10.5424 5.46174 10.5501 5.46468 10.558 5.465L10.976 5.494L10.911 5.907C10.9095 5.91485 10.9106 5.92299 10.9142 5.93014C10.9177 5.93729 10.9236 5.94305 10.9308 5.94649C10.9381 5.94993 10.9462 5.95086 10.9541 5.94914C10.9619 5.94742 10.9689 5.94315 10.974 5.937L11.257 5.629L11.54 5.937C11.564 5.96399 11.608 5.943 11.602 5.907L11.538 5.494L11.955 5.464C11.9627 5.46353 11.9701 5.46059 11.976 5.45563C11.9819 5.45066 11.986 5.44393 11.9878 5.43642C11.9896 5.42892 11.989 5.42103 11.9859 5.41393C11.9829 5.40683 11.9777 5.4009 11.971 5.397L11.607 5.19L11.845 4.845C11.865 4.815 11.835 4.778 11.802 4.791L11.412 4.946H11.413ZM4.06901 12.706L3.82101 11.886C3.8165 11.8707 3.80715 11.8572 3.79435 11.8476C3.78155 11.838 3.766 11.8329 3.75001 11.8329C3.73402 11.8329 3.71847 11.838 3.70567 11.8476C3.69287 11.8572 3.68352 11.8707 3.67901 11.886L3.43101 12.706L2.63501 12.389C2.62032 12.3831 2.60412 12.382 2.58879 12.386C2.57346 12.39 2.55981 12.3988 2.54985 12.4111C2.53989 12.4234 2.53414 12.4386 2.53345 12.4544C2.53276 12.4702 2.53716 12.4859 2.54601 12.499L3.03301 13.206L2.28801 13.631C2.27466 13.6391 2.26422 13.6512 2.25817 13.6656C2.25212 13.68 2.25077 13.6959 2.25432 13.7111C2.25787 13.7263 2.26614 13.74 2.27793 13.7502C2.28973 13.7604 2.30446 13.7667 2.32001 13.768L3.17501 13.828L3.04301 14.675C3.04088 14.6905 3.04372 14.7063 3.05114 14.7201C3.05856 14.7339 3.07016 14.745 3.08428 14.7518C3.0984 14.7586 3.11431 14.7607 3.12972 14.7578C3.14512 14.755 3.15923 14.7474 3.17001 14.736L3.75001 14.106L4.33001 14.736C4.38001 14.79 4.46901 14.747 4.45701 14.675L4.32501 13.828L5.18001 13.768C5.25301 13.763 5.27501 13.667 5.21201 13.63L4.46701 13.206L4.95401 12.5C4.96265 12.4869 4.96692 12.4715 4.96621 12.4558C4.96551 12.4402 4.95986 12.4252 4.95007 12.4129C4.94029 12.4007 4.92688 12.3919 4.91178 12.3878C4.89667 12.3837 4.88065 12.3844 4.86601 12.39L4.06901 12.706ZM8.58601 8.218L8.70801 8.618L9.09601 8.46399C9.10325 8.46069 9.11139 8.45988 9.11914 8.46169C9.12689 8.46351 9.13383 8.46784 9.13885 8.47401C9.14388 8.48018 9.14673 8.48785 9.14693 8.49581C9.14714 8.50376 9.14471 8.51157 9.14001 8.51799L8.90201 8.863L9.26601 9.06999C9.27267 9.07389 9.2779 9.07983 9.28093 9.08693C9.28396 9.09403 9.28463 9.10192 9.28284 9.10942C9.28104 9.11693 9.27688 9.12366 9.27097 9.12863C9.26506 9.13359 9.25771 9.13653 9.25001 9.137L8.83301 9.167L8.89701 9.58C8.8982 9.58762 8.89691 9.59542 8.89333 9.60226C8.88975 9.6091 8.88407 9.6146 8.87712 9.61796C8.87018 9.62132 8.86233 9.62236 8.85475 9.62093C8.84717 9.61949 8.84025 9.61566 8.83501 9.60999L8.55201 9.302L8.26801 9.60999C8.26277 9.61566 8.25585 9.61949 8.24827 9.62093C8.24069 9.62236 8.23284 9.62132 8.2259 9.61796C8.21895 9.6146 8.21327 9.6091 8.20969 9.60226C8.20611 9.59542 8.20482 9.58762 8.20601 9.58L8.27101 9.167L7.85301 9.137C7.84538 9.13634 7.83817 9.13327 7.8324 9.12824C7.82664 9.1232 7.82263 9.11646 7.82096 9.10899C7.81928 9.10152 7.82004 9.09372 7.8231 9.0867C7.82617 9.07969 7.83139 9.07384 7.83801 9.06999L8.20101 8.863L7.96401 8.51799C7.95956 8.51163 7.95729 8.50401 7.95753 8.49625C7.95778 8.48849 7.96052 8.48102 7.96535 8.47495C7.97019 8.46887 7.97686 8.46453 7.98436 8.46255C7.99187 8.46058 7.99981 8.46109 8.00701 8.46399L8.39601 8.619L8.51701 8.218C8.52701 8.184 8.57601 8.184 8.58701 8.218H8.58601ZM13.976 6.705L13.854 6.304C13.844 6.27 13.794 6.27 13.784 6.304L13.664 6.704L13.274 6.55C13.241 6.536 13.211 6.574 13.231 6.604L13.469 6.948L13.105 7.156C13.0984 7.15984 13.0932 7.16569 13.0901 7.1727C13.087 7.17972 13.0863 7.18752 13.088 7.19499C13.0896 7.20246 13.0936 7.2092 13.0994 7.21424C13.1052 7.21927 13.1124 7.22234 13.12 7.223L13.538 7.253L13.474 7.666C13.468 7.702 13.512 7.723 13.536 7.696L13.819 7.388L14.102 7.696C14.126 7.723 14.17 7.702 14.165 7.666L14.1 7.253L14.518 7.223C14.5256 7.22234 14.5329 7.21927 14.5386 7.21424C14.5444 7.2092 14.5484 7.20246 14.5501 7.19499C14.5517 7.18752 14.551 7.17972 14.5479 7.1727C14.5449 7.16569 14.5396 7.15984 14.533 7.156L14.169 6.948L14.407 6.604C14.427 6.574 14.397 6.536 14.364 6.55L13.975 6.705H13.976ZM11.291 12.783L11.413 13.184L11.802 13.029C11.8092 13.0261 11.8171 13.0256 11.8247 13.0276C11.8322 13.0295 11.8388 13.0339 11.8437 13.0399C11.8485 13.046 11.8512 13.0535 11.8515 13.0612C11.8517 13.069 11.8495 13.0766 11.845 13.083L11.607 13.428L11.971 13.635C11.9781 13.6387 11.9839 13.6446 11.9872 13.6519C11.9906 13.6592 11.9914 13.6674 11.9896 13.6752C11.9877 13.6831 11.9833 13.69 11.9771 13.6951C11.9708 13.7001 11.963 13.7029 11.955 13.703L11.538 13.732L11.602 14.146C11.608 14.181 11.564 14.202 11.54 14.176L11.257 13.867L10.973 14.176C10.9678 14.1817 10.9608 14.1855 10.9533 14.1869C10.9457 14.1884 10.9378 14.1873 10.9309 14.184C10.924 14.1806 10.9183 14.1751 10.9147 14.1683C10.9111 14.1614 10.9098 14.1536 10.911 14.146L10.976 13.732L10.558 13.702C10.5507 13.7011 10.5438 13.6979 10.5383 13.693C10.5328 13.688 10.529 13.6815 10.5274 13.6743C10.5257 13.667 10.5264 13.6595 10.5292 13.6527C10.532 13.6458 10.5368 13.64 10.543 13.636L10.906 13.428L10.669 13.083C10.6646 13.0766 10.6623 13.069 10.6625 13.0612C10.6628 13.0535 10.6655 13.046 10.6704 13.0399C10.6752 13.0339 10.6819 13.0295 10.6894 13.0276C10.6969 13.0256 10.7048 13.0261 10.712 13.029L11.101 13.184L11.222 12.784C11.2239 12.7761 11.2284 12.7691 11.2347 12.7641C11.2411 12.7591 11.2489 12.7564 11.257 12.7564C11.2651 12.7564 11.2729 12.7591 11.2793 12.7641C11.2856 12.7691 11.2901 12.7761 11.292 12.784L11.291 12.783ZM12.133 9.528L12.231 9.23499C12.2334 9.22636 12.2386 9.21876 12.2457 9.21334C12.2528 9.20792 12.2616 9.20498 12.2705 9.20498C12.2795 9.20498 12.2882 9.20792 12.2953 9.21334C12.3024 9.21876 12.3076 9.22636 12.31 9.23499L12.407 9.528L12.715 9.52999C12.755 9.52999 12.771 9.58099 12.739 9.60499L12.492 9.788L12.584 10.081C12.5871 10.0893 12.5873 10.0983 12.5848 10.1068C12.5823 10.1153 12.5771 10.1227 12.57 10.128C12.563 10.1333 12.5544 10.1361 12.5455 10.1361C12.5367 10.1361 12.5281 10.1333 12.521 10.128L12.271 9.948L12.02 10.128C12.0129 10.1328 12.0045 10.1353 11.9959 10.1352C11.9873 10.1351 11.9789 10.1323 11.972 10.1273C11.965 10.1223 11.9597 10.1153 11.9569 10.1072C11.954 10.0991 11.9537 10.0903 11.956 10.082L12.049 9.788L11.801 9.60499C11.7943 9.5997 11.7893 9.59248 11.7868 9.58428C11.7843 9.57608 11.7843 9.56732 11.7869 9.55915C11.7895 9.55099 11.7946 9.54382 11.8014 9.5386C11.8082 9.53339 11.8164 9.53039 11.825 9.52999L12.133 9.528Z" fill="#F5F5F5"/>
<path fill-rule="evenodd" clip-rule="evenodd" d="M7.5 2V2.585L4.736 4.395V2H7.5ZM0.813 3.118C1.31724 2.54224 2.00715 2.1612 2.763 2.041V4.396L0.814 3.118H0.813ZM0.041 4.763C0.075 4.546 0.131 4.336 0.206 4.136L1.164 4.763H0.04H0.041ZM0 6.737V7.499L1.163 6.737H0ZM7.501 7.499V6.737H6.338L7.501 7.499ZM7.5 9.5H4.736V7.104L7.5 8.914V9.5ZM7.502 4.763V4.001L6.339 4.763H7.5H7.502ZM0 8.915L2.763 7.105V9.5H0V8.915Z" fill="#2841C1"/>
<path fill-rule="evenodd" clip-rule="evenodd" d="M7.5 4.763V5.158H4.342V2H4.737V4.396L7.5 2.586V2.969L4.737 4.763H5.462L7.5 3.44V4L6.336 4.763H7.5ZM3.157 2.003C3.02502 2.00776 2.89345 2.02045 2.763 2.041V4.396L0.813 3.119C0.695608 3.25284 0.58926 3.39597 0.495 3.547L2.368 4.763H1.643L0.306 3.895C0.269488 3.97364 0.236129 4.0537 0.206 4.135L1.163 4.763H0.04C0.02 4.893 0.007 5.024 0.002 5.158H3.157V2.003ZM3.157 9.5H2.763V7.104L0 8.914V8.524L2.752 6.737H2.027L0 8.053V7.499L1.163 6.737H0V6.342H3.158V9.5H3.157ZM4.737 9.5H4.342V6.342H7.5V6.737H6.336L7.5 7.499V7.859L5.77 6.737H5.046L7.5 8.33V8.915L4.737 7.105V9.5Z" fill="#F5F5F5"/>
<path fill-rule="evenodd" clip-rule="evenodd" d="M3.158 9.5H4.342V6.342H7.5V5.158H4.342V2H3.282C3.24 2 3.199 2.001 3.158 2.003V5.158H0.003C0.00125125 5.19864 0.000251084 5.23932 0 5.28L0 6.341H3.158V9.5ZM2.028 6.737L0 8.053V8.523L2.752 6.737H2.027H2.028ZM7.498 8.33L5.045 6.737H5.77L7.5 7.859V8.329L7.498 8.33ZM2.367 4.763L0.494 3.547C0.424 3.659 0.361 3.775 0.304 3.895L1.642 4.763H2.367ZM7.499 3.44L5.461 4.763H4.736L7.5 2.97V3.441L7.499 3.44Z" fill="#FF4B55"/>
<path d="M20.719 7H12.28C11.41 7.00027 10.5757 7.34606 9.96063 7.96134C9.34554 8.57661 9 9.411 9 10.281V18.719C9 19.5892 9.34568 20.4237 9.96098 21.039C10.5763 21.6543 11.4108 22 12.281 22H20.719C21.5892 22 22.4237 21.6543 23.039 21.039C23.6543 20.4237 24 19.5892 24 18.719V10.28C23.9997 9.41 23.6539 8.57572 23.0387 7.96063C22.4234 7.34554 21.589 7 20.719 7Z" fill="#F6F6F6"/>
<path d="M16.5 18C16.9596 18 17.4148 17.9095 17.8394 17.7336C18.264 17.5577 18.6499 17.2999 18.9749 16.9749C19.2999 16.6499 19.5577 16.264 19.7336 15.8394C19.9095 15.4148 20 14.9596 20 14.5C20 14.0404 19.9095 13.5852 19.7336 13.1606C19.5577 12.736 19.2999 12.3501 18.9749 12.0251C18.6499 11.7001 18.264 11.4423 17.8394 11.2664C17.4148 11.0905 16.9596 11 16.5 11C15.5717 11 14.6815 11.3687 14.0251 12.0251C13.3687 12.6815 13 13.5717 13 14.5C13 15.4283 13.3687 16.3185 14.0251 16.9749C14.6815 17.6313 15.5717 18 16.5 18Z" fill="#FB4B4E"/>
</g>
<defs>
<clipPath id="clip0">
<rect width="24" height="24" fill="white"/>
</clipPath>
</defs>
</svg>
