<svg width="24" height="24" viewBox="0 0 24 24" fill="none" xmlns="http://www.w3.org/2000/svg">
<path d="M12 2H3V17H12V2Z" fill="#F6F6F6"/>
<path fill-rule="evenodd" clip-rule="evenodd" d="M3.137 2C3.09132 1.99998 3.04564 2.00098 3 2.003L3.137 2ZM3 16.996C1.331 16.921 0 15.482 0 13.718V5.281C0 3.517 1.331 2.078 3 2.003V16.996ZM3.137 16.999L3 16.996C3.045 16.998 3.091 16.999 3.137 16.999ZM11.864 2L12 2.003C11.9547 2.00099 11.9094 1.99999 11.864 2ZM12 2.003C13.67 2.077 15.001 3.516 15.001 5.281V13.718C15.001 15.53 13.597 16.999 11.864 16.999L11.999 16.996L12 2.003ZM10.604 9.758L9.069 10.635C8.99189 10.6788 8.93292 10.7487 8.90268 10.8321C8.87244 10.9155 8.87291 11.0069 8.904 11.09L9.036 11.44L7.72 11.328C7.70282 11.3266 7.68552 11.3288 7.66927 11.3346C7.65301 11.3403 7.63815 11.3494 7.62568 11.3613C7.61321 11.3732 7.6034 11.3877 7.59691 11.4036C7.59041 11.4196 7.58738 11.4368 7.588 11.454L7.629 12.861H7.37L7.412 11.454C7.41264 11.4367 7.40958 11.4194 7.40303 11.4034C7.39647 11.3873 7.38657 11.3729 7.37399 11.3609C7.3614 11.349 7.34642 11.3399 7.33004 11.3342C7.31366 11.3285 7.29626 11.3264 7.279 11.328L5.964 11.441L6.096 11.09C6.12709 11.0069 6.12756 10.9155 6.09732 10.8321C6.06708 10.7487 6.00811 10.6788 5.931 10.635L4.396 9.758L4.749 9.582C4.7971 9.55773 4.83644 9.51907 4.86154 9.47139C4.88663 9.42371 4.89623 9.36939 4.889 9.316L4.775 8.457L5.425 8.647C5.45897 8.6567 5.49456 8.65935 5.52958 8.65479C5.56461 8.65023 5.59833 8.63855 5.62868 8.62047C5.65903 8.6024 5.68536 8.5783 5.70605 8.54967C5.72674 8.52105 5.74136 8.48849 5.749 8.454L5.811 8.173L6.421 8.887C6.506 8.986 6.667 8.91 6.645 8.782L6.385 7.267L6.783 7.376C6.83968 7.39153 6.89996 7.38731 6.95393 7.36405C7.00791 7.34079 7.05236 7.29987 7.08 7.248L7.5 6.461V6.46V6.461L7.92 7.248C7.977 7.355 8.1 7.408 8.217 7.376L8.616 7.266L8.355 8.782C8.333 8.91 8.495 8.986 8.579 8.887L9.189 8.173L9.251 8.453C9.25863 8.4876 9.27327 8.52026 9.29403 8.54898C9.31479 8.57769 9.34122 8.60183 9.37168 8.61992C9.40214 8.63801 9.43599 8.64966 9.47114 8.65415C9.50628 8.65863 9.54197 8.65586 9.576 8.646L10.226 8.457L10.111 9.317C10.104 9.37023 10.1137 9.42433 10.1388 9.47181C10.1639 9.51928 10.2031 9.55779 10.251 9.582L10.604 9.758Z" fill="#FB4B4E"/>
<path d="M20.719 7H12.28C11.41 7.00027 10.5757 7.34606 9.96063 7.96134C9.34554 8.57661 9 9.411 9 10.281V18.719C9 19.5892 9.34568 20.4237 9.96098 21.039C10.5763 21.6543 11.4108 22 12.281 22H20.719C21.5892 22 22.4237 21.6543 23.039 21.039C23.6543 20.4237 24 19.5892 24 18.719V10.28C23.9997 9.41 23.6539 8.57572 23.0387 7.96063C22.4234 7.34554 21.589 7 20.719 7Z" fill="#F6F6F6"/>
<path d="M16.5 18C16.9596 18 17.4148 17.9095 17.8394 17.7336C18.264 17.5577 18.6499 17.2999 18.9749 16.9749C19.2999 16.6499 19.5577 16.264 19.7336 15.8394C19.9095 15.4148 20 14.9596 20 14.5C20 14.0404 19.9095 13.5852 19.7336 13.1606C19.5577 12.736 19.2999 12.3501 18.9749 12.0251C18.6499 11.7001 18.264 11.4423 17.8394 11.2664C17.4148 11.0905 16.9596 11 16.5 11C15.5717 11 14.6815 11.3687 14.0251 12.0251C13.3687 12.6815 13 13.5717 13 14.5C13 15.4283 13.3687 16.3185 14.0251 16.9749C14.6815 17.6313 15.5717 18 16.5 18Z" fill="#FB4B4E"/>
</svg>
