<svg width="24" height="24" viewBox="0 0 24 24" fill="none" xmlns="http://www.w3.org/2000/svg">
<g clip-path="url(#clip0)">
<path d="M11.719 2H3.28C2.41 2.00027 1.57572 2.34606 0.960629 2.96134C0.345538 3.57661 -4.0409e-08 4.411 0 5.281L0 13.719C0 14.5892 0.345676 15.4237 0.960983 16.039C1.57629 16.6543 2.41082 17 3.281 17H11.719C12.5892 17 13.4237 16.6543 14.039 16.039C14.6543 15.4237 15 14.5892 15 13.719V5.28C14.9997 4.41 14.6539 3.57572 14.0387 2.96063C13.4234 2.34554 12.589 2 11.719 2Z" fill="#0A48B6"/>
<path fill-rule="evenodd" clip-rule="evenodd" d="M7.74001 5.301L7.61401 4.926C7.61037 4.91565 7.60361 4.90668 7.59465 4.90033C7.58569 4.89399 7.57499 4.89058 7.56401 4.89058C7.55304 4.89058 7.54233 4.89399 7.53338 4.90033C7.52442 4.90668 7.51765 4.91565 7.51401 4.926L7.38801 5.301L6.99301 5.305C6.9818 5.305 6.97088 5.30855 6.96181 5.31515C6.95275 5.32174 6.94601 5.33105 6.94256 5.34171C6.93912 5.35238 6.93914 5.36387 6.94264 5.37452C6.94613 5.38518 6.95292 5.39445 6.96201 5.401L7.28001 5.636L7.16001 6.013C7.14501 6.061 7.20001 6.102 7.24201 6.072L7.56401 5.842L7.88601 6.072C7.92701 6.102 7.98301 6.062 7.96701 6.012L7.84801 5.636L8.16601 5.401C8.17511 5.39445 8.18189 5.38518 8.18539 5.37452C8.18888 5.36387 8.18891 5.35238 8.18546 5.34171C8.18202 5.33105 8.17528 5.32174 8.16621 5.31515C8.15715 5.30855 8.14623 5.305 8.13501 5.305L7.74001 5.3V5.301ZM7.74001 13.355L7.61401 12.98C7.61037 12.9696 7.60361 12.9607 7.59465 12.9543C7.58569 12.948 7.57499 12.9446 7.56401 12.9446C7.55304 12.9446 7.54233 12.948 7.53338 12.9543C7.52442 12.9607 7.51765 12.9696 7.51401 12.98L7.38801 13.355L6.99301 13.358C6.9818 13.358 6.97088 13.3616 6.96181 13.3681C6.95275 13.3747 6.94601 13.384 6.94256 13.3947C6.93912 13.4054 6.93914 13.4169 6.94264 13.4275C6.94613 13.4382 6.95292 13.4474 6.96201 13.454L7.28001 13.689L7.16001 14.066C7.14501 14.115 7.20001 14.156 7.24201 14.126L7.56401 13.896L7.88601 14.126C7.92701 14.156 7.98301 14.115 7.96701 14.066L7.84801 13.689L8.16601 13.454C8.17511 13.4474 8.18189 13.4382 8.18539 13.4275C8.18888 13.4169 8.18891 13.4054 8.18546 13.3947C8.18202 13.384 8.17528 13.3747 8.16621 13.3681C8.15715 13.3616 8.14623 13.358 8.13501 13.358L7.74001 13.355ZM11.64 8.953L11.766 9.328L12.161 9.331C12.213 9.331 12.234 9.397 12.193 9.428L11.874 9.662L11.994 10.039C11.9979 10.0498 11.9981 10.0615 11.9948 10.0724C11.9914 10.0833 11.9846 10.0928 11.9754 10.0996C11.9662 10.1063 11.955 10.1099 11.9436 10.1098C11.9322 10.1097 11.9211 10.1059 11.912 10.099L11.59 9.869L11.269 10.099C11.2599 10.1059 11.2488 10.1097 11.2374 10.1098C11.226 10.1099 11.2149 10.1063 11.2056 10.0996C11.1964 10.0928 11.1896 10.0833 11.1863 10.0724C11.1829 10.0615 11.1832 10.0498 11.187 10.039L11.307 9.662L10.988 9.428C10.9785 9.4216 10.9713 9.41228 10.9675 9.40143C10.9637 9.39058 10.9635 9.37879 10.967 9.36785C10.9705 9.3569 10.9775 9.34739 10.9869 9.34074C10.9962 9.3341 11.0075 9.33068 11.019 9.331L11.415 9.328L11.54 8.953C11.5437 8.94265 11.5504 8.93368 11.5594 8.92733C11.5683 8.92099 11.579 8.91758 11.59 8.91758C11.601 8.91758 11.6117 8.92099 11.6207 8.92733C11.6296 8.93368 11.6364 8.94265 11.64 8.953ZM3.71301 9.328L3.58801 8.953C3.5846 8.94229 3.57787 8.93294 3.56879 8.9263C3.55971 8.91966 3.54876 8.91609 3.53751 8.91609C3.52627 8.91609 3.51531 8.91966 3.50624 8.9263C3.49716 8.93294 3.49043 8.94229 3.48701 8.953L3.36201 9.328L2.96701 9.331C2.95544 9.33044 2.944 9.3337 2.93445 9.34026C2.9249 9.34682 2.91777 9.35633 2.91414 9.36734C2.91051 9.37834 2.91058 9.39023 2.91435 9.40119C2.91812 9.41214 2.92538 9.42156 2.93501 9.428L3.25301 9.662L3.13401 10.039C3.11901 10.089 3.17401 10.129 3.21601 10.099L3.53801 9.869L3.85901 10.099C3.90101 10.129 3.95601 10.089 3.94101 10.039L3.82101 9.662L4.14001 9.428C4.14956 9.4216 4.15676 9.41228 4.16054 9.40143C4.16433 9.39058 4.16448 9.37879 4.16098 9.36785C4.15748 9.3569 4.15052 9.34739 4.14115 9.34074C4.13178 9.3341 4.1205 9.33068 4.10901 9.331L3.71301 9.328ZM4.19301 6.85L4.31901 7.225L4.71401 7.228C4.76501 7.228 4.78601 7.294 4.74501 7.324L4.42701 7.559L4.54701 7.936C4.55085 7.94676 4.55111 7.95847 4.54776 7.96938C4.5444 7.9803 4.53761 7.98984 4.52839 7.99659C4.51918 8.00333 4.50803 8.00692 4.49661 8.00681C4.48519 8.00671 4.4741 8.00291 4.46501 7.996L4.14301 7.766L3.82101 7.996C3.8119 8.00249 3.80096 8.00593 3.78977 8.00583C3.77858 8.00572 3.76772 8.00208 3.75872 7.99542C3.74973 7.98876 3.74308 7.97942 3.73972 7.96875C3.73636 7.95807 3.73646 7.94661 3.74001 7.936L3.85901 7.559L3.54101 7.324C3.53192 7.31745 3.52513 7.30818 3.52164 7.29752C3.51814 7.28687 3.51812 7.27538 3.52156 7.26471C3.52501 7.25405 3.53175 7.24474 3.54081 7.23815C3.54988 7.23155 3.5608 7.228 3.57201 7.228L3.96701 7.225L4.09201 6.85C4.09515 6.83889 4.10183 6.82912 4.11104 6.82215C4.12024 6.81519 4.13147 6.81142 4.14301 6.81142C4.15456 6.81142 4.16578 6.81519 4.17499 6.82215C4.18419 6.82912 4.19087 6.83889 4.19401 6.85H4.19301ZM11.293 11.252L11.167 10.877C11.1634 10.8666 11.1566 10.8577 11.1477 10.8513C11.1387 10.845 11.128 10.8416 11.117 10.8416C11.106 10.8416 11.0953 10.845 11.0864 10.8513C11.0774 10.8577 11.0707 10.8666 11.067 10.877L10.941 11.252L10.546 11.255C10.5347 11.2548 10.5236 11.2582 10.5144 11.2647C10.5052 11.2712 10.4983 11.2805 10.4947 11.2912C10.4911 11.302 10.4911 11.3135 10.4945 11.3243C10.498 11.335 10.5048 11.3444 10.514 11.351L10.833 11.586L10.713 11.963C10.698 12.012 10.753 12.053 10.795 12.023L11.117 11.793L11.438 12.023C11.48 12.053 11.536 12.012 11.52 11.963L11.4 11.586L11.719 11.351C11.7281 11.3444 11.7349 11.3352 11.7384 11.3245C11.7419 11.3139 11.7419 11.3024 11.7385 11.2917C11.735 11.281 11.7283 11.2717 11.7192 11.2651C11.7101 11.2585 11.6992 11.255 11.688 11.255L11.292 11.252H11.293ZM9.69301 5.376L9.81801 5.751L10.213 5.754C10.264 5.754 10.286 5.82 10.244 5.851L9.92601 6.085L10.046 6.462C10.0499 6.47276 10.0501 6.48447 10.0468 6.49538C10.0434 6.5063 10.0366 6.51584 10.0274 6.52259C10.0182 6.52933 10.007 6.53292 9.99561 6.53281C9.98419 6.53271 9.9731 6.52891 9.96401 6.522L9.64201 6.292L9.32001 6.522C9.3109 6.52849 9.29996 6.53193 9.28877 6.53183C9.27758 6.53172 9.26672 6.52808 9.25772 6.52142C9.24873 6.51476 9.24208 6.50542 9.23872 6.49475C9.23536 6.48407 9.23546 6.47261 9.23901 6.462L9.35801 6.085L9.04001 5.851C9.03047 5.8446 9.02326 5.83528 9.01948 5.82443C9.0157 5.81358 9.01555 5.80179 9.01904 5.79085C9.02254 5.7799 9.0295 5.77039 9.03888 5.76374C9.04825 5.7571 9.05953 5.75368 9.07101 5.754L9.46601 5.751L9.59201 5.376C9.59565 5.36565 9.60242 5.35668 9.61138 5.35033C9.62033 5.34399 9.63104 5.34058 9.64201 5.34058C9.65299 5.34058 9.66369 5.34399 9.67265 5.35033C9.68161 5.35668 9.68837 5.36565 9.69201 5.376H9.69301ZM5.79101 12.726L5.66601 12.351C5.66237 12.3406 5.65561 12.3317 5.64665 12.3253C5.63769 12.319 5.62699 12.3156 5.61601 12.3156C5.60504 12.3156 5.59433 12.319 5.58538 12.3253C5.57642 12.3317 5.56965 12.3406 5.56601 12.351L5.44001 12.726L5.04501 12.729C5.03372 12.7288 5.02264 12.7322 5.01341 12.7387C5.00418 12.7452 4.99728 12.7545 4.9937 12.7652C4.99013 12.776 4.99008 12.7875 4.99355 12.7983C4.99702 12.809 5.00384 12.8184 5.01301 12.825L5.33201 13.06L5.21201 13.437C5.19701 13.486 5.25201 13.527 5.29401 13.497L5.61601 13.267L5.93701 13.497C5.97901 13.527 6.03501 13.486 6.01901 13.437L5.89901 13.06L6.21801 12.825C6.22711 12.8184 6.23389 12.8092 6.23739 12.7985C6.24088 12.7879 6.24091 12.7764 6.23746 12.7657C6.23402 12.755 6.22728 12.7457 6.21821 12.7391C6.20915 12.7325 6.19822 12.729 6.18701 12.729L5.79101 12.726ZM11.066 6.85L10.941 7.225L10.546 7.228C10.5347 7.22778 10.5236 7.23118 10.5144 7.2377C10.5052 7.24421 10.4983 7.25351 10.4947 7.26423C10.4911 7.27495 10.4911 7.28653 10.4945 7.29728C10.498 7.30804 10.5048 7.3174 10.514 7.324L10.833 7.559L10.713 7.936C10.698 7.986 10.753 8.026 10.795 7.996L11.117 7.766L11.438 7.996C11.48 8.026 11.536 7.986 11.52 7.936L11.4 7.559L11.719 7.324C11.7281 7.31745 11.7349 7.30818 11.7384 7.29752C11.7419 7.28687 11.7419 7.27538 11.7385 7.26471C11.735 7.25405 11.7283 7.24474 11.7192 7.23815C11.7101 7.23155 11.6992 7.228 11.688 7.228L11.292 7.225L11.167 6.85C11.1634 6.83965 11.1566 6.83068 11.1477 6.82433C11.1387 6.81799 11.128 6.81458 11.117 6.81458C11.106 6.81458 11.0953 6.81799 11.0864 6.82433C11.0774 6.83068 11.0707 6.83965 11.067 6.85H11.066ZM3.96701 11.252L4.09201 10.877C4.09515 10.8659 4.10183 10.8561 4.11104 10.8492C4.12024 10.8422 4.13147 10.8384 4.14301 10.8384C4.15456 10.8384 4.16578 10.8422 4.17499 10.8492C4.18419 10.8561 4.19087 10.8659 4.19401 10.877L4.31901 11.252L4.71401 11.255C4.76501 11.255 4.78701 11.321 4.74501 11.351L4.42701 11.586L4.54701 11.963C4.55085 11.9738 4.55111 11.9855 4.54776 11.9964C4.5444 12.0073 4.53761 12.0168 4.52839 12.0236C4.51918 12.0303 4.50803 12.0339 4.49661 12.0338C4.48519 12.0337 4.4741 12.0299 4.46501 12.023L4.14301 11.793L3.82101 12.023C3.8119 12.0295 3.80096 12.0329 3.78977 12.0328C3.77858 12.0327 3.76772 12.0291 3.75872 12.0224C3.74973 12.0158 3.74308 12.0064 3.73972 11.9957C3.73636 11.9851 3.73646 11.9736 3.74001 11.963L3.85901 11.586L3.54101 11.351C3.53192 11.3444 3.52513 11.3352 3.52164 11.3245C3.51814 11.3139 3.51812 11.3024 3.52156 11.2917C3.52501 11.281 3.53175 11.2717 3.54081 11.2651C3.54988 11.2585 3.5608 11.255 3.57201 11.255L3.96701 11.252ZM5.56501 5.376L5.44001 5.751L5.04501 5.754C5.03344 5.75344 5.022 5.7567 5.01245 5.76326C5.0029 5.76982 4.99577 5.77933 4.99214 5.79034C4.98851 5.80134 4.98858 5.81323 4.99235 5.82419C4.99612 5.83514 5.00338 5.84456 5.01301 5.851L5.33201 6.085L5.21201 6.462C5.19701 6.512 5.25201 6.552 5.29401 6.522L5.61601 6.292L5.93701 6.522C5.97901 6.552 6.03501 6.512 6.01901 6.462L5.89901 6.085L6.21801 5.851C6.22756 5.8446 6.23476 5.83528 6.23854 5.82443C6.24233 5.81358 6.24248 5.80179 6.23898 5.79085C6.23548 5.7799 6.22852 5.77039 6.21915 5.76374C6.20978 5.7571 6.1985 5.75368 6.18701 5.754L5.79101 5.751L5.66601 5.376C5.66237 5.36565 5.65561 5.35668 5.64665 5.35033C5.63769 5.34399 5.62699 5.34058 5.61601 5.34058C5.60504 5.34058 5.59433 5.34399 5.58538 5.35033C5.57642 5.35668 5.56965 5.36565 5.56601 5.376H5.56501ZM9.46601 12.726L9.59201 12.351C9.59565 12.3406 9.60242 12.3317 9.61138 12.3253C9.62033 12.319 9.63104 12.3156 9.64201 12.3156C9.65299 12.3156 9.66369 12.319 9.67265 12.3253C9.68161 12.3317 9.68837 12.3406 9.69201 12.351L9.81801 12.726L10.213 12.729C10.264 12.729 10.286 12.795 10.244 12.825L9.92601 13.06L10.046 13.437C10.0499 13.4478 10.0501 13.4595 10.0468 13.4704C10.0434 13.4813 10.0366 13.4908 10.0274 13.4976C10.0182 13.5043 10.007 13.5079 9.99561 13.5078C9.98419 13.5077 9.9731 13.5039 9.96401 13.497L9.64201 13.267L9.32001 13.497C9.3109 13.5035 9.29996 13.5069 9.28877 13.5068C9.27758 13.5067 9.26672 13.5031 9.25772 13.4964C9.24873 13.4898 9.24208 13.4804 9.23872 13.4697C9.23536 13.4591 9.23546 13.4476 9.23901 13.437L9.35801 13.06L9.04001 12.825C9.03092 12.8184 9.02413 12.8092 9.02064 12.7985C9.01714 12.7879 9.01712 12.7764 9.02056 12.7657C9.02401 12.755 9.03075 12.7457 9.03981 12.7391C9.04888 12.7325 9.0598 12.729 9.07101 12.729L9.46601 12.726Z" fill="#FFE15A"/>
<path d="M20.719 7H12.28C11.41 7.00027 10.5757 7.34606 9.96063 7.96134C9.34554 8.57661 9 9.411 9 10.281V18.719C9 19.5892 9.34568 20.4237 9.96098 21.039C10.5763 21.6543 11.4108 22 12.281 22H20.719C21.5892 22 22.4237 21.6543 23.039 21.039C23.6543 20.4237 24 19.5892 24 18.719V10.28C23.9997 9.41 23.6539 8.57572 23.0387 7.96063C22.4234 7.34554 21.589 7 20.719 7Z" fill="#2841C1"/>
<path fill-rule="evenodd" clip-rule="evenodd" d="M20.413 9.946L20.291 9.54599C20.2888 9.53856 20.2842 9.53205 20.278 9.52742C20.2718 9.52278 20.2643 9.52028 20.2565 9.52028C20.2488 9.52028 20.2412 9.52278 20.235 9.52742C20.2288 9.53205 20.2242 9.53856 20.222 9.54599L20.101 9.946L19.711 9.791C19.679 9.778 19.648 9.816 19.669 9.845L19.906 10.19L19.543 10.397C19.5359 10.4006 19.5303 10.4065 19.5269 10.4137C19.5235 10.4209 19.5226 10.429 19.5243 10.4368C19.526 10.4445 19.5302 10.4515 19.5363 10.4566C19.5424 10.4617 19.5501 10.4647 19.558 10.465L19.976 10.494L19.911 10.908C19.9095 10.9158 19.9106 10.924 19.9142 10.9311C19.9178 10.9383 19.9236 10.944 19.9309 10.9475C19.9381 10.9509 19.9462 10.9519 19.9541 10.9501C19.9619 10.9484 19.9689 10.9441 19.974 10.938L20.257 10.629L20.54 10.938C20.564 10.964 20.608 10.943 20.602 10.908L20.538 10.494L20.955 10.464C20.9627 10.4635 20.9701 10.4606 20.976 10.4556C20.9819 10.4507 20.986 10.4439 20.9878 10.4364C20.9896 10.4289 20.989 10.421 20.9859 10.4139C20.9829 10.4068 20.9777 10.4009 20.971 10.397L20.607 10.19L20.845 9.845C20.865 9.815 20.835 9.778 20.802 9.791L20.412 9.946H20.413ZM13.069 17.706L12.821 16.886C12.8165 16.8707 12.8072 16.8572 12.7944 16.8476C12.7816 16.838 12.766 16.8329 12.75 16.8329C12.734 16.8329 12.7185 16.838 12.7057 16.8476C12.6929 16.8572 12.6835 16.8707 12.679 16.886L12.431 17.706L11.635 17.389C11.567 17.362 11.505 17.439 11.546 17.499L12.033 18.206L11.288 18.631C11.225 18.667 11.247 18.763 11.32 18.768L12.175 18.828L12.043 19.675C12.032 19.747 12.121 19.79 12.17 19.736L12.75 19.106L13.33 19.736C13.38 19.79 13.469 19.747 13.457 19.675L13.325 18.828L14.18 18.768C14.253 18.763 14.275 18.667 14.212 18.631L13.467 18.206L13.954 17.5C13.9627 17.4869 13.9669 17.4715 13.9662 17.4558C13.9655 17.4402 13.9599 17.4252 13.9501 17.4129C13.9403 17.4007 13.9269 17.3919 13.9118 17.3878C13.8967 17.3837 13.8807 17.3844 13.866 17.39L13.069 17.706ZM17.586 13.218L17.708 13.618L18.097 13.464C18.13 13.451 18.16 13.488 18.14 13.518L17.902 13.863L18.266 14.07C18.296 14.088 18.286 14.135 18.25 14.137L17.833 14.167L17.897 14.58C17.8982 14.5876 17.8969 14.5954 17.8933 14.6023C17.8898 14.6091 17.8841 14.6146 17.8771 14.618C17.8702 14.6213 17.8623 14.6224 17.8548 14.6209C17.8472 14.6195 17.8403 14.6157 17.835 14.61L17.552 14.302L17.268 14.61C17.2628 14.6157 17.2559 14.6195 17.2483 14.6209C17.2407 14.6224 17.2328 14.6213 17.2259 14.618C17.219 14.6146 17.2133 14.6091 17.2097 14.6023C17.2061 14.5954 17.2048 14.5876 17.206 14.58L17.271 14.167L16.853 14.137C16.817 14.135 16.807 14.087 16.838 14.07L17.201 13.863L16.964 13.518C16.944 13.488 16.974 13.45 17.007 13.464L17.396 13.619L17.517 13.218C17.5189 13.2101 17.5234 13.2031 17.5297 13.1981C17.5361 13.1931 17.5439 13.1904 17.552 13.1904C17.5601 13.1904 17.5679 13.1931 17.5743 13.1981C17.5806 13.2031 17.5851 13.2101 17.587 13.218H17.586ZM22.976 11.705L22.854 11.304C22.844 11.27 22.794 11.27 22.784 11.304L22.664 11.704L22.274 11.55C22.2668 11.5471 22.2589 11.5466 22.2514 11.5486C22.2439 11.5505 22.2372 11.5549 22.2324 11.5609C22.2275 11.567 22.2248 11.5745 22.2245 11.5822C22.2243 11.59 22.2266 11.5976 22.231 11.604L22.469 11.949L22.105 12.156C22.0984 12.1598 22.0932 12.1657 22.0901 12.1727C22.087 12.1797 22.0863 12.1875 22.088 12.195C22.0896 12.2025 22.0936 12.2092 22.0994 12.2142C22.1052 12.2193 22.1124 12.2223 22.12 12.223L22.538 12.253L22.474 12.666C22.4728 12.6736 22.4741 12.6814 22.4777 12.6883C22.4813 12.6951 22.487 12.7006 22.4939 12.704C22.5008 12.7073 22.5087 12.7084 22.5163 12.7069C22.5239 12.7055 22.5308 12.7017 22.536 12.696L22.819 12.388L23.102 12.696C23.126 12.723 23.17 12.701 23.165 12.666L23.1 12.252L23.518 12.223C23.5256 12.2223 23.5329 12.2193 23.5386 12.2142C23.5444 12.2092 23.5484 12.2025 23.5501 12.195C23.5517 12.1875 23.551 12.1797 23.5479 12.1727C23.5449 12.1657 23.5396 12.1598 23.533 12.156L23.169 11.948L23.407 11.604C23.4115 11.5976 23.4137 11.59 23.4135 11.5822C23.4132 11.5745 23.4105 11.567 23.4057 11.5609C23.4008 11.5549 23.3942 11.5505 23.3867 11.5486C23.3792 11.5466 23.3712 11.5471 23.364 11.55L22.975 11.705H22.976ZM20.291 17.783L20.413 18.184L20.802 18.029C20.8092 18.0261 20.8172 18.0256 20.8247 18.0276C20.8322 18.0295 20.8388 18.0339 20.8437 18.0399C20.8485 18.046 20.8512 18.0535 20.8515 18.0612C20.8517 18.069 20.8495 18.0766 20.845 18.083L20.607 18.428L20.971 18.635C20.9782 18.6387 20.9839 18.6446 20.9872 18.6519C20.9906 18.6592 20.9914 18.6674 20.9896 18.6752C20.9877 18.6831 20.9833 18.69 20.9771 18.6951C20.9708 18.7001 20.963 18.7029 20.955 18.703L20.538 18.732L20.602 19.146C20.608 19.181 20.564 19.202 20.54 19.176L20.257 18.867L19.973 19.176C19.9678 19.1817 19.9609 19.1855 19.9533 19.1869C19.9457 19.1884 19.9378 19.1873 19.9309 19.184C19.924 19.1806 19.9183 19.1751 19.9147 19.1683C19.9111 19.1614 19.9098 19.1536 19.911 19.146L19.976 18.732L19.558 18.702C19.5504 18.7013 19.5432 18.6983 19.5374 18.6932C19.5316 18.6882 19.5276 18.6815 19.526 18.674C19.5243 18.6665 19.525 18.6587 19.5281 18.6517C19.5312 18.6447 19.5364 18.6388 19.543 18.635L19.906 18.428L19.669 18.083C19.6646 18.0766 19.6623 18.069 19.6625 18.0612C19.6628 18.0535 19.6655 18.046 19.6704 18.0399C19.6752 18.0339 19.6819 18.0295 19.6894 18.0276C19.6969 18.0256 19.7048 18.0261 19.712 18.029L20.101 18.184L20.222 17.784C20.2239 17.7761 20.2284 17.7691 20.2347 17.7641C20.2411 17.7591 20.2489 17.7564 20.257 17.7564C20.2651 17.7564 20.2729 17.7591 20.2793 17.7641C20.2856 17.7691 20.2901 17.7761 20.292 17.784L20.291 17.783ZM21.133 14.528L21.231 14.235C21.2334 14.2264 21.2386 14.2188 21.2457 14.2133C21.2528 14.2079 21.2616 14.205 21.2705 14.205C21.2795 14.205 21.2882 14.2079 21.2953 14.2133C21.3025 14.2188 21.3076 14.2264 21.31 14.235L21.407 14.528L21.715 14.53C21.755 14.53 21.771 14.581 21.739 14.605L21.492 14.788L21.584 15.081C21.5871 15.0893 21.5873 15.0983 21.5848 15.1068C21.5823 15.1153 21.5771 15.1227 21.57 15.128C21.563 15.1333 21.5544 15.1361 21.5455 15.1361C21.5367 15.1361 21.5281 15.1333 21.521 15.128L21.271 14.948L21.02 15.128C21.0129 15.1328 21.0045 15.1353 20.9959 15.1352C20.9873 15.1351 20.979 15.1323 20.972 15.1273C20.965 15.1223 20.9597 15.1153 20.9569 15.1072C20.954 15.0991 20.9537 15.0903 20.956 15.082L21.049 14.788L20.801 14.605C20.7943 14.5997 20.7893 14.5925 20.7868 14.5843C20.7843 14.5761 20.7843 14.5673 20.7869 14.5592C20.7896 14.551 20.7946 14.5438 20.8014 14.5386C20.8082 14.5334 20.8165 14.5304 20.825 14.53L21.133 14.528Z" fill="#F5F5F5"/>
<path fill-rule="evenodd" clip-rule="evenodd" d="M16.5 7V7.585L13.736 9.395V7H16.5ZM9.814 8.118C10.3182 7.54224 11.0081 7.1612 11.764 7.041V9.396L9.814 8.118ZM9.041 9.763C9.075 9.546 9.131 9.336 9.206 9.136L10.164 9.763H9.04H9.041ZM9 11.737V12.499L10.163 11.737H9ZM16.501 12.499V11.737H15.338L16.501 12.499ZM16.5 14.5H13.737V12.104L16.501 13.914V14.5H16.5ZM16.502 9.763V9.001L15.339 9.763H16.5H16.502ZM9 13.915L11.763 12.105V14.5H9V13.915Z" fill="#2841C1"/>
<path fill-rule="evenodd" clip-rule="evenodd" d="M16.5 9.763V10.158H13.342V7H13.736V9.396L16.5 7.586V7.969L13.736 9.763H14.462L16.5 8.44V9.001L15.336 9.763H16.5ZM12.157 7.003C12.025 7.00775 11.8935 7.02044 11.763 7.041V9.396L9.813 8.119C9.69561 8.25284 9.58926 8.39597 9.495 8.547L11.368 9.763H10.643L9.306 8.895C9.26949 8.97364 9.23613 9.0537 9.206 9.135L10.163 9.763H9.04C9.02 9.893 9.007 10.024 9.002 10.158H12.157V7.003ZM12.157 14.5H11.763V12.104L9 13.914V13.524L11.752 11.737H11.027L9 13.053V12.499L10.163 11.737H9V11.342H12.158V14.5H12.157ZM13.737 14.5H13.342V11.342H16.5V11.737H15.336L16.5 12.499V12.859L14.77 11.737H14.046L16.5 13.33V13.915L13.736 12.105V14.5H13.737Z" fill="#F5F5F5"/>
<path fill-rule="evenodd" clip-rule="evenodd" d="M12.158 14.5H13.342V11.342H16.5V10.158H13.342V7H12.282C12.24 7 12.199 7.001 12.158 7.003V10.158H9.003C9.00125 10.1986 9.00025 10.2393 9 10.28V11.341H12.158V14.5ZM11.028 11.737L9 13.053V13.523L11.752 11.737H11.027H11.028ZM16.499 13.33L14.045 11.737H14.77L16.5 12.859V13.329L16.499 13.33ZM11.367 9.763L9.494 8.547C9.424 8.659 9.361 8.775 9.304 8.895L10.642 9.763H11.367ZM16.5 8.44L14.46 9.763H13.735L16.5 7.97V8.441V8.44Z" fill="#FF4B55"/>
</g>
<defs>
<clipPath id="clip0">
<rect width="24" height="24" fill="white"/>
</clipPath>
</defs>
</svg>
