<svg width="25" height="24" viewBox="0 0 25 24" fill="none" xmlns="http://www.w3.org/2000/svg">
<path d="M12.219 2H3.78C2.91 2.00027 2.07572 2.34606 1.46063 2.96134C0.845538 3.57661 0.5 4.411 0.5 5.281L0.5 13.719C0.5 14.5892 0.845676 15.4237 1.46098 16.039C2.07629 16.6543 2.91082 17 3.781 17H12.219C13.0892 17 13.9237 16.6543 14.539 16.039C15.1543 15.4237 15.5 14.5892 15.5 13.719V5.28C15.4997 4.41 15.1539 3.57572 14.5387 2.96063C13.9234 2.34554 13.089 2 12.219 2Z" fill="#0A48B6"/>
<path fill-rule="evenodd" clip-rule="evenodd" d="M8.24001 5.301L8.11401 4.926C8.11037 4.91565 8.10361 4.90668 8.09465 4.90033C8.08569 4.89399 8.07499 4.89058 8.06401 4.89058C8.05304 4.89058 8.04233 4.89399 8.03338 4.90033C8.02442 4.90668 8.01765 4.91565 8.01401 4.926L7.88801 5.301L7.49301 5.305C7.4818 5.305 7.47088 5.30855 7.46181 5.31515C7.45275 5.32174 7.44601 5.33105 7.44256 5.34171C7.43912 5.35238 7.43914 5.36387 7.44264 5.37452C7.44613 5.38518 7.45292 5.39445 7.46201 5.401L7.78001 5.636L7.66001 6.013C7.64501 6.061 7.70001 6.102 7.74201 6.072L8.06401 5.842L8.38601 6.072C8.42701 6.102 8.48301 6.062 8.46701 6.012L8.34801 5.636L8.66601 5.401C8.67511 5.39445 8.68189 5.38518 8.68539 5.37452C8.68888 5.36387 8.68891 5.35238 8.68546 5.34171C8.68202 5.33105 8.67528 5.32174 8.66621 5.31515C8.65715 5.30855 8.64623 5.305 8.63501 5.305L8.24001 5.3V5.301ZM8.24001 13.355L8.11401 12.98C8.11037 12.9696 8.10361 12.9607 8.09465 12.9543C8.08569 12.948 8.07499 12.9446 8.06401 12.9446C8.05304 12.9446 8.04233 12.948 8.03338 12.9543C8.02442 12.9607 8.01765 12.9696 8.01401 12.98L7.88801 13.355L7.49301 13.358C7.4818 13.358 7.47088 13.3616 7.46181 13.3681C7.45275 13.3747 7.44601 13.384 7.44256 13.3947C7.43912 13.4054 7.43914 13.4169 7.44264 13.4275C7.44613 13.4382 7.45292 13.4474 7.46201 13.454L7.78001 13.689L7.66001 14.066C7.64501 14.115 7.70001 14.156 7.74201 14.126L8.06401 13.896L8.38601 14.126C8.42701 14.156 8.48301 14.115 8.46701 14.066L8.34801 13.689L8.66601 13.454C8.67511 13.4474 8.68189 13.4382 8.68539 13.4275C8.68888 13.4169 8.68891 13.4054 8.68546 13.3947C8.68202 13.384 8.67528 13.3747 8.66621 13.3681C8.65715 13.3616 8.64623 13.358 8.63501 13.358L8.24001 13.355ZM12.14 8.953L12.266 9.328L12.661 9.331C12.713 9.331 12.734 9.397 12.693 9.428L12.374 9.662L12.494 10.039C12.4979 10.0498 12.4981 10.0615 12.4948 10.0724C12.4914 10.0833 12.4846 10.0928 12.4754 10.0996C12.4662 10.1063 12.455 10.1099 12.4436 10.1098C12.4322 10.1097 12.4211 10.1059 12.412 10.099L12.09 9.869L11.769 10.099C11.7599 10.1059 11.7488 10.1097 11.7374 10.1098C11.726 10.1099 11.7149 10.1063 11.7056 10.0996C11.6964 10.0928 11.6896 10.0833 11.6863 10.0724C11.6829 10.0615 11.6832 10.0498 11.687 10.039L11.807 9.662L11.488 9.428C11.4785 9.4216 11.4713 9.41228 11.4675 9.40143C11.4637 9.39058 11.4635 9.37879 11.467 9.36785C11.4705 9.3569 11.4775 9.34739 11.4869 9.34074C11.4962 9.3341 11.5075 9.33068 11.519 9.331L11.915 9.328L12.04 8.953C12.0437 8.94265 12.0504 8.93368 12.0594 8.92733C12.0683 8.92099 12.079 8.91758 12.09 8.91758C12.101 8.91758 12.1117 8.92099 12.1207 8.92733C12.1296 8.93368 12.1364 8.94265 12.14 8.953ZM4.21301 9.328L4.08801 8.953C4.0846 8.94229 4.07787 8.93294 4.06879 8.9263C4.05971 8.91966 4.04876 8.91609 4.03751 8.91609C4.02627 8.91609 4.01531 8.91966 4.00624 8.9263C3.99716 8.93294 3.99043 8.94229 3.98701 8.953L3.86201 9.328L3.46701 9.331C3.45544 9.33044 3.444 9.3337 3.43445 9.34026C3.4249 9.34682 3.41777 9.35633 3.41414 9.36734C3.41051 9.37834 3.41058 9.39023 3.41435 9.40119C3.41812 9.41214 3.42538 9.42156 3.43501 9.428L3.75301 9.662L3.63401 10.039C3.61901 10.089 3.67401 10.129 3.71601 10.099L4.03801 9.869L4.35901 10.099C4.40101 10.129 4.45601 10.089 4.44101 10.039L4.32101 9.662L4.64001 9.428C4.64956 9.4216 4.65676 9.41228 4.66054 9.40143C4.66433 9.39058 4.66448 9.37879 4.66098 9.36785C4.65748 9.3569 4.65052 9.34739 4.64115 9.34074C4.63178 9.3341 4.6205 9.33068 4.60901 9.331L4.21301 9.328ZM4.69301 6.85L4.81901 7.225L5.21401 7.228C5.26501 7.228 5.28601 7.294 5.24501 7.324L4.92701 7.559L5.04701 7.936C5.05085 7.94676 5.05111 7.95847 5.04776 7.96938C5.0444 7.9803 5.03761 7.98984 5.02839 7.99659C5.01918 8.00333 5.00803 8.00692 4.99661 8.00681C4.98519 8.00671 4.9741 8.00291 4.96501 7.996L4.64301 7.766L4.32101 7.996C4.3119 8.00249 4.30096 8.00593 4.28977 8.00583C4.27858 8.00572 4.26772 8.00208 4.25872 7.99542C4.24973 7.98876 4.24308 7.97942 4.23972 7.96875C4.23636 7.95807 4.23646 7.94661 4.24001 7.936L4.35901 7.559L4.04101 7.324C4.03192 7.31745 4.02513 7.30818 4.02164 7.29752C4.01814 7.28687 4.01812 7.27538 4.02156 7.26471C4.02501 7.25405 4.03175 7.24474 4.04081 7.23815C4.04988 7.23155 4.0608 7.228 4.07201 7.228L4.46701 7.225L4.59201 6.85C4.59515 6.83889 4.60183 6.82912 4.61104 6.82215C4.62024 6.81519 4.63147 6.81142 4.64301 6.81142C4.65456 6.81142 4.66578 6.81519 4.67499 6.82215C4.68419 6.82912 4.69087 6.83889 4.69401 6.85H4.69301ZM11.793 11.252L11.667 10.877C11.6634 10.8666 11.6566 10.8577 11.6477 10.8513C11.6387 10.845 11.628 10.8416 11.617 10.8416C11.606 10.8416 11.5953 10.845 11.5864 10.8513C11.5774 10.8577 11.5707 10.8666 11.567 10.877L11.441 11.252L11.046 11.255C11.0347 11.2548 11.0236 11.2582 11.0144 11.2647C11.0052 11.2712 10.9983 11.2805 10.9947 11.2912C10.9911 11.302 10.9911 11.3135 10.9945 11.3243C10.998 11.335 11.0048 11.3444 11.014 11.351L11.333 11.586L11.213 11.963C11.198 12.012 11.253 12.053 11.295 12.023L11.617 11.793L11.938 12.023C11.98 12.053 12.036 12.012 12.02 11.963L11.9 11.586L12.219 11.351C12.2281 11.3444 12.2349 11.3352 12.2384 11.3245C12.2419 11.3139 12.2419 11.3024 12.2385 11.2917C12.235 11.281 12.2283 11.2717 12.2192 11.2651C12.2101 11.2585 12.1992 11.255 12.188 11.255L11.792 11.252H11.793ZM10.193 5.376L10.318 5.751L10.713 5.754C10.764 5.754 10.786 5.82 10.744 5.851L10.426 6.085L10.546 6.462C10.5499 6.47276 10.5501 6.48447 10.5468 6.49538C10.5434 6.5063 10.5366 6.51584 10.5274 6.52259C10.5182 6.52933 10.507 6.53292 10.4956 6.53281C10.4842 6.53271 10.4731 6.52891 10.464 6.522L10.142 6.292L9.82001 6.522C9.8109 6.52849 9.79996 6.53193 9.78877 6.53183C9.77758 6.53172 9.76672 6.52808 9.75772 6.52142C9.74873 6.51476 9.74208 6.50542 9.73872 6.49475C9.73536 6.48407 9.73546 6.47261 9.73901 6.462L9.85801 6.085L9.54001 5.851C9.53047 5.8446 9.52326 5.83528 9.51948 5.82443C9.5157 5.81358 9.51555 5.80179 9.51904 5.79085C9.52254 5.7799 9.5295 5.77039 9.53888 5.76374C9.54825 5.7571 9.55953 5.75368 9.57101 5.754L9.96601 5.751L10.092 5.376C10.0957 5.36565 10.1024 5.35668 10.1114 5.35033C10.1203 5.34399 10.131 5.34058 10.142 5.34058C10.153 5.34058 10.1637 5.34399 10.1727 5.35033C10.1816 5.35668 10.1884 5.36565 10.192 5.376H10.193ZM6.29101 12.726L6.16601 12.351C6.16237 12.3406 6.15561 12.3317 6.14665 12.3253C6.13769 12.319 6.12699 12.3156 6.11601 12.3156C6.10504 12.3156 6.09433 12.319 6.08538 12.3253C6.07642 12.3317 6.06965 12.3406 6.06601 12.351L5.94001 12.726L5.54501 12.729C5.53372 12.7288 5.52264 12.7322 5.51341 12.7387C5.50418 12.7452 5.49728 12.7545 5.4937 12.7652C5.49013 12.776 5.49008 12.7875 5.49355 12.7983C5.49702 12.809 5.50384 12.8184 5.51301 12.825L5.83201 13.06L5.71201 13.437C5.69701 13.486 5.75201 13.527 5.79401 13.497L6.11601 13.267L6.43701 13.497C6.47901 13.527 6.53501 13.486 6.51901 13.437L6.39901 13.06L6.71801 12.825C6.72711 12.8184 6.73389 12.8092 6.73739 12.7985C6.74088 12.7879 6.74091 12.7764 6.73746 12.7657C6.73402 12.755 6.72728 12.7457 6.71821 12.7391C6.70915 12.7325 6.69822 12.729 6.68701 12.729L6.29101 12.726ZM11.566 6.85L11.441 7.225L11.046 7.228C11.0347 7.22778 11.0236 7.23118 11.0144 7.2377C11.0052 7.24421 10.9983 7.25351 10.9947 7.26423C10.9911 7.27495 10.9911 7.28653 10.9945 7.29728C10.998 7.30804 11.0048 7.3174 11.014 7.324L11.333 7.559L11.213 7.936C11.198 7.986 11.253 8.026 11.295 7.996L11.617 7.766L11.938 7.996C11.98 8.026 12.036 7.986 12.02 7.936L11.9 7.559L12.219 7.324C12.2281 7.31745 12.2349 7.30818 12.2384 7.29752C12.2419 7.28687 12.2419 7.27538 12.2385 7.26471C12.235 7.25405 12.2283 7.24474 12.2192 7.23815C12.2101 7.23155 12.1992 7.228 12.188 7.228L11.792 7.225L11.667 6.85C11.6634 6.83965 11.6566 6.83068 11.6477 6.82433C11.6387 6.81799 11.628 6.81458 11.617 6.81458C11.606 6.81458 11.5953 6.81799 11.5864 6.82433C11.5774 6.83068 11.5707 6.83965 11.567 6.85H11.566ZM4.46701 11.252L4.59201 10.877C4.59515 10.8659 4.60183 10.8561 4.61104 10.8492C4.62024 10.8422 4.63147 10.8384 4.64301 10.8384C4.65456 10.8384 4.66578 10.8422 4.67499 10.8492C4.68419 10.8561 4.69087 10.8659 4.69401 10.877L4.81901 11.252L5.21401 11.255C5.26501 11.255 5.28701 11.321 5.24501 11.351L4.92701 11.586L5.04701 11.963C5.05085 11.9738 5.05111 11.9855 5.04776 11.9964C5.0444 12.0073 5.03761 12.0168 5.02839 12.0236C5.01918 12.0303 5.00803 12.0339 4.99661 12.0338C4.98519 12.0337 4.9741 12.0299 4.96501 12.023L4.64301 11.793L4.32101 12.023C4.3119 12.0295 4.30096 12.0329 4.28977 12.0328C4.27858 12.0327 4.26772 12.0291 4.25872 12.0224C4.24973 12.0158 4.24308 12.0064 4.23972 11.9957C4.23636 11.9851 4.23646 11.9736 4.24001 11.963L4.35901 11.586L4.04101 11.351C4.03192 11.3444 4.02513 11.3352 4.02164 11.3245C4.01814 11.3139 4.01812 11.3024 4.02156 11.2917C4.02501 11.281 4.03175 11.2717 4.04081 11.2651C4.04988 11.2585 4.0608 11.255 4.07201 11.255L4.46701 11.252ZM6.06501 5.376L5.94001 5.751L5.54501 5.754C5.53344 5.75344 5.522 5.7567 5.51245 5.76326C5.5029 5.76982 5.49577 5.77933 5.49214 5.79034C5.48851 5.80134 5.48858 5.81323 5.49235 5.82419C5.49612 5.83514 5.50338 5.84456 5.51301 5.851L5.83201 6.085L5.71201 6.462C5.69701 6.512 5.75201 6.552 5.79401 6.522L6.11601 6.292L6.43701 6.522C6.47901 6.552 6.53501 6.512 6.51901 6.462L6.39901 6.085L6.71801 5.851C6.72756 5.8446 6.73476 5.83528 6.73854 5.82443C6.74233 5.81358 6.74248 5.80179 6.73898 5.79085C6.73548 5.7799 6.72852 5.77039 6.71915 5.76374C6.70978 5.7571 6.6985 5.75368 6.68701 5.754L6.29101 5.751L6.16601 5.376C6.16237 5.36565 6.15561 5.35668 6.14665 5.35033C6.13769 5.34399 6.12699 5.34058 6.11601 5.34058C6.10504 5.34058 6.09433 5.34399 6.08538 5.35033C6.07642 5.35668 6.06965 5.36565 6.06601 5.376H6.06501ZM9.96601 12.726L10.092 12.351C10.0957 12.3406 10.1024 12.3317 10.1114 12.3253C10.1203 12.319 10.131 12.3156 10.142 12.3156C10.153 12.3156 10.1637 12.319 10.1727 12.3253C10.1816 12.3317 10.1884 12.3406 10.192 12.351L10.318 12.726L10.713 12.729C10.764 12.729 10.786 12.795 10.744 12.825L10.426 13.06L10.546 13.437C10.5499 13.4478 10.5501 13.4595 10.5468 13.4704C10.5434 13.4813 10.5366 13.4908 10.5274 13.4976C10.5182 13.5043 10.507 13.5079 10.4956 13.5078C10.4842 13.5077 10.4731 13.5039 10.464 13.497L10.142 13.267L9.82001 13.497C9.8109 13.5035 9.79996 13.5069 9.78877 13.5068C9.77758 13.5067 9.76672 13.5031 9.75772 13.4964C9.74873 13.4898 9.74208 13.4804 9.73872 13.4697C9.73536 13.4591 9.73546 13.4476 9.73901 13.437L9.85801 13.06L9.54001 12.825C9.53092 12.8184 9.52413 12.8092 9.52064 12.7985C9.51714 12.7879 9.51712 12.7764 9.52056 12.7657C9.52401 12.755 9.53075 12.7457 9.53981 12.7391C9.54888 12.7325 9.5598 12.729 9.57101 12.729L9.96601 12.726Z" fill="#FFE15A"/>
<path d="M21.5 7H12.5V22H21.5V7Z" fill="#F6F6F6"/>
<path fill-rule="evenodd" clip-rule="evenodd" d="M12.637 7C12.591 7 12.545 7.001 12.5 7.003L12.637 7ZM12.5 21.996C10.831 21.921 9.5 20.482 9.5 18.718V10.281C9.5 8.517 10.831 7.078 12.5 7.003V21.996ZM12.637 21.999L12.5 21.996C12.545 21.998 12.591 21.999 12.637 21.999ZM21.364 7L21.5 7.003C21.4547 7.00099 21.4094 6.99999 21.364 7ZM21.5 7.003C23.17 7.077 24.501 8.516 24.501 10.281V18.718C24.501 20.53 23.097 21.999 21.364 21.999L21.499 21.996L21.5 7.003ZM20.104 14.758L18.569 15.635C18.492 15.679 18.4332 15.7489 18.403 15.8322C18.3728 15.9155 18.3731 16.0069 18.404 16.09L18.536 16.44L17.22 16.328C17.2028 16.3266 17.1855 16.3288 17.1693 16.3346C17.153 16.3403 17.1382 16.3494 17.1257 16.3613C17.1132 16.3732 17.1034 16.3877 17.0969 16.4036C17.0904 16.4196 17.0874 16.4368 17.088 16.454L17.129 17.861H16.87L16.912 16.454C16.9126 16.4367 16.9096 16.4194 16.903 16.4034C16.8965 16.3873 16.8866 16.3729 16.874 16.3609C16.8614 16.349 16.8464 16.3399 16.83 16.3342C16.8137 16.3285 16.7963 16.3264 16.779 16.328L15.464 16.441L15.595 16.09C15.6262 16.007 15.6268 15.9157 15.5967 15.8323C15.5667 15.7489 15.5079 15.679 15.431 15.635L13.897 14.758L14.249 14.582C14.2971 14.5577 14.3364 14.5191 14.3615 14.4714C14.3866 14.4237 14.3962 14.3694 14.389 14.316L14.275 13.457L14.925 13.647C14.959 13.6567 14.9946 13.6594 15.0296 13.6548C15.0646 13.6502 15.0983 13.6386 15.1287 13.6205C15.159 13.6024 15.1854 13.5783 15.206 13.5497C15.2267 13.521 15.2414 13.4885 15.249 13.454L15.311 13.173L15.921 13.887C16.006 13.986 16.167 13.91 16.145 13.782L15.885 12.267L16.283 12.376C16.3397 12.3915 16.4 12.3873 16.4539 12.3641C16.5079 12.3408 16.5524 12.2999 16.58 12.248L17 11.461V11.46V11.461L17.42 12.248C17.477 12.355 17.6 12.408 17.717 12.376L18.116 12.266L17.855 13.782C17.833 13.91 17.995 13.986 18.079 13.887L18.689 13.173L18.751 13.453C18.7586 13.4876 18.7733 13.5203 18.794 13.549C18.8148 13.5777 18.8412 13.6018 18.8717 13.6199C18.9021 13.638 18.936 13.6497 18.9711 13.6541C19.0063 13.6586 19.042 13.6559 19.076 13.646L19.726 13.457L19.611 14.317C19.604 14.3702 19.6137 14.4243 19.6388 14.4718C19.6639 14.5193 19.7031 14.5578 19.751 14.582L20.103 14.758H20.104Z" fill="#FB4B4E"/>
</svg>
