<svg width="24" height="24" viewBox="0 0 24 24" fill="none" xmlns="http://www.w3.org/2000/svg">
<g clip-path="url(#clip0)">
<path d="M11.719 2H3.28C2.41 2.00027 1.57572 2.34606 0.960629 2.96134C0.345538 3.57661 -4.0409e-08 4.411 0 5.281L0 13.719C0 14.5892 0.345676 15.4237 0.960983 16.039C1.57629 16.6543 2.41082 17 3.281 17H11.719C12.5892 17 13.4237 16.6543 14.039 16.039C14.6543 15.4237 15 14.5892 15 13.719V5.28C14.9997 4.41 14.6539 3.57572 14.0387 2.96063C13.4234 2.34554 12.589 2 11.719 2Z" fill="#0A48B6"/>
<path fill-rule="evenodd" clip-rule="evenodd" d="M7.73998 5.301L7.61398 4.926C7.61034 4.91565 7.60358 4.90668 7.59462 4.90033C7.58566 4.89399 7.57496 4.89058 7.56398 4.89058C7.55301 4.89058 7.5423 4.89399 7.53335 4.90033C7.52439 4.90668 7.51762 4.91565 7.51398 4.926L7.38798 5.301L6.99298 5.305C6.98177 5.305 6.97085 5.30855 6.96178 5.31515C6.95272 5.32174 6.94598 5.33105 6.94253 5.34171C6.93909 5.35238 6.93911 5.36387 6.94261 5.37452C6.9461 5.38518 6.95289 5.39445 6.96198 5.401L7.27998 5.636L7.15998 6.013C7.14498 6.061 7.19998 6.102 7.24198 6.072L7.56398 5.842L7.88598 6.072C7.92698 6.102 7.98298 6.062 7.96698 6.012L7.84798 5.636L8.16598 5.401C8.17508 5.39445 8.18186 5.38518 8.18536 5.37452C8.18885 5.36387 8.18888 5.35238 8.18543 5.34171C8.18199 5.33105 8.17525 5.32174 8.16618 5.31515C8.15712 5.30855 8.14619 5.305 8.13498 5.305L7.73998 5.3V5.301ZM7.73998 13.355L7.61398 12.98C7.61034 12.9696 7.60358 12.9607 7.59462 12.9543C7.58566 12.948 7.57496 12.9446 7.56398 12.9446C7.55301 12.9446 7.5423 12.948 7.53335 12.9543C7.52439 12.9607 7.51762 12.9696 7.51398 12.98L7.38798 13.355L6.99298 13.358C6.98177 13.358 6.97085 13.3616 6.96178 13.3681C6.95272 13.3747 6.94598 13.384 6.94253 13.3947C6.93909 13.4054 6.93911 13.4169 6.94261 13.4275C6.9461 13.4382 6.95289 13.4474 6.96198 13.454L7.27998 13.689L7.15998 14.066C7.14498 14.115 7.19998 14.156 7.24198 14.126L7.56398 13.896L7.88598 14.126C7.92698 14.156 7.98298 14.115 7.96698 14.066L7.84798 13.689L8.16598 13.454C8.17508 13.4474 8.18186 13.4382 8.18536 13.4275C8.18885 13.4169 8.18888 13.4054 8.18543 13.3947C8.18199 13.384 8.17525 13.3747 8.16618 13.3681C8.15712 13.3616 8.14619 13.358 8.13498 13.358L7.73998 13.355ZM11.64 8.953L11.766 9.328L12.161 9.331C12.213 9.331 12.234 9.397 12.193 9.428L11.874 9.662L11.994 10.039C11.9978 10.0498 11.9981 10.0615 11.9947 10.0724C11.9914 10.0833 11.9846 10.0928 11.9754 10.0996C11.9661 10.1063 11.955 10.1099 11.9436 10.1098C11.9322 10.1097 11.9211 10.1059 11.912 10.099L11.59 9.869L11.269 10.099C11.2599 10.1059 11.2488 10.1097 11.2374 10.1098C11.226 10.1099 11.2148 10.1063 11.2056 10.0996C11.1964 10.0928 11.1896 10.0833 11.1862 10.0724C11.1829 10.0615 11.1831 10.0498 11.187 10.039L11.307 9.662L10.988 9.428C10.9784 9.4216 10.9712 9.41228 10.9675 9.40143C10.9637 9.39058 10.9635 9.37879 10.967 9.36785C10.9705 9.3569 10.9775 9.34739 10.9868 9.34074C10.9962 9.3341 11.0075 9.33068 11.019 9.331L11.415 9.328L11.54 8.953C11.5436 8.94265 11.5504 8.93368 11.5593 8.92733C11.5683 8.92099 11.579 8.91758 11.59 8.91758C11.601 8.91758 11.6117 8.92099 11.6206 8.92733C11.6296 8.93368 11.6363 8.94265 11.64 8.953ZM3.71298 9.328L3.58798 8.953C3.58457 8.94229 3.57784 8.93294 3.56876 8.9263C3.55968 8.91966 3.54873 8.91609 3.53748 8.91609C3.52624 8.91609 3.51528 8.91966 3.50621 8.9263C3.49713 8.93294 3.4904 8.94229 3.48698 8.953L3.36198 9.328L2.96698 9.331C2.95541 9.33044 2.94397 9.3337 2.93442 9.34026C2.92487 9.34682 2.91774 9.35633 2.91411 9.36734C2.91048 9.37834 2.91055 9.39023 2.91432 9.40119C2.91809 9.41214 2.92535 9.42156 2.93498 9.428L3.25298 9.662L3.13398 10.039C3.11898 10.089 3.17398 10.129 3.21598 10.099L3.53798 9.869L3.85898 10.099C3.90098 10.129 3.95598 10.089 3.94098 10.039L3.82098 9.662L4.13998 9.428C4.14953 9.4216 4.15673 9.41228 4.16051 9.40143C4.1643 9.39058 4.16445 9.37879 4.16095 9.36785C4.15745 9.3569 4.15049 9.34739 4.14112 9.34074C4.13175 9.3341 4.12047 9.33068 4.10898 9.331L3.71298 9.328ZM4.19298 6.85L4.31898 7.225L4.71398 7.228C4.76498 7.228 4.78598 7.294 4.74498 7.324L4.42698 7.559L4.54698 7.936C4.55082 7.94676 4.55108 7.95847 4.54773 7.96938C4.54437 7.9803 4.53758 7.98984 4.52836 7.99659C4.51915 8.00333 4.508 8.00692 4.49658 8.00681C4.48515 8.00671 4.47407 8.00291 4.46498 7.996L4.14298 7.766L3.82098 7.996C3.81187 8.00249 3.80093 8.00593 3.78974 8.00583C3.77855 8.00572 3.76768 8.00208 3.75869 7.99542C3.7497 7.98876 3.74305 7.97942 3.73969 7.96875C3.73633 7.95807 3.73643 7.94661 3.73998 7.936L3.85898 7.559L3.54098 7.324C3.53189 7.31745 3.5251 7.30818 3.52161 7.29752C3.51811 7.28687 3.51809 7.27538 3.52153 7.26471C3.52498 7.25405 3.53172 7.24474 3.54078 7.23815C3.54985 7.23155 3.56077 7.228 3.57198 7.228L3.96698 7.225L4.09198 6.85C4.09512 6.83889 4.1018 6.82912 4.11101 6.82215C4.12021 6.81519 4.13144 6.81142 4.14298 6.81142C4.15452 6.81142 4.16575 6.81519 4.17496 6.82215C4.18416 6.82912 4.19084 6.83889 4.19398 6.85H4.19298ZM11.293 11.252L11.167 10.877C11.1633 10.8666 11.1566 10.8577 11.1476 10.8513C11.1387 10.845 11.128 10.8416 11.117 10.8416C11.106 10.8416 11.0953 10.845 11.0863 10.8513C11.0774 10.8577 11.0706 10.8666 11.067 10.877L10.941 11.252L10.546 11.255C10.5347 11.2548 10.5236 11.2582 10.5144 11.2647C10.5052 11.2712 10.4982 11.2805 10.4947 11.2912C10.4911 11.302 10.491 11.3135 10.4945 11.3243C10.498 11.335 10.5048 11.3444 10.514 11.351L10.833 11.586L10.713 11.963C10.698 12.012 10.753 12.053 10.795 12.023L11.117 11.793L11.438 12.023C11.48 12.053 11.536 12.012 11.52 11.963L11.4 11.586L11.719 11.351C11.7281 11.3444 11.7349 11.3352 11.7384 11.3245C11.7419 11.3139 11.7419 11.3024 11.7384 11.2917C11.735 11.281 11.7282 11.2717 11.7192 11.2651C11.7101 11.2585 11.6992 11.255 11.688 11.255L11.292 11.252H11.293ZM9.69298 5.376L9.81798 5.751L10.213 5.754C10.264 5.754 10.286 5.82 10.244 5.851L9.92598 6.085L10.046 6.462C10.0498 6.47276 10.0501 6.48447 10.0467 6.49538C10.0434 6.5063 10.0366 6.51584 10.0274 6.52259C10.0181 6.52933 10.007 6.53292 9.99558 6.53281C9.98416 6.53271 9.97307 6.52891 9.96398 6.522L9.64198 6.292L9.31998 6.522C9.31087 6.52849 9.29993 6.53193 9.28874 6.53183C9.27755 6.53172 9.26669 6.52808 9.25769 6.52142C9.2487 6.51476 9.24205 6.50542 9.23869 6.49475C9.23533 6.48407 9.23543 6.47261 9.23898 6.462L9.35798 6.085L9.03998 5.851C9.03044 5.8446 9.02323 5.83528 9.01945 5.82443C9.01567 5.81358 9.01552 5.80179 9.01901 5.79085C9.02251 5.7799 9.02947 5.77039 9.03885 5.76374C9.04822 5.7571 9.0595 5.75368 9.07098 5.754L9.46598 5.751L9.59198 5.376C9.59562 5.36565 9.60239 5.35668 9.61135 5.35033C9.6203 5.34399 9.63101 5.34058 9.64198 5.34058C9.65296 5.34058 9.66366 5.34399 9.67262 5.35033C9.68158 5.35668 9.68834 5.36565 9.69198 5.376H9.69298ZM5.79098 12.726L5.66598 12.351C5.66234 12.3406 5.65558 12.3317 5.64662 12.3253C5.63766 12.319 5.62696 12.3156 5.61598 12.3156C5.60501 12.3156 5.5943 12.319 5.58535 12.3253C5.57639 12.3317 5.56962 12.3406 5.56598 12.351L5.43998 12.726L5.04498 12.729C5.03368 12.7288 5.02261 12.7322 5.01338 12.7387C5.00415 12.7452 4.99725 12.7545 4.99367 12.7652C4.9901 12.776 4.99005 12.7875 4.99352 12.7983C4.99699 12.809 5.00381 12.8184 5.01298 12.825L5.33198 13.06L5.21198 13.437C5.19698 13.486 5.25198 13.527 5.29398 13.497L5.61598 13.267L5.93698 13.497C5.97898 13.527 6.03498 13.486 6.01898 13.437L5.89898 13.06L6.21798 12.825C6.22708 12.8184 6.23386 12.8092 6.23736 12.7985C6.24085 12.7879 6.24088 12.7764 6.23743 12.7657C6.23399 12.755 6.22725 12.7457 6.21818 12.7391C6.20912 12.7325 6.19819 12.729 6.18698 12.729L5.79098 12.726ZM11.066 6.85L10.941 7.225L10.546 7.228C10.5347 7.22778 10.5236 7.23118 10.5144 7.2377C10.5052 7.24421 10.4982 7.25351 10.4947 7.26423C10.4911 7.27495 10.491 7.28653 10.4945 7.29728C10.498 7.30804 10.5048 7.3174 10.514 7.324L10.833 7.559L10.713 7.936C10.698 7.986 10.753 8.026 10.795 7.996L11.117 7.766L11.438 7.996C11.48 8.026 11.536 7.986 11.52 7.936L11.4 7.559L11.719 7.324C11.7281 7.31745 11.7349 7.30818 11.7384 7.29752C11.7419 7.28687 11.7419 7.27538 11.7384 7.26471C11.735 7.25405 11.7282 7.24474 11.7192 7.23815C11.7101 7.23155 11.6992 7.228 11.688 7.228L11.292 7.225L11.167 6.85C11.1633 6.83965 11.1566 6.83068 11.1476 6.82433C11.1387 6.81799 11.128 6.81458 11.117 6.81458C11.106 6.81458 11.0953 6.81799 11.0863 6.82433C11.0774 6.83068 11.0706 6.83965 11.067 6.85H11.066ZM3.96698 11.252L4.09198 10.877C4.09512 10.8659 4.1018 10.8561 4.11101 10.8492C4.12021 10.8422 4.13144 10.8384 4.14298 10.8384C4.15452 10.8384 4.16575 10.8422 4.17496 10.8492C4.18416 10.8561 4.19084 10.8659 4.19398 10.877L4.31898 11.252L4.71398 11.255C4.76498 11.255 4.78698 11.321 4.74498 11.351L4.42698 11.586L4.54698 11.963C4.55082 11.9738 4.55108 11.9855 4.54773 11.9964C4.54437 12.0073 4.53758 12.0168 4.52836 12.0236C4.51915 12.0303 4.508 12.0339 4.49658 12.0338C4.48515 12.0337 4.47407 12.0299 4.46498 12.023L4.14298 11.793L3.82098 12.023C3.81187 12.0295 3.80093 12.0329 3.78974 12.0328C3.77855 12.0327 3.76768 12.0291 3.75869 12.0224C3.7497 12.0158 3.74305 12.0064 3.73969 11.9957C3.73633 11.9851 3.73643 11.9736 3.73998 11.963L3.85898 11.586L3.54098 11.351C3.53189 11.3444 3.5251 11.3352 3.52161 11.3245C3.51811 11.3139 3.51809 11.3024 3.52153 11.2917C3.52498 11.281 3.53172 11.2717 3.54078 11.2651C3.54985 11.2585 3.56077 11.255 3.57198 11.255L3.96698 11.252ZM5.56498 5.376L5.43998 5.751L5.04498 5.754C5.03341 5.75344 5.02197 5.7567 5.01242 5.76326C5.00287 5.76982 4.99574 5.77933 4.99211 5.79034C4.98848 5.80134 4.98855 5.81323 4.99232 5.82419C4.99609 5.83514 5.00335 5.84456 5.01298 5.851L5.33198 6.085L5.21198 6.462C5.19698 6.512 5.25198 6.552 5.29398 6.522L5.61598 6.292L5.93698 6.522C5.97898 6.552 6.03498 6.512 6.01898 6.462L5.89898 6.085L6.21798 5.851C6.22753 5.8446 6.23473 5.83528 6.23851 5.82443C6.2423 5.81358 6.24245 5.80179 6.23895 5.79085C6.23545 5.7799 6.22849 5.77039 6.21912 5.76374C6.20975 5.7571 6.19847 5.75368 6.18698 5.754L5.79098 5.751L5.66598 5.376C5.66234 5.36565 5.65558 5.35668 5.64662 5.35033C5.63766 5.34399 5.62696 5.34058 5.61598 5.34058C5.60501 5.34058 5.5943 5.34399 5.58535 5.35033C5.57639 5.35668 5.56962 5.36565 5.56598 5.376H5.56498ZM9.46598 12.726L9.59198 12.351C9.59562 12.3406 9.60239 12.3317 9.61135 12.3253C9.6203 12.319 9.63101 12.3156 9.64198 12.3156C9.65296 12.3156 9.66366 12.319 9.67262 12.3253C9.68158 12.3317 9.68834 12.3406 9.69198 12.351L9.81798 12.726L10.213 12.729C10.264 12.729 10.286 12.795 10.244 12.825L9.92598 13.06L10.046 13.437C10.0498 13.4478 10.0501 13.4595 10.0467 13.4704C10.0434 13.4813 10.0366 13.4908 10.0274 13.4976C10.0181 13.5043 10.007 13.5079 9.99558 13.5078C9.98416 13.5077 9.97307 13.5039 9.96398 13.497L9.64198 13.267L9.31998 13.497C9.31087 13.5035 9.29993 13.5069 9.28874 13.5068C9.27755 13.5067 9.26669 13.5031 9.25769 13.4964C9.2487 13.4898 9.24205 13.4804 9.23869 13.4697C9.23533 13.4591 9.23543 13.4476 9.23898 13.437L9.35798 13.06L9.03998 12.825C9.03089 12.8184 9.0241 12.8092 9.02061 12.7985C9.01711 12.7879 9.01709 12.7764 9.02053 12.7657C9.02398 12.755 9.03072 12.7457 9.03978 12.7391C9.04885 12.7325 9.05977 12.729 9.07098 12.729L9.46598 12.726Z" fill="#FFE15A"/>
<path d="M20.719 22H12.28C11.41 21.9997 10.5757 21.6539 9.96063 21.0387C9.34554 20.4234 9 19.589 9 18.719V10.28C9.00027 9.41 9.34606 8.57572 9.96134 7.96063C10.5766 7.34554 11.411 7 12.281 7H20.719C21.5892 7 22.4237 7.34568 23.039 7.96098C23.6543 8.57629 24 9.41082 24 10.281V18.719C24 19.5892 23.6543 20.4237 23.039 21.039C22.4237 21.6543 21.5892 22 20.719 22Z" fill="#2841C1"/>
<path fill-rule="evenodd" clip-rule="evenodd" d="M9 10.393V11.002L11.327 12.526H9V13.316H15.316V7H14.526V11.791L9.52 8.511C9.325 8.813 9.179 9.151 9.092 9.511L9 10.393ZM9.519 20.49C9.40026 20.3052 9.30042 20.1088 9.221 19.904L9.021 19.092C9.007 18.9682 8.99999 18.8436 9 18.719V17.999L11.327 16.474H9V15.684H15.316V22H14.526V17.21L9.519 20.49ZM23.999 17.998V18.718L23.884 19.585C23.7965 19.9054 23.6606 20.2106 23.481 20.49L18.473 17.209V22H17.683V15.684H24V16.474H21.674L24 17.998H23.999ZM23.481 8.51C23.597 8.69 23.695 8.883 23.774 9.085L23.977 9.895C23.991 10.022 23.999 10.151 23.999 10.281V11.001L21.673 12.526H23.999V13.316H17.684V7H18.474V11.791L23.481 8.511V8.51Z" fill="#F6F6F6"/>
<path fill-rule="evenodd" clip-rule="evenodd" d="M17.684 7H15.316V13.316H9.00002V15.684H15.316V22H17.684V15.684H24V13.316H17.684V7ZM13.054 16.474L9.02102 19.092C9.05402 19.375 9.12102 19.647 9.22102 19.904L14.505 16.474H13.055H13.054ZM23.884 19.584L19.092 16.474H20.542L24 18.719C24 19.019 23.96 19.309 23.884 19.585V19.584ZM13.737 12.526L9.09002 9.511C9.03002 9.758 8.99902 10.016 8.99902 10.281V10.393L12.286 12.526H13.736H13.737ZM23.978 9.896L19.925 12.526H18.475L23.776 9.086C23.876 9.341 23.945 9.613 23.978 9.896Z" fill="#FB4B4E"/>
</g>
<defs>
<clipPath id="clip0">
<rect width="24" height="24" fill="white"/>
</clipPath>
</defs>
</svg>
