<svg width="24" height="24" viewBox="0 0 24 24" fill="none" xmlns="http://www.w3.org/2000/svg">
<g clip-path="url(#clip0)">
<path d="M11.719 2H3.28C2.41 2.00027 1.57572 2.34606 0.960629 2.96134C0.345538 3.57661 -4.0409e-08 4.411 0 5.281L0 13.719C0 14.5892 0.345676 15.4237 0.960983 16.039C1.57629 16.6543 2.41082 17 3.281 17H11.719C12.5892 17 13.4237 16.6543 14.039 16.039C14.6543 15.4237 15 14.5892 15 13.719V5.28C14.9997 4.41 14.6539 3.57572 14.0387 2.96063C13.4234 2.34554 12.589 2 11.719 2V2Z" fill="#0A48B6"/>
<path fill-rule="evenodd" clip-rule="evenodd" d="M7.73998 5.301L7.61398 4.926C7.61034 4.91565 7.60358 4.90668 7.59462 4.90033C7.58566 4.89399 7.57496 4.89058 7.56398 4.89058C7.55301 4.89058 7.5423 4.89399 7.53335 4.90033C7.52439 4.90668 7.51762 4.91565 7.51398 4.926L7.38798 5.301L6.99298 5.305C6.98177 5.305 6.97085 5.30855 6.96178 5.31515C6.95272 5.32174 6.94598 5.33104 6.94253 5.34171C6.93909 5.35238 6.93911 5.36387 6.94261 5.37452C6.9461 5.38518 6.95289 5.39445 6.96198 5.401L7.27998 5.636L7.15998 6.013C7.14498 6.061 7.19998 6.102 7.24198 6.072L7.56398 5.842L7.88598 6.072C7.92698 6.102 7.98298 6.062 7.96698 6.012L7.84798 5.636L8.16598 5.401C8.17508 5.39445 8.18186 5.38518 8.18536 5.37452C8.18885 5.36387 8.18888 5.35238 8.18543 5.34171C8.18199 5.33104 8.17525 5.32174 8.16618 5.31515C8.15712 5.30855 8.14619 5.305 8.13498 5.305L7.73998 5.3V5.301ZM7.73998 13.355L7.61398 12.98C7.61034 12.9696 7.60358 12.9607 7.59462 12.9543C7.58566 12.948 7.57496 12.9446 7.56398 12.9446C7.55301 12.9446 7.5423 12.948 7.53335 12.9543C7.52439 12.9607 7.51762 12.9696 7.51398 12.98L7.38798 13.355L6.99298 13.358C6.98177 13.358 6.97085 13.3615 6.96178 13.3681C6.95272 13.3747 6.94598 13.384 6.94253 13.3947C6.93909 13.4054 6.93911 13.4169 6.94261 13.4275C6.9461 13.4382 6.95289 13.4474 6.96198 13.454L7.27998 13.689L7.15998 14.066C7.14498 14.115 7.19998 14.156 7.24198 14.126L7.56398 13.896L7.88598 14.126C7.92698 14.156 7.98298 14.115 7.96698 14.066L7.84798 13.689L8.16598 13.454C8.17508 13.4474 8.18186 13.4382 8.18536 13.4275C8.18885 13.4169 8.18888 13.4054 8.18543 13.3947C8.18199 13.384 8.17525 13.3747 8.16618 13.3681C8.15712 13.3615 8.14619 13.358 8.13498 13.358L7.73998 13.355ZM11.64 8.953L11.766 9.328L12.161 9.331C12.213 9.331 12.234 9.397 12.193 9.428L11.874 9.662L11.994 10.039C11.9978 10.0498 11.9981 10.0615 11.9947 10.0724C11.9914 10.0833 11.9846 10.0928 11.9754 10.0996C11.9661 10.1063 11.955 10.1099 11.9436 10.1098C11.9322 10.1097 11.9211 10.1059 11.912 10.099L11.59 9.869L11.269 10.099C11.2599 10.1059 11.2488 10.1097 11.2374 10.1098C11.226 10.1099 11.2148 10.1063 11.2056 10.0996C11.1964 10.0928 11.1896 10.0833 11.1862 10.0724C11.1829 10.0615 11.1831 10.0498 11.187 10.039L11.307 9.662L10.988 9.428C10.9784 9.4216 10.9712 9.41227 10.9675 9.40142C10.9637 9.39057 10.9635 9.37879 10.967 9.36784C10.9705 9.3569 10.9775 9.34739 10.9868 9.34074C10.9962 9.3341 11.0075 9.33068 11.019 9.331L11.415 9.328L11.54 8.953C11.5436 8.94265 11.5504 8.93368 11.5593 8.92733C11.5683 8.92099 11.579 8.91758 11.59 8.91758C11.601 8.91758 11.6117 8.92099 11.6206 8.92733C11.6296 8.93368 11.6363 8.94265 11.64 8.953V8.953ZM3.71298 9.328L3.58798 8.953C3.58457 8.94229 3.57784 8.93293 3.56876 8.9263C3.55968 8.91966 3.54873 8.91609 3.53748 8.91609C3.52624 8.91609 3.51528 8.91966 3.50621 8.9263C3.49713 8.93293 3.4904 8.94229 3.48698 8.953L3.36198 9.328L2.96698 9.331C2.95541 9.33044 2.94397 9.3337 2.93442 9.34026C2.92487 9.34682 2.91774 9.35633 2.91411 9.36733C2.91048 9.37834 2.91055 9.39023 2.91432 9.40119C2.91809 9.41214 2.92535 9.42156 2.93498 9.428L3.25298 9.662L3.13398 10.039C3.11898 10.089 3.17398 10.129 3.21598 10.099L3.53798 9.869L3.85898 10.099C3.90098 10.129 3.95598 10.089 3.94098 10.039L3.82098 9.662L4.13998 9.428C4.14953 9.4216 4.15673 9.41227 4.16051 9.40142C4.1643 9.39057 4.16445 9.37879 4.16095 9.36784C4.15745 9.3569 4.15049 9.34739 4.14112 9.34074C4.13175 9.3341 4.12047 9.33068 4.10898 9.331L3.71298 9.328V9.328ZM4.19298 6.85L4.31898 7.225L4.71398 7.228C4.76498 7.228 4.78598 7.294 4.74498 7.324L4.42698 7.559L4.54698 7.936C4.55082 7.94676 4.55108 7.95847 4.54773 7.96938C4.54437 7.9803 4.53758 7.98984 4.52836 7.99659C4.51915 8.00333 4.508 8.00692 4.49658 8.00681C4.48515 8.00671 4.47407 8.00291 4.46498 7.996L4.14298 7.766L3.82098 7.996C3.81187 8.00249 3.80093 8.00593 3.78974 8.00582C3.77855 8.00572 3.76769 8.00208 3.75869 7.99542C3.7497 7.98875 3.74305 7.97942 3.73969 7.96875C3.73633 7.95807 3.73643 7.94661 3.73998 7.936L3.85898 7.559L3.54098 7.324C3.53189 7.31745 3.5251 7.30818 3.52161 7.29752C3.51811 7.28687 3.51809 7.27538 3.52153 7.26471C3.52498 7.25404 3.53172 7.24474 3.54078 7.23815C3.54985 7.23155 3.56077 7.228 3.57198 7.228L3.96698 7.225L4.09198 6.85C4.09512 6.83889 4.1018 6.82912 4.11101 6.82215C4.12021 6.81519 4.13144 6.81142 4.14298 6.81142C4.15452 6.81142 4.16575 6.81519 4.17496 6.82215C4.18416 6.82912 4.19084 6.83889 4.19398 6.85H4.19298ZM11.293 11.252L11.167 10.877C11.1633 10.8666 11.1566 10.8577 11.1476 10.8513C11.1387 10.845 11.128 10.8416 11.117 10.8416C11.106 10.8416 11.0953 10.845 11.0863 10.8513C11.0774 10.8577 11.0706 10.8666 11.067 10.877L10.941 11.252L10.546 11.255C10.5347 11.2548 10.5236 11.2582 10.5144 11.2647C10.5052 11.2712 10.4982 11.2805 10.4947 11.2912C10.4911 11.302 10.491 11.3135 10.4945 11.3243C10.498 11.335 10.5048 11.3444 10.514 11.351L10.833 11.586L10.713 11.963C10.698 12.012 10.753 12.053 10.795 12.023L11.117 11.793L11.438 12.023C11.48 12.053 11.536 12.012 11.52 11.963L11.4 11.586L11.719 11.351C11.7281 11.3444 11.7349 11.3352 11.7384 11.3245C11.7419 11.3139 11.7419 11.3024 11.7384 11.2917C11.735 11.281 11.7282 11.2717 11.7192 11.2651C11.7101 11.2585 11.6992 11.255 11.688 11.255L11.292 11.252H11.293ZM9.69298 5.376L9.81798 5.751L10.213 5.754C10.264 5.754 10.286 5.82 10.244 5.851L9.92598 6.085L10.046 6.462C10.0498 6.47276 10.0501 6.48447 10.0467 6.49538C10.0434 6.5063 10.0366 6.51584 10.0274 6.52259C10.0181 6.52933 10.007 6.53292 9.99558 6.53281C9.98416 6.53271 9.97307 6.52891 9.96398 6.522L9.64198 6.292L9.31998 6.522C9.31087 6.52849 9.29993 6.53193 9.28874 6.53182C9.27755 6.53172 9.26668 6.52808 9.25769 6.52142C9.2487 6.51475 9.24205 6.50542 9.23869 6.49475C9.23533 6.48407 9.23543 6.47261 9.23898 6.462L9.35798 6.085L9.03998 5.851C9.03044 5.8446 9.02323 5.83527 9.01945 5.82442C9.01567 5.81357 9.01552 5.80179 9.01901 5.79084C9.02251 5.7799 9.02947 5.77039 9.03885 5.76374C9.04822 5.7571 9.0595 5.75368 9.07098 5.754L9.46598 5.751L9.59198 5.376C9.59562 5.36565 9.60239 5.35668 9.61135 5.35033C9.6203 5.34399 9.63101 5.34058 9.64198 5.34058C9.65296 5.34058 9.66366 5.34399 9.67262 5.35033C9.68158 5.35668 9.68834 5.36565 9.69198 5.376H9.69298ZM5.79098 12.726L5.66598 12.351C5.66234 12.3406 5.65558 12.3317 5.64662 12.3253C5.63766 12.319 5.62696 12.3156 5.61598 12.3156C5.60501 12.3156 5.5943 12.319 5.58535 12.3253C5.57639 12.3317 5.56962 12.3406 5.56598 12.351L5.43998 12.726L5.04498 12.729C5.03369 12.7288 5.02261 12.7322 5.01338 12.7387C5.00415 12.7452 4.99725 12.7545 4.99367 12.7652C4.9901 12.776 4.99005 12.7875 4.99352 12.7983C4.99699 12.809 5.00381 12.8184 5.01298 12.825L5.33198 13.06L5.21198 13.437C5.19698 13.486 5.25198 13.527 5.29398 13.497L5.61598 13.267L5.93698 13.497C5.97898 13.527 6.03498 13.486 6.01898 13.437L5.89898 13.06L6.21798 12.825C6.22708 12.8184 6.23386 12.8092 6.23736 12.7985C6.24085 12.7879 6.24088 12.7764 6.23743 12.7657C6.23399 12.755 6.22725 12.7457 6.21818 12.7391C6.20912 12.7325 6.19819 12.729 6.18698 12.729L5.79098 12.726ZM11.066 6.85L10.941 7.225L10.546 7.228C10.5347 7.22778 10.5236 7.23118 10.5144 7.2377C10.5052 7.24421 10.4982 7.25351 10.4947 7.26423C10.4911 7.27495 10.491 7.28653 10.4945 7.29728C10.498 7.30804 10.5048 7.3174 10.514 7.324L10.833 7.559L10.713 7.936C10.698 7.986 10.753 8.026 10.795 7.996L11.117 7.766L11.438 7.996C11.48 8.026 11.536 7.986 11.52 7.936L11.4 7.559L11.719 7.324C11.7281 7.31745 11.7349 7.30818 11.7384 7.29752C11.7419 7.28687 11.7419 7.27538 11.7384 7.26471C11.735 7.25404 11.7282 7.24474 11.7192 7.23815C11.7101 7.23155 11.6992 7.228 11.688 7.228L11.292 7.225L11.167 6.85C11.1633 6.83965 11.1566 6.83068 11.1476 6.82433C11.1387 6.81799 11.128 6.81458 11.117 6.81458C11.106 6.81458 11.0953 6.81799 11.0863 6.82433C11.0774 6.83068 11.0706 6.83965 11.067 6.85H11.066ZM3.96698 11.252L4.09198 10.877C4.09512 10.8659 4.1018 10.8561 4.11101 10.8492C4.12021 10.8422 4.13144 10.8384 4.14298 10.8384C4.15452 10.8384 4.16575 10.8422 4.17496 10.8492C4.18416 10.8561 4.19084 10.8659 4.19398 10.877L4.31898 11.252L4.71398 11.255C4.76498 11.255 4.78698 11.321 4.74498 11.351L4.42698 11.586L4.54698 11.963C4.55082 11.9738 4.55108 11.9855 4.54773 11.9964C4.54437 12.0073 4.53758 12.0168 4.52836 12.0236C4.51915 12.0303 4.508 12.0339 4.49658 12.0338C4.48515 12.0337 4.47407 12.0299 4.46498 12.023L4.14298 11.793L3.82098 12.023C3.81187 12.0295 3.80093 12.0329 3.78974 12.0328C3.77855 12.0327 3.76769 12.0291 3.75869 12.0224C3.7497 12.0158 3.74305 12.0064 3.73969 11.9957C3.73633 11.9851 3.73643 11.9736 3.73998 11.963L3.85898 11.586L3.54098 11.351C3.53189 11.3444 3.5251 11.3352 3.52161 11.3245C3.51811 11.3139 3.51809 11.3024 3.52153 11.2917C3.52498 11.281 3.53172 11.2717 3.54078 11.2651C3.54985 11.2585 3.56077 11.255 3.57198 11.255L3.96698 11.252V11.252ZM5.56498 5.376L5.43998 5.751L5.04498 5.754C5.03341 5.75344 5.02197 5.7567 5.01242 5.76326C5.00287 5.76982 4.99574 5.77933 4.99211 5.79033C4.98848 5.80134 4.98855 5.81323 4.99232 5.82418C4.99609 5.83514 5.00335 5.84456 5.01298 5.851L5.33198 6.085L5.21198 6.462C5.19698 6.512 5.25198 6.552 5.29398 6.522L5.61598 6.292L5.93698 6.522C5.97898 6.552 6.03498 6.512 6.01898 6.462L5.89898 6.085L6.21798 5.851C6.22753 5.8446 6.23473 5.83527 6.23851 5.82442C6.2423 5.81357 6.24245 5.80179 6.23895 5.79084C6.23545 5.7799 6.22849 5.77039 6.21912 5.76374C6.20975 5.7571 6.19847 5.75368 6.18698 5.754L5.79098 5.751L5.66598 5.376C5.66234 5.36565 5.65558 5.35668 5.64662 5.35033C5.63766 5.34399 5.62696 5.34058 5.61598 5.34058C5.60501 5.34058 5.5943 5.34399 5.58535 5.35033C5.57639 5.35668 5.56962 5.36565 5.56598 5.376H5.56498ZM9.46598 12.726L9.59198 12.351C9.59562 12.3406 9.60239 12.3317 9.61135 12.3253C9.6203 12.319 9.63101 12.3156 9.64198 12.3156C9.65296 12.3156 9.66366 12.319 9.67262 12.3253C9.68158 12.3317 9.68834 12.3406 9.69198 12.351L9.81798 12.726L10.213 12.729C10.264 12.729 10.286 12.795 10.244 12.825L9.92598 13.06L10.046 13.437C10.0498 13.4478 10.0501 13.4595 10.0467 13.4704C10.0434 13.4813 10.0366 13.4908 10.0274 13.4976C10.0181 13.5043 10.007 13.5079 9.99558 13.5078C9.98416 13.5077 9.97307 13.5039 9.96398 13.497L9.64198 13.267L9.31998 13.497C9.31087 13.5035 9.29993 13.5069 9.28874 13.5068C9.27755 13.5067 9.26668 13.5031 9.25769 13.4964C9.2487 13.4898 9.24205 13.4804 9.23869 13.4697C9.23533 13.4591 9.23543 13.4476 9.23898 13.437L9.35798 13.06L9.03998 12.825C9.03089 12.8184 9.0241 12.8092 9.02061 12.7985C9.01711 12.7879 9.01709 12.7764 9.02053 12.7657C9.02398 12.755 9.03072 12.7457 9.03978 12.7391C9.04885 12.7325 9.05977 12.729 9.07098 12.729L9.46598 12.726Z" fill="#FFE15A"/>
<path fill-rule="evenodd" clip-rule="evenodd" d="M9.784 8.154H23.217C23.502 8.488 23.721 8.879 23.854 9.308H9.147C9.281 8.879 9.499 8.488 9.784 8.154ZM9 10.462H24V11.616H9V10.462ZM24 12.77H9V13.923H24V12.77ZM9 15.077H24V16.231H9V15.077V15.077ZM24 17.385H9V18.539H24V17.385ZM9.147 19.693H23.854C23.721 20.122 23.502 20.513 23.217 20.847H9.784C9.49563 20.5095 9.2789 20.1169 9.147 19.693V19.693Z" fill="#F5F5F5"/>
<path fill-rule="evenodd" clip-rule="evenodd" d="M20.719 7H12.28C11.28 7 10.384 7.448 9.782 8.154H23.216C22.9084 7.79202 22.5258 7.50131 22.0946 7.30204C21.6634 7.10276 21.194 6.9997 20.719 7V7ZM24 11.615H9V12.769H24V11.615ZM23.853 9.308C23.949 9.616 24 9.943 24 10.282V10.462H9V10.282C9 9.942 9.051 9.616 9.147 9.308H23.853ZM24 13.923H9V15.077H24V13.923ZM24 18.539V18.719C24 19.059 23.949 19.385 23.853 19.693H9.147C9.04925 19.3776 8.99969 19.0492 9 18.719V18.539H24ZM23.217 20.846H9.783C10.0907 21.2081 10.4735 21.4989 10.9049 21.6982C11.3362 21.8975 11.8058 22.0004 12.281 22H20.719C21.719 22 22.615 21.552 23.217 20.846V20.846ZM9 16.231H24V17.385H9V16.23V16.231Z" fill="#FA4051"/>
<path d="M17 7H12.25C10.455 7 9 8.47 9 10.281V15.077H17V7Z" fill="#1939C9"/>
<path fill-rule="evenodd" clip-rule="evenodd" d="M11.613 7.721L11.675 7.908L11.872 7.91C11.897 7.91 11.908 7.942 11.887 7.957L11.729 8.074L11.789 8.262C11.7906 8.26733 11.7905 8.27301 11.7887 8.27828C11.7869 8.28354 11.7835 8.28812 11.7791 8.2914C11.7746 8.29469 11.7692 8.2965 11.7636 8.29661C11.7581 8.29672 11.7526 8.29511 11.748 8.292L11.588 8.177L11.428 8.291C11.4234 8.29376 11.4181 8.29508 11.4127 8.29481C11.4074 8.29453 11.4022 8.29266 11.3979 8.28944C11.3936 8.28622 11.3904 8.2818 11.3886 8.27673C11.3869 8.27167 11.3867 8.26619 11.388 8.261L11.446 8.074L11.288 7.957C11.2835 7.95373 11.2802 7.94912 11.2785 7.94383C11.2769 7.93854 11.2769 7.93286 11.2787 7.92761C11.2805 7.92236 11.2839 7.91782 11.2885 7.91465C11.293 7.91149 11.2985 7.90985 11.304 7.91L11.5 7.908L11.563 7.721C11.565 7.71603 11.5685 7.71178 11.573 7.70879C11.5774 7.7058 11.5826 7.7042 11.588 7.7042C11.5934 7.7042 11.5986 7.7058 11.6031 7.70879C11.6075 7.71178 11.611 7.71603 11.613 7.721V7.721ZM9.87001 8.262C9.86845 8.26733 9.86856 8.27301 9.87034 8.27828C9.87213 8.28354 9.87549 8.28812 9.87997 8.2914C9.88446 8.29469 9.88984 8.2965 9.8954 8.29661C9.90095 8.29672 9.90641 8.29511 9.91101 8.292L10.071 8.177L10.231 8.292C10.2356 8.29476 10.2409 8.29608 10.2463 8.2958C10.2516 8.29553 10.2568 8.29366 10.2611 8.29044C10.2654 8.28722 10.2686 8.2828 10.2704 8.27773C10.2722 8.27267 10.2724 8.26719 10.271 8.262L10.213 8.075L10.371 7.958C10.3753 7.95454 10.3784 7.94986 10.38 7.94458C10.3815 7.9393 10.3814 7.93367 10.3797 7.92845C10.3779 7.92322 10.3746 7.91866 10.3702 7.91536C10.3658 7.91206 10.3605 7.91019 10.355 7.91L10.159 7.908L10.125 7.808C10.0408 7.88153 9.96035 7.9593 9.88401 8.041L9.93001 8.075L9.87001 8.262V8.262ZM10.096 9.278L10.159 9.465L10.355 9.466C10.381 9.466 10.391 9.499 10.371 9.514L10.213 9.631L10.272 9.818C10.2734 9.82319 10.2732 9.82867 10.2714 9.83373C10.2696 9.8388 10.2664 9.84322 10.2621 9.84644C10.2578 9.84966 10.2526 9.85153 10.2473 9.85181C10.2419 9.85208 10.2366 9.85076 10.232 9.848L10.072 9.733L9.91201 9.848C9.90742 9.8515 9.90183 9.85345 9.89606 9.85354C9.89028 9.85363 9.88463 9.85187 9.87993 9.84851C9.87523 9.84516 9.87173 9.84038 9.86995 9.83489C9.86816 9.8294 9.86819 9.82348 9.87001 9.818L9.93001 9.631L9.77201 9.514C9.76778 9.5106 9.76466 9.50601 9.76308 9.50081C9.76149 9.49562 9.76151 9.49006 9.76313 9.48488C9.76475 9.4797 9.7679 9.47512 9.77216 9.47175C9.77642 9.46838 9.78159 9.46638 9.78701 9.466L9.98401 9.465L10.046 9.278C10.054 9.254 10.088 9.254 10.096 9.278V9.278ZM10.159 11.191L10.096 11.005C10.088 10.98 10.054 10.98 10.046 11.005L9.98401 11.191L9.78701 11.193C9.78159 11.1934 9.77642 11.1954 9.77216 11.1988C9.7679 11.2021 9.76475 11.2067 9.76313 11.2119C9.76151 11.2171 9.76149 11.2226 9.76308 11.2278C9.76466 11.233 9.76778 11.2376 9.77201 11.241L9.93001 11.358L9.87001 11.545C9.86845 11.5503 9.86856 11.556 9.87034 11.5613C9.87213 11.5665 9.87549 11.5711 9.87997 11.5744C9.88446 11.5777 9.88984 11.5795 9.8954 11.5796C9.90095 11.5797 9.90641 11.5781 9.91101 11.575L10.071 11.46L10.231 11.575C10.252 11.589 10.28 11.569 10.272 11.545L10.212 11.357L10.371 11.241C10.3753 11.2375 10.3784 11.2329 10.38 11.2276C10.3815 11.2223 10.3814 11.2167 10.3797 11.2114C10.3779 11.2062 10.3746 11.2017 10.3702 11.1984C10.3658 11.1951 10.3605 11.1932 10.355 11.193L10.159 11.191ZM10.096 12.591L10.159 12.778L10.355 12.78C10.381 12.78 10.391 12.812 10.371 12.827L10.213 12.944L10.272 13.132C10.274 13.1373 10.2743 13.1431 10.2727 13.1485C10.2711 13.1539 10.2678 13.1587 10.2633 13.1621C10.2588 13.1655 10.2533 13.1673 10.2477 13.1673C10.242 13.1673 10.2365 13.1654 10.232 13.162L10.072 13.047L9.91201 13.161C9.90772 13.1657 9.90187 13.1686 9.89556 13.1693C9.88924 13.1699 9.8829 13.1683 9.87774 13.1646C9.87257 13.1609 9.86894 13.1554 9.86751 13.1493C9.86609 13.1431 9.86698 13.1366 9.87001 13.131L9.93001 12.944L9.77201 12.827C9.76811 12.8235 9.76531 12.819 9.76393 12.814C9.76255 12.8089 9.76266 12.8036 9.76425 12.7986C9.76584 12.7937 9.76883 12.7892 9.77287 12.7859C9.77691 12.7826 9.78182 12.7806 9.78701 12.78L9.98401 12.778L10.046 12.591C10.054 12.567 10.088 12.567 10.096 12.591V12.591ZM10.159 14.221L10.096 14.034C10.088 14.01 10.054 14.01 10.046 14.034L9.98401 14.221L9.78701 14.223C9.78182 14.2236 9.77691 14.2256 9.77287 14.2289C9.76883 14.2322 9.76584 14.2367 9.76425 14.2416C9.76266 14.2466 9.76255 14.2519 9.76393 14.257C9.76531 14.262 9.76811 14.2665 9.77201 14.27L9.93001 14.387L9.87001 14.575C9.86845 14.5803 9.86856 14.586 9.87034 14.5913C9.87213 14.5965 9.87549 14.6011 9.87997 14.6044C9.88446 14.6077 9.88984 14.6095 9.8954 14.6096C9.90095 14.6097 9.90641 14.6081 9.91101 14.605L10.071 14.49L10.231 14.604C10.2356 14.6071 10.2411 14.6087 10.2466 14.6086C10.2522 14.6085 10.2576 14.6067 10.2621 14.6034C10.2665 14.6001 10.2699 14.5955 10.2717 14.5903C10.2735 14.585 10.2736 14.5793 10.272 14.574L10.212 14.387L10.371 14.27C10.3749 14.2665 10.3778 14.2619 10.3791 14.2567C10.3804 14.2516 10.3802 14.2462 10.3785 14.2412C10.3768 14.2362 10.3737 14.2318 10.3695 14.2286C10.3653 14.2253 10.3603 14.2234 10.355 14.223L10.159 14.221V14.221ZM10.853 8.459L10.915 8.645L11.112 8.647C11.138 8.647 11.148 8.679 11.128 8.695L10.969 8.811L11.029 8.999C11.0306 9.00433 11.0305 9.01001 11.0287 9.01528C11.0269 9.02054 11.0235 9.02512 11.0191 9.0284C11.0146 9.03168 11.0092 9.0335 11.0036 9.03361C10.9981 9.03372 10.9926 9.03211 10.988 9.029L10.828 8.914L10.668 9.028C10.6634 9.03076 10.6581 9.03208 10.6527 9.0318C10.6474 9.03153 10.6422 9.02966 10.6379 9.02644C10.6336 9.02322 10.6304 9.0188 10.6286 9.01373C10.6269 9.00867 10.6267 9.00319 10.628 8.998L10.687 8.811L10.528 8.695C10.5237 8.69154 10.5206 8.68686 10.5191 8.68158C10.5175 8.6763 10.5176 8.67067 10.5193 8.66545C10.5211 8.66022 10.5244 8.65566 10.5288 8.65236C10.5332 8.64906 10.5385 8.64719 10.544 8.647L10.741 8.645L10.803 8.459C10.805 8.45403 10.8085 8.44978 10.813 8.44679C10.8174 8.4438 10.8226 8.4422 10.828 8.4422C10.8334 8.4422 10.8386 8.4438 10.8431 8.44679C10.8475 8.44978 10.851 8.45403 10.853 8.459V8.459ZM10.916 10.371L10.853 10.185C10.845 10.161 10.811 10.161 10.803 10.185L10.741 10.371L10.544 10.373C10.5385 10.3732 10.5332 10.3751 10.5288 10.3784C10.5244 10.3817 10.5211 10.3862 10.5193 10.3914C10.5176 10.3967 10.5175 10.4023 10.5191 10.4076C10.5206 10.4129 10.5237 10.4175 10.528 10.421L10.687 10.538L10.627 10.725C10.6246 10.7304 10.6241 10.7365 10.6257 10.7422C10.6272 10.748 10.6306 10.753 10.6354 10.7565C10.6402 10.76 10.6461 10.7618 10.652 10.7615C10.6579 10.7612 10.6636 10.7589 10.668 10.755L10.828 10.64L10.988 10.755C10.9925 10.7584 10.998 10.7603 11.0037 10.7603C11.0093 10.7603 11.0148 10.7585 11.0193 10.7551C11.0238 10.7517 11.0271 10.7469 11.0287 10.7415C11.0303 10.7361 11.03 10.7303 11.028 10.725L10.969 10.538L11.128 10.421C11.1323 10.4175 11.1354 10.4129 11.137 10.4076C11.1385 10.4023 11.1384 10.3967 11.1367 10.3914C11.1349 10.3862 11.1316 10.3817 11.1272 10.3784C11.1228 10.3751 11.1175 10.3732 11.112 10.373L10.915 10.371H10.916ZM10.853 11.825L10.916 12.012L11.112 12.013C11.138 12.013 11.148 12.046 11.128 12.061L10.969 12.178L11.029 12.366C11.0304 12.3712 11.0302 12.3767 11.0284 12.3817C11.0266 12.3868 11.0234 12.3912 11.0191 12.3944C11.0148 12.3977 11.0096 12.3995 11.0043 12.3998C10.9989 12.4001 10.9936 12.3988 10.989 12.396L10.828 12.281L10.668 12.395C10.6634 12.3978 10.6581 12.3991 10.6527 12.3988C10.6474 12.3985 10.6422 12.3967 10.6379 12.3934C10.6336 12.3902 10.6304 12.3858 10.6286 12.3807C10.6269 12.3757 10.6267 12.3702 10.628 12.365L10.687 12.178L10.528 12.061C10.523 12.0579 10.5192 12.0532 10.5173 12.0477C10.5153 12.0422 10.5152 12.0362 10.517 12.0307C10.5189 12.0251 10.5226 12.0204 10.5275 12.0172C10.5324 12.0139 10.5382 12.0125 10.544 12.013L10.741 12.012L10.803 11.825C10.811 11.801 10.845 11.801 10.853 11.825V11.825ZM10.916 13.485L10.853 13.299C10.845 13.275 10.811 13.275 10.803 13.299L10.741 13.485L10.544 13.487C10.5382 13.4865 10.5324 13.4879 10.5275 13.4912C10.5226 13.4944 10.5189 13.4991 10.517 13.5047C10.5152 13.5102 10.5153 13.5162 10.5173 13.5217C10.5192 13.5272 10.523 13.5319 10.528 13.535L10.687 13.652L10.627 13.839C10.62 13.863 10.647 13.883 10.668 13.869L10.828 13.754L10.988 13.869C11.008 13.883 11.037 13.863 11.028 13.839L10.969 13.651L11.128 13.535C11.133 13.5319 11.1368 13.5272 11.1388 13.5217C11.1408 13.5162 11.1408 13.5102 11.139 13.5047C11.1371 13.4991 11.1335 13.4944 11.1286 13.4912C11.1237 13.4879 11.1178 13.4865 11.112 13.487L10.915 13.485H10.916ZM11.676 9.465L11.613 9.278C11.611 9.27303 11.6075 9.26878 11.6031 9.26579C11.5986 9.2628 11.5934 9.2612 11.588 9.2612C11.5826 9.2612 11.5774 9.2628 11.573 9.26579C11.5685 9.26878 11.565 9.27303 11.563 9.278L11.5 9.465L11.304 9.466C11.2982 9.46548 11.2923 9.46694 11.2875 9.47015C11.2826 9.47336 11.2789 9.47812 11.277 9.48367C11.2752 9.48923 11.2753 9.49524 11.2773 9.50074C11.2792 9.50625 11.283 9.51092 11.288 9.514L11.446 9.631L11.387 9.818C11.3857 9.82319 11.3859 9.82867 11.3876 9.83373C11.3894 9.8388 11.3926 9.84322 11.3969 9.84644C11.4012 9.84966 11.4064 9.85153 11.4117 9.85181C11.4171 9.85208 11.4224 9.85076 11.427 9.848L11.587 9.733L11.747 9.848C11.7516 9.8515 11.7572 9.85345 11.763 9.85354C11.7687 9.85363 11.7744 9.85187 11.7791 9.84851C11.7838 9.84516 11.7873 9.84038 11.7891 9.83489C11.7909 9.8294 11.7908 9.82348 11.789 9.818L11.729 9.631L11.888 9.514C11.8923 9.51054 11.8954 9.50586 11.897 9.50058C11.8985 9.4953 11.8984 9.48967 11.8967 9.48445C11.8949 9.47922 11.8916 9.47466 11.8872 9.47136C11.8828 9.46806 11.8775 9.46619 11.872 9.466L11.675 9.465H11.676ZM11.613 11.005L11.675 11.191L11.872 11.193C11.897 11.193 11.908 11.226 11.887 11.241L11.729 11.358L11.789 11.545C11.7906 11.5503 11.7905 11.556 11.7887 11.5613C11.7869 11.5665 11.7835 11.5711 11.7791 11.5744C11.7746 11.5777 11.7692 11.5795 11.7636 11.5796C11.7581 11.5797 11.7526 11.5781 11.748 11.575L11.588 11.46L11.428 11.575C11.4234 11.5778 11.4181 11.5791 11.4127 11.5788C11.4074 11.5785 11.4022 11.5767 11.3979 11.5734C11.3936 11.5702 11.3904 11.5658 11.3886 11.5607C11.3869 11.5557 11.3867 11.5502 11.388 11.545L11.446 11.357L11.288 11.241C11.2837 11.2375 11.2806 11.2329 11.2791 11.2276C11.2775 11.2223 11.2776 11.2167 11.2793 11.2114C11.2811 11.2062 11.2844 11.2017 11.2888 11.1984C11.2932 11.1951 11.2985 11.1932 11.304 11.193L11.5 11.191L11.563 11.005C11.565 11 11.5685 10.9958 11.573 10.9928C11.5774 10.9898 11.5826 10.9882 11.588 10.9882C11.5934 10.9882 11.5986 10.9898 11.6031 10.9928C11.6075 10.9958 11.611 11 11.613 11.005V11.005ZM11.675 12.778L11.613 12.591C11.611 12.586 11.6075 12.5818 11.6031 12.5788C11.5986 12.5758 11.5934 12.5742 11.588 12.5742C11.5826 12.5742 11.5774 12.5758 11.573 12.5788C11.5685 12.5818 11.565 12.586 11.563 12.591L11.5 12.778L11.304 12.78C11.2987 12.7804 11.2937 12.7823 11.2895 12.7856C11.2853 12.7888 11.2822 12.7932 11.2805 12.7982C11.2788 12.8032 11.2786 12.8086 11.2799 12.8137C11.2813 12.8189 11.2841 12.8235 11.288 12.827L11.446 12.944L11.387 13.132C11.385 13.1373 11.3848 13.1431 11.3863 13.1485C11.3879 13.1539 11.3912 13.1587 11.3957 13.1621C11.4002 13.1655 11.4057 13.1673 11.4114 13.1673C11.417 13.1673 11.4225 13.1654 11.427 13.162L11.587 13.047L11.747 13.161C11.7513 13.1657 11.7572 13.1686 11.7635 13.1693C11.7698 13.1699 11.7761 13.1683 11.7813 13.1646C11.7865 13.1609 11.7901 13.1554 11.7915 13.1493C11.7929 13.1431 11.792 13.1366 11.789 13.131L11.729 12.944L11.888 12.827C11.8919 12.8235 11.8948 12.8189 11.8961 12.8137C11.8974 12.8086 11.8972 12.8032 11.8955 12.7982C11.8938 12.7932 11.8907 12.7888 11.8865 12.7856C11.8823 12.7823 11.8773 12.7804 11.872 12.78L11.675 12.778V12.778ZM11.613 14.034L11.675 14.221L11.872 14.223C11.897 14.223 11.908 14.255 11.887 14.27L11.729 14.387L11.789 14.575C11.7906 14.5803 11.7905 14.586 11.7887 14.5913C11.7869 14.5965 11.7835 14.6011 11.7791 14.6044C11.7746 14.6077 11.7692 14.6095 11.7636 14.6096C11.7581 14.6097 11.7526 14.6081 11.748 14.605L11.588 14.49L11.428 14.604C11.4234 14.6068 11.4181 14.6081 11.4127 14.6078C11.4074 14.6075 11.4022 14.6057 11.3979 14.6024C11.3936 14.5992 11.3904 14.5948 11.3886 14.5897C11.3869 14.5847 11.3867 14.5792 11.388 14.574L11.446 14.387L11.288 14.27C11.2841 14.2665 11.2813 14.2619 11.2799 14.2567C11.2786 14.2516 11.2788 14.2462 11.2805 14.2412C11.2822 14.2362 11.2853 14.2318 11.2895 14.2286C11.2937 14.2253 11.2987 14.2234 11.304 14.223L11.5 14.221L11.563 14.034C11.565 14.029 11.5685 14.0248 11.573 14.0218C11.5774 14.0188 11.5826 14.0172 11.588 14.0172C11.5934 14.0172 11.5986 14.0188 11.6031 14.0218C11.6075 14.0248 11.611 14.029 11.613 14.034V14.034ZM12.431 8.645L12.369 8.459C12.367 8.45403 12.3635 8.44978 12.3591 8.44679C12.3546 8.4438 12.3494 8.4422 12.344 8.4422C12.3386 8.4422 12.3334 8.4438 12.329 8.44679C12.3245 8.44978 12.321 8.45403 12.319 8.459L12.256 8.645L12.06 8.647C12.0545 8.64719 12.0492 8.64906 12.0448 8.65236C12.0404 8.65566 12.0371 8.66022 12.0353 8.66545C12.0336 8.67067 12.0335 8.6763 12.0351 8.68158C12.0366 8.68686 12.0397 8.69154 12.044 8.695L12.202 8.811L12.142 8.999C12.1402 9.00448 12.1402 9.0104 12.1419 9.01589C12.1437 9.02138 12.1472 9.02616 12.1519 9.02951C12.1566 9.03287 12.1623 9.03463 12.1681 9.03454C12.1738 9.03445 12.1794 9.0325 12.184 9.029L12.344 8.914L12.504 9.028C12.5086 9.03076 12.5139 9.03208 12.5193 9.0318C12.5246 9.03153 12.5298 9.02966 12.5341 9.02644C12.5384 9.02322 12.5416 9.0188 12.5434 9.01373C12.5452 9.00867 12.5454 9.00319 12.544 8.998L12.485 8.811L12.643 8.695C12.6479 8.69195 12.6516 8.68737 12.6536 8.68198C12.6556 8.67659 12.6557 8.6707 12.654 8.66522C12.6523 8.65973 12.6488 8.65497 12.6441 8.65168C12.6394 8.64838 12.6338 8.64674 12.628 8.647L12.431 8.645V8.645ZM12.369 10.185L12.431 10.371L12.628 10.373C12.653 10.373 12.664 10.406 12.643 10.421L12.485 10.538L12.545 10.725C12.5474 10.7304 12.5479 10.7365 12.5464 10.7422C12.5448 10.748 12.5414 10.753 12.5366 10.7565C12.5318 10.76 12.526 10.7618 12.52 10.7615C12.5141 10.7612 12.5085 10.7589 12.504 10.755L12.344 10.64L12.184 10.755C12.163 10.77 12.135 10.75 12.143 10.725L12.203 10.538L12.044 10.421C12.0397 10.4175 12.0366 10.4129 12.0351 10.4076C12.0335 10.4023 12.0336 10.3967 12.0353 10.3914C12.0371 10.3862 12.0404 10.3817 12.0448 10.3784C12.0492 10.3751 12.0545 10.3732 12.06 10.373L12.256 10.371L12.319 10.185C12.321 10.18 12.3245 10.1758 12.329 10.1728C12.3334 10.1698 12.3386 10.1682 12.344 10.1682C12.3494 10.1682 12.3546 10.1698 12.3591 10.1728C12.3635 10.1758 12.367 10.18 12.369 10.185ZM12.431 12.012L12.369 11.825C12.367 11.82 12.3635 11.8158 12.3591 11.8128C12.3546 11.8098 12.3494 11.8082 12.344 11.8082C12.3386 11.8082 12.3334 11.8098 12.329 11.8128C12.3245 11.8158 12.321 11.82 12.319 11.825L12.256 12.012L12.06 12.013C12.0542 12.0125 12.0483 12.0139 12.0435 12.0172C12.0386 12.0204 12.0349 12.0251 12.033 12.0307C12.0312 12.0362 12.0313 12.0422 12.0333 12.0477C12.0352 12.0532 12.039 12.0579 12.044 12.061L12.202 12.178L12.142 12.366C12.135 12.39 12.162 12.41 12.184 12.396L12.344 12.281L12.504 12.395C12.5086 12.3978 12.5139 12.3991 12.5193 12.3988C12.5246 12.3985 12.5298 12.3967 12.5341 12.3934C12.5384 12.3902 12.5416 12.3858 12.5434 12.3807C12.5452 12.3757 12.5454 12.3702 12.544 12.365L12.485 12.178L12.643 12.061C12.6479 12.0579 12.6516 12.0534 12.6536 12.048C12.6556 12.0426 12.6557 12.0367 12.654 12.0312C12.6523 12.0257 12.6488 12.021 12.6441 12.0177C12.6394 12.0144 12.6338 12.0127 12.628 12.013L12.431 12.012V12.012ZM12.369 13.299L12.431 13.485L12.628 13.487C12.653 13.487 12.664 13.52 12.643 13.535L12.485 13.652L12.545 13.839C12.5474 13.8444 12.5479 13.8505 12.5464 13.8562C12.5448 13.862 12.5414 13.867 12.5366 13.8705C12.5318 13.874 12.526 13.8758 12.52 13.8755C12.5141 13.8752 12.5085 13.8729 12.504 13.869L12.344 13.754L12.184 13.869C12.1794 13.8721 12.174 13.8737 12.1684 13.8736C12.1628 13.8735 12.1575 13.8717 12.153 13.8684C12.1485 13.8651 12.1451 13.8605 12.1433 13.8553C12.1416 13.85 12.1414 13.8443 12.143 13.839L12.203 13.651L12.044 13.535C12.039 13.5319 12.0352 13.5272 12.0333 13.5217C12.0313 13.5162 12.0312 13.5102 12.033 13.5047C12.0349 13.4991 12.0386 13.4944 12.0435 13.4912C12.0483 13.4879 12.0542 13.4865 12.06 13.487L12.256 13.485L12.319 13.299C12.321 13.294 12.3245 13.2898 12.329 13.2868C12.3334 13.2838 12.3386 13.2822 12.344 13.2822C12.3494 13.2822 12.3546 13.2838 12.3591 13.2868C12.3635 13.2898 12.367 13.294 12.369 13.299ZM13.191 7.909L13.129 7.721C13.121 7.697 13.086 7.697 13.079 7.721L13.016 7.908L12.819 7.91C12.8136 7.91007 12.8083 7.91185 12.8039 7.9151C12.7995 7.91835 12.7962 7.92289 12.7946 7.92809C12.7929 7.93329 12.7929 7.93888 12.7946 7.94407C12.7963 7.94926 12.7996 7.95378 12.804 7.957L12.962 8.074L12.902 8.262C12.9004 8.26733 12.9006 8.27301 12.9023 8.27828C12.9041 8.28354 12.9075 8.28812 12.912 8.2914C12.9165 8.29469 12.9218 8.2965 12.9274 8.29661C12.933 8.29672 12.9384 8.29511 12.943 8.292L13.103 8.177L13.263 8.291C13.2676 8.29411 13.2731 8.29572 13.2786 8.29561C13.2842 8.2955 13.2896 8.29369 13.2941 8.2904C13.2985 8.28712 13.3019 8.28254 13.3037 8.27728C13.3055 8.27201 13.3056 8.26633 13.304 8.261L13.244 8.074L13.404 7.957C13.408 7.9534 13.4108 7.94871 13.4121 7.9435C13.4134 7.9383 13.4131 7.93283 13.4113 7.92779C13.4095 7.92275 13.4062 7.91837 13.4019 7.9152C13.3975 7.91203 13.3924 7.91022 13.387 7.91L13.191 7.908V7.909ZM13.129 9.278L13.191 9.465L13.387 9.466C13.413 9.466 13.424 9.499 13.403 9.514L13.245 9.631L13.305 9.818C13.3066 9.82333 13.3065 9.82901 13.3047 9.83428C13.3029 9.83954 13.2995 9.84412 13.2951 9.8474C13.2906 9.85069 13.2852 9.8525 13.2796 9.85261C13.2741 9.85272 13.2686 9.85111 13.264 9.848L13.104 9.733L12.944 9.848C12.9394 9.85111 12.934 9.85272 12.9284 9.85261C12.9228 9.8525 12.9175 9.85069 12.913 9.8474C12.9085 9.84412 12.9051 9.83954 12.9033 9.83428C12.9016 9.82901 12.9014 9.82333 12.903 9.818L12.962 9.631L12.804 9.514C12.7998 9.5106 12.7967 9.50601 12.7951 9.50081C12.7935 9.49562 12.7935 9.49006 12.7951 9.48488C12.7968 9.4797 12.7999 9.47512 12.8042 9.47175C12.8084 9.46838 12.8136 9.46638 12.819 9.466L13.016 9.464L13.078 9.278C13.08 9.27303 13.0835 9.26878 13.088 9.26579C13.0924 9.2628 13.0976 9.2612 13.103 9.2612C13.1084 9.2612 13.1136 9.2628 13.1181 9.26579C13.1225 9.26878 13.126 9.27303 13.128 9.278H13.129ZM13.191 11.191L13.129 11.005C13.1275 10.9996 13.1242 10.9948 13.1197 10.9914C13.1152 10.988 13.1097 10.9861 13.104 10.9861C13.0984 10.9861 13.0929 10.988 13.0884 10.9914C13.0838 10.9948 13.0806 10.9996 13.079 11.005L13.016 11.191L12.819 11.193C12.8136 11.1934 12.8084 11.1954 12.8042 11.1988C12.7999 11.2021 12.7968 11.2067 12.7951 11.2119C12.7935 11.2171 12.7935 11.2226 12.7951 11.2278C12.7967 11.233 12.7998 11.2376 12.804 11.241L12.962 11.358L12.902 11.545C12.9004 11.5503 12.9006 11.556 12.9023 11.5613C12.9041 11.5665 12.9075 11.5711 12.912 11.5744C12.9165 11.5777 12.9218 11.5795 12.9274 11.5796C12.933 11.5797 12.9384 11.5781 12.943 11.575L13.103 11.46L13.263 11.575C13.284 11.589 13.312 11.569 13.304 11.545L13.244 11.357L13.404 11.241C13.4084 11.2375 13.4115 11.2327 13.413 11.2273C13.4145 11.222 13.4144 11.2163 13.4125 11.211C13.4106 11.2057 13.4072 11.2012 13.4026 11.1979C13.398 11.1947 13.3926 11.193 13.387 11.193L13.191 11.191ZM13.129 12.591L13.191 12.778L13.387 12.78C13.413 12.78 13.424 12.812 13.403 12.827L13.245 12.944L13.305 13.132C13.3074 13.1374 13.3079 13.1435 13.3064 13.1492C13.3048 13.155 13.3014 13.16 13.2966 13.1635C13.2918 13.167 13.286 13.1688 13.28 13.1685C13.2741 13.1682 13.2685 13.1659 13.264 13.162L13.104 13.047L12.944 13.161C12.9396 13.1649 12.9339 13.1672 12.928 13.1675C12.9221 13.1678 12.9162 13.166 12.9114 13.1625C12.9066 13.159 12.9032 13.154 12.9017 13.1482C12.9001 13.1425 12.9006 13.1364 12.903 13.131L12.962 12.944L12.804 12.827C12.8001 12.8235 12.7973 12.819 12.7959 12.814C12.7946 12.8089 12.7947 12.8036 12.7962 12.7986C12.7978 12.7937 12.8008 12.7892 12.8049 12.7859C12.8089 12.7826 12.8138 12.7806 12.819 12.78L13.016 12.778L13.078 12.591C13.0796 12.5856 13.0828 12.5808 13.0874 12.5774C13.0919 12.574 13.0974 12.5721 13.103 12.5721C13.1087 12.5721 13.1142 12.574 13.1187 12.5774C13.1232 12.5808 13.1265 12.5856 13.128 12.591H13.129ZM13.191 14.221L13.129 14.034C13.1275 14.0286 13.1242 14.0238 13.1197 14.0204C13.1152 14.017 13.1097 14.0151 13.104 14.0151C13.0984 14.0151 13.0929 14.017 13.0884 14.0204C13.0838 14.0238 13.0806 14.0286 13.079 14.034L13.016 14.221L12.819 14.223C12.8138 14.2236 12.8089 14.2256 12.8049 14.2289C12.8008 14.2322 12.7978 14.2367 12.7962 14.2416C12.7947 14.2466 12.7946 14.2519 12.7959 14.257C12.7973 14.262 12.8001 14.2665 12.804 14.27L12.962 14.387L12.902 14.575C12.895 14.599 12.922 14.619 12.943 14.605L13.103 14.49L13.263 14.604C13.2676 14.6071 13.2731 14.6087 13.2786 14.6086C13.2842 14.6085 13.2896 14.6067 13.2941 14.6034C13.2985 14.6001 13.3019 14.5955 13.3037 14.5903C13.3055 14.585 13.3056 14.5793 13.304 14.574L13.244 14.387L13.404 14.27C13.408 14.2664 13.4108 14.2617 13.4121 14.2565C13.4134 14.2513 13.4131 14.2458 13.4113 14.2408C13.4095 14.2358 13.4062 14.2314 13.4019 14.2282C13.3975 14.225 13.3924 14.2232 13.387 14.223L13.191 14.221V14.221ZM13.885 8.459L13.948 8.645L14.144 8.647C14.17 8.647 14.18 8.679 14.16 8.695L14.002 8.811L14.061 8.999C14.0624 9.00419 14.0622 9.00967 14.0604 9.01473C14.0586 9.0198 14.0554 9.02422 14.0511 9.02744C14.0468 9.03066 14.0416 9.03253 14.0363 9.03281C14.0309 9.03308 14.0256 9.03176 14.021 9.029L13.861 8.914L13.701 9.028C13.6964 9.0315 13.6908 9.03345 13.6851 9.03354C13.6793 9.03363 13.6736 9.03187 13.6689 9.02851C13.6642 9.02516 13.6607 9.02038 13.6589 9.01489C13.6572 9.0094 13.6572 9.00348 13.659 8.998L13.719 8.811L13.561 8.695C13.5568 8.6916 13.5537 8.68701 13.5521 8.68181C13.5505 8.67662 13.5505 8.67106 13.5521 8.66588C13.5538 8.6607 13.5569 8.65612 13.5612 8.65275C13.5654 8.64938 13.5706 8.64738 13.576 8.647L13.773 8.645L13.835 8.459C13.837 8.45403 13.8405 8.44978 13.845 8.44679C13.8494 8.4438 13.8546 8.4422 13.86 8.4422C13.8654 8.4422 13.8706 8.4438 13.8751 8.44679C13.8795 8.44978 13.883 8.45403 13.885 8.459V8.459ZM13.948 10.371L13.885 10.185C13.883 10.18 13.8795 10.1758 13.8751 10.1728C13.8706 10.1698 13.8654 10.1682 13.86 10.1682C13.8546 10.1682 13.8494 10.1698 13.845 10.1728C13.8405 10.1758 13.837 10.18 13.835 10.185L13.773 10.371L13.576 10.373C13.5706 10.3734 13.5654 10.3754 13.5612 10.3788C13.5569 10.3821 13.5538 10.3867 13.5521 10.3919C13.5505 10.3971 13.5505 10.4026 13.5521 10.4078C13.5537 10.413 13.5568 10.4176 13.561 10.421L13.719 10.538L13.659 10.725C13.6566 10.7304 13.6561 10.7365 13.6577 10.7422C13.6592 10.748 13.6626 10.753 13.6674 10.7565C13.6722 10.76 13.6781 10.7618 13.684 10.7615C13.6899 10.7612 13.6956 10.7589 13.7 10.755L13.86 10.64L14.02 10.755C14.0245 10.7589 14.0301 10.7612 14.036 10.7615C14.042 10.7618 14.0478 10.76 14.0526 10.7565C14.0574 10.753 14.0608 10.748 14.0624 10.7422C14.0639 10.7365 14.0634 10.7304 14.061 10.725L14.001 10.538L14.16 10.421C14.1643 10.4175 14.1674 10.4129 14.169 10.4076C14.1705 10.4023 14.1704 10.3967 14.1687 10.3914C14.1669 10.3862 14.1636 10.3817 14.1592 10.3784C14.1548 10.3751 14.1495 10.3732 14.144 10.373L13.948 10.371ZM13.885 11.825L13.948 12.012L14.144 12.013C14.17 12.013 14.18 12.046 14.16 12.061L14.002 12.178L14.061 12.366C14.0624 12.3712 14.0622 12.3767 14.0604 12.3817C14.0586 12.3868 14.0554 12.3912 14.0511 12.3944C14.0468 12.3977 14.0416 12.3995 14.0363 12.3998C14.0309 12.4001 14.0256 12.3988 14.021 12.396L13.861 12.281L13.701 12.395C13.6964 12.3985 13.6908 12.4004 13.6851 12.4005C13.6793 12.4006 13.6736 12.3989 13.6689 12.3955C13.6642 12.3922 13.6607 12.3874 13.6589 12.3819C13.6572 12.3764 13.6572 12.3705 13.659 12.365L13.719 12.178L13.561 12.061C13.5561 12.0579 13.5524 12.0534 13.5504 12.048C13.5484 12.0426 13.5483 12.0367 13.55 12.0312C13.5517 12.0257 13.5552 12.021 13.5599 12.0177C13.5646 12.0144 13.5703 12.0127 13.576 12.013L13.773 12.012L13.835 11.825C13.837 11.82 13.8405 11.8158 13.845 11.8128C13.8494 11.8098 13.8546 11.8082 13.86 11.8082C13.8654 11.8082 13.8706 11.8098 13.8751 11.8128C13.8795 11.8158 13.883 11.82 13.885 11.825V11.825ZM13.948 13.485L13.885 13.299C13.883 13.294 13.8795 13.2898 13.8751 13.2868C13.8706 13.2838 13.8654 13.2822 13.86 13.2822C13.8546 13.2822 13.8494 13.2838 13.845 13.2868C13.8405 13.2898 13.837 13.294 13.835 13.299L13.773 13.485L13.576 13.487C13.5703 13.4867 13.5646 13.4884 13.5599 13.4917C13.5552 13.495 13.5517 13.4997 13.55 13.5052C13.5483 13.5107 13.5484 13.5166 13.5504 13.522C13.5524 13.5274 13.5561 13.5319 13.561 13.535L13.719 13.652L13.659 13.839C13.652 13.863 13.679 13.883 13.7 13.869L13.86 13.754L14.02 13.869C14.041 13.883 14.069 13.863 14.061 13.839L14.001 13.651L14.16 13.535C14.165 13.5319 14.1688 13.5272 14.1708 13.5217C14.1728 13.5162 14.1728 13.5102 14.171 13.5047C14.1691 13.4991 14.1655 13.4944 14.1606 13.4912C14.1557 13.4879 14.1498 13.4865 14.144 13.487L13.948 13.485ZM14.643 7.721L14.706 7.908L14.902 7.91C14.928 7.91 14.938 7.942 14.918 7.957L14.759 8.074L14.819 8.262C14.821 8.26728 14.8213 8.27307 14.8197 8.2785C14.8181 8.28393 14.8148 8.2887 14.8103 8.29209C14.8058 8.29548 14.8003 8.2973 14.7947 8.29729C14.789 8.29727 14.7835 8.29541 14.779 8.292L14.619 8.177L14.459 8.291C14.4544 8.2945 14.4488 8.29645 14.4431 8.29654C14.4373 8.29663 14.4316 8.29487 14.4269 8.29151C14.4222 8.28815 14.4187 8.28338 14.417 8.27789C14.4152 8.2724 14.4152 8.26648 14.417 8.261L14.477 8.074L14.318 7.957C14.3135 7.95373 14.3102 7.94912 14.3085 7.94383C14.3069 7.93854 14.3069 7.93286 14.3087 7.92761C14.3105 7.92236 14.3139 7.91782 14.3185 7.91465C14.323 7.91149 14.3285 7.90985 14.334 7.91L14.531 7.908L14.593 7.721C14.601 7.697 14.635 7.697 14.643 7.721V7.721ZM14.706 9.465L14.643 9.278C14.635 9.254 14.601 9.254 14.593 9.278L14.531 9.465L14.334 9.466C14.3285 9.46619 14.3232 9.46806 14.3188 9.47136C14.3144 9.47466 14.3111 9.47922 14.3093 9.48445C14.3076 9.48967 14.3075 9.4953 14.3091 9.50058C14.3106 9.50586 14.3137 9.51054 14.318 9.514L14.477 9.631L14.417 9.818C14.4154 9.82333 14.4156 9.82901 14.4173 9.83428C14.4191 9.83954 14.4225 9.84412 14.427 9.8474C14.4315 9.85069 14.4368 9.8525 14.4424 9.85261C14.448 9.85272 14.4534 9.85111 14.458 9.848L14.618 9.733L14.778 9.848C14.7825 9.85141 14.788 9.85327 14.7937 9.85329C14.7993 9.8533 14.8048 9.85148 14.8093 9.84809C14.8138 9.8447 14.8171 9.83993 14.8187 9.8345C14.8203 9.82907 14.82 9.82328 14.818 9.818L14.759 9.631L14.918 9.514C14.9223 9.51054 14.9254 9.50586 14.927 9.50058C14.9285 9.4953 14.9284 9.48967 14.9267 9.48445C14.9249 9.47922 14.9216 9.47466 14.9172 9.47136C14.9128 9.46806 14.9075 9.46619 14.902 9.466L14.706 9.465V9.465ZM14.643 11.005L14.706 11.191L14.902 11.193C14.928 11.193 14.938 11.226 14.918 11.241L14.759 11.358L14.819 11.545C14.821 11.5503 14.8213 11.5561 14.8197 11.5615C14.8181 11.5669 14.8148 11.5717 14.8103 11.5751C14.8058 11.5785 14.8003 11.5803 14.7947 11.5803C14.789 11.5803 14.7835 11.5784 14.779 11.575L14.619 11.46L14.459 11.575C14.4544 11.5785 14.4488 11.5804 14.4431 11.5805C14.4373 11.5806 14.4316 11.5789 14.4269 11.5755C14.4222 11.5722 14.4187 11.5674 14.417 11.5619C14.4152 11.5564 14.4152 11.5505 14.417 11.545L14.477 11.357L14.318 11.241C14.3137 11.2375 14.3106 11.2329 14.3091 11.2276C14.3075 11.2223 14.3076 11.2167 14.3093 11.2114C14.3111 11.2062 14.3144 11.2017 14.3188 11.1984C14.3232 11.1951 14.3285 11.1932 14.334 11.193L14.531 11.191L14.593 11.005C14.601 10.98 14.635 10.98 14.643 11.005ZM14.706 12.778L14.643 12.591C14.635 12.567 14.601 12.567 14.593 12.591L14.531 12.778L14.334 12.78C14.3287 12.7804 14.3237 12.7823 14.3195 12.7856C14.3153 12.7888 14.3122 12.7932 14.3105 12.7982C14.3088 12.8032 14.3086 12.8086 14.3099 12.8137C14.3113 12.8189 14.3141 12.8235 14.318 12.827L14.477 12.944L14.417 13.132C14.4146 13.1374 14.4141 13.1435 14.4157 13.1492C14.4172 13.155 14.4206 13.16 14.4254 13.1635C14.4302 13.167 14.4361 13.1688 14.442 13.1685C14.4479 13.1682 14.4536 13.1659 14.458 13.162L14.618 13.047L14.778 13.161C14.7825 13.1644 14.788 13.1663 14.7937 13.1663C14.7993 13.1663 14.8048 13.1645 14.8093 13.1611C14.8138 13.1577 14.8171 13.1529 14.8187 13.1475C14.8203 13.1421 14.82 13.1363 14.818 13.131L14.759 12.944L14.918 12.827C14.9219 12.8235 14.9248 12.8189 14.9261 12.8137C14.9274 12.8086 14.9272 12.8032 14.9255 12.7982C14.9238 12.7932 14.9207 12.7888 14.9165 12.7856C14.9123 12.7823 14.9073 12.7804 14.902 12.78L14.706 12.778V12.778ZM14.643 14.034L14.706 14.221L14.902 14.223C14.928 14.223 14.938 14.255 14.918 14.27L14.759 14.387L14.819 14.575C14.821 14.5803 14.8213 14.5861 14.8197 14.5915C14.8181 14.5969 14.8148 14.6017 14.8103 14.6051C14.8058 14.6085 14.8003 14.6103 14.7947 14.6103C14.789 14.6103 14.7835 14.6084 14.779 14.605L14.619 14.49L14.459 14.604C14.4544 14.6075 14.4488 14.6094 14.4431 14.6095C14.4373 14.6096 14.4316 14.6079 14.4269 14.6045C14.4222 14.6012 14.4187 14.5964 14.417 14.5909C14.4152 14.5854 14.4152 14.5795 14.417 14.574L14.477 14.387L14.318 14.27C14.3141 14.2665 14.3113 14.2619 14.3099 14.2567C14.3086 14.2516 14.3088 14.2462 14.3105 14.2412C14.3122 14.2362 14.3153 14.2318 14.3195 14.2286C14.3237 14.2253 14.3287 14.2234 14.334 14.223L14.531 14.221L14.593 14.034C14.601 14.01 14.635 14.01 14.643 14.034V14.034ZM15.461 8.645L15.4 8.46C15.398 8.45503 15.3945 8.45078 15.3901 8.44779C15.3856 8.4448 15.3804 8.4432 15.375 8.4432C15.3696 8.4432 15.3644 8.4448 15.36 8.44779C15.3555 8.45078 15.352 8.45503 15.35 8.46L15.287 8.646L15.091 8.648C15.0855 8.64819 15.0802 8.65006 15.0758 8.65336C15.0714 8.65666 15.0681 8.66122 15.0663 8.66644C15.0646 8.67167 15.0645 8.6773 15.0661 8.68258C15.0676 8.68786 15.0707 8.69254 15.075 8.696L15.234 8.812L15.174 9C15.1727 9.00519 15.1729 9.01067 15.1746 9.01573C15.1764 9.0208 15.1796 9.02522 15.1839 9.02844C15.1882 9.03166 15.1934 9.03353 15.1987 9.03381C15.2041 9.03408 15.2094 9.03276 15.214 9.03L15.375 8.915L15.535 9.029C15.5396 9.03176 15.5449 9.03308 15.5503 9.03281C15.5556 9.03253 15.5608 9.03066 15.5651 9.02744C15.5694 9.02422 15.5726 9.0198 15.5744 9.01473C15.5762 9.00967 15.5764 9.00419 15.575 8.999L15.516 8.812L15.675 8.696C15.68 8.69292 15.6838 8.68825 15.6858 8.68274C15.6878 8.67724 15.6878 8.67123 15.686 8.66568C15.6841 8.66012 15.6805 8.65536 15.6756 8.65215C15.6707 8.64894 15.6648 8.64748 15.659 8.648L15.462 8.646L15.461 8.645ZM15.399 10.185L15.461 10.371L15.658 10.373C15.684 10.373 15.694 10.406 15.674 10.421L15.515 10.538L15.575 10.725C15.5774 10.7304 15.5779 10.7365 15.5764 10.7422C15.5748 10.748 15.5714 10.753 15.5666 10.7565C15.5618 10.76 15.556 10.7618 15.55 10.7615C15.5441 10.7612 15.5385 10.7589 15.534 10.755L15.374 10.64L15.214 10.755C15.2095 10.7584 15.204 10.7603 15.1984 10.7603C15.1927 10.7603 15.1872 10.7585 15.1827 10.7551C15.1782 10.7517 15.1749 10.7469 15.1733 10.7415C15.1718 10.7361 15.172 10.7303 15.174 10.725L15.233 10.538L15.074 10.421C15.0697 10.4175 15.0666 10.4129 15.0651 10.4076C15.0635 10.4023 15.0636 10.3967 15.0653 10.3914C15.0671 10.3862 15.0704 10.3817 15.0748 10.3784C15.0792 10.3751 15.0845 10.3732 15.09 10.373L15.287 10.371L15.349 10.185C15.351 10.18 15.3545 10.1758 15.359 10.1728C15.3634 10.1698 15.3686 10.1682 15.374 10.1682C15.3794 10.1682 15.3846 10.1698 15.3891 10.1728C15.3935 10.1758 15.397 10.18 15.399 10.185V10.185ZM15.461 12.012L15.399 11.825C15.397 11.82 15.3935 11.8158 15.3891 11.8128C15.3846 11.8098 15.3794 11.8082 15.374 11.8082C15.3686 11.8082 15.3634 11.8098 15.359 11.8128C15.3545 11.8158 15.351 11.82 15.349 11.825L15.286 12.012L15.09 12.013C15.0842 12.0125 15.0783 12.0139 15.0735 12.0172C15.0686 12.0204 15.0649 12.0251 15.063 12.0307C15.0612 12.0362 15.0613 12.0422 15.0633 12.0477C15.0652 12.0532 15.069 12.0579 15.074 12.061L15.233 12.178L15.173 12.366C15.1717 12.3712 15.1719 12.3767 15.1736 12.3817C15.1754 12.3868 15.1786 12.3912 15.1829 12.3944C15.1872 12.3977 15.1924 12.3995 15.1977 12.3998C15.2031 12.4001 15.2084 12.3988 15.213 12.396L15.374 12.281L15.534 12.395C15.5386 12.3978 15.5439 12.3991 15.5493 12.3988C15.5546 12.3985 15.5598 12.3967 15.5641 12.3934C15.5684 12.3902 15.5716 12.3858 15.5734 12.3807C15.5752 12.3757 15.5754 12.3702 15.574 12.365L15.515 12.178L15.674 12.061C15.679 12.0579 15.6828 12.0532 15.6848 12.0477C15.6868 12.0422 15.6868 12.0362 15.685 12.0307C15.6831 12.0251 15.6795 12.0204 15.6746 12.0172C15.6697 12.0139 15.6638 12.0125 15.658 12.013L15.461 12.012V12.012ZM15.399 13.299L15.461 13.485L15.658 13.487C15.684 13.487 15.694 13.52 15.674 13.535L15.515 13.652L15.575 13.839C15.582 13.863 15.555 13.883 15.534 13.869L15.374 13.754L15.214 13.869C15.194 13.883 15.165 13.863 15.174 13.839L15.233 13.651L15.074 13.535C15.069 13.5319 15.0652 13.5272 15.0633 13.5217C15.0613 13.5162 15.0612 13.5102 15.063 13.5047C15.0649 13.4991 15.0686 13.4944 15.0735 13.4912C15.0783 13.4879 15.0842 13.4865 15.09 13.487L15.287 13.485L15.349 13.299C15.351 13.294 15.3545 13.2898 15.359 13.2868C15.3634 13.2838 15.3686 13.2822 15.374 13.2822C15.3794 13.2822 15.3846 13.2838 15.3891 13.2868C15.3935 13.2898 15.397 13.294 15.399 13.299V13.299ZM16.22 7.909L16.158 7.721C16.15 7.697 16.116 7.697 16.108 7.721L16.045 7.908L15.849 7.91C15.8435 7.90985 15.838 7.91149 15.8335 7.91465C15.8289 7.91782 15.8255 7.92236 15.8237 7.92761C15.8219 7.93286 15.8219 7.93854 15.8235 7.94383C15.8252 7.94912 15.8285 7.95373 15.833 7.957L15.991 8.074L15.932 8.262C15.9307 8.26719 15.9309 8.27267 15.9326 8.27773C15.9344 8.2828 15.9376 8.28722 15.9419 8.29044C15.9462 8.29366 15.9514 8.29553 15.9567 8.2958C15.9621 8.29608 15.9674 8.29476 15.972 8.292L16.132 8.177L16.292 8.291C16.2966 8.29411 16.3021 8.29572 16.3076 8.29561C16.3132 8.2955 16.3186 8.29369 16.3231 8.2904C16.3275 8.28712 16.3309 8.28254 16.3327 8.27728C16.3345 8.27201 16.3346 8.26633 16.333 8.261L16.274 8.074L16.432 7.957C16.4364 7.95378 16.4397 7.94926 16.4414 7.94407C16.4431 7.93888 16.4431 7.93329 16.4415 7.92809C16.4398 7.92289 16.4365 7.91835 16.4322 7.9151C16.4278 7.91185 16.4225 7.91007 16.417 7.91L16.22 7.908V7.909ZM16.158 9.278L16.22 9.465L16.417 9.466C16.442 9.466 16.453 9.499 16.432 9.514L16.274 9.631L16.334 9.818C16.3356 9.82333 16.3355 9.82901 16.3337 9.83428C16.3319 9.83954 16.3285 9.84412 16.3241 9.8474C16.3196 9.85069 16.3142 9.8525 16.3086 9.85261C16.3031 9.85272 16.2976 9.85111 16.293 9.848L16.133 9.733L15.973 9.848C15.9684 9.85111 15.963 9.85272 15.9574 9.85261C15.9518 9.8525 15.9465 9.85069 15.942 9.8474C15.9375 9.84412 15.9341 9.83954 15.9323 9.83428C15.9306 9.82901 15.9304 9.82333 15.932 9.818L15.992 9.631L15.833 9.514C15.828 9.51092 15.8242 9.50625 15.8223 9.50074C15.8203 9.49524 15.8202 9.48923 15.822 9.48367C15.8239 9.47812 15.8276 9.47336 15.8325 9.47015C15.8373 9.46694 15.8432 9.46548 15.849 9.466L16.045 9.465L16.108 9.278C16.116 9.254 16.15 9.254 16.158 9.278V9.278ZM16.22 11.191L16.158 11.005C16.15 10.98 16.116 10.98 16.108 11.005L16.045 11.191L15.849 11.193C15.8435 11.1932 15.8382 11.1951 15.8338 11.1984C15.8294 11.2017 15.8261 11.2062 15.8243 11.2114C15.8226 11.2167 15.8225 11.2223 15.8241 11.2276C15.8256 11.2329 15.8287 11.2375 15.833 11.241L15.991 11.358L15.932 11.545C15.9307 11.5502 15.9309 11.5557 15.9326 11.5607C15.9344 11.5658 15.9376 11.5702 15.9419 11.5734C15.9462 11.5767 15.9514 11.5785 15.9567 11.5788C15.9621 11.5791 15.9674 11.5778 15.972 11.575L16.132 11.46L16.292 11.575C16.2966 11.5781 16.3021 11.5797 16.3076 11.5796C16.3132 11.5795 16.3186 11.5777 16.3231 11.5744C16.3275 11.5711 16.3309 11.5665 16.3327 11.5613C16.3345 11.556 16.3346 11.5503 16.333 11.545L16.274 11.357L16.432 11.241C16.4363 11.2376 16.4394 11.233 16.441 11.2278C16.4425 11.2226 16.4425 11.2171 16.4409 11.2119C16.4393 11.2067 16.4361 11.2021 16.4319 11.1988C16.4276 11.1954 16.4224 11.1934 16.417 11.193L16.22 11.191ZM16.158 12.591L16.22 12.778L16.417 12.78C16.442 12.78 16.453 12.812 16.432 12.827L16.274 12.944L16.334 13.132C16.3364 13.1374 16.3369 13.1435 16.3354 13.1492C16.3338 13.155 16.3304 13.16 16.3256 13.1635C16.3208 13.167 16.315 13.1688 16.309 13.1685C16.3031 13.1682 16.2975 13.1659 16.293 13.162L16.133 13.047L15.973 13.161C15.9686 13.1649 15.9629 13.1672 15.957 13.1675C15.9511 13.1678 15.9452 13.166 15.9404 13.1625C15.9356 13.159 15.9322 13.154 15.9307 13.1482C15.9291 13.1425 15.9296 13.1364 15.932 13.131L15.992 12.944L15.833 12.827C15.8291 12.8235 15.8263 12.8189 15.8249 12.8137C15.8236 12.8086 15.8238 12.8032 15.8255 12.7982C15.8272 12.7932 15.8303 12.7888 15.8345 12.7856C15.8387 12.7823 15.8437 12.7804 15.849 12.78L16.045 12.778L16.108 12.591C16.116 12.567 16.15 12.567 16.158 12.591V12.591ZM16.22 14.221L16.158 14.034C16.15 14.01 16.116 14.01 16.108 14.034L16.045 14.221L15.849 14.223C15.8437 14.2234 15.8387 14.2253 15.8345 14.2286C15.8303 14.2318 15.8272 14.2362 15.8255 14.2412C15.8238 14.2462 15.8236 14.2516 15.8249 14.2567C15.8263 14.2619 15.8291 14.2665 15.833 14.27L15.991 14.387L15.932 14.575C15.924 14.599 15.952 14.619 15.972 14.605L16.132 14.49L16.292 14.604C16.313 14.619 16.342 14.599 16.333 14.574L16.274 14.387L16.432 14.27C16.4359 14.2665 16.4387 14.262 16.4401 14.257C16.4415 14.2519 16.4414 14.2466 16.4398 14.2416C16.4382 14.2367 16.4352 14.2322 16.4312 14.2289C16.4271 14.2256 16.4222 14.2236 16.417 14.223L16.22 14.221V14.221Z" fill="#F5F5F5"/>
</g>
<defs>
<clipPath id="clip0">
<rect width="24" height="24" fill="white"/>
</clipPath>
</defs>
</svg>
