<svg width="24" height="24" viewBox="0 0 24 24" fill="none" xmlns="http://www.w3.org/2000/svg">
<path d="M6.375 2C5.21468 2 4.10188 2.46094 3.28141 3.28141C2.46094 4.10188 2 5.21468 2 6.375V17.625C2 18.7853 2.46094 19.8981 3.28141 20.7186C4.10188 21.5391 5.21468 22 6.375 22H8.667V2H6.375Z" fill="#2841C1"/>
<path d="M8.66602 2V22H15.332V2H8.66602Z" fill="#F6F6F6"/>
<path d="M17.626 2H15.334V22H17.626C18.7861 21.9997 19.8987 21.5387 20.7189 20.7182C21.5392 19.8978 22 18.7851 22 17.625V6.375C22 5.21485 21.5392 4.1022 20.7189 3.28176C19.8987 2.46132 18.7861 2.00027 17.626 2V2Z" fill="#FB4B4E"/>
</svg>
