<svg width="24" height="24" viewBox="0 0 24 24" fill="none" xmlns="http://www.w3.org/2000/svg">
<g clip-path="url(#clip0)">
<path d="M11.719 17H3.28C2.41 16.9997 1.57572 16.6539 0.960629 16.0387C0.345538 15.4234 -4.0409e-08 14.589 0 13.719L0 5.28C0.000265164 4.41 0.346058 3.57572 0.961336 2.96063C1.57661 2.34554 2.411 2 3.281 2H11.719C12.5892 2 13.4237 2.34568 14.039 2.96098C14.6543 3.57629 15 4.41082 15 5.281V13.719C15 14.5892 14.6543 15.4237 14.039 16.039C13.4237 16.6543 12.5892 17 11.719 17Z" fill="#2841C1"/>
<path fill-rule="evenodd" clip-rule="evenodd" d="M2.4061e-08 5.393V6.002L2.327 7.526H2.4061e-08V8.316H6.316V2H5.526V6.791L0.52 3.511C0.325 3.813 0.179 4.151 0.092 4.511L2.4061e-08 5.393ZM0.519 15.49C0.400251 15.3052 0.300414 15.1088 0.221 14.904L0.021 14.092C0.00699613 13.9682 -1.49895e-05 13.8436 2.4061e-08 13.719V12.999L2.327 11.474H2.4061e-08V10.684H6.316V17H5.526V12.21L0.52 15.489L0.519 15.49ZM14.999 12.998V13.718L14.884 14.585C14.7965 14.9054 14.6606 15.2106 14.481 15.49L9.473 12.209V17H8.683V10.684H15V11.474H12.674L15 12.998H14.999ZM14.481 3.51C14.597 3.69 14.695 3.883 14.774 4.085L14.977 4.895C14.991 5.022 14.999 5.151 14.999 5.281V6.001L12.673 7.526H14.999V8.316H8.684V2H9.474V6.791L14.481 3.511V3.51Z" fill="#F6F6F6"/>
<path fill-rule="evenodd" clip-rule="evenodd" d="M8.68399 2H6.31599V8.316H-7.08003e-06V10.684H6.31599V17H8.68399V10.684H15V8.316H8.68399V2ZM4.05399 11.474L0.0219929 14.092C0.0549929 14.375 0.121993 14.647 0.221993 14.904L5.50599 11.474H4.05599H4.05399ZM14.884 14.584L10.092 11.474H11.542L15 13.719C15 14.019 14.96 14.309 14.884 14.585V14.584ZM4.73699 7.527L0.0899929 4.511C0.0299929 4.758 -0.00100708 5.016 -0.00100708 5.281V5.393L3.28599 7.526H4.73599L4.73699 7.527ZM14.978 4.897L10.925 7.527H9.47499L14.776 4.087C14.876 4.342 14.945 4.614 14.978 4.897Z" fill="#FB4B4E"/>
<path d="M20.719 7H12.28C11.41 7.00027 10.5757 7.34606 9.96063 7.96134C9.34554 8.57661 9 9.411 9 10.281V18.719C9 19.5892 9.34568 20.4237 9.96098 21.039C10.5763 21.6543 11.4108 22 12.281 22H20.719C21.5892 22 22.4237 21.6543 23.039 21.039C23.6543 20.4237 24 19.5892 24 18.719V10.28C23.9997 9.41 23.6539 8.57572 23.0387 7.96063C22.4234 7.34554 21.589 7 20.719 7Z" fill="#FB4B4E"/>
<path d="M19.708 13.333H17.667V11.292C17.667 11.2146 17.6362 11.1403 17.5815 11.0855C17.5267 11.0308 17.4524 11 17.375 11H15.625C15.5476 11 15.4733 11.0308 15.4185 11.0855C15.3638 11.1403 15.333 11.2146 15.333 11.292V13.333H13.292C13.2146 13.333 13.1403 13.3638 13.0855 13.4185C13.0308 13.4733 13 13.5476 13 13.625V15.375C13 15.536 13.13 15.667 13.292 15.667H15.333V17.708C15.333 17.869 15.463 18 15.625 18H17.375C17.536 18 17.667 17.87 17.667 17.708V15.667H19.708C19.869 15.667 20 15.537 20 15.375V13.625C20 13.5867 19.9924 13.5487 19.9778 13.5133C19.9631 13.4778 19.9416 13.4456 19.9145 13.4185C19.8874 13.3914 19.8552 13.3699 19.8197 13.3552C19.7843 13.3406 19.7463 13.333 19.708 13.333Z" fill="#F6F6F6"/>
</g>
<defs>
<clipPath id="clip0">
<rect width="24" height="24" fill="white"/>
</clipPath>
</defs>
</svg>
