<svg width="25" height="24" viewBox="0 0 25 24" fill="none" xmlns="http://www.w3.org/2000/svg">
<path d="M12.219 17H3.78C2.91 16.9997 2.07572 16.6539 1.46063 16.0387C0.845538 15.4234 0.5 14.589 0.5 13.719L0.5 5.28C0.500265 4.41 0.846058 3.57572 1.46134 2.96063C2.07661 2.34554 2.911 2 3.781 2H12.219C13.0892 2 13.9237 2.34568 14.539 2.96098C15.1543 3.57629 15.5 4.41082 15.5 5.281V13.719C15.5 14.5892 15.1543 15.4237 14.539 16.039C13.9237 16.6543 13.0892 17 12.219 17Z" fill="#2841C1"/>
<path fill-rule="evenodd" clip-rule="evenodd" d="M0.5 5.393V6.002L2.827 7.526H0.5V8.316H6.816V2H6.026V6.791L1.02 3.511C0.825 3.813 0.679 4.151 0.592 4.511L0.5 5.393ZM1.019 15.49C0.900251 15.3052 0.800414 15.1088 0.721 14.904L0.521 14.092C0.506996 13.9682 0.499985 13.8436 0.5 13.719V12.999L2.827 11.474H0.5V10.684H6.816V17H6.026V12.21L1.02 15.489L1.019 15.49ZM15.499 12.998V13.718L15.384 14.585C15.2965 14.9054 15.1606 15.2106 14.981 15.49L9.973 12.209V17H9.183V10.684H15.5V11.474H13.174L15.5 12.998H15.499ZM14.981 3.51C15.097 3.69 15.195 3.883 15.274 4.085L15.477 4.895C15.491 5.022 15.499 5.151 15.499 5.281V6.001L13.173 7.526H15.499V8.316H9.184V2H9.974V6.791L14.981 3.511V3.51Z" fill="#F6F6F6"/>
<path fill-rule="evenodd" clip-rule="evenodd" d="M9.18399 2H6.81599V8.316H0.499993V10.684H6.81599V17H9.18399V10.684H15.5V8.316H9.18399V2ZM4.55399 11.474L0.521993 14.092C0.554993 14.375 0.621993 14.647 0.721993 14.904L6.00599 11.474H4.55599H4.55399ZM15.384 14.584L10.592 11.474H12.042L15.5 13.719C15.5 14.019 15.46 14.309 15.384 14.585V14.584ZM5.23699 7.527L0.589993 4.511C0.529993 4.758 0.498993 5.016 0.498993 5.281V5.393L3.78599 7.526H5.23599L5.23699 7.527ZM15.478 4.897L11.425 7.527H9.97499L15.276 4.087C15.376 4.342 15.445 4.614 15.478 4.897Z" fill="#FB4B4E"/>
<path d="M21.5 7H12.5V22H21.5V7Z" fill="#F6F6F6"/>
<path fill-rule="evenodd" clip-rule="evenodd" d="M12.637 7C12.591 7 12.545 7.001 12.5 7.003L12.637 7ZM12.5 21.996C10.831 21.921 9.5 20.482 9.5 18.718V10.281C9.5 8.517 10.831 7.078 12.5 7.003V21.996ZM12.637 21.999L12.5 21.996C12.545 21.998 12.591 21.999 12.637 21.999ZM21.364 7L21.5 7.003C21.4547 7.00099 21.4094 6.99999 21.364 7ZM21.5 7.003C23.17 7.077 24.501 8.516 24.501 10.281V18.718C24.501 20.53 23.097 21.999 21.364 21.999L21.499 21.996L21.5 7.003ZM20.104 14.758L18.569 15.635C18.492 15.679 18.4332 15.7489 18.403 15.8322C18.3728 15.9155 18.3731 16.0069 18.404 16.09L18.536 16.44L17.22 16.328C17.2028 16.3266 17.1855 16.3288 17.1693 16.3346C17.153 16.3403 17.1382 16.3494 17.1257 16.3613C17.1132 16.3732 17.1034 16.3877 17.0969 16.4036C17.0904 16.4196 17.0874 16.4368 17.088 16.454L17.129 17.861H16.87L16.912 16.454C16.9126 16.4367 16.9096 16.4194 16.903 16.4034C16.8965 16.3873 16.8866 16.3729 16.874 16.3609C16.8614 16.349 16.8464 16.3399 16.83 16.3342C16.8137 16.3285 16.7963 16.3264 16.779 16.328L15.464 16.441L15.595 16.09C15.6262 16.007 15.6268 15.9157 15.5967 15.8323C15.5667 15.7489 15.5079 15.679 15.431 15.635L13.897 14.758L14.249 14.582C14.2971 14.5577 14.3364 14.5191 14.3615 14.4714C14.3866 14.4237 14.3962 14.3694 14.389 14.316L14.275 13.457L14.925 13.647C14.959 13.6567 14.9946 13.6594 15.0296 13.6548C15.0646 13.6502 15.0983 13.6386 15.1287 13.6205C15.159 13.6024 15.1854 13.5783 15.206 13.5497C15.2267 13.521 15.2414 13.4885 15.249 13.454L15.311 13.173L15.921 13.887C16.006 13.986 16.167 13.91 16.145 13.782L15.885 12.267L16.283 12.376C16.3397 12.3915 16.4 12.3873 16.4539 12.3641C16.5079 12.3408 16.5524 12.2999 16.58 12.248L17 11.461V11.46V11.461L17.42 12.248C17.477 12.355 17.6 12.408 17.717 12.376L18.116 12.266L17.855 13.782C17.833 13.91 17.995 13.986 18.079 13.887L18.689 13.173L18.751 13.453C18.7586 13.4876 18.7733 13.5203 18.794 13.549C18.8148 13.5777 18.8412 13.6018 18.8717 13.6199C18.9021 13.638 18.936 13.6497 18.9711 13.6541C19.0063 13.6586 19.042 13.6559 19.076 13.646L19.726 13.457L19.611 14.317C19.604 14.3702 19.6137 14.4243 19.6388 14.4718C19.6639 14.5193 19.7031 14.5578 19.751 14.582L20.103 14.758H20.104Z" fill="#FB4B4E"/>
</svg>
