<svg width="24" height="24" viewBox="0 0 24 24" fill="none" xmlns="http://www.w3.org/2000/svg">
<g clip-path="url(#clip0)">
<path d="M11.719 17H3.28C2.41 16.9997 1.57572 16.6539 0.960629 16.0387C0.345538 15.4234 -4.0409e-08 14.589 0 13.719L0 5.28C0.000265164 4.41 0.346058 3.57572 0.961336 2.96063C1.57661 2.34554 2.411 2 3.281 2H11.719C12.5892 2 13.4237 2.34568 14.039 2.96098C14.6543 3.57629 15 4.41082 15 5.281V13.719C15 14.5892 14.6543 15.4237 14.039 16.039C13.4237 16.6543 12.5892 17 11.719 17Z" fill="#2841C1"/>
<path fill-rule="evenodd" clip-rule="evenodd" d="M2.4061e-08 5.393V6.002L2.327 7.526H2.4061e-08V8.316H6.316V2H5.526V6.791L0.52 3.511C0.325 3.813 0.179 4.151 0.092 4.511L2.4061e-08 5.393ZM0.519 15.49C0.400251 15.3052 0.300414 15.1088 0.221 14.904L0.021 14.092C0.00699613 13.9682 -1.49895e-05 13.8436 2.4061e-08 13.719V12.999L2.327 11.474H2.4061e-08V10.684H6.316V17H5.526V12.21L0.52 15.489L0.519 15.49ZM14.999 12.998V13.718L14.884 14.585C14.7965 14.9054 14.6606 15.2106 14.481 15.49L9.473 12.209V17H8.683V10.684H15V11.474H12.674L15 12.998H14.999ZM14.481 3.51C14.597 3.69 14.695 3.883 14.774 4.085L14.977 4.895C14.991 5.022 14.999 5.151 14.999 5.281V6.001L12.673 7.526H14.999V8.316H8.684V2H9.474V6.791L14.481 3.511V3.51Z" fill="#F6F6F6"/>
<path fill-rule="evenodd" clip-rule="evenodd" d="M8.68399 2H6.31599V8.316H-7.08003e-06V10.684H6.31599V17H8.68399V10.684H15V8.316H8.68399V2ZM4.05399 11.474L0.0219929 14.092C0.0549929 14.375 0.121993 14.647 0.221993 14.904L5.50599 11.474H4.05599H4.05399ZM14.884 14.584L10.092 11.474H11.542L15 13.719C15 14.019 14.96 14.309 14.884 14.585V14.584ZM4.73699 7.527L0.0899929 4.511C0.0299929 4.758 -0.00100708 5.016 -0.00100708 5.281V5.393L3.28599 7.526H4.73599L4.73699 7.527ZM14.978 4.897L10.925 7.527H9.47499L14.776 4.087C14.876 4.342 14.945 4.614 14.978 4.897Z" fill="#FB4B4E"/>
<path fill-rule="evenodd" clip-rule="evenodd" d="M13.736 7H12.281C11.4108 7 10.5763 7.34568 9.96098 7.96098C9.34568 8.57629 9 9.41082 9 10.281V18.72C9.00027 19.59 9.34606 20.4243 9.96134 21.0394C10.5766 21.6545 11.411 22 12.281 22H20.719C21.5892 22 22.4237 21.6543 23.039 21.039C23.6543 20.4237 24 19.5892 24 18.719V10.28C23.9997 9.41 23.6539 8.57572 23.0387 7.96063C22.4234 7.34554 21.589 7 20.719 7H13.736Z" fill="#2841C1"/>
<path fill-rule="evenodd" clip-rule="evenodd" d="M16.5 9.763V10.158H13.342V7H13.736V9.396L16.5 7.586V7.97L13.736 9.763H14.462L16.5 8.44V9.001L15.336 9.763H16.5ZM12.157 7.003C12.0247 7.00772 11.8928 7.02041 11.762 7.041V9.396L9.813 8.119C9.69561 8.25284 9.58926 8.39597 9.495 8.547L11.368 9.763H10.643L9.306 8.895C9.26949 8.97364 9.23613 9.0537 9.206 9.135L10.163 9.763H9.04C9.02 9.893 9.007 10.024 9.002 10.158H12.157V7.003ZM12.157 14.5H11.763V12.104L9 13.914V13.524L11.752 11.737H11.027L9 13.053V12.499L10.163 11.737H9V11.342H12.158V14.5H12.157ZM13.737 14.5H13.342V11.342H16.5V11.737H15.336L16.5 12.499V12.859L14.77 11.737H14.046L16.5 13.33V13.915L13.736 12.105V14.5H13.737Z" fill="#F6F6F6"/>
<path fill-rule="evenodd" clip-rule="evenodd" d="M12.158 14.5H13.342V11.342H16.5V10.158H13.342V7H12.282C12.24 7 12.199 7.001 12.158 7.003V10.158H9.003C9.00125 10.1986 9.00025 10.2393 9 10.28V11.341H12.158V14.5ZM11.028 11.737L9 13.053V13.523L11.752 11.737H11.027H11.028ZM16.499 13.33L14.045 11.737H14.77L16.5 12.859V13.329L16.499 13.33ZM11.367 9.763L9.494 8.547C9.424 8.659 9.361 8.775 9.304 8.895L10.642 9.763H11.367ZM16.5 8.44L14.46 9.763H13.735L16.5 7.97V8.441V8.44Z" fill="#FF4B55"/>
<path d="M19.59 19.927C19.5792 19.9268 19.5687 19.9233 19.56 19.917L19.254 19.698L18.948 19.918C18.9391 19.9241 18.9286 19.9272 18.9178 19.927C18.9071 19.9269 18.8967 19.9233 18.888 19.917C18.8789 19.9107 18.8721 19.9017 18.8685 19.8913C18.8649 19.8808 18.8648 19.8695 18.868 19.859L18.982 19.501L18.679 19.277C18.6706 19.2704 18.6644 19.2615 18.6612 19.2513C18.6581 19.2411 18.6582 19.2302 18.6614 19.22C18.6647 19.2098 18.671 19.2009 18.6795 19.1945C18.6881 19.1881 18.6983 19.1844 18.709 19.184L19.086 19.181L19.205 18.824C19.2085 18.8138 19.2151 18.805 19.2239 18.7987C19.2327 18.7924 19.2432 18.789 19.254 18.789C19.276 18.789 19.296 18.803 19.303 18.824L19.422 19.181L19.798 19.184C19.8087 19.1844 19.8189 19.1881 19.8274 19.1945C19.836 19.2009 19.8423 19.2098 19.8455 19.22C19.8488 19.2302 19.8489 19.2411 19.8458 19.2513C19.8426 19.2615 19.8364 19.2704 19.828 19.277L19.526 19.501L19.639 19.859C19.6415 19.8668 19.6422 19.875 19.6409 19.8831C19.6396 19.8911 19.6365 19.8988 19.6317 19.9054C19.6269 19.912 19.6207 19.9174 19.6134 19.9212C19.6062 19.9249 19.5982 19.9269 19.59 19.927Z" fill="#FF4B55"/>
<path d="M19.253 18.84L19.383 19.232L19.797 19.235L19.464 19.481L19.589 19.875L19.253 19.635L18.917 19.875L19.041 19.481L18.709 19.235L19.122 19.232L19.252 18.84H19.253ZM19.253 18.737C19.2314 18.7371 19.2104 18.7438 19.1928 18.7564C19.1753 18.7689 19.1621 18.7866 19.155 18.807L19.047 19.129L18.708 19.132C18.6861 19.1319 18.6648 19.1388 18.6471 19.1517C18.6294 19.1645 18.6162 19.1827 18.6095 19.2035C18.6029 19.2244 18.603 19.2468 18.6099 19.2676C18.6168 19.2883 18.6302 19.3063 18.648 19.319L18.92 19.52L18.818 19.843C18.8109 19.8638 18.8106 19.8864 18.8172 19.9074C18.8238 19.9284 18.8369 19.9467 18.8547 19.9596C18.8725 19.9726 18.894 19.9795 18.916 19.9794C18.938 19.9793 18.9594 19.9722 18.977 19.959L19.253 19.762L19.529 19.959C19.5465 19.9715 19.5675 19.9783 19.589 19.9783C19.6105 19.9783 19.6315 19.9715 19.649 19.959C19.6671 19.9464 19.6806 19.9283 19.6876 19.9074C19.6946 19.8865 19.6948 19.864 19.688 19.843L19.585 19.52L19.858 19.319C19.8759 19.3063 19.8892 19.2883 19.8961 19.2676C19.903 19.2468 19.9032 19.2244 19.8965 19.2035C19.8898 19.1827 19.8766 19.1645 19.8589 19.1517C19.8412 19.1388 19.8199 19.1319 19.798 19.132L19.458 19.129L19.351 18.807C19.344 18.7866 19.3307 18.7689 19.3132 18.7564C19.2956 18.7438 19.2746 18.7371 19.253 18.737Z" fill="#F5F5F5"/>
<path d="M19.59 14.84C19.5792 14.8399 19.5687 14.8364 19.56 14.83L19.254 14.612L18.948 14.831C18.9391 14.8374 18.9284 14.8409 18.9175 14.8409C18.9065 14.8409 18.8959 14.8374 18.887 14.831C18.8781 14.8245 18.8715 14.8155 18.8681 14.8051C18.8647 14.7946 18.8647 14.7834 18.868 14.773L18.982 14.414L18.679 14.191C18.6706 14.1844 18.6644 14.1755 18.6612 14.1653C18.6581 14.1551 18.6582 14.1441 18.6614 14.134C18.6647 14.1238 18.671 14.1149 18.6795 14.1085C18.6881 14.1021 18.6983 14.0984 18.709 14.098L19.086 14.094L19.205 13.738C19.2084 13.7276 19.2149 13.7185 19.2237 13.7121C19.2325 13.7056 19.2431 13.7021 19.254 13.702C19.276 13.702 19.296 13.716 19.303 13.738L19.422 14.094L19.798 14.097C19.82 14.097 19.84 14.112 19.847 14.133C19.8503 14.1434 19.8503 14.1547 19.8469 14.1651C19.8435 14.1755 19.8369 14.1846 19.828 14.191L19.526 14.414L19.639 14.773C19.6413 14.7807 19.6418 14.7888 19.6405 14.7968C19.6391 14.8047 19.6359 14.8122 19.6312 14.8187C19.6264 14.8252 19.6202 14.8305 19.6131 14.8342C19.6059 14.8379 19.598 14.8399 19.59 14.84Z" fill="#FF4B55"/>
<path d="M19.253 13.754L19.383 14.146L19.797 14.149L19.464 14.394L19.589 14.788L19.253 14.548L18.917 14.788L19.041 14.394L18.709 14.149L19.122 14.146L19.252 13.754H19.253ZM19.253 13.65C19.2314 13.6501 19.2104 13.6568 19.1928 13.6694C19.1753 13.6819 19.1621 13.6996 19.155 13.72L19.047 14.043L18.708 14.045C18.6861 14.0449 18.6648 14.0518 18.6471 14.0647C18.6294 14.0775 18.6162 14.0957 18.6095 14.1165C18.6029 14.1374 18.603 14.1598 18.6099 14.1806C18.6168 14.2013 18.6302 14.2193 18.648 14.232L18.92 14.434L18.818 14.757C18.8112 14.7778 18.8112 14.8001 18.8179 14.8209C18.8246 14.8417 18.8378 14.8598 18.8555 14.8726C18.8732 14.8854 18.8945 14.8922 18.9164 14.8921C18.9382 14.892 18.9594 14.885 18.977 14.872L19.253 14.675L19.529 14.872C19.5467 14.8843 19.5678 14.8908 19.5893 14.8906C19.6109 14.8903 19.6318 14.8834 19.6492 14.8708C19.6667 14.8582 19.6798 14.8405 19.6867 14.8201C19.6937 14.7997 19.6941 14.7777 19.688 14.757L19.585 14.434L19.858 14.232C19.8759 14.2193 19.8892 14.2013 19.8961 14.1806C19.903 14.1598 19.9032 14.1374 19.8965 14.1165C19.8898 14.0957 19.8766 14.0775 19.8589 14.0647C19.8412 14.0518 19.8199 14.0449 19.798 14.045L19.458 14.043L19.351 13.721C19.344 13.7006 19.3307 13.6829 19.3132 13.6704C19.2956 13.6578 19.2746 13.6511 19.253 13.651V13.65Z" fill="#F5F5F5"/>
<path d="M21.4 16.748C21.3892 16.7479 21.3787 16.7444 21.37 16.738L21.064 16.52L20.758 16.739C20.7492 16.7452 20.7387 16.7485 20.728 16.7485C20.7173 16.7485 20.7068 16.7452 20.698 16.739C20.6889 16.7327 20.6821 16.7237 20.6785 16.7133C20.6749 16.7028 20.6747 16.6915 20.678 16.681L20.792 16.322L20.49 16.099C20.4811 16.0926 20.4745 16.0835 20.4711 16.0731C20.4677 16.0627 20.4676 16.0514 20.471 16.041C20.4744 16.0305 20.4811 16.0213 20.4901 16.0148C20.4991 16.0083 20.5099 16.0049 20.521 16.005L20.896 16.003L21.016 15.646C21.0196 15.6359 21.0262 15.6271 21.035 15.6209C21.0438 15.6147 21.0543 15.6114 21.065 15.6114C21.0757 15.6114 21.0862 15.6147 21.095 15.6209C21.1038 15.6271 21.1104 15.6359 21.114 15.646L21.233 16.003L21.609 16.005C21.6199 16.0051 21.6305 16.0087 21.6393 16.0152C21.6481 16.0217 21.6546 16.0308 21.6579 16.0412C21.6612 16.0516 21.6612 16.0628 21.6578 16.0731C21.6544 16.0835 21.6478 16.0926 21.639 16.099L21.336 16.322L21.45 16.681C21.4523 16.6888 21.4528 16.697 21.4514 16.705C21.45 16.713 21.4467 16.7206 21.4419 16.7271C21.437 16.7336 21.4307 16.7389 21.4234 16.7425C21.4161 16.7462 21.4081 16.748 21.4 16.748Z" fill="#FF4B55"/>
<path d="M21.063 15.662L21.194 16.054L21.607 16.057L21.275 16.303L21.4 16.696L21.063 16.456L20.727 16.696L20.852 16.303L20.52 16.057L20.933 16.054L21.063 15.662ZM21.063 15.559C21.0414 15.5589 21.0203 15.5656 21.0027 15.5782C20.9851 15.5907 20.9719 15.6085 20.965 15.629L20.858 15.951L20.518 15.954C20.4964 15.9542 20.4754 15.9612 20.458 15.974C20.4405 15.9868 20.4276 16.0048 20.421 16.0254C20.4143 16.046 20.4143 16.0681 20.421 16.0887C20.4276 16.1092 20.4406 16.1272 20.458 16.14L20.731 16.342L20.629 16.665C20.6221 16.6857 20.622 16.708 20.6286 16.7287C20.6352 16.7495 20.6482 16.7676 20.6658 16.7805C20.6834 16.7934 20.7045 16.8004 20.7263 16.8005C20.7481 16.8005 20.7693 16.7937 20.787 16.781L21.063 16.584L21.339 16.781C21.3566 16.7946 21.3781 16.8021 21.4004 16.8025C21.4226 16.8028 21.4444 16.7959 21.4624 16.7829C21.4804 16.7698 21.4937 16.7513 21.5003 16.73C21.5069 16.7088 21.5064 16.686 21.499 16.665L21.396 16.342L21.669 16.14C21.6864 16.1272 21.6994 16.1092 21.706 16.0887C21.7127 16.0681 21.7127 16.046 21.706 16.0254C21.6994 16.0048 21.6865 15.9868 21.669 15.974C21.6516 15.9612 21.6306 15.9542 21.609 15.954L21.269 15.951L21.162 15.629C21.155 15.6084 21.1417 15.5905 21.1239 15.5779C21.1061 15.5653 21.0848 15.5587 21.063 15.559Z" fill="#F5F5F5"/>
<path d="M17.78 17.266C17.7692 17.2659 17.7587 17.2624 17.75 17.256L17.443 17.037L17.137 17.257C17.1281 17.2631 17.1176 17.2662 17.1069 17.266C17.0961 17.2658 17.0857 17.2623 17.077 17.256C17.068 17.2497 17.0611 17.2407 17.0575 17.2303C17.054 17.2198 17.0538 17.2085 17.057 17.198L17.171 16.84L16.869 16.616C16.8603 16.6096 16.8539 16.6007 16.8504 16.5905C16.847 16.5803 16.8469 16.5693 16.85 16.559C16.8534 16.5486 16.8599 16.5396 16.8687 16.5331C16.8775 16.5266 16.8881 16.5231 16.899 16.523L17.275 16.52L17.395 16.163C17.3985 16.153 17.4049 16.1442 17.4135 16.138C17.4221 16.1317 17.4324 16.1282 17.443 16.128C17.465 16.128 17.485 16.142 17.493 16.163L17.611 16.52L17.988 16.523C18.01 16.523 18.029 16.537 18.036 16.559C18.043 16.579 18.036 16.603 18.018 16.616L17.715 16.84L17.829 17.198C17.8315 17.2058 17.8322 17.2142 17.8309 17.2223C17.8295 17.2305 17.8263 17.2382 17.8214 17.2448C17.8165 17.2514 17.8102 17.2568 17.8028 17.2605C17.7954 17.2642 17.7873 17.2661 17.779 17.266H17.78Z" fill="#FF4B55"/>
<path d="M17.442 16.18L17.573 16.571L17.986 16.574L17.654 16.82L17.778 17.214L17.442 16.974L17.106 17.214L17.231 16.82L16.898 16.574L17.311 16.571L17.442 16.179V16.18ZM17.442 16.076C17.4204 16.0759 17.3993 16.0826 17.3817 16.0952C17.3641 16.1078 17.3509 16.1255 17.344 16.146L17.237 16.468L16.897 16.471C16.8757 16.4718 16.8551 16.4791 16.8381 16.492C16.8211 16.5049 16.8084 16.5227 16.8019 16.543C16.7953 16.5633 16.7952 16.5851 16.8015 16.6055C16.8078 16.6259 16.8202 16.6439 16.837 16.657L17.11 16.859L17.008 17.182C17.0011 17.2027 17.001 17.225 17.0076 17.2457C17.0142 17.2665 17.0272 17.2846 17.0448 17.2975C17.0623 17.3104 17.0835 17.3174 17.1053 17.3175C17.1271 17.3176 17.1483 17.3107 17.166 17.298L17.442 17.101L17.718 17.298C17.7356 17.3112 17.757 17.3183 17.779 17.3184C17.801 17.3186 17.8225 17.3116 17.8403 17.2986C17.8581 17.2857 17.8712 17.2674 17.8778 17.2464C17.8844 17.2254 17.8841 17.2028 17.877 17.182L17.775 16.859L18.048 16.657C18.0649 16.6438 18.0773 16.6258 18.0836 16.6053C18.0898 16.5848 18.0896 16.5629 18.0829 16.5426C18.0762 16.5222 18.0634 16.5044 18.0463 16.4916C18.0291 16.4788 18.0084 16.4716 17.987 16.471L17.647 16.468L17.54 16.146C17.5331 16.1255 17.5199 16.1078 17.5023 16.0952C17.4847 16.0826 17.4636 16.0759 17.442 16.076Z" fill="#F5F5F5"/>
</g>
<defs>
<clipPath id="clip0">
<rect width="24" height="24" fill="white"/>
</clipPath>
</defs>
</svg>
