<svg width="24" height="24" viewBox="0 0 24 24" fill="none" xmlns="http://www.w3.org/2000/svg">
<path fill-rule="evenodd" clip-rule="evenodd" d="M3.045 3.539H20.956C21.336 3.984 21.628 4.505 21.805 5.077H2.197C2.374 4.505 2.667 3.984 3.045 3.539ZM2 6.616H22V8.154H2V6.616ZM22 9.693H2V11.231H22V9.693ZM2 12.769H22V14.307H2V12.77V12.769ZM22 15.847H2V17.385H22V15.847ZM2.197 18.924H21.805C21.6291 19.4889 21.3403 20.0121 20.956 20.462H3.046C2.66138 20.0122 2.37219 19.489 2.196 18.924H2.197Z" fill="#F5F5F5"/>
<path fill-rule="evenodd" clip-rule="evenodd" d="M17.625 2H6.375C5.7416 1.9994 5.11565 2.13666 4.54061 2.40225C3.96557 2.66783 3.45523 3.05539 3.045 3.538H20.955C20.5448 3.05539 20.0344 2.66783 19.4594 2.40225C18.8844 2.13666 18.2584 1.9994 17.625 2ZM22 8.154H2V9.692H22V8.154ZM21.804 5.077C21.931 5.487 22 5.923 22 6.375V6.615H2V6.375C2 5.923 2.069 5.488 2.196 5.077H21.804ZM22 11.231H2V12.769H22V11.23V11.231ZM22 17.385V17.625C22 18.077 21.931 18.513 21.804 18.923H2.196C2.06573 18.5027 1.99965 18.0651 2 17.625V17.385H22ZM20.955 20.461H3.045C3.45502 20.9437 3.96517 21.3313 4.54003 21.5971C5.11488 21.8629 5.74069 22.0003 6.374 22H17.624C18.2575 22.0005 18.8835 21.8631 19.4585 21.5973C20.0336 21.3315 20.5439 20.9438 20.954 20.461H20.955ZM2 14.308H22V15.846H2V14.308Z" fill="#FA4051"/>
<path d="M12.666 2H6.333C3.94 2 2 3.959 2 6.375V12.769H12.666V2Z" fill="#1939C9"/>
<path fill-rule="evenodd" clip-rule="evenodd" d="M5.48398 2.962L5.56698 3.211L5.82898 3.213C5.86298 3.213 5.87698 3.256 5.84898 3.277L5.63898 3.432L5.71798 3.682C5.72096 3.68925 5.72142 3.69729 5.71928 3.70483C5.71714 3.71238 5.71253 3.71898 5.70619 3.7236C5.69985 3.72821 5.69214 3.73056 5.68431 3.73027C5.67647 3.72998 5.66896 3.72706 5.66298 3.722L5.44998 3.569L5.23698 3.722C5.231 3.72706 5.22349 3.72998 5.21565 3.73027C5.20782 3.73056 5.20011 3.72821 5.19377 3.7236C5.18743 3.71898 5.18282 3.71238 5.18068 3.70483C5.17855 3.69729 5.179 3.68925 5.18198 3.682L5.26198 3.432L5.05098 3.277C5.04474 3.27278 5.04003 3.26667 5.03754 3.25956C5.03505 3.25246 5.03492 3.24474 5.03717 3.23755C5.03941 3.23037 5.04391 3.2241 5.05001 3.21967C5.0561 3.21525 5.06345 3.21291 5.07098 3.213L5.33298 3.211L5.41598 2.962C5.41784 2.95438 5.4222 2.94761 5.42837 2.94277C5.43453 2.93793 5.44214 2.9353 5.44998 2.9353C5.45782 2.9353 5.46543 2.93793 5.47159 2.94277C5.47776 2.94761 5.48212 2.95438 5.48398 2.962ZM3.15998 3.682C3.14998 3.715 3.18598 3.742 3.21398 3.722L3.42698 3.57L3.64098 3.722C3.64701 3.72658 3.65437 3.72908 3.66194 3.72912C3.66951 3.72917 3.6769 3.72676 3.68298 3.72225C3.68907 3.71774 3.69353 3.71138 3.69569 3.70412C3.69785 3.69686 3.6976 3.6891 3.69498 3.682L3.61498 3.432L3.82698 3.277C3.83322 3.27278 3.83793 3.26667 3.84042 3.25956C3.84291 3.25246 3.84304 3.24474 3.8408 3.23755C3.83855 3.23037 3.83405 3.2241 3.82796 3.21967C3.82186 3.21525 3.81451 3.21291 3.80698 3.213L3.54398 3.211L3.49898 3.077C3.38698 3.175 3.27898 3.279 3.17798 3.387L3.23798 3.433L3.15998 3.683V3.682ZM3.46098 5.037L3.54398 5.286L3.80598 5.288C3.83998 5.288 3.85498 5.332 3.82698 5.352L3.61698 5.508L3.69498 5.758C3.6976 5.7651 3.69785 5.77286 3.69569 5.78012C3.69353 5.78738 3.68907 5.79374 3.68298 5.79825C3.6769 5.80276 3.66951 5.80517 3.66194 5.80512C3.65437 5.80508 3.64701 5.80258 3.64098 5.798L3.42798 5.645L3.21398 5.797C3.20795 5.80158 3.2006 5.80408 3.19302 5.80412C3.18545 5.80417 3.17807 5.80176 3.17198 5.79725C3.16589 5.79274 3.16143 5.78638 3.15927 5.77912C3.15711 5.77186 3.15736 5.7641 3.15998 5.757L3.23998 5.507L3.02798 5.352C3.02174 5.34778 3.01703 5.34167 3.01454 5.33456C3.01205 5.32746 3.01192 5.31974 3.01417 5.31255C3.01641 5.30537 3.02091 5.2991 3.02701 5.29467C3.0331 5.29025 3.04045 5.28791 3.04798 5.288L3.31098 5.286L3.39398 5.037C3.39616 5.02981 3.40059 5.02351 3.40662 5.01903C3.41265 5.01455 3.41997 5.01213 3.42748 5.01213C3.43499 5.01213 3.44231 5.01455 3.44834 5.01903C3.45437 5.02351 3.4588 5.02981 3.46098 5.037ZM3.54398 7.588L3.46098 7.34C3.4588 7.33281 3.45437 7.32651 3.44834 7.32203C3.44231 7.31755 3.43499 7.31513 3.42748 7.31513C3.41997 7.31513 3.41265 7.31755 3.40662 7.32203C3.40059 7.32651 3.39616 7.33281 3.39398 7.34L3.31098 7.588L3.04898 7.59C3.04145 7.58991 3.0341 7.59225 3.02801 7.59667C3.02191 7.6011 3.01741 7.60737 3.01517 7.61455C3.01292 7.62174 3.01305 7.62946 3.01554 7.63656C3.01803 7.64367 3.02274 7.64978 3.02898 7.654L3.23898 7.81L3.15998 8.06C3.14998 8.092 3.18698 8.12 3.21398 8.1L3.42798 7.947L3.64098 8.099C3.64695 8.10337 3.65415 8.10575 3.66155 8.10577C3.66895 8.1058 3.67617 8.10348 3.68217 8.09915C3.68817 8.09481 3.69265 8.08869 3.69495 8.08166C3.69725 8.07462 3.69726 8.06704 3.69498 8.06L3.61598 7.81L3.82698 7.654C3.83322 7.64978 3.83793 7.64367 3.84042 7.63656C3.84291 7.62946 3.84304 7.62174 3.8408 7.61455C3.83855 7.60737 3.83405 7.6011 3.82796 7.59667C3.82186 7.59225 3.81451 7.58991 3.80698 7.59L3.54398 7.588ZM3.46098 9.455L3.54398 9.704L3.80598 9.706C3.83998 9.706 3.85498 9.749 3.82698 9.77L3.61698 9.925L3.69498 10.175C3.6976 10.1821 3.69785 10.1899 3.69569 10.1971C3.69353 10.2044 3.68907 10.2107 3.68298 10.2152C3.6769 10.2198 3.66951 10.2222 3.66194 10.2221C3.65437 10.2221 3.64701 10.2196 3.64098 10.215L3.42798 10.062L3.21398 10.215C3.20795 10.2196 3.2006 10.2221 3.19302 10.2221C3.18545 10.2222 3.17807 10.2198 3.17198 10.2152C3.16589 10.2107 3.16143 10.2044 3.15927 10.1971C3.15711 10.1899 3.15736 10.1821 3.15998 10.175L3.23998 9.925L3.02798 9.77C3.02174 9.76578 3.01703 9.75967 3.01454 9.75256C3.01205 9.74546 3.01192 9.73774 3.01417 9.73055C3.01641 9.72337 3.02091 9.7171 3.02701 9.71267C3.0331 9.70825 3.04045 9.70591 3.04798 9.706L3.31098 9.704L3.39398 9.455C3.39616 9.44781 3.40059 9.44151 3.40662 9.43703C3.41265 9.43255 3.41997 9.43013 3.42748 9.43013C3.43499 9.43013 3.44231 9.43255 3.44834 9.43703C3.45437 9.44151 3.4588 9.44781 3.46098 9.455ZM3.54398 11.628L3.46098 11.379C3.4588 11.3718 3.45437 11.3655 3.44834 11.361C3.44231 11.3566 3.43499 11.3541 3.42748 11.3541C3.41997 11.3541 3.41265 11.3566 3.40662 11.361C3.40059 11.3655 3.39616 11.3718 3.39398 11.379L3.31098 11.628L3.04898 11.63C3.04145 11.6299 3.0341 11.6322 3.02801 11.6367C3.02191 11.6411 3.01741 11.6474 3.01517 11.6546C3.01292 11.6617 3.01305 11.6695 3.01554 11.6766C3.01803 11.6837 3.02274 11.6898 3.02898 11.694L3.23898 11.85L3.15998 12.1C3.14998 12.132 3.18698 12.159 3.21398 12.14L3.42798 11.987L3.64098 12.139C3.64701 12.1436 3.65437 12.1461 3.66194 12.1461C3.66951 12.1462 3.6769 12.1438 3.68298 12.1392C3.68907 12.1347 3.69353 12.1284 3.69569 12.1211C3.69785 12.1139 3.6976 12.1061 3.69498 12.099L3.61598 11.849L3.82698 11.694C3.83322 11.6898 3.83793 11.6837 3.84042 11.6766C3.84291 11.6695 3.84304 11.6617 3.8408 11.6546C3.83855 11.6474 3.83405 11.6411 3.82796 11.6367C3.82186 11.6322 3.81451 11.6299 3.80698 11.63L3.54398 11.628ZM4.46998 3.945L4.55298 4.194L4.81498 4.196C4.84898 4.196 4.86298 4.239 4.83498 4.259L4.62498 4.415L4.70398 4.665C4.7066 4.6721 4.70685 4.67986 4.70469 4.68712C4.70253 4.69438 4.69807 4.70074 4.69198 4.70525C4.6859 4.70976 4.67851 4.71217 4.67094 4.71212C4.66337 4.71208 4.65601 4.70958 4.64998 4.705L4.43598 4.552L4.22298 4.705C4.21695 4.70958 4.2096 4.71208 4.20202 4.71212C4.19445 4.71217 4.18707 4.70976 4.18098 4.70525C4.17489 4.70074 4.17043 4.69438 4.16827 4.68712C4.16611 4.67986 4.16636 4.6721 4.16898 4.665L4.24798 4.415L4.03698 4.259C4.03117 4.25464 4.02685 4.24859 4.02463 4.24167C4.02242 4.23475 4.02241 4.22732 4.0246 4.22039C4.0268 4.21347 4.0311 4.2074 4.0369 4.20303C4.0427 4.19866 4.04972 4.1962 4.05698 4.196L4.31998 4.194L4.40298 3.944C4.40516 3.93681 4.40959 3.93051 4.41562 3.92603C4.42165 3.92155 4.42897 3.91913 4.43648 3.91913C4.44399 3.91913 4.45131 3.92155 4.45734 3.92603C4.46337 3.93051 4.4678 3.93681 4.46998 3.944V3.945ZM4.55298 6.495L4.46998 6.246C4.4678 6.23881 4.46337 6.23251 4.45734 6.22803C4.45131 6.22355 4.44399 6.22113 4.43648 6.22113C4.42897 6.22113 4.42165 6.22355 4.41562 6.22803C4.40959 6.23251 4.40516 6.23881 4.40298 6.246L4.31998 6.496L4.05798 6.497C4.05037 6.49668 4.04286 6.49886 4.03659 6.5032C4.03033 6.50754 4.02565 6.51381 4.02328 6.52105C4.0209 6.5283 4.02095 6.53612 4.02343 6.54332C4.0259 6.55053 4.03066 6.55674 4.03698 6.561L4.24698 6.717L4.16898 6.967C4.15898 6.999 4.19498 7.027 4.22298 7.007L4.43598 6.854L4.64998 7.006C4.65595 7.01037 4.66315 7.01275 4.67055 7.01277C4.67795 7.0128 4.68517 7.01048 4.69117 7.00615C4.69717 7.00181 4.70165 6.99569 4.70395 6.98866C4.70625 6.98162 4.70626 6.97404 4.70398 6.967L4.62398 6.717L4.83598 6.561C4.84222 6.55678 4.84693 6.55067 4.84942 6.54356C4.85191 6.53646 4.85204 6.52874 4.8498 6.52155C4.84755 6.51437 4.84305 6.5081 4.83696 6.50367C4.83086 6.49925 4.82351 6.49691 4.81598 6.497L4.55298 6.495ZM4.46998 8.434L4.55298 8.682L4.81498 8.684C4.84898 8.684 4.86298 8.728 4.83498 8.748L4.62498 8.904L4.70398 9.154C4.7066 9.1611 4.70685 9.16886 4.70469 9.17612C4.70253 9.18338 4.69807 9.18974 4.69198 9.19425C4.6859 9.19876 4.67851 9.20117 4.67094 9.20112C4.66337 9.20108 4.65601 9.19858 4.64998 9.194L4.43598 9.041L4.22298 9.193C4.21701 9.19737 4.20981 9.19975 4.20241 9.19977C4.19501 9.1998 4.18779 9.19748 4.18179 9.19315C4.17579 9.18881 4.17132 9.18269 4.16901 9.17566C4.16671 9.16862 4.1667 9.16104 4.16898 9.154L4.24798 8.904L4.03698 8.748C4.03074 8.74378 4.02603 8.73767 4.02354 8.73056C4.02105 8.72346 4.02092 8.71574 4.02317 8.70855C4.02541 8.70137 4.02991 8.6951 4.03601 8.69067C4.0421 8.68625 4.04945 8.68391 4.05698 8.684L4.31998 8.682L4.40298 8.434C4.40516 8.42681 4.40959 8.42051 4.41562 8.41603C4.42165 8.41155 4.42897 8.40913 4.43648 8.40913C4.44399 8.40913 4.45131 8.41155 4.45734 8.41603C4.46337 8.42051 4.4678 8.42681 4.46998 8.434ZM4.55298 10.647L4.46998 10.398C4.4678 10.3908 4.46337 10.3845 4.45734 10.38C4.45131 10.3756 4.44399 10.3731 4.43648 10.3731C4.42897 10.3731 4.42165 10.3756 4.41562 10.38C4.40959 10.3845 4.40516 10.3908 4.40298 10.398L4.31998 10.647L4.05798 10.649C4.05037 10.6487 4.04286 10.6509 4.03659 10.6552C4.03033 10.6595 4.02565 10.6658 4.02328 10.6731C4.0209 10.6803 4.02095 10.6881 4.02343 10.6953C4.0259 10.7025 4.03066 10.7087 4.03698 10.713L4.24698 10.868L4.16898 11.118C4.15898 11.151 4.19498 11.178 4.22298 11.158L4.43598 11.006L4.64998 11.158C4.65601 11.1626 4.66337 11.1651 4.67094 11.1651C4.67851 11.1652 4.6859 11.1628 4.69198 11.1582C4.69807 11.1537 4.70253 11.1474 4.70469 11.1401C4.70685 11.1329 4.7066 11.1251 4.70398 11.118L4.62398 10.868L4.83598 10.713C4.84222 10.7088 4.84693 10.7027 4.84942 10.6956C4.85191 10.6885 4.85204 10.6807 4.8498 10.6736C4.84755 10.6664 4.84305 10.6601 4.83696 10.6557C4.83086 10.6512 4.82351 10.6489 4.81598 10.649L4.55298 10.647ZM5.56698 5.286L5.48398 5.037C5.48212 5.02938 5.47776 5.02261 5.47159 5.01777C5.46543 5.01293 5.45782 5.0103 5.44998 5.0103C5.44214 5.0103 5.43453 5.01293 5.42837 5.01777C5.4222 5.02261 5.41784 5.02938 5.41598 5.037L5.33298 5.286L5.07098 5.288C5.06345 5.28791 5.0561 5.29025 5.05001 5.29467C5.04391 5.2991 5.03941 5.30537 5.03717 5.31255C5.03492 5.31974 5.03505 5.32746 5.03754 5.33456C5.04003 5.34167 5.04474 5.34778 5.05098 5.352L5.26098 5.508L5.18198 5.758C5.17198 5.79 5.20898 5.817 5.23698 5.798L5.44998 5.645L5.66298 5.797C5.66896 5.80206 5.67647 5.80498 5.68431 5.80527C5.69214 5.80556 5.69985 5.80321 5.70619 5.7986C5.71253 5.79398 5.71714 5.78738 5.71928 5.77983C5.72142 5.77229 5.72096 5.76425 5.71798 5.757L5.63798 5.507L5.84998 5.352C5.8563 5.34774 5.86106 5.34153 5.86353 5.33432C5.86601 5.32712 5.86606 5.3193 5.86368 5.31205C5.86131 5.30481 5.85663 5.29854 5.85037 5.2942C5.84411 5.28986 5.8366 5.28768 5.82898 5.288L5.56698 5.286ZM5.48398 7.34L5.56698 7.588L5.82898 7.59C5.86298 7.59 5.87698 7.634 5.84898 7.654L5.63898 7.81L5.71798 8.06C5.72096 8.06725 5.72142 8.07529 5.71928 8.08283C5.71714 8.09038 5.71253 8.09698 5.70619 8.1016C5.69985 8.10621 5.69214 8.10856 5.68431 8.10827C5.67647 8.10798 5.66896 8.10506 5.66298 8.1L5.44998 7.947L5.23698 8.099C5.23105 8.10381 5.2237 8.10656 5.21606 8.1068C5.20842 8.10705 5.20091 8.10479 5.19468 8.10037C5.18844 8.09595 5.18383 8.08961 5.18153 8.08232C5.17924 8.07503 5.1794 8.06719 5.18198 8.06L5.26198 7.81L5.05098 7.654C5.04474 7.64978 5.04003 7.64367 5.03754 7.63656C5.03505 7.62946 5.03492 7.62174 5.03717 7.61455C5.03941 7.60737 5.04391 7.6011 5.05001 7.59667C5.0561 7.59225 5.06345 7.58991 5.07098 7.59L5.33298 7.588L5.41598 7.34C5.41784 7.33238 5.4222 7.32561 5.42837 7.32077C5.43453 7.31593 5.44214 7.3133 5.44998 7.3133C5.45782 7.3133 5.46543 7.31593 5.47159 7.32077C5.47776 7.32561 5.48212 7.33238 5.48398 7.34ZM5.56698 9.704L5.48398 9.455C5.48212 9.44738 5.47776 9.44061 5.47159 9.43577C5.46543 9.43093 5.45782 9.4283 5.44998 9.4283C5.44214 9.4283 5.43453 9.43093 5.42837 9.43577C5.4222 9.44061 5.41784 9.44738 5.41598 9.455L5.33298 9.704L5.07098 9.706C5.06345 9.70591 5.0561 9.70825 5.05001 9.71267C5.04391 9.7171 5.03941 9.72337 5.03717 9.73055C5.03492 9.73774 5.03505 9.74546 5.03754 9.75256C5.04003 9.75967 5.04474 9.76578 5.05098 9.77L5.26098 9.925L5.18198 10.175C5.17198 10.208 5.20898 10.235 5.23698 10.215L5.44998 10.062L5.66298 10.215C5.66896 10.2201 5.67647 10.223 5.68431 10.2233C5.69214 10.2236 5.69985 10.2212 5.70619 10.2166C5.71253 10.212 5.71714 10.2054 5.71928 10.1978C5.72142 10.1903 5.72096 10.1822 5.71798 10.175L5.63798 9.925L5.84998 9.77C5.8563 9.76574 5.86106 9.75953 5.86353 9.75233C5.86601 9.74512 5.86606 9.7373 5.86368 9.73005C5.86131 9.72281 5.85663 9.71654 5.85037 9.7122C5.84411 9.70786 5.8366 9.70568 5.82898 9.706L5.56698 9.704ZM5.48398 11.379L5.56698 11.628L5.82898 11.63C5.86298 11.63 5.87698 11.674 5.84898 11.694L5.63898 11.85L5.71798 12.1C5.72096 12.1072 5.72142 12.1153 5.71928 12.1228C5.71714 12.1304 5.71253 12.137 5.70619 12.1416C5.69985 12.1462 5.69214 12.1486 5.68431 12.1483C5.67647 12.148 5.66896 12.1451 5.66298 12.14L5.44998 11.987L5.23698 12.139C5.231 12.1441 5.22349 12.147 5.21565 12.1473C5.20782 12.1476 5.20011 12.1452 5.19377 12.1406C5.18743 12.136 5.18282 12.1294 5.18068 12.1218C5.17855 12.1143 5.179 12.1062 5.18198 12.099L5.26198 11.849L5.05098 11.694C5.04474 11.6898 5.04003 11.6837 5.03754 11.6766C5.03505 11.6695 5.03492 11.6617 5.03717 11.6546C5.03941 11.6474 5.04391 11.6411 5.05001 11.6367C5.0561 11.6322 5.06345 11.6299 5.07098 11.63L5.33298 11.628L5.41598 11.379C5.41784 11.3714 5.4222 11.3646 5.42837 11.3598C5.43453 11.3549 5.44214 11.3523 5.44998 11.3523C5.45782 11.3523 5.46543 11.3549 5.47159 11.3598C5.47776 11.3646 5.48212 11.3714 5.48398 11.379ZM6.57398 4.194L6.49098 3.944C6.48881 3.93681 6.48437 3.93051 6.47834 3.92603C6.47231 3.92155 6.46499 3.91913 6.45748 3.91913C6.44997 3.91913 6.44265 3.92155 6.43662 3.92603C6.43059 3.93051 6.42616 3.93681 6.42398 3.944L6.34098 4.194L6.07798 4.196C6.07072 4.1962 6.0637 4.19866 6.0579 4.20303C6.0521 4.2074 6.0478 4.21347 6.0456 4.22039C6.04341 4.22732 6.04342 4.23475 6.04563 4.24167C6.04785 4.24859 6.05217 4.25464 6.05798 4.259L6.26798 4.415L6.18998 4.665C6.17998 4.698 6.21598 4.725 6.24398 4.705L6.45698 4.552L6.67098 4.705C6.67701 4.70958 6.68437 4.71208 6.69194 4.71212C6.69951 4.71217 6.7069 4.70976 6.71298 4.70525C6.71907 4.70074 6.72353 4.69438 6.72569 4.68712C6.72785 4.67986 6.7276 4.6721 6.72498 4.665L6.64498 4.415L6.85698 4.259C6.86286 4.25459 6.8672 4.24844 6.86939 4.24143C6.87158 4.23442 6.87151 4.2269 6.86918 4.21993C6.86686 4.21296 6.8624 4.2069 6.85645 4.2026C6.85049 4.19831 6.84333 4.196 6.83598 4.196L6.57398 4.194ZM6.48998 6.246L6.57298 6.496L6.83498 6.497C6.86898 6.497 6.88298 6.541 6.85498 6.561L6.64498 6.717L6.72398 6.967C6.7266 6.9741 6.72685 6.98186 6.72469 6.98912C6.72253 6.99638 6.71807 7.00274 6.71198 7.00725C6.7059 7.01176 6.69851 7.01417 6.69094 7.01412C6.68337 7.01408 6.67601 7.01158 6.66998 7.007L6.45598 6.854L6.24298 7.006C6.23701 7.01037 6.22981 7.01275 6.22241 7.01277C6.21501 7.0128 6.20779 7.01048 6.20179 7.00615C6.19579 7.00181 6.19132 6.99569 6.18901 6.98866C6.18671 6.98162 6.1867 6.97404 6.18898 6.967L6.26798 6.717L6.05698 6.561C6.05074 6.55678 6.04603 6.55067 6.04354 6.54356C6.04105 6.53646 6.04092 6.52874 6.04317 6.52155C6.04541 6.51437 6.04991 6.5081 6.05601 6.50367C6.0621 6.49925 6.06945 6.49691 6.07698 6.497L6.33998 6.495L6.42298 6.246C6.42516 6.23881 6.42959 6.23251 6.43562 6.22803C6.44165 6.22355 6.44897 6.22113 6.45648 6.22113C6.46399 6.22113 6.47131 6.22355 6.47734 6.22803C6.48337 6.23251 6.4878 6.23881 6.48998 6.246ZM6.57298 8.682L6.48998 8.434C6.4878 8.42681 6.48337 8.42051 6.47734 8.41603C6.47131 8.41155 6.46399 8.40913 6.45648 8.40913C6.44897 8.40913 6.44165 8.41155 6.43562 8.41603C6.42959 8.42051 6.42516 8.42681 6.42298 8.434L6.33998 8.682L6.07698 8.684C6.06945 8.68391 6.0621 8.68625 6.05601 8.69067C6.04991 8.6951 6.04541 8.70137 6.04317 8.70855C6.04092 8.71574 6.04105 8.72346 6.04354 8.73056C6.04603 8.73767 6.05074 8.74378 6.05698 8.748L6.26698 8.904L6.18898 9.154C6.17898 9.186 6.21498 9.214 6.24298 9.194L6.45598 9.041L6.66998 9.193C6.67595 9.19737 6.68315 9.19975 6.69055 9.19977C6.69795 9.1998 6.70517 9.19748 6.71117 9.19315C6.71717 9.18881 6.72165 9.18269 6.72395 9.17566C6.72625 9.16862 6.72626 9.16104 6.72398 9.154L6.64398 8.904L6.85598 8.748C6.8623 8.74374 6.86706 8.73753 6.86953 8.73032C6.87201 8.72312 6.87206 8.7153 6.86968 8.70805C6.86731 8.70081 6.86263 8.69454 6.85637 8.6902C6.85011 8.68586 6.8426 8.68368 6.83498 8.684L6.57298 8.682ZM6.48998 10.398L6.57298 10.647L6.83498 10.649C6.86898 10.649 6.88298 10.693 6.85498 10.713L6.64498 10.868L6.72398 11.118C6.7266 11.1251 6.72685 11.1329 6.72469 11.1401C6.72253 11.1474 6.71807 11.1537 6.71198 11.1582C6.7059 11.1628 6.69851 11.1652 6.69094 11.1651C6.68337 11.1651 6.67601 11.1626 6.66998 11.158L6.45598 11.006L6.24298 11.158C6.23695 11.1626 6.2296 11.1651 6.22202 11.1651C6.21445 11.1652 6.20707 11.1628 6.20098 11.1582C6.19489 11.1537 6.19043 11.1474 6.18827 11.1401C6.18611 11.1329 6.18636 11.1251 6.18898 11.118L6.26798 10.868L6.05698 10.713C6.05074 10.7088 6.04603 10.7027 6.04354 10.6956C6.04105 10.6885 6.04092 10.6807 6.04317 10.6736C6.04541 10.6664 6.04991 10.6601 6.05601 10.6557C6.0621 10.6512 6.06945 10.6489 6.07698 10.649L6.33998 10.647L6.42298 10.398C6.42516 10.3908 6.42959 10.3845 6.43562 10.38C6.44165 10.3756 6.44897 10.3731 6.45648 10.3731C6.46399 10.3731 6.47131 10.3756 6.47734 10.38C6.48337 10.3845 6.4878 10.3908 6.48998 10.398ZM7.58598 3.211L7.50298 2.962C7.5008 2.95481 7.49637 2.94851 7.49034 2.94403C7.48431 2.93955 7.47699 2.93713 7.46948 2.93713C7.46197 2.93713 7.45465 2.93955 7.44862 2.94403C7.44259 2.94851 7.43816 2.95481 7.43598 2.962L7.35298 3.211L7.09098 3.213C7.08345 3.21291 7.0761 3.21525 7.07001 3.21967C7.06391 3.2241 7.05941 3.23037 7.05717 3.23755C7.05492 3.24474 7.05505 3.25246 7.05754 3.25956C7.06003 3.26667 7.06474 3.27278 7.07098 3.277L7.28098 3.432L7.20198 3.682C7.19198 3.715 7.22898 3.742 7.25598 3.722L7.46998 3.569L7.68298 3.722C7.68901 3.72658 7.69637 3.72908 7.70394 3.72912C7.71151 3.72917 7.7189 3.72676 7.72498 3.72225C7.73107 3.71774 7.73553 3.71138 7.73769 3.70412C7.73985 3.69686 7.7396 3.6891 7.73698 3.682L7.65798 3.432L7.86898 3.277C7.87522 3.27278 7.87993 3.26667 7.88242 3.25956C7.88491 3.25246 7.88504 3.24474 7.8828 3.23755C7.88055 3.23037 7.87605 3.2241 7.86996 3.21967C7.86386 3.21525 7.85651 3.21291 7.84898 3.213L7.58598 3.211ZM7.50298 5.037L7.58598 5.286L7.84898 5.288C7.88298 5.288 7.89698 5.332 7.86898 5.352L7.65898 5.508L7.73698 5.758C7.7396 5.7651 7.73985 5.77286 7.73769 5.78012C7.73553 5.78738 7.73107 5.79374 7.72498 5.79825C7.7189 5.80276 7.71151 5.80517 7.70394 5.80512C7.69637 5.80508 7.68901 5.80258 7.68298 5.798L7.46998 5.645L7.25598 5.797C7.24995 5.80158 7.2426 5.80408 7.23502 5.80412C7.22745 5.80417 7.22007 5.80176 7.21398 5.79725C7.20789 5.79274 7.20343 5.78638 7.20127 5.77912C7.19911 5.77186 7.19936 5.7641 7.20198 5.757L7.28198 5.507L7.06998 5.352C7.06366 5.34774 7.0589 5.34153 7.05643 5.33432C7.05395 5.32712 7.0539 5.3193 7.05628 5.31205C7.05865 5.30481 7.06333 5.29854 7.06959 5.2942C7.07586 5.28986 7.08337 5.28768 7.09098 5.288L7.35298 5.286L7.43598 5.037C7.43816 5.02981 7.44259 5.02351 7.44862 5.01903C7.45465 5.01455 7.46197 5.01213 7.46948 5.01213C7.47699 5.01213 7.48431 5.01455 7.49034 5.01903C7.49637 5.02351 7.5008 5.02981 7.50298 5.037ZM7.58598 7.588L7.50298 7.34C7.5008 7.33281 7.49637 7.32651 7.49034 7.32203C7.48431 7.31755 7.47699 7.31513 7.46948 7.31513C7.46197 7.31513 7.45465 7.31755 7.44862 7.32203C7.44259 7.32651 7.43816 7.33281 7.43598 7.34L7.35298 7.588L7.09098 7.59C7.08345 7.58991 7.0761 7.59225 7.07001 7.59667C7.06391 7.6011 7.05941 7.60737 7.05717 7.61455C7.05492 7.62174 7.05505 7.62946 7.05754 7.63656C7.06003 7.64367 7.06474 7.64978 7.07098 7.654L7.28098 7.81L7.20198 8.06C7.19198 8.092 7.22898 8.12 7.25598 8.1L7.46998 7.947L7.68298 8.099C7.68895 8.10337 7.69615 8.10575 7.70355 8.10577C7.71095 8.1058 7.71817 8.10348 7.72417 8.09915C7.73017 8.09481 7.73465 8.08869 7.73695 8.08166C7.73925 8.07462 7.73926 8.06704 7.73698 8.06L7.65798 7.81L7.86898 7.654C7.87522 7.64978 7.87993 7.64367 7.88242 7.63656C7.88491 7.62946 7.88504 7.62174 7.8828 7.61455C7.88055 7.60737 7.87605 7.6011 7.86996 7.59667C7.86386 7.59225 7.85651 7.58991 7.84898 7.59L7.58598 7.588ZM7.50298 9.455L7.58598 9.704L7.84898 9.706C7.88298 9.706 7.89698 9.749 7.86898 9.77L7.65898 9.925L7.73698 10.175C7.7396 10.1821 7.73985 10.1899 7.73769 10.1971C7.73553 10.2044 7.73107 10.2107 7.72498 10.2152C7.7189 10.2198 7.71151 10.2222 7.70394 10.2221C7.69637 10.2221 7.68901 10.2196 7.68298 10.215L7.46998 10.062L7.25598 10.215C7.24995 10.2196 7.2426 10.2221 7.23502 10.2221C7.22745 10.2222 7.22007 10.2198 7.21398 10.2152C7.20789 10.2107 7.20343 10.2044 7.20127 10.1971C7.19911 10.1899 7.19936 10.1821 7.20198 10.175L7.28198 9.925L7.06998 9.77C7.06366 9.76574 7.0589 9.75953 7.05643 9.75233C7.05395 9.74512 7.0539 9.7373 7.05628 9.73005C7.05865 9.72281 7.06333 9.71654 7.06959 9.7122C7.07586 9.70786 7.08337 9.70568 7.09098 9.706L7.35298 9.704L7.43598 9.455C7.43816 9.44781 7.44259 9.44151 7.44862 9.43703C7.45465 9.43255 7.46197 9.43013 7.46948 9.43013C7.47699 9.43013 7.48431 9.43255 7.49034 9.43703C7.49637 9.44151 7.5008 9.44781 7.50298 9.455ZM7.58598 11.628L7.50298 11.379C7.5008 11.3718 7.49637 11.3655 7.49034 11.361C7.48431 11.3566 7.47699 11.3541 7.46948 11.3541C7.46197 11.3541 7.45465 11.3566 7.44862 11.361C7.44259 11.3655 7.43816 11.3718 7.43598 11.379L7.35298 11.628L7.09098 11.63C7.08345 11.6299 7.0761 11.6322 7.07001 11.6367C7.06391 11.6411 7.05941 11.6474 7.05717 11.6546C7.05492 11.6617 7.05505 11.6695 7.05754 11.6766C7.06003 11.6837 7.06474 11.6898 7.07098 11.694L7.28098 11.85L7.20198 12.1C7.19198 12.132 7.22898 12.159 7.25598 12.14L7.46998 11.987L7.68298 12.139C7.68901 12.1436 7.69637 12.1461 7.70394 12.1461C7.71151 12.1462 7.7189 12.1438 7.72498 12.1392C7.73107 12.1347 7.73553 12.1284 7.73769 12.1211C7.73985 12.1139 7.7396 12.1061 7.73698 12.099L7.65798 11.849L7.86898 11.694C7.87522 11.6898 7.87993 11.6837 7.88242 11.6766C7.88491 11.6695 7.88504 11.6617 7.8828 11.6546C7.88055 11.6474 7.87605 11.6411 7.86996 11.6367C7.86386 11.6322 7.85651 11.6299 7.84898 11.63L7.58598 11.628ZM8.51198 3.945L8.59498 4.194L8.85698 4.196C8.89098 4.196 8.90598 4.239 8.87798 4.259L8.66798 4.415L8.74598 4.665C8.74861 4.6721 8.74885 4.67986 8.74669 4.68712C8.74453 4.69438 8.74007 4.70074 8.73398 4.70525C8.7279 4.70976 8.72051 4.71217 8.71294 4.71212C8.70537 4.71208 8.69801 4.70958 8.69198 4.705L8.47898 4.552L8.26498 4.705C8.25895 4.70958 8.2516 4.71208 8.24402 4.71212C8.23645 4.71217 8.22906 4.70976 8.22298 4.70525C8.21689 4.70074 8.21244 4.69438 8.21027 4.68712C8.20811 4.67986 8.20836 4.6721 8.21098 4.665L8.29098 4.415L8.07898 4.259C8.07317 4.25464 8.06885 4.24859 8.06663 4.24167C8.06442 4.23475 8.06441 4.22732 8.0666 4.22039C8.0688 4.21347 8.0731 4.2074 8.0789 4.20303C8.0847 4.19866 8.09172 4.1962 8.09898 4.196L8.36198 4.194L8.44498 3.944C8.44716 3.93681 8.45159 3.93051 8.45762 3.92603C8.46365 3.92155 8.47097 3.91913 8.47848 3.91913C8.48599 3.91913 8.49331 3.92155 8.49934 3.92603C8.50537 3.93051 8.50981 3.93681 8.51198 3.944V3.945ZM8.59498 6.495L8.51198 6.246C8.50981 6.23881 8.50537 6.23251 8.49934 6.22803C8.49331 6.22355 8.48599 6.22113 8.47848 6.22113C8.47097 6.22113 8.46365 6.22355 8.45762 6.22803C8.45159 6.23251 8.44716 6.23881 8.44498 6.246L8.36198 6.496L8.09998 6.497C8.09245 6.49691 8.0851 6.49925 8.07901 6.50367C8.07291 6.5081 8.06841 6.51437 8.06617 6.52155C8.06392 6.52874 8.06405 6.53646 8.06654 6.54356C8.06903 6.55067 8.07374 6.55678 8.07998 6.561L8.28998 6.717L8.21098 6.967C8.20098 6.999 8.23798 7.027 8.26498 7.007L8.47898 6.854L8.69198 7.006C8.69795 7.01037 8.70515 7.01275 8.71255 7.01277C8.71995 7.0128 8.72717 7.01048 8.73317 7.00615C8.73917 7.00181 8.74365 6.99569 8.74595 6.98866C8.74825 6.98162 8.74826 6.97404 8.74598 6.967L8.66698 6.717L8.87798 6.561C8.88422 6.55678 8.88893 6.55067 8.89142 6.54356C8.89391 6.53646 8.89404 6.52874 8.8918 6.52155C8.88955 6.51437 8.88505 6.5081 8.87896 6.50367C8.87286 6.49925 8.86551 6.49691 8.85798 6.497L8.59498 6.495ZM8.51198 8.434L8.59498 8.682L8.85698 8.684C8.89098 8.684 8.90598 8.728 8.87798 8.748L8.66798 8.904L8.74598 9.154C8.74861 9.1611 8.74885 9.16886 8.74669 9.17612C8.74453 9.18338 8.74007 9.18974 8.73398 9.19425C8.7279 9.19876 8.72051 9.20117 8.71294 9.20112C8.70537 9.20108 8.69801 9.19858 8.69198 9.194L8.47998 9.04L8.26598 9.192C8.26001 9.19637 8.25281 9.19875 8.24541 9.19877C8.23801 9.1988 8.23079 9.19648 8.22479 9.19215C8.21879 9.18781 8.21432 9.18169 8.21201 9.17466C8.20971 9.16762 8.2097 9.16004 8.21198 9.153L8.29198 8.903L8.07998 8.747C8.07374 8.74278 8.06903 8.73667 8.06654 8.72956C8.06405 8.72246 8.06392 8.71474 8.06617 8.70755C8.06841 8.70037 8.07291 8.6941 8.07901 8.68967C8.0851 8.68525 8.09245 8.68291 8.09998 8.683L8.36298 8.681L8.44598 8.433C8.45698 8.4 8.50198 8.4 8.51298 8.433L8.51198 8.434ZM8.59498 10.647L8.51198 10.398C8.50981 10.3908 8.50537 10.3845 8.49934 10.38C8.49331 10.3756 8.48599 10.3731 8.47848 10.3731C8.47097 10.3731 8.46365 10.3756 8.45762 10.38C8.45159 10.3845 8.44716 10.3908 8.44498 10.398L8.36198 10.647L8.09998 10.649C8.09245 10.6489 8.0851 10.6512 8.07901 10.6557C8.07291 10.6601 8.06841 10.6664 8.06617 10.6736C8.06392 10.6807 8.06405 10.6885 8.06654 10.6956C8.06903 10.7027 8.07374 10.7088 8.07998 10.713L8.28998 10.868L8.21098 11.118C8.20098 11.151 8.23798 11.178 8.26498 11.158L8.47898 11.006L8.69198 11.158C8.69801 11.1626 8.70537 11.1651 8.71294 11.1651C8.72051 11.1652 8.7279 11.1628 8.73398 11.1582C8.74007 11.1537 8.74453 11.1474 8.74669 11.1401C8.74885 11.1329 8.74861 11.1251 8.74598 11.118L8.66698 10.868L8.87798 10.713C8.88422 10.7088 8.88893 10.7027 8.89142 10.6956C8.89391 10.6885 8.89404 10.6807 8.8918 10.6736C8.88955 10.6664 8.88505 10.6601 8.87896 10.6557C8.87286 10.6512 8.86551 10.6489 8.85798 10.649L8.59498 10.647ZM9.52298 2.962L9.60598 3.211L9.86798 3.213C9.90198 3.213 9.91598 3.256 9.88798 3.277L9.67798 3.432L9.75698 3.682C9.75996 3.68925 9.76042 3.69729 9.75828 3.70483C9.75614 3.71238 9.75153 3.71898 9.74519 3.7236C9.73885 3.72821 9.73114 3.73056 9.72331 3.73027C9.71547 3.72998 9.70796 3.72706 9.70198 3.722L9.48898 3.569L9.27598 3.722C9.27 3.72706 9.26249 3.72998 9.25465 3.73027C9.24682 3.73056 9.23911 3.72821 9.23277 3.7236C9.22643 3.71898 9.22182 3.71238 9.21968 3.70483C9.21755 3.69729 9.218 3.68925 9.22098 3.682L9.30098 3.432L9.08898 3.277C9.08266 3.27274 9.0779 3.26653 9.07543 3.25932C9.07295 3.25212 9.0729 3.2443 9.07528 3.23705C9.07765 3.22981 9.08233 3.22354 9.08859 3.2192C9.09486 3.21486 9.10237 3.21268 9.10998 3.213L9.37198 3.211L9.45498 2.962C9.46598 2.93 9.51198 2.93 9.52298 2.962ZM9.60598 5.286L9.52298 5.037C9.51198 5.005 9.46598 5.005 9.45498 5.037L9.37198 5.286L9.10998 5.288C9.10245 5.28791 9.0951 5.29025 9.08901 5.29467C9.08291 5.2991 9.07841 5.30537 9.07617 5.31255C9.07392 5.31974 9.07405 5.32746 9.07654 5.33456C9.07903 5.34167 9.08374 5.34778 9.08998 5.352L9.29998 5.508L9.22098 5.758C9.21098 5.79 9.24798 5.817 9.27598 5.798L9.48898 5.645L9.70198 5.797C9.70796 5.80206 9.71547 5.80498 9.72331 5.80527C9.73114 5.80556 9.73885 5.80321 9.74519 5.7986C9.75153 5.79398 9.75614 5.78738 9.75828 5.77983C9.76042 5.77229 9.75996 5.76425 9.75698 5.757L9.67698 5.507L9.88898 5.352C9.8953 5.34774 9.90006 5.34153 9.90254 5.33432C9.90501 5.32712 9.90506 5.3193 9.90269 5.31205C9.90031 5.30481 9.89563 5.29854 9.88937 5.2942C9.88311 5.28986 9.8756 5.28768 9.86798 5.288L9.60598 5.286ZM9.52398 7.34L9.60698 7.588L9.86898 7.59C9.90298 7.59 9.91698 7.634 9.88898 7.654L9.67898 7.81L9.75798 8.06C9.76096 8.06725 9.76142 8.07529 9.75928 8.08283C9.75714 8.09038 9.75253 8.09698 9.74619 8.1016C9.73985 8.10621 9.73214 8.10856 9.72431 8.10827C9.71647 8.10798 9.70896 8.10506 9.70298 8.1L9.48998 7.947L9.27698 8.099C9.27105 8.10381 9.2637 8.10656 9.25606 8.1068C9.24842 8.10705 9.24091 8.10479 9.23468 8.10037C9.22844 8.09595 9.22383 8.08961 9.22153 8.08232C9.21924 8.07503 9.2194 8.06719 9.22198 8.06L9.30198 7.81L9.08998 7.654C9.08366 7.64974 9.0789 7.64353 9.07643 7.63632C9.07395 7.62912 9.0739 7.6213 9.07628 7.61405C9.07865 7.60681 9.08333 7.60054 9.08959 7.5962C9.09586 7.59186 9.10337 7.58968 9.11098 7.59L9.37298 7.588L9.45598 7.34C9.46698 7.307 9.51298 7.307 9.52398 7.34ZM9.60698 9.704L9.52398 9.455C9.51298 9.423 9.46698 9.423 9.45598 9.455L9.37298 9.704L9.11098 9.706C9.10345 9.70591 9.0961 9.70825 9.09001 9.71267C9.08391 9.7171 9.07941 9.72337 9.07717 9.73055C9.07492 9.73774 9.07505 9.74546 9.07754 9.75256C9.08003 9.75967 9.08474 9.76578 9.09098 9.77L9.30098 9.925L9.22198 10.175C9.21198 10.208 9.24898 10.235 9.27698 10.215L9.48998 10.062L9.70298 10.215C9.70896 10.2201 9.71647 10.223 9.72431 10.2233C9.73214 10.2236 9.73985 10.2212 9.74619 10.2166C9.75253 10.212 9.75714 10.2054 9.75928 10.1978C9.76142 10.1903 9.76096 10.1822 9.75798 10.175L9.67798 9.925L9.88998 9.77C9.8963 9.76574 9.90106 9.75953 9.90353 9.75233C9.90601 9.74512 9.90606 9.7373 9.90368 9.73005C9.90131 9.72281 9.89663 9.71654 9.89037 9.7122C9.88411 9.70786 9.8766 9.70568 9.86898 9.706L9.60698 9.704ZM9.52398 11.379L9.60698 11.628L9.86898 11.63C9.90298 11.63 9.91698 11.674 9.88898 11.694L9.67898 11.85L9.75798 12.1C9.76096 12.1072 9.76142 12.1153 9.75928 12.1228C9.75714 12.1304 9.75253 12.137 9.74619 12.1416C9.73985 12.1462 9.73214 12.1486 9.72431 12.1483C9.71647 12.148 9.70896 12.1451 9.70298 12.14L9.48998 11.987L9.27698 12.139C9.271 12.1441 9.26349 12.147 9.25565 12.1473C9.24782 12.1476 9.24011 12.1452 9.23377 12.1406C9.22743 12.136 9.22282 12.1294 9.22068 12.1218C9.21855 12.1143 9.219 12.1062 9.22198 12.099L9.30198 11.849L9.08998 11.694C9.08366 11.6897 9.0789 11.6835 9.07643 11.6763C9.07395 11.6691 9.0739 11.6613 9.07628 11.6541C9.07865 11.6468 9.08333 11.6405 9.08959 11.6362C9.09586 11.6319 9.10337 11.6297 9.11098 11.63L9.37298 11.628L9.45598 11.379C9.45784 11.3714 9.4622 11.3646 9.46837 11.3598C9.47453 11.3549 9.48214 11.3523 9.48998 11.3523C9.49782 11.3523 9.50543 11.3549 9.51159 11.3598C9.51776 11.3646 9.52212 11.3714 9.52398 11.379ZM10.614 4.194L10.531 3.944C10.5288 3.93681 10.5244 3.93051 10.5183 3.92603C10.5123 3.92155 10.505 3.91913 10.4975 3.91913C10.49 3.91913 10.4827 3.92155 10.4766 3.92603C10.4706 3.93051 10.4662 3.93681 10.464 3.944L10.381 4.194L10.119 4.196C10.1117 4.1962 10.1047 4.19866 10.0989 4.20303C10.0931 4.2074 10.0888 4.21347 10.0866 4.22039C10.0844 4.22732 10.0844 4.23475 10.0866 4.24167C10.0889 4.24859 10.0932 4.25464 10.099 4.259L10.309 4.415L10.23 4.665C10.22 4.698 10.257 4.725 10.284 4.705L10.498 4.552L10.711 4.705C10.717 4.70958 10.7244 4.71208 10.7319 4.71212C10.7395 4.71217 10.7469 4.70976 10.753 4.70525C10.7591 4.70074 10.7635 4.69438 10.7657 4.68712C10.7679 4.67986 10.7676 4.6721 10.765 4.665L10.686 4.415L10.897 4.259C10.9028 4.25464 10.9071 4.24859 10.9093 4.24167C10.9115 4.23475 10.9116 4.22732 10.9094 4.22039C10.9072 4.21347 10.9029 4.2074 10.8971 4.20303C10.8913 4.19866 10.8842 4.1962 10.877 4.196L10.614 4.194ZM10.531 6.246L10.614 6.496L10.877 6.497C10.911 6.497 10.925 6.541 10.897 6.561L10.687 6.717L10.766 6.967C10.769 6.97425 10.7694 6.98229 10.7673 6.98983C10.7651 6.99738 10.7605 7.00398 10.7542 7.0086C10.7478 7.01321 10.7401 7.01556 10.7323 7.01527C10.7245 7.01498 10.717 7.01206 10.711 7.007L10.498 6.854L10.285 7.006C10.279 7.01081 10.2717 7.01356 10.2641 7.0138C10.2564 7.01405 10.2489 7.01179 10.2427 7.00737C10.2364 7.00295 10.2318 6.99661 10.2295 6.98932C10.2272 6.98203 10.2274 6.97419 10.23 6.967L10.31 6.717L10.098 6.561C10.0917 6.55674 10.0869 6.55053 10.0844 6.54332C10.082 6.53612 10.0819 6.5283 10.0843 6.52105C10.0867 6.51381 10.0913 6.50754 10.0976 6.5032C10.1039 6.49886 10.1114 6.49668 10.119 6.497L10.381 6.495L10.464 6.246C10.4662 6.23881 10.4706 6.23251 10.4766 6.22803C10.4827 6.22355 10.49 6.22113 10.4975 6.22113C10.505 6.22113 10.5123 6.22355 10.5183 6.22803C10.5244 6.23251 10.5288 6.23881 10.531 6.246ZM10.614 8.682L10.531 8.434C10.521 8.401 10.475 8.401 10.464 8.434L10.381 8.682L10.119 8.684C10.1115 8.68391 10.1041 8.68625 10.098 8.69067C10.0919 8.6951 10.0874 8.70137 10.0852 8.70855C10.0829 8.71574 10.0831 8.72346 10.0855 8.73056C10.088 8.73767 10.0927 8.74378 10.099 8.748L10.309 8.904L10.23 9.154C10.22 9.186 10.257 9.214 10.284 9.194L10.498 9.041L10.711 9.193C10.7169 9.19737 10.7242 9.19975 10.7316 9.19977C10.739 9.1998 10.7462 9.19748 10.7522 9.19315C10.7582 9.18881 10.7626 9.18269 10.7649 9.17566C10.7672 9.16862 10.7673 9.16104 10.765 9.154L10.686 8.904L10.897 8.748C10.9032 8.74378 10.9079 8.73767 10.9104 8.73056C10.9129 8.72346 10.913 8.71574 10.9108 8.70855C10.9085 8.70137 10.904 8.6951 10.898 8.69067C10.8919 8.68625 10.8845 8.68391 10.877 8.684L10.614 8.682ZM10.531 10.398L10.614 10.647L10.877 10.649C10.911 10.649 10.925 10.693 10.897 10.713L10.687 10.868L10.766 11.118C10.769 11.1252 10.7694 11.1333 10.7673 11.1408C10.7651 11.1484 10.7605 11.155 10.7542 11.1596C10.7478 11.1642 10.7401 11.1666 10.7323 11.1663C10.7245 11.166 10.717 11.1631 10.711 11.158L10.498 11.006L10.285 11.158C10.279 11.1631 10.2715 11.166 10.2637 11.1663C10.2558 11.1666 10.2481 11.1642 10.2418 11.1596C10.2354 11.155 10.2308 11.1484 10.2287 11.1408C10.2265 11.1333 10.227 11.1252 10.23 11.118L10.31 10.868L10.098 10.713C10.0917 10.7087 10.0869 10.7025 10.0844 10.6953C10.082 10.6881 10.0819 10.6803 10.0843 10.6731C10.0867 10.6658 10.0913 10.6595 10.0976 10.6552C10.1039 10.6509 10.1114 10.6487 10.119 10.649L10.381 10.647L10.464 10.398C10.4662 10.3908 10.4706 10.3845 10.4766 10.38C10.4827 10.3756 10.49 10.3731 10.4975 10.3731C10.505 10.3731 10.5123 10.3756 10.5183 10.38C10.5244 10.3845 10.5288 10.3908 10.531 10.398ZM11.626 3.211L11.543 2.962C11.533 2.93 11.487 2.93 11.476 2.962L11.393 3.211L11.13 3.213C11.1225 3.21291 11.1151 3.21525 11.109 3.21967C11.1029 3.2241 11.0984 3.23037 11.0962 3.23755C11.0939 3.24474 11.0941 3.25246 11.0965 3.25956C11.099 3.26667 11.1037 3.27278 11.11 3.277L11.32 3.432L11.242 3.682C11.232 3.715 11.268 3.742 11.296 3.722L11.509 3.569L11.723 3.722C11.729 3.72658 11.7364 3.72908 11.7439 3.72912C11.7515 3.72917 11.7589 3.72676 11.765 3.72225C11.7711 3.71774 11.7755 3.71138 11.7777 3.70412C11.7799 3.69686 11.7796 3.6891 11.777 3.682L11.697 3.432L11.909 3.277C11.9152 3.27278 11.9199 3.26667 11.9224 3.25956C11.9249 3.25246 11.925 3.24474 11.9228 3.23755C11.9205 3.23037 11.916 3.2241 11.91 3.21967C11.9039 3.21525 11.8965 3.21291 11.889 3.213L11.626 3.211ZM11.543 5.037L11.626 5.286L11.888 5.288C11.922 5.288 11.936 5.332 11.908 5.352L11.698 5.508L11.777 5.758C11.7796 5.7651 11.7799 5.77286 11.7777 5.78012C11.7755 5.78738 11.7711 5.79374 11.765 5.79825C11.7589 5.80276 11.7515 5.80517 11.7439 5.80512C11.7364 5.80508 11.729 5.80258 11.723 5.798L11.509 5.645L11.296 5.797C11.2899 5.80158 11.2826 5.80408 11.275 5.80412C11.2674 5.80417 11.2601 5.80176 11.254 5.79725C11.2479 5.79274 11.2434 5.78638 11.2413 5.77912C11.2391 5.77186 11.2394 5.7641 11.242 5.757L11.321 5.507L11.11 5.352C11.1037 5.34778 11.099 5.34167 11.0965 5.33456C11.0941 5.32746 11.0939 5.31974 11.0962 5.31255C11.0984 5.30537 11.1029 5.2991 11.109 5.29467C11.1151 5.29025 11.1225 5.28791 11.13 5.288L11.393 5.286L11.476 5.037C11.486 5.005 11.532 5.005 11.543 5.037ZM11.626 7.588L11.543 7.34C11.533 7.307 11.487 7.307 11.476 7.34L11.393 7.588L11.13 7.59C11.1225 7.58991 11.1151 7.59225 11.109 7.59667C11.1029 7.6011 11.0984 7.60737 11.0962 7.61455C11.0939 7.62174 11.0941 7.62946 11.0965 7.63656C11.099 7.64367 11.1037 7.64978 11.11 7.654L11.32 7.81L11.242 8.06C11.232 8.092 11.268 8.12 11.296 8.1L11.509 7.947L11.723 8.099C11.7289 8.10337 11.7362 8.10575 11.7436 8.10577C11.751 8.1058 11.7582 8.10348 11.7642 8.09915C11.7702 8.09481 11.7746 8.08869 11.7769 8.08166C11.7792 8.07462 11.7793 8.06704 11.777 8.06L11.697 7.81L11.909 7.654C11.9152 7.64978 11.9199 7.64367 11.9224 7.63656C11.9249 7.62946 11.925 7.62174 11.9228 7.61455C11.9205 7.60737 11.916 7.6011 11.91 7.59667C11.9039 7.59225 11.8965 7.58991 11.889 7.59L11.626 7.588ZM11.543 9.455L11.626 9.704L11.888 9.706C11.922 9.706 11.936 9.749 11.908 9.77L11.698 9.925L11.777 10.175C11.7796 10.1821 11.7799 10.1899 11.7777 10.1971C11.7755 10.2044 11.7711 10.2107 11.765 10.2152C11.7589 10.2198 11.7515 10.2222 11.7439 10.2221C11.7364 10.2221 11.729 10.2196 11.723 10.215L11.509 10.062L11.296 10.215C11.2899 10.2196 11.2826 10.2221 11.275 10.2221C11.2674 10.2222 11.2601 10.2198 11.254 10.2152C11.2479 10.2107 11.2434 10.2044 11.2413 10.1971C11.2391 10.1899 11.2394 10.1821 11.242 10.175L11.321 9.925L11.11 9.77C11.1037 9.76578 11.099 9.75967 11.0965 9.75256C11.0941 9.74546 11.0939 9.73774 11.0962 9.73055C11.0984 9.72337 11.1029 9.7171 11.109 9.71267C11.1151 9.70825 11.1225 9.70591 11.13 9.706L11.393 9.704L11.476 9.455C11.486 9.423 11.532 9.423 11.543 9.455ZM11.626 11.628L11.543 11.379C11.5408 11.3718 11.5364 11.3655 11.5303 11.361C11.5243 11.3566 11.517 11.3541 11.5095 11.3541C11.502 11.3541 11.4947 11.3566 11.4886 11.361C11.4826 11.3655 11.4782 11.3718 11.476 11.379L11.393 11.628L11.13 11.63C11.1225 11.6299 11.1151 11.6322 11.109 11.6367C11.1029 11.6411 11.0984 11.6474 11.0962 11.6546C11.0939 11.6617 11.0941 11.6695 11.0965 11.6766C11.099 11.6837 11.1037 11.6898 11.11 11.694L11.32 11.85L11.242 12.1C11.232 12.132 11.268 12.159 11.296 12.14L11.509 11.987L11.723 12.139C11.729 12.1436 11.7364 12.1461 11.7439 12.1461C11.7515 12.1462 11.7589 12.1438 11.765 12.1392C11.7711 12.1347 11.7755 12.1284 11.7777 12.1211C11.7799 12.1139 11.7796 12.1061 11.777 12.099L11.697 11.849L11.909 11.694C11.9152 11.6898 11.9199 11.6837 11.9224 11.6766C11.9249 11.6695 11.925 11.6617 11.9228 11.6546C11.9205 11.6474 11.916 11.6411 11.91 11.6367C11.9039 11.6322 11.8965 11.6299 11.889 11.63L11.626 11.628Z" fill="#F5F5F5"/>
</svg>
