<svg width="25" height="24" viewBox="0 0 25 24" fill="none" xmlns="http://www.w3.org/2000/svg">
<path fill-rule="evenodd" clip-rule="evenodd" d="M5.236 2H3.781C2.91082 2 2.07629 2.34568 1.46098 2.96098C0.845676 3.57629 0.5 4.41082 0.5 5.281L0.5 13.72C0.500265 14.59 0.846058 15.4243 1.46134 16.0394C2.07661 16.6545 2.911 17 3.781 17H12.219C13.0892 17 13.9237 16.6543 14.539 16.039C15.1543 15.4237 15.5 14.5892 15.5 13.719V5.28C15.4997 4.41 15.1539 3.57572 14.5387 2.96063C13.9234 2.34554 13.089 2 12.219 2H5.236Z" fill="#2841C1"/>
<path fill-rule="evenodd" clip-rule="evenodd" d="M8 4.763V5.158H4.842V2H5.237V4.396L8 2.586V2.97L5.237 4.763H5.962L8 3.44V4L6.836 4.763H8ZM3.657 2.003C3.52502 2.00776 3.39345 2.02045 3.263 2.041V4.396L1.313 3.119C1.19561 3.25284 1.08926 3.39597 0.995 3.547L2.868 4.763H2.143L0.806 3.895C0.769488 3.97364 0.736129 4.0537 0.706 4.135L1.663 4.763H0.54C0.52 4.893 0.507 5.024 0.502 5.158H3.657V2.003ZM3.657 9.5H3.263V7.104L0.5 8.914V8.524L3.252 6.737H2.527L0.5 8.053V7.499L1.663 6.737H0.5V6.342H3.658V9.5H3.657ZM5.237 9.5H4.842V6.342H8V6.737H6.836L8 7.499V7.859L6.27 6.737H5.546L8 8.33V8.915L5.237 7.105V9.5Z" fill="#F6F6F6"/>
<path fill-rule="evenodd" clip-rule="evenodd" d="M3.658 9.5H4.842V6.342H8V5.158H4.842V2H3.782C3.74 2 3.699 2.001 3.658 2.003V5.158H0.503C0.501251 5.19864 0.500251 5.23932 0.5 5.28L0.5 6.341H3.658V9.5ZM2.528 6.737L0.5 8.053V8.523L3.252 6.737H2.527H2.528ZM7.998 8.33L5.545 6.737H6.27L8 7.859V8.329L7.998 8.33ZM2.867 4.763L0.994 3.547C0.924 3.659 0.861 3.775 0.804 3.895L2.142 4.763H2.867ZM7.999 3.44L5.961 4.763H5.236L8 2.97V3.441L7.999 3.44Z" fill="#FF4B55"/>
<path d="M11.09 14.927C11.0792 14.9268 11.0687 14.9233 11.06 14.917L10.754 14.698L10.448 14.918C10.4391 14.9239 10.4286 14.927 10.4178 14.9268C10.4071 14.9266 10.3967 14.9232 10.388 14.917C10.3789 14.9107 10.3721 14.9017 10.3685 14.8913C10.3649 14.8808 10.3647 14.8695 10.368 14.859L10.482 14.501L10.179 14.278C10.1706 14.2714 10.1644 14.2625 10.1612 14.2523C10.1581 14.2421 10.1582 14.2312 10.1614 14.221C10.1647 14.2108 10.171 14.2019 10.1795 14.1955C10.1881 14.1891 10.1983 14.1854 10.209 14.185L10.586 14.181L10.705 13.824C10.7085 13.8138 10.7151 13.805 10.7239 13.7987C10.7327 13.7924 10.7432 13.789 10.754 13.789C10.776 13.789 10.796 13.803 10.803 13.824L10.922 14.181L11.298 14.184C11.3089 14.1841 11.3195 14.1877 11.3283 14.1942C11.3371 14.2007 11.3436 14.2098 11.3469 14.2202C11.3502 14.2306 11.3502 14.2418 11.3468 14.2521C11.3434 14.2625 11.3368 14.2716 11.328 14.278L11.026 14.501L11.139 14.859C11.1415 14.8668 11.1422 14.875 11.1409 14.8831C11.1396 14.8911 11.1365 14.8988 11.1317 14.9054C11.1269 14.912 11.1207 14.9174 11.1134 14.9212C11.1062 14.9249 11.0982 14.9269 11.09 14.927Z" fill="#FF4B55"/>
<path d="M10.753 13.84L10.883 14.232L11.297 14.235L10.964 14.481L11.089 14.875L10.753 14.635L10.417 14.875L10.541 14.481L10.209 14.235L10.622 14.232L10.752 13.84H10.753ZM10.753 13.737C10.7314 13.7371 10.7104 13.7438 10.6928 13.7564C10.6753 13.7689 10.6621 13.7866 10.655 13.807L10.547 14.129L10.208 14.132C10.1861 14.1319 10.1648 14.1388 10.1471 14.1517C10.1294 14.1645 10.1162 14.1827 10.1095 14.2035C10.1029 14.2244 10.103 14.2468 10.1099 14.2676C10.1168 14.2883 10.1302 14.3063 10.148 14.319L10.42 14.52L10.318 14.844C10.3112 14.8647 10.3112 14.8871 10.3179 14.9079C10.3247 14.9287 10.3378 14.9468 10.3555 14.9596C10.3732 14.9724 10.3945 14.9792 10.4164 14.9791C10.4382 14.979 10.4594 14.972 10.477 14.959L10.753 14.762L11.029 14.959C11.0465 14.9715 11.0675 14.9783 11.089 14.9783C11.1105 14.9783 11.1315 14.9715 11.149 14.959C11.1669 14.9464 11.1802 14.9285 11.1873 14.9079C11.1943 14.8872 11.1945 14.8648 11.188 14.844L11.085 14.52L11.358 14.319C11.3759 14.3063 11.3892 14.2883 11.3961 14.2676C11.403 14.2468 11.4032 14.2244 11.3965 14.2035C11.3898 14.1827 11.3766 14.1645 11.3589 14.1517C11.3412 14.1388 11.3199 14.1319 11.298 14.132L10.958 14.129L10.851 13.807C10.844 13.7866 10.8307 13.7689 10.8132 13.7564C10.7956 13.7438 10.7746 13.7371 10.753 13.737Z" fill="#F5F5F5"/>
<path d="M11.09 9.84C11.0792 9.83986 11.0687 9.83636 11.06 9.83L10.754 9.612L10.448 9.831C10.4392 9.8372 10.4288 9.84052 10.418 9.84052C10.4073 9.84052 10.3968 9.8372 10.388 9.831C10.379 9.8247 10.3721 9.81569 10.3685 9.80526C10.3649 9.79483 10.3648 9.78354 10.368 9.773L10.482 9.414L10.179 9.191C10.1703 9.18443 10.1639 9.1753 10.1607 9.1649C10.1574 9.15449 10.1576 9.14333 10.161 9.133C10.1644 9.12261 10.1709 9.11355 10.1797 9.10709C10.1885 9.10063 10.1991 9.0971 10.21 9.097L10.586 9.094L10.705 8.738C10.7084 8.72761 10.7149 8.71855 10.7237 8.71209C10.7325 8.70563 10.7431 8.7021 10.754 8.702C10.776 8.702 10.796 8.717 10.803 8.738L10.922 9.094L11.298 9.097C11.32 9.097 11.34 9.112 11.347 9.133C11.354 9.154 11.347 9.177 11.328 9.191L11.026 9.414L11.139 9.773C11.1413 9.7807 11.1418 9.78884 11.1405 9.79677C11.1391 9.8047 11.1359 9.8122 11.1312 9.8187C11.1264 9.82519 11.1203 9.8305 11.1131 9.83419C11.106 9.83789 11.0981 9.83987 11.09 9.84Z" fill="#FF4B55"/>
<path d="M10.753 8.754L10.883 9.146L11.297 9.149L10.964 9.394L11.089 9.788L10.753 9.548L10.417 9.788L10.541 9.394L10.209 9.149L10.622 9.146L10.752 8.754H10.753ZM10.753 8.65C10.7314 8.65006 10.7104 8.65683 10.6928 8.66937C10.6753 8.68192 10.6621 8.69961 10.655 8.72L10.547 9.043L10.208 9.045C10.1861 9.04492 10.1648 9.05181 10.1471 9.06467C10.1294 9.07753 10.1162 9.0957 10.1095 9.11653C10.1029 9.13737 10.103 9.1598 10.1099 9.18056C10.1168 9.20132 10.1302 9.21934 10.148 9.232L10.42 9.433L10.318 9.757C10.3119 9.77765 10.3123 9.79969 10.3193 9.82008C10.3262 9.84047 10.3393 9.8582 10.3568 9.87082C10.3742 9.88345 10.3952 9.89034 10.4167 9.89055C10.4382 9.89076 10.4593 9.88428 10.477 9.872L10.753 9.675L11.029 9.872C11.0466 9.88496 11.0678 9.892 11.0897 9.8921C11.1115 9.8922 11.1328 9.88536 11.1505 9.87256C11.1682 9.85976 11.1814 9.84167 11.1881 9.8209C11.1949 9.80013 11.1948 9.77775 11.188 9.757L11.085 9.433L11.358 9.232C11.3759 9.21934 11.3892 9.20132 11.3961 9.18056C11.403 9.1598 11.4032 9.13737 11.3965 9.11653C11.3898 9.0957 11.3766 9.07753 11.3589 9.06467C11.3412 9.05181 11.3199 9.04492 11.298 9.045L10.958 9.043L10.851 8.721C10.844 8.70061 10.8307 8.68292 10.8132 8.67037C10.7956 8.65783 10.7746 8.65106 10.753 8.651V8.65Z" fill="#F5F5F5"/>
<path d="M12.9 11.748C12.8892 11.7479 12.8787 11.7444 12.87 11.738L12.564 11.52L12.258 11.739C12.2492 11.7452 12.2387 11.7485 12.228 11.7485C12.2172 11.7485 12.2068 11.7452 12.198 11.739C12.1889 11.7327 12.1821 11.7237 12.1785 11.7133C12.1749 11.7028 12.1747 11.6915 12.178 11.681L12.292 11.322L11.99 11.099C11.9811 11.0926 11.9745 11.0835 11.9711 11.0731C11.9677 11.0627 11.9676 11.0514 11.971 11.041C11.9744 11.0305 11.9811 11.0213 11.9901 11.0148C11.9991 11.0083 12.0099 11.0049 12.021 11.005L12.396 11.003L12.516 10.646C12.5196 10.6359 12.5262 10.6271 12.535 10.6209C12.5438 10.6147 12.5543 10.6114 12.565 10.6114C12.5757 10.6114 12.5862 10.6147 12.595 10.6209C12.6038 10.6271 12.6104 10.6359 12.614 10.646L12.732 11.003L13.109 11.005C13.1199 11.0051 13.1305 11.0087 13.1393 11.0152C13.1481 11.0217 13.1546 11.0308 13.1579 11.0412C13.1612 11.0516 13.1612 11.0628 13.1578 11.0731C13.1544 11.0835 13.1478 11.0926 13.139 11.099L12.836 11.322L12.95 11.681C12.9523 11.6888 12.9528 11.697 12.9514 11.705C12.95 11.713 12.9467 11.7206 12.9419 11.7271C12.937 11.7336 12.9307 11.7389 12.9234 11.7425C12.9161 11.7462 12.9081 11.748 12.9 11.748Z" fill="#FF4B55"/>
<path d="M12.563 10.662L12.694 11.054L13.107 11.057L12.775 11.303L12.899 11.696L12.563 11.456L12.227 11.696L12.352 11.303L12.02 11.057L12.433 11.054L12.563 10.662ZM12.563 10.559C12.5414 10.5589 12.5203 10.5656 12.5027 10.5782C12.4851 10.5907 12.472 10.6085 12.465 10.629L12.358 10.951L12.018 10.954C11.9964 10.9542 11.9754 10.9612 11.958 10.974C11.9406 10.9868 11.9276 11.0048 11.921 11.0254C11.9144 11.046 11.9144 11.0681 11.921 11.0887C11.9277 11.1092 11.9406 11.1272 11.958 11.14L12.231 11.342L12.129 11.665C12.1222 11.6857 12.122 11.708 12.1286 11.7287C12.1353 11.7495 12.1483 11.7676 12.1658 11.7805C12.1834 11.7934 12.2046 11.8004 12.2263 11.8005C12.2481 11.8006 12.2694 11.7937 12.287 11.781L12.563 11.584L12.839 11.781C12.8566 11.7946 12.8782 11.8021 12.9004 11.8025C12.9227 11.8028 12.9444 11.7959 12.9624 11.7829C12.9804 11.7698 12.9937 11.7513 13.0003 11.73C13.0069 11.7088 13.0065 11.686 12.999 11.665L12.896 11.342L13.169 11.14C13.1865 11.1272 13.1994 11.1092 13.2061 11.0887C13.2127 11.0681 13.2127 11.046 13.2061 11.0254C13.1994 11.0048 13.1865 10.9868 13.1691 10.974C13.1517 10.9612 13.1306 10.9542 13.109 10.954L12.769 10.951L12.662 10.629C12.6551 10.6084 12.6417 10.5905 12.6239 10.5779C12.6061 10.5653 12.5848 10.5587 12.563 10.559Z" fill="#F5F5F5"/>
<path d="M9.28001 12.266C9.26922 12.2659 9.25873 12.2624 9.25001 12.256L8.94301 12.037L8.63701 12.257C8.62814 12.2634 8.61746 12.2669 8.60651 12.2669C8.59555 12.2669 8.58488 12.2634 8.57601 12.257C8.56714 12.2505 8.56053 12.2415 8.55712 12.2311C8.55371 12.2207 8.55367 12.2094 8.55701 12.199L8.67101 11.839L8.36901 11.616C8.36034 11.6096 8.35385 11.6007 8.35045 11.5905C8.34704 11.5803 8.34689 11.5693 8.35001 11.559C8.35337 11.5486 8.35991 11.5396 8.3687 11.5331C8.3775 11.5266 8.3881 11.5231 8.39901 11.523L8.77501 11.52L8.89501 11.163C8.89848 11.153 8.90494 11.1442 8.91352 11.138C8.9221 11.1317 8.93239 11.1282 8.94301 11.128C8.96601 11.128 8.98501 11.142 8.99301 11.163L9.11101 11.52L9.48801 11.523C9.51001 11.523 9.52901 11.537 9.53601 11.559C9.54301 11.579 9.53601 11.603 9.51801 11.616L9.21501 11.84L9.32901 12.198C9.33155 12.2058 9.33219 12.2142 9.33087 12.2223C9.32955 12.2305 9.32631 12.2382 9.32143 12.2448C9.31655 12.2514 9.31015 12.2568 9.30278 12.2605C9.2954 12.2642 9.28726 12.2661 9.27901 12.266H9.28001Z" fill="#FF4B55"/>
<path d="M8.94197 11.18L9.07297 11.571L9.48597 11.574L9.15397 11.82L9.27797 12.214L8.94197 11.974L8.60597 12.214L8.73097 11.82L8.39797 11.574L8.81197 11.571L8.94197 11.179V11.18ZM8.94197 11.076C8.92039 11.0761 8.89937 11.0828 8.88181 11.0954C8.86425 11.1079 8.85103 11.1256 8.84397 11.146L8.73697 11.468L8.39697 11.471C8.3754 11.4715 8.35453 11.4788 8.33725 11.4917C8.31998 11.5047 8.30716 11.5226 8.30057 11.5432C8.29397 11.5637 8.29394 11.5858 8.30046 11.6064C8.30698 11.627 8.31974 11.645 8.33697 11.658L8.60997 11.859L8.50697 12.182C8.49953 12.203 8.49907 12.2258 8.50567 12.247C8.51227 12.2683 8.52557 12.2868 8.54358 12.2999C8.56159 12.3129 8.58334 12.3198 8.60558 12.3195C8.62782 12.3191 8.64936 12.3116 8.66697 12.298L8.94197 12.101L9.21797 12.298C9.23556 12.3108 9.25674 12.3176 9.27847 12.3176C9.3002 12.3176 9.32138 12.3108 9.33897 12.298C9.35684 12.2852 9.37017 12.2671 9.37701 12.2462C9.38384 12.2254 9.38383 12.2029 9.37697 12.182L9.27497 11.859L9.54797 11.658C9.56589 11.6453 9.57928 11.6272 9.58617 11.6063C9.59307 11.5855 9.59311 11.5629 9.5863 11.5421C9.57949 11.5212 9.56617 11.503 9.5483 11.4902C9.53043 11.4774 9.50894 11.4707 9.48697 11.471L9.14697 11.468L9.03997 11.146C9.03292 11.1256 9.01969 11.1079 9.00213 11.0954C8.98458 11.0828 8.96355 11.0761 8.94197 11.076Z" fill="#F5F5F5"/>
<path d="M21.5 7H12.5V22H21.5V7Z" fill="#F6F6F6"/>
<path fill-rule="evenodd" clip-rule="evenodd" d="M12.637 7C12.591 7 12.545 7.001 12.5 7.003L12.637 7ZM12.5 21.996C10.831 21.921 9.5 20.482 9.5 18.718V10.281C9.5 8.517 10.831 7.078 12.5 7.003V21.996ZM12.637 21.999L12.5 21.996C12.545 21.998 12.591 21.999 12.637 21.999ZM21.364 7L21.5 7.003C21.4547 7.00099 21.4094 6.99999 21.364 7ZM21.5 7.003C23.17 7.077 24.501 8.516 24.501 10.281V18.718C24.501 20.53 23.097 21.999 21.364 21.999L21.499 21.996L21.5 7.003ZM20.104 14.758L18.569 15.635C18.492 15.679 18.4332 15.7489 18.403 15.8322C18.3728 15.9155 18.3731 16.0069 18.404 16.09L18.536 16.44L17.22 16.328C17.2028 16.3266 17.1855 16.3288 17.1693 16.3346C17.153 16.3403 17.1382 16.3494 17.1257 16.3613C17.1132 16.3732 17.1034 16.3877 17.0969 16.4036C17.0904 16.4196 17.0874 16.4368 17.088 16.454L17.129 17.861H16.87L16.912 16.454C16.9126 16.4367 16.9096 16.4194 16.903 16.4034C16.8965 16.3873 16.8866 16.3729 16.874 16.3609C16.8614 16.349 16.8464 16.3399 16.83 16.3342C16.8137 16.3285 16.7963 16.3264 16.779 16.328L15.464 16.441L15.595 16.09C15.6262 16.007 15.6268 15.9157 15.5967 15.8323C15.5667 15.7489 15.5079 15.679 15.431 15.635L13.897 14.758L14.249 14.582C14.2971 14.5577 14.3364 14.5191 14.3615 14.4714C14.3866 14.4237 14.3962 14.3694 14.389 14.316L14.275 13.457L14.925 13.647C14.959 13.6567 14.9946 13.6594 15.0296 13.6548C15.0646 13.6502 15.0983 13.6386 15.1287 13.6205C15.159 13.6024 15.1854 13.5783 15.206 13.5497C15.2267 13.521 15.2414 13.4885 15.249 13.454L15.311 13.173L15.921 13.887C16.006 13.986 16.167 13.91 16.145 13.782L15.885 12.267L16.283 12.376C16.3397 12.3915 16.4 12.3873 16.4539 12.3641C16.5079 12.3408 16.5524 12.2999 16.58 12.248L17 11.461V11.46V11.461L17.42 12.248C17.477 12.355 17.6 12.408 17.717 12.376L18.116 12.266L17.855 13.782C17.833 13.91 17.995 13.986 18.079 13.887L18.689 13.173L18.751 13.453C18.7586 13.4876 18.7733 13.5203 18.794 13.549C18.8148 13.5777 18.8412 13.6018 18.8717 13.6199C18.9021 13.638 18.936 13.6497 18.9711 13.6541C19.0063 13.6586 19.042 13.6559 19.076 13.646L19.726 13.457L19.611 14.317C19.604 14.3702 19.6137 14.4243 19.6388 14.4718C19.6639 14.5193 19.7031 14.5578 19.751 14.582L20.103 14.758H20.104Z" fill="#FB4B4E"/>
</svg>
