<svg width="24" height="24" viewBox="0 0 24 24" fill="none" xmlns="http://www.w3.org/2000/svg">
<g clip-path="url(#clip0)">
<path fill-rule="evenodd" clip-rule="evenodd" d="M4.736 2H3.281C2.41082 2 1.57629 2.34568 0.960983 2.96098C0.345676 3.57629 0 4.41082 0 5.281L0 13.72C0.000265164 14.59 0.346058 15.4243 0.961336 16.0394C1.57661 16.6545 2.411 17 3.281 17H11.719C12.5892 17 13.4237 16.6543 14.039 16.039C14.6543 15.4237 15 14.5892 15 13.719V5.28C14.9997 4.41 14.6539 3.57572 14.0387 2.96063C13.4234 2.34554 12.589 2 11.719 2H4.736Z" fill="#2841C1"/>
<path fill-rule="evenodd" clip-rule="evenodd" d="M7.5 4.763V5.158H4.342V2H4.737V4.396L7.5 2.586V2.97L4.737 4.763H5.462L7.5 3.44V4L6.336 4.763H7.5ZM3.157 2.003C3.02502 2.00776 2.89345 2.02045 2.763 2.041V4.396L0.813 3.119C0.695608 3.25284 0.58926 3.39597 0.495 3.547L2.368 4.763H1.643L0.306 3.895C0.269488 3.97364 0.236129 4.0537 0.206 4.135L1.163 4.763H0.04C0.02 4.893 0.007 5.024 0.002 5.158H3.157V2.003ZM3.157 9.5H2.763V7.104L0 8.914V8.524L2.752 6.737H2.027L0 8.053V7.499L1.163 6.737H0V6.342H3.158V9.5H3.157ZM4.737 9.5H4.342V6.342H7.5V6.737H6.336L7.5 7.499V7.859L5.77 6.737H5.046L7.5 8.33V8.915L4.737 7.105V9.5Z" fill="#F6F6F6"/>
<path fill-rule="evenodd" clip-rule="evenodd" d="M3.158 9.5H4.342V6.342H7.5V5.158H4.342V2H3.282C3.24 2 3.199 2.001 3.158 2.003V5.158H0.003C0.00125125 5.19864 0.000251084 5.23932 0 5.28L0 6.341H3.158V9.5ZM2.028 6.737L0 8.053V8.523L2.752 6.737H2.027H2.028ZM7.498 8.33L5.045 6.737H5.77L7.5 7.859V8.329L7.498 8.33ZM2.367 4.763L0.494 3.547C0.424 3.659 0.361 3.775 0.304 3.895L1.642 4.763H2.367ZM7.499 3.44L5.461 4.763H4.736L7.5 2.97V3.441L7.499 3.44Z" fill="#FF4B55"/>
<path d="M10.59 14.927C10.5792 14.9268 10.5687 14.9233 10.56 14.917L10.254 14.698L9.948 14.918C9.93907 14.9239 9.92855 14.927 9.91784 14.9268C9.90713 14.9266 9.89673 14.9232 9.888 14.917C9.87894 14.9107 9.87213 14.9017 9.86853 14.8913C9.86494 14.8808 9.86475 14.8695 9.868 14.859L9.982 14.501L9.679 14.278C9.67058 14.2714 9.66438 14.2625 9.66124 14.2523C9.6581 14.2421 9.65817 14.2312 9.66145 14.221C9.66472 14.2108 9.67104 14.2019 9.67955 14.1955C9.68805 14.1891 9.69834 14.1854 9.709 14.185L10.086 14.181L10.205 13.824C10.2085 13.8138 10.2151 13.805 10.2239 13.7987C10.2327 13.7924 10.2432 13.789 10.254 13.789C10.276 13.789 10.296 13.803 10.303 13.824L10.422 14.181L10.798 14.184C10.8089 14.1841 10.8195 14.1877 10.8283 14.1942C10.8371 14.2007 10.8436 14.2098 10.8469 14.2202C10.8502 14.2306 10.8502 14.2418 10.8468 14.2521C10.8434 14.2625 10.8368 14.2716 10.828 14.278L10.526 14.501L10.639 14.859C10.6415 14.8668 10.6422 14.875 10.6409 14.8831C10.6396 14.8911 10.6365 14.8988 10.6317 14.9054C10.6269 14.912 10.6207 14.9174 10.6134 14.9212C10.6062 14.9249 10.5982 14.9269 10.59 14.927Z" fill="#FF4B55"/>
<path d="M10.253 13.84L10.383 14.232L10.797 14.235L10.464 14.481L10.589 14.875L10.253 14.635L9.91701 14.875L10.041 14.481L9.70901 14.235L10.122 14.232L10.252 13.84H10.253ZM10.253 13.737C10.2314 13.7371 10.2104 13.7438 10.1928 13.7564C10.1753 13.7689 10.1621 13.7866 10.155 13.807L10.047 14.129L9.70801 14.132C9.68613 14.1319 9.66478 14.1388 9.64708 14.1517C9.62937 14.1645 9.61622 14.1827 9.60954 14.2035C9.60285 14.2244 9.60298 14.2468 9.60989 14.2676C9.61681 14.2883 9.63016 14.3063 9.64801 14.319L9.92001 14.52L9.81801 14.844C9.8112 14.8647 9.81117 14.8871 9.81791 14.9079C9.82465 14.9287 9.83782 14.9468 9.85552 14.9596C9.87321 14.9724 9.89452 14.9792 9.91635 14.9791C9.93819 14.979 9.95943 14.972 9.97701 14.959L10.253 14.762L10.529 14.959C10.5465 14.9715 10.5675 14.9783 10.589 14.9783C10.6105 14.9783 10.6315 14.9715 10.649 14.959C10.6669 14.9464 10.6802 14.9285 10.6873 14.9079C10.6943 14.8872 10.6945 14.8648 10.688 14.844L10.585 14.52L10.858 14.319C10.8759 14.3063 10.8892 14.2883 10.8961 14.2676C10.903 14.2468 10.9032 14.2244 10.8965 14.2035C10.8898 14.1827 10.8766 14.1645 10.8589 14.1517C10.8412 14.1388 10.8199 14.1319 10.798 14.132L10.458 14.129L10.351 13.807C10.344 13.7866 10.3307 13.7689 10.3132 13.7564C10.2956 13.7438 10.2746 13.7371 10.253 13.737Z" fill="#F5F5F5"/>
<path d="M10.59 9.84C10.5792 9.83986 10.5687 9.83636 10.56 9.83L10.254 9.612L9.94801 9.831C9.93923 9.8372 9.92875 9.84052 9.91801 9.84052C9.90726 9.84052 9.89678 9.8372 9.88801 9.831C9.87895 9.8247 9.87214 9.81569 9.86854 9.80526C9.86495 9.79483 9.86476 9.78354 9.86801 9.773L9.98201 9.414L9.67901 9.191C9.67031 9.18443 9.66389 9.1753 9.66066 9.1649C9.65743 9.15449 9.65755 9.14333 9.66101 9.133C9.66437 9.12261 9.6709 9.11355 9.6797 9.10709C9.68849 9.10063 9.6991 9.0971 9.71001 9.097L10.086 9.094L10.205 8.738C10.2084 8.72761 10.2149 8.71855 10.2237 8.71209C10.2325 8.70563 10.2431 8.7021 10.254 8.702C10.276 8.702 10.296 8.717 10.303 8.738L10.422 9.094L10.798 9.097C10.82 9.097 10.84 9.112 10.847 9.133C10.854 9.154 10.847 9.177 10.828 9.191L10.526 9.414L10.639 9.773C10.6413 9.7807 10.6418 9.78884 10.6405 9.79677C10.6391 9.8047 10.6359 9.8122 10.6312 9.8187C10.6264 9.82519 10.6203 9.8305 10.6131 9.83419C10.606 9.83789 10.5981 9.83987 10.59 9.84Z" fill="#FF4B55"/>
<path d="M10.253 8.754L10.383 9.146L10.797 9.149L10.464 9.394L10.589 9.788L10.253 9.548L9.91701 9.788L10.041 9.394L9.70901 9.149L10.122 9.146L10.252 8.754H10.253ZM10.253 8.65C10.2314 8.65006 10.2104 8.65683 10.1928 8.66937C10.1753 8.68192 10.1621 8.69961 10.155 8.72L10.047 9.043L9.70801 9.045C9.68613 9.04492 9.66478 9.05181 9.64708 9.06467C9.62937 9.07753 9.61622 9.0957 9.60954 9.11653C9.60285 9.13737 9.60298 9.1598 9.60989 9.18056C9.61681 9.20132 9.63016 9.21934 9.64801 9.232L9.92001 9.433L9.81801 9.757C9.81189 9.77765 9.81233 9.79969 9.81927 9.82008C9.82622 9.84047 9.83932 9.8582 9.85677 9.87082C9.87422 9.88345 9.89517 9.89034 9.9167 9.89055C9.93824 9.89076 9.95931 9.88428 9.97701 9.872L10.253 9.675L10.529 9.872C10.5466 9.88496 10.5678 9.892 10.5897 9.8921C10.6115 9.8922 10.6328 9.88536 10.6505 9.87256C10.6682 9.85976 10.6814 9.84167 10.6881 9.8209C10.6949 9.80013 10.6948 9.77775 10.688 9.757L10.585 9.433L10.858 9.232C10.8759 9.21934 10.8892 9.20132 10.8961 9.18056C10.903 9.1598 10.9032 9.13737 10.8965 9.11653C10.8898 9.0957 10.8766 9.07753 10.8589 9.06467C10.8412 9.05181 10.8199 9.04492 10.798 9.045L10.458 9.043L10.351 8.721C10.344 8.70061 10.3307 8.68292 10.3132 8.67037C10.2956 8.65783 10.2746 8.65106 10.253 8.651V8.65Z" fill="#F5F5F5"/>
<path d="M12.4 11.748C12.3892 11.7479 12.3787 11.7444 12.37 11.738L12.064 11.52L11.758 11.739C11.7492 11.7452 11.7387 11.7485 11.728 11.7485C11.7172 11.7485 11.7068 11.7452 11.698 11.739C11.6889 11.7327 11.6821 11.7237 11.6785 11.7133C11.6749 11.7028 11.6747 11.6915 11.678 11.681L11.792 11.322L11.49 11.099C11.4811 11.0926 11.4745 11.0835 11.4711 11.0731C11.4677 11.0627 11.4676 11.0514 11.471 11.041C11.4744 11.0305 11.4811 11.0213 11.4901 11.0148C11.4991 11.0083 11.5099 11.0049 11.521 11.005L11.896 11.003L12.016 10.646C12.0196 10.6359 12.0262 10.6271 12.035 10.6209C12.0438 10.6147 12.0543 10.6114 12.065 10.6114C12.0757 10.6114 12.0862 10.6147 12.095 10.6209C12.1038 10.6271 12.1104 10.6359 12.114 10.646L12.232 11.003L12.609 11.005C12.6199 11.0051 12.6305 11.0087 12.6393 11.0152C12.6481 11.0217 12.6546 11.0308 12.6579 11.0412C12.6612 11.0516 12.6612 11.0628 12.6578 11.0731C12.6544 11.0835 12.6478 11.0926 12.639 11.099L12.336 11.322L12.45 11.681C12.4523 11.6888 12.4528 11.697 12.4514 11.705C12.45 11.713 12.4467 11.7206 12.4419 11.7271C12.437 11.7336 12.4307 11.7389 12.4234 11.7425C12.4161 11.7462 12.4081 11.748 12.4 11.748Z" fill="#FF4B55"/>
<path d="M12.063 10.662L12.194 11.054L12.607 11.057L12.275 11.303L12.399 11.696L12.063 11.456L11.727 11.696L11.852 11.303L11.52 11.057L11.933 11.054L12.063 10.662ZM12.063 10.559C12.0414 10.5589 12.0203 10.5656 12.0027 10.5782C11.9851 10.5907 11.972 10.6085 11.965 10.629L11.858 10.951L11.518 10.954C11.4964 10.9542 11.4754 10.9612 11.458 10.974C11.4406 10.9868 11.4276 11.0048 11.421 11.0254C11.4144 11.046 11.4144 11.0681 11.421 11.0887C11.4277 11.1092 11.4406 11.1272 11.458 11.14L11.731 11.342L11.629 11.665C11.6222 11.6857 11.622 11.708 11.6286 11.7287C11.6353 11.7495 11.6483 11.7676 11.6658 11.7805C11.6834 11.7934 11.7046 11.8004 11.7263 11.8005C11.7481 11.8006 11.7694 11.7937 11.787 11.781L12.063 11.584L12.339 11.781C12.3566 11.7946 12.3782 11.8021 12.4004 11.8025C12.4227 11.8028 12.4444 11.7959 12.4624 11.7829C12.4804 11.7698 12.4937 11.7513 12.5003 11.73C12.5069 11.7088 12.5065 11.686 12.499 11.665L12.396 11.342L12.669 11.14C12.6865 11.1272 12.6994 11.1092 12.7061 11.0887C12.7127 11.0681 12.7127 11.046 12.7061 11.0254C12.6994 11.0048 12.6865 10.9868 12.6691 10.974C12.6517 10.9612 12.6306 10.9542 12.609 10.954L12.269 10.951L12.162 10.629C12.1551 10.6084 12.1417 10.5905 12.1239 10.5779C12.1061 10.5653 12.0848 10.5587 12.063 10.559Z" fill="#F5F5F5"/>
<path d="M8.78001 12.266C8.76922 12.2659 8.75873 12.2624 8.75001 12.256L8.44301 12.037L8.13701 12.257C8.12814 12.2634 8.11746 12.2669 8.10651 12.2669C8.09555 12.2669 8.08488 12.2634 8.07601 12.257C8.06714 12.2505 8.06053 12.2415 8.05712 12.2311C8.05371 12.2207 8.05367 12.2094 8.05701 12.199L8.17101 11.839L7.86901 11.616C7.86034 11.6096 7.85385 11.6007 7.85045 11.5905C7.84704 11.5803 7.84689 11.5693 7.85001 11.559C7.85337 11.5486 7.85991 11.5396 7.8687 11.5331C7.8775 11.5266 7.8881 11.5231 7.89901 11.523L8.27501 11.52L8.39501 11.163C8.39848 11.153 8.40494 11.1442 8.41352 11.138C8.4221 11.1317 8.43239 11.1282 8.44301 11.128C8.46601 11.128 8.48501 11.142 8.49301 11.163L8.61101 11.52L8.98801 11.523C9.01001 11.523 9.02901 11.537 9.03601 11.559C9.04301 11.579 9.03601 11.603 9.01801 11.616L8.71501 11.84L8.82901 12.198C8.83155 12.2058 8.83219 12.2142 8.83087 12.2223C8.82955 12.2305 8.82631 12.2382 8.82143 12.2448C8.81655 12.2514 8.81015 12.2568 8.80278 12.2605C8.7954 12.2642 8.78726 12.2661 8.77901 12.266H8.78001Z" fill="#FF4B55"/>
<path d="M8.44197 11.18L8.57297 11.571L8.98597 11.574L8.65397 11.82L8.77797 12.214L8.44197 11.974L8.10597 12.214L8.23097 11.82L7.89797 11.574L8.31197 11.571L8.44197 11.179V11.18ZM8.44197 11.076C8.42039 11.0761 8.39937 11.0828 8.38181 11.0954C8.36425 11.1079 8.35103 11.1256 8.34397 11.146L8.23697 11.468L7.89697 11.471C7.8754 11.4715 7.85453 11.4788 7.83725 11.4917C7.81998 11.5047 7.80716 11.5226 7.80057 11.5432C7.79397 11.5637 7.79394 11.5858 7.80046 11.6064C7.80698 11.627 7.81974 11.645 7.83697 11.658L8.10997 11.859L8.00697 12.182C7.99953 12.203 7.99907 12.2258 8.00567 12.247C8.01227 12.2683 8.02557 12.2868 8.04358 12.2999C8.06159 12.3129 8.08334 12.3198 8.10558 12.3195C8.12782 12.3191 8.14936 12.3116 8.16697 12.298L8.44197 12.101L8.71797 12.298C8.73556 12.3108 8.75674 12.3176 8.77847 12.3176C8.8002 12.3176 8.82138 12.3108 8.83897 12.298C8.85684 12.2852 8.87017 12.2671 8.87701 12.2462C8.88384 12.2254 8.88383 12.2029 8.87697 12.182L8.77497 11.859L9.04797 11.658C9.06589 11.6453 9.07928 11.6272 9.08617 11.6063C9.09307 11.5855 9.09311 11.5629 9.0863 11.5421C9.07949 11.5212 9.06617 11.503 9.0483 11.4902C9.03043 11.4774 9.00894 11.4707 8.98697 11.471L8.64697 11.468L8.53997 11.146C8.53292 11.1256 8.51969 11.1079 8.50213 11.0954C8.48458 11.0828 8.46355 11.0761 8.44197 11.076Z" fill="#F5F5F5"/>
<path d="M20.719 7H12.28C11.41 7.00027 10.5757 7.34606 9.96063 7.96134C9.34554 8.57661 9 9.411 9 10.281V18.719C9 19.5892 9.34568 20.4237 9.96098 21.039C10.5763 21.6543 11.4108 22 12.281 22H20.719C21.5892 22 22.4237 21.6543 23.039 21.039C23.6543 20.4237 24 19.5892 24 18.719V10.28C23.9997 9.41 23.6539 8.57572 23.0387 7.96063C22.4234 7.34554 21.589 7 20.719 7Z" fill="#F6F6F6"/>
<path d="M16.5 18C16.9596 18 17.4148 17.9095 17.8394 17.7336C18.264 17.5577 18.6499 17.2999 18.9749 16.9749C19.2999 16.6499 19.5577 16.264 19.7336 15.8394C19.9095 15.4148 20 14.9596 20 14.5C20 14.0404 19.9095 13.5852 19.7336 13.1606C19.5577 12.736 19.2999 12.3501 18.9749 12.0251C18.6499 11.7001 18.264 11.4423 17.8394 11.2664C17.4148 11.0905 16.9596 11 16.5 11C15.5717 11 14.6815 11.3687 14.0251 12.0251C13.3687 12.6815 13 13.5717 13 14.5C13 15.4283 13.3687 16.3185 14.0251 16.9749C14.6815 17.6313 15.5717 18 16.5 18Z" fill="#FB4B4E"/>
</g>
<defs>
<clipPath id="clip0">
<rect width="24" height="24" fill="white"/>
</clipPath>
</defs>
</svg>
