<svg width="24" height="24" viewBox="0 0 24 24" fill="none" xmlns="http://www.w3.org/2000/svg">
<g clip-path="url(#clip0)">
<path fill-rule="evenodd" clip-rule="evenodd" d="M4.736 2H3.281C2.41082 2 1.57629 2.34568 0.960983 2.96098C0.345676 3.57629 0 4.41082 0 5.281L0 13.72C0.000265164 14.59 0.346058 15.4243 0.961336 16.0394C1.57661 16.6545 2.411 17 3.281 17H11.719C12.5892 17 13.4237 16.6543 14.039 16.039C14.6543 15.4237 15 14.5892 15 13.719V5.28C14.9997 4.41 14.6539 3.57572 14.0387 2.96063C13.4234 2.34554 12.589 2 11.719 2H4.736Z" fill="#2841C1"/>
<path fill-rule="evenodd" clip-rule="evenodd" d="M7.5 4.763V5.158H4.342V2H4.737V4.396L7.5 2.586V2.97L4.737 4.763H5.462L7.5 3.44V4L6.336 4.763H7.5ZM3.157 2.003C3.02502 2.00776 2.89345 2.02045 2.763 2.041V4.396L0.813 3.119C0.695608 3.25284 0.58926 3.39597 0.495 3.547L2.368 4.763H1.643L0.306 3.895C0.269488 3.97364 0.236129 4.0537 0.206 4.135L1.163 4.763H0.04C0.02 4.893 0.007 5.024 0.002 5.158H3.157V2.003ZM3.157 9.5H2.763V7.104L0 8.914V8.524L2.752 6.737H2.027L0 8.053V7.499L1.163 6.737H0V6.342H3.158V9.5H3.157ZM4.737 9.5H4.342V6.342H7.5V6.737H6.336L7.5 7.499V7.859L5.77 6.737H5.046L7.5 8.33V8.915L4.737 7.105V9.5Z" fill="#F6F6F6"/>
<path fill-rule="evenodd" clip-rule="evenodd" d="M3.158 9.5H4.342V6.342H7.5V5.158H4.342V2H3.282C3.24 2 3.199 2.001 3.158 2.003V5.158H0.003C0.00125125 5.19864 0.000251084 5.23932 0 5.28L0 6.341H3.158V9.5ZM2.028 6.737L0 8.053V8.523L2.752 6.737H2.027H2.028ZM7.498 8.33L5.045 6.737H5.77L7.5 7.859V8.329L7.498 8.33ZM2.367 4.763L0.494 3.547C0.424 3.659 0.361 3.775 0.304 3.895L1.642 4.763H2.367ZM7.499 3.44L5.461 4.763H4.736L7.5 2.97V3.441L7.499 3.44Z" fill="#FF4B55"/>
<path d="M10.59 14.927C10.5792 14.9268 10.5687 14.9233 10.56 14.917L10.254 14.698L9.948 14.918C9.93907 14.9239 9.92855 14.927 9.91784 14.9268C9.90713 14.9266 9.89673 14.9232 9.888 14.917C9.87894 14.9107 9.87213 14.9017 9.86853 14.8913C9.86494 14.8808 9.86475 14.8695 9.868 14.859L9.982 14.501L9.679 14.278C9.67058 14.2714 9.66438 14.2625 9.66124 14.2523C9.6581 14.2421 9.65817 14.2312 9.66145 14.221C9.66472 14.2108 9.67104 14.2019 9.67955 14.1955C9.68805 14.1891 9.69834 14.1854 9.709 14.185L10.086 14.181L10.205 13.824C10.2085 13.8138 10.2151 13.805 10.2239 13.7987C10.2327 13.7924 10.2432 13.789 10.254 13.789C10.276 13.789 10.296 13.803 10.303 13.824L10.422 14.181L10.798 14.184C10.8089 14.1841 10.8195 14.1877 10.8283 14.1942C10.8371 14.2007 10.8436 14.2098 10.8469 14.2202C10.8502 14.2306 10.8502 14.2418 10.8468 14.2521C10.8434 14.2625 10.8368 14.2716 10.828 14.278L10.526 14.501L10.639 14.859C10.6415 14.8668 10.6422 14.875 10.6409 14.8831C10.6396 14.8911 10.6365 14.8988 10.6317 14.9054C10.6269 14.912 10.6207 14.9174 10.6134 14.9212C10.6062 14.9249 10.5982 14.9269 10.59 14.927V14.927Z" fill="#FF4B55"/>
<path d="M10.253 13.84L10.383 14.232L10.797 14.235L10.464 14.481L10.589 14.875L10.253 14.635L9.91701 14.875L10.041 14.481L9.70901 14.235L10.122 14.232L10.252 13.84H10.253ZM10.253 13.737C10.2314 13.7371 10.2104 13.7438 10.1928 13.7564C10.1753 13.7689 10.1621 13.7866 10.155 13.807L10.047 14.129L9.70801 14.132C9.68613 14.1319 9.66478 14.1388 9.64708 14.1517C9.62937 14.1645 9.61622 14.1827 9.60954 14.2035C9.60285 14.2244 9.60298 14.2468 9.60989 14.2676C9.61681 14.2883 9.63016 14.3063 9.64801 14.319L9.92001 14.52L9.81801 14.844C9.8112 14.8647 9.81117 14.8871 9.81791 14.9079C9.82465 14.9287 9.83782 14.9468 9.85552 14.9596C9.87321 14.9724 9.89452 14.9792 9.91635 14.9791C9.93819 14.979 9.95943 14.972 9.97701 14.959L10.253 14.762L10.529 14.959C10.5465 14.9715 10.5675 14.9783 10.589 14.9783C10.6105 14.9783 10.6315 14.9715 10.649 14.959C10.6669 14.9464 10.6802 14.9285 10.6873 14.9079C10.6943 14.8872 10.6945 14.8648 10.688 14.844L10.585 14.52L10.858 14.319C10.8759 14.3063 10.8892 14.2883 10.8961 14.2676C10.903 14.2468 10.9032 14.2244 10.8965 14.2035C10.8898 14.1827 10.8766 14.1645 10.8589 14.1517C10.8412 14.1388 10.8199 14.1319 10.798 14.132L10.458 14.129L10.351 13.807C10.344 13.7866 10.3307 13.7689 10.3132 13.7564C10.2956 13.7438 10.2746 13.7371 10.253 13.737V13.737Z" fill="#F5F5F5"/>
<path d="M10.59 9.84C10.5792 9.83986 10.5687 9.83636 10.56 9.83L10.254 9.612L9.94801 9.831C9.93923 9.83719 9.92875 9.84052 9.91801 9.84052C9.90726 9.84052 9.89678 9.83719 9.88801 9.831C9.87895 9.8247 9.87214 9.81569 9.86854 9.80526C9.86495 9.79483 9.86476 9.78354 9.86801 9.773L9.98201 9.414L9.67901 9.191C9.67031 9.18443 9.66389 9.1753 9.66066 9.1649C9.65743 9.15449 9.65755 9.14333 9.66101 9.133C9.66437 9.12261 9.6709 9.11355 9.6797 9.10709C9.68849 9.10063 9.6991 9.0971 9.71001 9.097L10.086 9.094L10.205 8.738C10.2084 8.72761 10.2149 8.71855 10.2237 8.71209C10.2325 8.70563 10.2431 8.7021 10.254 8.702C10.276 8.702 10.296 8.717 10.303 8.738L10.422 9.094L10.798 9.097C10.82 9.097 10.84 9.112 10.847 9.133C10.854 9.154 10.847 9.177 10.828 9.191L10.526 9.414L10.639 9.773C10.6413 9.7807 10.6418 9.78884 10.6405 9.79677C10.6391 9.8047 10.6359 9.8122 10.6312 9.8187C10.6264 9.82519 10.6203 9.8305 10.6131 9.83419C10.606 9.83789 10.5981 9.83987 10.59 9.84V9.84Z" fill="#FF4B55"/>
<path d="M10.253 8.754L10.383 9.146L10.797 9.149L10.464 9.394L10.589 9.788L10.253 9.548L9.91701 9.788L10.041 9.394L9.70901 9.149L10.122 9.146L10.252 8.754H10.253ZM10.253 8.65C10.2314 8.65006 10.2104 8.65683 10.1928 8.66937C10.1753 8.68192 10.1621 8.69961 10.155 8.72L10.047 9.043L9.70801 9.045C9.68613 9.04492 9.66478 9.05181 9.64708 9.06467C9.62937 9.07753 9.61622 9.0957 9.60954 9.11653C9.60285 9.13737 9.60298 9.1598 9.60989 9.18056C9.61681 9.20132 9.63016 9.21934 9.64801 9.232L9.92001 9.433L9.81801 9.757C9.81189 9.77765 9.81233 9.79969 9.81927 9.82008C9.82622 9.84047 9.83932 9.8582 9.85677 9.87082C9.87422 9.88345 9.89517 9.89034 9.9167 9.89055C9.93824 9.89076 9.95931 9.88428 9.97701 9.872L10.253 9.675L10.529 9.872C10.5466 9.88496 10.5678 9.892 10.5897 9.8921C10.6115 9.8922 10.6328 9.88536 10.6505 9.87256C10.6682 9.85976 10.6814 9.84167 10.6881 9.8209C10.6949 9.80013 10.6948 9.77775 10.688 9.757L10.585 9.433L10.858 9.232C10.8759 9.21934 10.8892 9.20132 10.8961 9.18056C10.903 9.1598 10.9032 9.13737 10.8965 9.11653C10.8898 9.0957 10.8766 9.07753 10.8589 9.06467C10.8412 9.05181 10.8199 9.04492 10.798 9.045L10.458 9.043L10.351 8.721C10.344 8.70061 10.3307 8.68292 10.3132 8.67037C10.2956 8.65783 10.2746 8.65106 10.253 8.651V8.65Z" fill="#F5F5F5"/>
<path d="M12.4 11.748C12.3892 11.7479 12.3787 11.7444 12.37 11.738L12.064 11.52L11.758 11.739C11.7492 11.7452 11.7387 11.7485 11.728 11.7485C11.7172 11.7485 11.7068 11.7452 11.698 11.739C11.6889 11.7327 11.6821 11.7237 11.6785 11.7133C11.6749 11.7028 11.6747 11.6915 11.678 11.681L11.792 11.322L11.49 11.099C11.4811 11.0926 11.4745 11.0835 11.4711 11.0731C11.4677 11.0627 11.4676 11.0514 11.471 11.041C11.4744 11.0305 11.4811 11.0213 11.4901 11.0148C11.4991 11.0083 11.5099 11.0049 11.521 11.005L11.896 11.003L12.016 10.646C12.0196 10.6359 12.0262 10.6271 12.035 10.6209C12.0438 10.6147 12.0543 10.6114 12.065 10.6114C12.0757 10.6114 12.0862 10.6147 12.095 10.6209C12.1038 10.6271 12.1104 10.6359 12.114 10.646L12.232 11.003L12.609 11.005C12.6199 11.0051 12.6305 11.0087 12.6393 11.0152C12.6481 11.0217 12.6546 11.0308 12.6579 11.0412C12.6612 11.0516 12.6612 11.0628 12.6578 11.0731C12.6544 11.0835 12.6478 11.0926 12.639 11.099L12.336 11.322L12.45 11.681C12.4523 11.6888 12.4528 11.697 12.4514 11.705C12.45 11.713 12.4467 11.7206 12.4419 11.7271C12.437 11.7336 12.4307 11.7389 12.4234 11.7425C12.4161 11.7462 12.4081 11.748 12.4 11.748V11.748Z" fill="#FF4B55"/>
<path d="M12.063 10.662L12.194 11.054L12.607 11.057L12.275 11.303L12.399 11.696L12.063 11.456L11.727 11.696L11.852 11.303L11.52 11.057L11.933 11.054L12.063 10.662ZM12.063 10.559C12.0414 10.5589 12.0203 10.5656 12.0027 10.5782C11.9851 10.5907 11.9719 10.6085 11.965 10.629L11.858 10.951L11.518 10.954C11.4964 10.9542 11.4754 10.9612 11.458 10.974C11.4405 10.9868 11.4276 11.0048 11.421 11.0254C11.4143 11.046 11.4143 11.0681 11.421 11.0887C11.4276 11.1092 11.4406 11.1272 11.458 11.14L11.731 11.342L11.629 11.665C11.6221 11.6857 11.622 11.708 11.6286 11.7287C11.6352 11.7495 11.6482 11.7676 11.6658 11.7805C11.6833 11.7934 11.7045 11.8004 11.7263 11.8005C11.7481 11.8006 11.7693 11.7937 11.787 11.781L12.063 11.584L12.339 11.781C12.3566 11.7946 12.3781 11.8021 12.4004 11.8025C12.4226 11.8028 12.4444 11.7959 12.4624 11.7829C12.4804 11.7698 12.4937 11.7513 12.5003 11.73C12.5069 11.7088 12.5064 11.686 12.499 11.665L12.396 11.342L12.669 11.14C12.6864 11.1272 12.6994 11.1092 12.706 11.0887C12.7127 11.0681 12.7127 11.046 12.706 11.0254C12.6994 11.0048 12.6865 10.9868 12.669 10.974C12.6516 10.9612 12.6306 10.9542 12.609 10.954L12.269 10.951L12.162 10.629C12.155 10.6084 12.1417 10.5905 12.1239 10.5779C12.1061 10.5653 12.0848 10.5587 12.063 10.559V10.559Z" fill="#F5F5F5"/>
<path d="M8.78001 12.266C8.76922 12.2659 8.75873 12.2624 8.75001 12.256L8.44301 12.037L8.13701 12.257C8.12814 12.2634 8.11746 12.2669 8.10651 12.2669C8.09555 12.2669 8.08488 12.2634 8.07601 12.257C8.06714 12.2505 8.06053 12.2415 8.05712 12.2311C8.05371 12.2207 8.05367 12.2094 8.05701 12.199L8.17101 11.839L7.86901 11.616C7.86034 11.6096 7.85385 11.6007 7.85045 11.5905C7.84704 11.5803 7.84689 11.5693 7.85001 11.559C7.85337 11.5486 7.85991 11.5396 7.8687 11.5331C7.8775 11.5266 7.8881 11.5231 7.89901 11.523L8.27501 11.52L8.39501 11.163C8.39848 11.153 8.40494 11.1442 8.41352 11.138C8.4221 11.1317 8.43239 11.1282 8.44301 11.128C8.46601 11.128 8.48501 11.142 8.49301 11.163L8.61101 11.52L8.98801 11.523C9.01001 11.523 9.02901 11.537 9.03601 11.559C9.04301 11.579 9.03601 11.603 9.01801 11.616L8.71501 11.84L8.82901 12.198C8.83155 12.2058 8.83219 12.2142 8.83087 12.2223C8.82955 12.2305 8.82631 12.2382 8.82143 12.2448C8.81655 12.2514 8.81015 12.2568 8.80278 12.2605C8.7954 12.2642 8.78726 12.2661 8.77901 12.266H8.78001Z" fill="#FF4B55"/>
<path d="M8.442 11.18L8.573 11.571L8.986 11.574L8.654 11.82L8.778 12.214L8.442 11.974L8.106 12.214L8.231 11.82L7.898 11.574L8.312 11.571L8.442 11.179V11.18ZM8.442 11.076C8.42042 11.0761 8.3994 11.0828 8.38184 11.0954C8.36428 11.1079 8.35106 11.1256 8.344 11.146L8.237 11.468L7.897 11.471C7.87543 11.4715 7.85456 11.4788 7.83728 11.4917C7.82001 11.5047 7.80719 11.5226 7.8006 11.5432C7.794 11.5637 7.79397 11.5858 7.80049 11.6064C7.80701 11.627 7.81977 11.645 7.837 11.658L8.11 11.859L8.007 12.182C7.99956 12.203 7.9991 12.2258 8.0057 12.247C8.0123 12.2683 8.0256 12.2868 8.04361 12.2999C8.06162 12.3129 8.08337 12.3198 8.10561 12.3195C8.12786 12.3191 8.14939 12.3116 8.167 12.298L8.442 12.101L8.718 12.298C8.73559 12.3108 8.75677 12.3176 8.7785 12.3176C8.80024 12.3176 8.82141 12.3108 8.839 12.298C8.85687 12.2852 8.8702 12.2671 8.87704 12.2462C8.88387 12.2254 8.88386 12.2029 8.877 12.182L8.775 11.859L9.048 11.658C9.06592 11.6453 9.07931 11.6272 9.0862 11.6063C9.0931 11.5855 9.09314 11.5629 9.08633 11.5421C9.07952 11.5212 9.0662 11.503 9.04833 11.4902C9.03046 11.4774 9.00897 11.4707 8.987 11.471L8.647 11.468L8.54 11.146C8.53295 11.1256 8.51972 11.1079 8.50216 11.0954C8.48461 11.0828 8.46358 11.0761 8.442 11.076V11.076Z" fill="#F5F5F5"/>
<path fill-rule="evenodd" clip-rule="evenodd" d="M9.784 8.154H23.217C23.502 8.488 23.721 8.879 23.854 9.308H9.147C9.281 8.879 9.499 8.488 9.784 8.154ZM9 10.462H24V11.616H9V10.462ZM24 12.77H9V13.923H24V12.77ZM9 15.077H24V16.231H9V15.077V15.077ZM24 17.385H9V18.539H24V17.385ZM9.147 19.693H23.854C23.721 20.122 23.502 20.513 23.217 20.847H9.784C9.49563 20.5095 9.2789 20.1169 9.147 19.693V19.693Z" fill="#F5F5F5"/>
<path fill-rule="evenodd" clip-rule="evenodd" d="M20.719 7H12.28C11.28 7 10.384 7.448 9.782 8.154H23.216C22.9084 7.79203 22.5258 7.50131 22.0946 7.30204C21.6634 7.10276 21.194 6.9997 20.719 7V7ZM24 11.615H9V12.769H24V11.615ZM23.853 9.308C23.949 9.616 24 9.943 24 10.282V10.462H9V10.282C9 9.942 9.051 9.616 9.147 9.308H23.853ZM24 13.923H9V15.077H24V13.923ZM24 18.539V18.719C24 19.059 23.949 19.385 23.853 19.693H9.147C9.04925 19.3776 8.99969 19.0492 9 18.719V18.539H24ZM23.217 20.846H9.783C10.0907 21.2081 10.4735 21.4989 10.9049 21.6982C11.3362 21.8975 11.8058 22.0004 12.281 22H20.719C21.719 22 22.615 21.552 23.217 20.846V20.846ZM9 16.231H24V17.385H9V16.23V16.231Z" fill="#FA4051"/>
<path d="M17 7H12.25C10.455 7 9 8.47 9 10.281V15.077H17V7Z" fill="#1939C9"/>
<path fill-rule="evenodd" clip-rule="evenodd" d="M11.613 7.721L11.675 7.908L11.872 7.91C11.897 7.91 11.908 7.942 11.887 7.957L11.729 8.074L11.789 8.262C11.7906 8.26733 11.7905 8.27302 11.7887 8.27828C11.7869 8.28354 11.7835 8.28813 11.7791 8.29141C11.7746 8.29469 11.7692 8.29651 11.7636 8.29661C11.7581 8.29672 11.7526 8.29511 11.748 8.292L11.588 8.177L11.428 8.291C11.4234 8.29376 11.4181 8.29509 11.4127 8.29481C11.4074 8.29453 11.4022 8.29266 11.3979 8.28944C11.3936 8.28622 11.3904 8.2818 11.3886 8.27674C11.3869 8.27167 11.3867 8.26619 11.388 8.261L11.446 8.074L11.288 7.957C11.2835 7.95374 11.2802 7.94912 11.2785 7.94383C11.2769 7.93855 11.2769 7.93286 11.2787 7.92762C11.2805 7.92237 11.2839 7.91783 11.2885 7.91466C11.293 7.91149 11.2985 7.90986 11.304 7.91L11.5 7.908L11.563 7.721C11.565 7.71604 11.5685 7.71178 11.573 7.70879C11.5774 7.7058 11.5826 7.7042 11.588 7.7042C11.5934 7.7042 11.5986 7.7058 11.6031 7.70879C11.6075 7.71178 11.611 7.71604 11.613 7.721V7.721ZM9.87001 8.262C9.86845 8.26733 9.86856 8.27302 9.87034 8.27828C9.87213 8.28354 9.87549 8.28813 9.87997 8.29141C9.88446 8.29469 9.88984 8.29651 9.8954 8.29661C9.90095 8.29672 9.90641 8.29511 9.91101 8.292L10.071 8.177L10.231 8.292C10.2356 8.29476 10.2409 8.29609 10.2463 8.29581C10.2516 8.29553 10.2568 8.29366 10.2611 8.29044C10.2654 8.28723 10.2686 8.2828 10.2704 8.27774C10.2722 8.27267 10.2724 8.26719 10.271 8.262L10.213 8.075L10.371 7.958C10.3753 7.95455 10.3784 7.94986 10.38 7.94458C10.3815 7.9393 10.3814 7.93367 10.3797 7.92845C10.3779 7.92323 10.3746 7.91866 10.3702 7.91536C10.3658 7.91207 10.3605 7.9102 10.355 7.91L10.159 7.908L10.125 7.808C10.0408 7.88154 9.96035 7.9593 9.88401 8.041L9.93001 8.075L9.87001 8.262V8.262ZM10.096 9.278L10.159 9.465L10.355 9.466C10.381 9.466 10.391 9.499 10.371 9.514L10.213 9.631L10.272 9.818C10.2734 9.82319 10.2732 9.82867 10.2714 9.83374C10.2696 9.8388 10.2664 9.84322 10.2621 9.84644C10.2578 9.84966 10.2526 9.85153 10.2473 9.85181C10.2419 9.85209 10.2366 9.85076 10.232 9.848L10.072 9.733L9.91201 9.848C9.90742 9.85151 9.90183 9.85345 9.89606 9.85354C9.89028 9.85363 9.88463 9.85187 9.87993 9.84851C9.87523 9.84516 9.87173 9.84038 9.86995 9.83489C9.86816 9.8294 9.86819 9.82348 9.87001 9.818L9.93001 9.631L9.77201 9.514C9.76778 9.51061 9.76466 9.50601 9.76308 9.50081C9.76149 9.49562 9.76151 9.49007 9.76313 9.48488C9.76475 9.4797 9.7679 9.47512 9.77216 9.47176C9.77642 9.46839 9.78159 9.46638 9.78701 9.466L9.98401 9.465L10.046 9.278C10.054 9.254 10.088 9.254 10.096 9.278V9.278ZM10.159 11.191L10.096 11.005C10.088 10.98 10.054 10.98 10.046 11.005L9.98401 11.191L9.78701 11.193C9.78159 11.1934 9.77642 11.1954 9.77216 11.1988C9.7679 11.2021 9.76475 11.2067 9.76313 11.2119C9.76151 11.2171 9.76149 11.2226 9.76308 11.2278C9.76466 11.233 9.76778 11.2376 9.77201 11.241L9.93001 11.358L9.87001 11.545C9.86845 11.5503 9.86856 11.556 9.87034 11.5613C9.87213 11.5665 9.87549 11.5711 9.87997 11.5744C9.88446 11.5777 9.88984 11.5795 9.8954 11.5796C9.90095 11.5797 9.90641 11.5781 9.91101 11.575L10.071 11.46L10.231 11.575C10.252 11.589 10.28 11.569 10.272 11.545L10.212 11.357L10.371 11.241C10.3753 11.2375 10.3784 11.2329 10.38 11.2276C10.3815 11.2223 10.3814 11.2167 10.3797 11.2114C10.3779 11.2062 10.3746 11.2017 10.3702 11.1984C10.3658 11.1951 10.3605 11.1932 10.355 11.193L10.159 11.191ZM10.096 12.591L10.159 12.778L10.355 12.78C10.381 12.78 10.391 12.812 10.371 12.827L10.213 12.944L10.272 13.132C10.274 13.1373 10.2743 13.1431 10.2727 13.1485C10.2711 13.1539 10.2678 13.1587 10.2633 13.1621C10.2588 13.1655 10.2533 13.1673 10.2477 13.1673C10.242 13.1673 10.2365 13.1654 10.232 13.162L10.072 13.047L9.91201 13.161C9.90772 13.1657 9.90187 13.1686 9.89556 13.1693C9.88924 13.1699 9.8829 13.1683 9.87774 13.1646C9.87257 13.1609 9.86894 13.1554 9.86751 13.1493C9.86609 13.1431 9.86698 13.1366 9.87001 13.131L9.93001 12.944L9.77201 12.827C9.76811 12.8235 9.76531 12.819 9.76393 12.814C9.76255 12.8089 9.76266 12.8036 9.76425 12.7986C9.76584 12.7937 9.76883 12.7893 9.77287 12.7859C9.77691 12.7826 9.78182 12.7806 9.78701 12.78L9.98401 12.778L10.046 12.591C10.054 12.567 10.088 12.567 10.096 12.591V12.591ZM10.159 14.221L10.096 14.034C10.088 14.01 10.054 14.01 10.046 14.034L9.98401 14.221L9.78701 14.223C9.78182 14.2236 9.77691 14.2256 9.77287 14.2289C9.76883 14.2323 9.76584 14.2367 9.76425 14.2416C9.76266 14.2466 9.76255 14.2519 9.76393 14.257C9.76531 14.262 9.76811 14.2665 9.77201 14.27L9.93001 14.387L9.87001 14.575C9.86845 14.5803 9.86856 14.586 9.87034 14.5913C9.87213 14.5965 9.87549 14.6011 9.87997 14.6044C9.88446 14.6077 9.88984 14.6095 9.8954 14.6096C9.90095 14.6097 9.90641 14.6081 9.91101 14.605L10.071 14.49L10.231 14.604C10.2356 14.6071 10.2411 14.6087 10.2466 14.6086C10.2522 14.6085 10.2576 14.6067 10.2621 14.6034C10.2665 14.6001 10.2699 14.5955 10.2717 14.5903C10.2735 14.585 10.2736 14.5793 10.272 14.574L10.212 14.387L10.371 14.27C10.3749 14.2665 10.3778 14.2619 10.3791 14.2567C10.3804 14.2516 10.3802 14.2462 10.3785 14.2412C10.3768 14.2362 10.3737 14.2318 10.3695 14.2286C10.3653 14.2253 10.3603 14.2234 10.355 14.223L10.159 14.221V14.221ZM10.853 8.459L10.915 8.645L11.112 8.647C11.138 8.647 11.148 8.679 11.128 8.695L10.969 8.811L11.029 8.999C11.0306 9.00433 11.0305 9.01002 11.0287 9.01528C11.0269 9.02054 11.0235 9.02513 11.0191 9.02841C11.0146 9.03169 11.0092 9.03351 11.0036 9.03361C10.9981 9.03372 10.9926 9.03211 10.988 9.029L10.828 8.914L10.668 9.028C10.6634 9.03076 10.6581 9.03209 10.6527 9.03181C10.6474 9.03153 10.6422 9.02966 10.6379 9.02644C10.6336 9.02323 10.6304 9.0188 10.6286 9.01374C10.6269 9.00867 10.6267 9.00319 10.628 8.998L10.687 8.811L10.528 8.695C10.5237 8.69155 10.5206 8.68686 10.5191 8.68158C10.5175 8.6763 10.5176 8.67067 10.5193 8.66545C10.5211 8.66023 10.5244 8.65566 10.5288 8.65236C10.5332 8.64907 10.5385 8.6472 10.544 8.647L10.741 8.645L10.803 8.459C10.805 8.45403 10.8085 8.44978 10.813 8.44679C10.8174 8.4438 10.8226 8.4422 10.828 8.4422C10.8334 8.4422 10.8386 8.4438 10.8431 8.44679C10.8475 8.44978 10.851 8.45403 10.853 8.459V8.459ZM10.916 10.371L10.853 10.185C10.845 10.161 10.811 10.161 10.803 10.185L10.741 10.371L10.544 10.373C10.5385 10.3732 10.5332 10.3751 10.5288 10.3784C10.5244 10.3817 10.5211 10.3862 10.5193 10.3914C10.5176 10.3967 10.5175 10.4023 10.5191 10.4076C10.5206 10.4129 10.5237 10.4175 10.528 10.421L10.687 10.538L10.627 10.725C10.6246 10.7304 10.6241 10.7365 10.6257 10.7422C10.6272 10.748 10.6306 10.753 10.6354 10.7565C10.6402 10.76 10.6461 10.7618 10.652 10.7615C10.6579 10.7612 10.6636 10.7589 10.668 10.755L10.828 10.64L10.988 10.755C10.9925 10.7584 10.998 10.7603 11.0037 10.7603C11.0093 10.7603 11.0148 10.7585 11.0193 10.7551C11.0238 10.7517 11.0271 10.7469 11.0287 10.7415C11.0303 10.7361 11.03 10.7303 11.028 10.725L10.969 10.538L11.128 10.421C11.1323 10.4175 11.1354 10.4129 11.137 10.4076C11.1385 10.4023 11.1384 10.3967 11.1367 10.3914C11.1349 10.3862 11.1316 10.3817 11.1272 10.3784C11.1228 10.3751 11.1175 10.3732 11.112 10.373L10.915 10.371H10.916ZM10.853 11.825L10.916 12.012L11.112 12.013C11.138 12.013 11.148 12.046 11.128 12.061L10.969 12.178L11.029 12.366C11.0304 12.3712 11.0302 12.3767 11.0284 12.3817C11.0266 12.3868 11.0234 12.3912 11.0191 12.3944C11.0148 12.3977 11.0096 12.3995 11.0043 12.3998C10.9989 12.4001 10.9936 12.3988 10.989 12.396L10.828 12.281L10.668 12.395C10.6634 12.3978 10.6581 12.3991 10.6527 12.3988C10.6474 12.3985 10.6422 12.3967 10.6379 12.3934C10.6336 12.3902 10.6304 12.3858 10.6286 12.3807C10.6269 12.3757 10.6267 12.3702 10.628 12.365L10.687 12.178L10.528 12.061C10.523 12.0579 10.5192 12.0533 10.5173 12.0477C10.5153 12.0422 10.5152 12.0362 10.517 12.0307C10.5189 12.0251 10.5226 12.0204 10.5275 12.0172C10.5324 12.0139 10.5382 12.0125 10.544 12.013L10.741 12.012L10.803 11.825C10.811 11.801 10.845 11.801 10.853 11.825V11.825ZM10.916 13.485L10.853 13.299C10.845 13.275 10.811 13.275 10.803 13.299L10.741 13.485L10.544 13.487C10.5382 13.4865 10.5324 13.4879 10.5275 13.4912C10.5226 13.4944 10.5189 13.4991 10.517 13.5047C10.5152 13.5102 10.5153 13.5162 10.5173 13.5217C10.5192 13.5273 10.523 13.5319 10.528 13.535L10.687 13.652L10.627 13.839C10.62 13.863 10.647 13.883 10.668 13.869L10.828 13.754L10.988 13.869C11.008 13.883 11.037 13.863 11.028 13.839L10.969 13.651L11.128 13.535C11.133 13.5319 11.1368 13.5273 11.1388 13.5217C11.1408 13.5162 11.1408 13.5102 11.139 13.5047C11.1371 13.4991 11.1335 13.4944 11.1286 13.4912C11.1237 13.4879 11.1178 13.4865 11.112 13.487L10.915 13.485H10.916ZM11.676 9.465L11.613 9.278C11.611 9.27304 11.6075 9.26878 11.6031 9.26579C11.5986 9.2628 11.5934 9.2612 11.588 9.2612C11.5826 9.2612 11.5774 9.2628 11.573 9.26579C11.5685 9.26878 11.565 9.27304 11.563 9.278L11.5 9.465L11.304 9.466C11.2982 9.46548 11.2923 9.46695 11.2875 9.47015C11.2826 9.47336 11.2789 9.47813 11.277 9.48368C11.2752 9.48923 11.2753 9.49524 11.2773 9.50075C11.2792 9.50625 11.283 9.51092 11.288 9.514L11.446 9.631L11.387 9.818C11.3857 9.82319 11.3859 9.82867 11.3876 9.83374C11.3894 9.8388 11.3926 9.84322 11.3969 9.84644C11.4012 9.84966 11.4064 9.85153 11.4117 9.85181C11.4171 9.85209 11.4224 9.85076 11.427 9.848L11.587 9.733L11.747 9.848C11.7516 9.85151 11.7572 9.85345 11.763 9.85354C11.7687 9.85363 11.7744 9.85187 11.7791 9.84851C11.7838 9.84516 11.7873 9.84038 11.7891 9.83489C11.7909 9.8294 11.7908 9.82348 11.789 9.818L11.729 9.631L11.888 9.514C11.8923 9.51055 11.8954 9.50586 11.897 9.50058C11.8985 9.4953 11.8984 9.48967 11.8967 9.48445C11.8949 9.47923 11.8916 9.47466 11.8872 9.47136C11.8828 9.46807 11.8775 9.4662 11.872 9.466L11.675 9.465H11.676ZM11.613 11.005L11.675 11.191L11.872 11.193C11.897 11.193 11.908 11.226 11.887 11.241L11.729 11.358L11.789 11.545C11.7906 11.5503 11.7905 11.556 11.7887 11.5613C11.7869 11.5665 11.7835 11.5711 11.7791 11.5744C11.7746 11.5777 11.7692 11.5795 11.7636 11.5796C11.7581 11.5797 11.7526 11.5781 11.748 11.575L11.588 11.46L11.428 11.575C11.4234 11.5778 11.4181 11.5791 11.4127 11.5788C11.4074 11.5785 11.4022 11.5767 11.3979 11.5734C11.3936 11.5702 11.3904 11.5658 11.3886 11.5607C11.3869 11.5557 11.3867 11.5502 11.388 11.545L11.446 11.357L11.288 11.241C11.2837 11.2375 11.2806 11.2329 11.2791 11.2276C11.2775 11.2223 11.2776 11.2167 11.2793 11.2114C11.2811 11.2062 11.2844 11.2017 11.2888 11.1984C11.2932 11.1951 11.2985 11.1932 11.304 11.193L11.5 11.191L11.563 11.005C11.565 11 11.5685 10.9958 11.573 10.9928C11.5774 10.9898 11.5826 10.9882 11.588 10.9882C11.5934 10.9882 11.5986 10.9898 11.6031 10.9928C11.6075 10.9958 11.611 11 11.613 11.005V11.005ZM11.675 12.778L11.613 12.591C11.611 12.586 11.6075 12.5818 11.6031 12.5788C11.5986 12.5758 11.5934 12.5742 11.588 12.5742C11.5826 12.5742 11.5774 12.5758 11.573 12.5788C11.5685 12.5818 11.565 12.586 11.563 12.591L11.5 12.778L11.304 12.78C11.2987 12.7804 11.2937 12.7823 11.2895 12.7856C11.2853 12.7888 11.2822 12.7932 11.2805 12.7982C11.2788 12.8032 11.2786 12.8086 11.2799 12.8137C11.2813 12.8189 11.2841 12.8235 11.288 12.827L11.446 12.944L11.387 13.132C11.385 13.1373 11.3848 13.1431 11.3863 13.1485C11.3879 13.1539 11.3912 13.1587 11.3957 13.1621C11.4002 13.1655 11.4057 13.1673 11.4114 13.1673C11.417 13.1673 11.4225 13.1654 11.427 13.162L11.587 13.047L11.747 13.161C11.7513 13.1657 11.7572 13.1686 11.7635 13.1693C11.7698 13.1699 11.7761 13.1683 11.7813 13.1646C11.7865 13.1609 11.7901 13.1554 11.7915 13.1493C11.7929 13.1431 11.792 13.1366 11.789 13.131L11.729 12.944L11.888 12.827C11.8919 12.8235 11.8948 12.8189 11.8961 12.8137C11.8974 12.8086 11.8972 12.8032 11.8955 12.7982C11.8938 12.7932 11.8907 12.7888 11.8865 12.7856C11.8823 12.7823 11.8773 12.7804 11.872 12.78L11.675 12.778V12.778ZM11.613 14.034L11.675 14.221L11.872 14.223C11.897 14.223 11.908 14.255 11.887 14.27L11.729 14.387L11.789 14.575C11.7906 14.5803 11.7905 14.586 11.7887 14.5913C11.7869 14.5965 11.7835 14.6011 11.7791 14.6044C11.7746 14.6077 11.7692 14.6095 11.7636 14.6096C11.7581 14.6097 11.7526 14.6081 11.748 14.605L11.588 14.49L11.428 14.604C11.4234 14.6068 11.4181 14.6081 11.4127 14.6078C11.4074 14.6075 11.4022 14.6057 11.3979 14.6024C11.3936 14.5992 11.3904 14.5948 11.3886 14.5897C11.3869 14.5847 11.3867 14.5792 11.388 14.574L11.446 14.387L11.288 14.27C11.2841 14.2665 11.2813 14.2619 11.2799 14.2567C11.2786 14.2516 11.2788 14.2462 11.2805 14.2412C11.2822 14.2362 11.2853 14.2318 11.2895 14.2286C11.2937 14.2253 11.2987 14.2234 11.304 14.223L11.5 14.221L11.563 14.034C11.565 14.029 11.5685 14.0248 11.573 14.0218C11.5774 14.0188 11.5826 14.0172 11.588 14.0172C11.5934 14.0172 11.5986 14.0188 11.6031 14.0218C11.6075 14.0248 11.611 14.029 11.613 14.034V14.034ZM12.431 8.645L12.369 8.459C12.367 8.45403 12.3635 8.44978 12.3591 8.44679C12.3546 8.4438 12.3494 8.4422 12.344 8.4422C12.3386 8.4422 12.3334 8.4438 12.329 8.44679C12.3245 8.44978 12.321 8.45403 12.319 8.459L12.256 8.645L12.06 8.647C12.0545 8.6472 12.0492 8.64907 12.0448 8.65236C12.0404 8.65566 12.0371 8.66023 12.0353 8.66545C12.0336 8.67067 12.0335 8.6763 12.0351 8.68158C12.0366 8.68686 12.0397 8.69155 12.044 8.695L12.202 8.811L12.142 8.999C12.1402 9.00448 12.1402 9.0104 12.1419 9.01589C12.1437 9.02138 12.1472 9.02616 12.1519 9.02952C12.1566 9.03287 12.1623 9.03463 12.1681 9.03454C12.1738 9.03445 12.1794 9.03251 12.184 9.029L12.344 8.914L12.504 9.028C12.5086 9.03076 12.5139 9.03209 12.5193 9.03181C12.5246 9.03153 12.5298 9.02966 12.5341 9.02644C12.5384 9.02323 12.5416 9.0188 12.5434 9.01374C12.5452 9.00867 12.5454 9.00319 12.544 8.998L12.485 8.811L12.643 8.695C12.6479 8.69195 12.6516 8.68737 12.6536 8.68199C12.6556 8.6766 12.6557 8.6707 12.654 8.66522C12.6523 8.65974 12.6488 8.65498 12.6441 8.65168C12.6394 8.64839 12.6338 8.64674 12.628 8.647L12.431 8.645V8.645ZM12.369 10.185L12.431 10.371L12.628 10.373C12.653 10.373 12.664 10.406 12.643 10.421L12.485 10.538L12.545 10.725C12.5474 10.7304 12.5479 10.7365 12.5464 10.7422C12.5448 10.748 12.5414 10.753 12.5366 10.7565C12.5318 10.76 12.526 10.7618 12.52 10.7615C12.5141 10.7612 12.5085 10.7589 12.504 10.755L12.344 10.64L12.184 10.755C12.163 10.77 12.135 10.75 12.143 10.725L12.203 10.538L12.044 10.421C12.0397 10.4175 12.0366 10.4129 12.0351 10.4076C12.0335 10.4023 12.0336 10.3967 12.0353 10.3914C12.0371 10.3862 12.0404 10.3817 12.0448 10.3784C12.0492 10.3751 12.0545 10.3732 12.06 10.373L12.256 10.371L12.319 10.185C12.321 10.18 12.3245 10.1758 12.329 10.1728C12.3334 10.1698 12.3386 10.1682 12.344 10.1682C12.3494 10.1682 12.3546 10.1698 12.3591 10.1728C12.3635 10.1758 12.367 10.18 12.369 10.185ZM12.431 12.012L12.369 11.825C12.367 11.82 12.3635 11.8158 12.3591 11.8128C12.3546 11.8098 12.3494 11.8082 12.344 11.8082C12.3386 11.8082 12.3334 11.8098 12.329 11.8128C12.3245 11.8158 12.321 11.82 12.319 11.825L12.256 12.012L12.06 12.013C12.0542 12.0125 12.0483 12.0139 12.0435 12.0172C12.0386 12.0204 12.0349 12.0251 12.033 12.0307C12.0312 12.0362 12.0313 12.0422 12.0333 12.0477C12.0352 12.0533 12.039 12.0579 12.044 12.061L12.202 12.178L12.142 12.366C12.135 12.39 12.162 12.41 12.184 12.396L12.344 12.281L12.504 12.395C12.5086 12.3978 12.5139 12.3991 12.5193 12.3988C12.5246 12.3985 12.5298 12.3967 12.5341 12.3934C12.5384 12.3902 12.5416 12.3858 12.5434 12.3807C12.5452 12.3757 12.5454 12.3702 12.544 12.365L12.485 12.178L12.643 12.061C12.6479 12.058 12.6516 12.0534 12.6536 12.048C12.6556 12.0426 12.6557 12.0367 12.654 12.0312C12.6523 12.0257 12.6488 12.021 12.6441 12.0177C12.6394 12.0144 12.6338 12.0127 12.628 12.013L12.431 12.012V12.012ZM12.369 13.299L12.431 13.485L12.628 13.487C12.653 13.487 12.664 13.52 12.643 13.535L12.485 13.652L12.545 13.839C12.5474 13.8444 12.5479 13.8505 12.5464 13.8562C12.5448 13.862 12.5414 13.867 12.5366 13.8705C12.5318 13.874 12.526 13.8758 12.52 13.8755C12.5141 13.8752 12.5085 13.8729 12.504 13.869L12.344 13.754L12.184 13.869C12.1794 13.8721 12.174 13.8737 12.1684 13.8736C12.1628 13.8735 12.1575 13.8717 12.153 13.8684C12.1485 13.8651 12.1451 13.8605 12.1433 13.8553C12.1416 13.85 12.1414 13.8443 12.143 13.839L12.203 13.651L12.044 13.535C12.039 13.5319 12.0352 13.5273 12.0333 13.5217C12.0313 13.5162 12.0312 13.5102 12.033 13.5047C12.0349 13.4991 12.0386 13.4944 12.0435 13.4912C12.0483 13.4879 12.0542 13.4865 12.06 13.487L12.256 13.485L12.319 13.299C12.321 13.294 12.3245 13.2898 12.329 13.2868C12.3334 13.2838 12.3386 13.2822 12.344 13.2822C12.3494 13.2822 12.3546 13.2838 12.3591 13.2868C12.3635 13.2898 12.367 13.294 12.369 13.299ZM13.191 7.909L13.129 7.721C13.121 7.697 13.086 7.697 13.079 7.721L13.016 7.908L12.819 7.91C12.8136 7.91007 12.8083 7.91186 12.8039 7.9151C12.7995 7.91835 12.7962 7.9229 12.7946 7.9281C12.7929 7.9333 12.7929 7.93889 12.7946 7.94407C12.7963 7.94926 12.7996 7.95379 12.804 7.957L12.962 8.074L12.902 8.262C12.9004 8.26733 12.9006 8.27302 12.9023 8.27828C12.9041 8.28354 12.9075 8.28813 12.912 8.29141C12.9165 8.29469 12.9218 8.29651 12.9274 8.29661C12.933 8.29672 12.9384 8.29511 12.943 8.292L13.103 8.177L13.263 8.291C13.2676 8.29411 13.2731 8.29572 13.2786 8.29561C13.2842 8.29551 13.2896 8.29369 13.2941 8.29041C13.2985 8.28713 13.3019 8.28254 13.3037 8.27728C13.3055 8.27202 13.3056 8.26633 13.304 8.261L13.244 8.074L13.404 7.957C13.408 7.95341 13.4108 7.94871 13.4121 7.94351C13.4134 7.93831 13.4131 7.93284 13.4113 7.9278C13.4095 7.92276 13.4062 7.91837 13.4019 7.9152C13.3975 7.91203 13.3924 7.91022 13.387 7.91L13.191 7.908V7.909ZM13.129 9.278L13.191 9.465L13.387 9.466C13.413 9.466 13.424 9.499 13.403 9.514L13.245 9.631L13.305 9.818C13.3066 9.82333 13.3065 9.82902 13.3047 9.83428C13.3029 9.83954 13.2995 9.84413 13.2951 9.84741C13.2906 9.85069 13.2852 9.85251 13.2796 9.85261C13.2741 9.85272 13.2686 9.85111 13.264 9.848L13.104 9.733L12.944 9.848C12.9394 9.85111 12.934 9.85272 12.9284 9.85261C12.9228 9.85251 12.9175 9.85069 12.913 9.84741C12.9085 9.84413 12.9051 9.83954 12.9033 9.83428C12.9016 9.82902 12.9014 9.82333 12.903 9.818L12.962 9.631L12.804 9.514C12.7998 9.51061 12.7967 9.50601 12.7951 9.50081C12.7935 9.49562 12.7935 9.49007 12.7951 9.48488C12.7968 9.4797 12.7999 9.47512 12.8042 9.47176C12.8084 9.46839 12.8136 9.46638 12.819 9.466L13.016 9.464L13.078 9.278C13.08 9.27304 13.0835 9.26878 13.088 9.26579C13.0924 9.2628 13.0976 9.2612 13.103 9.2612C13.1084 9.2612 13.1136 9.2628 13.1181 9.26579C13.1225 9.26878 13.126 9.27304 13.128 9.278H13.129ZM13.191 11.191L13.129 11.005C13.1275 10.9996 13.1242 10.9948 13.1197 10.9914C13.1152 10.988 13.1097 10.9861 13.104 10.9861C13.0984 10.9861 13.0929 10.988 13.0884 10.9914C13.0838 10.9948 13.0806 10.9996 13.079 11.005L13.016 11.191L12.819 11.193C12.8136 11.1934 12.8084 11.1954 12.8042 11.1988C12.7999 11.2021 12.7968 11.2067 12.7951 11.2119C12.7935 11.2171 12.7935 11.2226 12.7951 11.2278C12.7967 11.233 12.7998 11.2376 12.804 11.241L12.962 11.358L12.902 11.545C12.9004 11.5503 12.9006 11.556 12.9023 11.5613C12.9041 11.5665 12.9075 11.5711 12.912 11.5744C12.9165 11.5777 12.9218 11.5795 12.9274 11.5796C12.933 11.5797 12.9384 11.5781 12.943 11.575L13.103 11.46L13.263 11.575C13.284 11.589 13.312 11.569 13.304 11.545L13.244 11.357L13.404 11.241C13.4084 11.2375 13.4115 11.2327 13.413 11.2273C13.4145 11.222 13.4144 11.2163 13.4125 11.211C13.4106 11.2057 13.4072 11.2012 13.4026 11.1979C13.398 11.1947 13.3926 11.193 13.387 11.193L13.191 11.191ZM13.129 12.591L13.191 12.778L13.387 12.78C13.413 12.78 13.424 12.812 13.403 12.827L13.245 12.944L13.305 13.132C13.3074 13.1374 13.3079 13.1435 13.3064 13.1492C13.3048 13.155 13.3014 13.16 13.2966 13.1635C13.2918 13.167 13.286 13.1688 13.28 13.1685C13.2741 13.1682 13.2685 13.1659 13.264 13.162L13.104 13.047L12.944 13.161C12.9396 13.1649 12.9339 13.1672 12.928 13.1675C12.9221 13.1678 12.9162 13.166 12.9114 13.1625C12.9066 13.159 12.9032 13.154 12.9017 13.1482C12.9001 13.1425 12.9006 13.1364 12.903 13.131L12.962 12.944L12.804 12.827C12.8001 12.8235 12.7973 12.819 12.7959 12.814C12.7946 12.8089 12.7947 12.8036 12.7962 12.7986C12.7978 12.7937 12.8008 12.7893 12.8049 12.7859C12.8089 12.7826 12.8138 12.7806 12.819 12.78L13.016 12.778L13.078 12.591C13.0796 12.5856 13.0828 12.5808 13.0874 12.5774C13.0919 12.574 13.0974 12.5721 13.103 12.5721C13.1087 12.5721 13.1142 12.574 13.1187 12.5774C13.1232 12.5808 13.1265 12.5856 13.128 12.591H13.129ZM13.191 14.221L13.129 14.034C13.1275 14.0286 13.1242 14.0238 13.1197 14.0204C13.1152 14.017 13.1097 14.0151 13.104 14.0151C13.0984 14.0151 13.0929 14.017 13.0884 14.0204C13.0838 14.0238 13.0806 14.0286 13.079 14.034L13.016 14.221L12.819 14.223C12.8138 14.2236 12.8089 14.2256 12.8049 14.2289C12.8008 14.2323 12.7978 14.2367 12.7962 14.2416C12.7947 14.2466 12.7946 14.2519 12.7959 14.257C12.7973 14.262 12.8001 14.2665 12.804 14.27L12.962 14.387L12.902 14.575C12.895 14.599 12.922 14.619 12.943 14.605L13.103 14.49L13.263 14.604C13.2676 14.6071 13.2731 14.6087 13.2786 14.6086C13.2842 14.6085 13.2896 14.6067 13.2941 14.6034C13.2985 14.6001 13.3019 14.5955 13.3037 14.5903C13.3055 14.585 13.3056 14.5793 13.304 14.574L13.244 14.387L13.404 14.27C13.408 14.2664 13.4108 14.2617 13.4121 14.2565C13.4134 14.2513 13.4131 14.2458 13.4113 14.2408C13.4095 14.2358 13.4062 14.2314 13.4019 14.2282C13.3975 14.225 13.3924 14.2232 13.387 14.223L13.191 14.221V14.221ZM13.885 8.459L13.948 8.645L14.144 8.647C14.17 8.647 14.18 8.679 14.16 8.695L14.002 8.811L14.061 8.999C14.0624 9.00419 14.0622 9.00967 14.0604 9.01474C14.0586 9.0198 14.0554 9.02423 14.0511 9.02744C14.0468 9.03066 14.0416 9.03253 14.0363 9.03281C14.0309 9.03309 14.0256 9.03176 14.021 9.029L13.861 8.914L13.701 9.028C13.6964 9.03151 13.6908 9.03345 13.6851 9.03354C13.6793 9.03363 13.6736 9.03187 13.6689 9.02851C13.6642 9.02516 13.6607 9.02038 13.6589 9.01489C13.6572 9.0094 13.6572 9.00348 13.659 8.998L13.719 8.811L13.561 8.695C13.5568 8.69161 13.5537 8.68701 13.5521 8.68181C13.5505 8.67662 13.5505 8.67107 13.5521 8.66588C13.5538 8.6607 13.5569 8.65612 13.5612 8.65276C13.5654 8.64939 13.5706 8.64738 13.576 8.647L13.773 8.645L13.835 8.459C13.837 8.45403 13.8405 8.44978 13.845 8.44679C13.8494 8.4438 13.8546 8.4422 13.86 8.4422C13.8654 8.4422 13.8706 8.4438 13.8751 8.44679C13.8795 8.44978 13.883 8.45403 13.885 8.459V8.459ZM13.948 10.371L13.885 10.185C13.883 10.18 13.8795 10.1758 13.8751 10.1728C13.8706 10.1698 13.8654 10.1682 13.86 10.1682C13.8546 10.1682 13.8494 10.1698 13.845 10.1728C13.8405 10.1758 13.837 10.18 13.835 10.185L13.773 10.371L13.576 10.373C13.5706 10.3734 13.5654 10.3754 13.5612 10.3788C13.5569 10.3821 13.5538 10.3867 13.5521 10.3919C13.5505 10.3971 13.5505 10.4026 13.5521 10.4078C13.5537 10.413 13.5568 10.4176 13.561 10.421L13.719 10.538L13.659 10.725C13.6566 10.7304 13.6561 10.7365 13.6577 10.7422C13.6592 10.748 13.6626 10.753 13.6674 10.7565C13.6722 10.76 13.6781 10.7618 13.684 10.7615C13.6899 10.7612 13.6956 10.7589 13.7 10.755L13.86 10.64L14.02 10.755C14.0245 10.7589 14.0301 10.7612 14.036 10.7615C14.042 10.7618 14.0478 10.76 14.0526 10.7565C14.0574 10.753 14.0608 10.748 14.0624 10.7422C14.0639 10.7365 14.0634 10.7304 14.061 10.725L14.001 10.538L14.16 10.421C14.1643 10.4175 14.1674 10.4129 14.169 10.4076C14.1705 10.4023 14.1704 10.3967 14.1687 10.3914C14.1669 10.3862 14.1636 10.3817 14.1592 10.3784C14.1548 10.3751 14.1495 10.3732 14.144 10.373L13.948 10.371ZM13.885 11.825L13.948 12.012L14.144 12.013C14.17 12.013 14.18 12.046 14.16 12.061L14.002 12.178L14.061 12.366C14.0624 12.3712 14.0622 12.3767 14.0604 12.3817C14.0586 12.3868 14.0554 12.3912 14.0511 12.3944C14.0468 12.3977 14.0416 12.3995 14.0363 12.3998C14.0309 12.4001 14.0256 12.3988 14.021 12.396L13.861 12.281L13.701 12.395C13.6964 12.3985 13.6908 12.4004 13.6851 12.4005C13.6793 12.4006 13.6736 12.3989 13.6689 12.3955C13.6642 12.3922 13.6607 12.3874 13.6589 12.3819C13.6572 12.3764 13.6572 12.3705 13.659 12.365L13.719 12.178L13.561 12.061C13.5561 12.058 13.5524 12.0534 13.5504 12.048C13.5484 12.0426 13.5483 12.0367 13.55 12.0312C13.5517 12.0257 13.5552 12.021 13.5599 12.0177C13.5646 12.0144 13.5703 12.0127 13.576 12.013L13.773 12.012L13.835 11.825C13.837 11.82 13.8405 11.8158 13.845 11.8128C13.8494 11.8098 13.8546 11.8082 13.86 11.8082C13.8654 11.8082 13.8706 11.8098 13.8751 11.8128C13.8795 11.8158 13.883 11.82 13.885 11.825V11.825ZM13.948 13.485L13.885 13.299C13.883 13.294 13.8795 13.2898 13.8751 13.2868C13.8706 13.2838 13.8654 13.2822 13.86 13.2822C13.8546 13.2822 13.8494 13.2838 13.845 13.2868C13.8405 13.2898 13.837 13.294 13.835 13.299L13.773 13.485L13.576 13.487C13.5703 13.4867 13.5646 13.4884 13.5599 13.4917C13.5552 13.495 13.5517 13.4997 13.55 13.5052C13.5483 13.5107 13.5484 13.5166 13.5504 13.522C13.5524 13.5274 13.5561 13.532 13.561 13.535L13.719 13.652L13.659 13.839C13.652 13.863 13.679 13.883 13.7 13.869L13.86 13.754L14.02 13.869C14.041 13.883 14.069 13.863 14.061 13.839L14.001 13.651L14.16 13.535C14.165 13.5319 14.1688 13.5273 14.1708 13.5217C14.1728 13.5162 14.1728 13.5102 14.171 13.5047C14.1691 13.4991 14.1655 13.4944 14.1606 13.4912C14.1557 13.4879 14.1498 13.4865 14.144 13.487L13.948 13.485ZM14.643 7.721L14.706 7.908L14.902 7.91C14.928 7.91 14.938 7.942 14.918 7.957L14.759 8.074L14.819 8.262C14.821 8.26728 14.8213 8.27307 14.8197 8.2785C14.8181 8.28393 14.8148 8.2887 14.8103 8.29209C14.8058 8.29548 14.8003 8.29731 14.7947 8.29729C14.789 8.29727 14.7835 8.29542 14.779 8.292L14.619 8.177L14.459 8.291C14.4544 8.29451 14.4488 8.29645 14.4431 8.29654C14.4373 8.29663 14.4316 8.29487 14.4269 8.29151C14.4222 8.28816 14.4187 8.28338 14.417 8.27789C14.4152 8.2724 14.4152 8.26648 14.417 8.261L14.477 8.074L14.318 7.957C14.3135 7.95374 14.3102 7.94912 14.3085 7.94383C14.3069 7.93855 14.3069 7.93286 14.3087 7.92762C14.3105 7.92237 14.3139 7.91783 14.3185 7.91466C14.323 7.91149 14.3285 7.90986 14.334 7.91L14.531 7.908L14.593 7.721C14.601 7.697 14.635 7.697 14.643 7.721V7.721ZM14.706 9.465L14.643 9.278C14.635 9.254 14.601 9.254 14.593 9.278L14.531 9.465L14.334 9.466C14.3285 9.4662 14.3232 9.46807 14.3188 9.47136C14.3144 9.47466 14.3111 9.47923 14.3093 9.48445C14.3076 9.48967 14.3075 9.4953 14.3091 9.50058C14.3106 9.50586 14.3137 9.51055 14.318 9.514L14.477 9.631L14.417 9.818C14.4154 9.82333 14.4156 9.82902 14.4173 9.83428C14.4191 9.83954 14.4225 9.84413 14.427 9.84741C14.4315 9.85069 14.4368 9.85251 14.4424 9.85261C14.448 9.85272 14.4534 9.85111 14.458 9.848L14.618 9.733L14.778 9.848C14.7825 9.85142 14.788 9.85327 14.7937 9.85329C14.7993 9.85331 14.8048 9.85148 14.8093 9.84809C14.8138 9.8447 14.8171 9.83993 14.8187 9.8345C14.8203 9.82907 14.82 9.82328 14.818 9.818L14.759 9.631L14.918 9.514C14.9223 9.51055 14.9254 9.50586 14.927 9.50058C14.9285 9.4953 14.9284 9.48967 14.9267 9.48445C14.9249 9.47923 14.9216 9.47466 14.9172 9.47136C14.9128 9.46807 14.9075 9.4662 14.902 9.466L14.706 9.465V9.465ZM14.643 11.005L14.706 11.191L14.902 11.193C14.928 11.193 14.938 11.226 14.918 11.241L14.759 11.358L14.819 11.545C14.821 11.5503 14.8213 11.5561 14.8197 11.5615C14.8181 11.5669 14.8148 11.5717 14.8103 11.5751C14.8058 11.5785 14.8003 11.5803 14.7947 11.5803C14.789 11.5803 14.7835 11.5784 14.779 11.575L14.619 11.46L14.459 11.575C14.4544 11.5785 14.4488 11.5804 14.4431 11.5805C14.4373 11.5806 14.4316 11.5789 14.4269 11.5755C14.4222 11.5722 14.4187 11.5674 14.417 11.5619C14.4152 11.5564 14.4152 11.5505 14.417 11.545L14.477 11.357L14.318 11.241C14.3137 11.2375 14.3106 11.2329 14.3091 11.2276C14.3075 11.2223 14.3076 11.2167 14.3093 11.2114C14.3111 11.2062 14.3144 11.2017 14.3188 11.1984C14.3232 11.1951 14.3285 11.1932 14.334 11.193L14.531 11.191L14.593 11.005C14.601 10.98 14.635 10.98 14.643 11.005ZM14.706 12.778L14.643 12.591C14.635 12.567 14.601 12.567 14.593 12.591L14.531 12.778L14.334 12.78C14.3287 12.7804 14.3237 12.7823 14.3195 12.7856C14.3153 12.7888 14.3122 12.7932 14.3105 12.7982C14.3088 12.8032 14.3086 12.8086 14.3099 12.8137C14.3113 12.8189 14.3141 12.8235 14.318 12.827L14.477 12.944L14.417 13.132C14.4146 13.1374 14.4141 13.1435 14.4157 13.1492C14.4172 13.155 14.4206 13.16 14.4254 13.1635C14.4302 13.167 14.4361 13.1688 14.442 13.1685C14.4479 13.1682 14.4536 13.1659 14.458 13.162L14.618 13.047L14.778 13.161C14.7825 13.1644 14.788 13.1663 14.7937 13.1663C14.7993 13.1663 14.8048 13.1645 14.8093 13.1611C14.8138 13.1577 14.8171 13.1529 14.8187 13.1475C14.8203 13.1421 14.82 13.1363 14.818 13.131L14.759 12.944L14.918 12.827C14.9219 12.8235 14.9248 12.8189 14.9261 12.8137C14.9274 12.8086 14.9272 12.8032 14.9255 12.7982C14.9238 12.7932 14.9207 12.7888 14.9165 12.7856C14.9123 12.7823 14.9073 12.7804 14.902 12.78L14.706 12.778V12.778ZM14.643 14.034L14.706 14.221L14.902 14.223C14.928 14.223 14.938 14.255 14.918 14.27L14.759 14.387L14.819 14.575C14.821 14.5803 14.8213 14.5861 14.8197 14.5915C14.8181 14.5969 14.8148 14.6017 14.8103 14.6051C14.8058 14.6085 14.8003 14.6103 14.7947 14.6103C14.789 14.6103 14.7835 14.6084 14.779 14.605L14.619 14.49L14.459 14.604C14.4544 14.6075 14.4488 14.6094 14.4431 14.6095C14.4373 14.6096 14.4316 14.6079 14.4269 14.6045C14.4222 14.6012 14.4187 14.5964 14.417 14.5909C14.4152 14.5854 14.4152 14.5795 14.417 14.574L14.477 14.387L14.318 14.27C14.3141 14.2665 14.3113 14.2619 14.3099 14.2567C14.3086 14.2516 14.3088 14.2462 14.3105 14.2412C14.3122 14.2362 14.3153 14.2318 14.3195 14.2286C14.3237 14.2253 14.3287 14.2234 14.334 14.223L14.531 14.221L14.593 14.034C14.601 14.01 14.635 14.01 14.643 14.034V14.034ZM15.461 8.645L15.4 8.46C15.398 8.45504 15.3945 8.45078 15.3901 8.44779C15.3856 8.4448 15.3804 8.4432 15.375 8.4432C15.3696 8.4432 15.3644 8.4448 15.36 8.44779C15.3555 8.45078 15.352 8.45504 15.35 8.46L15.287 8.646L15.091 8.648C15.0855 8.6482 15.0802 8.65007 15.0758 8.65336C15.0714 8.65666 15.0681 8.66123 15.0663 8.66645C15.0646 8.67167 15.0645 8.6773 15.0661 8.68258C15.0676 8.68786 15.0707 8.69255 15.075 8.696L15.234 8.812L15.174 9C15.1727 9.00519 15.1729 9.01067 15.1746 9.01574C15.1764 9.0208 15.1796 9.02523 15.1839 9.02844C15.1882 9.03166 15.1934 9.03353 15.1987 9.03381C15.2041 9.03409 15.2094 9.03276 15.214 9.03L15.375 8.915L15.535 9.029C15.5396 9.03176 15.5449 9.03309 15.5503 9.03281C15.5556 9.03253 15.5608 9.03066 15.5651 9.02744C15.5694 9.02423 15.5726 9.0198 15.5744 9.01474C15.5762 9.00967 15.5764 9.00419 15.575 8.999L15.516 8.812L15.675 8.696C15.68 8.69292 15.6838 8.68825 15.6858 8.68275C15.6878 8.67724 15.6878 8.67123 15.686 8.66568C15.6841 8.66013 15.6805 8.65536 15.6756 8.65215C15.6707 8.64895 15.6648 8.64748 15.659 8.648L15.462 8.646L15.461 8.645ZM15.399 10.185L15.461 10.371L15.658 10.373C15.684 10.373 15.694 10.406 15.674 10.421L15.515 10.538L15.575 10.725C15.5774 10.7304 15.5779 10.7365 15.5764 10.7422C15.5748 10.748 15.5714 10.753 15.5666 10.7565C15.5618 10.76 15.556 10.7618 15.55 10.7615C15.5441 10.7612 15.5385 10.7589 15.534 10.755L15.374 10.64L15.214 10.755C15.2095 10.7584 15.204 10.7603 15.1984 10.7603C15.1927 10.7603 15.1872 10.7585 15.1827 10.7551C15.1782 10.7517 15.1749 10.7469 15.1733 10.7415C15.1718 10.7361 15.172 10.7303 15.174 10.725L15.233 10.538L15.074 10.421C15.0697 10.4175 15.0666 10.4129 15.0651 10.4076C15.0635 10.4023 15.0636 10.3967 15.0653 10.3914C15.0671 10.3862 15.0704 10.3817 15.0748 10.3784C15.0792 10.3751 15.0845 10.3732 15.09 10.373L15.287 10.371L15.349 10.185C15.351 10.18 15.3545 10.1758 15.359 10.1728C15.3634 10.1698 15.3686 10.1682 15.374 10.1682C15.3794 10.1682 15.3846 10.1698 15.3891 10.1728C15.3935 10.1758 15.397 10.18 15.399 10.185V10.185ZM15.461 12.012L15.399 11.825C15.397 11.82 15.3935 11.8158 15.3891 11.8128C15.3846 11.8098 15.3794 11.8082 15.374 11.8082C15.3686 11.8082 15.3634 11.8098 15.359 11.8128C15.3545 11.8158 15.351 11.82 15.349 11.825L15.286 12.012L15.09 12.013C15.0842 12.0125 15.0783 12.0139 15.0735 12.0172C15.0686 12.0204 15.0649 12.0251 15.063 12.0307C15.0612 12.0362 15.0613 12.0422 15.0633 12.0477C15.0652 12.0533 15.069 12.0579 15.074 12.061L15.233 12.178L15.173 12.366C15.1717 12.3712 15.1719 12.3767 15.1736 12.3817C15.1754 12.3868 15.1786 12.3912 15.1829 12.3944C15.1872 12.3977 15.1924 12.3995 15.1977 12.3998C15.2031 12.4001 15.2084 12.3988 15.213 12.396L15.374 12.281L15.534 12.395C15.5386 12.3978 15.5439 12.3991 15.5493 12.3988C15.5546 12.3985 15.5598 12.3967 15.5641 12.3934C15.5684 12.3902 15.5716 12.3858 15.5734 12.3807C15.5752 12.3757 15.5754 12.3702 15.574 12.365L15.515 12.178L15.674 12.061C15.679 12.0579 15.6828 12.0533 15.6848 12.0477C15.6868 12.0422 15.6868 12.0362 15.685 12.0307C15.6831 12.0251 15.6795 12.0204 15.6746 12.0172C15.6697 12.0139 15.6638 12.0125 15.658 12.013L15.461 12.012V12.012ZM15.399 13.299L15.461 13.485L15.658 13.487C15.684 13.487 15.694 13.52 15.674 13.535L15.515 13.652L15.575 13.839C15.582 13.863 15.555 13.883 15.534 13.869L15.374 13.754L15.214 13.869C15.194 13.883 15.165 13.863 15.174 13.839L15.233 13.651L15.074 13.535C15.069 13.5319 15.0652 13.5273 15.0633 13.5217C15.0613 13.5162 15.0612 13.5102 15.063 13.5047C15.0649 13.4991 15.0686 13.4944 15.0735 13.4912C15.0783 13.4879 15.0842 13.4865 15.09 13.487L15.287 13.485L15.349 13.299C15.351 13.294 15.3545 13.2898 15.359 13.2868C15.3634 13.2838 15.3686 13.2822 15.374 13.2822C15.3794 13.2822 15.3846 13.2838 15.3891 13.2868C15.3935 13.2898 15.397 13.294 15.399 13.299V13.299ZM16.22 7.909L16.158 7.721C16.15 7.697 16.116 7.697 16.108 7.721L16.045 7.908L15.849 7.91C15.8435 7.90986 15.838 7.91149 15.8335 7.91466C15.8289 7.91783 15.8255 7.92237 15.8237 7.92762C15.8219 7.93286 15.8219 7.93855 15.8235 7.94383C15.8252 7.94912 15.8285 7.95374 15.833 7.957L15.991 8.074L15.932 8.262C15.9307 8.26719 15.9309 8.27267 15.9326 8.27774C15.9344 8.2828 15.9376 8.28723 15.9419 8.29044C15.9462 8.29366 15.9514 8.29553 15.9567 8.29581C15.9621 8.29609 15.9674 8.29476 15.972 8.292L16.132 8.177L16.292 8.291C16.2966 8.29411 16.3021 8.29572 16.3076 8.29561C16.3132 8.29551 16.3186 8.29369 16.3231 8.29041C16.3275 8.28713 16.3309 8.28254 16.3327 8.27728C16.3345 8.27202 16.3346 8.26633 16.333 8.261L16.274 8.074L16.432 7.957C16.4364 7.95379 16.4397 7.94926 16.4414 7.94407C16.4431 7.93889 16.4431 7.9333 16.4415 7.9281C16.4398 7.9229 16.4365 7.91835 16.4322 7.9151C16.4278 7.91186 16.4225 7.91007 16.417 7.91L16.22 7.908V7.909ZM16.158 9.278L16.22 9.465L16.417 9.466C16.442 9.466 16.453 9.499 16.432 9.514L16.274 9.631L16.334 9.818C16.3356 9.82333 16.3355 9.82902 16.3337 9.83428C16.3319 9.83954 16.3285 9.84413 16.3241 9.84741C16.3196 9.85069 16.3142 9.85251 16.3086 9.85261C16.3031 9.85272 16.2976 9.85111 16.293 9.848L16.133 9.733L15.973 9.848C15.9684 9.85111 15.963 9.85272 15.9574 9.85261C15.9518 9.85251 15.9465 9.85069 15.942 9.84741C15.9375 9.84413 15.9341 9.83954 15.9323 9.83428C15.9306 9.82902 15.9304 9.82333 15.932 9.818L15.992 9.631L15.833 9.514C15.828 9.51092 15.8242 9.50625 15.8223 9.50075C15.8203 9.49524 15.8202 9.48923 15.822 9.48368C15.8239 9.47813 15.8276 9.47336 15.8325 9.47015C15.8373 9.46695 15.8432 9.46548 15.849 9.466L16.045 9.465L16.108 9.278C16.116 9.254 16.15 9.254 16.158 9.278V9.278ZM16.22 11.191L16.158 11.005C16.15 10.98 16.116 10.98 16.108 11.005L16.045 11.191L15.849 11.193C15.8435 11.1932 15.8382 11.1951 15.8338 11.1984C15.8294 11.2017 15.8261 11.2062 15.8243 11.2114C15.8226 11.2167 15.8225 11.2223 15.8241 11.2276C15.8256 11.2329 15.8287 11.2375 15.833 11.241L15.991 11.358L15.932 11.545C15.9307 11.5502 15.9309 11.5557 15.9326 11.5607C15.9344 11.5658 15.9376 11.5702 15.9419 11.5734C15.9462 11.5767 15.9514 11.5785 15.9567 11.5788C15.9621 11.5791 15.9674 11.5778 15.972 11.575L16.132 11.46L16.292 11.575C16.2966 11.5781 16.3021 11.5797 16.3076 11.5796C16.3132 11.5795 16.3186 11.5777 16.3231 11.5744C16.3275 11.5711 16.3309 11.5665 16.3327 11.5613C16.3345 11.556 16.3346 11.5503 16.333 11.545L16.274 11.357L16.432 11.241C16.4363 11.2376 16.4394 11.233 16.441 11.2278C16.4425 11.2226 16.4425 11.2171 16.4409 11.2119C16.4393 11.2067 16.4361 11.2021 16.4319 11.1988C16.4276 11.1954 16.4224 11.1934 16.417 11.193L16.22 11.191ZM16.158 12.591L16.22 12.778L16.417 12.78C16.442 12.78 16.453 12.812 16.432 12.827L16.274 12.944L16.334 13.132C16.3364 13.1374 16.3369 13.1435 16.3354 13.1492C16.3338 13.155 16.3304 13.16 16.3256 13.1635C16.3208 13.167 16.315 13.1688 16.309 13.1685C16.3031 13.1682 16.2975 13.1659 16.293 13.162L16.133 13.047L15.973 13.161C15.9686 13.1649 15.9629 13.1672 15.957 13.1675C15.9511 13.1678 15.9452 13.166 15.9404 13.1625C15.9356 13.159 15.9322 13.154 15.9307 13.1482C15.9291 13.1425 15.9296 13.1364 15.932 13.131L15.992 12.944L15.833 12.827C15.8291 12.8235 15.8263 12.8189 15.8249 12.8137C15.8236 12.8086 15.8238 12.8032 15.8255 12.7982C15.8272 12.7932 15.8303 12.7888 15.8345 12.7856C15.8387 12.7823 15.8437 12.7804 15.849 12.78L16.045 12.778L16.108 12.591C16.116 12.567 16.15 12.567 16.158 12.591V12.591ZM16.22 14.221L16.158 14.034C16.15 14.01 16.116 14.01 16.108 14.034L16.045 14.221L15.849 14.223C15.8437 14.2234 15.8387 14.2253 15.8345 14.2286C15.8303 14.2318 15.8272 14.2362 15.8255 14.2412C15.8238 14.2462 15.8236 14.2516 15.8249 14.2567C15.8263 14.2619 15.8291 14.2665 15.833 14.27L15.991 14.387L15.932 14.575C15.924 14.599 15.952 14.619 15.972 14.605L16.132 14.49L16.292 14.604C16.313 14.619 16.342 14.599 16.333 14.574L16.274 14.387L16.432 14.27C16.4359 14.2665 16.4387 14.262 16.4401 14.257C16.4415 14.2519 16.4414 14.2466 16.4398 14.2416C16.4382 14.2367 16.4352 14.2323 16.4312 14.2289C16.4271 14.2256 16.4222 14.2236 16.417 14.223L16.22 14.221V14.221Z" fill="#F5F5F5"/>
</g>
<defs>
<clipPath id="clip0">
<rect width="24" height="24" fill="white"/>
</clipPath>
</defs>
</svg>
