<svg width="20" height="20" viewBox="0 0 20 20" fill="none" xmlns="http://www.w3.org/2000/svg">
<g clip-path="url(#clip0_390_3506)">
<path d="M14.1259 7.45999C14.0559 7.52999 13.9619 7.56999 13.8639 7.56999H4.57392C4.24592 7.56999 4.07992 7.16999 4.30792 6.93199L5.83192 5.35399C5.90192 5.28199 5.99792 5.23999 6.09792 5.23999H15.4219C15.7519 5.23999 15.9179 5.64399 15.6839 5.88199L14.1259 7.45999ZM14.1259 14.512C14.0559 14.58 13.9619 14.62 13.8639 14.62H4.57392C4.24592 14.62 4.07992 14.23 4.30792 13.998L5.83192 12.458C5.90192 12.388 5.99792 12.348 6.09792 12.348H15.4219C15.7519 12.348 15.9179 12.742 15.6839 12.974L14.1259 14.512ZM13.8639 8.79399C13.9619 8.79399 14.0559 8.83199 14.1259 8.90199L15.6839 10.442C15.9179 10.672 15.7519 11.068 15.4219 11.068H6.09792C5.99792 11.068 5.90192 11.028 5.83192 10.958L4.30792 9.41799C4.07792 9.18599 4.24392 8.79599 4.57392 8.79599L13.8639 8.79399Z" fill="#00FFAD"/>
<path d="M10 0C15.522 0 20 4.478 20 10C20 15.522 15.522 20 10 20C4.478 20 0 15.522 0 10C0 4.478 4.478 0 10 0Z" fill="black"/>
<path fill-rule="evenodd" clip-rule="evenodd" d="M4.62393 9.04599H13.8779C13.9939 9.04599 14.1039 9.09199 14.1839 9.17399L15.6479 10.648C15.9179 10.92 15.7259 11.384 15.3419 11.384H6.08794C5.97193 11.384 5.86194 11.338 5.78194 11.256L4.31793 9.78199C4.04593 9.50999 4.23993 9.04599 4.62393 9.04599ZM4.31793 7.09199L5.78194 5.61799C5.86394 5.53599 5.97394 5.48999 6.08794 5.48999H15.3399C15.7239 5.48999 15.9179 5.95399 15.6459 6.22599L14.1839 7.69999C14.1019 7.78199 13.9919 7.82799 13.8779 7.82799H4.62393C4.23993 7.82799 4.04593 7.36399 4.31793 7.09199ZM15.6459 13.338L14.1819 14.812C14.0999 14.894 13.9899 14.94 13.8759 14.94H4.62393C4.23993 14.94 4.04593 14.476 4.31793 14.204L5.78194 12.73C5.86394 12.648 5.97394 12.602 6.08794 12.602H15.3399C15.7239 12.602 15.9179 13.066 15.6459 13.338Z" fill="url(#paint0_linear_390_3506)"/>
</g>
<defs>
<linearGradient id="paint0_linear_390_3506" x1="4.85033" y1="15.3466" x2="15.1135" y2="5.08338" gradientUnits="userSpaceOnUse">
<stop stop-color="#CB4EE8"/>
<stop offset="1" stop-color="#10F4B1"/>
</linearGradient>
<clipPath id="clip0_390_3506">
<rect width="20" height="20" fill="white"/>
</clipPath>
</defs>
</svg>
