<svg width="20" height="20" viewBox="0 0 20 20" fill="none" xmlns="http://www.w3.org/2000/svg">
<g clip-path="url(#clip0_435_307)">
<path d="M10 20C15.5228 20 20 15.5228 20 10C20 4.47715 15.5228 0 10 0C4.47715 0 0 4.47715 0 10C0 15.5228 4.47715 20 10 20Z" fill="#3E73C4"/>
<path d="M12.5137 11.3275C12.5137 10 11.7137 9.54503 10.1137 9.35503C8.97122 9.20316 8.7431 8.90003 8.7431 8.36878C8.7431 7.83753 9.12435 7.49628 9.8856 7.49628C10.5712 7.49628 10.9525 7.72378 11.1425 8.29316C11.1623 8.34822 11.1985 8.39588 11.2462 8.42974C11.2939 8.4636 11.3508 8.48203 11.4093 8.48253H12.0187C12.0539 8.48347 12.0889 8.47725 12.1217 8.46425C12.1544 8.45125 12.1841 8.43174 12.2091 8.40691C12.234 8.38207 12.2537 8.35242 12.2668 8.31976C12.28 8.2871 12.2864 8.25211 12.2856 8.21691V8.17941C12.2111 7.76747 12.0027 7.39166 11.6927 7.11036C11.3827 6.82905 10.9884 6.658 10.5712 6.62378V5.71378C10.5712 5.56191 10.4568 5.44816 10.2668 5.41003H9.69497C9.5431 5.41003 9.42872 5.52378 9.3906 5.71378V6.58628C8.24747 6.73753 7.52435 7.49628 7.52435 8.44503C7.52435 9.69628 8.2856 10.1894 9.8856 10.3794C10.9525 10.5688 11.295 10.7969 11.295 11.4038C11.295 12.01 10.7619 12.4275 10.0381 12.4275C9.04748 12.4275 8.70497 12.0107 8.5906 11.4413C8.5531 11.29 8.4381 11.2138 8.32372 11.2138H7.67622C7.64108 11.2129 7.60613 11.2192 7.57348 11.2323C7.54083 11.2453 7.51117 11.2648 7.48628 11.2896C7.46139 11.3145 7.4418 11.3441 7.42868 11.3767C7.41557 11.4093 7.4092 11.4443 7.40997 11.4794V11.5169C7.56185 12.4657 8.17185 13.1482 9.42873 13.3382V14.2488C9.42873 14.4 9.5431 14.5144 9.7331 14.5519H10.305C10.4569 14.5519 10.5712 14.4382 10.6093 14.2488V13.3375C11.7525 13.1482 12.5137 12.3513 12.5137 11.3269V11.3275Z" fill="white"/>
<path d="M8.05756 15.3106C5.08631 14.2481 3.56256 10.9481 4.66756 8.0275C5.23881 6.43375 6.49568 5.22062 8.05756 4.65125C8.21006 4.57562 8.28568 4.46188 8.28568 4.27188V3.74063C8.28568 3.58938 8.21006 3.47563 8.05756 3.4375C8.01943 3.4375 7.94318 3.4375 7.90506 3.475C7.04783 3.7427 6.25201 4.17733 5.56345 4.75386C4.87488 5.33039 4.30715 6.03743 3.89296 6.83427C3.47877 7.63111 3.22629 8.50201 3.15006 9.39683C3.07384 10.2916 3.17537 11.1927 3.44881 12.0481C4.13381 14.1731 5.77193 15.8044 7.90506 16.4869C8.05756 16.5625 8.21006 16.4869 8.24756 16.335C8.28568 16.2975 8.28568 16.2587 8.28568 16.1831V15.6519C8.28568 15.5381 8.17193 15.3869 8.05756 15.3106ZM12.0951 3.47562C11.9426 3.39937 11.7901 3.47562 11.7526 3.62687C11.7144 3.665 11.7144 3.70313 11.7144 3.77875V4.31C11.7144 4.46187 11.8282 4.61312 11.9426 4.68937C14.9138 5.75187 16.4376 9.05188 15.3326 11.9725C14.7613 13.5663 13.5044 14.7794 11.9426 15.3488C11.7901 15.4244 11.7144 15.5381 11.7144 15.7281V16.2594C11.7144 16.4106 11.7901 16.5244 11.9426 16.5625C11.9807 16.5625 12.0569 16.5625 12.0951 16.525C12.9523 16.2573 13.7481 15.8227 14.4367 15.2461C15.1252 14.6696 15.693 13.9626 16.1072 13.1657C16.5213 12.3689 16.7738 11.498 16.8501 10.6032C16.9263 9.70835 16.8247 8.80729 16.5513 7.95187C15.8663 5.78937 14.1901 4.15812 12.0951 3.47562Z" fill="white"/>
<g clip-path="url(#clip1_435_307)">
<path d="M17.6503 14.9839C17.6223 15.0119 17.5847 15.0279 17.5455 15.0279H13.8295C13.6983 15.0279 13.6319 14.8679 13.7231 14.7727L14.3327 14.1415C14.3607 14.1127 14.3991 14.0959 14.4391 14.0959H18.1687C18.3007 14.0959 18.3671 14.2575 18.2735 14.3527L17.6503 14.9839ZM17.6503 17.8047C17.6223 17.8319 17.5847 17.8479 17.5455 17.8479H13.8295C13.6983 17.8479 13.6319 17.6919 13.7231 17.5991L14.3327 16.9831C14.3607 16.9551 14.3991 16.9391 14.4391 16.9391H18.1687C18.3007 16.9391 18.3671 17.0967 18.2735 17.1895L17.6503 17.8047ZM17.5455 15.5175C17.5847 15.5175 17.6223 15.5327 17.6503 15.5607L18.2735 16.1767C18.3671 16.2687 18.3007 16.4271 18.1687 16.4271H14.4391C14.3991 16.4271 14.3607 16.4111 14.3327 16.3831L13.7231 15.7671C13.6311 15.6743 13.6975 15.5183 13.8295 15.5183L17.5455 15.5175Z" fill="#00FFAD"/>
<path d="M16 12C18.2088 12 20 13.7912 20 16C20 18.2088 18.2088 20 16 20C13.7912 20 12 18.2088 12 16C12 13.7912 13.7912 12 16 12Z" fill="black"/>
<path fill-rule="evenodd" clip-rule="evenodd" d="M13.8497 15.6184H17.5513C17.5977 15.6184 17.6417 15.6368 17.6737 15.6696L18.2593 16.2592C18.3673 16.368 18.2905 16.5536 18.1369 16.5536H14.4353C14.3889 16.5536 14.3449 16.5352 14.3129 16.5024L13.7273 15.9128C13.6185 15.804 13.6961 15.6184 13.8497 15.6184ZM13.7273 14.8368L14.3129 14.2472C14.3457 14.2144 14.3897 14.196 14.4353 14.196H18.1361C18.2897 14.196 18.3673 14.3816 18.2585 14.4904L17.6737 15.08C17.6409 15.1128 17.5969 15.1312 17.5513 15.1312H13.8497C13.6961 15.1312 13.6185 14.9456 13.7273 14.8368ZM18.2585 17.3352L17.6729 17.9248C17.6401 17.9576 17.5961 17.976 17.5505 17.976H13.8497C13.6961 17.976 13.6185 17.7904 13.7273 17.6816L14.3129 17.092C14.3457 17.0592 14.3897 17.0408 14.4353 17.0408H18.1361C18.2897 17.0408 18.3673 17.2264 18.2585 17.3352Z" fill="url(#paint0_linear_435_307)"/>
</g>
</g>
<defs>
<linearGradient id="paint0_linear_435_307" x1="13.9403" y1="18.1387" x2="18.0456" y2="14.0334" gradientUnits="userSpaceOnUse">
<stop stop-color="#CB4EE8"/>
<stop offset="1" stop-color="#10F4B1"/>
</linearGradient>
<clipPath id="clip0_435_307">
<rect width="20" height="20" fill="white"/>
</clipPath>
<clipPath id="clip1_435_307">
<rect width="8" height="8" fill="white" transform="translate(12 12)"/>
</clipPath>
</defs>
</svg>
