<svg width="20" height="20" viewBox="0 0 20 20" fill="none" xmlns="http://www.w3.org/2000/svg">
<g clip-path="url(#clip0_435_305)">
<path d="M10 20C15.5228 20 20 15.5228 20 10C20 4.47715 15.5228 0 10 0C4.47715 0 0 4.47715 0 10C0 15.5228 4.47715 20 10 20Z" fill="#3E73C4"/>
<path d="M12.5137 11.3275C12.5137 10 11.7137 9.54503 10.1137 9.35503C8.97122 9.20316 8.7431 8.90003 8.7431 8.36878C8.7431 7.83753 9.12435 7.49628 9.8856 7.49628C10.5712 7.49628 10.9525 7.72378 11.1425 8.29316C11.1623 8.34822 11.1985 8.39588 11.2462 8.42974C11.2939 8.4636 11.3508 8.48203 11.4093 8.48253H12.0187C12.0539 8.48347 12.0889 8.47725 12.1217 8.46425C12.1544 8.45125 12.1841 8.43174 12.2091 8.40691C12.234 8.38207 12.2537 8.35242 12.2668 8.31976C12.28 8.2871 12.2864 8.25211 12.2856 8.21691V8.17941C12.2111 7.76747 12.0027 7.39166 11.6927 7.11036C11.3827 6.82905 10.9884 6.658 10.5712 6.62378V5.71378C10.5712 5.56191 10.4568 5.44816 10.2668 5.41003H9.69497C9.5431 5.41003 9.42872 5.52378 9.3906 5.71378V6.58628C8.24747 6.73753 7.52435 7.49628 7.52435 8.44503C7.52435 9.69628 8.2856 10.1894 9.8856 10.3794C10.9525 10.5688 11.295 10.7969 11.295 11.4038C11.295 12.01 10.7619 12.4275 10.0381 12.4275C9.04748 12.4275 8.70497 12.0107 8.5906 11.4413C8.5531 11.29 8.4381 11.2138 8.32372 11.2138H7.67622C7.64108 11.2129 7.60613 11.2192 7.57348 11.2323C7.54083 11.2453 7.51117 11.2648 7.48628 11.2896C7.46139 11.3145 7.4418 11.3441 7.42868 11.3767C7.41557 11.4093 7.4092 11.4443 7.40997 11.4794V11.5169C7.56185 12.4657 8.17185 13.1482 9.42873 13.3382V14.2488C9.42873 14.4 9.5431 14.5144 9.7331 14.5519H10.305C10.4569 14.5519 10.5712 14.4382 10.6093 14.2488V13.3375C11.7525 13.1482 12.5137 12.3513 12.5137 11.3269V11.3275Z" fill="white"/>
<path d="M8.05756 15.3106C5.08631 14.2481 3.56256 10.9481 4.66756 8.0275C5.23881 6.43375 6.49568 5.22062 8.05756 4.65125C8.21006 4.57562 8.28568 4.46188 8.28568 4.27188V3.74063C8.28568 3.58938 8.21006 3.47563 8.05756 3.4375C8.01943 3.4375 7.94318 3.4375 7.90506 3.475C7.04783 3.7427 6.25201 4.17733 5.56345 4.75386C4.87488 5.33039 4.30715 6.03743 3.89296 6.83427C3.47877 7.63111 3.22629 8.50201 3.15006 9.39683C3.07384 10.2916 3.17537 11.1927 3.44881 12.0481C4.13381 14.1731 5.77193 15.8044 7.90506 16.4869C8.05756 16.5625 8.21006 16.4869 8.24756 16.335C8.28568 16.2975 8.28568 16.2587 8.28568 16.1831V15.6519C8.28568 15.5381 8.17193 15.3869 8.05756 15.3106ZM12.0951 3.47562C11.9426 3.39937 11.7901 3.47562 11.7526 3.62687C11.7144 3.665 11.7144 3.70313 11.7144 3.77875V4.31C11.7144 4.46187 11.8282 4.61312 11.9426 4.68937C14.9138 5.75187 16.4376 9.05188 15.3326 11.9725C14.7613 13.5663 13.5044 14.7794 11.9426 15.3488C11.7901 15.4244 11.7144 15.5381 11.7144 15.7281V16.2594C11.7144 16.4106 11.7901 16.5244 11.9426 16.5625C11.9807 16.5625 12.0569 16.5625 12.0951 16.525C12.9523 16.2573 13.7481 15.8227 14.4367 15.2461C15.1252 14.6696 15.693 13.9626 16.1072 13.1657C16.5213 12.3689 16.7738 11.498 16.8501 10.6032C16.9263 9.70835 16.8247 8.80729 16.5513 7.95187C15.8663 5.78937 14.1901 4.15812 12.0951 3.47562Z" fill="white"/>
<g clip-path="url(#clip1_435_305)">
<path d="M16 20C18.2091 20 20 18.2091 20 16C20 13.7909 18.2091 12 16 12C13.7909 12 12 13.7909 12 16C12 18.2091 13.7909 20 16 20Z" fill="#627EEA"/>
<path d="M16.1245 13V15.2175L17.9988 16.055L16.1245 13Z" fill="white" fill-opacity="0.602"/>
<path d="M16.1245 13L14.25 16.055L16.1245 15.2175V13Z" fill="white"/>
<path d="M16.1245 17.4921V18.9988L18 16.4041L16.1245 17.4921Z" fill="white" fill-opacity="0.602"/>
<path d="M16.1245 18.9988V17.4918L14.25 16.4041L16.1245 18.9988Z" fill="white"/>
<path d="M16.1245 17.1433L17.9988 16.055L16.1245 15.218V17.1433Z" fill="white" fill-opacity="0.2"/>
<path d="M14.25 16.055L16.1245 17.1433V15.218L14.25 16.055Z" fill="white" fill-opacity="0.602"/>
</g>
</g>
<defs>
<clipPath id="clip0_435_305">
<rect width="20" height="20" fill="white"/>
</clipPath>
<clipPath id="clip1_435_305">
<rect width="8" height="8" fill="white" transform="translate(12 12)"/>
</clipPath>
</defs>
</svg>
