<svg width="24" height="24" viewBox="0 0 24 24" fill="none" xmlns="http://www.w3.org/2000/svg">
<g clip-path="url(#clip0)">
<path fill-rule="evenodd" clip-rule="evenodd" d="M0.784 3.154H14.217C14.502 3.488 14.721 3.879 14.854 4.308H0.147C0.281 3.879 0.499 3.488 0.784 3.154ZM0 5.462H15V6.616H0V5.462ZM15 7.77H0V8.923H15V7.77ZM0 10.077H15V11.231H0V10.077ZM15 12.385H0V13.539H15V12.385ZM0.147 14.693H14.854C14.721 15.122 14.502 15.513 14.217 15.847H0.784C0.495627 15.5095 0.278902 15.1169 0.147 14.693Z" fill="#F5F5F5"/>
<path fill-rule="evenodd" clip-rule="evenodd" d="M11.719 2H3.28C2.28 2 1.384 2.448 0.782001 3.154H14.216C13.9084 2.79202 13.5258 2.50131 13.0946 2.30204C12.6634 2.10276 12.194 1.9997 11.719 2ZM15 6.615H1.4296e-06V7.77H15V6.615ZM14.853 4.308C14.949 4.616 15 4.943 15 5.282V5.462H1.4296e-06V5.282C1.4296e-06 4.942 0.0510014 4.616 0.147001 4.308H14.853ZM15 8.923H1.4296e-06V10.077H15V8.923ZM15 13.539V13.719C15 14.059 14.949 14.385 14.853 14.693H0.147001C0.0492519 14.3776 -0.000306872 14.0492 1.4296e-06 13.719V13.539H15ZM14.217 15.846H0.783001C1.09069 16.2081 1.47351 16.4989 1.90488 16.6982C2.33625 16.8975 2.80583 17.0004 3.281 17H11.719C12.719 17 13.615 16.552 14.217 15.846ZM1.4296e-06 11.231H15V12.385H1.4296e-06V11.23V11.231Z" fill="#FA4051"/>
<path d="M8 2H3.25C1.455 2 0 3.47 0 5.281V10.077H8V2Z" fill="#1939C9"/>
<path fill-rule="evenodd" clip-rule="evenodd" d="M2.61301 2.721L2.67501 2.908L2.87201 2.91C2.89701 2.91 2.90801 2.942 2.88701 2.957L2.72901 3.074L2.78901 3.262C2.79058 3.26733 2.79046 3.27301 2.78868 3.27828C2.7869 3.28354 2.78354 3.28812 2.77905 3.2914C2.77457 3.29468 2.76918 3.2965 2.76363 3.29661C2.75807 3.29672 2.75262 3.29511 2.74801 3.292L2.58801 3.177L2.42801 3.291C2.42341 3.29376 2.41809 3.29508 2.41274 3.2948C2.40738 3.29453 2.40222 3.29266 2.39793 3.28944C2.39364 3.28622 2.3904 3.2818 2.38864 3.27673C2.38687 3.27167 2.38665 3.26619 2.38801 3.261L2.44601 3.074L2.28801 2.957C2.28353 2.95373 2.28021 2.94912 2.27854 2.94383C2.27687 2.93854 2.27693 2.93286 2.27872 2.92761C2.28051 2.92236 2.28392 2.91782 2.28847 2.91465C2.29303 2.91148 2.29847 2.90985 2.30401 2.91L2.50001 2.908L2.56301 2.721C2.56504 2.71603 2.5685 2.71178 2.57295 2.70879C2.57741 2.7058 2.58265 2.7042 2.58801 2.7042C2.59338 2.7042 2.59862 2.7058 2.60307 2.70879C2.60753 2.71178 2.61099 2.71603 2.61301 2.721ZM0.870013 3.262C0.868447 3.26733 0.868562 3.27301 0.870345 3.27828C0.872127 3.28354 0.87549 3.28812 0.879974 3.2914C0.884458 3.29468 0.889844 3.2965 0.895399 3.29661C0.900954 3.29672 0.906407 3.29511 0.911013 3.292L1.07101 3.177L1.23101 3.292C1.23561 3.29476 1.24093 3.29608 1.24629 3.29581C1.25165 3.29553 1.2568 3.29366 1.26109 3.29044C1.26539 3.28722 1.26862 3.2828 1.27039 3.27773C1.27216 3.27267 1.27237 3.26719 1.27101 3.262L1.21301 3.075L1.37101 2.958C1.3753 2.95454 1.37842 2.94986 1.37997 2.94458C1.38152 2.9393 1.38142 2.93367 1.37968 2.92844C1.37794 2.92322 1.37464 2.91866 1.37023 2.91536C1.36583 2.91206 1.36051 2.91019 1.35501 2.91L1.15901 2.908L1.12501 2.808C1.04078 2.88153 0.960344 2.9593 0.884013 3.041L0.930013 3.075L0.870013 3.262ZM1.09601 4.278L1.15901 4.465L1.35501 4.466C1.38101 4.466 1.39101 4.499 1.37101 4.514L1.21301 4.631L1.27201 4.818C1.27337 4.82319 1.27316 4.82867 1.27139 4.83373C1.26962 4.8388 1.26639 4.84322 1.26209 4.84644C1.2578 4.84966 1.25265 4.85153 1.24729 4.8518C1.24193 4.85208 1.23661 4.85076 1.23201 4.848L1.07201 4.733L0.912013 4.848C0.907424 4.8515 0.901832 4.85344 0.896058 4.85354C0.890284 4.85363 0.884632 4.85187 0.879933 4.84851C0.875234 4.84516 0.871735 4.84038 0.86995 4.83489C0.868164 4.8294 0.868187 4.82348 0.870013 4.818L0.930013 4.631L0.772013 4.514C0.767776 4.5106 0.764661 4.50601 0.763077 4.50081C0.761492 4.49562 0.761511 4.49006 0.763131 4.48488C0.764751 4.4797 0.767897 4.47512 0.772157 4.47175C0.776418 4.46838 0.781595 4.46638 0.787013 4.466L0.984013 4.465L1.04601 4.278C1.04804 4.27303 1.0515 4.26878 1.05595 4.26579C1.06041 4.2628 1.06565 4.2612 1.07101 4.2612C1.07638 4.2612 1.08162 4.2628 1.08607 4.26579C1.09053 4.26878 1.09399 4.27303 1.09601 4.278ZM1.16001 6.19L1.09701 6.004C1.09499 5.99903 1.09153 5.99478 1.08707 5.99179C1.08262 5.9888 1.07738 5.9872 1.07201 5.9872C1.06665 5.9872 1.06141 5.9888 1.05695 5.99179C1.0525 5.99478 1.04904 5.99903 1.04701 6.004L0.985013 6.19L0.788013 6.192C0.782595 6.19238 0.777418 6.19438 0.773157 6.19775C0.768897 6.20112 0.765751 6.2057 0.764131 6.21088C0.762511 6.21606 0.762492 6.22162 0.764077 6.22681C0.765661 6.23201 0.768776 6.2366 0.773013 6.24L0.931013 6.357L0.871013 6.544C0.869447 6.54933 0.869562 6.55501 0.871345 6.56028C0.873127 6.56554 0.87649 6.57012 0.880974 6.5734C0.885458 6.57668 0.890844 6.5785 0.896399 6.57861C0.901954 6.57872 0.907407 6.57711 0.912013 6.574L1.07201 6.459L1.23201 6.574C1.23662 6.57711 1.24207 6.57872 1.24763 6.57861C1.25318 6.5785 1.25857 6.57668 1.26305 6.5734C1.26754 6.57012 1.2709 6.56554 1.27268 6.56028C1.27446 6.55501 1.27458 6.54933 1.27301 6.544L1.21301 6.357L1.37201 6.24C1.3763 6.23654 1.37942 6.23186 1.38097 6.22658C1.38252 6.2213 1.38242 6.21567 1.38068 6.21044C1.37894 6.20522 1.37564 6.20066 1.37123 6.19736C1.36683 6.19406 1.36151 6.19219 1.35601 6.192L1.16001 6.19ZM1.09701 7.59L1.16001 7.777L1.35601 7.779C1.38201 7.779 1.39201 7.811 1.37201 7.826L1.21401 7.943L1.27301 8.131C1.27437 8.13619 1.27416 8.14167 1.27239 8.14673C1.27062 8.1518 1.26739 8.15622 1.26309 8.15944C1.2588 8.16266 1.25365 8.16453 1.24829 8.1648C1.24293 8.16508 1.23762 8.16376 1.23301 8.161L1.07301 8.046L0.913013 8.16C0.908424 8.1635 0.902832 8.16545 0.897058 8.16554C0.891284 8.16563 0.885632 8.16387 0.880933 8.16051C0.876234 8.15716 0.872735 8.15238 0.87095 8.14689C0.869164 8.1414 0.869187 8.13548 0.871013 8.13L0.931013 7.943L0.773013 7.826C0.769115 7.82253 0.766307 7.818 0.764929 7.81296C0.763551 7.80793 0.763662 7.8026 0.765249 7.79763C0.766837 7.79265 0.769832 7.78825 0.773872 7.78494C0.777912 7.78164 0.782824 7.77957 0.788013 7.779L0.985013 7.777L1.04701 7.59C1.04904 7.58503 1.0525 7.58078 1.05695 7.57779C1.06141 7.5748 1.06665 7.5732 1.07201 7.5732C1.07738 7.5732 1.08262 7.5748 1.08707 7.57779C1.09153 7.58078 1.09499 7.58503 1.09701 7.59ZM1.16001 9.22L1.09701 9.033C1.09499 9.02803 1.09153 9.02378 1.08707 9.02079C1.08262 9.0178 1.07738 9.0162 1.07201 9.0162C1.06665 9.0162 1.06141 9.0178 1.05695 9.02079C1.0525 9.02378 1.04904 9.02803 1.04701 9.033L0.985013 9.22L0.788013 9.222C0.782824 9.22257 0.777912 9.22464 0.773872 9.22794C0.769832 9.23125 0.766837 9.23565 0.765249 9.24063C0.763662 9.2456 0.763551 9.25093 0.764929 9.25596C0.766307 9.261 0.769115 9.26553 0.773013 9.269L0.931013 9.386L0.871013 9.574C0.869447 9.57933 0.869562 9.58501 0.871345 9.59028C0.873127 9.59554 0.87649 9.60012 0.880974 9.6034C0.885458 9.60668 0.890844 9.6085 0.896399 9.60861C0.901954 9.60872 0.907407 9.60711 0.912013 9.604L1.07201 9.489L1.23201 9.603C1.23662 9.60611 1.24207 9.60772 1.24763 9.60761C1.25318 9.6075 1.25857 9.60568 1.26305 9.6024C1.26754 9.59912 1.2709 9.59454 1.27268 9.58928C1.27446 9.58401 1.27458 9.57833 1.27301 9.573L1.21301 9.386L1.37201 9.269C1.37595 9.26546 1.37875 9.26085 1.38009 9.25574C1.38142 9.25062 1.38123 9.24523 1.37952 9.24022C1.37782 9.23522 1.37468 9.23082 1.3705 9.22758C1.36632 9.22434 1.36129 9.2224 1.35601 9.222L1.16001 9.22ZM1.85401 3.458L1.91601 3.644L2.11301 3.646C2.13901 3.646 2.14901 3.678 2.12901 3.694L1.97001 3.81L2.03001 3.998C2.03158 4.00333 2.03146 4.00901 2.02968 4.01428C2.0279 4.01954 2.02454 4.02412 2.02005 4.0274C2.01557 4.03068 2.01018 4.0325 2.00463 4.03261C1.99907 4.03272 1.99362 4.03111 1.98901 4.028L1.82901 3.913L1.66901 4.028C1.66441 4.03076 1.65909 4.03208 1.65374 4.03181C1.64838 4.03153 1.64322 4.02966 1.63893 4.02644C1.63464 4.02322 1.6314 4.0188 1.62964 4.01373C1.62787 4.00867 1.62765 4.00319 1.62901 3.998L1.68801 3.81L1.52901 3.694C1.52404 3.69092 1.52025 3.68625 1.51826 3.68074C1.51627 3.67524 1.51619 3.66923 1.51804 3.66368C1.51989 3.65812 1.52356 3.65336 1.52846 3.65015C1.53335 3.64694 1.53918 3.64548 1.54501 3.646L1.74201 3.644L1.80401 3.458C1.80604 3.45303 1.8095 3.44878 1.81395 3.44579C1.81841 3.4428 1.82365 3.4412 1.82901 3.4412C1.83438 3.4412 1.83962 3.4428 1.84407 3.44579C1.84853 3.44878 1.85199 3.45303 1.85401 3.458ZM1.91601 5.371L1.85401 5.184C1.85199 5.17903 1.84853 5.17478 1.84407 5.17179C1.83962 5.1688 1.83438 5.1672 1.82901 5.1672C1.82365 5.1672 1.81841 5.1688 1.81395 5.17179C1.8095 5.17478 1.80604 5.17903 1.80401 5.184L1.74201 5.371L1.54501 5.372C1.53951 5.37219 1.5342 5.37406 1.52979 5.37736C1.52538 5.38066 1.52209 5.38522 1.52035 5.39044C1.51861 5.39567 1.51851 5.4013 1.52005 5.40658C1.5216 5.41186 1.52473 5.41654 1.52901 5.42L1.68801 5.537L1.62801 5.724C1.62645 5.72933 1.62656 5.73501 1.62834 5.74028C1.63013 5.74554 1.63349 5.75012 1.63797 5.7534C1.64246 5.75668 1.64784 5.7585 1.6534 5.75861C1.65895 5.75872 1.66441 5.75711 1.66901 5.754L1.82901 5.639L1.98901 5.754C1.99362 5.75676 1.99893 5.75808 2.00429 5.7578C2.00965 5.75753 2.0148 5.75566 2.01909 5.75244C2.02339 5.74922 2.02662 5.7448 2.02839 5.73973C2.03016 5.73467 2.03037 5.72919 2.02901 5.724L1.97001 5.537L2.12901 5.42C2.1333 5.41654 2.13642 5.41186 2.13797 5.40658C2.13952 5.4013 2.13942 5.39567 2.13768 5.39044C2.13594 5.38522 2.13264 5.38066 2.12823 5.37736C2.12383 5.37406 2.11851 5.37219 2.11301 5.372L1.91601 5.37V5.371ZM1.85401 6.824L1.91601 7.011L2.11301 7.012C2.13901 7.012 2.14901 7.045 2.12901 7.06L1.97001 7.177L2.03001 7.365C2.03137 7.37019 2.03116 7.37567 2.02939 7.38073C2.02762 7.3858 2.02439 7.39022 2.02009 7.39344C2.0158 7.39666 2.01065 7.39853 2.00529 7.39881C1.99993 7.39908 1.99462 7.39776 1.99001 7.395L1.82901 7.28L1.66901 7.394C1.66441 7.39676 1.65909 7.39808 1.65374 7.3978C1.64838 7.39753 1.64322 7.39566 1.63893 7.39244C1.63464 7.38922 1.6314 7.3848 1.62964 7.37973C1.62787 7.37467 1.62765 7.36919 1.62901 7.364L1.68801 7.177L1.52901 7.06C1.52473 7.05654 1.5216 7.05186 1.52005 7.04658C1.51851 7.0413 1.51861 7.03567 1.52035 7.03044C1.52209 7.02522 1.52538 7.02066 1.52979 7.01736C1.5342 7.01406 1.53951 7.01219 1.54501 7.012L1.74201 7.011L1.80401 6.824C1.80604 6.81903 1.8095 6.81478 1.81395 6.81179C1.81841 6.8088 1.82365 6.8072 1.82901 6.8072C1.83438 6.8072 1.83962 6.8088 1.84407 6.81179C1.84853 6.81478 1.85199 6.81903 1.85401 6.824ZM1.91601 8.484L1.85301 8.3C1.85099 8.29503 1.84753 8.29078 1.84307 8.28779C1.83862 8.2848 1.83338 8.2832 1.82801 8.2832C1.82265 8.2832 1.81741 8.2848 1.81295 8.28779C1.8085 8.29078 1.80504 8.29503 1.80301 8.3L1.74101 8.486L1.54401 8.488C1.53851 8.48819 1.5332 8.49006 1.52879 8.49336C1.52438 8.49666 1.52109 8.50122 1.51935 8.50644C1.51761 8.51167 1.51751 8.5173 1.51905 8.52258C1.5206 8.52786 1.52373 8.53254 1.52801 8.536L1.68701 8.652L1.62701 8.84C1.62545 8.84533 1.62556 8.85101 1.62734 8.85628C1.62913 8.86154 1.63249 8.86612 1.63697 8.8694C1.64146 8.87268 1.64684 8.8745 1.6524 8.87461C1.65795 8.87472 1.66341 8.87311 1.66801 8.87L1.82801 8.755L1.98801 8.87C1.99262 8.87276 1.99793 8.87408 2.00329 8.8738C2.00865 8.87353 2.0138 8.87166 2.01809 8.86844C2.02239 8.86522 2.02562 8.8608 2.02739 8.85573C2.02916 8.85067 2.02937 8.84519 2.02801 8.84L1.96901 8.652L2.12801 8.536C2.1323 8.53254 2.13542 8.52786 2.13697 8.52258C2.13852 8.5173 2.13842 8.51167 2.13668 8.50644C2.13494 8.50122 2.13164 8.49666 2.12723 8.49336C2.12283 8.49006 2.11751 8.48819 2.11201 8.488L1.91501 8.486L1.91601 8.484ZM2.67601 4.464L2.61401 4.277C2.61199 4.27203 2.60853 4.26778 2.60407 4.26479C2.59962 4.2618 2.59438 4.2602 2.58901 4.2602C2.58365 4.2602 2.57841 4.2618 2.57395 4.26479C2.5695 4.26778 2.56604 4.27203 2.56401 4.277L2.50101 4.464L2.30501 4.465C2.29951 4.46519 2.2942 4.46706 2.28979 4.47036C2.28539 4.47366 2.28209 4.47822 2.28035 4.48344C2.27861 4.48867 2.27851 4.4943 2.28005 4.49958C2.2816 4.50486 2.28473 4.50954 2.28901 4.513L2.44701 4.63L2.38801 4.817C2.38665 4.82219 2.38687 4.82767 2.38864 4.83273C2.3904 4.8378 2.39364 4.84222 2.39793 4.84544C2.40222 4.84866 2.40738 4.85053 2.41274 4.8508C2.41809 4.85108 2.42341 4.84976 2.42801 4.847L2.58801 4.732L2.74801 4.847C2.7526 4.8505 2.7582 4.85244 2.76397 4.85254C2.76974 4.85263 2.77539 4.85087 2.78009 4.84751C2.78479 4.84415 2.78829 4.83938 2.79008 4.83389C2.79186 4.8284 2.79184 4.82248 2.79001 4.817L2.73001 4.63L2.88801 4.513C2.89225 4.5096 2.89537 4.50501 2.89695 4.49981C2.89854 4.49462 2.89852 4.48906 2.8969 4.48388C2.89528 4.4787 2.89213 4.47412 2.88787 4.47075C2.88361 4.46738 2.87843 4.46538 2.87301 4.465L2.67601 4.464ZM2.61401 6.004L2.67601 6.19L2.87301 6.192C2.89801 6.192 2.90901 6.225 2.88801 6.24L2.73001 6.357L2.79001 6.544C2.79158 6.54933 2.79146 6.55501 2.78968 6.56028C2.7879 6.56554 2.78454 6.57012 2.78005 6.5734C2.77557 6.57668 2.77018 6.5785 2.76463 6.57861C2.75907 6.57872 2.75362 6.57711 2.74901 6.574L2.58901 6.459L2.42901 6.574C2.42441 6.57676 2.41909 6.57808 2.41374 6.57781C2.40838 6.57753 2.40322 6.57566 2.39893 6.57244C2.39464 6.56922 2.3914 6.5648 2.38964 6.55973C2.38787 6.55467 2.38765 6.54919 2.38901 6.544L2.44701 6.357L2.28901 6.24C2.28473 6.23654 2.2816 6.23186 2.28005 6.22658C2.27851 6.2213 2.27861 6.21567 2.28035 6.21044C2.28209 6.20522 2.28539 6.20066 2.28979 6.19736C2.2942 6.19406 2.29951 6.19219 2.30501 6.192L2.50001 6.19L2.56301 6.004C2.56504 5.99903 2.5685 5.99478 2.57295 5.99179C2.57741 5.9888 2.58265 5.9872 2.58801 5.9872C2.59338 5.9872 2.59862 5.9888 2.60307 5.99179C2.60753 5.99478 2.61099 5.99903 2.61301 6.004H2.61401ZM2.67601 7.777L2.61401 7.59C2.61199 7.58503 2.60853 7.58078 2.60407 7.57779C2.59962 7.5748 2.59438 7.5732 2.58901 7.5732C2.58365 7.5732 2.57841 7.5748 2.57395 7.57779C2.5695 7.58078 2.56604 7.58503 2.56401 7.59L2.50101 7.777L2.30501 7.779C2.29974 7.7794 2.2947 7.78134 2.29052 7.78458C2.28635 7.78782 2.28321 7.79221 2.28151 7.79722C2.2798 7.80223 2.27961 7.80762 2.28094 7.81274C2.28227 7.81785 2.28508 7.82246 2.28901 7.826L2.44701 7.943L2.38801 8.131C2.38665 8.13619 2.38687 8.14167 2.38864 8.14673C2.3904 8.1518 2.39364 8.15622 2.39793 8.15944C2.40222 8.16266 2.40738 8.16453 2.41274 8.1648C2.41809 8.16508 2.42341 8.16376 2.42801 8.161L2.58801 8.046L2.74801 8.16C2.7526 8.1635 2.7582 8.16545 2.76397 8.16554C2.76974 8.16563 2.77539 8.16387 2.78009 8.16051C2.78479 8.15716 2.78829 8.15238 2.79008 8.14689C2.79186 8.1414 2.79184 8.13548 2.79001 8.13L2.73001 7.943L2.88801 7.826C2.89191 7.82253 2.89472 7.818 2.8961 7.81296C2.89748 7.80793 2.89736 7.8026 2.89578 7.79763C2.89419 7.79265 2.8912 7.78825 2.88715 7.78494C2.88311 7.78164 2.8782 7.77957 2.87301 7.779L2.67601 7.777ZM2.61401 9.033L2.67601 9.22L2.87301 9.222C2.89801 9.222 2.90901 9.254 2.88801 9.269L2.73001 9.386L2.79001 9.574C2.79158 9.57933 2.79146 9.58501 2.78968 9.59028C2.7879 9.59554 2.78454 9.60012 2.78005 9.6034C2.77557 9.60668 2.77018 9.6085 2.76463 9.60861C2.75907 9.60872 2.75362 9.60711 2.74901 9.604L2.58901 9.489L2.42901 9.603C2.42441 9.60576 2.41909 9.60708 2.41374 9.60681C2.40838 9.60653 2.40322 9.60466 2.39893 9.60144C2.39464 9.59822 2.3914 9.5938 2.38964 9.58873C2.38787 9.58367 2.38765 9.57819 2.38901 9.573L2.44701 9.386L2.28901 9.269C2.28508 9.26546 2.28227 9.26085 2.28094 9.25574C2.27961 9.25062 2.2798 9.24523 2.28151 9.24022C2.28321 9.23522 2.28635 9.23082 2.29052 9.22758C2.2947 9.22434 2.29974 9.2224 2.30501 9.222L2.50001 9.22L2.56301 9.033C2.56504 9.02803 2.5685 9.02378 2.57295 9.02079C2.57741 9.0178 2.58265 9.0162 2.58801 9.0162C2.59338 9.0162 2.59862 9.0178 2.60307 9.02079C2.60753 9.02378 2.61099 9.02803 2.61301 9.033H2.61401ZM3.43201 3.644L3.37001 3.46C3.36799 3.45503 3.36453 3.45078 3.36007 3.44779C3.35562 3.4448 3.35038 3.4432 3.34501 3.4432C3.33965 3.4432 3.33441 3.4448 3.32995 3.44779C3.3255 3.45078 3.32204 3.45503 3.32001 3.46L3.25701 3.646L3.06101 3.648C3.05551 3.64819 3.0502 3.65006 3.04579 3.65336C3.04138 3.65666 3.03809 3.66122 3.03635 3.66644C3.03461 3.67167 3.03451 3.6773 3.03605 3.68258C3.0376 3.68786 3.04073 3.69254 3.04501 3.696L3.20301 3.812L3.14301 4C3.14119 4.00548 3.14116 4.0114 3.14295 4.01689C3.14474 4.02238 3.14823 4.02716 3.15293 4.03051C3.15763 4.03387 3.16328 4.03563 3.16906 4.03554C3.17483 4.03545 3.18042 4.0335 3.18501 4.03L3.34501 3.915L3.50501 4.03C3.50961 4.03276 3.51493 4.03408 3.52029 4.03381C3.52565 4.03353 3.5308 4.03166 3.53509 4.02844C3.53939 4.02522 3.54262 4.0208 3.54439 4.01573C3.54616 4.01067 3.54637 4.00519 3.54501 4L3.48601 3.812L3.64401 3.696C3.64888 3.69295 3.6526 3.68837 3.65459 3.68298C3.65658 3.6776 3.65673 3.6717 3.65502 3.66622C3.6533 3.66074 3.64982 3.65597 3.64512 3.65268C3.64041 3.64938 3.63475 3.64774 3.62901 3.648L3.43201 3.646V3.644ZM3.37001 5.184L3.43201 5.371L3.62901 5.372C3.65401 5.372 3.66501 5.405 3.64401 5.42L3.48601 5.537L3.54601 5.724C3.54758 5.72933 3.54746 5.73501 3.54568 5.74028C3.5439 5.74554 3.54054 5.75012 3.53605 5.7534C3.53157 5.75668 3.52618 5.7585 3.52063 5.75861C3.51507 5.75872 3.50962 5.75711 3.50501 5.754L3.34501 5.639L3.18501 5.754C3.18041 5.75711 3.17495 5.75872 3.1694 5.75861C3.16384 5.7585 3.15846 5.75668 3.15397 5.7534C3.14949 5.75012 3.14613 5.74554 3.14434 5.74028C3.14256 5.73501 3.14245 5.72933 3.14401 5.724L3.20401 5.537L3.04501 5.42C3.04073 5.41654 3.0376 5.41186 3.03605 5.40658C3.03451 5.4013 3.03461 5.39567 3.03635 5.39044C3.03809 5.38522 3.04138 5.38066 3.04579 5.37736C3.0502 5.37406 3.05551 5.37219 3.06101 5.372L3.25701 5.37L3.31901 5.184C3.32104 5.17903 3.3245 5.17478 3.32895 5.17179C3.33341 5.1688 3.33865 5.1672 3.34401 5.1672C3.34938 5.1672 3.35462 5.1688 3.35907 5.17179C3.36353 5.17478 3.36699 5.17903 3.36901 5.184H3.37001ZM3.43201 7.011L3.37001 6.824C3.36201 6.8 3.32801 6.8 3.32001 6.824L3.25701 7.011L3.06101 7.012C3.05551 7.01219 3.0502 7.01406 3.04579 7.01736C3.04138 7.02066 3.03809 7.02522 3.03635 7.03044C3.03461 7.03567 3.03451 7.0413 3.03605 7.04658C3.0376 7.05186 3.04073 7.05654 3.04501 7.06L3.20301 7.177L3.14301 7.365C3.14119 7.37048 3.14116 7.3764 3.14295 7.38189C3.14474 7.38738 3.14823 7.39216 3.15293 7.39551C3.15763 7.39887 3.16328 7.40063 3.16906 7.40054C3.17483 7.40045 3.18042 7.3985 3.18501 7.395L3.34501 7.28L3.50501 7.394C3.50961 7.39676 3.51493 7.39808 3.52029 7.3978C3.52565 7.39753 3.5308 7.39566 3.53509 7.39244C3.53939 7.38922 3.54262 7.3848 3.54439 7.37973C3.54616 7.37467 3.54637 7.36919 3.54501 7.364L3.48601 7.177L3.64401 7.06C3.64825 7.0566 3.65137 7.05201 3.65295 7.04681C3.65453 7.04162 3.65452 7.03606 3.6529 7.03088C3.65128 7.0257 3.64813 7.02112 3.64387 7.01775C3.63961 7.01438 3.63443 7.01238 3.62901 7.012L3.43201 7.011ZM3.37001 8.299L3.43201 8.485L3.62901 8.487C3.65401 8.487 3.66501 8.519 3.64401 8.535L3.48601 8.651L3.54601 8.839C3.54758 8.84433 3.54746 8.85001 3.54568 8.85528C3.5439 8.86054 3.54054 8.86512 3.53605 8.8684C3.53157 8.87168 3.52618 8.8735 3.52063 8.87361C3.51507 8.87372 3.50962 8.87211 3.50501 8.869L3.34501 8.754L3.18501 8.869C3.18041 8.87211 3.17495 8.87372 3.1694 8.87361C3.16384 8.8735 3.15846 8.87168 3.15397 8.8684C3.14949 8.86512 3.14613 8.86054 3.14434 8.85528C3.14256 8.85001 3.14245 8.84433 3.14401 8.839L3.20401 8.651L3.04501 8.535C3.04073 8.53154 3.0376 8.52686 3.03605 8.52158C3.03451 8.5163 3.03461 8.51067 3.03635 8.50545C3.03809 8.50022 3.04138 8.49566 3.04579 8.49236C3.0502 8.48906 3.05551 8.48719 3.06101 8.487L3.25701 8.485L3.31901 8.299C3.32104 8.29403 3.3245 8.28978 3.32895 8.28679C3.33341 8.2838 3.33865 8.2822 3.34401 8.2822C3.34938 8.2822 3.35462 8.2838 3.35907 8.28679C3.36353 8.28978 3.36699 8.29403 3.36901 8.299H3.37001ZM4.19201 2.909L4.13001 2.721C4.12799 2.71603 4.12453 2.71178 4.12007 2.70879C4.11562 2.7058 4.11038 2.7042 4.10501 2.7042C4.09965 2.7042 4.09441 2.7058 4.08995 2.70879C4.0855 2.71178 4.08204 2.71603 4.08001 2.721L4.01701 2.908L3.82001 2.91C3.81456 2.91007 3.80926 2.91185 3.80487 2.9151C3.80048 2.91835 3.79723 2.92289 3.79557 2.92809C3.79391 2.93329 3.79393 2.93888 3.79563 2.94407C3.79732 2.94926 3.8006 2.95378 3.80501 2.957L3.96301 3.074L3.90301 3.262C3.90145 3.26733 3.90156 3.27301 3.90334 3.27828C3.90513 3.28354 3.90849 3.28812 3.91297 3.2914C3.91746 3.29468 3.92284 3.2965 3.9284 3.29661C3.93395 3.29672 3.93941 3.29511 3.94401 3.292L4.10401 3.177L4.26401 3.291C4.26862 3.29411 4.27407 3.29572 4.27963 3.29561C4.28518 3.2955 4.29057 3.29368 4.29505 3.2904C4.29954 3.28712 4.3029 3.28254 4.30468 3.27728C4.30646 3.27201 4.30658 3.26633 4.30501 3.261L4.24501 3.074L4.40501 2.957C4.40949 2.95373 4.41281 2.94912 4.41449 2.94383C4.41616 2.93854 4.4161 2.93286 4.41431 2.92761C4.41252 2.92236 4.4091 2.91782 4.40455 2.91465C4.4 2.91148 4.39456 2.90985 4.38901 2.91L4.19201 2.908V2.909ZM4.13001 4.278L4.19201 4.465L4.38901 4.466C4.41401 4.466 4.42501 4.499 4.40401 4.514L4.24601 4.631L4.30601 4.818C4.30784 4.82348 4.30786 4.8294 4.30608 4.83489C4.30429 4.84038 4.30079 4.84516 4.29609 4.84851C4.29139 4.85187 4.28574 4.85363 4.27997 4.85354C4.2742 4.85344 4.2686 4.8515 4.26401 4.848L4.10401 4.733L3.94401 4.848C3.93941 4.85076 3.93409 4.85208 3.92874 4.8518C3.92338 4.85153 3.91822 4.84966 3.91393 4.84644C3.90964 4.84322 3.9064 4.8388 3.90464 4.83373C3.90287 4.82867 3.90265 4.82319 3.90401 4.818L3.96301 4.631L3.80501 4.514C3.80078 4.5106 3.79766 4.50601 3.79608 4.50081C3.79449 4.49562 3.79451 4.49006 3.79613 4.48488C3.79775 4.4797 3.8009 4.47512 3.80516 4.47175C3.80942 4.46838 3.8146 4.46638 3.82001 4.466L4.01701 4.464L4.07901 4.278C4.08104 4.27303 4.0845 4.26878 4.08895 4.26579C4.09341 4.2628 4.09865 4.2612 4.10401 4.2612C4.10938 4.2612 4.11462 4.2628 4.11907 4.26579C4.12353 4.26878 4.12699 4.27303 4.12901 4.278H4.13001ZM4.19001 6.19L4.12801 6.004C4.12599 5.99903 4.12253 5.99478 4.11807 5.99179C4.11362 5.9888 4.10838 5.9872 4.10301 5.9872C4.09765 5.9872 4.09241 5.9888 4.08795 5.99179C4.0835 5.99478 4.08004 5.99903 4.07801 6.004L4.01501 6.19L3.81801 6.192C3.8126 6.19238 3.80742 6.19438 3.80316 6.19775C3.7989 6.20112 3.79575 6.2057 3.79413 6.21088C3.79251 6.21606 3.79249 6.22162 3.79408 6.22681C3.79566 6.23201 3.79878 6.2366 3.80301 6.24L3.96101 6.357L3.90101 6.544C3.89945 6.54933 3.89956 6.55501 3.90134 6.56028C3.90313 6.56554 3.90649 6.57012 3.91097 6.5734C3.91546 6.57668 3.92084 6.5785 3.9264 6.57861C3.93195 6.57872 3.93741 6.57711 3.94201 6.574L4.10201 6.459L4.26201 6.574C4.26662 6.57711 4.27207 6.57872 4.27763 6.57861C4.28318 6.5785 4.28857 6.57668 4.29305 6.5734C4.29754 6.57012 4.3009 6.56554 4.30268 6.56028C4.30446 6.55501 4.30458 6.54933 4.30301 6.544L4.24301 6.357L4.40301 6.24C4.4073 6.23654 4.41042 6.23186 4.41197 6.22658C4.41352 6.2213 4.41342 6.21567 4.41168 6.21044C4.40994 6.20522 4.40664 6.20066 4.40223 6.19736C4.39783 6.19406 4.39251 6.19219 4.38701 6.192L4.19001 6.19ZM4.12801 7.59L4.19001 7.777L4.38701 7.779C4.41201 7.779 4.42301 7.811 4.40201 7.826L4.24401 7.943L4.30401 8.131C4.30584 8.13648 4.30586 8.1424 4.30408 8.14789C4.30229 8.15338 4.29879 8.15816 4.29409 8.16151C4.28939 8.16487 4.28374 8.16663 4.27797 8.16654C4.27219 8.16644 4.2666 8.1645 4.26201 8.161L4.10201 8.046L3.94201 8.16C3.93741 8.16276 3.93209 8.16408 3.92674 8.1638C3.92138 8.16353 3.91622 8.16166 3.91193 8.15844C3.90764 8.15522 3.9044 8.1508 3.90264 8.14573C3.90087 8.14067 3.90065 8.13519 3.90201 8.13L3.96101 7.943L3.80301 7.826C3.79911 7.82253 3.79631 7.818 3.79493 7.81296C3.79355 7.80793 3.79366 7.8026 3.79525 7.79763C3.79684 7.79265 3.79983 7.78825 3.80387 7.78494C3.80791 7.78164 3.81282 7.77957 3.81801 7.779L4.01501 7.777L4.07701 7.59C4.07904 7.58503 4.0825 7.58078 4.08695 7.57779C4.09141 7.5748 4.09665 7.5732 4.10201 7.5732C4.10738 7.5732 4.11262 7.5748 4.11707 7.57779C4.12153 7.58078 4.12499 7.58503 4.12701 7.59H4.12801ZM4.19001 9.22L4.12801 9.033C4.12599 9.02803 4.12253 9.02378 4.11807 9.02079C4.11362 9.0178 4.10838 9.0162 4.10301 9.0162C4.09765 9.0162 4.09241 9.0178 4.08795 9.02079C4.0835 9.02378 4.08004 9.02803 4.07801 9.033L4.01501 9.22L3.81801 9.222C3.81282 9.22257 3.80791 9.22464 3.80387 9.22794C3.79983 9.23125 3.79684 9.23565 3.79525 9.24063C3.79366 9.2456 3.79355 9.25093 3.79493 9.25596C3.79631 9.261 3.79911 9.26553 3.80301 9.269L3.96101 9.386L3.90101 9.574C3.89945 9.57933 3.89956 9.58501 3.90134 9.59028C3.90313 9.59554 3.90649 9.60012 3.91097 9.6034C3.91546 9.60668 3.92084 9.6085 3.9264 9.60861C3.93195 9.60872 3.93741 9.60711 3.94201 9.604L4.10201 9.489L4.26201 9.603C4.26662 9.60611 4.27207 9.60772 4.27763 9.60761C4.28318 9.6075 4.28857 9.60568 4.29305 9.6024C4.29754 9.59912 4.3009 9.59454 4.30268 9.58928C4.30446 9.58401 4.30458 9.57833 4.30301 9.573L4.24301 9.386L4.40301 9.269C4.40694 9.26546 4.40975 9.26085 4.41109 9.25574C4.41242 9.25062 4.41223 9.24523 4.41052 9.24022C4.40882 9.23522 4.40568 9.23082 4.4015 9.22758C4.39732 9.22434 4.39229 9.2224 4.38701 9.222L4.19001 9.22ZM4.88401 3.458L4.94701 3.644L5.14301 3.646C5.16901 3.646 5.17901 3.678 5.15901 3.694L5.00101 3.81L5.06001 4C5.06137 4.00519 5.06116 4.01067 5.05939 4.01573C5.05762 4.0208 5.05439 4.02522 5.05009 4.02844C5.0458 4.03166 5.04065 4.03353 5.03529 4.03381C5.02993 4.03408 5.02461 4.03276 5.02001 4.03L4.86001 3.915L4.70001 4.03C4.69541 4.03311 4.68995 4.03472 4.6844 4.03461C4.67884 4.0345 4.67346 4.03268 4.66897 4.0294C4.66449 4.02612 4.66113 4.02154 4.65934 4.01628C4.65756 4.01101 4.65745 4.00533 4.65901 4L4.71801 3.812L4.56001 3.696C4.55578 3.6926 4.55266 3.68801 4.55108 3.68281C4.54949 3.67762 4.54951 3.67206 4.55113 3.66688C4.55275 3.6617 4.5559 3.65712 4.56016 3.65375C4.56442 3.65038 4.5696 3.64838 4.57501 3.648L4.77201 3.646L4.83401 3.46C4.84201 3.435 4.87601 3.435 4.88401 3.46V3.458ZM4.94701 5.371L4.88401 5.184C4.87601 5.16 4.84201 5.16 4.83401 5.184L4.77201 5.371L4.57501 5.372C4.5696 5.37238 4.56442 5.37438 4.56016 5.37775C4.5559 5.38112 4.55275 5.3857 4.55113 5.39088C4.54951 5.39606 4.54949 5.40162 4.55108 5.40681C4.55266 5.41201 4.55578 5.4166 4.56001 5.42L4.71801 5.537L4.65801 5.724C4.65645 5.72933 4.65656 5.73501 4.65834 5.74028C4.66013 5.74554 4.66349 5.75012 4.66797 5.7534C4.67246 5.75668 4.67784 5.7585 4.6834 5.75861C4.68895 5.75872 4.69441 5.75711 4.69901 5.754L4.85901 5.639L5.01901 5.754C5.02362 5.75711 5.02907 5.75872 5.03463 5.75861C5.04018 5.7585 5.04557 5.75668 5.05005 5.7534C5.05454 5.75012 5.0579 5.74554 5.05968 5.74028C5.06146 5.73501 5.06158 5.72933 5.06001 5.724L5.00001 5.537L5.15901 5.42C5.1633 5.41654 5.16642 5.41186 5.16797 5.40658C5.16952 5.4013 5.16942 5.39567 5.16768 5.39044C5.16594 5.38522 5.16264 5.38066 5.15823 5.37736C5.15383 5.37406 5.14851 5.37219 5.14301 5.372L4.94701 5.37V5.371ZM4.88401 6.824L4.94701 7.011L5.14301 7.012C5.16901 7.012 5.17901 7.045 5.15901 7.06L5.00101 7.177L5.06001 7.365C5.06137 7.37019 5.06116 7.37567 5.05939 7.38073C5.05762 7.3858 5.05439 7.39022 5.05009 7.39344C5.0458 7.39666 5.04065 7.39853 5.03529 7.39881C5.02993 7.39908 5.02461 7.39776 5.02001 7.395L4.86001 7.28L4.70001 7.394C4.69541 7.39711 4.68995 7.39872 4.6844 7.39861C4.67884 7.3985 4.67346 7.39668 4.66897 7.3934C4.66449 7.39012 4.66113 7.38554 4.65934 7.38028C4.65756 7.37501 4.65745 7.36933 4.65901 7.364L4.71801 7.177L4.56001 7.06C4.55578 7.0566 4.55266 7.05201 4.55108 7.04681C4.54949 7.04162 4.54951 7.03606 4.55113 7.03088C4.55275 7.0257 4.5559 7.02112 4.56016 7.01775C4.56442 7.01438 4.5696 7.01238 4.57501 7.012L4.77201 7.011L4.83401 6.824C4.84201 6.8 4.87601 6.8 4.88401 6.824ZM4.94701 8.484L4.88501 8.3C4.87701 8.275 4.84301 8.275 4.83501 8.3L4.77301 8.486L4.57601 8.488C4.5706 8.48838 4.56542 8.49038 4.56116 8.49375C4.5569 8.49712 4.55375 8.5017 4.55213 8.50688C4.55051 8.51206 4.55049 8.51762 4.55208 8.52281C4.55366 8.52801 4.55678 8.5326 4.56101 8.536L4.71901 8.652L4.65901 8.84C4.65745 8.84533 4.65756 8.85101 4.65934 8.85628C4.66113 8.86154 4.66449 8.86612 4.66897 8.8694C4.67346 8.87268 4.67884 8.8745 4.6844 8.87461C4.68995 8.87472 4.69541 8.87311 4.70001 8.87L4.86001 8.755L5.02001 8.87C5.02462 8.87311 5.03007 8.87472 5.03563 8.87461C5.04118 8.8745 5.04657 8.87268 5.05105 8.8694C5.05554 8.86612 5.0589 8.86154 5.06068 8.85628C5.06246 8.85101 5.06258 8.84533 5.06101 8.84L5.00101 8.652L5.16001 8.536C5.1643 8.53254 5.16742 8.52786 5.16897 8.52258C5.17052 8.5173 5.17042 8.51167 5.16868 8.50644C5.16694 8.50122 5.16364 8.49666 5.15923 8.49336C5.15483 8.49006 5.14951 8.48819 5.14401 8.488L4.94801 8.486L4.94701 8.484ZM5.64201 2.72L5.70501 2.907L5.90101 2.909C5.92701 2.909 5.93701 2.941 5.91701 2.956L5.75901 3.073L5.81801 3.261C5.81937 3.26619 5.81916 3.27167 5.81739 3.27673C5.81562 3.2818 5.81239 3.28622 5.80809 3.28944C5.8038 3.29266 5.79865 3.29453 5.79329 3.2948C5.78793 3.29508 5.78261 3.29376 5.77801 3.291L5.61801 3.176L5.45801 3.29C5.45342 3.2935 5.44783 3.29545 5.44206 3.29554C5.43628 3.29563 5.43063 3.29387 5.42593 3.29051C5.42123 3.28716 5.41774 3.28238 5.41595 3.27689C5.41416 3.2714 5.41419 3.26548 5.41601 3.26L5.47601 3.073L5.31701 2.956C5.31253 2.95273 5.30921 2.94812 5.30754 2.94283C5.30587 2.93754 5.30593 2.93186 5.30772 2.92661C5.3095 2.92136 5.31292 2.91682 5.31747 2.91365C5.32203 2.91048 5.32747 2.90885 5.33301 2.909L5.53001 2.907L5.59201 2.72C5.60001 2.696 5.63401 2.696 5.64201 2.72ZM5.70501 4.464L5.64201 4.277C5.63999 4.27203 5.63653 4.26778 5.63207 4.26479C5.62762 4.2618 5.62238 4.2602 5.61701 4.2602C5.61165 4.2602 5.60641 4.2618 5.60195 4.26479C5.5975 4.26778 5.59404 4.27203 5.59201 4.277L5.53001 4.464L5.33301 4.465C5.32751 4.46519 5.3222 4.46706 5.31779 4.47036C5.31339 4.47366 5.31009 4.47822 5.30835 4.48344C5.30661 4.48867 5.3065 4.4943 5.30805 4.49958C5.3096 4.50486 5.31273 4.50954 5.31701 4.513L5.47601 4.63L5.41601 4.817C5.41445 4.82233 5.41456 4.82801 5.41634 4.83328C5.41813 4.83854 5.42149 4.84312 5.42597 4.8464C5.43046 4.84968 5.43584 4.8515 5.4414 4.85161C5.44695 4.85172 5.45241 4.85011 5.45701 4.847L5.61701 4.732L5.77701 4.847C5.78161 4.84976 5.78693 4.85108 5.79229 4.8508C5.79765 4.85053 5.8028 4.84866 5.80709 4.84544C5.81139 4.84222 5.81462 4.8378 5.81639 4.83273C5.81816 4.82767 5.81837 4.82219 5.81701 4.817L5.75901 4.63L5.91701 4.513C5.9213 4.50954 5.92442 4.50486 5.92597 4.49958C5.92752 4.4943 5.92742 4.48867 5.92568 4.48344C5.92394 4.47822 5.92064 4.47366 5.91623 4.47036C5.91183 4.46706 5.90651 4.46519 5.90101 4.465L5.70501 4.464ZM5.64201 6.004L5.70501 6.19L5.90101 6.192C5.92701 6.192 5.93701 6.225 5.91701 6.24L5.75901 6.357L5.81801 6.544C5.81937 6.54919 5.81916 6.55467 5.81739 6.55973C5.81562 6.5648 5.81239 6.56922 5.80809 6.57244C5.8038 6.57566 5.79865 6.57753 5.79329 6.57781C5.78793 6.57808 5.78261 6.57676 5.77801 6.574L5.61801 6.459L5.45801 6.574C5.45342 6.5775 5.44783 6.57945 5.44206 6.57954C5.43628 6.57963 5.43063 6.57787 5.42593 6.57451C5.42123 6.57116 5.41774 6.56638 5.41595 6.56089C5.41416 6.5554 5.41419 6.54948 5.41601 6.544L5.47601 6.357L5.31701 6.24C5.31273 6.23654 5.3096 6.23186 5.30805 6.22658C5.3065 6.2213 5.30661 6.21567 5.30835 6.21044C5.31009 6.20522 5.31339 6.20066 5.31779 6.19736C5.3222 6.19406 5.32751 6.19219 5.33301 6.192L5.53001 6.19L5.59201 6.004C5.59404 5.99903 5.5975 5.99478 5.60195 5.99179C5.60641 5.9888 5.61165 5.9872 5.61701 5.9872C5.62238 5.9872 5.62762 5.9888 5.63207 5.99179C5.63653 5.99478 5.63999 5.99903 5.64201 6.004ZM5.70501 7.777L5.64201 7.59C5.63999 7.58503 5.63653 7.58078 5.63207 7.57779C5.62762 7.5748 5.62238 7.5732 5.61701 7.5732C5.61165 7.5732 5.60641 7.5748 5.60195 7.57779C5.5975 7.58078 5.59404 7.58503 5.59201 7.59L5.53001 7.777L5.33301 7.779C5.32774 7.7794 5.3227 7.78134 5.31852 7.78458C5.31435 7.78782 5.31121 7.79221 5.30951 7.79722C5.3078 7.80223 5.3076 7.80762 5.30894 7.81274C5.31027 7.81785 5.31308 7.82246 5.31701 7.826L5.47601 7.943L5.41601 8.131C5.41445 8.13633 5.41456 8.14201 5.41634 8.14728C5.41813 8.15254 5.42149 8.15712 5.42597 8.1604C5.43046 8.16368 5.43584 8.1655 5.4414 8.16561C5.44695 8.16572 5.45241 8.16411 5.45701 8.161L5.61701 8.046L5.77701 8.16C5.78161 8.16276 5.78693 8.16408 5.79229 8.1638C5.79765 8.16353 5.8028 8.16166 5.80709 8.15844C5.81139 8.15522 5.81462 8.1508 5.81639 8.14573C5.81816 8.14067 5.81837 8.13519 5.81701 8.13L5.75901 7.943L5.91701 7.826C5.92095 7.82246 5.92375 7.81785 5.92509 7.81274C5.92642 7.80762 5.92622 7.80223 5.92452 7.79722C5.92282 7.79221 5.91968 7.78782 5.9155 7.78458C5.91132 7.78134 5.90629 7.7794 5.90101 7.779L5.70501 7.777ZM5.64201 9.033L5.70501 9.22L5.90101 9.222C5.92701 9.222 5.93701 9.254 5.91701 9.269L5.75901 9.386L5.81801 9.574C5.81937 9.57919 5.81916 9.58467 5.81739 9.58973C5.81562 9.5948 5.81239 9.59922 5.80809 9.60244C5.8038 9.60566 5.79865 9.60753 5.79329 9.6078C5.78793 9.60808 5.78261 9.60676 5.77801 9.604L5.61801 9.489L5.45801 9.603C5.45342 9.6065 5.44783 9.60845 5.44206 9.60854C5.43628 9.60863 5.43063 9.60687 5.42593 9.60351C5.42123 9.60015 5.41774 9.59538 5.41595 9.58989C5.41416 9.5844 5.41419 9.57848 5.41601 9.573L5.47601 9.386L5.31701 9.269C5.31308 9.26546 5.31027 9.26085 5.30894 9.25574C5.3076 9.25062 5.3078 9.24523 5.30951 9.24022C5.31121 9.23522 5.31435 9.23082 5.31852 9.22758C5.3227 9.22434 5.32774 9.2224 5.33301 9.222L5.53001 9.22L5.59201 9.033C5.59404 9.02803 5.5975 9.02378 5.60195 9.02079C5.60641 9.0178 5.61165 9.0162 5.61701 9.0162C5.62238 9.0162 5.62762 9.0178 5.63207 9.02079C5.63653 9.02378 5.63999 9.02803 5.64201 9.033ZM6.46001 3.644L6.40001 3.46C6.39799 3.45503 6.39453 3.45078 6.39007 3.44779C6.38562 3.4448 6.38038 3.4432 6.37501 3.4432C6.36965 3.4432 6.36441 3.4448 6.35995 3.44779C6.3555 3.45078 6.35204 3.45503 6.35001 3.46L6.28801 3.646L6.09101 3.648C6.08551 3.64819 6.0802 3.65006 6.07579 3.65336C6.07138 3.65666 6.06809 3.66122 6.06635 3.66644C6.06461 3.67167 6.06451 3.6773 6.06605 3.68258C6.0676 3.68786 6.07073 3.69254 6.07501 3.696L6.23401 3.812L6.17401 4C6.17265 4.00519 6.17287 4.01067 6.17464 4.01573C6.1764 4.0208 6.17964 4.02522 6.18393 4.02844C6.18822 4.03166 6.19338 4.03353 6.19874 4.03381C6.20409 4.03408 6.20941 4.03276 6.21401 4.03L6.37501 3.915L6.53501 4.03C6.53961 4.03276 6.54493 4.03408 6.55029 4.03381C6.55565 4.03353 6.5608 4.03166 6.56509 4.02844C6.56939 4.02522 6.57262 4.0208 6.57439 4.01573C6.57616 4.01067 6.57637 4.00519 6.57501 4L6.51601 3.812L6.67501 3.696C6.67999 3.69292 6.68378 3.68825 6.68577 3.68274C6.68776 3.67724 6.68784 3.67123 6.68599 3.66568C6.68414 3.66012 6.68047 3.65536 6.67557 3.65215C6.67068 3.64894 6.66484 3.64748 6.65901 3.648L6.46201 3.646L6.46001 3.644ZM6.40001 5.185L6.46201 5.372L6.65901 5.373C6.68501 5.373 6.69501 5.406 6.67501 5.421L6.51601 5.538L6.57601 5.725C6.57758 5.73033 6.57746 5.73601 6.57568 5.74128C6.5739 5.74654 6.57054 5.75112 6.56605 5.7544C6.56157 5.75768 6.55618 5.7595 6.55063 5.75961C6.54507 5.75972 6.53962 5.75811 6.53501 5.755L6.37501 5.64L6.21501 5.755C6.21041 5.75776 6.20509 5.75908 6.19974 5.7588C6.19438 5.75853 6.18922 5.75666 6.18493 5.75344C6.18064 5.75022 6.1774 5.7458 6.17564 5.74073C6.17387 5.73567 6.17365 5.73019 6.17501 5.725L6.23401 5.538L6.07501 5.421C6.07073 5.41754 6.0676 5.41286 6.06605 5.40758C6.06451 5.4023 6.06461 5.39667 6.06635 5.39144C6.06809 5.38622 6.07138 5.38166 6.07579 5.37836C6.0802 5.37506 6.08551 5.37319 6.09101 5.373L6.28801 5.371L6.35001 5.185C6.35204 5.18003 6.3555 5.17578 6.35995 5.17279C6.36441 5.1698 6.36965 5.1682 6.37501 5.1682C6.38038 5.1682 6.38562 5.1698 6.39007 5.17279C6.39453 5.17578 6.39799 5.18003 6.40001 5.185ZM6.46201 7.012L6.40001 6.825C6.39799 6.82003 6.39453 6.81578 6.39007 6.81279C6.38562 6.8098 6.38038 6.8082 6.37501 6.8082C6.36965 6.8082 6.36441 6.8098 6.35995 6.81279C6.3555 6.81578 6.35204 6.82003 6.35001 6.825L6.28801 7.012L6.09101 7.013C6.08551 7.01319 6.0802 7.01506 6.07579 7.01836C6.07138 7.02166 6.06809 7.02622 6.06635 7.03144C6.06461 7.03667 6.06451 7.0423 6.06605 7.04758C6.0676 7.05286 6.07073 7.05754 6.07501 7.061L6.23401 7.178L6.17401 7.366C6.17265 7.37119 6.17287 7.37667 6.17464 7.38173C6.1764 7.3868 6.17964 7.39122 6.18393 7.39444C6.18822 7.39766 6.19338 7.39953 6.19874 7.39981C6.20409 7.40008 6.20941 7.39876 6.21401 7.396L6.37501 7.281L6.53501 7.395C6.53961 7.39776 6.54493 7.39908 6.55029 7.39881C6.55565 7.39853 6.5608 7.39666 6.56509 7.39344C6.56939 7.39022 6.57262 7.3858 6.57439 7.38073C6.57616 7.37567 6.57637 7.37019 6.57501 7.365L6.51601 7.178L6.67501 7.061C6.6793 7.05754 6.68242 7.05286 6.68397 7.04758C6.68552 7.0423 6.68542 7.03667 6.68368 7.03144C6.68194 7.02622 6.67864 7.02166 6.67423 7.01836C6.66983 7.01506 6.66451 7.01319 6.65901 7.013L6.46201 7.012ZM6.40001 8.299L6.46201 8.485L6.65901 8.487C6.68501 8.487 6.69501 8.519 6.67501 8.535L6.51601 8.651L6.57601 8.839C6.57758 8.84433 6.57746 8.85001 6.57568 8.85528C6.5739 8.86054 6.57054 8.86512 6.56605 8.8684C6.56157 8.87168 6.55618 8.8735 6.55063 8.87361C6.54507 8.87372 6.53962 8.87211 6.53501 8.869L6.37501 8.754L6.21501 8.869C6.21041 8.87176 6.20509 8.87308 6.19974 8.87281C6.19438 8.87253 6.18922 8.87066 6.18493 8.86744C6.18064 8.86422 6.1774 8.8598 6.17564 8.85473C6.17387 8.84967 6.17365 8.84419 6.17501 8.839L6.23401 8.651L6.07501 8.535C6.07073 8.53154 6.0676 8.52686 6.06605 8.52158C6.06451 8.5163 6.06461 8.51067 6.06635 8.50545C6.06809 8.50022 6.07138 8.49566 6.07579 8.49236C6.0802 8.48906 6.08551 8.48719 6.09101 8.487L6.28801 8.485L6.35001 8.299C6.35204 8.29403 6.3555 8.28978 6.35995 8.28679C6.36441 8.2838 6.36965 8.2822 6.37501 8.2822C6.38038 8.2822 6.38562 8.2838 6.39007 8.28679C6.39453 8.28978 6.39799 8.29403 6.40001 8.299ZM7.22101 2.909L7.15901 2.721C7.15101 2.697 7.11701 2.697 7.10901 2.721L7.04601 2.908L6.85001 2.91C6.84447 2.90985 6.83903 2.91148 6.83447 2.91465C6.82992 2.91782 6.82651 2.92236 6.82472 2.92761C6.82293 2.93286 6.82287 2.93854 6.82454 2.94383C6.82621 2.94912 6.82953 2.95373 6.83401 2.957L6.99201 3.074L6.93301 3.262C6.93165 3.26719 6.93187 3.27267 6.93364 3.27773C6.9354 3.2828 6.93864 3.28722 6.94293 3.29044C6.94722 3.29366 6.95238 3.29553 6.95774 3.29581C6.96309 3.29608 6.96841 3.29476 6.97301 3.292L7.13301 3.177L7.29301 3.291C7.2976 3.2945 7.30319 3.29645 7.30897 3.29654C7.31474 3.29663 7.32039 3.29487 7.32509 3.29151C7.32979 3.28816 7.33329 3.28338 7.33508 3.27789C7.33686 3.2724 7.33684 3.26648 7.33501 3.261L7.27501 3.074L7.43301 2.957C7.43691 2.95353 7.43972 2.949 7.4411 2.94396C7.44248 2.93893 7.44237 2.9336 7.44078 2.92863C7.43919 2.92365 7.4362 2.91925 7.43216 2.91594C7.42811 2.91264 7.4232 2.91057 7.41801 2.91L7.22101 2.908V2.909ZM7.15901 4.278L7.22101 4.465L7.41801 4.466C7.44301 4.466 7.45401 4.499 7.43301 4.514L7.27501 4.631L7.33501 4.818C7.33658 4.82333 7.33646 4.82901 7.33468 4.83428C7.3329 4.83954 7.32954 4.84412 7.32505 4.8474C7.32057 4.85068 7.31518 4.8525 7.30963 4.85261C7.30407 4.85272 7.29862 4.85111 7.29401 4.848L7.13401 4.733L6.97401 4.848C6.96941 4.85111 6.96395 4.85272 6.9584 4.85261C6.95284 4.8525 6.94746 4.85068 6.94297 4.8474C6.93849 4.84412 6.93513 4.83954 6.93334 4.83428C6.93156 4.82901 6.93145 4.82333 6.93301 4.818L6.99301 4.631L6.83401 4.514C6.82973 4.51054 6.8266 4.50586 6.82505 4.50058C6.8235 4.4953 6.82361 4.48967 6.82535 4.48444C6.82709 4.47922 6.83038 4.47466 6.83479 4.47136C6.8392 4.46806 6.84451 4.46619 6.85001 4.466L7.04601 4.465L7.10901 4.278C7.11104 4.27303 7.1145 4.26878 7.11895 4.26579C7.12341 4.2628 7.12865 4.2612 7.13401 4.2612C7.13938 4.2612 7.14462 4.2628 7.14907 4.26579C7.15353 4.26878 7.15699 4.27303 7.15901 4.278ZM7.22001 6.19L7.15801 6.004C7.15599 5.99903 7.15253 5.99478 7.14807 5.99179C7.14362 5.9888 7.13838 5.9872 7.13301 5.9872C7.12765 5.9872 7.12241 5.9888 7.11795 5.99179C7.1135 5.99478 7.11004 5.99903 7.10801 6.004L7.04501 6.19L6.84901 6.192C6.84351 6.19219 6.8382 6.19406 6.83379 6.19736C6.82938 6.20066 6.82609 6.20522 6.82435 6.21044C6.82261 6.21567 6.8225 6.2213 6.82405 6.22658C6.8256 6.23186 6.82873 6.23654 6.83301 6.24L6.99101 6.357L6.93201 6.544C6.93065 6.54919 6.93087 6.55467 6.93264 6.55973C6.9344 6.5648 6.93764 6.56922 6.94193 6.57244C6.94622 6.57566 6.95138 6.57753 6.95674 6.57781C6.96209 6.57808 6.96741 6.57676 6.97201 6.574L7.13201 6.459L7.29201 6.574C7.2966 6.5775 7.3022 6.57945 7.30797 6.57954C7.31374 6.57963 7.31939 6.57787 7.32409 6.57451C7.32879 6.57116 7.33229 6.56638 7.33408 6.56089C7.33586 6.5554 7.33584 6.54948 7.33401 6.544L7.27401 6.357L7.43201 6.24C7.43625 6.2366 7.43937 6.23201 7.44095 6.22681C7.44253 6.22162 7.44252 6.21606 7.4409 6.21088C7.43928 6.2057 7.43613 6.20112 7.43187 6.19775C7.42761 6.19438 7.42243 6.19238 7.41701 6.192L7.22001 6.19ZM7.15801 7.59L7.22001 7.777L7.41701 7.779C7.44201 7.779 7.45301 7.811 7.43201 7.826L7.27401 7.943L7.33401 8.131C7.33558 8.13633 7.33546 8.14201 7.33368 8.14728C7.3319 8.15254 7.32854 8.15712 7.32405 8.1604C7.31957 8.16368 7.31418 8.1655 7.30863 8.16561C7.30307 8.16572 7.29762 8.16411 7.29301 8.161L7.13301 8.046L6.97301 8.16C6.96841 8.16311 6.96295 8.16472 6.9574 8.16461C6.95184 8.1645 6.94646 8.16268 6.94197 8.1594C6.93749 8.15612 6.93413 8.15154 6.93234 8.14628C6.93056 8.14101 6.93045 8.13533 6.93201 8.13L6.99201 7.943L6.83301 7.826C6.82908 7.82246 6.82627 7.81785 6.82494 7.81274C6.82361 7.80762 6.8238 7.80223 6.82551 7.79722C6.82721 7.79221 6.83035 7.78782 6.83452 7.78458C6.8387 7.78134 6.84374 7.7794 6.84901 7.779L7.04501 7.777L7.10801 7.59C7.11004 7.58503 7.1135 7.58078 7.11795 7.57779C7.12241 7.5748 7.12765 7.5732 7.13301 7.5732C7.13838 7.5732 7.14362 7.5748 7.14807 7.57779C7.15253 7.58078 7.15599 7.58503 7.15801 7.59ZM7.22001 9.22L7.15801 9.033C7.15599 9.02803 7.15253 9.02378 7.14807 9.02079C7.14362 9.0178 7.13838 9.0162 7.13301 9.0162C7.12765 9.0162 7.12241 9.0178 7.11795 9.02079C7.1135 9.02378 7.11004 9.02803 7.10801 9.033L7.04501 9.22L6.84901 9.222C6.84374 9.2224 6.8387 9.22434 6.83452 9.22758C6.83035 9.23082 6.82721 9.23522 6.82551 9.24022C6.8238 9.24523 6.82361 9.25062 6.82494 9.25574C6.82627 9.26085 6.82908 9.26546 6.83301 9.269L6.99101 9.386L6.93201 9.574C6.93065 9.57919 6.93087 9.58467 6.93264 9.58973C6.9344 9.5948 6.93764 9.59922 6.94193 9.60244C6.94622 9.60566 6.95138 9.60753 6.95674 9.6078C6.96209 9.60808 6.96741 9.60676 6.97201 9.604L7.13201 9.489L7.29201 9.603C7.2966 9.6065 7.3022 9.60845 7.30797 9.60854C7.31374 9.60863 7.31939 9.60687 7.32409 9.60351C7.32879 9.60015 7.33229 9.59538 7.33408 9.58989C7.33586 9.5844 7.33584 9.57848 7.33401 9.573L7.27401 9.386L7.43201 9.269C7.43591 9.26553 7.43872 9.261 7.4401 9.25596C7.44148 9.25093 7.44136 9.2456 7.43978 9.24063C7.43819 9.23565 7.43519 9.23125 7.43115 9.22794C7.42711 9.22464 7.4222 9.22257 7.41701 9.222L7.22001 9.22Z" fill="#F5F5F5"/>
<path d="M12.281 7C11.4108 7 10.5763 7.34568 9.96098 7.96098C9.34568 8.57629 9 9.41082 9 10.281V18.719C9 19.5892 9.34568 20.4237 9.96098 21.039C10.5763 21.6543 11.4108 22 12.281 22H14V7H12.281Z" fill="#7FAD1B"/>
<path d="M19 7H14V22H19V7Z" fill="#F6F6F6"/>
<path d="M20.72 7H19V22H20.719C21.5892 22 22.4237 21.6543 23.039 21.039C23.6543 20.4237 24 19.5892 24 18.719V10.28C23.9997 9.41017 23.6541 8.57604 23.039 7.96098C22.424 7.34592 21.5898 7.00027 20.72 7Z" fill="#FB4B4E"/>
<path d="M16.946 14.731L16.5 14.954V15.177H16.723L16.946 14.731Z" fill="#FFD250"/>
<path d="M16.499 15.735C16.4843 15.7351 16.4697 15.7323 16.456 15.7267C16.4424 15.7212 16.43 15.7129 16.4195 15.7025C16.4091 15.6921 16.4009 15.6797 16.3953 15.666C16.3897 15.6524 16.3869 15.6377 16.387 15.623V15.177C16.387 15.1474 16.3988 15.1191 16.4197 15.0982C16.4406 15.0772 16.469 15.0655 16.4985 15.0655C16.5281 15.0655 16.5565 15.0772 16.5774 15.0982C16.5983 15.1191 16.61 15.1474 16.61 15.177V15.623C16.61 15.685 16.56 15.735 16.499 15.735Z" fill="#00C3A0"/>
<path d="M16.5 15.289C16.061 15.289 15.638 15.119 15.308 14.813C15.2897 14.7921 15.2798 14.7652 15.2802 14.7374C15.2806 14.7097 15.2914 14.6831 15.3103 14.6628C15.3292 14.6425 15.355 14.6299 15.3827 14.6276C15.4104 14.6252 15.4379 14.6332 15.46 14.65C15.749 14.918 16.118 15.066 16.5 15.066C16.88 15.066 17.25 14.918 17.538 14.65C17.5601 14.6332 17.5877 14.6252 17.6153 14.6276C17.643 14.6299 17.6688 14.6425 17.6877 14.6628C17.7067 14.6831 17.7174 14.7097 17.7178 14.7374C17.7182 14.7652 17.7083 14.7921 17.69 14.813C17.36 15.12 16.937 15.289 16.5 15.289Z" fill="#00C3A0"/>
<path d="M16.5 15.735C16.214 15.735 15.937 15.652 15.7 15.493L15.823 15.308C16.225 15.575 16.775 15.575 17.177 15.308L17.301 15.493C17.0641 15.6508 16.7857 15.735 16.501 15.735H16.5Z" fill="#00AADC"/>
<path d="M16.323 14.23L16.076 14.61L16.035 14.736L16.675 14.587L16.323 14.23Z" fill="#732D37"/>
<path d="M15.818 14.858C15.523 14.858 15.17 14.61 15.076 14.058L15.296 14.02C15.374 14.48 15.656 14.636 15.826 14.635C15.878 14.634 15.933 14.616 15.936 14.579C15.942 14.535 15.943 14.525 15.826 14.485C15.7562 14.4678 15.6924 14.4322 15.641 14.382C15.437 14.149 15.713 13.902 15.846 13.784C15.869 13.763 15.879 13.745 15.876 13.738C15.869 13.72 15.826 13.691 15.776 13.691C15.634 13.691 15.526 13.611 15.496 13.481C15.4801 13.4173 15.4857 13.3501 15.5119 13.2899C15.5381 13.2296 15.5835 13.1798 15.641 13.148L15.743 13.346C15.716 13.36 15.705 13.4 15.713 13.429C15.715 13.441 15.722 13.468 15.776 13.468C15.912 13.468 16.042 13.548 16.084 13.659C16.103 13.706 16.13 13.829 15.994 13.95C15.848 14.081 15.76 14.18 15.809 14.235C15.8365 14.2525 15.8665 14.2657 15.898 14.274C15.998 14.308 16.185 14.371 16.158 14.604C16.142 14.752 16.01 14.854 15.832 14.858H15.818Z" fill="#AAD264"/>
<path d="M16.723 13.616C16.723 13.616 16.946 13.17 16.5 12.947C16.5 12.947 18.061 12.724 17.838 14.731C17.692 14.614 17.474 14.401 17.397 14.229L16.723 13.839V13.616Z" fill="#874150"/>
<path d="M16.5 14.062L17.615 14.732L17.169 14.954L16.5 14.285V14.062Z" fill="#732D37"/>
<path d="M16.054 13.393C16.177 13.393 16.277 13.493 16.277 13.616C16.212 13.6809 16.1691 13.7646 16.1544 13.8552C16.1397 13.9459 16.1539 14.0389 16.195 14.121L16.245 14.221C16.266 14.264 16.294 14.302 16.327 14.336L16.946 14.954V14.646C16.946 14.262 16.856 13.884 16.685 13.54C16.6294 13.4287 16.5439 13.3352 16.4381 13.2698C16.3323 13.2045 16.2104 13.1699 16.086 13.17H16.054V13.393Z" fill="#783C46"/>
<path d="M16.054 13.17L15.831 13.393V13.616C15.831 13.616 16.096 13.482 16.186 13.439C16.248 13.409 16.236 13.339 16.201 13.304C16.1523 13.259 16.1033 13.2144 16.054 13.17Z" fill="#FFD250"/>
<path d="M16.5 16.181C15.9973 16.1805 15.5154 15.9805 15.1599 15.6251C14.8045 15.2696 14.6045 14.7877 14.604 14.285H14.827C14.827 15.208 15.577 15.958 16.499 15.958C17.422 15.958 18.172 15.208 18.172 14.285H18.395C18.395 15.331 17.545 16.181 16.499 16.181H16.5Z" fill="#AAD264"/>
<path d="M14.84 15.098C14.8599 15.098 14.8795 15.0941 14.8978 15.0865C14.9161 15.0789 14.9328 15.0678 14.9468 15.0538C14.9608 15.0397 14.9719 15.0231 14.9795 15.0048C14.9871 14.9865 14.991 14.9668 14.991 14.947C14.991 14.9272 14.9871 14.9075 14.9795 14.8892C14.9719 14.8709 14.9608 14.8542 14.9468 14.8402C14.9328 14.8262 14.9161 14.8151 14.8978 14.8075C14.8795 14.7999 14.8599 14.796 14.84 14.796C14.8 14.796 14.7616 14.8119 14.7333 14.8402C14.7049 14.8685 14.689 14.9069 14.689 14.947C14.689 14.987 14.7049 15.0255 14.7333 15.0538C14.7616 15.0821 14.8 15.098 14.84 15.098ZM15.174 15.633C15.2142 15.633 15.2527 15.617 15.2812 15.5886C15.3096 15.5602 15.3255 15.5217 15.3255 15.4815C15.3255 15.4413 15.3096 15.4028 15.2812 15.3744C15.2527 15.346 15.2142 15.33 15.174 15.33C15.1338 15.33 15.0953 15.346 15.0669 15.3744C15.0385 15.4028 15.0225 15.4413 15.0225 15.4815C15.0225 15.5217 15.0385 15.5602 15.0669 15.5886C15.0953 15.617 15.1338 15.633 15.174 15.633ZM15.717 16.037C15.7572 16.037 15.7957 16.021 15.8242 15.9926C15.8526 15.9642 15.8685 15.9257 15.8685 15.8855C15.8685 15.8453 15.8526 15.8068 15.8242 15.7784C15.7957 15.75 15.7572 15.734 15.717 15.734C15.6768 15.734 15.6383 15.75 15.6099 15.7784C15.5815 15.8068 15.5655 15.8453 15.5655 15.8855C15.5655 15.9257 15.5815 15.9642 15.6099 15.9926C15.6383 16.021 15.6768 16.037 15.717 16.037ZM18.177 15.098C18.1969 15.098 18.2165 15.0941 18.2348 15.0865C18.2531 15.0789 18.2698 15.0678 18.2838 15.0538C18.2978 15.0397 18.3089 15.0231 18.3165 15.0048C18.3241 14.9865 18.328 14.9668 18.328 14.947C18.328 14.9272 18.3241 14.9075 18.3165 14.8892C18.3089 14.8709 18.2978 14.8542 18.2838 14.8402C18.2698 14.8262 18.2531 14.8151 18.2348 14.8075C18.2165 14.7999 18.1969 14.796 18.177 14.796C18.137 14.796 18.0986 14.8119 18.0703 14.8402C18.0419 14.8685 18.026 14.9069 18.026 14.947C18.026 14.987 18.0419 15.0255 18.0703 15.0538C18.0986 15.0821 18.137 15.098 18.177 15.098ZM17.842 15.633C17.8822 15.633 17.9207 15.617 17.9492 15.5886C17.9776 15.5602 17.9935 15.5217 17.9935 15.4815C17.9935 15.4413 17.9776 15.4028 17.9492 15.3744C17.9207 15.346 17.8822 15.33 17.842 15.33C17.8018 15.33 17.7633 15.346 17.7349 15.3744C17.7065 15.4028 17.6905 15.4413 17.6905 15.4815C17.6905 15.5217 17.7065 15.5602 17.7349 15.5886C17.7633 15.617 17.8018 15.633 17.842 15.633ZM17.299 16.037C17.3392 16.037 17.3777 16.021 17.4062 15.9926C17.4346 15.9642 17.4505 15.9257 17.4505 15.8855C17.4505 15.8453 17.4346 15.8068 17.4062 15.7784C17.3777 15.75 17.3392 15.734 17.299 15.734C17.2588 15.734 17.2203 15.75 17.1919 15.7784C17.1635 15.8068 17.1475 15.8453 17.1475 15.8855C17.1475 15.9257 17.1635 15.9642 17.1919 15.9926C17.2203 16.021 17.2588 16.037 17.299 16.037Z" fill="#FFE15A"/>
<path d="M16.612 15.847H16.389C16.3298 15.847 16.2729 15.8235 16.231 15.7815C16.1891 15.7396 16.1655 15.6828 16.1655 15.6235C16.1655 15.5642 16.1891 15.5074 16.231 15.4655C16.2729 15.4235 16.3298 15.4 16.389 15.4H16.612C16.6713 15.4 16.7282 15.4235 16.7701 15.4655C16.812 15.5074 16.8355 15.5642 16.8355 15.6235C16.8355 15.6828 16.812 15.7396 16.7701 15.7815C16.7282 15.8235 16.6713 15.847 16.612 15.847Z" fill="#FFB478"/>
<path d="M17.397 14.23C17.471 14.448 17.629 14.648 17.838 14.731C18.061 12.724 16.5 12.947 16.5 12.947C17.615 12.947 17.397 14.23 17.397 14.23Z" fill="#9B4B5A"/>
</g>
<defs>
<clipPath id="clip0">
<rect width="24" height="24" fill="white"/>
</clipPath>
</defs>
</svg>
