<svg width="20" height="20" viewBox="0 0 20 20" fill="none" xmlns="http://www.w3.org/2000/svg">
<g clip-path="url(#clip0_391_297)">
<path d="M10 20C15.5228 20 20 15.5228 20 10C20 4.47715 15.5228 0 10 0C4.47715 0 0 4.47715 0 10C0 15.5228 4.47715 20 10 20Z" fill="#26A17B"/>
<path fill-rule="evenodd" clip-rule="evenodd" d="M11.2013 10.8643V10.8631C11.1325 10.8681 10.7781 10.8893 9.9875 10.8893C9.35625 10.8893 8.91187 10.8706 8.75562 10.8631V10.865C6.32562 10.7581 4.51187 10.335 4.51187 9.82872C4.51187 9.32309 6.32562 8.89997 8.75562 8.79122V10.4437C8.91437 10.455 9.36937 10.4818 9.99812 10.4818C10.7525 10.4818 11.1306 10.4506 11.2013 10.4443V8.79247C13.6263 8.90059 15.4356 9.32372 15.4356 9.82872C15.4356 10.335 13.6263 10.7568 11.2013 10.8643ZM11.2013 8.62059V7.14184H14.585V4.88684H5.37188V7.14184H8.75562V8.61997C6.00562 8.74622 3.9375 9.29122 3.9375 9.94372C3.9375 10.5962 6.00562 11.1406 8.75562 11.2675V16.0062H11.2013V11.2662C13.9469 11.14 16.01 10.5956 16.01 9.94372C16.01 9.29184 13.9469 8.74747 11.2013 8.62059Z" fill="white"/>
<g clip-path="url(#clip1_391_297)">
<path d="M16 20C18.2091 20 20 18.2091 20 16C20 13.7909 18.2091 12 16 12C13.7909 12 12 13.7909 12 16C12 18.2091 13.7909 20 16 20Z" fill="#627EEA"/>
<path d="M16.1245 13V15.2175L17.9988 16.055L16.1245 13Z" fill="white" fill-opacity="0.602"/>
<path d="M16.1245 13L14.25 16.055L16.1245 15.2175V13Z" fill="white"/>
<path d="M16.1245 17.4921V18.9988L18 16.4041L16.1245 17.4921Z" fill="white" fill-opacity="0.602"/>
<path d="M16.1245 18.9988V17.4918L14.25 16.4041L16.1245 18.9988Z" fill="white"/>
<path d="M16.1245 17.1433L17.9988 16.055L16.1245 15.218V17.1433Z" fill="white" fill-opacity="0.2"/>
<path d="M14.25 16.055L16.1245 17.1433V15.218L14.25 16.055Z" fill="white" fill-opacity="0.602"/>
</g>
</g>
<defs>
<clipPath id="clip0_391_297">
<rect width="20" height="20" fill="white"/>
</clipPath>
<clipPath id="clip1_391_297">
<rect width="8" height="8" fill="white" transform="translate(12 12)"/>
</clipPath>
</defs>
</svg>
