<svg width="20" height="20" viewBox="0 0 20 20" fill="none" xmlns="http://www.w3.org/2000/svg">
<g clip-path="url(#clip0_435_306)">
<path d="M10 20C15.5228 20 20 15.5228 20 10C20 4.47715 15.5228 0 10 0C4.47715 0 0 4.47715 0 10C0 15.5228 4.47715 20 10 20Z" fill="#26A17B"/>
<path fill-rule="evenodd" clip-rule="evenodd" d="M11.2013 10.8643V10.8631C11.1325 10.8681 10.7781 10.8893 9.9875 10.8893C9.35625 10.8893 8.91187 10.8706 8.75562 10.8631V10.865C6.32562 10.7581 4.51187 10.335 4.51187 9.82872C4.51187 9.32309 6.32562 8.89997 8.75562 8.79122V10.4437C8.91437 10.455 9.36937 10.4818 9.99812 10.4818C10.7525 10.4818 11.1306 10.4506 11.2013 10.4443V8.79247C13.6263 8.90059 15.4356 9.32372 15.4356 9.82872C15.4356 10.335 13.6263 10.7568 11.2013 10.8643ZM11.2013 8.62059V7.14184H14.585V4.88684H5.37188V7.14184H8.75562V8.61997C6.00562 8.74622 3.9375 9.29122 3.9375 9.94372C3.9375 10.5962 6.00562 11.1406 8.75562 11.2675V16.0062H11.2013V11.2662C13.9469 11.14 16.01 10.5956 16.01 9.94372C16.01 9.29184 13.9469 8.74747 11.2013 8.62059Z" fill="white"/>
<g clip-path="url(#clip1_435_306)">
<path d="M17.6503 14.9839C17.6223 15.0119 17.5847 15.0279 17.5455 15.0279H13.8295C13.6983 15.0279 13.6319 14.8679 13.7231 14.7727L14.3327 14.1415C14.3607 14.1127 14.3991 14.0959 14.4391 14.0959H18.1687C18.3007 14.0959 18.3671 14.2575 18.2735 14.3527L17.6503 14.9839ZM17.6503 17.8047C17.6223 17.8319 17.5847 17.8479 17.5455 17.8479H13.8295C13.6983 17.8479 13.6319 17.6919 13.7231 17.5991L14.3327 16.9831C14.3607 16.9551 14.3991 16.9391 14.4391 16.9391H18.1687C18.3007 16.9391 18.3671 17.0967 18.2735 17.1895L17.6503 17.8047ZM17.5455 15.5175C17.5847 15.5175 17.6223 15.5327 17.6503 15.5607L18.2735 16.1767C18.3671 16.2687 18.3007 16.4271 18.1687 16.4271H14.4391C14.3991 16.4271 14.3607 16.4111 14.3327 16.3831L13.7231 15.7671C13.6311 15.6743 13.6975 15.5183 13.8295 15.5183L17.5455 15.5175Z" fill="#00FFAD"/>
<path d="M16 12C18.2088 12 20 13.7912 20 16C20 18.2088 18.2088 20 16 20C13.7912 20 12 18.2088 12 16C12 13.7912 13.7912 12 16 12Z" fill="black"/>
<path fill-rule="evenodd" clip-rule="evenodd" d="M13.8497 15.6184H17.5513C17.5977 15.6184 17.6417 15.6368 17.6737 15.6696L18.2593 16.2592C18.3673 16.368 18.2905 16.5536 18.1369 16.5536H14.4353C14.3889 16.5536 14.3449 16.5352 14.3129 16.5024L13.7273 15.9128C13.6185 15.804 13.6961 15.6184 13.8497 15.6184ZM13.7273 14.8368L14.3129 14.2472C14.3457 14.2144 14.3897 14.196 14.4353 14.196H18.1361C18.2897 14.196 18.3673 14.3816 18.2585 14.4904L17.6737 15.08C17.6409 15.1128 17.5969 15.1312 17.5513 15.1312H13.8497C13.6961 15.1312 13.6185 14.9456 13.7273 14.8368ZM18.2585 17.3352L17.6729 17.9248C17.6401 17.9576 17.5961 17.976 17.5505 17.976H13.8497C13.6961 17.976 13.6185 17.7904 13.7273 17.6816L14.3129 17.092C14.3457 17.0592 14.3897 17.0408 14.4353 17.0408H18.1361C18.2897 17.0408 18.3673 17.2264 18.2585 17.3352Z" fill="url(#paint0_linear_435_306)"/>
</g>
</g>
<defs>
<linearGradient id="paint0_linear_435_306" x1="13.9403" y1="18.1387" x2="18.0456" y2="14.0334" gradientUnits="userSpaceOnUse">
<stop stop-color="#CB4EE8"/>
<stop offset="1" stop-color="#10F4B1"/>
</linearGradient>
<clipPath id="clip0_435_306">
<rect width="20" height="20" fill="white"/>
</clipPath>
<clipPath id="clip1_435_306">
<rect width="8" height="8" fill="white" transform="translate(12 12)"/>
</clipPath>
</defs>
</svg>
