<svg width="24" height="24" viewBox="0 0 24 24" fill="none" xmlns="http://www.w3.org/2000/svg">
<path d="M17.625 22H6.375C5.21468 22 4.10188 21.5391 3.28141 20.7186C2.46094 19.8981 2 18.7853 2 17.625V6.375C2 5.21468 2.46094 4.10188 3.28141 3.28141C4.10188 2.46094 5.21468 2 6.375 2H17.625C18.7853 2 19.8981 2.46094 20.7186 3.28141C21.5391 4.10188 22 5.21468 22 6.375V17.625C22 18.7853 21.5391 19.8981 20.7186 20.7186C19.8981 21.5391 18.7853 22 17.625 22Z" fill="#2841C1"/>
<path fill-rule="evenodd" clip-rule="evenodd" d="M2 6.524V7.336L5.102 9.368H2V10.421H10.421V2H9.368V8.388L2.691 4.014C2.42767 4.42363 2.23499 4.87456 2.121 5.348L2 6.524ZM2.691 19.986C2.53281 19.7396 2.39981 19.478 2.294 19.205L2.028 18.122C2.00934 17.957 1.99999 17.7911 2 17.625V16.665L5.102 14.632H2V13.579H10.42V22H9.369V15.612L2.692 19.986H2.691ZM22 16.664V17.624L21.846 18.779C21.7295 19.2063 21.5484 19.6134 21.309 19.986L14.632 15.612V22H13.579V13.579H22V14.632H18.898L22 16.664ZM21.309 4.014C21.463 4.254 21.594 4.511 21.7 4.78L21.97 5.86C21.99 6.029 22 6.2 22 6.375V7.335L18.898 9.368H22V10.421H13.579V2H14.632V8.388L21.309 4.014Z" fill="#F6F6F6"/>
<path fill-rule="evenodd" clip-rule="evenodd" d="M13.579 2H10.42V10.421H2V13.579H10.421V21.999H13.579V13.579H21.999V10.42H13.579V2ZM7.406 14.632L2.029 18.122C2.071 18.5 2.162 18.862 2.295 19.205L9.34 14.632H7.406ZM21.846 18.78L15.456 14.632H17.389L21.999 17.625C21.999 18.025 21.946 18.412 21.846 18.78ZM8.316 9.368L2.122 5.348C2.042 5.678 2 6.02 2 6.375V6.524L6.382 9.368H8.316ZM21.97 5.86L16.566 9.37H14.633L21.7 4.78C21.834 5.121 21.926 5.484 21.97 5.86Z" fill="#FB4B4E"/>
</svg>
