<?xml version="1.0" encoding="UTF-8"?><svg xmlns="http://www.w3.org/2000/svg" viewBox="0 0 1920 480"><defs><style>.cls-1,.cls-2{fill:#0c1d2d;}.cls-3,.cls-4{fill:none;}.cls-3,.cls-4,.cls-2{stroke-linecap:round;stroke-miterlimit:10;stroke-width:1.4px;}.cls-3,.cls-2{stroke:#40ffdd;}.cls-4{stroke:#17473e;}</style></defs><g id="Background_color"><rect class="cls-1" width="1920" height="480"/></g><g id="Circuitry_2"><polyline class="cls-4" points="1241.13 363.71 1269.24 335.6 1327.5 335.6 1419.81 243.29 1534.5 243.29 1627.49 150.3 1627.49 95.32 1680.28 42.53 1800.5 42.53 1917.39 -74.36"/><polyline class="cls-4" points="1602.91 210.45 1633.5 210.45 1690.22 153.72 1851.5 153.72 1881.18 183.4 1968.5 183.4"/><polyline class="cls-4" points="1576.23 276.2 1596.8 296.77 1693.5 296.77 1756.13 234.14 1950.5 234.14"/><polyline class="cls-4" points="1165.34 343.25 1202.51 380.42 1306.5 380.42 1316.48 390.4 1371.5 390.4 1407.36 354.54 1523.5 354.54 1624.73 455.77 1729.5 455.77 1811.93 538.2"/><polyline class="cls-4" points="1554.5 327.79 1584.95 358.24 1645.5 358.24 1699.88 412.62 1747.5 412.62 1850.19 515.31"/><polyline class="cls-4" points="1856.94 411.56 1886.5 411.56 1896.73 421.79 1941.5 421.79"/><polyline class="cls-4" points="1291.37 261.3 1346.93 261.3 1404.56 203.67 1488.63 203.67 1553.74 138.57 1602.91 138.57 1661.95 79.53 1817.5 79.53 1839.39 57.64 1856.94 57.64 1931.54 -16.96"/><polyline class="cls-4" points="1429.87 98.51 1451.5 98.51 1516.76 33.26 1571.5 33.26 1637.63 -32.87"/><polyline class="cls-4" points="1400.5 182.83 1440.58 142.75 1440.58 127.6 1493.96 74.21 1519.5 74.21 1579.11 14.61 1579.11 -7.37"/><polyline class="cls-4" points="1421.5 442.54 1437.41 426.64 1527.5 426.64 1541.95 441.09 1637.63 441.09 1702.16 505.63"/><polyline class="cls-4" points="1561.83 392.87 1602.91 392.87 1618.55 408.51 1661.5 408.51 1764.7 511.71"/><polyline class="cls-4" points="1733.07 327.79 1751.32 309.54 1827.5 309.54 1845.23 291.81 1974.5 291.81"/><polyline class="cls-4" points="1820.5 338.65 1839.18 357.32 1871.5 357.32 1900.13 328.69 1993.5 328.69"/><polyline class="cls-4" points="1744.5 120.68 1755.46 131.64 1856.94 131.64 1893.91 94.66 1960.19 94.66"/><polyline class="cls-4" points="1744.5 79.53 1763.24 98.26 1864.5 98.26 1884.87 77.89 1950.5 77.89"/><polyline class="cls-4" points="1271.34 196 1298.92 168.42 1318.79 168.42 1356.7 130.51 1356.7 92 1427.29 21.41 1427.29 -19.33"/><polyline class="cls-4" points="1375.19 131.64 1375.19 111.23 1428.87 57.55 1450.5 57.55 1520.76 -12.7"/><polyline class="cls-4" points="1284 147.33 1284 122.17 1335.16 71.01 1335.16 32.82 1345.95 22.02 1345.95 -35"/><polyline class="cls-4" points="1140.55 293.82 1165.98 268.39 1165.98 243.18 1236.33 172.83 1236.33 122.17 1292.87 65.62 1292.87 27.42 1304.9 15.4 1304.9 -29"/><polyline class="cls-4" points="1183.42 144.68 1183.42 122.17 1207.62 97.96 1207.62 49.34 1222.31 34.64 1222.31 -12.7"/><polyline class="cls-4" points="1134.97 59.47 1134.97 32.82 1124.83 22.67 1124.83 -7.37"/><polyline class="cls-4" points="1183.42 403.42 1201.65 421.65 1284 421.65 1309.77 447.42 1326.5 447.42 1386.7 507.61"/><polyline class="cls-4" points="1098 412.33 1150.59 464.92 1183.42 464.92 1226.86 508.36"/><polyline class="cls-4" points="1055.02 421.02 1055.02 440.73 1040.58 455.17 1040.58 522.77"/><polyline class="cls-4" points="947.46 412.33 947.46 427.73 963.93 444.2 963.93 522.77"/><line class="cls-4" x1="989.25" y1="466.13" x2="969.44" y2="485.94"/><polyline class="cls-4" points="904.5 399 888.72 414.78 888.72 452.29 872.48 468.53 872.48 515.31"/><polyline class="cls-4" points="888.72 436 906.37 453.65 906.37 531.63"/><line class="cls-4" x1="841.23" y1="446.77" x2="841.23" y2="532"/><polyline class="cls-4" points="815.27 436 815.27 460 802.44 472.84 802.44 497"/><polyline class="cls-4" points="801.6 399 801.6 417.57 776.61 442.56 776.61 531.63"/><polyline class="cls-4" points="733.5 436 720.01 422.51 616.5 422.51 590.44 448.57 412.5 448.57 331.38 529.69"/><polyline class="cls-4" points="635.5 381.53 614.27 402.77 522.5 402.77 508.1 417.17 447.22 417.17 418.83 388.77 372.5 388.77 310.72 450.55 268.5 450.55 208.6 510.46"/><polyline class="cls-4" points="782.5 346 773.15 355.35 642.5 355.35 609.32 322.18 439.76 322.18 413.72 348.22 240.5 348.22 227.26 361.46 96.5 361.46 24.73 433.23 -64.5 433.23"/><polyline class="cls-4" points="342.5 293.82 316.69 268.01 180.5 268.01 152.83 240.34 84.5 240.34 26.33 182.17 -57.5 182.17"/><polyline class="cls-4" points="393.5 293.82 368.91 318.41 307.5 318.41 268.79 279.71 187.5 279.71 118.53 348.68 -29 348.68"/><polyline class="cls-4" points="238.5 393.13 203.05 428.58 142.5 428.58 52.29 518.79"/><polyline class="cls-4" points="299.29 221.73 221.5 221.73 187.13 187.37 75.5 187.37 42.57 154.43 -40.5 154.43"/><polyline class="cls-4" points="161.5 187.37 120.07 145.93 96.5 145.93 29.53 78.97 -123.5 78.97"/><polyline class="cls-4" points="714 268.5 665.5 268.5 612.32 215.32 454.5 215.32 423.46 184.29 319.5 184.29 268.01 132.8"/><polyline class="cls-4" points="669.83 173 638.5 141.67 638.5 55.97 613.93 31.39 613.93 -45.75"/><polyline class="cls-4" points="763.51 173 709.49 118.98 709.49 78.97 668.51 37.99 668.51 -64"/><polyline class="cls-4" points="712.3 55.97 731.52 36.75 731.52 -35"/><polyline class="cls-4" points="613.93 165.46 571.4 165.46 508.22 102.28 491.01 102.28 422.95 34.22 422.95 -11"/><polyline class="cls-4" points="353.5 100.73 313.8 61.03 299.29 61.03 253.34 15.07 253.34 -19.33"/><polyline class="cls-4" points="272.31 73.75 218.5 73.75 203.44 58.69 145.39 58.69 29.98 -56.73"/><polyline class="cls-4" points="758.17 222.11 712.3 222.11 671.34 181.16 541.5 181.16 491.88 131.54 464.22 131.54 413.7 81.03 375.5 81.03 331.51 37.04 331.51 -11"/></g><g id="Circuitry"><polyline class="cls-3" points="381.94 0 381.94 24.56 447.22 89.83 447.22 149.28 525.5 227.56 673.06 227.56 749.5 304 817.5 304 859.5 346 869.5 346"/><polyline class="cls-3" points="0 251.71 42.79 251.71 109.5 318.41 209.91 318.41 234.5 293.82 524.68 293.82 569.5 338.65 775.15 338.65 792.5 356 859.5 356 875.67 339.83 921.67 339.83 927.87 346.04 936.5 346.04"/><polyline class="cls-3" points="439.76 484.26 455.5 468.52 635.02 468.52 665.5 438.05 762.55 438.05 812.5 388.1 842.6 388.1 859.5 371.2 870.83 371.2 876.01 366.01 888.19 366.01"/><polyline class="cls-3" points="694.41 -29 694.41 38.09 763.51 107.18 763.51 191.11 824.1 251.71 824.1 278.6 859.5 314 904.5 314 938.58 348.08 951.67 348.08 956.24 352.65"/><polyline class="cls-3" points="830.25 568 830.25 457.75 851 437 851 413.5 876.5 388 876.5 377.7 896.19 358.02 930.36 358.02 935.25 353.12 955.72 353.12"/><polyline class="cls-3" points="934.14 527 934.14 457.36 904.5 427.73 904.5 388 925.83 366.67 935.67 366.67 943.51 358.83 955.72 358.83"/><polyline class="cls-3" points="1020.73 527 1020.73 458.77 991.5 429.55 964.68 429.55 934.14 399 934.14 388 949.2 372.93 949.2 366.33 956.21 359.32"/><polyline class="cls-3" points="989.25 532 989.25 446.75 1012 424 1012 403.5 1027.5 388 1027.5 373.5"/><polyline class="cls-3" points="1576.23 522.77 1496 442.54 1377.46 442.54 1338.33 403.42 1165.92 403.42 1127 364.5 1061.35 364.5 1043.76 346.91 1024 346.91 1016.62 354.29 992 354.29 987.32 349.6"/><polyline class="cls-3" points="1960.19 514.81 1838 392.62 1747.38 392.62 1682 327.24 1459.24 327.24 1353 433.48 1268.48 433.48 1248.29 453.66 1174.34 453.66 1133 412.33 1085.67 412.33 1061.35 388 1035.67 362.33 1008.38 362.33 1001.37 369.33"/><polyline class="cls-3" points="1364.67 -29 1364.67 66.67 1271.34 160 1271.34 232.34 1190 313.67 1093.67 313.67 1061.35 346 1054 346 1048.42 351.58"/><polyline class="cls-3" points="1227.67 -19.33 1165.34 43 1165.34 126.34 1106.67 185 1106.67 268.67 1036.51 338.84 1007 338.84 996.25 349.59 969.44 349.59 965.15 353.87"/><polyline class="cls-3" points="1098 364.5 1119.25 343.25 1194.83 343.25 1215.29 363.71 1346 363.71 1478.35 231.35 1582 231.35 1692.68 120.68 1820 120.68 1891.34 49.34 1983 49.34"/><polyline class="cls-3" points="1213.01 290.67 1262 290.67 1369.83 182.83 1428 182.83 1520.42 90.42 1603 90.42 1738.21 -44.79"/><polyline class="cls-3" points="1106.67 246 1150.09 202.58 1150.09 178 1241.29 86.8 1241.29 20 1333.14 -71.86"/><polyline class="cls-3" points="1106.67 314 1127.34 293.34 1174 293.34 1250.51 216.83 1290 216.83 1389.45 117.38 1411 117.38 1587.19 -58.81"/><polyline class="cls-3" points="1169.59 158.5 1214.83 158.5 1312.67 60.67 1312.67 -11"/><polyline class="cls-3" points="1433.51 276.2 1607 276.2 1673.04 210.16 1826 210.16 1871.27 255.43 1946 255.43"/><polyline class="cls-3" points="1121.34 512.66 1066.17 457.5 1066.17 432.17 1042 408 1042 388 1023.33 369.33 987.33 369.33 979.34 361.34 967.67 361.34 964.72 358.39"/><polyline class="cls-3" points="830.25 388.1 830.25 421.02 794.97 456.3 749 456.3 699.86 505.44"/><polyline class="cls-3" points="791.8 408.8 777.9 394.9 674 394.9 660.63 381.53 444 381.53 409.27 416.27 252 416.27 136.63 531.63"/><polyline class="cls-3" points="808.7 236.3 773.79 236.3 709.74 172.26 620.72 172.26 526.4 77.94 526.4 26 493.04 -7.37"/><polyline class="cls-3" points="763.51 142.5 777.68 128.32 777.68 49.34 758.17 29.83 758.17 -29"/><polyline class="cls-3" points="1165.34 89.83 1115.76 40.25 1115.76 -35"/><polyline class="cls-3" points="473 293.82 422.62 243.44 321 243.44 242.53 164.97 88 164.97 34.27 111.23 -49 111.23"/><polyline class="cls-3" points="447.22 122.94 425.02 100.73 299.29 100.73 238.45 39.89 166 39.89 68.63 -57.48"/><polyline class="cls-3" points="747 338.65 724.18 315.82 649.63 315.82 608.4 274.6 568 274.6 554.7 261.3 439.76 261.3"/><polyline class="cls-3" points="1587.19 327.24 1599.72 314.72 1720 314.72 1746.14 340.86 1960.19 340.86"/><polyline class="cls-3" points="329 416.27 305.87 393.13 123 393.13 98.57 417.57 -29 417.57"/><polyline class="cls-3" points="381.94 100.73 352.37 130.31 208 130.31 163.6 85.91 119 85.91 93.42 60.33 -99 60.33"/><polyline class="cls-3" points="571.4 122.94 571.4 98.5 549.95 77.05 549.95 -11"/><rect class="cls-3" x="954.97" y="350.97" width="10.05" height="10.05" transform="translate(532.91 -574.55) rotate(45)"/></g><g id="Layer_5"><path id="path1681" class="cls-2" d="M473,186.01c-7.17,0-13-5.83-13-13s5.83-13,13-13,13,5.83,13,13-5.83,13-13,13Z"/><path id="path1685" class="cls-2" d="M473,164.33v17.34"/><path id="path1689" class="cls-2" d="M473,173c2.39,0,4.33,1.46,4.33,3.25s-1.94,3.25-4.33,3.25-4.33-1.46-4.33-3.25"/><path id="path1693" class="cls-2" d="M477.33,169.75c0-1.79-1.94-3.25-4.33-3.25s-4.33,1.46-4.33,3.25,1.94,3.25,4.33,3.25"/><path id="path1681-2" class="cls-2" d="M586.32,393.58c-7.17,0-13-5.83-13-13s5.83-13,13-13,13,5.83,13,13-5.83,13-13,13Z"/><path id="path1685-2" class="cls-2" d="M586.32,371.9v17.34"/><path id="path1689-2" class="cls-2" d="M586.32,380.57c2.39,0,4.33,1.46,4.33,3.25s-1.94,3.25-4.33,3.25-4.33-1.46-4.33-3.25"/><path id="path1693-2" class="cls-2" d="M590.65,377.32c0-1.79-1.94-3.25-4.33-3.25s-4.33,1.46-4.33,3.25,1.94,3.25,4.33,3.25"/><path id="path1681-3" class="cls-2" d="M277.67,406.13c-7.17,0-13-5.83-13-13s5.83-13,13-13,13,5.83,13,13-5.83,13-13,13Z"/><path id="path1685-3" class="cls-2" d="M277.67,384.46v17.34"/><path id="path1689-3" class="cls-2" d="M277.67,393.12c2.39,0,4.33,1.46,4.33,3.25s-1.94,3.25-4.33,3.25-4.33-1.46-4.33-3.25"/><path id="path1693-3" class="cls-2" d="M282,389.87c0-1.79-1.94-3.25-4.33-3.25s-4.33,1.46-4.33,3.25,1.94,3.25,4.33,3.25"/><path id="path1681-4" class="cls-2" d="M1379.85,342.87c-7.17,0-13-5.83-13-13s5.83-13,13-13,13,5.83,13,13-5.83,13-13,13Z"/><path id="path1685-4" class="cls-2" d="M1379.85,321.19v17.34"/><path id="path1689-4" class="cls-2" d="M1379.85,329.85c2.39,0,4.33,1.46,4.33,3.25s-1.94,3.25-4.33,3.25-4.33-1.46-4.33-3.25"/><path id="path1693-4" class="cls-2" d="M1384.19,326.6c0-1.79-1.94-3.25-4.33-3.25s-4.33,1.46-4.33,3.25,1.94,3.25,4.33,3.25"/><path id="path1681-5" class="cls-2" d="M1802.33,405.63c-7.17,0-13-5.83-13-13s5.83-13,13-13,13,5.83,13,13-5.83,13-13,13Z"/><path id="path1685-5" class="cls-2" d="M1802.33,383.95v17.34"/><path id="path1689-5" class="cls-2" d="M1802.33,392.62c2.39,0,4.33,1.46,4.33,3.25s-1.94,3.25-4.33,3.25-4.33-1.46-4.33-3.25"/><path id="path1693-5" class="cls-2" d="M1806.67,389.37c0-1.79-1.94-3.25-4.33-3.25s-4.33,1.46-4.33,3.25,1.94,3.25,4.33,3.25"/><path id="path1681-6" class="cls-2" d="M1793,135.69c-8.27,0-15-6.73-15-15s6.73-15,15-15,15,6.73,15,15-6.73,15-15,15Z"/><path id="path1685-6" class="cls-2" d="M1793,110.68v20.01"/><path id="path1689-6" class="cls-2" d="M1793,120.68c2.76,0,5,1.68,5,3.75s-2.24,3.75-5,3.75-5-1.68-5-3.75"/><path id="path1693-6" class="cls-2" d="M1798,116.93c0-2.07-2.24-3.75-5-3.75s-5,1.68-5,3.75,2.24,3.75,5,3.75"/><path id="path1681-7" class="cls-2" d="M108.5,180.01c-8.27,0-15-6.73-15-15s6.73-15,15-15,15,6.73,15,15-6.73,15-15,15Z"/><path id="path1685-7" class="cls-2" d="M108.5,155v20.01"/><path id="path1689-7" class="cls-2" d="M108.5,165c2.76,0,5,1.68,5,3.75s-2.24,3.75-5,3.75-5-1.68-5-3.75"/><path id="path1693-7" class="cls-2" d="M113.5,161.25c0-2.07-2.24-3.75-5-3.75s-5,1.68-5,3.75,2.24,3.75,5,3.75"/><path id="path1681-8" class="cls-2" d="M1209.82,267.52c-5.51,0-10-4.49-10-10s4.49-10,10-10,10,4.49,10,10-4.49,10-10,10Z"/><path id="path1685-8" class="cls-2" d="M1209.82,250.85v13.34"/><path id="path1689-8" class="cls-2" d="M1209.82,257.52c1.84,0,3.33,1.12,3.33,2.5s-1.49,2.5-3.33,2.5-3.33-1.12-3.33-2.5"/><path id="path1693-8" class="cls-2" d="M1213.15,255.02c0-1.38-1.49-2.5-3.33-2.5s-3.33,1.12-3.33,2.5,1.49,2.5,3.33,2.5"/><path id="path1681-9" class="cls-2" d="M650.87,237.57c-5.51,0-10-4.49-10-10s4.49-10,10-10,10,4.49,10,10-4.49,10-10,10Z"/><path id="path1685-9" class="cls-2" d="M650.87,220.89v13.34"/><path id="path1689-9" class="cls-2" d="M650.87,227.56c1.84,0,3.33,1.12,3.33,2.5s-1.49,2.5-3.33,2.5-3.33-1.12-3.33-2.5"/><path id="path1693-9" class="cls-2" d="M654.2,225.06c0-1.38-1.49-2.5-3.33-2.5s-3.33,1.12-3.33,2.5,1.49,2.5,3.33,2.5"/><path id="path1681-10" class="cls-2" d="M1184.79,33.56c-5.51,0-10-4.49-10-10s4.49-10,10-10,10,4.49,10,10-4.49,10-10,10Z"/><path id="path1685-10" class="cls-2" d="M1184.79,16.88v13.34"/><path id="path1689-10" class="cls-2" d="M1184.79,23.55c1.84,0,3.33,1.12,3.33,2.5s-1.49,2.5-3.33,2.5-3.33-1.12-3.33-2.5"/><path id="path1693-10" class="cls-2" d="M1188.12,21.05c0-1.38-1.49-2.5-3.33-2.5s-3.33,1.12-3.33,2.5,1.49,2.5,3.33,2.5"/><path id="path1681-11" class="cls-2" d="M733.5,86.71c-5.51,0-10-4.49-10-10s4.49-10,10-10,10,4.49,10,10-4.49,10-10,10Z"/><path id="path1685-11" class="cls-2" d="M733.5,70.04v13.34"/><path id="path1689-11" class="cls-2" d="M733.5,76.71c1.84,0,3.33,1.12,3.33,2.5s-1.49,2.5-3.33,2.5-3.33-1.12-3.33-2.5"/><path id="path1693-11" class="cls-2" d="M736.83,74.21c0-1.38-1.49-2.5-3.33-2.5s-3.33,1.12-3.33,2.5,1.49,2.5,3.33,2.5"/><path id="path1681-12" class="cls-2" d="M282,93.38c-5.51,0-10-4.49-10-10s4.49-10,10-10,10,4.49,10,10-4.49,10-10,10Z"/><path id="path1685-12" class="cls-2" d="M282,76.71v13.34"/><path id="path1689-12" class="cls-2" d="M282,83.37c1.84,0,3.33,1.12,3.33,2.5s-1.49,2.5-3.33,2.5-3.33-1.12-3.33-2.5"/><path id="path1693-12" class="cls-2" d="M285.33,80.87c0-1.38-1.49-2.5-3.33-2.5s-3.33,1.12-3.33,2.5,1.49,2.5,3.33,2.5"/><path id="path1681-13" class="cls-2" d="M1277,411.43c-4.41,0-8-3.59-8-8s3.59-8,8-8,8,3.59,8,8-3.59,8-8,8Z"/><path id="path1685-13" class="cls-2" d="M1277,398.09v10.67"/><path id="path1689-13" class="cls-2" d="M1277,403.42c1.47,0,2.67.9,2.67,2s-1.19,2-2.67,2-2.67-.9-2.67-2"/><path id="path1693-13" class="cls-2" d="M1279.67,401.42c0-1.1-1.19-2-2.67-2s-2.67.9-2.67,2,1.19,2,2.67,2"/><path id="path1681-14" class="cls-2" d="M367,301.82c-4.41,0-8-3.59-8-8s3.59-8,8-8,8,3.59,8,8-3.59,8-8,8Z"/><path id="path1685-14" class="cls-2" d="M367,288.48v10.67"/><path id="path1689-14" class="cls-2" d="M367,293.82c1.47,0,2.67.9,2.67,2s-1.19,2-2.67,2-2.67-.9-2.67-2"/><path id="path1693-14" class="cls-2" d="M369.67,291.82c0-1.1-1.19-2-2.67-2s-2.67.9-2.67,2,1.19,2,2.67,2"/><path id="path1681-15" class="cls-2" d="M84.24,301.82c-4.41,0-8-3.59-8-8s3.59-8,8-8,8,3.59,8,8-3.59,8-8,8Z"/><path id="path1685-15" class="cls-2" d="M84.24,288.48v10.67"/><path id="path1689-15" class="cls-2" d="M84.24,293.82c1.47,0,2.67.9,2.67,2s-1.19,2-2.67,2-2.67-.9-2.67-2"/><path id="path1693-15" class="cls-2" d="M86.9,291.82c0-1.1-1.19-2-2.67-2s-2.67.9-2.67,2,1.19,2,2.67,2"/><path id="path1681-16" class="cls-2" d="M375,424.27c-4.41,0-8-3.59-8-8s3.59-8,8-8,8,3.59,8,8-3.59,8-8,8Z"/><path id="path1685-16" class="cls-2" d="M375,410.93v10.67"/><path id="path1689-16" class="cls-2" d="M375,416.27c1.47,0,2.67.9,2.67,2s-1.19,2-2.67,2-2.67-.9-2.67-2"/><path id="path1693-16" class="cls-2" d="M377.67,414.27c0-1.1-1.19-2-2.67-2s-2.67.9-2.67,2,1.19,2,2.67,2"/><path id="path1681-17" class="cls-2" d="M707.86,445.99c-4.41,0-8-3.59-8-8s3.59-8,8-8,8,3.59,8,8-3.59,8-8,8Z"/><path id="path1685-17" class="cls-2" d="M707.86,432.65v10.67"/><path id="path1689-17" class="cls-2" d="M707.86,437.99c1.47,0,2.67.9,2.67,2s-1.19,2-2.67,2-2.67-.9-2.67-2"/><path id="path1693-17" class="cls-2" d="M710.53,435.99c0-1.1-1.19-2-2.67-2s-2.67.9-2.67,2,1.19,2,2.67,2"/><path id="path1681-18" class="cls-2" d="M526.44,57.34c-4.41,0-8-3.59-8-8s3.59-8,8-8,8,3.59,8,8-3.59,8-8,8Z"/><path id="path1685-18" class="cls-2" d="M526.44,44v10.67"/><path id="path1689-18" class="cls-2" d="M526.44,49.33c1.47,0,2.67.9,2.67,2s-1.19,2-2.67,2-2.67-.9-2.67-2"/><path id="path1693-18" class="cls-2" d="M529.1,47.33c0-1.1-1.19-2-2.67-2s-2.67.9-2.67,2,1.19,2,2.67,2"/><path id="path1681-19" class="cls-2" d="M1561.83,239.51c-4.41,0-8-3.59-8-8s3.59-8,8-8,8,3.59,8,8-3.59,8-8,8Z"/><path id="path1685-19" class="cls-2" d="M1561.83,226.17v10.67"/><path id="path1689-19" class="cls-2" d="M1561.83,231.5c1.47,0,2.67.9,2.67,2s-1.19,2-2.67,2-2.67-.9-2.67-2"/><path id="path1693-19" class="cls-2" d="M1564.5,229.5c0-1.1-1.19-2-2.67-2s-2.67.9-2.67,2,1.19,2,2.67,2"/><path id="path1681-20" class="cls-2" d="M1409.74,309.98c-5.51,0-10-4.49-10-10s4.49-10,10-10,10,4.49,10,10-4.49,10-10,10Z"/><path id="path1685-20" class="cls-2" d="M1409.74,293.31v13.34"/><path id="path1689-20" class="cls-2" d="M1409.74,299.97c1.84,0,3.33,1.12,3.33,2.5s-1.49,2.5-3.33,2.5-3.33-1.12-3.33-2.5"/><path id="path1693-20" class="cls-2" d="M1413.07,297.47c0-1.38-1.49-2.5-3.33-2.5s-3.33,1.12-3.33,2.5,1.49,2.5,3.33,2.5"/><path id="path1681-21" class="cls-2" d="M1454.63,83.76c-5.51,0-10-4.49-10-10s4.49-10,10-10,10,4.49,10,10-4.49,10-10,10Z"/><path id="path1685-21" class="cls-2" d="M1454.63,67.08v13.34"/><path id="path1689-21" class="cls-2" d="M1454.63,73.75c1.84,0,3.33,1.12,3.33,2.5s-1.49,2.5-3.33,2.5-3.33-1.12-3.33-2.5"/><path id="path1693-21" class="cls-2" d="M1457.97,71.25c0-1.38-1.49-2.5-3.33-2.5s-3.33,1.12-3.33,2.5,1.49,2.5,3.33,2.5"/><path id="path1681-22" class="cls-2" d="M1533.75,336.61c-5.51,0-10-4.49-10-10s4.49-10,10-10,10,4.49,10,10-4.49,10-10,10Z"/><path id="path1685-22" class="cls-2" d="M1533.75,319.94v13.34"/><path id="path1689-22" class="cls-2" d="M1533.75,326.6c1.84,0,3.33,1.12,3.33,2.5s-1.49,2.5-3.33,2.5-3.33-1.12-3.33-2.5"/><path id="path1693-22" class="cls-2" d="M1537.08,324.1c0-1.38-1.49-2.5-3.33-2.5s-3.33,1.12-3.33,2.5,1.49,2.5,3.33,2.5"/><path id="path1681-23" class="cls-2" d="M1364.33,38.56c-5.51,0-10-4.49-10-10s4.49-10,10-10,10,4.49,10,10-4.49,10-10,10Z"/><path id="path1685-23" class="cls-2" d="M1364.33,21.88v13.34"/><path id="path1689-23" class="cls-2" d="M1364.33,28.55c1.84,0,3.33,1.12,3.33,2.5s-1.49,2.5-3.33,2.5-3.33-1.12-3.33-2.5"/><path id="path1693-23" class="cls-2" d="M1367.67,26.05c0-1.38-1.49-2.5-3.33-2.5s-3.33,1.12-3.33,2.5,1.49,2.5,3.33,2.5"/><path id="path1681-24" class="cls-2" d="M1719,220.45c-5.51,0-10-4.49-10-10s4.49-10,10-10,10,4.49,10,10-4.49,10-10,10Z"/><path id="path1685-24" class="cls-2" d="M1719,203.78v13.34"/><path id="path1689-24" class="cls-2" d="M1719,210.45c1.84,0,3.33,1.12,3.33,2.5s-1.49,2.5-3.33,2.5-3.33-1.12-3.33-2.5"/><path id="path1693-24" class="cls-2" d="M1722.33,207.95c0-1.38-1.49-2.5-3.33-2.5s-3.33,1.12-3.33,2.5,1.49,2.5,3.33,2.5"/></g></svg>