<svg xmlns="http://www.w3.org/2000/svg" xmlns:xlink="http://www.w3.org/1999/xlink" id="12462" viewBox="0 0 1060 716"><script xmlns=""/><g transform="matrix(1,0,0,1,0,0)"><g id="12462" opacity="1" style="mix-blend-mode:normal"><g><g><g transform="matrix(1,0,0,1,0,197)"><g id="13348" opacity="1" style="mix-blend-mode:normal"><g><g><g style="mix-blend-mode:normal"><defs><linearGradient id="lo6v6d5m36084301723057655" x1="520.0000094949183" y1="121.84774972083757" x2="520.2500095180582" y2="519.0000296995821" gradientUnits="userSpaceOnUse"><stop offset="0%" stop-opacity="0.35" stop-color="rgb(47, 65, 91)"/><stop offset="100%" stop-opacity="0" stop-color="rgb(36, 50, 71)"/></linearGradient></defs><path id="13348_fill_path" d="M0,281l26,38.5l41,-63l17,-6l39,33.5l41,-33.5l14,48l33.5,-5.5l11.5,-36.5l45.5,55l32.5,-78l9.5,42l20,-68l45,62.5l49.5,-85.5l32.5,85.5l27,-91.5l16.5,25.5l12,-31.5l9.5,63.5l19.5,3.5l19.5,-96.5l22.5,-26.5l11.5,68l21.5,34l42.5,-145.5l20.5,92h38l23.5,74.5l26.5,17.5l8.5,-75.5l14.5,17l41.5,-125.5l24,24.5l24,-78.5l42.5,38l37.5,-57l40.5,52.5l39.5,-42.5v509h-1040.5z" fill-rule="nonzero" fill="url(#lo6v6d5m36084301723057655)"/></g></g></g></g></g><g transform="matrix(1,0,0,1,0,197)"><g id="13349" opacity="1" style="mix-blend-mode:normal"><g><g><g style="mix-blend-mode:NORMAL"><g><path id="13349_stroke_path" d="M0,281l26,38.5l41,-63l17,-6l39,33.5l41,-33.5l14,48l33.5,-5.5l11.5,-36.5l45.5,55l32.5,-78l9.5,42l20,-68l45,62.5l49.5,-85.5l32.5,85.5l27,-91.5l16.5,25.5l12,-31.5l9.5,63.5l19.5,3.5l19.5,-96.5l22.5,-26.5l11.5,68l21.5,34l42.5,-145.5l20.5,92h38l23.5,74.5l26.5,17.5l8.5,-75.5l14.5,17l41.5,-125.5l24,24.5l24,-78.5l42.5,38l37.5,-57l40.5,52.5l39.5,-42.5" fill="none" stroke="rgb(47, 65, 91)" stroke-width="4" stroke-linecap="round" stroke-linejoin="miter" stroke-dasharray="0 0" stroke-opacity="1"/></g></g></g></g></g></g></g></g></g></g><animate href="#13349_stroke_path" attributeName="stroke-dasharray" values="0 2403.195726068201;118.97008544892086 2284.22564061928;237.9401708978417 2165.2555551703595;356.91025634676254 2046.2854697214386;475.8803417956834 1927.3153842725178;594.8504272446042 1808.345298823597;713.8205126935251 1689.375213374676;832.7905981424459 1570.4051279257553;951.7606835913668 1451.4350424768343;1070.7307690402877 1332.4649570279137;1189.7008544892085 1213.4948715789926;1308.6709399381295 1094.5247861300718;1427.6410253870501 975.5547006811511;1546.6111108359712 856.5846152322301;1665.5811962848918 737.6145297833094;1784.5512817338126 618.6444443343885;1903.5213671827337 499.6743588854675;2022.4914526316543 380.70427343654677;2141.4615380805753 261.73418798762583;2260.431623529496 142.76410253870515;2379.401708978417 23.79401708978419" dur="4s" repeatCount="indefinite" keyTimes="0;0.05;0.1;0.15;0.2;0.25;0.3;0.35;0.4;0.45;0.5;0.55;0.6;0.65;0.7;0.75;0.8;0.85;0.9;0.95;1" fill="freeze"/><animate href="#13349_stroke_path" attributeName="stroke-dashoffset" values="0;0;0;0;0;0;0;0;0;0;0;0;0;0;0;0;0;0;0;0;0" dur="4s" repeatCount="indefinite" keyTimes="0;0.05;0.1;0.15;0.2;0.25;0.3;0.35;0.4;0.45;0.5;0.55;0.6;0.65;0.7;0.75;0.8;0.85;0.9;0.95;1" fill="freeze"/><script xmlns=""/><script xmlns=""/></svg>