<svg width="58" height="58" viewBox="0 0 58 58" fill="none" xmlns="http://www.w3.org/2000/svg">
<path fill-rule="evenodd" clip-rule="evenodd" d="M57.8 29C57.8 44.9058 44.9058 57.8 29 57.8C13.0942 57.8 0.199951 44.9058 0.199951 29C0.199951 13.0942 13.0942 0.200012 29 0.200012C44.9058 0.200012 57.8 13.0942 57.8 29ZM36.2 18.2C36.2 22.1765 32.9764 25.4 29 25.4C25.0235 25.4 21.8 22.1765 21.8 18.2C21.8 14.2236 25.0235 11 29 11C32.9764 11 36.2 14.2236 36.2 18.2ZM28.9997 32.6C21.7366 32.6 15.4782 36.9018 12.6334 43.0966C16.5945 47.6913 22.4575 50.6 28.9999 50.6C35.5422 50.6 41.4051 47.6915 45.3661 43.0969C42.5214 36.902 36.263 32.6 28.9997 32.6Z" fill="#98A4B3"/>
</svg>
