<svg width="26" height="26" viewBox="0 0 26 26" fill="none" xmlns="http://www.w3.org/2000/svg">
<path d="M17.823 22.2857H8.17696C6.48882 22.2857 4.64282 21.4147 4.64282 19.4888C4.64282 17.3253 5.35411 14.8144 7.60218 14.092C8.78332 13.7122 9.62089 14.0428 10.6498 14.5776C11.3555 14.9425 12.2098 15.1255 12.999 15.1255C13.7902 15.1255 14.6426 14.9425 15.3493 14.5776C16.379 14.0437 17.2157 13.7131 18.3978 14.092C20.6449 14.8153 21.3562 17.3243 21.3571 19.4888C21.3571 21.4147 19.5111 22.2857 17.823 22.2857ZM13 11.1428C13.4887 11.1495 13.9736 11.0565 14.4251 10.8694C14.8767 10.6823 15.2853 10.405 15.626 10.0545C15.9764 9.71385 16.2537 9.30525 16.4408 8.85373C16.6279 8.40221 16.721 7.91726 16.7143 7.42855C16.7143 6.40805 16.3484 5.52498 15.626 4.80255C15.2852 4.45215 14.8766 4.17491 14.4251 3.98779C13.9736 3.80067 13.4887 3.7076 13 3.71426C11.9785 3.71426 11.0964 4.08012 10.374 4.80255C10.0235 5.14324 9.74626 5.55185 9.55914 6.00337C9.37201 6.45489 9.27896 6.93983 9.28568 7.42855C9.28568 8.44905 9.65154 9.33212 10.374 10.0545C10.7147 10.4049 11.1233 10.6822 11.5748 10.8693C12.0263 11.0564 12.5113 11.1495 13 11.1428Z" fill="white"/>
</svg>
