<svg width="32" height="32" viewBox="0 0 32 32" fill="none" xmlns="http://www.w3.org/2000/svg">
<path d="M23.5 2.66669H8.50002C5.27835 2.66669 2.66669 5.27835 2.66669 8.50002V23.5C2.66669 26.7218 5.27835 29.3334 8.50002 29.3334H23.5C26.7218 29.3334 29.3334 26.7218 29.3334 23.5V8.50002C29.3334 5.27835 26.7218 2.66669 23.5 2.66669Z" fill="#FB4B4E"/>
<path d="M19.8985 15.8422C20.6544 14.9488 21.2591 13.9333 21.7837 12.8469C21.8727 12.6946 21.9437 12.522 21.9971 12.319C22.4061 11.3138 22.7529 10.2679 22.9752 9.18151C23.0051 8.8831 23.0664 8.59185 23.1273 8.30174C23.1389 8.24637 23.1505 8.19102 23.162 8.1357C23.1829 8.02838 23.1915 7.91797 23.2001 7.80747C23.2136 7.63571 23.2269 7.46374 23.2865 7.3031C23.3555 6.90235 23.3713 6.49657 23.3872 6.09285C23.3939 5.92379 23.4005 5.75497 23.4109 5.58715C23.4199 5.45515 23.4199 5.33331 23.2509 5.33331H22.1395C22.0239 5.33331 21.9793 5.38409 21.9793 5.51607C21.9793 6.36898 21.9083 7.22187 21.8104 8.06462C21.6771 9.17135 21.4903 10.2578 21.188 11.3239C21.0012 11.9737 20.8056 12.6236 20.5655 13.2531L20.5388 13.3445C20.2099 14.1973 19.8275 15.0097 19.374 15.7813C19.3028 15.9032 19.2584 16.0046 19.3473 16.1468C19.7741 16.8272 20.112 17.5684 20.4321 18.3197C20.6811 18.9086 20.9033 19.5178 21.0635 20.1473C21.2768 20.8581 21.4459 21.5688 21.5792 22.2998C21.8281 23.6605 21.9883 25.0312 21.9883 26.4222C21.9883 26.5949 22.0416 26.6456 22.1839 26.6456L22.1925 26.6453C22.5185 26.6353 22.8359 26.6254 23.162 26.6456C23.3755 26.6557 23.4288 26.5745 23.4199 26.341C23.3843 25.6404 23.3487 24.9398 23.2509 24.2494C23.0287 22.6654 22.6196 21.1424 22.0149 19.6904C21.4725 18.4009 20.7789 17.2129 19.9164 16.1672C19.8275 16.0554 19.7919 15.9641 19.8985 15.8422Z" fill="#FFE15A"/>
<path d="M24.6295 21.6807C24.185 20.2186 23.5536 18.8783 22.6288 17.731C22.5831 17.6462 22.5228 17.5823 22.4619 17.5179C22.428 17.482 22.3939 17.446 22.362 17.406C22.3178 17.3588 22.2755 17.3082 22.2328 17.2572C22.1471 17.1548 22.0599 17.0507 21.9531 16.9694C21.6596 16.6851 21.3662 16.4211 21.046 16.1876C20.9155 16.0899 20.851 16.0416 20.8515 15.9942C20.852 15.9478 20.9143 15.9022 21.0371 15.8119C22.2998 14.8676 23.2424 13.6086 23.936 12.1058C24.3983 11.1006 24.7363 10.0345 24.9586 8.92777C25.1898 7.82103 25.2964 6.70414 25.3231 5.56694C25.3231 5.40449 25.2876 5.34357 25.1364 5.34357C24.7986 5.35373 24.4518 5.35373 24.1138 5.34357C23.9804 5.34357 23.9092 5.38418 23.9182 5.55679C23.9338 5.94833 23.9015 6.33207 23.8694 6.71485L23.8559 6.87675C23.7759 7.92257 23.5892 8.94807 23.3402 9.95327C23.1268 10.796 22.8423 11.5982 22.531 12.3901C22.3176 12.9181 22.0686 13.4258 21.7752 13.903L21.7548 13.9399C21.6111 14.2008 21.473 14.4516 21.2862 14.6747C21.0638 15.0098 20.8238 15.3246 20.5747 15.6392C20.5371 15.6858 20.5038 15.7256 20.4746 15.7606C20.3744 15.88 20.3236 15.9407 20.3235 16.0012C20.3234 16.0635 20.3762 16.1258 20.4832 16.2519C20.5079 16.281 20.5355 16.3134 20.5659 16.35C22.0954 18.2386 23.0379 20.4724 23.5447 22.96C23.7848 24.0972 23.9092 25.2547 23.9182 26.4223C23.9182 26.6152 23.9804 26.666 24.1404 26.6559C24.4518 26.6458 24.763 26.6356 25.0742 26.6559C25.2964 26.666 25.341 26.5747 25.332 26.3512C25.3143 25.3359 25.2075 24.3206 25.0298 23.3154C24.9675 22.8483 24.843 22.3914 24.7184 21.9447C24.683 21.8532 24.6563 21.772 24.6295 21.6807Z" fill="#FFE15A"/>
<path d="M11.0335 16.1429C10.6601 16.4068 10.3222 16.7013 10.0021 17.0262C9.73529 17.2902 9.48632 17.5745 9.25512 17.8893C9.21164 17.9518 9.16816 18.0136 9.12489 18.0752C8.92949 18.3532 8.7377 18.626 8.57042 18.9249C7.85016 20.184 7.3522 21.5546 7.04986 23.0269C6.81868 24.1439 6.70308 25.2709 6.68529 26.3878C6.68529 26.5806 6.72976 26.6518 6.8987 26.6416C7.22772 26.6314 7.56561 26.6314 7.89462 26.6416C8.03689 26.6518 8.09025 26.601 8.09025 26.4284C8.09914 25.545 8.17917 24.6718 8.31256 23.8088C8.49929 22.5598 8.80162 21.3617 9.25512 20.2042C9.28413 20.1656 9.29474 20.118 9.30553 20.0694C9.31458 20.0288 9.32376 19.9874 9.34404 19.9504L9.3759 19.8741C9.55218 19.4518 9.73116 19.0231 9.9576 18.6305C10.0376 18.4985 10.1177 18.3665 10.1799 18.2141C10.1888 18.1888 10.1977 18.166 10.2066 18.143C10.2155 18.1202 10.2244 18.0974 10.2333 18.072C10.2779 18.0013 10.3218 17.9297 10.3658 17.8581C10.4796 17.6727 10.594 17.4862 10.7223 17.3105C10.9891 16.9246 11.2736 16.5286 11.5848 16.1733C11.7004 16.0413 11.7004 15.95 11.5848 15.818C11.2736 15.4625 10.9891 15.0768 10.7134 14.6808C10.4822 14.3559 10.2777 14.0208 10.091 13.6655C9.4952 12.5485 9.02392 11.3808 8.70381 10.1218C8.66112 9.93904 8.62129 9.75628 8.58145 9.57352C8.52169 9.29937 8.46194 9.02521 8.39258 8.75106C8.19696 7.72556 8.09025 6.67974 8.08136 5.63393C8.08136 5.4004 8.01912 5.33948 7.82349 5.34962C7.52116 5.36993 7.21882 5.36993 6.91649 5.34962C6.72086 5.33948 6.65862 5.41056 6.6675 5.63393C6.68529 6.54774 6.76532 7.46157 6.91649 8.35508C7.09433 9.41105 7.36109 10.4467 7.77013 11.4316C7.80316 11.507 7.83704 11.5805 7.8707 11.6535C7.94584 11.8165 8.01996 11.9772 8.08136 12.1525C8.29477 12.65 8.57042 13.1069 8.84608 13.5639C9.23733 14.1731 9.69082 14.7011 10.1888 15.1884C10.2537 15.2417 10.3182 15.2949 10.3825 15.3481C10.6 15.528 10.816 15.7065 11.0424 15.8789C11.1936 15.9905 11.158 16.0514 11.0335 16.1429Z" fill="#FFE15A"/>
<path d="M16.2437 15.9743V5.69889C16.2437 5.51867 16.2437 5.43252 16.2868 5.39136C16.3261 5.35367 16.4016 5.35367 16.5461 5.35367C16.6436 5.35367 16.742 5.3548 16.8408 5.35592C17.0394 5.35817 17.2393 5.36045 17.4353 5.35367C17.5953 5.34352 17.6576 5.40444 17.6576 5.59736C17.6665 7.08993 17.6132 8.59265 17.5153 10.0852C17.4353 11.2529 17.3197 12.4205 17.1685 13.5882C17.0973 14.0983 17.012 14.6028 16.9262 15.11C16.8941 15.2995 16.8621 15.4892 16.8306 15.6799C16.795 15.8727 16.7684 16.0555 16.8128 16.2586C17.0618 17.5176 17.2308 18.797 17.3641 20.0763C17.5776 22.1476 17.6753 24.219 17.6665 26.3004C17.6665 26.493 17.6665 26.5842 17.6209 26.6272C17.5801 26.666 17.5025 26.666 17.3552 26.666H16.5994C16.4364 26.666 16.3521 26.666 16.3084 26.6238C16.2616 26.5786 16.2616 26.4848 16.2616 26.2903V19.0407C16.2437 18.005 16.2437 16.9896 16.2437 15.9743Z" fill="#FFE15A"/>
<path d="M15.1826 16.4087C15.0534 17.1161 14.9259 17.8151 14.8483 18.5329C14.8215 18.8027 14.7895 19.0713 14.7576 19.3396C14.6947 19.8689 14.6319 20.3968 14.6083 20.9292L14.6048 21.0156C14.5983 21.1897 14.5918 21.3627 14.546 21.5283C14.5416 21.5688 14.5394 21.612 14.5371 21.6552C14.535 21.6983 14.5327 21.7415 14.5283 21.7821C14.4038 23.3153 14.3682 24.8484 14.3682 26.3917C14.3682 26.5948 14.4215 26.666 14.5994 26.6557C14.7887 26.6491 14.974 26.6513 15.1607 26.6535C15.2546 26.6547 15.349 26.6557 15.4442 26.6557C15.782 26.6557 15.782 26.6557 15.782 26.27V5.74962C15.782 5.7334 15.7811 5.71613 15.7802 5.69814C15.7782 5.6599 15.776 5.61846 15.782 5.57701C15.791 5.41456 15.7287 5.35364 15.5864 5.35364C15.3904 5.36041 15.1906 5.35814 14.9919 5.35588C14.8931 5.35476 14.7947 5.35364 14.6972 5.35364C14.3682 5.35364 14.3682 5.35364 14.3682 5.71916C14.3592 7.80064 14.4571 9.87197 14.6706 11.9433C14.8039 13.2226 14.9728 14.502 15.2218 15.7611C15.2574 15.9641 15.2307 16.1468 15.1951 16.3397L15.1826 16.4087Z" fill="#FFE15A"/>
<path d="M11.4248 13.2631C11.736 14.1465 12.1361 14.9892 12.6074 15.7711C12.7052 15.9335 12.7052 16.0553 12.6074 16.2179C11.7538 17.6596 11.158 19.2335 10.7312 20.8884C10.7267 20.9088 10.7245 20.9291 10.7223 20.9494C10.7201 20.9698 10.7178 20.99 10.7134 21.0103C10.6555 21.1966 10.6163 21.3898 10.5774 21.5818C10.5505 21.7144 10.5238 21.8463 10.4911 21.9749C10.1976 23.4065 10.0287 24.8687 10.0198 26.341C10.0198 26.5744 9.96646 26.6558 9.75304 26.6353C9.44182 26.6151 9.13059 26.6151 8.81936 26.6353C8.60596 26.6455 8.57928 26.5339 8.57928 26.3308C8.61486 24.9398 8.80159 23.5792 9.13948 22.2389C9.63744 20.2589 10.4111 18.4415 11.5581 16.8474C11.7271 16.6139 11.9049 16.3803 12.0828 16.1671C12.1806 16.0452 12.1984 15.9539 12.0917 15.832C10.4911 13.8724 9.50406 11.537 8.96164 8.94788C8.73044 7.86146 8.61486 6.75472 8.58818 5.63783C8.57928 5.41446 8.64152 5.34338 8.83715 5.35354C9.16324 5.37366 9.48062 5.36386 9.80655 5.3538L9.81528 5.35354C9.94867 5.35354 10.0198 5.38399 10.0198 5.56675C10.0198 6.94764 10.171 8.31836 10.42 9.66879C10.5444 10.3389 10.6867 10.9989 10.8912 11.6487C10.9446 11.7097 10.9535 11.7909 10.9624 11.8721C10.9713 11.9229 10.9846 11.9736 10.9979 12.0244C11.0113 12.0752 11.0246 12.126 11.0335 12.1767C11.0385 12.1881 11.0407 12.1995 11.0432 12.2127C11.0452 12.223 11.0474 12.2344 11.0513 12.2478C11.0958 12.4306 11.1491 12.6032 11.238 12.7656C11.2558 12.8467 11.2912 12.9253 11.3279 13.0063C11.3646 13.0877 11.4025 13.1716 11.4248 13.2631Z" fill="#FFE15A"/>
<path d="M17.9604 16.4616C18.3961 17.68 18.7429 18.9391 18.9919 20.2285C19.2497 21.5892 19.4187 22.9599 19.5076 24.3408C19.5521 25.0211 19.5876 25.7115 19.5876 26.3917C19.5876 26.5847 19.5432 26.6557 19.3653 26.6557C19.0364 26.6456 18.7163 26.6456 18.3872 26.6557C18.2093 26.666 18.156 26.5847 18.156 26.3917C18.1632 25.7708 18.1473 25.1499 18.1316 24.5343V24.5328C18.1277 24.3839 18.1239 24.2352 18.1204 24.0869C18.0583 21.9039 17.8625 19.7412 17.5603 17.5887C17.5069 17.2129 17.4357 16.8373 17.3557 16.4717C17.2847 16.1571 17.2935 15.8423 17.3647 15.5275C17.5692 14.502 17.7025 13.4663 17.8092 12.4307C18.0583 10.1664 18.1649 7.88186 18.156 5.59732C18.156 5.4247 18.2005 5.35364 18.3605 5.35364C18.6984 5.36378 19.0452 5.36378 19.3832 5.35364C19.5432 5.35364 19.5876 5.41456 19.5876 5.58717C19.5876 6.74468 19.5076 7.90217 19.392 9.04953C19.2409 10.5929 18.9741 12.1057 18.5828 13.5881C18.4233 14.1801 18.228 14.764 18.0355 15.3396L17.9693 15.5376C17.7915 15.8423 17.7825 16.1571 17.9604 16.4616Z" fill="#FFE15A"/>
<path d="M13.9143 16.8881C13.5852 17.8018 13.3452 18.7562 13.1229 19.7108C13.0873 19.7412 13.0784 19.792 13.0784 19.8529C13.0492 20.0262 13.0152 20.1997 12.9811 20.3734C12.9115 20.7288 12.8415 21.0856 12.8116 21.4471C12.7906 21.6268 12.7669 21.8083 12.7431 21.99C12.7064 22.27 12.6697 22.5508 12.6427 22.8278C12.5182 24.026 12.4382 25.2342 12.4382 26.4425C12.4382 26.6152 12.4915 26.666 12.6338 26.666C12.945 26.6557 13.2651 26.6456 13.5852 26.666C13.8253 26.6761 13.8697 26.5846 13.8697 26.3309C13.852 25.2241 13.8876 24.1174 13.9409 23.0106C14.0032 21.8328 14.0921 20.655 14.2255 19.4772C14.2412 19.3456 14.2565 19.214 14.2717 19.0825C14.3421 18.4734 14.4124 17.8668 14.5367 17.2738C14.5905 17.0758 14.6203 16.8732 14.6501 16.6689C14.6647 16.5696 14.6793 16.4698 14.6968 16.3702C14.7047 16.3253 14.7172 16.2802 14.7297 16.235C14.7599 16.127 14.7903 16.0177 14.7589 15.9032C14.7064 15.6958 14.6719 15.4856 14.6373 15.2756C14.6076 15.0947 14.5779 14.914 14.5367 14.7355C14.3924 14.0127 14.3132 13.2815 14.2339 12.5495L14.2077 12.3088C14.0476 10.8873 13.9499 9.45566 13.9053 8.01386C13.8787 7.21173 13.8609 6.4096 13.8697 5.60746C13.8697 5.4247 13.8253 5.34348 13.6564 5.35362C13.3452 5.36378 13.0339 5.37393 12.7227 5.35362C12.4826 5.33332 12.4382 5.4247 12.4382 5.67854C12.4648 7.60772 12.6249 9.51658 12.9628 11.4153C13.2296 12.8672 13.5764 14.2888 14.1188 15.6392C14.2255 15.9133 14.2255 16.1469 14.1009 16.4006C14.0476 16.5022 14.0101 16.6128 13.9725 16.7233C13.9537 16.7786 13.9349 16.834 13.9143 16.8881Z" fill="#FFE15A"/>
<path d="M20.806 21.0207C21.1705 22.4421 21.4017 23.8941 21.464 25.3765C21.4729 25.5491 21.4796 25.7217 21.4863 25.8944C21.4929 26.0669 21.4996 26.2396 21.5085 26.4121C21.5173 26.5949 21.4552 26.6457 21.304 26.6457C20.9572 26.6356 20.6104 26.6356 20.2636 26.6457C20.1213 26.6457 20.068 26.5848 20.068 26.4223C20.068 25.5796 20.0413 24.7368 19.9791 23.8941C19.8812 22.6249 19.7212 21.3659 19.4721 20.1169C19.2055 18.7665 18.8587 17.4465 18.3517 16.1773C18.2933 16.0292 18.3297 15.908 18.3675 15.7821C18.3815 15.7357 18.3956 15.6885 18.4052 15.6392C18.4673 15.426 18.5475 15.2229 18.6275 15.03C18.752 14.7051 18.8587 14.37 18.9387 14.0248C19.0276 13.6288 19.1255 13.2329 19.2499 12.847C19.2944 12.6541 19.3365 12.4587 19.3788 12.2632C19.4211 12.0679 19.4633 11.8722 19.5077 11.6794C19.5749 11.5189 19.596 11.3489 19.6169 11.1792C19.6265 11.1019 19.6361 11.0246 19.65 10.9483C19.7212 10.5523 19.7923 10.1462 19.8101 9.74002C19.8724 8.98866 19.9345 8.24745 20.0057 7.49609C20.0524 6.95402 20.0515 6.40419 20.0504 5.86019L20.0501 5.62784C20.0501 5.40446 20.1124 5.33338 20.308 5.34353C20.6371 5.35369 20.9572 5.35369 21.2861 5.34353C21.4463 5.33338 21.5085 5.40446 21.4996 5.59737C21.4819 6.35889 21.4284 7.11025 21.3663 7.87177C21.3373 8.3656 21.256 8.84609 21.1741 9.32946C21.1549 9.4424 21.1357 9.5555 21.1172 9.66896L21.1159 9.67809C21.1075 9.73691 21.0977 9.80397 21.0639 9.86187C21.0476 9.91774 21.0425 9.97577 21.0375 10.033C21.0316 10.1005 21.0257 10.1669 21.0016 10.2274C20.9483 10.3594 20.9216 10.4914 20.8949 10.6234C20.4592 12.451 19.8012 14.1772 18.9031 15.7712C18.8053 15.954 18.8053 16.0657 18.9031 16.2485C19.2765 16.878 19.5967 17.5481 19.8724 18.2385C20.1303 18.8884 20.3703 19.5484 20.5748 20.2287C20.6067 20.3296 20.6343 20.4355 20.6621 20.5423C20.7044 20.7039 20.7471 20.8677 20.806 21.0207Z" fill="#FFE15A"/>
<path d="M13.4561 15.2659C13.4314 15.1903 13.4067 15.1147 13.3801 15.0402C13.3457 14.9278 13.3113 14.8147 13.2768 14.7012C13.1774 14.3736 13.0766 14.0419 12.971 13.7102C12.7842 13.111 12.6597 12.5018 12.5353 11.8825C12.2952 10.6742 12.1351 9.44561 12.0373 8.20687C11.9662 7.33366 11.9395 6.46046 11.9395 5.5771C11.9395 5.41465 11.9039 5.34357 11.7527 5.34357C11.3971 5.35373 11.0414 5.35373 10.6857 5.34357C10.5434 5.34357 10.499 5.41465 10.499 5.5771C10.5256 6.67369 10.5968 7.77026 10.7568 8.84654C10.8991 9.76037 11.0947 10.6437 11.3348 11.5271C11.3971 11.7708 11.4593 12.0043 11.5571 12.2378C11.9751 13.4968 12.4908 14.7051 13.1399 15.8322C13.2111 15.9642 13.2022 16.0556 13.131 16.1774C12.1262 17.9543 11.4148 19.8734 10.9969 21.9142C10.7924 22.8584 10.6501 23.8027 10.5879 24.7674C10.5523 25.3258 10.5345 25.8842 10.5434 26.4528C10.5434 26.595 10.6057 26.6254 10.7124 26.6254C11.0592 26.6152 11.4059 26.6152 11.7527 26.6254C11.8861 26.6356 11.9217 26.5646 11.9217 26.4326C11.9013 25.7259 11.9485 25.0194 11.9957 24.3128C12.0102 24.0954 12.0247 23.878 12.0373 23.6606C12.064 23.224 12.1084 22.7772 12.1885 22.3406C12.224 22.0563 12.2596 21.772 12.3041 21.4878C12.4997 20.2084 12.7664 18.9494 13.1221 17.7207C13.1933 17.3856 13.3089 17.071 13.4334 16.7562C13.4515 16.7087 13.469 16.6611 13.4863 16.6139C13.5283 16.4995 13.5698 16.3867 13.6201 16.279C13.7179 16.086 13.709 15.9032 13.6201 15.7103C13.5549 15.5682 13.5055 15.417 13.4561 15.2659Z" fill="#FFE15A"/>
</svg>
