<svg width="87" height="18" viewBox="0 0 87 18" fill="none" xmlns="http://www.w3.org/2000/svg">
<g clip-path="url(#clip0_354_268)">
<path d="M5.31853 7.308L8.69642 3.93148L12.0757 7.31075L14.04 5.34501L8.69642 0L3.35278 5.34363L5.31853 7.308Z" fill="#F3BA2F"/>
<path d="M-0.000732422 8.69629L1.96429 6.73127L3.92932 8.69629L1.96429 10.6613L-0.000732422 8.69629Z" fill="#F3BA2F"/>
<path d="M5.31883 10.0843L8.69672 13.4621L12.076 10.0829L14.0417 12.0459L14.0404 12.0473L8.69672 17.3923L3.35309 12.05L3.35034 12.0473L5.31883 10.0843Z" fill="#F3BA2F"/>
<path d="M13.4607 8.69678L15.4257 6.73175L17.3907 8.69678L15.4257 10.6618L13.4607 8.69678Z" fill="#F3BA2F"/>
<path d="M10.6899 8.69552L8.69665 6.70093L7.22268 8.17489L7.05235 8.34385L6.70343 8.69277L6.70068 8.69552L6.70343 8.69964L8.69665 10.6915L10.6899 8.69689L10.6912 8.69552H10.6899Z" fill="#F3BA2F"/>
<path d="M20.4565 4.21448H24.7314C25.7919 4.21448 26.5942 4.48921 27.1381 5.03869C27.3431 5.24166 27.5047 5.48416 27.613 5.75146C27.7214 6.01877 27.7744 6.30531 27.7687 6.5937V6.6198C27.7724 6.85605 27.7395 7.09144 27.6711 7.31763C27.6103 7.51234 27.5219 7.69737 27.4088 7.8671C27.3033 8.02716 27.1756 8.17146 27.0296 8.29569C26.887 8.41846 26.7307 8.52447 26.5639 8.61164C27.0449 8.77918 27.4775 9.06219 27.8236 9.43585C28.1295 9.78385 28.2824 10.2646 28.2824 10.8782V10.9043C28.2911 11.2875 28.2077 11.6672 28.0393 12.0115C27.8761 12.3287 27.6368 12.6006 27.3428 12.8028C27.0105 13.0256 26.6405 13.1861 26.2507 13.2767C25.7877 13.3865 25.3131 13.4395 24.8372 13.4346H20.4565V4.21448ZM24.3029 7.94266C24.6727 7.96053 25.0408 7.88095 25.3702 7.71188C25.4987 7.63684 25.6036 7.52732 25.673 7.39573C25.7424 7.26415 25.7736 7.11575 25.7631 6.96734V6.94124C25.7699 6.8045 25.7421 6.66825 25.6823 6.54508C25.6225 6.42191 25.5327 6.31579 25.421 6.23654C25.193 6.07445 24.8638 5.9934 24.4334 5.9934H22.4333V7.94266H24.3029ZM24.8427 11.6585C25.2112 11.6791 25.578 11.5948 25.9005 11.4153C26.0261 11.3346 26.1278 11.2217 26.1949 11.0883C26.2621 10.955 26.2923 10.806 26.2823 10.6571V10.631C26.2873 10.4893 26.2574 10.3487 26.1954 10.2213C26.1334 10.0939 26.0411 9.98361 25.9266 9.90016C25.6903 9.717 25.3084 9.62542 24.7809 9.62542H22.4333V11.6585H24.8427Z" fill="#F3BA2F"/>
<path d="M30.8291 4.21448H32.858V13.4374H30.8291V4.21448Z" fill="#F3BA2F"/>
<path d="M35.9285 4.21448H37.7994L42.1238 9.89054V4.21448H44.1266V13.4374H42.3999L37.934 7.57451V13.4374H35.9285V4.21448Z" fill="#F3BA2F"/>
<path d="M50.2696 4.14856H52.1378L56.0899 13.4374H53.9717L53.1283 11.3686H49.2284L48.3849 13.4374H46.3162L50.2696 4.14856ZM52.4043 9.57736L51.1763 6.58548L49.9537 9.57736H52.4043Z" fill="#F3BA2F"/>
<path d="M58.2837 4.21448H60.1546L64.4763 9.89054V4.21448H66.4791V13.4374H64.7524L60.2865 7.57451V13.4374H58.2837V4.21448Z" fill="#F3BA2F"/>
<path d="M73.7817 13.5996C73.1351 13.6051 72.494 13.4799 71.897 13.2314C71.3349 12.9993 70.825 12.6571 70.3973 12.2249C69.9696 11.7927 69.6327 11.2793 69.4065 10.7148C69.1678 10.1244 69.047 9.49303 69.0507 8.85622V8.83012C69.0401 7.57489 69.5231 6.36573 70.3955 5.46322C70.8248 5.02237 71.3388 4.67287 71.9066 4.43571C72.5242 4.17988 73.1874 4.05229 73.8559 4.06069C74.2512 4.05774 74.6459 4.09317 75.0345 4.16647C75.3669 4.22933 75.6919 4.32647 76.0043 4.45631C76.2878 4.57564 76.5573 4.72582 76.8079 4.90413C77.0525 5.07805 77.2822 5.27195 77.4947 5.48383L76.2049 6.9729C75.8752 6.66882 75.5055 6.41138 75.1059 6.20776C74.7134 6.02007 74.2826 5.92602 73.8476 5.93302C73.4856 5.92916 73.1268 6.00237 72.7953 6.14779C72.4637 6.29321 72.1668 6.50751 71.9245 6.77647C71.6841 7.04473 71.4959 7.35546 71.3695 7.69271C71.2371 8.04912 71.1706 8.42659 71.1731 8.80677V8.83287C71.1718 9.2125 71.2383 9.58931 71.3695 9.94556C71.4943 10.284 71.6806 10.5965 71.919 10.8673C72.1594 11.1396 72.4556 11.357 72.7874 11.5049C73.1192 11.6528 73.4789 11.7277 73.8421 11.7245C74.3047 11.739 74.7637 11.6395 75.1787 11.4346C75.5738 11.2193 75.9391 10.9533 76.2653 10.6434L77.5566 11.9484C77.3286 12.1958 77.082 12.4255 76.8189 12.6352C76.5604 12.8396 76.2798 13.0142 75.9823 13.1559C75.6653 13.3051 75.3313 13.4153 74.9878 13.4842C74.5907 13.5638 74.1866 13.6024 73.7817 13.5996Z" fill="#F3BA2F"/>
<path d="M79.9507 4.21448H86.8919V6.0195H81.9467V7.89046H86.3012V9.69548H81.9535V11.6324H86.9606V13.4374H79.9548L79.9507 4.21448Z" fill="#F3BA2F"/>
</g>
<defs>
<clipPath id="clip0_354_268">
<rect width="86.9597" height="17.3922" fill="white"/>
</clipPath>
</defs>
</svg>
