<svg width="14" height="14" viewBox="0 0 14 14" fill="none" xmlns="http://www.w3.org/2000/svg">
<path d="M8.07529 5.6323C8.28643 5.87564 8.65485 5.90173 8.89819 5.69059C9.14152 5.47945 9.16761 5.11103 8.95647 4.8677L8.07529 5.6323ZM5.92472 8.3677C5.71358 8.12436 5.34516 8.09827 5.10183 8.30941C4.85849 8.52055 4.8324 8.88897 5.04354 9.1323L5.92472 8.3677ZM7.58333 4.08333C7.58333 3.76117 7.32217 3.5 7 3.5C6.67783 3.5 6.41667 3.76117 6.41667 4.08333H7.58333ZM6.41667 9.91665C6.41666 10.2388 6.67782 10.5 6.99999 10.5C7.32215 10.5 7.58333 10.2388 7.58333 9.91668L6.41667 9.91665ZM11.6667 7C11.6667 9.57733 9.57733 11.6667 7 11.6667V12.8333C10.2217 12.8333 12.8333 10.2217 12.8333 7H11.6667ZM7 11.6667C4.42267 11.6667 2.33333 9.57733 2.33333 7H1.16667C1.16667 10.2217 3.77834 12.8333 7 12.8333V11.6667ZM2.33333 7C2.33333 4.42267 4.42267 2.33333 7 2.33333V1.16667C3.77834 1.16667 1.16667 3.77834 1.16667 7H2.33333ZM7 2.33333C9.57733 2.33333 11.6667 4.42267 11.6667 7H12.8333C12.8333 3.77834 10.2217 1.16667 7 1.16667V2.33333ZM7 6.41667C6.61585 6.41667 6.29446 6.31181 6.08614 6.17293C5.87374 6.03133 5.83333 5.89978 5.83333 5.83333H4.66667C4.66667 6.41122 5.01801 6.863 5.43899 7.14365C5.86404 7.42702 6.41765 7.58333 7 7.58333V6.41667ZM5.83333 5.83333C5.83333 5.76689 5.87374 5.63534 6.08614 5.49374C6.29446 5.35486 6.61585 5.25 7 5.25V4.08333C6.41765 4.08333 5.86404 4.23964 5.43899 4.52301C5.01801 4.80366 4.66667 5.25544 4.66667 5.83333H5.83333ZM7 5.25C7.5272 5.25 7.91177 5.44385 8.07529 5.6323L8.95647 4.8677C8.51483 4.35872 7.76829 4.08333 7 4.08333V5.25ZM7 7.58333C7.38415 7.58333 7.70555 7.68819 7.91387 7.82707C8.12627 7.96867 8.16668 8.10023 8.16668 8.16667H9.33335C9.33335 7.58877 8.982 7.13699 8.56102 6.85635C8.13596 6.57298 7.58235 6.41667 7 6.41667V7.58333ZM6.41667 4.08333V4.66667H7.58333V4.08333H6.41667ZM6.41668 9.33332L6.41667 9.91665L7.58333 9.91668L7.58335 9.33335L6.41668 9.33332ZM7.00002 8.75C6.47281 8.75 6.08824 8.55615 5.92472 8.3677L5.04354 9.1323C5.48518 9.64128 6.23173 9.91666 7.00001 9.91667L7.00002 8.75ZM8.16668 8.16667C8.16668 8.23311 8.12627 8.36466 7.91387 8.50626C7.70555 8.64514 7.38416 8.75 7.00001 8.75V9.91667C7.58236 9.91667 8.13597 9.76036 8.56102 9.47699C8.982 9.19634 9.33335 8.74456 9.33335 8.16667H8.16668ZM6.41667 4.66667L6.41668 9.33334L7.58335 9.33333L7.58333 4.66667L6.41667 4.66667Z" fill="white"/>
</svg>
