<svg width="24" height="36" viewBox="0 0 24 36" fill="none" xmlns="http://www.w3.org/2000/svg">
<path d="M8 16V28H2V16H8ZM9 14H1C0.734784 14 0.480429 14.1054 0.292892 14.2929C0.105356 14.4804 0 14.7348 0 15V29C0 29.2652 0.105356 29.5196 0.292892 29.7071C0.480429 29.8946 0.734784 30 1 30H9C9.26522 30 9.51957 29.8946 9.70711 29.7071C9.89464 29.5196 10 29.2652 10 29V15C10 14.7348 9.89464 14.4804 9.70711 14.2929C9.51957 14.1054 9.26522 14 9 14Z" fill="white"/>
<path d="M22 8V20H16V8H22ZM23 6H15C14.7348 6 14.4804 6.10536 14.2929 6.29289C14.1054 6.48043 14 6.73478 14 7V21C14 21.2652 14.1054 21.5196 14.2929 21.7071C14.4804 21.8946 14.7348 22 15 22H23C23.2652 22 23.5196 21.8946 23.7071 21.7071C23.8946 21.5196 24 21.2652 24 21V7C24 6.73478 23.8946 6.48043 23.7071 6.29289C23.5196 6.10536 23.2652 6 23 6Z" fill="white"/>
<path d="M6 8H4V15H6V8ZM6 29H4V36H6V29Z" fill="white"/>
<path d="M20 0H18V7H20V0ZM20 21H18V28H20V21Z" fill="white"/>
<rect x="0.923096" y="15.6923" width="8.30769" height="12.9231" fill="white"/>
</svg>
