<svg width="26" height="26" viewBox="0 0 26 26" fill="none" xmlns="http://www.w3.org/2000/svg">
<mask id="mask0_328_286" style="mask-type:luminance" maskUnits="userSpaceOnUse" x="1" y="3" width="24" height="19">
<path d="M1.85718 3.71423H24.1429V21.5428H1.85718V3.71423Z" fill="white"/>
</mask>
<g mask="url(#mask0_328_286)">
<path d="M8.26432 5.38566H13.2786C13.3525 5.38566 13.4233 5.41501 13.4756 5.46725C13.5278 5.5195 13.5572 5.59035 13.5572 5.66423V7.05709H7.98575V5.66423C7.98575 5.62765 7.99295 5.59143 8.00695 5.55763C8.02095 5.52383 8.04147 5.49312 8.06734 5.46725C8.09321 5.44139 8.12392 5.42087 8.15772 5.40687C8.19151 5.39287 8.22774 5.38566 8.26432 5.38566ZM6.31432 5.66423V7.05709H4.08575C3.49485 7.05758 2.92829 7.29254 2.51045 7.71037C2.09262 8.1282 1.85767 8.69476 1.85718 9.28566V12.6285H14.4003C15.0345 11.8576 15.8477 11.2537 16.7691 10.8694C17.6904 10.4852 18.6917 10.3323 19.6858 10.4241V9.28566C19.6858 8.05623 18.6866 7.05709 17.4572 7.05709H15.2286V5.66423C15.2286 4.58802 14.3548 3.71423 13.2786 3.71423H8.26432C7.18811 3.71423 6.31432 4.58802 6.31432 5.66423ZM13 15.9714H9.65718C9.04061 15.9714 8.54289 15.4737 8.54289 14.8571V13.7428H1.85718V18.1999C1.85718 19.4294 2.85632 20.4285 4.08575 20.4285H14.3994C13.3699 19.183 12.8758 17.5804 13.0251 15.9714H13ZM24.1429 16.5285C24.1429 15.1986 23.6146 13.9232 22.6742 12.9829C21.7339 12.0425 20.4585 11.5142 19.1286 11.5142C17.7987 11.5142 16.5233 12.0425 15.583 12.9829C14.6426 13.9232 14.1143 15.1986 14.1143 16.5285C14.1143 17.8584 14.6426 19.1338 15.583 20.0742C16.5233 21.0145 17.7987 21.5428 19.1286 21.5428C20.4585 21.5428 21.7339 21.0145 22.6742 20.0742C23.6146 19.1338 24.1429 17.8584 24.1429 16.5285ZM19.1286 13.7428C19.435 13.7428 19.6858 13.9935 19.6858 14.2999V15.9714H20.8C21.1065 15.9714 21.3572 16.2221 21.3572 16.5285C21.3572 16.8349 21.1065 17.0857 20.8 17.0857H19.1286C18.8222 17.0857 18.5715 16.8349 18.5715 16.5285V14.2999C18.5715 13.9935 18.8222 13.7428 19.1286 13.7428Z" fill="white"/>
</g>
</svg>
