<svg width="18" height="18" viewBox="0 0 18 18" fill="none" xmlns="http://www.w3.org/2000/svg">
<path d="M8.09995 11.7C7.10584 11.7 6.29995 10.8942 6.29995 9.90005L6.29995 4.50005C6.29995 3.50593 7.10584 2.70005 8.09995 2.70005L13.5 2.70005C14.4941 2.70005 15.3 3.50593 15.3 4.50005L15.3 9.90005C15.3 10.8942 14.4941 11.7 13.5 11.7L8.09995 11.7Z" fill="white"/>
<path d="M2.69995 13.5C2.69995 14.4942 3.50584 15.3 4.49995 15.3L9.89995 15.3C10.8941 15.3 11.7 14.4942 11.7 13.5L4.49995 13.5L4.49995 6.30005C3.50584 6.30005 2.69995 7.10594 2.69995 8.10005L2.69995 13.5Z" fill="white"/>
</svg>
