<svg width="38" height="11" viewBox="0 0 38 11" fill="none" xmlns="http://www.w3.org/2000/svg">
<g clip-path="url(#clip0_385_260)">
<path fill-rule="evenodd" clip-rule="evenodd" d="M8.70074 0.262573H0.461426V0.651984C1.41046 0.695253 1.71242 0.825055 1.71242 1.82022V8.52672C1.71242 9.56516 1.41046 9.65167 0.461426 9.69497V10.0411H5.07717V9.69497C3.91245 9.65167 3.65362 9.5219 3.65362 8.52672V5.32492H5.33601C6.58699 5.32492 7.19093 5.6278 7.40659 6.75275H7.79483V3.29132H7.40659C7.23406 4.32974 6.88896 4.58936 5.33601 4.58936H3.65362V1.47407C3.65362 1.08466 3.7399 0.998126 4.21441 0.998126H5.68112C7.6223 0.998126 7.9674 1.34427 8.31251 2.42596H8.70074V0.262573ZM15.1451 9.02639L13.203 6.15874L14.2623 4.83522C14.9685 3.99699 15.3658 3.55582 15.9837 3.5117V3.11465H13.2471V3.5117C13.7326 3.5117 13.9533 3.64406 13.9533 3.95288C13.9533 4.2176 13.6443 4.57053 13.3795 4.83522L12.7615 5.54112L12.0553 4.48229C11.8788 4.26172 11.7464 4.08523 11.7464 3.86464C11.7464 3.64406 12.0112 3.5117 12.4526 3.5117V3.11465H8.78903V3.5117C9.31869 3.64406 9.53938 3.95288 9.80423 4.34992L11.6139 6.99701L10.1132 8.7617C9.58354 9.37932 9.31869 9.59993 8.70074 9.68817V10.0411H11.3932V9.68817C11.0401 9.68817 10.6429 9.59993 10.6429 9.37932C10.6429 9.16704 10.8882 8.87302 11.3 8.37932L11.3491 8.32053L11.9671 7.5705L12.7174 8.67346C12.7529 8.72665 12.786 8.77588 12.8167 8.8216C13.0153 9.11703 13.1147 9.26471 13.1147 9.37932C13.1147 9.55581 12.8498 9.64405 12.3643 9.64405V9.99698H16.1161V9.64405C15.8072 9.7323 15.5423 9.64405 15.1451 9.02639ZM16.5281 0.262573H21.2997C24.0645 0.262573 25.1348 1.51734 25.1794 3.11825C25.1794 4.97879 23.7969 5.97393 21.2105 5.97393H19.8727V8.52672C19.8727 9.5219 20.1402 9.65167 21.2105 9.69497V10.0411H16.5281V9.69497C17.5538 9.65167 17.8213 9.56516 17.8213 8.52672V1.82022C17.8213 0.825055 17.5538 0.695253 16.5281 0.651984V0.262573ZM19.8281 1.38754V5.41143C22.1916 5.41143 23.0388 4.45955 23.0388 2.90191C23.0388 1.56061 22.0132 0.825055 20.6754 0.825055C19.9619 0.825055 19.8281 1.0414 19.8281 1.38754ZM29.9534 3.11465C29.0989 3.11465 28.5593 3.764 28.2895 4.37007H28.2445V3.3311C28.2445 3.20122 28.2445 3.11465 28.1546 3.11465C28.0949 3.11465 27.736 3.19937 27.2881 3.30511C26.7235 3.43837 26.0176 3.605 25.5913 3.67742V4.06703C26.2659 4.06703 26.4458 4.19692 26.4458 4.93285V8.87228C26.4458 9.47832 26.176 9.60821 25.5913 9.69477V10.0411H29.3238V9.69477C28.6492 9.69477 28.2445 9.52162 28.2445 8.78568V4.97611C28.4694 4.62981 28.7392 4.41336 29.009 4.41336C29.1611 4.41336 29.281 4.47524 29.3688 4.52052C29.3848 4.5288 29.3998 4.53654 29.4137 4.54322C29.44 4.56011 29.468 4.5819 29.4991 4.60608C29.6273 4.70594 29.8074 4.84626 30.1332 4.84626C30.5829 4.84626 30.9427 4.49992 30.9427 4.06703C30.9877 3.63413 30.6729 3.11465 29.9534 3.11465ZM30.9469 6.78159C30.9469 4.66096 32.2912 3.11465 34.2426 3.11465C36.194 3.11465 37.5383 4.66096 37.5383 6.78159C37.5383 8.90223 36.194 10.4485 34.2426 10.4485C32.2912 10.4485 30.9469 8.90223 30.9469 6.78159ZM32.8116 6.78159C32.8116 8.90223 33.2019 9.83001 34.2426 9.83001C35.2834 9.83001 35.717 8.90223 35.6737 6.78159C35.6737 4.66096 35.2834 3.73316 34.2426 3.73316C33.2452 3.73316 32.8116 4.66096 32.8116 6.78159Z" fill="#F41112"/>
</g>
<defs>
<clipPath id="clip0_385_260">
<rect width="37.0769" height="10.7111" fill="white" transform="translate(0.461426)"/>
</clipPath>
</defs>
</svg>
