<svg width="26" height="28" viewBox="0 0 26 28" fill="none" xmlns="http://www.w3.org/2000/svg">
<path d="M17.498 2.1366V5.60302C20.6544 7.23289 22.8182 10.5226 22.8182 14.3226C22.8182 19.7434 18.4235 24.1399 13.0027 24.1399C7.58009 24.1399 3.1836 19.7434 3.1836 14.3226C3.1836 10.838 5.00746 7.78223 7.74235 6.04086V2.43755C3.18541 4.45812 0 9.01506 0 14.3235C0 21.5038 5.81968 27.3244 12.9991 27.3244C20.1821 27.3244 26 21.5038 26 14.3235C25.9991 8.72407 22.4538 3.96952 17.498 2.1366Z" fill="#FF5765"/>
<path d="M12.749 16.0014C14.1776 16.0014 14.3227 15.1575 14.3227 14.1195V1.8855C14.3227 0.84485 14.1776 0 12.749 0C11.3258 0 11.179 0.84485 11.179 1.8855V14.1195C11.1781 15.1584 11.3258 16.0014 12.749 16.0014Z" fill="#FF5765"/>
</svg>
