<svg width="14" height="14" viewBox="0 0 14 14" fill="none" xmlns="http://www.w3.org/2000/svg">
<path d="M2.33333 2.33337V1.75004H1.75V2.33337H2.33333ZM11.6667 2.33337H12.25V1.75004H11.6667V2.33337ZM3.67085 6.58756C3.44305 6.81537 3.44305 7.18472 3.67085 7.41252C3.89866 7.64033 4.26801 7.64033 4.49581 7.41252L3.67085 6.58756ZM5.83333 5.25004L6.24581 4.83756C6.01801 4.60976 5.64866 4.60976 5.42086 4.83756L5.83333 5.25004ZM7.58333 7.00004L7.17086 7.41252C7.39866 7.64033 7.76801 7.64033 7.99581 7.41252L7.58333 7.00004ZM10.3291 5.07919C10.557 4.85138 10.557 4.48203 10.3291 4.25423C10.1013 4.02642 9.732 4.02642 9.50419 4.25423L10.3291 5.07919ZM4.25419 11.8376C4.02638 12.0654 4.02638 12.4347 4.25419 12.6625C4.48199 12.8903 4.85134 12.8903 5.07915 12.6625L4.25419 11.8376ZM7 9.91671L7.41248 9.50423C7.18467 9.27642 6.81533 9.27642 6.58752 9.50423L7 9.91671ZM8.92086 12.6625C9.14866 12.8903 9.51801 12.8903 9.74581 12.6625C9.97362 12.4347 9.97362 12.0654 9.74581 11.8376L8.92086 12.6625ZM1.75 1.75004C1.42783 1.75004 1.16667 2.01121 1.16667 2.33337C1.16667 2.65554 1.42783 2.91671 1.75 2.91671V1.75004ZM12.25 2.91671C12.5722 2.91671 12.8333 2.65554 12.8333 2.33337C12.8333 2.01121 12.5722 1.75004 12.25 1.75004V2.91671ZM2.33333 2.91671H11.6667V1.75004H2.33333V2.91671ZM11.0833 2.33337V9.33338H12.25V2.33337H11.0833ZM11.0833 9.33338H2.91667V10.5H11.0833V9.33338ZM2.91667 9.33338V2.33337H1.75V9.33338H2.91667ZM2.91667 9.33338H1.75C1.75 9.97771 2.27233 10.5 2.91667 10.5V9.33338ZM11.0833 9.33338V10.5C11.7277 10.5 12.25 9.97771 12.25 9.33338H11.0833ZM4.49581 7.41252L6.24581 5.66252L5.42086 4.83756L3.67085 6.58756L4.49581 7.41252ZM5.42086 5.66252L7.17086 7.41252L7.99581 6.58756L6.24581 4.83756L5.42086 5.66252ZM7.99581 7.41252L10.3291 5.07919L9.50419 4.25423L7.17086 6.58756L7.99581 7.41252ZM5.07915 12.6625L7.41248 10.3292L6.58752 9.50423L4.25419 11.8376L5.07915 12.6625ZM6.58752 10.3292L8.92086 12.6625L9.74581 11.8376L7.41248 9.50423L6.58752 10.3292ZM1.75 2.91671H12.25V1.75004H1.75V2.91671Z" fill="white"/>
</svg>
