<svg width="42" height="42" viewBox="0 0 42 42" fill="none" xmlns="http://www.w3.org/2000/svg">
<rect width="42" height="42" rx="4.2" fill="#233D32"/>
<path d="M18.8067 17.385C19.0234 17.2405 19.2911 17.1114 19.6 17.0115L19.6 19.3886C19.2911 19.2887 19.0234 19.1596 18.8067 19.0151C18.297 18.6752 18.2 18.3595 18.2 18.2C18.2 18.0406 18.297 17.7249 18.8067 17.385Z" fill="white"/>
<path d="M22.4 24.9886L22.4 22.6115C22.7089 22.7114 22.9766 22.8405 23.1933 22.985C23.703 23.3249 23.8 23.6406 23.8 23.8C23.8 23.9595 23.703 24.2752 23.1933 24.6151C22.9766 24.7596 22.7089 24.8887 22.4 24.9886Z" fill="white"/>
<path fill-rule="evenodd" clip-rule="evenodd" d="M21 32.2C27.1856 32.2 32.2 27.1856 32.2 21C32.2 14.8145 27.1856 9.80005 21 9.80005C14.8144 9.80005 9.79999 14.8145 9.79999 21C9.79999 27.1856 14.8144 32.2 21 32.2ZM22.4 14C22.4 13.2269 21.7732 12.6 21 12.6C20.2268 12.6 19.6 13.2269 19.6 14V14.1288C18.7298 14.2923 17.9249 14.6077 17.2536 15.0553C16.2432 15.7288 15.4 16.8131 15.4 18.2C15.4 19.587 16.2432 20.6713 17.2536 21.3448C17.9249 21.7924 18.7298 22.1078 19.6 22.2713L19.6 24.989C19.0526 24.8113 18.6468 24.5447 18.4193 24.2825C17.9126 23.6985 17.0284 23.6359 16.4444 24.1426C15.8604 24.6494 15.7977 25.5336 16.3045 26.1176C17.092 27.0251 18.2834 27.6232 19.6 27.8707L19.6 28C19.6 28.7732 20.2268 29.4 21 29.4C21.7732 29.4001 22.4 28.7733 22.4 28.0001L22.4 27.8713C23.2702 27.7078 24.0751 27.3924 24.7464 26.9448C25.7568 26.2713 26.6 25.187 26.6 23.8C26.6 22.4131 25.7568 21.3288 24.7464 20.6553C24.0751 20.2077 23.2702 19.8923 22.4 19.7288L22.4 17.0111C22.9474 17.1888 23.3532 17.4554 23.5807 17.7176C24.0874 18.3016 24.9716 18.3642 25.5556 17.8575C26.1396 17.3507 26.2023 16.4665 25.6955 15.8825C24.908 14.975 23.7166 14.3769 22.4 14.1293V14Z" fill="white"/>
</svg>
