<svg width="26" height="26" viewBox="0 0 26 26" fill="none" xmlns="http://www.w3.org/2000/svg">
<path d="M16.9 7.80002C16.9 9.95393 15.154 11.7 13 11.7C10.8461 11.7 9.10005 9.95393 9.10005 7.80002C9.10005 5.64611 10.8461 3.90002 13 3.90002C15.154 3.90002 16.9 5.64611 16.9 7.80002Z" fill="white"/>
<path d="M23.4 10.4C23.4 11.836 22.236 13 20.8 13C19.3641 13 18.2 11.836 18.2 10.4C18.2 8.96408 19.3641 7.80002 20.8 7.80002C22.236 7.80002 23.4 8.96408 23.4 10.4Z" fill="white"/>
<path d="M18.2 19.5C18.2 16.6281 15.8719 14.3 13 14.3C10.1282 14.3 7.80005 16.6281 7.80005 19.5V23.4H18.2V19.5Z" fill="white"/>
<path d="M7.80005 10.4C7.80005 11.836 6.63599 13 5.20005 13C3.76411 13 2.60005 11.836 2.60005 10.4C2.60005 8.96408 3.76411 7.80002 5.20005 7.80002C6.63599 7.80002 7.80005 8.96408 7.80005 10.4Z" fill="white"/>
<path d="M20.8 23.4V19.5C20.8 18.1296 20.4466 16.8418 19.826 15.7226C20.1373 15.6426 20.4637 15.6 20.8 15.6C22.954 15.6 24.7 17.3461 24.7 19.5V23.4H20.8Z" fill="white"/>
<path d="M6.17409 15.7226C5.55345 16.8418 5.20005 18.1296 5.20005 19.5V23.4H1.30005V19.5C1.30005 17.3461 3.04614 15.6 5.20005 15.6C5.53637 15.6 5.86275 15.6426 6.17409 15.7226Z" fill="white"/>
</svg>
