<svg width="26" height="26" viewBox="0 0 26 26" fill="none" xmlns="http://www.w3.org/2000/svg">
<path d="M9.50002 9.77837H16.5C16.9293 9.77837 17.2774 9.42928 17.2774 9.00091V7.05679C17.2774 6.0788 16.6613 5.19835 15.7444 4.86384C15.4527 4.75811 15.1018 4.81736 14.8074 5.02243C14.4948 5.24118 13.927 5.50095 13 5.50095C12.0739 5.50095 11.5052 5.24027 11.1926 5.02243C10.9939 4.88481 10.7706 4.81189 10.5564 4.81189C10.4525 4.81189 10.3504 4.82921 10.2547 4.86384C9.33776 5.19835 8.72253 6.07971 8.72253 7.05679V9.00091C8.72253 9.43019 9.07165 9.77837 9.50002 9.77837ZM15.3333 5.88919C15.9768 5.88919 16.5 6.49987 16.5 7.24999C16.5 8.0001 15.9768 8.61078 15.3333 8.61078C14.6898 8.61078 14.1667 8.0001 14.1667 7.24999C14.1667 6.49987 14.6898 5.88919 15.3333 5.88919ZM12.6108 8.22251H13.3883C13.6034 8.22251 13.7775 8.3966 13.7775 8.61171C13.7775 8.82682 13.6034 9.00091 13.3883 9.00091H12.6108C12.3957 9.00091 12.2216 8.82682 12.2216 8.61171C12.2216 8.3966 12.3957 8.22251 12.6108 8.22251ZM10.6667 5.88919C11.3102 5.88919 11.8333 6.49987 11.8333 7.24999C11.8333 8.0001 11.3102 8.61078 10.6667 8.61078C10.0232 8.61078 9.50002 8.0001 9.50002 7.24999C9.50002 6.49987 10.0232 5.88919 10.6667 5.88919Z" fill="white"/>
<path d="M7.94507 18.7225C7.94507 21.5096 10.2128 23.7783 13.0009 23.7783C15.788 23.7783 18.0567 21.5106 18.0567 18.7225V17.5558H16.4772C16.2885 19.3249 14.7928 20.6666 13.001 20.6666C11.2091 20.6666 9.71337 19.3249 9.52204 17.5458L7.94614 17.554V18.7225L7.94507 18.7225Z" fill="white"/>
<path d="M7.94507 14.8333V16.7774H9.52461C9.922 16.7774 10.2529 17.0718 10.2948 17.4619C10.4434 18.8455 11.6073 19.8881 13.001 19.8881C14.3946 19.8881 15.5585 18.8445 15.7072 17.4619C15.7491 17.0718 16.0809 16.7774 16.4773 16.7774H18.0569V14.8333C18.0569 14.1898 17.5337 13.6666 16.8902 13.6666H9.11187C8.46838 13.6666 7.94507 14.1898 7.94507 14.8333ZM13.0009 15.2225C14.0728 15.2225 14.945 16.0947 14.945 17.1666C14.945 18.2385 14.0728 19.1107 13.0009 19.1107C11.929 19.1107 11.0568 18.2385 11.0568 17.1666C11.0568 16.0947 11.929 15.2225 13.0009 15.2225Z" fill="white"/>
<path d="M14.1666 17.1667C14.1666 18.7226 11.8333 18.7226 11.8333 17.1667C11.8333 15.6118 14.1666 15.6118 14.1666 17.1667Z" fill="white"/>
<path d="M10.2783 12.1116H15.7224V12.889H10.2783V12.1116Z" fill="white"/>
<path d="M18.7986 14.4886C18.8187 14.6008 18.8333 14.7156 18.8333 14.8332V18.7224C18.8333 19.0405 18.8013 19.3494 18.7512 19.6539C19.525 19.076 19.9999 18.1682 19.9999 17.1666V15.9999C19.9999 15.2644 19.4858 14.65 18.7986 14.4886Z" fill="white"/>
<path d="M17.786 2.11212C17.7067 2.18959 17.6666 2.28529 17.6666 2.3892V3.27331C17.9519 3.4793 18.2126 3.71627 18.4441 3.97968L18.445 2.3892C18.445 2.17409 18.2709 2 18.0558 2C17.9519 2 17.8562 2.04011 17.786 2.1112L17.786 2.11212Z" fill="white"/>
<path d="M7.24868 19.654C7.19946 19.3496 7.16665 19.0406 7.16665 18.7225V14.8333C7.16665 14.7157 7.18123 14.6009 7.20129 14.4888C6.51405 14.6501 6 15.2644 6 16V17.1666C6 18.1683 6.47392 19.0753 7.24868 19.654Z" fill="white"/>
<path d="M8.33326 3.27342V2.3893C8.33326 2.2854 8.29316 2.18969 8.22207 2.11952C8.14459 2.04023 8.04889 2.00012 7.94498 2.00012C7.72988 2.00012 7.55579 2.17421 7.55579 2.38932V3.9798C7.7873 3.71639 8.04799 3.4794 8.33326 3.27342Z" fill="white"/>
<path d="M9.50002 11.3334H16.5C17.7869 11.3334 18.8333 10.287 18.8333 9.00004V7.05592C18.8333 4.91128 17.0888 3.16675 14.9441 3.16675H11.0549C8.9103 3.16675 7.16577 4.91128 7.16577 7.05592V9.00004C7.16577 10.287 8.21212 11.3334 9.49909 11.3334H9.50002ZM7.94417 7.05592C7.94417 5.75255 8.76538 4.57771 9.98855 4.13204C10.519 3.93881 11.1343 4.03269 11.6374 4.3836C11.8588 4.53854 12.2754 4.72265 13 4.72265C13.7237 4.72265 14.1402 4.53854 14.3626 4.3836C14.8648 4.0336 15.4819 3.93882 16.0114 4.13204C17.2346 4.57775 18.0558 5.7526 18.0558 7.05592V9.00004C18.0558 9.85772 17.3585 10.5559 16.4999 10.5559H9.49998C8.64229 10.5559 7.94412 9.85863 7.94412 9.00004L7.94417 7.05592Z" fill="white"/>
<path d="M15.7225 7.24997C15.7225 8.02834 14.9451 8.02834 14.9451 7.24997C14.9451 6.4725 15.7225 6.4725 15.7225 7.24997Z" fill="white"/>
<path d="M11.0558 7.24997C11.0558 8.02834 10.2783 8.02834 10.2783 7.24997C10.2783 6.4725 11.0558 6.4725 11.0558 7.24997Z" fill="white"/>
</svg>
