<svg width="42" height="42" viewBox="0 0 42 42" fill="none" xmlns="http://www.w3.org/2000/svg">
<rect width="42" height="42" rx="4.2" fill="#3F68AC"/>
<g filter="url(#filter0_di_375_280)">
<path fill-rule="evenodd" clip-rule="evenodd" d="M17.063 9.71614C12.778 12.9153 13.7129 23.4662 15.5667 26.0033H24.0175L24.4916 22.187C22.5 20.5795 20.3973 17.5763 20.4714 14.7532C20.4846 14.4645 20.6197 14.3639 20.7363 14.3639C20.8528 14.3639 20.9878 14.4698 20.9878 14.6711C20.9931 14.8274 21.0779 16.2071 22.2961 16.2071C22.4754 16.2039 22.6535 16.1772 22.8258 16.1277C23.2608 16.0028 23.7105 15.936 24.1632 15.929C24.4671 15.9224 24.7697 15.9718 25.0557 16.0747C25.3103 16.1721 25.5467 16.3118 25.7548 16.4879C25.913 16.619 26.0842 16.7335 26.2659 16.8295C26.6299 16.4639 26.9361 16.045 27.1743 15.5874C27.5212 14.9148 27.7702 14.4275 26.7956 13.7707C25.7629 12.9955 24.9304 11.9849 24.3671 10.8231C24.1699 10.2601 23.7796 9.78536 23.2654 9.48308H23.2442V9.4592C23.2646 9.39808 23.2888 9.33896 23.3136 9.2784L23.3263 9.24735C23.4666 8.91367 23.6097 8.56939 22.9582 8C22.6738 8.20377 22.4134 8.43922 22.1822 8.7018V8.71769H22.1637C21.7163 8.58365 21.251 8.51846 20.7839 8.52437C19.4499 8.52501 18.1492 8.94159 17.063 9.71614ZM14.2423 33.7712C14.1738 34.0124 14.1399 34.262 14.1417 34.5127L25.2408 34.5074C25.2261 34.2623 25.187 34.0192 25.1243 33.7818C25.0278 33.5958 24.9016 33.4268 24.7508 33.2813H14.6475C14.4788 33.4136 14.3406 33.5807 14.2423 33.7712ZM14.7143 33.0352C14.1867 32.2457 13.9396 31.3019 14.0125 30.3551C14.0735 29.452 14.6428 28.5304 15.101 27.7915C15.1619 27.6936 15.2202 27.5982 15.2732 27.5055H24.2218C24.6244 28.1438 25.2997 29.3779 25.3686 30.5564C25.4384 31.44 25.1894 32.3194 24.6667 33.0352H14.7143ZM15.0363 27.0764C15.0972 27.1773 15.1928 27.2525 15.3053 27.288H24.2698C24.3843 27.2546 24.482 27.1794 24.5438 27.0775C24.6055 26.9755 24.6269 26.8541 24.6035 26.7372C24.5792 26.6118 24.514 26.4982 24.4182 26.4138C24.3223 26.3295 24.2012 26.2793 24.0739 26.2711H15.5039C15.3761 26.2794 15.2548 26.33 15.1588 26.4148C15.063 26.4997 14.998 26.614 14.9743 26.7398C14.9533 26.8558 14.9754 26.9755 15.0363 27.0764Z" fill="white"/>
</g>
<defs>
<filter id="filter0_di_375_280" x="6.87439" y="3.46552" width="23.8463" height="36.8772" filterUnits="userSpaceOnUse" color-interpolation-filters="sRGB">
<feFlood flood-opacity="0" result="BackgroundImageFix"/>
<feColorMatrix in="SourceAlpha" type="matrix" values="0 0 0 0 0 0 0 0 0 0 0 0 0 0 0 0 0 0 127 0" result="hardAlpha"/>
<feOffset dx="-1.94335" dy="0.647783"/>
<feGaussianBlur stdDeviation="2.59113"/>
<feColorMatrix type="matrix" values="0 0 0 0 0.458824 0 0 0 0 0.6 0 0 0 0 0.705882 0 0 0 0.25 0"/>
<feBlend mode="normal" in2="BackgroundImageFix" result="effect1_dropShadow_375_280"/>
<feBlend mode="normal" in="SourceGraphic" in2="effect1_dropShadow_375_280" result="shape"/>
<feColorMatrix in="SourceAlpha" type="matrix" values="0 0 0 0 0 0 0 0 0 0 0 0 0 0 0 0 0 0 127 0" result="hardAlpha"/>
<feOffset dx="-1.04815" dy="0.340566"/>
<feGaussianBlur stdDeviation="0.551048"/>
<feComposite in2="hardAlpha" operator="arithmetic" k2="-1" k3="1"/>
<feColorMatrix type="matrix" values="0 0 0 0 1 0 0 0 0 1 0 0 0 0 1 0 0 0 1 0"/>
<feBlend mode="normal" in2="shape" result="effect2_innerShadow_375_280"/>
</filter>
</defs>
</svg>
