<svg width="22" height="22" viewBox="0 0 22 22" fill="none" xmlns="http://www.w3.org/2000/svg">
<path fill-rule="evenodd" clip-rule="evenodd" d="M3.11227 19.3694C2.12148 20.0797 0.785767 19.3238 0.785767 18.0525V5.84805C0.785767 3.9199 2.25505 2.35712 4.06769 2.35712H17.9324C19.7451 2.35712 21.2143 3.92069 21.2143 5.84805V13.2228C21.2143 15.1509 19.7451 17.1191 17.9324 17.1191H5.07262C4.78741 17.1191 4.24527 17.8789 3.7872 18.5208C3.50277 18.9176 3.25055 19.2696 3.11227 19.3694ZM5.87091 8.39455C5.87091 8.23826 5.93299 8.08837 6.04351 7.97786C6.15402 7.86735 6.30391 7.80526 6.46019 7.80526H15.5399C15.6962 7.80526 15.8461 7.86735 15.9566 7.97786C16.0671 8.08837 16.1292 8.23826 16.1292 8.39455C16.1292 8.55083 16.0671 8.70072 15.9566 8.81123C15.8461 8.92175 15.6962 8.98383 15.5399 8.98383H6.46019C6.30391 8.98383 6.15402 8.92175 6.04351 8.81123C5.93299 8.70072 5.87091 8.55083 5.87091 8.39455ZM6.46019 11.0243C6.30391 11.0243 6.15402 11.0864 6.04351 11.1969C5.93299 11.3074 5.87091 11.4573 5.87091 11.6136C5.87091 11.7699 5.93299 11.9198 6.04351 12.0303C6.15402 12.1408 6.30391 12.2029 6.46019 12.2029H15.5399C15.6962 12.2029 15.8461 12.1408 15.9566 12.0303C16.0671 11.9198 16.1292 11.7699 16.1292 11.6136C16.1292 11.4573 16.0671 11.3074 15.9566 11.1969C15.8461 11.0864 15.6962 11.0243 15.5399 11.0243H6.46019Z" fill="white"/>
</svg>
