<svg width="32" height="32" viewBox="0 0 32 32" fill="none" xmlns="http://www.w3.org/2000/svg">
<path d="M15.717 3.42856H7.37414C7.30721 3.42816 7.24177 3.44832 7.18667 3.48631C7.13156 3.5243 7.08945 3.57829 7.06602 3.64098C7.04259 3.70368 7.03896 3.77205 7.05564 3.83687C7.07232 3.90169 7.1085 3.95983 7.15928 4.00342L11.293 7.57714C11.4713 7.73142 11.6999 7.81714 11.9353 7.81714H15.7524C16.861 7.81714 17.7319 8.15656 18.3673 8.83428C19.0267 9.51428 19.357 10.3337 19.357 11.2937C19.357 12.2994 19.0153 13.1314 18.3319 13.7863C17.6496 14.4423 16.7661 14.7691 15.6827 14.7691H12.1604C11.9239 14.7694 11.6954 14.855 11.517 15.0103L6.83128 19.0789C6.72541 19.171 6.64053 19.2848 6.58237 19.4126C6.52421 19.5403 6.49413 19.6791 6.49414 19.8194V27.9154C6.49414 28.2777 6.78671 28.5703 7.14785 28.5703H11.2233C11.3968 28.57 11.563 28.5008 11.6856 28.3781C11.8082 28.2553 11.877 28.0889 11.877 27.9154V19.7783C11.877 19.4171 12.1707 19.1246 12.5319 19.1246H12.9764C13.1351 19.1247 13.2913 19.1632 13.4318 19.2369C13.5723 19.3105 13.6929 19.4171 13.7833 19.5474L19.7341 28.1474C19.917 28.4126 20.2199 28.5703 20.5421 28.5703H25.2907C25.3297 28.5702 25.368 28.5594 25.4014 28.5392C25.4347 28.5189 25.4619 28.4898 25.4799 28.4552C25.4979 28.4206 25.5061 28.3817 25.5036 28.3428C25.501 28.3038 25.4879 28.2663 25.4656 28.2343L18.7764 18.7143C18.754 18.6829 18.7392 18.6468 18.7331 18.6087C18.7271 18.5707 18.7299 18.5318 18.7414 18.495C18.7529 18.4582 18.7728 18.4246 18.7995 18.3968C18.8262 18.369 18.859 18.3478 18.8953 18.3348C20.3474 17.7988 21.6293 16.8832 22.6073 15.6834C23.6439 14.4183 24.1616 12.9783 24.1616 11.3634C24.1616 9.84228 23.8073 8.48342 23.101 7.29028C22.3947 6.07314 21.3936 5.12456 20.0976 4.44571C18.8267 3.76799 17.3673 3.42856 15.7181 3.42856H15.717Z" fill="#0094FF"/>
<path d="M12.7694 11.6834C12.8036 11.6528 12.831 11.6153 12.8497 11.5733C12.8685 11.5314 12.8781 11.4859 12.8781 11.44C12.8781 11.3941 12.8685 11.3486 12.8497 11.3067C12.831 11.2648 12.8036 11.2272 12.7694 11.1966L7.04026 6.05144C6.99325 6.00926 6.93504 5.98161 6.87265 5.97182C6.81026 5.96203 6.74637 5.97052 6.6887 5.99627C6.63104 6.02202 6.58207 6.06392 6.54771 6.11691C6.51336 6.16991 6.49509 6.23171 6.49512 6.29487V16.6057C6.49512 16.8892 6.82997 17.0377 7.0414 16.848L12.7694 11.6834Z" fill="#0094FF"/>
</svg>
