<svg width="20" height="20" viewBox="0 0 20 20" fill="none" xmlns="http://www.w3.org/2000/svg">
<g clip-path="url(#clip0_390_3524)">
<path d="M10 20C15.5228 20 20 15.5228 20 10C20 4.47715 15.5228 0 10 0C4.47715 0 0 4.47715 0 10C0 15.5228 4.47715 20 10 20Z" fill="#EF0027"/>
<path d="M13.7075 6.19564L4.6875 4.53564L9.43438 16.4806L16.0487 8.42189L13.7075 6.19564ZM13.5625 6.92689L14.9425 8.23877L11.1688 8.92189L13.5625 6.92689ZM10.3488 8.78502L6.37125 5.48627L12.8725 6.68252L10.3488 8.78502ZM10.0656 9.36877L9.41688 14.7313L5.92 5.92939L10.0656 9.36877ZM10.6656 9.65314L14.845 8.89689L10.0513 14.7363L10.6656 9.65314Z" fill="white"/>
</g>
<defs>
<clipPath id="clip0_390_3524">
<rect width="20" height="20" fill="white"/>
</clipPath>
</defs>
</svg>
