<svg width="20" height="20" viewBox="0 0 20 20" fill="none" xmlns="http://www.w3.org/2000/svg">
<g clip-path="url(#clip0_391_276)">
<path d="M10 20C15.5228 20 20 15.5228 20 10C20 4.47715 15.5228 0 10 0C4.47715 0 0 4.47715 0 10C0 15.5228 4.47715 20 10 20Z" fill="#26A17B"/>
<path fill-rule="evenodd" clip-rule="evenodd" d="M11.2013 10.8643V10.8631C11.1325 10.8681 10.7781 10.8893 9.9875 10.8893C9.35625 10.8893 8.91187 10.8706 8.75562 10.8631V10.865C6.32562 10.7581 4.51187 10.335 4.51187 9.82872C4.51187 9.32309 6.32562 8.89997 8.75562 8.79122V10.4437C8.91437 10.455 9.36937 10.4818 9.99812 10.4818C10.7525 10.4818 11.1306 10.4506 11.2013 10.4443V8.79247C13.6263 8.90059 15.4356 9.32372 15.4356 9.82872C15.4356 10.335 13.6263 10.7568 11.2013 10.8643ZM11.2013 8.62059V7.14184H14.585V4.88684H5.37188V7.14184H8.75562V8.61997C6.00562 8.74622 3.9375 9.29122 3.9375 9.94372C3.9375 10.5962 6.00562 11.1406 8.75562 11.2675V16.0062H11.2013V11.2662C13.9469 11.14 16.01 10.5956 16.01 9.94372C16.01 9.29184 13.9469 8.74747 11.2013 8.62059Z" fill="white"/>
<g clip-path="url(#clip1_391_276)">
<path d="M14.4463 14.3617L16 12.808L17.5544 14.3623L18.4584 13.4583L16 11L13.5424 13.4576L14.4464 14.3616L14.4463 14.3617ZM12 15L12.904 14.0958L13.808 14.9998L12.904 15.9038L12 15ZM14.4463 15.6384L16 17.192L17.5543 15.6377L18.4588 16.5412L18.4584 16.5417L16 19L13.5424 16.5424L13.5411 16.5411L14.4464 15.6383L14.4463 15.6384ZM18.192 15.0004L19.096 14.0964L20 15.0003L19.096 15.9044L18.192 15.0004Z" fill="#F3BA2F"/>
<path d="M16.9169 14.9995H16.9173L16.0001 14.0822L15.3221 14.76L15.2442 14.8379L15.0836 14.9986L15.0823 14.9998L15.0836 15.0011L16.0001 15.9178L16.9174 15.0004L16.9178 14.9999L16.917 14.9995" fill="#F3BA2F"/>
</g>
</g>
<defs>
<clipPath id="clip0_391_276">
<rect width="20" height="20" fill="white"/>
</clipPath>
<clipPath id="clip1_391_276">
<rect width="8" height="8" fill="white" transform="translate(12 11)"/>
</clipPath>
</defs>
</svg>
