<svg width="26" height="26" viewBox="0 0 26 26" fill="none" xmlns="http://www.w3.org/2000/svg">
<path fill-rule="evenodd" clip-rule="evenodd" d="M16.5208 11.9167C16.5208 10.2713 17.8546 8.9375 19.4999 8.9375H22.7499V10.5625H19.4999C18.752 10.5625 18.1458 11.1687 18.1458 11.9167C18.1458 12.6646 18.752 13.2708 19.4999 13.2708H22.7499V14.8958H19.4999C17.8546 14.8958 16.5208 13.562 16.5208 11.9167Z" fill="black"/>
<path fill-rule="evenodd" clip-rule="evenodd" d="M6.50008 3.79163H19.5001C20.9958 3.79163 22.2084 5.00419 22.2084 6.49996V17.3333C22.2084 18.8291 20.9958 20.0416 19.5001 20.0416H18.4167V21.6666H19.5001C21.8933 21.6666 23.8334 19.7265 23.8334 17.3333V6.49996C23.8334 4.10672 21.8933 2.16663 19.5001 2.16663H6.50008C4.10685 2.16663 2.16675 4.10672 2.16675 6.49996V17.3333C2.16675 19.7265 4.10685 21.6666 6.50008 21.6666H7.58341V20.0416H6.50008C5.00431 20.0416 3.79175 18.8291 3.79175 17.3333V6.49996C3.79175 5.00419 5.00431 3.79163 6.50008 3.79163Z" fill="black"/>
<path fill-rule="evenodd" clip-rule="evenodd" d="M13 12.1875C12.5513 12.1875 12.1875 12.5513 12.1875 13V22.75C12.1875 23.1987 12.5513 23.5625 13 23.5625C13.4487 23.5625 13.8125 23.1987 13.8125 22.75V13C13.8125 12.5513 13.4487 12.1875 13 12.1875Z" fill="black"/>
<path fill-rule="evenodd" clip-rule="evenodd" d="M9.17547 20.0089C8.85818 20.3262 8.85818 20.8405 9.17547 21.1578L12.4255 24.4078C12.5778 24.5603 12.7845 24.6458 13 24.6458C13.2155 24.6458 13.4222 24.5603 13.5745 24.4078L16.8245 21.1578C17.1418 20.8405 17.1418 20.3262 16.8245 20.0089C16.5072 19.6915 15.9928 19.6915 15.6755 20.0089L13 22.6843L10.3245 20.0089C10.0072 19.6915 9.49277 19.6915 9.17547 20.0089Z" fill="black"/>
<path d="M20.3125 11.9166C20.3125 11.4679 19.9487 11.1041 19.5 11.1041C19.0513 11.1041 18.6875 11.4679 18.6875 11.9166C18.6875 12.3653 19.0513 12.7291 19.5 12.7291C19.9487 12.7291 20.3125 12.3653 20.3125 11.9166Z" fill="black"/>
</svg>
