<svg width="20" height="20" viewBox="0 0 20 20" fill="none" xmlns="http://www.w3.org/2000/svg">
<circle cx="10" cy="10" r="10" fill="black"/>
<path d="M14.2421 5H15.9765L12.3671 8.57375C11.06 9.86727 8.9408 9.86727 7.63275 8.57375L4.02197 5H5.75775L8.49994 7.71477C8.89948 8.10854 9.43792 8.32928 9.99889 8.32928C10.5599 8.32928 11.0983 8.10854 11.4978 7.71477L14.2421 5Z" fill="white"/>
<path d="M5.73555 14.9375H4L7.63281 11.3417C8.93992 10.0482 11.0591 10.0482 12.3672 11.3417L16 14.9375H14.2656L11.5 12.2007C11.1005 11.8069 10.562 11.5862 10.0011 11.5862C9.44009 11.5862 8.90164 11.8069 8.50211 12.2007L5.73555 14.9375Z" fill="white"/>
</svg>
