<svg width="24" height="24" viewBox="0 0 24 24" fill="none" xmlns="http://www.w3.org/2000/svg">
<g clip-path="url(#clip0_545_57540)">
<path d="M19.8662 6.58766C18.4372 5.47996 16.7943 4.8112 15.0749 4.29321C15.2232 4.03787 15.42 3.98802 15.6752 4.00504C17.5368 4.17199 19.3207 4.83079 20.8443 5.91404C20.9581 5.99448 21.0517 6.10019 21.1177 6.22289C22.5237 8.83109 23.4416 11.6744 23.8262 14.6128C23.9259 15.4031 23.9563 16.2032 24 16.9984C23.9943 17.1326 23.9398 17.2602 23.8469 17.3571C22.2454 19.0594 20.2404 19.8522 17.9414 19.9932C17.8391 20.0093 17.7343 19.9966 17.6387 19.9564C17.5432 19.9163 17.4608 19.8503 17.4007 19.7659C17.0507 19.3123 16.6716 18.8782 16.2876 18.4101C17.6741 17.9809 18.8892 17.3741 19.8115 16.2944C14.6051 19.2126 9.41285 19.2126 4.2348 16.2944C4.32229 16.5607 4.98089 17.1613 5.75492 17.5711C6.36248 17.8933 7.00893 18.1535 7.67603 18.4575C7.27626 18.9366 6.86068 19.4424 6.43174 19.9337C6.38192 19.9908 6.24583 19.9908 6.15227 19.9859C3.79371 19.8729 1.74744 19.0509 0.111887 17.3109C0.0372351 17.2143 -0.00220411 17.095 9.51302e-05 16.9729C0.0407938 14.7478 0.415176 12.5414 1.11072 10.4276C1.55209 9.01055 2.12742 7.63886 2.8289 6.3311C2.93405 6.13803 3.08204 5.97164 3.26149 5.84473C4.76037 4.79981 6.50642 4.16557 8.32612 4.00504C8.58373 3.98194 8.78058 4.03179 8.93368 4.29078C7.20821 4.80877 5.56658 5.47996 4.13152 6.59496C9.37437 4.20931 14.6192 4.20688 19.8662 6.58766ZM15.6958 15.301C15.9741 15.2996 16.2494 15.243 16.5057 15.1345C16.762 15.0259 16.9943 14.8677 17.1891 14.6688C17.3839 14.4699 17.5373 14.2343 17.6406 13.9757C17.7439 13.7171 17.7949 13.4406 17.7907 13.1622C17.7907 12.0022 16.8514 11.0258 15.7469 11.0319C15.1795 11.0302 14.6347 11.2536 14.2316 11.6531C13.8285 12.0526 13.6 12.5957 13.5961 13.1634C13.5937 13.4417 13.6461 13.7178 13.7503 13.9758C13.8546 14.2339 14.0086 14.4689 14.2035 14.6674C14.3985 14.8659 14.6307 15.024 14.8867 15.1327C15.1428 15.2414 15.4177 15.2986 15.6958 15.301ZM8.31033 15.301C8.86698 15.2952 9.399 15.0704 9.79127 14.6751C10.1835 14.2799 10.4045 13.746 10.4064 13.1889C10.4079 12.9052 10.3531 12.6241 10.2453 12.3617C10.1375 12.0994 9.97873 11.861 9.77828 11.6604C9.57782 11.4598 9.33961 11.301 9.07742 11.1931C8.81523 11.0852 8.53427 11.0304 8.25078 11.0319C7.14988 11.0319 6.21059 12.0046 6.21181 13.1658C6.20844 13.4442 6.26015 13.7206 6.36397 13.9789C6.46778 14.2373 6.62165 14.4725 6.81671 14.6711C7.01177 14.8696 7.24416 15.0276 7.5005 15.136C7.75684 15.2443 8.03207 15.3008 8.31033 15.3022V15.301Z" fill="#E5E5E5"/>
</g>
<defs>
<clipPath id="clip0_545_57540">
<rect width="24" height="24" fill="white"/>
</clipPath>
</defs>
</svg>
