<?xml version="1.0" encoding="utf-8"?>
<!-- Generator: Adobe Illustrator 27.8.0, SVG Export Plug-In . SVG Version: 6.00 Build 0)  -->
<svg version="1.1" id="Layer_1" xmlns="http://www.w3.org/2000/svg" xmlns:xlink="http://www.w3.org/1999/xlink" x="0px" y="0px"
	 viewBox="0 0 214.6 59.9" style="enable-background:new 0 0 214.6 59.9;" xml:space="preserve">
<style type="text/css">
	.st0{fill:#FFFFFF;}
</style>
<path class="st0" d="M76.9,0v16.3h-5.5V0h-5.5v16.3h-5.5V0h-5.5v16.3H27.4V0H22v16.3v5.4h54.9v5.4h-5.5h-5.5H16.5V0H11v27.2H5.5V0H0
	v27.2v5.4v27.2h5.5V43.6H11v16.3h5.5V43.6H22v16.3h5.5V43.6h27.4v16.3h5.5V43.6v-5.4H16.5H11H5.5v-5.4H11h5.5h49.4v27.2h5.5V32.7
	h5.5v27.2h5.5V32.7v-5.4v-5.4v-5.4V0H76.9z"/>
<path class="st0" d="M104.9,0.7c2.2,0,3.9,0.4,5,1.1c1.1,0.8,1.7,2.1,1.7,4.1c0,2-0.6,3.4-1.7,4.1c-1.1,0.8-2.8,1.1-5,1.1h-2.7v5.5
	h-1.9V0.7H104.9z M104.9,9.6c0.8,0,1.4,0,1.9-0.1c0.5-0.1,1-0.3,1.5-0.5c0.5-0.3,0.8-0.6,1-1.1c0.2-0.5,0.3-1.1,0.3-1.9
	c0-1.4-0.4-2.4-1.2-2.9c-0.8-0.5-2-0.8-3.6-0.8h-2.7v7.3H104.9z"/>
<path class="st0" d="M114.1,16.7v-10c0-1.1,0.5-1.6,1.6-1.5l6.3,0.2V7l-6-0.2v9.9H114.1z"/>
<path class="st0" d="M123,11.1c0-1.7,0.6-3.1,1.7-4.2c1.1-1.1,2.6-1.7,4.4-1.7c1.8,0,3.2,0.6,4.3,1.7c1.1,1.1,1.7,2.5,1.7,4.2
	c0,1.7-0.6,3.1-1.7,4.2c-1.1,1.1-2.5,1.7-4.3,1.7c-1.8,0-3.2-0.6-4.4-1.7C123.6,14.2,123,12.8,123,11.1z M124.9,11.1
	c0,1.2,0.4,2.3,1.1,3.1c0.7,0.8,1.8,1.2,3.1,1.2c1.3,0,2.3-0.4,3-1.2c0.7-0.8,1.1-1.8,1.1-3.1c0-1.2-0.4-2.2-1.1-3.1
	c-0.7-0.8-1.7-1.2-3-1.2c-1.3,0-2.3,0.4-3.1,1.2C125.3,8.8,124.9,9.8,124.9,11.1z"/>
<path class="st0" d="M137.2,11.1c0-1.7,0.6-3.1,1.7-4.2c1.1-1.1,2.6-1.7,4.4-1.7c1.8,0,3.2,0.6,4.3,1.7c1.1,1.1,1.7,2.5,1.7,4.2
	c0,1.7-0.6,3.1-1.7,4.2c-1.1,1.1-2.5,1.7-4.3,1.7c-1.8,0-3.2-0.6-4.4-1.7C137.8,14.2,137.2,12.8,137.2,11.1z M139.1,11.1
	c0,1.2,0.4,2.3,1.1,3.1c0.7,0.8,1.8,1.2,3.1,1.2c1.3,0,2.3-0.4,3-1.2c0.7-0.8,1.1-1.8,1.1-3.1c0-1.2-0.4-2.2-1.1-3.1
	c-0.7-0.8-1.7-1.2-3-1.2c-1.3,0-2.3,0.4-3.1,1.2C139.4,8.8,139.1,9.8,139.1,11.1z"/>
<path class="st0" d="M157.3,1.6c-0.7,0-1.2,0.2-1.5,0.5c-0.3,0.3-0.4,0.9-0.4,1.6v1.7h3.3V7h-3.3v8.1h3.3v1.6H151v-1.6h2.5V7H151
	V5.4h2.5V3.7c0-2.5,1.3-3.7,3.9-3.7h2v1.6H157.3z"/>
<path class="st0" d="M160.6,10.9c0-1.8,0.5-3.2,1.5-4.2c1-1,2.4-1.5,4-1.5c1.6,0,2.9,0.5,3.9,1.5c1,1,1.4,2.3,1.4,4.1v0.7h-9
	c0.1,1.2,0.4,2.1,1,2.9c0.6,0.7,1.6,1.1,2.9,1.1c0.9,0,1.7-0.2,2.3-0.7c0.6-0.5,1-1.1,1.2-2h1.9c-0.1,0.5-0.3,1-0.6,1.4
	c-0.2,0.4-0.6,0.9-1,1.3c-0.4,0.4-0.9,0.8-1.6,1.1c-0.7,0.3-1.4,0.4-2.3,0.4c-1.9,0-3.4-0.6-4.4-1.7
	C161.1,14.1,160.6,12.7,160.6,10.9z M162.5,10h7.2c0-0.9-0.3-1.7-0.9-2.3c-0.6-0.6-1.5-0.9-2.6-0.9s-2,0.3-2.7,0.9
	C162.8,8.3,162.5,9.1,162.5,10z"/>
<path class="st0" d="M186.2,16.7h-1.9v-1.7l0.3-1.3h-0.6c-0.3,0.9-0.8,1.7-1.6,2.3c-0.8,0.6-1.8,0.9-3,0.9c-1.6,0-2.9-0.6-3.9-1.7
	c-1-1.1-1.5-2.5-1.5-4.2c0-1.7,0.5-3.1,1.5-4.2c1-1.1,2.3-1.7,3.9-1.7c1.2,0,2.2,0.3,3,0.9c0.8,0.6,1.3,1.4,1.6,2.3h0.6l-0.3-1.3V0
	h1.9V16.7z M184.3,11.1c0-1.4-0.4-2.5-1.2-3.2c-0.8-0.7-1.8-1.1-3.1-1.1c-1.3,0-2.3,0.4-3,1.1c-0.7,0.7-1.1,1.8-1.1,3.2
	c0,1.4,0.4,2.5,1.1,3.2c0.8,0.7,1.8,1.1,3,1.1c1.3,0,2.3-0.4,3.1-1.1C183.9,13.6,184.3,12.5,184.3,11.1z"/>
<path class="st0" d="M100.3,38.5V21.8h1.9v7.1l-0.3,1.3h0.5c0.3-0.9,0.8-1.7,1.6-2.3c0.8-0.6,1.8-0.9,3.1-0.9c1.6,0,2.9,0.6,3.9,1.7
	c1,1.1,1.5,2.5,1.5,4.2c0,1.7-0.5,3.1-1.5,4.2c-1,1.1-2.3,1.7-3.9,1.7c-1.3,0-2.3-0.3-3.1-0.9c-0.8-0.6-1.3-1.4-1.6-2.3h-0.5
	l0.3,1.3v1.7H100.3z M102.2,32.8c0,1.4,0.4,2.5,1.2,3.2c0.8,0.7,1.8,1.1,3.1,1.1c1.3,0,2.2-0.4,3-1.1c0.8-0.7,1.1-1.8,1.1-3.2
	c0-1.4-0.4-2.5-1.1-3.2c-0.7-0.7-1.7-1.1-3-1.1c-1.3,0-2.3,0.4-3.1,1.1C102.6,30.4,102.2,31.4,102.2,32.8z"/>
<path class="st0" d="M123.2,27.2h2l-5,11.2v3.2c0,0.9-0.5,1.4-1.6,1.3l-4.4-0.2v-1.6l4.1,0.2v-2.9l-5-11.2h2.1l3.6,8.8v0.9h0.6V36
	L123.2,27.2z"/>
<path class="st0" d="M146.7,22.5h1.9v16.1h-1.9v-7.1h-9.5v7.1h-1.9V22.5h1.9v7.3h9.5V22.5z"/>
<path class="st0" d="M151.4,35.4c0-1.9,1.2-3,3.7-3.3l4.5-0.4c-0.1-2.1-1.2-3.1-3.2-3.1c-0.9,0-1.7,0.2-2.3,0.7
	c-0.6,0.5-0.9,1.2-0.9,2.2h-1.8c0-1.2,0.5-2.3,1.4-3.1c0.9-0.9,2.1-1.3,3.7-1.3c1.6,0,2.8,0.5,3.7,1.4c0.9,0.9,1.4,2.2,1.4,3.7v4.8
	h1.7v1.6h-2c-0.9,0-1.4-0.4-1.4-1.3v-0.6l0.3-1.2h-0.6c-0.6,2.2-2,3.3-4.4,3.3c-0.6,0-1.2-0.1-1.7-0.2c-0.5-0.2-0.8-0.4-1.1-0.6
	c-0.3-0.2-0.5-0.5-0.6-0.8c-0.2-0.3-0.3-0.6-0.3-0.9C151.4,35.9,151.4,35.7,151.4,35.4z M153.3,35.1c0,0.6,0.2,1.1,0.6,1.5
	c0.4,0.3,0.9,0.5,1.6,0.5c1.3,0,2.3-0.4,3.1-1.2c0.8-0.8,1.2-1.8,1.2-3l-4.2,0.4c-0.7,0.1-1.3,0.2-1.7,0.5
	C153.4,34.2,153.3,34.6,153.3,35.1z"/>
<path class="st0" d="M164.5,32.8c0-1.7,0.5-3.1,1.6-4.2c1.1-1.1,2.5-1.7,4.3-1.7c0.8,0,1.6,0.1,2.3,0.4c0.7,0.3,1.4,0.8,2,1.5
	c0.6,0.7,0.9,1.6,1,2.6h-1.9c-0.3-1.9-1.4-2.9-3.4-2.9c-1.3,0-2.3,0.4-2.9,1.2c-0.7,0.8-1,1.8-1,3.1c0,1.2,0.3,2.3,1,3.1
	c0.7,0.8,1.7,1.2,2.9,1.2c2,0,3.1-1,3.4-2.9h1.9c-0.1,1-0.4,1.9-1,2.6c-0.6,0.7-1.3,1.2-2,1.5c-0.7,0.3-1.5,0.4-2.3,0.4
	c-1.8,0-3.2-0.6-4.3-1.7C165,36,164.5,34.5,164.5,32.8z"/>
<path class="st0" d="M186.5,38.5l-3.8-5.3l-2.4,1.3v4h-1.9V21.8h1.9v10.8l5.8-3.1l-0.2-2.3h1.9l0.2,2.1c0.1,0.7-0.2,1.3-0.9,1.6
	l-2.8,1.5l4.4,6.1H186.5z"/>
<path class="st0" d="M190,32.7c0-1.8,0.5-3.2,1.5-4.2c1-1,2.4-1.5,4-1.5c1.6,0,2.9,0.5,3.9,1.5c1,1,1.4,2.3,1.4,4.1v0.7h-9
	c0.1,1.2,0.4,2.1,1,2.9c0.6,0.7,1.6,1.1,2.9,1.1c0.9,0,1.7-0.2,2.3-0.7c0.6-0.5,1-1.1,1.2-2h1.9c-0.1,0.5-0.3,1-0.6,1.4
	c-0.2,0.4-0.6,0.9-1,1.3c-0.4,0.4-0.9,0.8-1.6,1.1c-0.7,0.3-1.4,0.4-2.3,0.4c-1.9,0-3.4-0.6-4.4-1.7C190.5,35.9,190,34.5,190,32.7z
	 M191.9,31.8h7.2c0-0.9-0.3-1.7-0.9-2.3c-0.6-0.6-1.5-0.9-2.6-0.9s-2,0.3-2.7,0.9C192.2,30.1,191.9,30.9,191.9,31.8z"/>
<path class="st0" d="M209.9,28.6c-1.2,0-2.2,0.4-3,1.3c-0.8,0.9-1.1,2.1-1.1,3.6v5h-1.9V27.2h1.9v2l-0.3,1.3h0.5
	c0.2-1.1,0.7-1.9,1.5-2.5c0.8-0.6,1.7-1,2.9-1c1.3,0,2.4,0.4,3.1,1.2c0.8,0.8,1.1,1.9,1.1,3.5v6.9h-1.9v-6.7c0-1.2-0.2-2-0.7-2.5
	C211.6,28.8,210.9,28.6,209.9,28.6z"/>
<path class="st0" d="M103,59.3c1.7,0,2.7-0.8,2.7-2.2c0-1.5-1.2-1.8-2.2-2.1l-1.2-0.4c-0.7-0.2-1.5-0.4-1.5-1.2
	c0-0.7,0.7-1.2,1.6-1.2c1.2,0,2,0.6,2.1,1.7h1c-0.1-1.6-1.2-2.5-3-2.5c-1.6,0-2.6,0.8-2.6,2.1c0,1.5,1.6,1.8,2.2,2l1.3,0.4
	c0.7,0.2,1.4,0.5,1.4,1.3c0,0.8-0.6,1.3-1.8,1.3c-1.4,0-2.3-0.6-2.4-1.6h-1C99.7,58.3,101,59.3,103,59.3z M107.8,59.2v-3.5
	c0-0.9,0.6-1.6,1.7-1.6c0.8,0,1.3,0.5,1.3,1.3v3.9h0.9v-3.5c0-0.9,0.6-1.6,1.7-1.6c0.8,0,1.3,0.5,1.3,1.3v3.9h0.9v-3.9
	c0-1.2-0.8-2.1-2-2.1c-0.9,0-1.7,0.5-2.1,1.2c-0.3-0.7-1-1.2-1.8-1.2c-0.8,0-1.6,0.4-2,1l-0.1-0.9h-0.7v5.8H107.8z M119,59.3
	c1,0,1.7-0.4,2-1.1v0.2c0,0.5,0.3,0.8,1,0.8h0.5v-0.7h-0.3c-0.2,0-0.3-0.1-0.3-0.3v-2.8c0-1.2-0.9-2.1-2.4-2.1
	c-1.4,0-2.4,0.8-2.5,1.9h0.9c0.1-0.7,0.8-1.2,1.6-1.2c0.9,0,1.5,0.5,1.5,1.3c0,0.5-0.8,0.5-1.7,0.6c-1.2,0.1-2.5,0.4-2.5,1.7
	C116.8,58.6,117.6,59.3,119,59.3z M119.1,58.5c-0.8,0-1.4-0.4-1.4-1c0-0.7,0.8-0.9,1.6-0.9c0.7-0.1,1.4-0.1,1.6-0.5v0.8
	C120.9,57.8,120.2,58.5,119.1,58.5z M124.4,59.2v-3.1c0-1.2,0.7-1.9,1.9-1.9h0.2v-0.9h-0.2c-1,0-1.6,0.4-2,1.1l-0.1-1.1h-0.7v5.8
	H124.4z M130.6,59.2v-0.8H130c-0.5,0-0.8-0.3-0.8-0.9v-3.4h1.6v-0.8h-1.6v-2h-0.9v2h-1.1v0.8h1.1v3.4c0,1.1,0.6,1.7,1.7,1.7H130.6z
	 M137.8,59.3c2,0,3.3-1.1,3.6-3.1h-1c-0.3,1.5-1.2,2.2-2.7,2.2c-1.7,0-2.8-1.2-2.8-3.1c0-1.9,1.1-3.1,2.8-3.1c1.4,0,2.4,0.8,2.7,2.2
	h1c-0.3-1.9-1.7-3.1-3.6-3.1c-2.4,0-3.8,1.7-3.8,3.9C134.1,57.7,135.5,59.3,137.8,59.3z M145.4,59.3c1.6,0,2.9-1.1,2.9-3.1
	c0-1.7-1-3-2.9-3c-1.6,0-2.9,1-2.9,3C142.5,58,143.5,59.3,145.4,59.3z M145.4,58.5c-1.1,0-1.9-0.8-1.9-2.3c0-1.3,0.8-2.2,1.9-2.2
	c1.2,0,1.9,0.9,1.9,2.2C147.3,57.5,146.6,58.5,145.4,58.5z M150.3,59.2v-3.5c0-0.9,0.6-1.6,1.7-1.6c0.9,0,1.4,0.5,1.4,1.3v3.8h0.9
	v-3.9c0-1.3-0.8-2.1-2.1-2.1c-0.9,0-1.6,0.4-2,1l-0.1-0.9h-0.7v5.8H150.3z M158.7,59.2v-0.8h-0.6c-0.5,0-0.8-0.3-0.8-0.9v-3.4h1.6
	v-0.8h-1.6v-2h-0.9v2h-1.1v0.8h1.1v3.4c0,1.1,0.6,1.7,1.7,1.7H158.7z M160.8,59.2v-3.1c0-1.2,0.7-1.9,1.9-1.9h0.2v-0.9h-0.2
	c-1,0-1.6,0.4-2,1.1l-0.1-1.1h-0.7v5.8H160.8z M165.7,59.3c1,0,1.7-0.4,2-1.1v0.2c0,0.5,0.3,0.8,1,0.8h0.5v-0.7h-0.3
	c-0.2,0-0.3-0.1-0.3-0.3v-2.8c0-1.2-0.9-2.1-2.4-2.1c-1.4,0-2.4,0.8-2.5,1.9h0.9c0.1-0.7,0.8-1.2,1.6-1.2c0.9,0,1.5,0.5,1.5,1.3
	c0,0.5-0.8,0.5-1.7,0.6c-1.2,0.1-2.5,0.4-2.5,1.7C163.6,58.6,164.4,59.3,165.7,59.3z M165.9,58.5c-0.8,0-1.4-0.4-1.4-1
	c0-0.7,0.8-0.9,1.6-0.9c0.7-0.1,1.4-0.1,1.6-0.5v0.8C167.7,57.8,167,58.5,165.9,58.5z M172.9,59.3c1.5,0,2.5-0.9,2.6-2.4h-0.9
	c-0.2,1-0.8,1.6-1.7,1.6c-1.1,0-2-0.8-2-2.3c0-1.4,0.8-2.2,1.9-2.2c1,0,1.7,0.6,1.8,1.6h0.9c-0.2-1.5-1.2-2.4-2.7-2.4
	c-1.6,0-2.9,1.1-2.9,3C170,57.9,171,59.3,172.9,59.3z M179.6,59.2v-0.8h-0.6c-0.5,0-0.8-0.3-0.8-0.9v-3.4h1.6v-0.8h-1.6v-2h-0.9v2
	h-1.1v0.8h1.1v3.4c0,1.1,0.6,1.7,1.7,1.7H179.6z M183.7,59.2l0.9-2.2h3.6l0.9,2.2h1l-3.2-7.7H186l-3.2,7.7H183.7z M186.4,52.7
	l1.4,3.5H185L186.4,52.7z M193.1,59.3c0.8,0,1.5-0.3,1.9-1l0.1,0.9h0.7v-5.8h-0.9v3.5c0,0.9-0.6,1.6-1.7,1.6c-0.8,0-1.4-0.5-1.4-1.3
	v-3.9h-0.9v3.9C190.9,58.4,191.7,59.3,193.1,59.3z M199.6,59.3c1,0,1.7-0.5,2.1-1.2l0.1,1.1h0.7v-8.2h-0.9v3.3c-0.4-0.6-1.2-1-2-1
	c-1.6,0-2.6,1.2-2.6,3C197,58.1,198.1,59.3,199.6,59.3z M199.8,58.5c-1.1,0-1.8-0.9-1.8-2.3c0-1.3,0.8-2.2,1.9-2.2
	c1.1,0,1.8,0.9,1.8,2.2C201.7,57.6,200.9,58.5,199.8,58.5z M204.6,52.4c0.4,0,0.7-0.3,0.7-0.7c0-0.4-0.3-0.7-0.7-0.7
	c-0.4,0-0.7,0.3-0.7,0.7C203.9,52.1,204.2,52.4,204.6,52.4z M205,59.2v-5.8h-0.9v5.8H205z M209.5,59.2v-0.8h-0.6
	c-0.5,0-0.8-0.3-0.8-0.9v-3.4h1.6v-0.8h-1.6v-2h-0.9v2h-1.1v0.8h1.1v3.4c0,1.1,0.6,1.7,1.7,1.7H209.5z"/>
</svg>
