<svg width="24" height="24" viewBox="0 0 24 24" fill="none" xmlns="http://www.w3.org/2000/svg">
<g id="icon">
<path id="Union" fill-rule="evenodd" clip-rule="evenodd" d="M0.150021 4.06307C0.530156 5.18259 1.55475 5.86019 2.86624 5.85943C3.15876 5.86434 3.4464 5.82323 3.73066 5.75876C4.81391 5.51366 5.62983 4.63772 5.75955 3.58155C5.90543 2.39717 5.37528 1.33345 4.36798 0.82478C3.71487 0.494842 3.01852 0.444692 2.30224 0.548387C0.615884 0.792729 -0.399313 2.44694 0.150021 4.06307ZM13.4397 10.2176C13.9823 9.53887 14.5696 9.02153 15.211 8.55283C17.7302 6.71348 22.1693 7.537 23.4612 11.261C23.8353 12.339 23.9895 13.4465 23.9925 14.578C23.9958 16.0063 23.996 17.4346 23.9961 18.8629C23.9962 20.3318 23.9964 21.8007 24 23.2695C24.0004 23.4686 23.9357 23.4977 23.759 23.4969C22.202 23.4901 20.645 23.4886 19.088 23.4984C18.883 23.4995 18.8477 23.4354 18.8481 23.248C18.8537 20.5931 18.853 17.9378 18.8515 15.2828C18.8511 14.5532 18.7781 13.8364 18.5082 13.1478C17.7893 11.3156 15.5148 11.385 14.488 12.3171C13.8274 12.9171 13.4438 13.6418 13.4453 14.5543C13.447 15.539 13.4448 16.5238 13.4425 17.5086V17.5087C13.4412 18.0768 13.4399 18.6449 13.4393 19.213L13.4388 19.7336V19.7341C13.4377 20.9046 13.4365 22.0752 13.4431 23.2458C13.4442 23.4354 13.4055 23.4995 13.2002 23.498C11.6432 23.4886 10.0862 23.4894 8.52916 23.4973C8.34417 23.498 8.29416 23.4554 8.29454 23.265C8.30018 18.247 8.30055 13.2293 8.29416 8.2112C8.29378 8.00344 8.35996 7.9695 8.54646 7.97026C10.0952 7.97742 11.6439 7.97742 13.1927 7.96988C13.3833 7.96912 13.4491 8.00947 13.4446 8.21422C13.4347 8.67131 13.4364 9.12859 13.4382 9.61294C13.439 9.80944 13.4397 10.0104 13.4397 10.2176ZM5.45463 15.7315L5.45439 17.3201V17.3201C5.45395 19.2867 5.45351 21.2531 5.45914 23.2198C5.45989 23.4279 5.42793 23.5022 5.19368 23.4999C3.64532 23.4871 2.09658 23.489 0.548219 23.4984C0.344804 23.4996 0.30758 23.4373 0.307956 23.2488C0.312844 18.2402 0.312468 13.2312 0.308332 8.22215C0.308332 8.04228 0.331268 7.96574 0.544083 7.96725C2.10072 7.9778 3.65773 7.97705 5.21436 7.968C5.4159 7.96687 5.45951 8.02456 5.45876 8.218C5.45369 10.2043 5.45406 12.1906 5.45443 14.1768L5.45463 15.7315Z" fill="#E5E5E5"/>
</g>
</svg>
