<?xml version="1.0" encoding="utf-8"?>
<!-- Generator: Adobe Illustrator 27.8.0, SVG Export Plug-In . SVG Version: 6.00 Build 0)  -->
<svg version="1.1" id="Layer_1" xmlns="http://www.w3.org/2000/svg" xmlns:xlink="http://www.w3.org/1999/xlink" x="0px" y="0px"
	 viewBox="0 0 150 150" style="enable-background:new 0 0 150 150;" xml:space="preserve">
<style type="text/css">
	.st0{fill:#FFFFFF;}
</style>
<path class="st0" d="M119.4,103.9L88.9,63.3l3.9-4.2c2.2-2.2,13.3-14.2,24.6-26.5C128.7,20.3,139.3,8.8,141,7.1l2.9-3h-13.3
	l-23.4,25.3c-12.8,13.9-23.6,25.3-24,25.3c-0.3,0-9.1-11.4-19.6-25.3L44.7,4.1H22.3C10,4.1,0,4.2,0,4.3C0,4.5,13,22,28.9,43.2
	c15.9,21.3,28.9,39,28.8,39.3C57.6,82.7,44.5,97,28.8,114C13,131.1,0,145.3,0,145.5c0,0.2,2.9,0.4,6.4,0.4h6.3l24.9-27
	c13.7-14.8,25.3-27.3,25.8-27.7c0.7-0.5,7.3,7.7,21.6,26.9l20.7,27.7l22.3,0.1c12.2,0,22.2-0.2,22.2-0.6
	C150,144.9,136.2,126.4,119.4,103.9z M120.5,136.1l-10-0.1l-44.8-60C41,43.1,20.5,15.6,20.1,15h0c-0.6-1,1.1-1.1,9.5-1.1h10.1
	l45.2,60.3c24.8,33.2,45.2,60.7,45.3,61.1C130.4,135.8,126.7,136.1,120.5,136.1z"/>
</svg>
