<?xml version="1.0" encoding="utf-8"?>
<!-- Generator: Adobe Illustrator 27.8.0, SVG Export Plug-In . SVG Version: 6.00 Build 0)  -->
<svg version="1.1" id="Layer_1" xmlns="http://www.w3.org/2000/svg" xmlns:xlink="http://www.w3.org/1999/xlink" x="0px" y="0px"
	 viewBox="0 0 102 102" style="enable-background:new 0 0 102 102;" xml:space="preserve">
<style type="text/css">
	.st0{fill:none;stroke:#FFFFFF;stroke-width:2;stroke-miterlimit:10;}
</style>
<g>
	<g>
		<path class="st0" d="M51,33.5c4.7,0,8.5-3.8,8.5-8.5s-3.8-8.5-8.5-8.5s-8.5,3.8-8.5,8.5S46.3,33.5,51,33.5z"/>
		<path class="st0" d="M35.9,59.5c4.7,0,8.5-3.8,8.5-8.5s-3.8-8.5-8.5-8.5s-8.5,3.8-8.5,8.5C27.4,55.7,31.2,59.5,35.9,59.5z"/>
		<path class="st0" d="M21,85.5c4.7,0,8.5-3.8,8.5-8.5s-3.8-8.5-8.5-8.5s-8.5,3.8-8.5,8.5S16.3,85.5,21,85.5z"/>
		<path class="st0" d="M50.6,85.5c4.7,0,8.5-3.8,8.5-8.5s-3.8-8.5-8.5-8.5s-8.5,3.8-8.5,8.5S45.9,85.5,50.6,85.5z"/>
		<path class="st0" d="M81,85.5c4.7,0,8.5-3.8,8.5-8.5s-3.8-8.5-8.5-8.5s-8.5,3.8-8.5,8.5S76.3,85.5,81,85.5z"/>
		<path class="st0" d="M66.1,59.5c4.7,0,8.5-3.8,8.5-8.5s-3.8-8.5-8.5-8.5s-8.5,3.8-8.5,8.5S61.4,59.5,66.1,59.5z"/>
		<path class="st0" d="M25.2,69.6l6.5-11.3"/>
		<path class="st0" d="M40.2,43.7l6.5-11.3"/>
		<path class="st0" d="M55.2,32.3l6.6,11.4"/>
		<path class="st0" d="M70.3,58.4l6.5,11.3"/>
		<path class="st0" d="M57.6,51H44.4"/>
		<path class="st0" d="M39.1,58.8l7.1,10.8"/>
		<path class="st0" d="M55.5,70l7.4-11.2"/>
		<path class="st0" d="M29.5,77h12.7"/>
		<path class="st0" d="M59.1,77h13.4"/>
	</g>
</g>
</svg>
