<?xml version="1.0" encoding="utf-8"?>
<!-- Generator: Adobe Illustrator 27.8.0, SVG Export Plug-In . SVG Version: 6.00 Build 0)  -->
<svg version="1.1" id="Layer_1" xmlns="http://www.w3.org/2000/svg" xmlns:xlink="http://www.w3.org/1999/xlink" x="0px" y="0px"
	 viewBox="0 0 18 19" style="enable-background:new 0 0 18 19;" xml:space="preserve">
<style type="text/css">
	.st0{fill:#FFFFFF;}
</style>
<path class="st0" d="M15.6,10.9c-0.3,0.2-0.7,0.2-1,0.1c-0.4-0.2-0.6-0.7-0.6-1.3v-2c0-1-0.4-1.6-1-1.8c-1.1-0.3-1.9,1-2.2,1.5
	l-1.9,3.1V6.6c0-0.9-0.3-1.4-0.8-1.5C7.8,5,7.2,5,6.7,5.8l-4.2,6.8c-0.6-1.1-0.9-2.3-0.9-3.5c0-4.1,3.3-7.4,7.3-7.4
	c4,0,7.3,3.3,7.3,7.4v0c0,0,0,0,0,0C16.3,9.9,16,10.6,15.6,10.9z M17.9,9.1L17.9,9.1c0-5-4-9.1-9-9.1C4,0,0,4.1,0,9.1
	c0,5,4,9.1,8.9,9.1c2.3,0,4.4-0.9,6.1-2.4c0.3-0.3,0.4-0.8,0-1.2c-0.3-0.3-0.8-0.4-1.1-0.1l0,0c-2.9,2.8-7.5,2.6-10.2-0.3
	c-0.1-0.1-0.1-0.1-0.2-0.2l3.8-6.1v2.8c0,1.4,0.5,1.8,1,1.9c0.4,0.1,1.1,0,1.8-1.1l2.1-3.4c0.1-0.1,0.1-0.2,0.2-0.3v1.7
	c0,1.3,0.5,2.3,1.4,2.8c0.8,0.4,1.8,0.4,2.6-0.1C17.4,11.6,17.9,10.5,17.9,9.1L17.9,9.1z"/>
</svg>
