<?xml version="1.0" encoding="utf-8"?>
<!-- Generator: Adobe Illustrator 27.8.0, SVG Export Plug-In . SVG Version: 6.00 Build 0)  -->
<svg version="1.1" id="Layer_1" xmlns="http://www.w3.org/2000/svg" xmlns:xlink="http://www.w3.org/1999/xlink" x="0px" y="0px"
	 viewBox="0 0 19 19" style="enable-background:new 0 0 19 19;" xml:space="preserve">
<style type="text/css">
	.st0{clip-path:url(#SVGID_00000029005253803771458430000010069397999226130873_);}
	.st1{fill:#FFFFFF;}
</style>
<g>
	<defs>
		<rect id="SVGID_1_" x="0.5" y="0.5" width="18" height="18"/>
	</defs>
	<clipPath id="SVGID_00000142891220650063709000000014806585365234349974_">
		<use xlink:href="#SVGID_1_"  style="overflow:visible;"/>
	</clipPath>
	<g style="clip-path:url(#SVGID_00000142891220650063709000000014806585365234349974_);">
		<path class="st1" d="M9.5,2.1c2.4,0,2.7,0,3.6,0.1c0.9,0,1.4,0.2,1.7,0.3c0.4,0.1,0.7,0.4,1,0.7c0.3,0.3,0.5,0.6,0.7,1
			c0.1,0.3,0.3,0.8,0.3,1.7c0,0.9,0.1,1.2,0.1,3.6c0,2.4,0,2.7-0.1,3.6c0,0.9-0.2,1.4-0.3,1.7c-0.1,0.4-0.4,0.7-0.7,1
			c-0.3,0.3-0.6,0.5-1,0.7c-0.3,0.1-0.8,0.3-1.7,0.3c-0.9,0-1.2,0.1-3.6,0.1c-2.4,0-2.7,0-3.6-0.1c-0.9,0-1.4-0.2-1.7-0.3
			c-0.4-0.1-0.7-0.4-1-0.7c-0.3-0.3-0.5-0.6-0.7-1c-0.1-0.3-0.3-0.8-0.3-1.7c0-0.9-0.1-1.2-0.1-3.6c0-2.4,0-2.7,0.1-3.6
			c0-0.9,0.2-1.4,0.3-1.7c0.1-0.4,0.4-0.7,0.7-1c0.3-0.3,0.6-0.5,1-0.7C4.5,2.4,5,2.2,5.9,2.2C6.8,2.1,7.1,2.1,9.5,2.1z M9.5,0.5
			c-2.4,0-2.8,0-3.7,0.1c-1,0-1.6,0.2-2.2,0.4C3,1.2,2.5,1.6,2,2C1.6,2.5,1.2,3,1,3.6C0.8,4.2,0.6,4.8,0.6,5.8c0,1-0.1,1.3-0.1,3.7
			c0,2.4,0,2.8,0.1,3.7c0,1,0.2,1.6,0.4,2.2C1.2,16,1.6,16.5,2,17c0.4,0.5,1,0.8,1.6,1c0.6,0.2,1.2,0.4,2.2,0.4c1,0,1.3,0.1,3.7,0.1
			s2.8,0,3.7-0.1c1,0,1.6-0.2,2.2-0.4c0.6-0.2,1.1-0.6,1.6-1c0.5-0.5,0.8-1,1-1.6c0.2-0.6,0.4-1.2,0.4-2.2c0-1,0.1-1.3,0.1-3.7
			c0-2.4,0-2.8-0.1-3.7c0-1-0.2-1.6-0.4-2.2C17.8,3,17.4,2.5,17,2c-0.4-0.5-1-0.8-1.6-1c-0.6-0.2-1.2-0.4-2.2-0.4
			C12.3,0.5,11.9,0.5,9.5,0.5z"/>
		<path class="st1" d="M9.5,5.2C8.7,5.2,7.8,5.5,7.1,6S5.9,7.1,5.6,7.9c-0.3,0.8-0.4,1.6-0.2,2.5c0.2,0.8,0.6,1.6,1.2,2.2
			c0.6,0.6,1.4,1,2.2,1.2c0.8,0.2,1.7,0.1,2.5-0.2c0.8-0.3,1.4-0.9,1.9-1.6c0.5-0.7,0.7-1.5,0.7-2.4c0-1.1-0.4-2.2-1.2-3
			C11.7,5.7,10.6,5.2,9.5,5.2z M9.5,12.3c-0.5,0-1.1-0.2-1.5-0.5c-0.5-0.3-0.8-0.7-1-1.2C6.7,10.1,6.7,9.5,6.8,9
			c0.1-0.5,0.4-1,0.8-1.4C7.9,7.2,8.4,6.9,9,6.8c0.5-0.1,1.1-0.1,1.6,0.2c0.5,0.2,0.9,0.6,1.2,1s0.5,1,0.5,1.5c0,0.7-0.3,1.4-0.8,2
			C10.9,12,10.2,12.3,9.5,12.3z"/>
		<path class="st1" d="M14.2,6.2c0.8,0,1.4-0.6,1.4-1.4c0-0.8-0.6-1.4-1.4-1.4c-0.8,0-1.4,0.6-1.4,1.4C12.8,5.5,13.5,6.2,14.2,6.2z"
			/>
	</g>
</g>
</svg>
