<?xml version="1.0" encoding="utf-8"?>
<!-- Generator: Adobe Illustrator 27.8.0, SVG Export Plug-In . SVG Version: 6.00 Build 0)  -->
<svg version="1.1" id="Layer_1" xmlns="http://www.w3.org/2000/svg" xmlns:xlink="http://www.w3.org/1999/xlink" x="0px" y="0px"
	 viewBox="0 0 19 17" style="enable-background:new 0 0 19 17;" xml:space="preserve">
<style type="text/css">
	.st0{fill:#FFFFFF;}
</style>
<path class="st0" d="M18.4,8.5c0-0.4-0.1-0.8-0.3-1.1c-0.2-0.3-0.5-0.6-0.9-0.7S16.4,6.5,16,6.6c-0.4,0.1-0.7,0.3-1,0.5
	c-1.3-1-3.2-1.6-5.3-1.7l0.9-4.2l2.9,0.6c0,0.3,0.2,0.7,0.4,0.9c0.2,0.2,0.6,0.4,0.9,0.4s0.7-0.1,1-0.3c0.3-0.2,0.5-0.5,0.5-0.8
	c0.1-0.3,0-0.7-0.2-1c-0.2-0.3-0.4-0.5-0.8-0.6c-0.3-0.1-0.7-0.1-1,0s-0.6,0.4-0.7,0.7l-3.3-0.7c0,0-0.1,0-0.1,0c0,0-0.1,0-0.1,0.1
	c0,0-0.1,0.1-0.1,0.1c0,0,0,0.1-0.1,0.1l-1,4.7C7,5.5,5.1,6.1,3.7,7.1C3.5,6.9,3.3,6.8,3,6.7C2.7,6.6,2.4,6.5,2.1,6.6
	c-0.3,0-0.6,0.1-0.8,0.3C1.1,7,0.9,7.2,0.7,7.4C0.6,7.7,0.4,7.9,0.4,8.2s0,0.6,0.1,0.8c0.1,0.3,0.2,0.5,0.4,0.7
	C1,10,1.3,10.2,1.5,10.3c0,0.2,0,0.4,0,0.6c0,3,3.5,5.5,7.9,5.5c4.4,0,7.9-2.5,7.9-5.5c0-0.2,0-0.4,0-0.6c0.3-0.2,0.6-0.4,0.9-0.7
	C18.3,9.3,18.4,8.9,18.4,8.5 M4.9,9.9c0-0.3,0.1-0.6,0.2-0.8c0.2-0.2,0.4-0.4,0.6-0.5C6,8.5,6.3,8.5,6.6,8.6s0.5,0.2,0.7,0.4
	c0.2,0.2,0.3,0.4,0.4,0.7s0,0.6-0.1,0.8S7.3,11,7.1,11.1c-0.2,0.2-0.5,0.2-0.8,0.2c-0.4,0-0.7-0.1-1-0.4C5,10.7,4.9,10.3,4.9,9.9
	 M12.7,13.7c-1,1-2.8,1-3.3,1c-0.5,0-2.4-0.1-3.3-1c0,0-0.1-0.1-0.1-0.1c0,0,0-0.1,0-0.1c0,0,0-0.1,0-0.1c0,0,0-0.1,0.1-0.1
	c0,0,0.1-0.1,0.1-0.1c0,0,0.1,0,0.1,0c0,0,0.1,0,0.1,0s0.1,0,0.1,0.1C7.2,13.7,8.5,14,9.4,14c0.9,0,2.2-0.2,2.8-0.8
	c0,0,0.1-0.1,0.1-0.1c0,0,0.1,0,0.1,0c0,0,0.1,0,0.1,0c0,0,0.1,0,0.1,0.1c0,0,0.1,0.1,0.1,0.1c0,0,0,0.1,0,0.1c0,0,0,0.1,0,0.1
	C12.8,13.6,12.8,13.6,12.7,13.7 M12.5,11.3c-0.3,0-0.6-0.1-0.8-0.2c-0.2-0.2-0.4-0.4-0.5-0.6c-0.1-0.3-0.1-0.5-0.1-0.8
	c0.1-0.3,0.2-0.5,0.4-0.7c0.2-0.2,0.4-0.3,0.7-0.4c0.3-0.1,0.6,0,0.8,0.1c0.3,0.1,0.5,0.3,0.6,0.5c0.2,0.2,0.2,0.5,0.2,0.8
	c0,0.4-0.1,0.7-0.4,1C13.2,11.2,12.8,11.3,12.5,11.3"/>
</svg>
