<?xml version="1.0" encoding="utf-8"?>
<!-- Generator: Adobe Illustrator 27.8.0, SVG Export Plug-In . SVG Version: 6.00 Build 0)  -->
<svg version="1.1" id="Layer_1" xmlns="http://www.w3.org/2000/svg" xmlns:xlink="http://www.w3.org/1999/xlink" x="0px" y="0px"
	 viewBox="0 0 102 102" style="enable-background:new 0 0 102 102;" xml:space="preserve">
<style type="text/css">
	.st0{fill:none;stroke:#FFFFFF;stroke-width:4.0797;stroke-linecap:round;stroke-linejoin:round;}
</style>
<path class="st0" d="M79.8,59.6V49.6c0-7.2-5.8-13-13-13l0,0h-5.8c-2.4,0-4.3-1.9-4.3-4.3l0,0v-5.8c0-7.2-5.8-13-13-13h-7.2
	 M45.2,13.5H26.5c-2.4,0-4.3,1.9-4.3,4.3v66.3c0,2.4,1.9,4.3,4.3,4.3h49c2.4,0,4.3-1.9,4.3-4.3v-36C79.8,29,64.3,13.5,45.2,13.5z"/>
</svg>
