<svg width="185" height="49" viewBox="0 0 185 49" fill="none" xmlns="http://www.w3.org/2000/svg">
    <mask id="mask0_4591_84656" style="mask-type:alpha" maskUnits="userSpaceOnUse" x="4" y="6" width="35" height="36">
        <path d="M38.9664 16.4423C38.9643 16.0929 38.9603 15.7435 38.9508 15.3943C38.9302 14.6331 38.8853 13.8653 38.75 13.1126C38.6127 12.349 38.3885 11.6384 38.0351 10.9446C37.6878 10.2627 37.2341 9.63869 36.6927 9.09771C36.1515 8.55673 35.5273 8.10331 34.8452 7.75618C34.1507 7.40278 33.4392 7.17865 32.6748 7.04141C31.922 6.90624 31.1541 6.86142 30.3929 6.84086C30.0434 6.8314 29.6939 6.82742 29.3443 6.82525C28.9293 6.82271 28.5143 6.82292 28.0993 6.82292L23.2807 6.80566H19.6767L14.9433 6.82292C14.5275 6.82292 14.1117 6.82271 13.6959 6.82525C13.3456 6.82742 12.9955 6.8314 12.6453 6.84086C11.8823 6.86142 11.1126 6.90628 10.358 7.04162C9.59259 7.17882 8.88011 7.40286 8.18467 7.75601C7.50106 8.10318 6.87554 8.55665 6.33316 9.09771C5.79087 9.63864 5.33631 10.2625 4.98834 10.9443C4.63404 11.6384 4.40941 12.3495 4.27178 13.1135C4.13627 13.8659 4.09137 14.6334 4.07072 15.3943C4.06131 15.7436 4.05724 16.0929 4.05512 16.4423C4.05258 16.8571 4.03125 17.3724 4.03125 17.7872V22.455V26.0975L4.05279 30.8645C4.05279 31.2798 4.05262 31.6952 4.05512 32.1105C4.05724 32.4604 4.06131 32.8102 4.07077 33.16C4.09137 33.9222 4.13636 34.691 4.27199 35.4447C4.40958 36.2093 4.63417 36.921 4.98817 37.6157C5.33618 38.2986 5.79083 38.9234 6.33316 39.4651C6.8755 40.0069 7.50085 40.4609 8.18433 40.8085C8.88019 41.1624 9.59301 41.3868 10.3589 41.5242C11.1132 41.6596 11.8826 41.7045 12.6453 41.7251C12.9955 41.7345 13.3456 41.7385 13.6959 41.7407C14.1117 41.7432 14.5275 41.7432 14.9433 41.7432H19.7195H23.3324H28.0993C28.5143 41.7432 28.9293 41.7432 29.3443 41.7407C29.6939 41.7385 30.0434 41.7345 30.3929 41.7251C31.1544 41.7045 31.9226 41.6595 32.6757 41.524C33.4397 41.3866 34.1508 41.1623 34.8449 40.8086C35.5272 40.461 36.1515 40.0069 36.6927 39.4651C37.234 38.9235 37.6877 38.2987 38.035 37.616C38.3885 36.921 38.6128 36.2089 38.7501 35.4438C38.8854 34.6904 38.9302 33.9219 38.9508 33.16C38.9603 32.8102 38.9643 32.4604 38.9664 32.1105C38.9688 31.6952 38.9688 31.2798 38.9688 30.8645C38.9688 30.8645 38.9688 26.1817 38.9688 26.0975V22.4512C38.9688 22.389 38.9688 17.6866 38.9688 17.6866C38.9688 17.2719 38.9688 16.8571 38.9664 16.4423Z" fill="#8E8E93"/>
    </mask>
    <g mask="url(#mask0_4591_84656)">
        <g filter="url(#filter0_i_4591_84656)">
            <path d="M38.9664 16.4423C38.9643 16.0929 38.9603 15.7435 38.9508 15.3943C38.9302 14.6331 38.8853 13.8653 38.75 13.1126C38.6127 12.349 38.3885 11.6384 38.0351 10.9446C37.6878 10.2627 37.2341 9.63869 36.6927 9.09771C36.1515 8.55673 35.5273 8.10331 34.8452 7.75618C34.1507 7.40278 33.4392 7.17865 32.6748 7.04141C31.922 6.90624 31.1541 6.86142 30.3929 6.84086C30.0434 6.8314 29.6939 6.82742 29.3443 6.82525C28.9293 6.82271 28.5143 6.82292 28.0993 6.82292L23.2807 6.80566H19.6767L14.9433 6.82292C14.5275 6.82292 14.1117 6.82271 13.6959 6.82525C13.3456 6.82742 12.9955 6.8314 12.6453 6.84086C11.8823 6.86142 11.1126 6.90628 10.358 7.04162C9.59259 7.17882 8.88011 7.40286 8.18467 7.75601C7.50106 8.10318 6.87554 8.55665 6.33316 9.09771C5.79087 9.63864 5.33631 10.2625 4.98834 10.9443C4.63404 11.6384 4.40941 12.3495 4.27178 13.1135C4.13627 13.8659 4.09137 14.6334 4.07072 15.3943C4.06131 15.7436 4.05724 16.0929 4.05512 16.4423C4.05258 16.8571 4.03125 17.3724 4.03125 17.7872V22.455V26.0975L4.05279 30.8645C4.05279 31.2798 4.05262 31.6952 4.05512 32.1105C4.05724 32.4604 4.06131 32.8102 4.07077 33.16C4.09137 33.9222 4.13636 34.691 4.27199 35.4447C4.40958 36.2093 4.63417 36.921 4.98817 37.6157C5.33618 38.2986 5.79083 38.9234 6.33316 39.4651C6.8755 40.0069 7.50085 40.4609 8.18433 40.8085C8.88019 41.1624 9.59301 41.3868 10.3589 41.5242C11.1132 41.6596 11.8826 41.7045 12.6453 41.7251C12.9955 41.7345 13.3456 41.7385 13.6959 41.7407C14.1117 41.7432 14.5275 41.7432 14.9433 41.7432H19.7195H23.3324H28.0993C28.5143 41.7432 28.9293 41.7432 29.3443 41.7407C29.6939 41.7385 30.0434 41.7345 30.3929 41.7251C31.1544 41.7045 31.9226 41.6595 32.6757 41.524C33.4397 41.3866 34.1508 41.1623 34.8449 40.8086C35.5272 40.461 36.1515 40.0069 36.6927 39.4651C37.234 38.9235 37.6877 38.2987 38.035 37.616C38.3885 36.921 38.6128 36.2089 38.7501 35.4438C38.8854 34.6904 38.9302 33.9219 38.9508 33.16C38.9603 32.8102 38.9643 32.4604 38.9664 32.1105C38.9688 31.6952 38.9688 31.2798 38.9688 30.8645C38.9688 30.8645 38.9688 26.1817 38.9688 26.0975V22.4512C38.9688 22.389 38.9688 17.6866 38.9688 17.6866C38.9688 17.2719 38.9688 16.8571 38.9664 16.4423Z" fill="url(#paint0_linear_4591_84656)"/>
        </g>
        <g style="mix-blend-mode:hard-light">
            <path fill-rule="evenodd" clip-rule="evenodd" d="M14.4536 30.1456C14.9281 30.2541 15.3411 30.4981 15.6927 30.8775L13.9299 33.9223C13.5584 34.564 12.7373 34.7835 12.0952 34.4127L12.0938 34.4119C11.451 34.0408 11.2308 33.219 11.6019 32.5763L12.9457 30.2489C13.4764 30.0714 13.979 30.037 14.4536 30.1456ZM23.8395 19.4844L27.9624 26.6258L32.25 26.6259C32.9921 26.6259 33.5938 27.2275 33.5938 27.9697C33.5938 28.7118 32.9921 29.3134 32.25 29.3134L29.5141 29.3133L31.3981 32.5763C31.7572 33.1983 31.5625 33.988 30.9671 34.3746L30.9062 34.4119C30.2635 34.783 29.4417 34.5628 29.0707 33.9201L22.8558 23.1556C22.1137 21.8702 22.5541 20.2266 23.8395 19.4844ZM24.1875 13.4649C24.8302 13.836 25.0504 14.6578 24.6793 15.3005L18.1406 26.6258L22.8498 26.6259C23.8702 26.6259 24.6974 27.4531 24.6974 28.4735C24.6974 28.733 24.6427 28.9893 24.5373 29.2257L24.4954 29.3134H10.75C10.0079 29.3134 9.40625 28.7118 9.40625 27.9697C9.40625 27.2275 10.0079 26.6259 10.75 26.6259L15.0369 26.6258L19.948 18.1195L18.3207 15.3005C17.9616 14.6785 18.1562 13.8888 18.7516 13.5022L18.8125 13.4649C19.4552 13.0939 20.277 13.3141 20.6481 13.9568L21.5 15.432L22.3519 13.9568C22.723 13.3141 23.5448 13.0939 24.1875 13.4649Z" fill="url(#paint1_linear_4591_84656)"/>
        </g>
    </g>
    <path d="M56.2369 19.2744H53.9073L59.1417 4.72896H61.6772L66.9116 19.2744H64.582L60.4698 7.371H60.3562L56.2369 19.2744ZM56.6275 13.5784H64.1843V15.425H56.6275V13.5784ZM68.8416 23.3653V8.36532H70.9155V10.1338H71.093C71.2161 9.90652 71.3937 9.64373 71.6257 9.34544C71.8577 9.04714 72.1797 8.78672 72.5916 8.56419C73.0036 8.33691 73.5481 8.22328 74.2251 8.22328C75.1058 8.22328 75.8918 8.44582 76.5831 8.89089C77.2744 9.33597 77.8165 9.97754 78.2095 10.8156C78.6072 11.6537 78.8061 12.6622 78.8061 13.8412C78.8061 15.0202 78.6096 16.031 78.2166 16.8738C77.8236 17.7119 77.2839 18.3582 76.5973 18.8128C75.9107 19.2626 75.1271 19.4875 74.2464 19.4875C73.5836 19.4875 73.0414 19.3762 72.62 19.1537C72.2034 18.9311 71.8767 18.6707 71.6399 18.3724C71.4032 18.0741 71.2209 17.809 71.093 17.577H70.9652V23.3653H68.8416ZM70.9226 13.8199C70.9226 14.5869 71.0339 15.2593 71.2564 15.8369C71.4789 16.4146 71.8009 16.8667 72.2223 17.1934C72.6437 17.5154 73.1598 17.6764 73.7706 17.6764C74.4051 17.6764 74.9354 17.5083 75.3615 17.1721C75.7876 16.8312 76.1096 16.3696 76.3274 15.7872C76.55 15.2048 76.6612 14.549 76.6612 13.8199C76.6612 13.1002 76.5523 12.4539 76.3345 11.8809C76.1214 11.308 75.7995 10.8559 75.3686 10.5244C74.9425 10.193 74.4098 10.0273 73.7706 10.0273C73.1551 10.0273 72.6342 10.1859 72.2081 10.5031C71.7867 10.8203 71.4671 11.2631 71.2493 11.8312C71.0315 12.3994 70.9226 13.0623 70.9226 13.8199ZM81.1854 23.3653V8.36532H83.2592V10.1338H83.4368C83.5599 9.90652 83.7375 9.64373 83.9695 9.34544C84.2015 9.04714 84.5234 8.78672 84.9354 8.56419C85.3473 8.33691 85.8918 8.22328 86.5689 8.22328C87.4496 8.22328 88.2356 8.44582 88.9268 8.89089C89.6181 9.33597 90.1603 9.97754 90.5533 10.8156C90.951 11.6537 91.1499 12.6622 91.1499 13.8412C91.1499 15.0202 90.9534 16.031 90.5604 16.8738C90.1674 17.7119 89.6276 18.3582 88.9411 18.8128C88.2545 19.2626 87.4709 19.4875 86.5902 19.4875C85.9273 19.4875 85.3852 19.3762 84.9638 19.1537C84.5471 18.9311 84.2204 18.6707 83.9837 18.3724C83.7469 18.0741 83.5646 17.809 83.4368 17.577H83.3089V23.3653H81.1854ZM83.2663 13.8199C83.2663 14.5869 83.3776 15.2593 83.6001 15.8369C83.8227 16.4146 84.1446 16.8667 84.5661 17.1934C84.9875 17.5154 85.5036 17.6764 86.1143 17.6764C86.7488 17.6764 87.2791 17.5083 87.7053 17.1721C88.1314 16.8312 88.4534 16.3696 88.6712 15.7872C88.8937 15.2048 89.005 14.549 89.005 13.8199C89.005 13.1002 88.8961 12.4539 88.6783 11.8809C88.4652 11.308 88.1432 10.8559 87.7124 10.5244C87.2862 10.193 86.7536 10.0273 86.1143 10.0273C85.4988 10.0273 84.978 10.1859 84.5518 10.5031C84.1304 10.8203 83.8108 11.2631 83.593 11.8312C83.3752 12.3994 83.2663 13.0623 83.2663 13.8199ZM104.014 8.36532V10.0699H97.8491V8.36532H104.014ZM99.5394 19.2744V7.10112C99.5394 6.4193 99.6886 5.85349 99.9869 5.40368C100.285 4.94913 100.681 4.61059 101.173 4.38805C101.665 4.16078 102.2 4.04714 102.778 4.04714C103.204 4.04714 103.569 4.08265 103.872 4.15368C104.175 4.21996 104.4 4.28152 104.547 4.33833L104.049 6.05708C103.95 6.02867 103.822 5.99553 103.666 5.95765C103.51 5.91504 103.32 5.89373 103.098 5.89373C102.582 5.89373 102.212 6.02157 101.99 6.27725C101.772 6.53294 101.663 6.90225 101.663 7.38521V19.2744H99.5394ZM110.37 19.4946C109.348 19.4946 108.455 19.2602 107.693 18.7915C106.931 18.3227 106.339 17.6669 105.917 16.8241C105.496 15.9813 105.285 14.9965 105.285 13.8696C105.285 12.738 105.496 11.7484 105.917 10.9008C106.339 10.0533 106.931 9.39515 107.693 8.9264C108.455 8.45765 109.348 8.22328 110.37 8.22328C111.393 8.22328 112.286 8.45765 113.048 8.9264C113.81 9.39515 114.402 10.0533 114.824 10.9008C115.245 11.7484 115.456 12.738 115.456 13.8696C115.456 14.9965 115.245 15.9813 114.824 16.8241C114.402 17.6669 113.81 18.3227 113.048 18.7915C112.286 19.2602 111.393 19.4946 110.37 19.4946ZM110.377 17.7119C111.04 17.7119 111.59 17.5367 112.025 17.1863C112.461 16.836 112.783 16.3696 112.991 15.7872C113.204 15.2048 113.311 14.5632 113.311 13.8625C113.311 13.1665 113.204 12.5273 112.991 11.9449C112.783 11.3577 112.461 10.8866 112.025 10.5315C111.59 10.1764 111.04 9.99885 110.377 9.99885C109.71 9.99885 109.156 10.1764 108.716 10.5315C108.28 10.8866 107.956 11.3577 107.743 11.9449C107.534 12.5273 107.43 13.1665 107.43 13.8625C107.43 14.5632 107.534 15.2048 107.743 15.7872C107.956 16.3696 108.28 16.836 108.716 17.1863C109.156 17.5367 109.71 17.7119 110.377 17.7119ZM117.826 19.2744V8.36532H119.879V10.0983H119.992C120.191 9.51116 120.541 9.04951 121.043 8.71333C121.55 8.37242 122.123 8.20197 122.762 8.20197C122.895 8.20197 123.051 8.20671 123.231 8.21618C123.415 8.22564 123.56 8.23748 123.664 8.25169V10.2829C123.579 10.2593 123.427 10.2332 123.21 10.2048C122.992 10.1717 122.774 10.1551 122.556 10.1551C122.054 10.1551 121.607 10.2616 121.214 10.4747C120.826 10.683 120.518 10.9742 120.29 11.3483C120.063 11.7176 119.95 12.139 119.95 12.6125V19.2744H117.826ZM130.795 19.2744V8.36532H132.918V19.2744H130.795ZM131.867 6.68208C131.498 6.68208 131.181 6.55898 130.915 6.31277C130.655 6.06182 130.525 5.76352 130.525 5.41788C130.525 5.0675 130.655 4.76921 130.915 4.52299C131.181 4.27205 131.498 4.14657 131.867 4.14657C132.237 4.14657 132.551 4.27205 132.812 4.52299C133.077 4.76921 133.21 5.0675 133.21 5.41788C133.21 5.76352 133.077 6.06182 132.812 6.31277C132.551 6.55898 132.237 6.68208 131.867 6.68208ZM148.581 12.0017C148.581 13.5547 148.297 14.8899 147.728 16.0074C147.16 17.1201 146.381 17.9771 145.392 18.5784C144.407 19.175 143.287 19.4733 142.032 19.4733C140.773 19.4733 139.648 19.175 138.659 18.5784C137.674 17.9771 136.897 17.1177 136.329 16.0003C135.761 14.8828 135.477 13.55 135.477 12.0017C135.477 10.4487 135.761 9.1158 136.329 8.00311C136.897 6.88568 137.674 6.02867 138.659 5.43208C139.648 4.83076 140.773 4.5301 142.032 4.5301C143.287 4.5301 144.407 4.83076 145.392 5.43208C146.381 6.02867 147.16 6.88568 147.728 8.00311C148.297 9.1158 148.581 10.4487 148.581 12.0017ZM146.407 12.0017C146.407 10.818 146.216 9.82129 145.832 9.01163C145.453 8.19724 144.932 7.58171 144.27 7.16504C143.611 6.74364 142.866 6.53294 142.032 6.53294C141.194 6.53294 140.446 6.74364 139.788 7.16504C139.13 7.58171 138.609 8.19724 138.225 9.01163C137.847 9.82129 137.657 10.818 137.657 12.0017C137.657 13.1854 137.847 14.1845 138.225 14.9988C138.609 15.8085 139.13 16.424 139.788 16.8454C140.446 17.2621 141.194 17.4704 142.032 17.4704C142.866 17.4704 143.611 17.2621 144.27 16.8454C144.932 16.424 145.453 15.8085 145.832 14.9988C146.216 14.1845 146.407 13.1854 146.407 12.0017ZM159.25 8.54998C159.174 7.87763 158.862 7.3568 158.312 6.98748C157.763 6.61343 157.072 6.4264 156.239 6.4264C155.642 6.4264 155.126 6.5211 154.69 6.71049C154.255 6.89515 153.916 7.15083 153.675 7.47754C153.438 7.79951 153.32 8.16646 153.32 8.57839C153.32 8.92403 153.4 9.22233 153.561 9.47328C153.727 9.72422 153.942 9.93493 154.207 10.1054C154.477 10.2711 154.766 10.4108 155.074 10.5244C155.382 10.6333 155.678 10.7233 155.962 10.7943L157.382 11.1636C157.846 11.2773 158.322 11.4311 158.81 11.6253C159.297 11.8194 159.75 12.0751 160.166 12.3923C160.583 12.7095 160.919 13.1025 161.175 13.5713C161.435 14.04 161.565 14.6011 161.565 15.2545C161.565 16.0784 161.352 16.8099 160.926 17.4491C160.505 18.0883 159.892 18.5926 159.087 18.9619C158.286 19.3312 157.318 19.5159 156.182 19.5159C155.093 19.5159 154.151 19.3431 153.355 18.9974C152.56 18.6518 151.937 18.1617 151.487 17.5273C151.037 16.8881 150.789 16.1305 150.741 15.2545H152.943C152.986 15.7801 153.156 16.2181 153.455 16.5684C153.758 16.9141 154.143 17.1721 154.612 17.3426C155.086 17.5083 155.604 17.5912 156.168 17.5912C156.788 17.5912 157.339 17.4941 157.822 17.3C158.31 17.1011 158.694 16.8265 158.973 16.4761C159.252 16.121 159.392 15.7067 159.392 15.2332C159.392 14.8023 159.269 14.4496 159.023 14.175C158.781 13.9004 158.452 13.6731 158.036 13.4932C157.624 13.3132 157.157 13.1546 156.636 13.0173L154.918 12.5486C153.753 12.2313 152.83 11.7649 152.148 11.1494C151.471 10.5339 151.132 9.71949 151.132 8.70623C151.132 7.86816 151.359 7.13663 151.814 6.51163C152.268 5.88663 152.884 5.40131 153.661 5.05566C154.437 4.70528 155.313 4.5301 156.288 4.5301C157.273 4.5301 158.142 4.70292 158.895 5.04856C159.652 5.39421 160.249 5.87006 160.685 6.47612C161.12 7.07744 161.348 7.76873 161.366 8.54998H159.25Z" fill="white"/>
    <path d="M57.968 42.4562C57.1499 42.4562 56.4453 42.2631 55.8544 41.8767C55.2635 41.4903 54.8089 40.9581 54.4908 40.2801C54.1726 39.6021 54.0135 38.8274 54.0135 37.9562C54.0135 37.0699 54.1764 36.2877 54.5021 35.6096C54.8317 34.9278 55.29 34.3956 55.8771 34.0131C56.468 33.6267 57.1574 33.4335 57.9453 33.4335C58.5589 33.4335 59.112 33.5471 59.6044 33.7744C60.0968 34.0017 60.5002 34.3199 60.8146 34.729C61.129 35.1381 61.3241 35.6153 61.3999 36.1608H60.0589C59.9567 35.7631 59.7294 35.4108 59.3771 35.104C59.0286 34.7934 58.5589 34.6381 57.968 34.6381C57.4453 34.6381 56.987 34.7744 56.593 35.0471C56.2029 35.3161 55.898 35.6968 55.6783 36.1892C55.4624 36.6778 55.3544 37.2517 55.3544 37.9108C55.3544 38.585 55.4605 39.1721 55.6726 39.6721C55.8885 40.1721 56.1915 40.5604 56.5817 40.8369C56.9756 41.1134 57.4377 41.2517 57.968 41.2517C58.3165 41.2517 58.6328 41.1911 58.9169 41.0699C59.201 40.9487 59.4415 40.7744 59.6385 40.5471C59.8355 40.3199 59.9756 40.0471 60.0589 39.729H61.3999C61.3241 40.2441 61.1366 40.7081 60.8374 41.121C60.5419 41.5301 60.1499 41.8559 59.6612 42.0983C59.1764 42.3369 58.612 42.4562 57.968 42.4562ZM66.9055 42.4562C66.1177 42.4562 65.4264 42.2687 64.8317 41.8937C64.2408 41.5187 63.7786 40.9941 63.4453 40.3199C63.1158 39.6456 62.951 38.8577 62.951 37.9562C62.951 37.0471 63.1158 36.2536 63.4453 35.5756C63.7786 34.8975 64.2408 34.371 64.8317 33.996C65.4264 33.621 66.1177 33.4335 66.9055 33.4335C67.6934 33.4335 68.3828 33.621 68.9737 33.996C69.5684 34.371 70.0305 34.8975 70.3601 35.5756C70.6934 36.2536 70.8601 37.0471 70.8601 37.9562C70.8601 38.8577 70.6934 39.6456 70.3601 40.3199C70.0305 40.9941 69.5684 41.5187 68.9737 41.8937C68.3828 42.2687 67.6934 42.4562 66.9055 42.4562ZM66.9055 41.2517C67.504 41.2517 67.9964 41.0983 68.3828 40.7915C68.7692 40.4846 69.0552 40.0812 69.2408 39.5812C69.4264 39.0812 69.5192 38.5396 69.5192 37.9562C69.5192 37.3729 69.4264 36.8293 69.2408 36.3256C69.0552 35.8218 68.7692 35.4146 68.3828 35.104C67.9964 34.7934 67.504 34.6381 66.9055 34.6381C66.3071 34.6381 65.8146 34.7934 65.4283 35.104C65.0419 35.4146 64.7559 35.8218 64.5703 36.3256C64.3847 36.8293 64.2919 37.3729 64.2919 37.9562C64.2919 38.5396 64.3847 39.0812 64.5703 39.5812C64.7559 40.0812 65.0419 40.4846 65.4283 40.7915C65.8146 41.0983 66.3071 41.2517 66.9055 41.2517ZM72.907 42.2744V33.5471H74.2024V34.9108H74.3161C74.4979 34.4449 74.7914 34.0831 75.1967 33.8256C75.602 33.5642 76.0888 33.4335 76.657 33.4335C77.2327 33.4335 77.7119 33.5642 78.0945 33.8256C78.4808 34.0831 78.782 34.4449 78.9979 34.9108H79.0888C79.3123 34.46 79.6475 34.1021 80.0945 33.8369C80.5414 33.568 81.0774 33.4335 81.7024 33.4335C82.4827 33.4335 83.121 33.6778 83.6172 34.1665C84.1134 34.6513 84.3615 35.407 84.3615 36.4335V42.2744H83.0206V36.4335C83.0206 35.7896 82.8445 35.3293 82.4922 35.0528C82.1399 34.7763 81.7251 34.6381 81.2479 34.6381C80.6342 34.6381 80.1589 34.8237 79.8217 35.1949C79.4846 35.5623 79.3161 36.0282 79.3161 36.5926V42.2744H77.9524V36.2971C77.9524 35.8009 77.7914 35.4013 77.4695 35.0983C77.1475 34.7915 76.7327 34.6381 76.2251 34.6381C75.8767 34.6381 75.5509 34.7309 75.2479 34.9165C74.9486 35.1021 74.7062 35.3596 74.5206 35.6892C74.3388 36.0149 74.2479 36.3918 74.2479 36.8199V42.2744H72.907ZM86.8132 42.2744V33.5471H88.1541V42.2744H86.8132ZM87.495 32.0926C87.2337 32.0926 87.0083 32.0036 86.8189 31.8256C86.6333 31.6475 86.5405 31.4335 86.5405 31.1835C86.5405 30.9335 86.6333 30.7195 86.8189 30.5415C87.0083 30.3634 87.2337 30.2744 87.495 30.2744C87.7564 30.2744 87.9799 30.3634 88.1655 30.5415C88.3549 30.7195 88.4496 30.9335 88.4496 31.1835C88.4496 31.4335 88.3549 31.6475 88.1655 31.8256C87.9799 32.0036 87.7564 32.0926 87.495 32.0926ZM91.951 37.0244V42.2744H90.6101V33.5471H91.9055V34.9108H92.0192C92.2237 34.4676 92.5343 34.1115 92.951 33.8426C93.3677 33.5699 93.9055 33.4335 94.5646 33.4335C95.1555 33.4335 95.6726 33.5547 96.1158 33.7971C96.5589 34.0358 96.9036 34.3994 97.1499 34.8881C97.3961 35.3729 97.5192 35.9865 97.5192 36.729V42.2744H96.1783V36.8199C96.1783 36.1343 96.0002 35.6002 95.6442 35.2176C95.2881 34.8312 94.7995 34.6381 94.1783 34.6381C93.7502 34.6381 93.3677 34.7309 93.0305 34.9165C92.6972 35.1021 92.4339 35.3729 92.2408 35.729C92.0476 36.085 91.951 36.5168 91.951 37.0244ZM103.492 45.729C102.844 45.729 102.288 45.6456 101.822 45.479C101.356 45.3161 100.968 45.1002 100.657 44.8312C100.35 44.5661 100.106 44.282 99.924 43.979L100.992 43.229C101.113 43.3881 101.267 43.5699 101.452 43.7744C101.638 43.9827 101.892 44.1627 102.214 44.3142C102.54 44.4695 102.966 44.5471 103.492 44.5471C104.197 44.5471 104.778 44.3767 105.237 44.0358C105.695 43.6949 105.924 43.1608 105.924 42.4335V40.6608H105.81C105.712 40.8199 105.572 41.0168 105.39 41.2517C105.212 41.4827 104.954 41.6892 104.617 41.871C104.284 42.049 103.833 42.1381 103.265 42.1381C102.56 42.1381 101.928 41.9714 101.367 41.6381C100.81 41.3047 100.369 40.8199 100.043 40.1835C99.7214 39.5471 99.5604 38.7744 99.5604 37.8653C99.5604 36.9714 99.7176 36.193 100.032 35.5301C100.346 34.8634 100.784 34.3483 101.344 33.9846C101.905 33.6172 102.553 33.4335 103.288 33.4335C103.856 33.4335 104.307 33.5282 104.64 33.7176C104.977 33.9032 105.235 34.1153 105.413 34.354C105.594 34.5888 105.735 34.782 105.833 34.9335H105.969V33.5471H107.265V42.5244C107.265 43.2744 107.094 43.8843 106.754 44.354C106.416 44.8274 105.962 45.174 105.39 45.3937C104.822 45.6172 104.189 45.729 103.492 45.729ZM103.447 40.9335C103.985 40.9335 104.439 40.8104 104.81 40.5642C105.182 40.318 105.464 39.9638 105.657 39.5017C105.85 39.0396 105.947 38.4865 105.947 37.8426C105.947 37.2138 105.852 36.6589 105.663 36.1778C105.473 35.6968 105.193 35.3199 104.822 35.0471C104.451 34.7744 103.992 34.6381 103.447 34.6381C102.879 34.6381 102.405 34.782 102.026 35.0699C101.651 35.3577 101.369 35.7441 101.18 36.229C100.994 36.7138 100.901 37.2517 100.901 37.8426C100.901 38.4487 100.996 38.9846 101.185 39.4506C101.379 39.9127 101.663 40.2763 102.038 40.5415C102.416 40.8028 102.886 40.9335 103.447 40.9335ZM120.401 35.5017L119.197 35.8426C119.121 35.6418 119.009 35.4468 118.862 35.2574C118.718 35.0642 118.521 34.9051 118.271 34.7801C118.021 34.6551 117.701 34.5926 117.31 34.5926C116.776 34.5926 116.331 34.7157 115.975 34.9619C115.623 35.2043 115.447 35.5131 115.447 35.8881C115.447 36.2214 115.568 36.4846 115.81 36.6778C116.053 36.871 116.432 37.032 116.947 37.1608L118.242 37.479C119.022 37.6684 119.604 37.9581 119.987 38.3483C120.369 38.7346 120.56 39.2327 120.56 39.8426C120.56 40.3426 120.416 40.7896 120.129 41.1835C119.844 41.5774 119.447 41.8881 118.935 42.1153C118.424 42.3426 117.829 42.4562 117.151 42.4562C116.261 42.4562 115.524 42.2631 114.941 41.8767C114.358 41.4903 113.988 40.9259 113.833 40.1835L115.106 39.8653C115.227 40.335 115.456 40.6873 115.793 40.9221C116.134 41.157 116.579 41.2744 117.129 41.2744C117.754 41.2744 118.25 41.1418 118.617 40.8767C118.988 40.6077 119.174 40.2858 119.174 39.9108C119.174 39.6077 119.068 39.354 118.856 39.1494C118.644 38.9411 118.318 38.7858 117.879 38.6835L116.424 38.3426C115.625 38.1532 115.038 37.8596 114.663 37.4619C114.291 37.0604 114.106 36.5585 114.106 35.9562C114.106 35.4638 114.244 35.0282 114.521 34.6494C114.801 34.2706 115.182 33.9733 115.663 33.7574C116.147 33.5415 116.697 33.4335 117.31 33.4335C118.174 33.4335 118.852 33.6229 119.344 34.0017C119.841 34.3805 120.193 34.8805 120.401 35.5017ZM126.124 42.4562C125.336 42.4562 124.645 42.2687 124.05 41.8937C123.46 41.5187 122.997 40.9941 122.664 40.3199C122.335 39.6456 122.17 38.8577 122.17 37.9562C122.17 37.0471 122.335 36.2536 122.664 35.5756C122.997 34.8975 123.46 34.371 124.05 33.996C124.645 33.621 125.336 33.4335 126.124 33.4335C126.912 33.4335 127.602 33.621 128.192 33.996C128.787 34.371 129.249 34.8975 129.579 35.5756C129.912 36.2536 130.079 37.0471 130.079 37.9562C130.079 38.8577 129.912 39.6456 129.579 40.3199C129.249 40.9941 128.787 41.5187 128.192 41.8937C127.602 42.2687 126.912 42.4562 126.124 42.4562ZM126.124 41.2517C126.723 41.2517 127.215 41.0983 127.602 40.7915C127.988 40.4846 128.274 40.0812 128.46 39.5812C128.645 39.0812 128.738 38.5396 128.738 37.9562C128.738 37.3729 128.645 36.8293 128.46 36.3256C128.274 35.8218 127.988 35.4146 127.602 35.104C127.215 34.7934 126.723 34.6381 126.124 34.6381C125.526 34.6381 125.033 34.7934 124.647 35.104C124.261 35.4146 123.975 35.8218 123.789 36.3256C123.603 36.8293 123.511 37.3729 123.511 37.9562C123.511 38.5396 123.603 39.0812 123.789 39.5812C123.975 40.0812 124.261 40.4846 124.647 40.7915C125.033 41.0983 125.526 41.2517 126.124 41.2517ZM135.671 42.4562C134.883 42.4562 134.192 42.2687 133.597 41.8937C133.006 41.5187 132.544 40.9941 132.211 40.3199C131.881 39.6456 131.717 38.8577 131.717 37.9562C131.717 37.0471 131.881 36.2536 132.211 35.5756C132.544 34.8975 133.006 34.371 133.597 33.996C134.192 33.621 134.883 33.4335 135.671 33.4335C136.459 33.4335 137.148 33.621 137.739 33.996C138.334 34.371 138.796 34.8975 139.126 35.5756C139.459 36.2536 139.626 37.0471 139.626 37.9562C139.626 38.8577 139.459 39.6456 139.126 40.3199C138.796 40.9941 138.334 41.5187 137.739 41.8937C137.148 42.2687 136.459 42.4562 135.671 42.4562ZM135.671 41.2517C136.27 41.2517 136.762 41.0983 137.148 40.7915C137.535 40.4846 137.821 40.0812 138.006 39.5812C138.192 39.0812 138.285 38.5396 138.285 37.9562C138.285 37.3729 138.192 36.8293 138.006 36.3256C137.821 35.8218 137.535 35.4146 137.148 35.104C136.762 34.7934 136.27 34.6381 135.671 34.6381C135.073 34.6381 134.58 34.7934 134.194 35.104C133.808 35.4146 133.522 35.8218 133.336 36.3256C133.15 36.8293 133.058 37.3729 133.058 37.9562C133.058 38.5396 133.15 39.0812 133.336 39.5812C133.522 40.0812 133.808 40.4846 134.194 40.7915C134.58 41.0983 135.073 41.2517 135.671 41.2517ZM143.013 37.0244V42.2744H141.673V33.5471H142.968V34.9108H143.082C143.286 34.4676 143.597 34.1115 144.013 33.8426C144.43 33.5699 144.968 33.4335 145.627 33.4335C146.218 33.4335 146.735 33.5547 147.178 33.7971C147.621 34.0358 147.966 34.3994 148.212 34.8881C148.459 35.3729 148.582 35.9865 148.582 36.729V42.2744H147.241V36.8199C147.241 36.1343 147.063 35.6002 146.707 35.2176C146.351 34.8312 145.862 34.6381 145.241 34.6381C144.813 34.6381 144.43 34.7309 144.093 34.9165C143.76 35.1021 143.496 35.3729 143.303 35.729C143.11 36.085 143.013 36.5168 143.013 37.0244Z" fill="#D6D8DC"/>
    <defs>
        <filter id="filter0_i_4591_84656" x="4.03125" y="6.80566" width="34.9375" height="34.9375" filterUnits="userSpaceOnUse" color-interpolation-filters="sRGB">
            <feFlood flood-opacity="0" result="BackgroundImageFix"/>
            <feBlend mode="normal" in="SourceGraphic" in2="BackgroundImageFix" result="shape"/>
            <feColorMatrix in="SourceAlpha" type="matrix" values="0 0 0 0 0 0 0 0 0 0 0 0 0 0 0 0 0 0 127 0" result="hardAlpha"/>
            <feOffset/>
            <feGaussianBlur stdDeviation="1"/>
            <feComposite in2="hardAlpha" operator="arithmetic" k2="-1" k3="1"/>
            <feColorMatrix type="matrix" values="0 0 0 0 0 0 0 0 0 0 0 0 0 0 0 0 0 0 0.25 0"/>
            <feBlend mode="normal" in2="shape" result="effect1_innerShadow_4591_84656"/>
        </filter>
        <linearGradient id="paint0_linear_4591_84656" x1="21.5" y1="6.80566" x2="21.5" y2="41.7432" gradientUnits="userSpaceOnUse">
            <stop stop-color="#3ED4F9"/>
            <stop offset="1" stop-color="#2E6DEA"/>
        </linearGradient>
        <linearGradient id="paint1_linear_4591_84656" x1="19.7439" y1="14.7052" x2="19.7439" y2="33.1724" gradientUnits="userSpaceOnUse">
            <stop stop-color="white"/>
            <stop offset="1" stop-color="white" stop-opacity="0.8"/>
        </linearGradient>
    </defs>
</svg>
