<svg width="90" height="33" viewBox="0 0 90 33" fill="none" xmlns="http://www.w3.org/2000/svg">
<g clip-path="url(#clip0_44_23)">
<path d="M13.7593 1.26955L15.8567 5.43717C16.8559 7.41812 18.4652 9.02574 20.4483 10.0238L24.6203 12.1191C25.383 12.5 25.383 13.5819 24.6203 13.9629L20.4483 16.0581C18.4652 17.0562 16.8559 18.6638 15.8567 20.6448L13.7593 24.8124C13.3779 25.5743 12.2949 25.5743 11.9135 24.8124L9.81606 20.6448C8.81691 18.6638 7.20759 17.0562 5.22454 16.0581L1.0525 13.9629C0.289791 13.5819 0.289791 12.5 1.0525 12.1191L5.22454 10.0238C7.20759 9.02574 8.81691 7.41812 9.81606 5.43717L11.9135 1.26955C12.2949 0.507644 13.3779 0.507644 13.7593 1.26955Z" fill="url(#paint0_radial_44_23)"/>
<path d="M26.3745 20.4772L27.3813 22.4734C27.8618 23.4257 28.6321 24.1953 29.5855 24.6753L31.5838 25.681C31.9499 25.8638 31.9499 26.3819 31.5838 26.5648L29.5855 27.5705C28.6321 28.0505 27.8618 28.82 27.3813 29.7724L26.3745 31.7686C26.1915 32.1343 25.6728 32.1343 25.4898 31.7686L24.483 29.7724C24.0025 28.82 23.2321 28.0505 22.2787 27.5705L20.2804 26.5648C19.9143 26.3819 19.9143 25.8638 20.2804 25.681L22.2787 24.6753C23.2321 24.1953 24.0025 23.4257 24.483 22.4734L25.4898 20.4772C25.6728 20.1115 26.1915 20.1115 26.3745 20.4772Z" fill="url(#paint1_radial_44_23)"/>
<path d="M35.9922 25.9096V5.70386H43.3066C44.9083 5.70386 46.2812 6.22957 47.4329 7.281C48.5846 8.31719 49.1566 9.62005 49.1566 11.2048C49.1566 13.201 48.2413 14.6029 46.4185 15.4105V15.5248C47.4557 15.86 48.2795 16.4543 48.9049 17.2848C49.5227 18.1229 49.8354 19.0753 49.8354 20.1496C49.8354 21.8029 49.2329 23.182 48.0278 24.2715C46.8608 25.361 45.4193 25.9096 43.7032 25.9096H35.9922ZM38.593 8.18767V14.3667H43.3066C44.2295 14.3667 44.9998 14.0543 45.6252 13.4372C46.243 12.7972 46.5557 12.0734 46.5557 11.2658C46.5557 10.4581 46.2507 9.75719 45.6557 9.12481C45.0532 8.50767 44.3057 8.19529 43.421 8.19529H38.593V8.18767ZM38.593 16.7972V23.4258H43.8176C44.7557 23.4258 45.5566 23.0981 46.2202 22.4353C46.8608 21.78 47.1812 20.9953 47.1812 20.0962C47.1812 19.1972 46.8532 18.4429 46.1896 17.78C45.5337 17.1248 44.7024 16.7896 43.7032 16.7896H38.593V16.7972Z" fill="white"/>
<path d="M57.5769 11.6315C59.499 11.6315 61.0168 12.142 62.1227 13.1706C63.2362 14.1991 63.7854 15.601 63.7854 17.3915V25.9096H61.299V23.9896H61.1846C60.1091 25.5668 58.6829 26.3591 56.8905 26.3591C55.3651 26.3591 54.0913 25.9096 53.0617 25.0029C52.032 24.0963 51.521 22.9687 51.521 21.6201C51.521 20.1877 52.0625 19.0525 53.1456 18.2068C54.2286 17.361 55.6701 16.9344 57.4778 16.9344C59.0185 16.9344 60.2922 17.2163 61.2913 17.7801V17.1858C61.2913 16.2791 60.9329 15.5172 60.2159 14.8849C59.499 14.2525 58.66 13.9401 57.699 13.9401C56.2498 13.9401 55.0981 14.5496 54.2515 15.7763L51.9634 14.3363C53.2218 12.5306 55.0905 11.6239 57.554 11.6239L57.5769 11.6315ZM54.2134 21.6734C54.2134 22.3515 54.5032 22.9153 55.0752 23.3649C55.6473 23.8144 56.3261 24.0429 57.0964 24.0429C58.1871 24.0429 59.1634 23.6391 60.0176 22.8315C60.8718 22.0239 61.3066 21.0715 61.3066 19.982C60.4981 19.342 59.3693 19.022 57.9201 19.022C56.8676 19.022 55.9829 19.2734 55.2812 19.7839C54.5718 20.2944 54.221 20.9191 54.221 21.6734H54.2134Z" fill="white"/>
<path d="M69.3225 25.9096H66.7217V12.081H69.2081V14.3362H69.3225C69.5895 13.6048 70.131 12.9801 70.9471 12.462C71.7632 11.9439 72.5717 11.6848 73.3649 11.6848C74.1581 11.6848 74.7607 11.7991 75.2869 12.0201L74.4937 14.5343C74.1734 14.4048 73.6624 14.3362 72.9683 14.3362C71.992 14.3362 71.1378 14.7324 70.4132 15.5248C69.6886 16.3172 69.3225 17.2391 69.3225 18.2905V25.9096Z" fill="white"/>
<path d="M81.9225 26.3591C80.1149 26.3591 78.559 25.6429 77.2624 24.2181C75.981 22.7705 75.3403 21.0334 75.3403 18.9991C75.3403 16.9648 75.981 15.2277 77.2624 13.78C78.559 12.3477 80.1149 11.6391 81.9225 11.6391C82.9369 11.6391 83.8674 11.8524 84.7064 12.2867C85.5454 12.721 86.1861 13.2924 86.6437 14.0086H86.7581L86.6437 12.0886V5.70386H89.2446V25.9096H86.7581V23.9896H86.6437C86.1937 24.7058 85.5454 25.2772 84.7064 25.7115C83.8674 26.1458 82.9446 26.3591 81.9225 26.3591ZM82.3497 23.9896C83.631 23.9896 84.6759 23.5324 85.4844 22.6105C86.331 21.6886 86.7581 20.4848 86.7581 18.9991C86.7581 17.5134 86.331 16.3553 85.4844 15.4181C84.653 14.481 83.6081 14.0086 82.3497 14.0086C81.0912 14.0086 80.0615 14.481 79.2149 15.4181C78.3683 16.3553 77.9412 17.5515 77.9412 18.9991C77.9412 20.4467 78.3683 21.6581 79.2149 22.58C80.0615 23.5172 81.1064 23.9896 82.3497 23.9896Z" fill="white"/>
</g>
<defs>
<radialGradient id="paint0_radial_44_23" cx="0" cy="0" r="1" gradientUnits="userSpaceOnUse" gradientTransform="translate(18.5567 14.8772) scale(18.7322 18.7124)">
<stop stop-color="#20A0E2"/>
<stop offset="0.11" stop-color="#239EE0"/>
<stop offset="0.21" stop-color="#2E98DB"/>
<stop offset="0.31" stop-color="#418DD3"/>
<stop offset="0.4" stop-color="#5C7FC7"/>
<stop offset="0.5" stop-color="#7E6DB8"/>
<stop offset="0.59" stop-color="#A857A6"/>
<stop offset="0.68" stop-color="#D83D90"/>
<stop offset="0.75" stop-color="#FF2980"/>
<stop offset="1" stop-color="#FFE70D"/>
</radialGradient>
<radialGradient id="paint1_radial_44_23" cx="0" cy="0" r="1" gradientUnits="userSpaceOnUse" gradientTransform="translate(18.0304 14.6791) scale(20.8449 20.8229)">
<stop stop-color="#20A0E2"/>
<stop offset="0.11" stop-color="#239EE0"/>
<stop offset="0.21" stop-color="#2E98DB"/>
<stop offset="0.31" stop-color="#418DD3"/>
<stop offset="0.4" stop-color="#5C7FC7"/>
<stop offset="0.5" stop-color="#7E6DB8"/>
<stop offset="0.59" stop-color="#A857A6"/>
<stop offset="0.68" stop-color="#D83D90"/>
<stop offset="0.75" stop-color="#FF2980"/>
<stop offset="1" stop-color="#FFE70D"/>
</radialGradient>
<clipPath id="clip0_44_23">
<rect width="90" height="32" fill="white" transform="translate(0 0.5)"/>
</clipPath>
</defs>
</svg>
