<svg width="160" height="23" viewBox="0 0 160 23" fill="none" xmlns="http://www.w3.org/2000/svg">
<g clip-path="url(#clip0_46_34)">
<path d="M80.4222 10.2533C79.7556 12.1159 79.1185 13.9199 78.5111 15.7533H78.4593C77.8741 13.9493 77.237 12.0866 76.6 10.2826L73.5185 1.45327H68.9778L76.3333 21.5613H80.5778L87.9111 1.44594H83.5852L80.4222 10.2533ZM117.007 10.8399C115.415 9.84261 113.022 9.36594 111.807 8.86727C110.585 8.36861 110.052 7.86994 110.052 6.89461C110.052 5.61861 111.059 4.98061 112.63 4.98061C114.089 4.98061 116.348 5.53794 118.363 6.84327V2.55327C116.689 1.63661 114.407 1.13794 112.526 1.13794C108.489 1.13794 105.807 3.44061 105.807 7.30527C105.807 9.55661 106.659 11.0013 108.252 11.9693C109.844 12.9446 112.237 13.4433 113.43 13.9419C114.622 14.4406 115.126 14.9686 115.126 15.9439C115.126 17.3299 114.067 18.0266 112.341 18.0266C110.852 18.0266 108.252 17.3886 106.104 15.8339V20.2779C107.933 21.3046 110.43 21.8619 112.422 21.8619C116.593 21.8619 119.378 19.5299 119.378 15.5553C119.378 13.4433 118.607 11.8373 117.015 10.8326L117.007 10.8399ZM101.741 2.89794C100.333 1.81261 98.637 1.45327 96.4296 1.45327H89.5778V21.5613H93.8V14.5873H96.4296C98.6296 14.5873 100.333 14.1986 101.741 13.1133C103.148 12.0279 104.104 10.2826 104.104 8.00194C104.104 5.72127 103.148 3.97594 101.741 2.89061V2.89794ZM98.8741 10.2826C98.2667 10.7299 97.4667 10.8619 96.2741 10.8619H93.8074V5.22261H96.2741C97.4667 5.22261 98.2667 5.36194 98.8741 5.80927C99.4889 6.25661 99.8815 7.08527 99.8815 8.06061C99.8815 9.03594 99.4815 9.83527 98.8741 10.2826Z" fill="#56D858"/>
<path d="M68.2074 9.11657H63.9555L62.837 10.6639C62.3555 11.3386 61.8814 12.0132 61.4 12.7319H61.3481C60.9259 12.0572 60.4444 11.3606 59.9629 10.6859L58.8444 9.11657H54.3259L58.9037 15.0492L53.9851 21.4879H58.2963L59.6518 19.5959C60.1333 18.9212 60.6889 18.1219 61.1111 17.4546H61.1629C61.6148 18.1292 62.1703 18.9286 62.6518 19.5959L64.0074 21.4879H68.6074L63.637 15.0272L68.2148 9.11657H68.2074ZM47.2222 8.84524C43.5259 8.84524 40.3852 11.3166 40.3852 15.3279C40.3852 19.3392 43.4444 21.7666 47.8296 21.7666C49.5852 21.7666 51.5259 21.3706 52.7777 20.6666V17.4766C51.3926 18.2759 49.8222 18.7746 48.3333 18.7746C46.3926 18.7746 44.9037 18.0046 44.5037 16.3032H53.4148C53.4666 15.9806 53.4963 15.4306 53.4963 15.0052C53.4963 10.7886 50.5185 8.84524 47.2222 8.84524ZM44.4814 13.9566C44.7777 12.4826 45.8666 11.7346 47.1703 11.7346C48.474 11.7346 49.5629 12.4312 49.7777 13.9566H44.4814ZM34.6963 10.7886L34.6444 10.7666V9.11657H30.6814V21.4879H34.7259V13.9566C35.6814 12.9079 36.8518 12.5119 38.2666 12.5119C38.637 12.5119 39.037 12.5632 39.3555 12.6366V9.07257C39.0592 8.99924 38.7703 8.9699 38.5037 8.9699C36.8815 8.9699 35.6074 9.59324 34.7037 10.7886H34.6963ZM20.8666 8.84524C16.6889 8.84524 13.5777 11.6612 13.5777 15.3059C13.5777 18.9506 16.6889 21.7666 20.8666 21.7666C25.0444 21.7666 28.1555 18.9506 28.1555 15.3059C28.1555 11.6612 25.0444 8.84524 20.8666 8.84524ZM20.8666 18.4959C19.0296 18.4959 17.6222 17.0732 17.6222 15.3059C17.6222 13.5386 19.0296 12.1159 20.8666 12.1159C22.7037 12.1159 24.1111 13.5386 24.1111 15.3059C24.1111 17.0732 22.7037 18.4959 20.8666 18.4959ZM0.459229 21.4879H4.68886V14.1326H11.6V10.7886H4.68886V6.89457H12.6666V3.4259H0.459229V21.4806V21.4879ZM159.533 13.8172V11.2872H156.704V8.09724L153.467 8.8379V11.2872H151.711V13.8172H153.467V17.6526C153.467 20.1239 154.689 21.4659 157.215 21.4659C158.111 21.4659 158.993 21.2826 159.526 21.0406V18.6279C159.141 18.7672 158.63 18.9066 158.133 18.9066C157.17 18.9066 156.696 18.3639 156.696 17.3226V13.8099H159.526L159.533 13.8172ZM145.681 11.0672C142.704 11.0672 140.178 13.0546 140.178 16.2886C140.178 19.5226 142.644 21.4732 146.178 21.4732C147.593 21.4732 149.156 21.1506 150.163 20.5859V18.0119C149.052 18.6572 147.785 19.0532 146.585 19.0532C145.022 19.0532 143.822 18.4299 143.504 17.0659H150.681C150.726 16.8019 150.748 16.3619 150.748 16.0246C150.748 12.6292 148.348 11.0599 145.696 11.0599L145.681 11.0672ZM143.474 15.1886C143.711 14.0006 144.585 13.3992 145.637 13.3992C146.689 13.3992 147.563 13.9639 147.733 15.1886H143.474ZM134.481 11.0672C133.178 11.0672 132.059 11.5072 131.244 12.1306L131.2 12.1086V11.2872H127.985V21.2459H131.244V14.4332C131.756 14.0079 132.533 13.6926 133.304 13.6926C133.815 13.6926 134.222 13.8172 134.526 14.0959C134.83 14.3746 134.933 14.8219 134.933 15.4012V21.2459H138.185V14.9759C138.185 13.6486 137.926 12.7686 137.267 12.0866C136.6 11.4046 135.659 11.0599 134.481 11.0599V11.0672ZM123.37 17.8579C122.318 17.8579 121.444 18.6426 121.444 19.6619C121.444 20.6812 122.326 21.4732 123.37 21.4732C124.415 21.4732 125.296 20.6886 125.296 19.6619C125.296 18.6352 124.415 17.8579 123.37 17.8579Z" fill="#E8E8E8"/>
</g>
<defs>
<clipPath id="clip0_46_34">
<rect width="160" height="22" fill="white" transform="translate(0 0.5)"/>
</clipPath>
</defs>
</svg>
