<svg width="142" height="41" viewBox="0 0 142 41" fill="none" xmlns="http://www.w3.org/2000/svg">
<g clip-path="url(#clip0_35_108)">
<path d="M59.8846 27.9904L59.427 21.2412C59.3718 20.437 59.3402 19.8062 59.3402 19.1281C59.1982 19.8535 59.0957 20.3108 58.8827 21.0756L56.9499 27.9904H54.8593L53.1159 21.3516C52.9581 20.7366 52.7451 19.8377 52.6268 19.1124C52.6268 19.8614 52.5952 20.6025 52.54 21.3831L52.114 27.9904H49.6685L50.8123 15.3435H53.96L55.5615 21.6749C55.7902 22.5816 55.877 23.0231 55.9875 23.6775C56.09 23.0231 56.232 22.3687 56.4292 21.6197L58.0859 15.3435H61.2178L62.3065 27.9904H59.8925H59.8846Z" fill="white"/>
<path d="M66.6058 24.0954V24.1664C66.6058 25.6014 67.2921 26.4214 68.507 26.4214C69.3196 26.4214 70.0769 26.1139 70.7948 25.491L71.7099 26.9496C70.6686 27.8248 69.5799 28.2427 68.3098 28.2427C65.7222 28.2427 64.0498 26.3504 64.0498 23.4252C64.0498 21.7537 64.3811 20.642 65.1779 19.7352C65.9195 18.8837 66.8109 18.4816 68.01 18.4816C69.0514 18.4816 70.0375 18.8443 70.6134 19.4671C71.4417 20.3423 71.8125 21.596 71.8125 23.5435V24.1033H66.6058V24.0954ZM69.3669 22.2031C69.3669 21.5093 69.2959 21.1466 69.0829 20.7996C68.8541 20.437 68.5228 20.2556 68.0416 20.2556C67.1422 20.2556 66.6374 20.981 66.6374 22.2741V22.3135H69.3669V22.2031Z" fill="white"/>
<path d="M76.254 28.2033C75.0549 28.2033 74.1082 27.6593 73.8242 26.8393C73.6822 26.4372 73.6664 26.2558 73.6664 25.4043V20.3502H72.7671V18.6787H73.6664C73.6664 17.772 73.6664 17.1649 73.7532 16.4789L76.1435 15.8639C76.0568 16.7154 76.0015 17.7404 76.0015 18.6866H78.1158L77.5162 20.3581H76.0015V25.0337C76.0015 26.2164 76.2145 26.5239 77.0192 26.5239C77.2322 26.5239 77.4452 26.4687 77.8633 26.3425L78.1631 27.8012C77.4768 28.0929 76.8614 28.2191 76.2461 28.2191L76.254 28.2033Z" fill="white"/>
<path d="M85.697 28.4635C85.1527 28.2269 84.6557 27.8091 84.4269 27.336C84.2533 27.5173 84.0561 27.6987 83.8826 27.8248C83.4408 28.156 82.8097 28.3373 82.0681 28.3373C80.0643 28.3373 78.9678 27.2808 78.9678 25.4279C78.9678 23.2439 80.4272 22.2268 83.2988 22.2268C83.4723 22.2268 83.6301 22.2268 83.8273 22.2425V21.8562C83.8273 20.8233 83.6301 20.4764 82.7702 20.4764C82.0129 20.4764 81.1293 20.8548 80.1669 21.5329L79.165 19.7904C79.6383 19.4829 79.9933 19.3016 80.6244 19.0256C81.508 18.6471 82.2653 18.4816 83.0858 18.4816C84.6004 18.4816 85.6339 19.065 85.9889 20.0979C86.1151 20.4764 86.1624 20.7681 86.1467 21.7695L86.0914 24.8996C86.0757 25.9168 86.1467 26.3583 86.9356 26.9733L85.6891 28.4635H85.697ZM83.6932 23.9141C82.0602 23.9141 81.4922 24.2216 81.4922 25.3333C81.4922 26.0587 81.934 26.5554 82.5336 26.5554C82.9753 26.5554 83.4171 26.3189 83.7642 25.9168L83.7958 23.9141H83.6932Z" fill="white"/>
<path d="M96.1342 17.4566H93.2153V27.9904H90.7145V17.4566H87.7246V15.3435H96.5444L96.1421 17.4566H96.1342Z" fill="white"/>
<path d="M101.554 20.7996C101.325 20.6734 101.128 20.6182 100.867 20.6182C100.339 20.6182 99.8653 20.8705 99.4235 21.3988V27.9825H97.0647V21.7615C97.0647 20.5078 96.9227 19.5617 96.7334 19.0334L98.8476 18.45C99.0606 18.8284 99.1789 19.2542 99.2184 19.7746C99.7312 19.065 100.449 18.45 101.333 18.45C101.688 18.45 101.845 18.4894 102.216 18.6471L101.561 20.7917L101.554 20.7996Z" fill="white"/>
<path d="M109.277 28.4635C108.733 28.2269 108.236 27.8091 108.007 27.336C107.833 27.5173 107.636 27.6987 107.463 27.8248C107.021 28.156 106.39 28.3373 105.648 28.3373C103.644 28.3373 102.548 27.2808 102.548 25.4279C102.548 23.2439 104.007 22.2268 106.879 22.2268C107.052 22.2268 107.21 22.2268 107.407 22.2425V21.8562C107.407 20.8233 107.21 20.4764 106.35 20.4764C105.593 20.4764 104.717 20.8548 103.747 21.5329L102.745 19.7904C103.218 19.4829 103.573 19.3016 104.205 19.0256C105.088 18.6471 105.845 18.4816 106.666 18.4816C108.181 18.4816 109.222 19.065 109.569 20.0979C109.695 20.4764 109.743 20.7681 109.727 21.7695L109.672 24.8996C109.656 25.9168 109.727 26.3583 110.516 26.9733L109.269 28.4635H109.277ZM107.273 23.9141C105.632 23.9141 105.072 24.2216 105.072 25.3333C105.072 26.0587 105.514 26.5554 106.114 26.5554C106.555 26.5554 106.997 26.3189 107.344 25.9168L107.376 23.9141H107.273Z" fill="white"/>
<path d="M117.773 27.9904C117.702 27.8485 117.671 27.6987 117.631 27.4464C117.048 27.9746 116.361 28.2269 115.557 28.2269C113.269 28.2269 111.825 26.3898 111.825 23.4962C111.825 20.6025 113.395 18.5841 115.683 18.5841C116.338 18.5841 116.843 18.7496 117.284 19.1123C117.253 18.9152 117.213 18.2766 117.213 17.7325V14.5314L119.556 14.9098V24.5843C119.556 26.8787 119.73 27.6198 119.888 27.9825H117.773V27.9904ZM117.245 21.1308C116.803 20.7287 116.385 20.5316 115.959 20.5316C114.902 20.5316 114.444 21.4383 114.444 23.5119C114.444 25.5856 114.847 26.1691 116.077 26.1691C116.519 26.1691 117.008 25.8616 117.237 25.5698V21.1308H117.245Z" fill="white"/>
<path d="M124.219 24.0954V24.1664C124.219 25.6014 124.905 26.4214 126.12 26.4214C126.932 26.4214 127.69 26.1139 128.408 25.491L129.323 26.9496C128.281 27.8248 127.193 28.2427 125.923 28.2427C123.335 28.2427 121.663 26.3504 121.663 23.4252C121.663 21.7537 121.994 20.642 122.791 19.7352C123.532 18.8837 124.424 18.4816 125.623 18.4816C126.664 18.4816 127.65 18.8443 128.226 19.4671C129.054 20.3423 129.425 21.596 129.425 23.5435V24.1033H124.219V24.0954ZM126.98 22.2031C126.98 21.5093 126.909 21.1466 126.696 20.7996C126.467 20.437 126.136 20.2556 125.654 20.2556C124.755 20.2556 124.242 20.981 124.242 22.2741V22.3135H126.972V22.2031H126.98Z" fill="white"/>
<path d="M135.76 20.7996C135.531 20.6734 135.334 20.6182 135.074 20.6182C134.545 20.6182 134.072 20.8705 133.63 21.3988V27.9825H131.271V21.7615C131.271 20.5078 131.129 19.5617 130.94 19.0334L133.054 18.45C133.267 18.8284 133.386 19.2542 133.425 19.7746C133.938 19.065 134.656 18.45 135.539 18.45C135.894 18.45 136.052 18.4894 136.423 18.6471L135.768 20.7917L135.76 20.7996Z" fill="white"/>
<path d="M19.7224 24.395C23.1067 30.2533 19.036 32.6739 16.2197 34.2981C16.2197 34.2981 16.5984 35.2206 20.1878 33.147C23.7773 31.0733 24.8975 28.9524 24.8975 28.9524L27.8164 30.1902C27.8164 30.1902 25.8205 35.0235 19.9275 38.4218C14.0345 41.82 8.67793 38.6583 5.26204 32.7449C1.84615 26.8314 1.78304 20.6104 7.67604 17.2122C13.569 13.8139 18.752 14.4999 18.752 14.4999L18.3655 17.6458C18.3655 17.6458 15.9594 17.5512 12.3699 19.6249C8.78049 21.6985 9.38793 22.4791 9.38793 22.4791C12.2043 20.8549 16.338 18.5447 19.7224 24.4029V24.395Z" fill="url(#paint0_radial_35_108)"/>
<path d="M19.7224 24.395C23.1067 30.2533 19.036 32.6739 16.2197 34.2981C16.2197 34.2981 16.5984 35.2206 20.1878 33.147C23.7773 31.0733 24.8975 28.9524 24.8975 28.9524L27.8164 30.1902C27.8164 30.1902 25.8205 35.0235 19.9275 38.4218C14.0345 41.82 8.67793 38.6583 5.26204 32.7449C1.84615 26.8314 1.78304 20.6104 7.67604 17.2122C13.569 13.8139 18.752 14.4999 18.752 14.4999L18.3655 17.6458C18.3655 17.6458 15.9594 17.5512 12.3699 19.6249C8.78049 21.6985 9.38793 22.4791 9.38793 22.4791C12.2043 20.8549 16.338 18.5447 19.7224 24.4029V24.395Z" stroke="#5E561F" stroke-width="0.6" stroke-miterlimit="10"/>
<path d="M9.41936 35.189C12.0227 38.469 16.7876 38.6819 20.2666 36.624C21.5051 36.0011 22.6175 35.1417 23.7219 34.2744C22.7121 35.2442 21.6787 36.214 20.4717 36.971C16.8112 39.6202 11.5257 39.6438 8.26758 36.2613L9.42725 35.189H9.41936Z" fill="#877F31"/>
<path opacity="0.6" d="M14.2631 27.8879C14.8232 29.0076 15.1151 30.8762 14.5787 33.0681C14.0422 35.2601 10.9577 38.2956 6.95801 36.3087L8.52001 34.4243L14.2552 27.8879H14.2631Z" fill="#877F31"/>
<path d="M10.2713 29.8512L12.1962 31.4045L14.5708 27.3676L9.88477 27.3991L10.2713 29.8512Z" fill="#AAAFA7"/>
<path d="M14.5709 27.3674L7.65233 25.7117L7.16322 26.6421L6.19289 25.8772C6.19289 25.8772 4.126 26.8392 3.51855 28.8024L9.81389 27.9982L14.5709 27.3674Z" fill="url(#paint1_radial_35_108)" stroke="#5E561F" stroke-width="0.6" stroke-linecap="round" stroke-linejoin="round"/>
<path d="M14.5709 27.3675L12.5514 34.1798L11.5021 34.1404L11.6757 35.3625C11.6757 35.3625 9.80602 36.6713 7.80225 36.214L11.6441 31.1679L14.5709 27.3596V27.3675Z" fill="url(#paint2_radial_35_108)" stroke="#5E561F" stroke-width="0.6" stroke-linecap="round" stroke-linejoin="round"/>
<path d="M12.9614 25.625L15.2729 29.6303L17.6553 28.4319L15.194 24.1742L12.9614 25.625Z" fill="#EA7929" stroke="white" stroke-width="0.6" stroke-linecap="round" stroke-linejoin="round"/>
<path d="M3.66827 24.6C3.62882 20.429 7.51804 17.2594 11.4704 16.9519C10.5868 17.3856 9.70327 17.7482 8.89071 18.2371C6.35838 19.5932 4.53604 21.8561 3.66827 24.6Z" fill="#E6E3C4"/>
<path d="M8.29902 23.4804C8.18069 22.3607 8.78813 21.2963 9.47447 20.4448C11.6518 17.8271 15.0519 16.3684 18.4836 16.5261L18.4126 17.3146C15.2334 16.9598 11.8254 18.1977 9.62435 20.5709C8.89858 21.3673 8.25169 22.3528 8.29902 23.4804Z" fill="#877F31"/>
<path d="M9.23149 35.6092C11.8425 34.1025 12.9579 31.1477 11.7227 29.0095C10.4875 26.8712 7.36954 26.3592 4.75849 27.8659C2.14744 29.3726 1.03208 32.3274 2.26726 34.4656C3.50245 36.6039 6.62044 37.1159 9.23149 35.6092Z" fill="url(#paint3_radial_35_108)" stroke="#5E561F" stroke-width="0.6" stroke-miterlimit="10"/>
<path opacity="0.4" d="M5.02905 31.3822C5.54786 30.6933 5.54798 29.8186 5.02931 29.4284C4.51065 29.0382 3.66961 29.2803 3.15081 29.9691C2.632 30.658 2.63189 31.5328 3.15055 31.923C3.66921 32.3132 4.51024 32.0711 5.02905 31.3822Z" fill="white"/>
<path d="M21.5762 21.1939C14.8076 21.1939 14.7445 16.4631 14.7445 13.2068C14.7445 13.2068 13.7583 13.0727 13.7583 17.2121C13.7583 21.3516 15.0363 23.3858 15.0363 23.3858L12.504 25.2939C12.504 25.2939 9.31689 21.1545 9.31689 14.35C9.31689 7.54561 14.7445 4.49426 21.5683 4.49426C28.4001 4.49426 33.8198 7.54561 33.8198 14.35C33.8198 21.1545 30.6327 25.286 30.6327 25.286L28.1003 23.3779C28.1003 23.3779 29.3783 21.3437 29.3783 17.2043C29.3783 13.0648 28.3922 13.1989 28.3922 13.1989C28.3922 16.4473 28.3291 21.1781 21.5605 21.186L21.5762 21.1939Z" fill="url(#paint4_radial_35_108)"/>
<path d="M17.3711 6.87534C13.2294 7.49034 10.6577 11.5115 10.705 15.5405C10.6261 16.9282 10.8154 18.3159 11.0205 19.7036C10.6892 18.3475 10.3658 16.9676 10.3105 15.5405C10.1054 12.6626 10.8785 9.56399 13.0953 7.52976C14.184 6.48111 15.5567 5.74784 17.024 5.32996L17.3711 6.86746V6.87534Z" fill="#C3E8BA"/>
<path opacity="0.6" d="M21.5762 15.2489C22.8305 15.2489 24.6371 14.6812 26.3568 13.2225C28.0766 11.7639 29.4256 7.65601 25.8677 4.95947L24.8816 7.1987L21.5841 15.2489H21.5762Z" fill="#416E36"/>
<path d="M21.5762 10.2815L19.2568 11.1725L21.5762 15.2488L23.8876 11.1725L21.5762 10.2815Z" fill="#AAAFA7"/>
<path d="M21.5762 15.2489L26.4674 10.0923L25.9072 9.20926L27.059 8.75195C27.059 8.75195 27.2641 6.48118 25.8599 4.97522L23.4065 10.8256L21.5684 15.2568L21.5762 15.2489Z" fill="url(#paint5_radial_35_108)" stroke="#33582C" stroke-width="0.6" stroke-linecap="round" stroke-linejoin="round"/>
<path d="M21.5763 15.2489L16.6852 10.0923L17.2453 9.20926L16.0935 8.75195C16.0935 8.75195 15.8884 6.48118 17.2926 4.97522L19.746 10.8256L21.5842 15.2646L21.5763 15.2489Z" fill="url(#paint6_radial_35_108)" stroke="#33582C" stroke-width="0.6" stroke-linecap="round" stroke-linejoin="round"/>
<path d="M23.8875 14.7206H19.2567L19.1147 17.3777H24.0374L23.8875 14.7206Z" fill="#EA7929" stroke="white" stroke-width="0.6" stroke-linecap="round" stroke-linejoin="round"/>
<path d="M29.4258 7.19861C33.0547 9.24861 33.8593 14.2001 32.1553 17.7798C32.2263 16.7942 32.3447 15.848 32.3289 14.9019C32.4157 12.0319 31.3664 9.31957 29.4258 7.19861Z" fill="#C3E8BA"/>
<path d="M28.0767 11.7639C29.1102 12.2212 29.7255 13.2777 30.12 14.2948C31.3033 17.4881 30.8615 21.1623 29.0076 24.0481L28.3607 23.5987C30.2541 21.0204 30.8931 17.4566 29.9306 14.3579C29.6072 13.3329 29.0707 12.2764 28.0688 11.756L28.0767 11.7639Z" fill="#C3E8BA"/>
<path d="M21.5762 21.1939C14.8076 21.1939 14.7445 16.4631 14.7445 13.2068C14.7445 13.2068 13.7583 13.0727 13.7583 17.2121C13.7583 21.3516 15.0363 23.3858 15.0363 23.3858L12.504 25.2939C12.504 25.2939 9.31689 21.1545 9.31689 14.35C9.31689 7.54561 14.7445 4.49426 21.5683 4.49426C28.4001 4.49426 33.8198 7.54561 33.8198 14.35C33.8198 21.1545 30.6327 25.286 30.6327 25.286L28.1003 23.3779C28.1003 23.3779 29.3783 21.3437 29.3783 17.2043C29.3783 13.0648 28.3922 13.1989 28.3922 13.1989C28.3922 16.4473 28.3291 21.1781 21.5605 21.186L21.5762 21.1939Z" stroke="#33582C" stroke-width="0.6" stroke-miterlimit="10"/>
<path d="M21.576 11.961C24.0464 11.961 26.049 9.51821 26.049 6.50486C26.049 3.49151 24.0464 1.04871 21.576 1.04871C19.1057 1.04871 17.103 3.49151 17.103 6.50486C17.103 9.51821 19.1057 11.961 21.576 11.961Z" fill="url(#paint7_radial_35_108)" stroke="#33582C" stroke-width="0.6" stroke-miterlimit="10"/>
<path opacity="0.4" d="M21.0378 4.18888C21.761 3.71891 22.0605 2.89695 21.7066 2.35299C21.3527 1.80902 20.4796 1.74903 19.7563 2.219C19.0331 2.68896 18.7336 3.51092 19.0875 4.05489C19.4413 4.59886 20.3145 4.65885 21.0378 4.18888Z" fill="white"/>
<path d="M23.4221 24.3951C26.8065 18.5368 30.9402 20.847 33.7566 22.4712C33.7566 22.4712 34.364 21.6827 30.7746 19.617C27.1851 17.5433 24.779 17.6379 24.779 17.6379L24.3925 14.492C24.3925 14.492 29.5755 13.7981 35.4685 17.2043C41.3615 20.6026 41.2983 26.8235 37.8825 32.737C34.4666 38.6504 29.11 41.8201 23.217 38.4139C17.324 35.0077 15.3281 30.1824 15.3281 30.1824L18.247 28.9445C18.247 28.9445 19.3672 31.0733 22.9567 33.1391C26.5461 35.2127 26.9248 34.2903 26.9248 34.2903C24.1085 32.666 20.0378 30.2454 23.4221 24.3872V24.3951Z" fill="url(#paint8_radial_35_108)"/>
<path d="M37.9299 27.9195C39.4682 24.0245 37.2751 19.7904 33.7567 17.8114C32.597 17.0466 31.2953 16.5183 29.9937 15.9979C31.3348 16.3922 32.6995 16.8022 33.9539 17.4645C36.5493 18.726 38.8529 20.9495 39.5077 23.8825C39.8705 25.3491 39.8232 26.9023 39.4445 28.3847L37.9378 27.9195H37.9299Z" fill="#A7DDFC"/>
<path opacity="0.6" d="M28.5735 27.3676C27.9502 28.4477 27.5321 30.3006 27.9345 32.5162C28.3368 34.7318 31.2241 37.9566 35.3421 36.222L33.8985 34.2508L28.5735 27.3754V27.3676Z" fill="#416184"/>
<path d="M32.8732 29.8512L33.2597 27.3991L28.5737 27.3676L30.9483 31.4045L32.8732 29.8512Z" fill="#AAAFA7"/>
<path d="M28.5737 27.3675L30.5933 34.1798L31.6425 34.1404L31.469 35.3625C31.469 35.3625 33.3386 36.6713 35.3424 36.214L31.5005 31.1679L28.5737 27.3596V27.3675Z" fill="url(#paint9_radial_35_108)" stroke="#125E7C" stroke-width="0.6" stroke-linecap="round" stroke-linejoin="round"/>
<path d="M28.5737 27.3674L35.4923 25.7117L35.9814 26.6421L36.9517 25.8772C36.9517 25.8772 39.0186 26.8392 39.6261 28.8024L33.3307 27.9982L28.5737 27.3674Z" fill="url(#paint10_radial_35_108)" stroke="#125E7C" stroke-width="0.6" stroke-linecap="round" stroke-linejoin="round"/>
<path d="M27.8795 29.6303L30.191 25.625L27.9584 24.1742L25.4971 28.4319L27.8795 29.6303Z" fill="#EA7929" stroke="white" stroke-width="0.6" stroke-linecap="round" stroke-linejoin="round"/>
<path d="M31.6264 38.1852C28.0369 40.3062 23.3431 38.5164 21.0947 35.26C21.9073 35.8119 22.6725 36.3875 23.5008 36.8527C25.9385 38.3665 28.8179 38.816 31.6264 38.1931V38.1852Z" fill="#19526B"/>
<path d="M28.3449 34.7396C27.4298 35.4019 26.207 35.4098 25.1263 35.2442C21.7656 34.6765 18.8073 32.4531 17.2295 29.4017L17.9474 29.0706C19.2333 31.9957 22.0023 34.3375 25.1657 35.055C26.2149 35.2836 27.3983 35.3467 28.3528 34.7475L28.3449 34.7396Z" fill="#19526B"/>
<path d="M23.4221 24.3951C26.8065 18.5368 30.9402 20.847 33.7566 22.4712C33.7566 22.4712 34.364 21.6827 30.7746 19.617C27.1851 17.5433 24.779 17.6379 24.779 17.6379L24.3925 14.492C24.3925 14.492 29.5755 13.7981 35.4685 17.2043C41.3615 20.6026 41.2983 26.8235 37.8825 32.737C34.4666 38.6504 29.11 41.8201 23.217 38.4139C17.324 35.0078 15.3281 30.1824 15.3281 30.1824L18.247 28.9445C18.247 28.9445 19.3672 31.0733 22.9567 33.1391C26.5461 35.2127 26.9248 34.2903 26.9248 34.2903C24.1085 32.666 20.0378 30.2454 23.4221 24.3872V24.3951Z" stroke="#125E7C" stroke-width="0.6" stroke-miterlimit="10"/>
<path d="M40.8726 34.4666C42.1078 32.3284 40.9924 29.3736 38.3814 27.8669C35.7703 26.3602 32.6523 26.8722 31.4172 29.0104C30.182 31.1487 31.2973 34.1035 33.9084 35.6102C36.5194 37.1168 39.6374 36.6048 40.8726 34.4666Z" fill="url(#paint11_radial_35_108)" stroke="#125E7C" stroke-width="0.6" stroke-miterlimit="10"/>
<path opacity="0.4" d="M35.6733 29.9773C36.536 29.9773 37.2353 29.4513 37.2353 28.8025C37.2353 28.1537 36.536 27.6277 35.6733 27.6277C34.8107 27.6277 34.1113 28.1537 34.1113 28.8025C34.1113 29.4513 34.8107 29.9773 35.6733 29.9773Z" fill="white"/>
<mask id="mask0_35_108" style="mask-type:luminance" maskUnits="userSpaceOnUse" x="26" y="14" width="10" height="13">
<path d="M28.7709 14.4367L28.5737 19.4829L26.3569 23.4804L30.9167 26.2794L34.5298 21.6985L35.0347 14.1608L28.7709 14.4367Z" fill="white"/>
</mask>
<g mask="url(#mask0_35_108)">
<path d="M21.5762 21.1939C14.8076 21.1939 14.7445 16.4631 14.7445 13.2068C14.7445 13.2068 13.7583 13.0727 13.7583 17.2121C13.7583 21.3516 15.0363 23.3858 15.0363 23.3858L12.504 25.2939C12.504 25.2939 9.31689 21.1545 9.31689 14.35C9.31689 7.54561 14.7445 4.49426 21.5683 4.49426C28.4001 4.49426 33.8198 7.54561 33.8198 14.35C33.8198 21.1545 30.6327 25.286 30.6327 25.286L28.1003 23.3779C28.1003 23.3779 29.3783 21.3437 29.3783 17.2043C29.3783 13.0648 28.3922 13.1989 28.3922 13.1989C28.3922 16.4473 28.3291 21.1781 21.5605 21.186L21.5762 21.1939Z" fill="url(#paint12_radial_35_108)"/>
<path opacity="0.6" d="M21.5762 15.2489C22.8305 15.2489 24.6371 14.6812 26.3568 13.2225C28.0766 11.7639 29.4256 7.65601 25.8677 4.95947L24.8816 7.1987L21.5841 15.2489H21.5762Z" fill="#416E36"/>
<path d="M21.5762 15.2489L26.4674 10.0923L25.9072 9.20926L27.059 8.75195C27.059 8.75195 27.2641 6.48118 25.8599 4.97522L23.4065 10.8256L21.5684 15.2568L21.5762 15.2489Z" fill="url(#paint13_radial_35_108)" stroke="#33582C" stroke-width="0.6" stroke-linecap="round" stroke-linejoin="round"/>
<path d="M29.4258 7.19873C33.0547 9.24873 33.8593 14.2003 32.1553 17.7799C32.2263 16.7943 32.3447 15.8482 32.3289 14.902C32.4157 12.032 31.3664 9.31969 29.4258 7.19873Z" fill="#C3E8BA"/>
<path d="M28.0767 11.7639C29.1102 12.2212 29.7255 13.2777 30.12 14.2948C31.3033 17.4881 30.8615 21.1623 29.0076 24.0481L28.3607 23.5987C30.2541 21.0204 30.8931 17.4566 29.9306 14.3579C29.6072 13.3329 29.0707 12.2764 28.0688 11.756L28.0767 11.7639Z" fill="#C3E8BA"/>
<path d="M21.5762 21.1939C14.8076 21.1939 14.7445 16.4631 14.7445 13.2068C14.7445 13.2068 13.7583 13.0727 13.7583 17.2121C13.7583 21.3516 15.0363 23.3858 15.0363 23.3858L12.504 25.2939C12.504 25.2939 9.31689 21.1545 9.31689 14.35C9.31689 7.54561 14.7445 4.49426 21.5683 4.49426C28.4001 4.49426 33.8198 7.54561 33.8198 14.35C33.8198 21.1545 30.6327 25.286 30.6327 25.286L28.1003 23.3779C28.1003 23.3779 29.3783 21.3437 29.3783 17.2043C29.3783 13.0648 28.3922 13.1989 28.3922 13.1989C28.3922 16.4473 28.3291 21.1781 21.5605 21.186L21.5762 21.1939Z" stroke="#33582C" stroke-width="0.6" stroke-miterlimit="10"/>
</g>
<mask id="mask1_35_108" style="mask-type:luminance" maskUnits="userSpaceOnUse" x="21" y="27" width="9" height="8">
<path d="M21.5762 30.9155L23.7141 32.934L25.8125 34.0694L27.9425 32.5161L29.1732 29.3859L24.3215 27.123L21.5762 30.9155Z" fill="white"/>
</mask>
<g mask="url(#mask1_35_108)">
<path d="M19.7224 24.3949C23.1067 30.2532 19.036 32.6738 16.2197 34.298C16.2197 34.298 16.5984 35.2205 20.1878 33.1468C23.7773 31.0732 24.8975 28.9522 24.8975 28.9522L27.8164 30.1901C27.8164 30.1901 25.8205 35.0234 19.9275 38.4217C14.0345 41.8199 8.67793 38.6582 5.26204 32.7447C1.84615 26.8313 1.78304 20.6103 7.67604 17.212C13.569 13.8138 18.752 14.4997 18.752 14.4997L18.3655 17.6457C18.3655 17.6457 15.9594 17.5511 12.3699 19.6247C8.78049 21.6984 9.38793 22.479 9.38793 22.479C12.2043 20.8547 16.338 18.5445 19.7224 24.4028V24.3949Z" fill="url(#paint14_radial_35_108)"/>
<path d="M19.7224 24.3949C23.1067 30.2532 19.036 32.6738 16.2197 34.298C16.2197 34.298 16.5984 35.2205 20.1878 33.1468C23.7773 31.0732 24.8975 28.9522 24.8975 28.9522L27.8164 30.1901C27.8164 30.1901 25.8205 35.0234 19.9275 38.4217C14.0345 41.8199 8.67793 38.6582 5.26204 32.7447C1.84615 26.8313 1.78304 20.6103 7.67604 17.212C13.569 13.8138 18.752 14.4997 18.752 14.4997L18.3655 17.6457C18.3655 17.6457 15.9594 17.5511 12.3699 19.6247C8.78049 21.6984 9.38793 22.479 9.38793 22.479C12.2043 20.8547 16.338 18.5445 19.7224 24.4028V24.3949Z" stroke="#5E561F" stroke-width="0.6" stroke-miterlimit="10"/>
</g>
<mask id="mask2_35_108" style="mask-type:luminance" maskUnits="userSpaceOnUse" x="6" y="13" width="14" height="9">
<path d="M19.6983 13.2698L19.2566 19.1832L12.5983 20.1846L10.0818 21.6984L6.729 15.9979L14.2234 13.2698H19.6983Z" fill="white"/>
</mask>
<g mask="url(#mask2_35_108)">
<path d="M19.7219 24.3949C23.1062 30.2532 19.0356 32.6738 16.2192 34.298C16.2192 34.298 16.5979 35.2205 20.1873 33.1468C23.7768 31.0732 24.897 28.9522 24.897 28.9522L27.8159 30.1901C27.8159 30.1901 25.82 35.0234 19.927 38.4217C14.034 41.8199 8.67744 38.6582 5.26155 32.7447C1.84566 26.8313 1.78255 20.6103 7.67555 17.212C13.5686 13.8138 18.7516 14.4997 18.7516 14.4997L18.365 17.6457C18.365 17.6457 15.9589 17.5511 12.3694 19.6247C8.78 21.6984 9.38744 22.479 9.38744 22.479C12.2038 20.8547 16.3376 18.5445 19.7219 24.4028V24.3949Z" fill="url(#paint15_radial_35_108)"/>
<path d="M19.7219 24.3949C23.1062 30.2532 19.0356 32.6738 16.2192 34.298C16.2192 34.298 16.5979 35.2205 20.1873 33.1468C23.7768 31.0732 24.897 28.9522 24.897 28.9522L27.8159 30.1901C27.8159 30.1901 25.82 35.0234 19.927 38.4217C14.034 41.8199 8.67744 38.6582 5.26155 32.7447C1.84566 26.8313 1.78255 20.6103 7.67555 17.212C13.5686 13.8138 18.7516 14.4997 18.7516 14.4997L18.365 17.6457C18.365 17.6457 15.9589 17.5511 12.3694 19.6247C8.78 21.6984 9.38744 22.479 9.38744 22.479C12.2038 20.8547 16.3376 18.5445 19.7219 24.4028V24.3949Z" stroke="#5E561F" stroke-width="0.6" stroke-miterlimit="10"/>
<path d="M3.66827 24.6C3.62882 20.429 7.51804 17.2594 11.4704 16.9519C10.5868 17.3856 9.70327 17.7482 8.89071 18.2371C6.35838 19.5932 4.53604 21.8561 3.66827 24.6Z" fill="#E6E3C4"/>
<path d="M8.29902 23.4804C8.18069 22.3607 8.78813 21.2963 9.47447 20.4448C11.6518 17.8271 15.0519 16.3684 18.4836 16.5261L18.4126 17.3146C15.2334 16.9598 11.8254 18.1977 9.62435 20.5709C8.89858 21.3673 8.25169 22.3528 8.29902 23.4804Z" fill="#877F31"/>
</g>
</g>
<defs>
<radialGradient id="paint0_radial_35_108" cx="0" cy="0" r="1" gradientUnits="userSpaceOnUse" gradientTransform="translate(6.72937 24.1585) scale(21.3158 21.3042)">
<stop offset="0.37" stop-color="#EFE242"/>
<stop offset="1" stop-color="#8B8233"/>
</radialGradient>
<radialGradient id="paint1_radial_35_108" cx="0" cy="0" r="1" gradientUnits="userSpaceOnUse" gradientTransform="translate(5.546 26.4292) scale(10.6184 10.6127)">
<stop offset="0.37" stop-color="#EFE242"/>
<stop offset="1" stop-color="#8B8233"/>
</radialGradient>
<radialGradient id="paint2_radial_35_108" cx="0" cy="0" r="1" gradientUnits="userSpaceOnUse" gradientTransform="translate(0.221024 29.2835) scale(15.407 15.3987)">
<stop offset="0.37" stop-color="#EFE242"/>
<stop offset="1" stop-color="#8B8233"/>
</radialGradient>
<radialGradient id="paint3_radial_35_108" cx="0" cy="0" r="1" gradientUnits="userSpaceOnUse" gradientTransform="translate(2.78103 30.9679) scale(11.4389 11.4327)">
<stop offset="0.37" stop-color="#E7D840"/>
<stop offset="1" stop-color="#888033"/>
</radialGradient>
<radialGradient id="paint4_radial_35_108" cx="0" cy="0" r="1" gradientUnits="userSpaceOnUse" gradientTransform="translate(21.5762 6.44176) scale(16.3537 16.3448)">
<stop offset="0.37" stop-color="#9BCC89"/>
<stop offset="1" stop-color="#4A7F3B"/>
</radialGradient>
<radialGradient id="paint5_radial_35_108" cx="0" cy="0" r="1" gradientUnits="userSpaceOnUse" gradientTransform="translate(21.4106 1.77407) scale(12.7563 12.7494)">
<stop offset="0.37" stop-color="#9BCC89"/>
<stop offset="1" stop-color="#4A7F3B"/>
</radialGradient>
<radialGradient id="paint6_radial_35_108" cx="0" cy="0" r="1" gradientUnits="userSpaceOnUse" gradientTransform="translate(15.557 8.6731) scale(10.721 10.7152)">
<stop offset="0.37" stop-color="#9BCC89"/>
<stop offset="1" stop-color="#4A7F3B"/>
</radialGradient>
<radialGradient id="paint7_radial_35_108" cx="0" cy="0" r="1" gradientUnits="userSpaceOnUse" gradientTransform="translate(20.298 3.68217) scale(7.35244 7.34846)">
<stop offset="0.37" stop-color="#9BCC89"/>
<stop offset="1" stop-color="#4A7F3B"/>
</radialGradient>
<radialGradient id="paint8_radial_35_108" cx="0" cy="0" r="1" gradientUnits="userSpaceOnUse" gradientTransform="translate(37.8036 24.0797) scale(20.3533 20.3423)">
<stop offset="0.37" stop-color="#71B5E4"/>
<stop offset="1" stop-color="#166087"/>
</radialGradient>
<radialGradient id="paint9_radial_35_108" cx="0" cy="0" r="1" gradientUnits="userSpaceOnUse" gradientTransform="translate(40.3363 33.9607) rotate(120.013) scale(12.7512 12.7546)">
<stop offset="0.37" stop-color="#71B5E4"/>
<stop offset="1" stop-color="#166087"/>
</radialGradient>
<radialGradient id="paint10_radial_35_108" cx="0" cy="0" r="1" gradientUnits="userSpaceOnUse" gradientTransform="translate(37.2812 25.4513) rotate(120.013) scale(10.7166 10.7195)">
<stop offset="0.37" stop-color="#71B5E4"/>
<stop offset="1" stop-color="#166087"/>
</radialGradient>
<radialGradient id="paint11_radial_35_108" cx="0" cy="0" r="1" gradientUnits="userSpaceOnUse" gradientTransform="translate(35.8909 27.6117) scale(9.07222 9.06731)">
<stop offset="0.37" stop-color="#71B5E4"/>
<stop offset="1" stop-color="#166087"/>
</radialGradient>
<radialGradient id="paint12_radial_35_108" cx="0" cy="0" r="1" gradientUnits="userSpaceOnUse" gradientTransform="translate(21.5762 6.44176) scale(16.3537 16.3448)">
<stop offset="0.37" stop-color="#9BCC89"/>
<stop offset="1" stop-color="#4A7F3B"/>
</radialGradient>
<radialGradient id="paint13_radial_35_108" cx="0" cy="0" r="1" gradientUnits="userSpaceOnUse" gradientTransform="translate(21.4106 1.77407) scale(12.7563 12.7494)">
<stop offset="0.37" stop-color="#9BCC89"/>
<stop offset="1" stop-color="#4A7F3B"/>
</radialGradient>
<radialGradient id="paint14_radial_35_108" cx="0" cy="0" r="1" gradientUnits="userSpaceOnUse" gradientTransform="translate(6.72937 24.1584) scale(21.3158 21.3042)">
<stop offset="0.37" stop-color="#EFE242"/>
<stop offset="1" stop-color="#8B8233"/>
</radialGradient>
<radialGradient id="paint15_radial_35_108" cx="0" cy="0" r="1" gradientUnits="userSpaceOnUse" gradientTransform="translate(6.72889 24.1584) scale(21.3158 21.3042)">
<stop offset="0.37" stop-color="#EFE242"/>
<stop offset="1" stop-color="#8B8233"/>
</radialGradient>
<clipPath id="clip0_35_108">
<rect width="142" height="41" fill="white"/>
</clipPath>
</defs>
</svg>
