<svg width="149" height="34" viewBox="0 0 149 34" fill="none" xmlns="http://www.w3.org/2000/svg">
    <path d="M0.610838 0.527116C0.234057 0.936952 0.0131836 1.57154 0.0131836 2.37799V31.6217C0.0131836 32.4414 0.234057 33.076 0.610838 33.4726L0.701785 33.5652L16.7995 17.1982V16.9999V16.8016L0.701785 0.43457L0.610838 0.527116Z" fill="url(#paint0_linear_2358_10277)"/>
    <path d="M22.1656 22.6585L16.7995 17.1982V16.9999V16.8016L22.1656 11.3418L22.2825 11.4079L28.6358 15.0832C30.4548 16.1276 30.4548 17.8463 28.6358 18.9039L22.2825 22.5792L22.1656 22.6585Z" fill="url(#paint1_linear_2358_10277)"/>
    <path d="M22.2825 22.5792L16.7995 16.9999L0.610838 33.4726C1.20849 34.1204 2.19641 34.1999 3.31376 33.5521L22.2825 22.5792Z" fill="url(#paint2_linear_2358_10277)"/>
    <path d="M22.2822 11.421L3.30021 0.448008C2.18286 -0.199797 1.19543 -0.120472 0.597778 0.527333L16.7995 16.9999L22.2822 11.421Z" fill="url(#paint3_linear_2358_10277)"/>
    <path d="M22.1651 22.46L3.30004 33.3669C2.24765 33.975 1.2992 33.9354 0.701543 33.3801L0.610838 33.4726L0.701785 33.5652C1.31243 34.1204 2.24765 34.1601 3.30004 33.552L22.2825 22.5792L22.1651 22.46Z" fill="#313A50"/>
    <path d="M0.611107 33.2874C0.233925 32.8776 0.0128174 32.243 0.0128174 31.4365V31.6348C0.0128174 32.4545 0.233925 33.0891 0.611107 33.4857L0.70215 33.3932L0.611107 33.2874Z" fill="#313A50"/>
    <path d="M28.6352 18.7187L22.152 22.4601L22.2689 22.5791L28.6222 18.9038C29.5317 18.3749 29.9864 17.6875 29.9864 17C29.9215 17.6214 29.4667 18.2427 28.6352 18.7187Z" fill="#313A50"/>
    <path d="M3.30009 0.634388L28.6354 15.2827C29.4539 15.7586 29.9216 16.3668 29.9996 17.0014C29.9996 16.3139 29.5449 15.6132 28.6354 15.0976L3.30009 0.449299C1.48114 -0.59512 0 0.277434 0 2.39271V2.59102C0 0.462521 1.49413 -0.410032 3.30009 0.634388Z" fill="white"/>
    <path d="M81.6455 19.268C78.9013 19.268 76.6593 21.3702 76.6593 24.2592C76.6593 27.1365 78.9013 29.2504 81.6455 29.2504C84.3896 29.2504 86.6317 27.1365 86.6317 24.2592C86.6317 21.3702 84.3896 19.268 81.6455 19.268ZM81.6455 27.2891C80.1391 27.2891 78.8429 26.0443 78.8429 24.2592C78.8429 22.4624 80.1391 21.2292 81.6455 21.2292C83.1518 21.2292 84.448 22.4624 84.448 24.2592C84.448 26.0443 83.1401 27.2891 81.6455 27.2891ZM70.7622 19.268C68.0181 19.268 65.776 21.3702 65.776 24.2592C65.776 27.1365 68.0181 29.2504 70.7622 29.2504C73.5064 29.2504 75.7484 27.1365 75.7484 24.2592C75.7484 21.3702 73.5064 19.268 70.7622 19.268ZM70.7622 27.2891C69.2559 27.2891 67.9597 26.0443 67.9597 24.2592C67.9597 22.4624 69.2559 21.2292 70.7622 21.2292C72.2686 21.2292 73.5648 22.4624 73.5648 24.2592C73.5648 26.0443 72.2686 27.2891 70.7622 27.2891ZM57.8238 20.8065V22.9204H62.8684C62.7166 24.1065 62.3196 24.9873 61.724 25.5863C60.9883 26.3261 59.844 27.1365 57.8355 27.1365C54.7293 27.1365 52.3004 24.6233 52.3004 21.4994C52.3004 18.3755 54.7293 15.8622 57.8355 15.8622C59.5053 15.8622 60.7314 16.5199 61.6306 17.3772L63.1136 15.8857C61.8525 14.6761 60.1826 13.7483 57.8238 13.7483C53.5733 13.7483 50 17.2245 50 21.5111C50 25.7859 53.5733 29.2739 57.8238 29.2739C60.1242 29.2739 61.8525 28.5223 63.207 27.1012C64.5966 25.7037 65.0287 23.7307 65.0287 22.1453C65.0287 21.652 64.9937 21.194 64.9119 20.8182H57.8238V20.8065ZM110.734 22.4506C110.325 21.3349 109.064 19.268 106.483 19.268C103.926 19.268 101.8 21.288 101.8 24.2592C101.8 27.0543 103.902 29.2504 106.728 29.2504C109.005 29.2504 110.325 27.8528 110.862 27.0425L109.169 25.9034C108.608 26.7372 107.838 27.2891 106.728 27.2891C105.619 27.2891 104.825 26.7724 104.323 25.7742L110.967 23.0143L110.734 22.4506ZM103.961 24.1183C103.902 22.1923 105.444 21.2058 106.553 21.2058C107.417 21.2058 108.153 21.6403 108.398 22.2627L103.961 24.1183ZM98.5658 28.9568H100.749V14.2768H98.5658V28.9568ZM94.9926 20.3837H94.9109C94.4204 19.7965 93.4862 19.268 92.2951 19.268C89.8079 19.268 87.5308 21.4641 87.5308 24.2827C87.5308 27.0777 89.8079 29.2621 92.2951 29.2621C93.4745 29.2621 94.4204 28.7336 94.9109 28.123H94.9809V28.8393C94.9809 30.7536 93.965 31.7753 92.3302 31.7753C90.999 31.7753 90.1699 30.8123 89.8312 30.002L87.9278 30.8006C88.4767 32.1277 89.9247 33.7483 92.3302 33.7483C94.8875 33.7483 97.0478 32.2334 97.0478 28.5457V19.5733H94.9809V20.3837H94.9926ZM92.482 27.2891C90.9756 27.2891 89.7145 26.0208 89.7145 24.2827C89.7145 22.5211 90.9756 21.241 92.482 21.241C93.965 21.241 95.1327 22.5328 95.1327 24.2827C95.1444 26.0208 93.9767 27.2891 92.482 27.2891ZM120.963 14.2768H115.743V28.9568H117.927V23.3901H120.975C123.392 23.3901 125.762 21.6285 125.762 18.8335C125.762 16.0384 123.368 14.2768 120.963 14.2768ZM121.01 21.3467H117.915V16.3085H121.01C122.644 16.3085 123.567 17.6708 123.567 18.8217C123.567 19.9726 122.644 21.3467 121.01 21.3467ZM134.485 19.2445C132.909 19.2445 131.274 19.9492 130.597 21.4876L132.535 22.2979C132.944 21.4876 133.714 21.2175 134.52 21.2175C135.641 21.2175 136.797 21.8987 136.809 23.1083V23.261C136.412 23.0378 135.571 22.6972 134.532 22.6972C132.442 22.6972 130.328 23.8482 130.328 25.9973C130.328 27.9585 132.033 29.2269 133.948 29.2269C135.408 29.2269 136.225 28.5692 136.727 27.7941H136.797V28.9333H138.899V23.3079C138.911 20.7008 136.972 19.2445 134.485 19.2445ZM134.217 27.2891C133.504 27.2891 132.512 26.9251 132.512 26.0443C132.512 24.9169 133.749 24.4823 134.824 24.4823C135.781 24.4823 136.237 24.6937 136.809 24.9756C136.645 26.3261 135.478 27.2891 134.217 27.2891ZM146.571 19.5616L144.072 25.9268H144.002L141.41 19.5616H139.063L142.951 28.4635L140.733 33.4078H143.01L149 19.5616H146.571ZM126.953 28.9568H129.137V14.2768H126.953V28.9568Z" fill="white"/>
    <path d="M56.8428 6.79618V3.99052H53.8848V4.90458H55.6685V6.41532C55.5669 6.50842 55.3955 6.6121 55.1543 6.72636C54.9131 6.83638 54.5301 6.8914 54.0054 6.8914C53.6711 6.8914 53.3685 6.83427 53.0977 6.72001C52.8311 6.60575 52.6004 6.4386 52.4058 6.21854C52.2154 5.99849 52.0694 5.72977 51.9678 5.41239C51.8662 5.09078 51.8155 4.72473 51.8155 4.31425V3.76835C51.8155 3.36633 51.8557 3.00875 51.9361 2.69559C52.0207 2.37821 52.1476 2.10949 52.3169 1.88944C52.4904 1.66939 52.7062 1.50224 52.9644 1.38798C53.2225 1.27372 53.5251 1.21659 53.8721 1.21659C54.2614 1.21659 54.5788 1.27795 54.8242 1.40067C55.0739 1.51916 55.2665 1.68209 55.4019 1.88944C55.5373 2.0968 55.6283 2.32955 55.6748 2.58768H56.8364C56.773 2.13489 56.6249 1.73287 56.3921 1.38163C56.1636 1.03039 55.8399 0.755328 55.4209 0.556435C55.0062 0.35331 54.4857 0.251747 53.8594 0.251747C53.3516 0.251747 52.8967 0.332151 52.4947 0.492958C52.0969 0.649534 51.7583 0.880165 51.479 1.18485C51.204 1.48954 50.9945 1.85982 50.8506 2.29569C50.7067 2.73156 50.6348 3.22668 50.6348 3.78104V4.31425C50.6348 4.87284 50.7152 5.37219 50.876 5.81229C51.041 6.24817 51.2717 6.61845 51.5679 6.92313C51.8684 7.22359 52.2217 7.45422 52.628 7.61503C53.0384 7.7716 53.4891 7.84989 53.98 7.84989C54.5725 7.84989 55.0591 7.79065 55.44 7.67216C55.8251 7.55367 56.1276 7.4119 56.3477 7.24686C56.572 7.08183 56.737 6.9316 56.8428 6.79618Z" fill="white"/>
    <path d="M63.5777 7.74833V6.78349H59.6485V4.40311H63.0254V3.44462H59.6485V1.3245H63.5396V0.35331H58.4741V7.74833H63.5777Z" fill="white"/>
    <path d="M67.875 1.3245V7.74833H66.7071V1.3245H64.187V0.35331H70.4077V1.3245H67.875Z" fill="white"/>
    <path d="M76.0445 7.74833V0.35331H74.8701V7.74833H76.0445Z" fill="white"/>
    <path fill-rule="evenodd" clip-rule="evenodd" d="M95.2652 3.84452V4.26347C95.2652 4.82206 95.189 5.32352 95.0366 5.76786C94.8843 6.20796 94.6664 6.58459 94.3828 6.89774C94.0993 7.20666 93.7587 7.44364 93.3609 7.60868C92.9673 7.76949 92.5272 7.84989 92.0406 7.84989C91.5624 7.84989 91.1244 7.76949 90.7266 7.60868C90.333 7.44364 89.9903 7.20666 89.6983 6.89774C89.4105 6.58459 89.1883 6.20796 89.0318 5.76786C88.8752 5.32352 88.7969 4.82206 88.7969 4.26347V3.84452C88.7969 3.28593 88.8752 2.78658 89.0318 2.34647C89.1883 1.90214 89.4084 1.52339 89.6919 1.21024C89.9797 0.897092 90.3203 0.660113 90.7139 0.499306C91.1117 0.334267 91.5497 0.251747 92.0279 0.251747C92.5187 0.251747 92.961 0.334267 93.3545 0.499306C93.7523 0.660113 94.093 0.897092 94.3765 1.21024C94.6642 1.52339 94.8843 1.90214 95.0366 2.34647C95.189 2.78658 95.2652 3.28593 95.2652 3.84452ZM94.1035 4.26347V3.83183C94.1035 3.41288 94.057 3.0426 93.9639 2.72099C93.8708 2.39937 93.7354 2.12854 93.5576 1.90849C93.3799 1.68843 93.162 1.52128 92.9038 1.40702C92.6457 1.29276 92.3537 1.23563 92.0279 1.23563C91.7147 1.23563 91.4312 1.29276 91.1773 1.40702C90.9234 1.52128 90.7054 1.68843 90.5235 1.90849C90.3457 2.12854 90.2082 2.39937 90.1109 2.72099C90.0135 3.0426 89.9649 3.41288 89.9649 3.83183V4.26347C89.9649 4.68241 90.0135 5.05481 90.1109 5.38065C90.2082 5.70227 90.3478 5.97522 90.5298 6.1995C90.7118 6.41955 90.9297 6.58671 91.1836 6.70097C91.4418 6.81522 91.7274 6.87235 92.0406 6.87235C92.3706 6.87235 92.6626 6.81522 92.9165 6.70097C93.1704 6.58671 93.3863 6.41955 93.564 6.1995C93.7417 5.97522 93.875 5.70227 93.9639 5.38065C94.057 5.05481 94.1035 4.68241 94.1035 4.26347Z" fill="white"/>
    <path d="M102.946 7.74833V0.35331H101.772V5.91386L97.9375 0.35331H96.7632V7.74833H97.9375V2.18778L101.772 7.74833H102.946Z" fill="white"/>
    <path d="M81.688 7.74833V1.3245H84.2207V0.35331H78V1.3245H80.52V7.74833H81.688Z" fill="white"/>
    <defs>
        <linearGradient id="paint0_linear_2358_10277" x1="136.311" y1="1.68196" x2="131.027" y2="46.5991" gradientUnits="userSpaceOnUse">
            <stop stop-color="#00A0FF"/>
            <stop offset="0.244792" stop-color="#00A1FF"/>
            <stop offset="0.505208" stop-color="#00BEFF"/>
            <stop offset="0.7604" stop-color="#00DFFF"/>
            <stop offset="0.989583" stop-color="#00E3FF"/>
        </linearGradient>
        <linearGradient id="paint1_linear_2358_10277" x1="160.357" y1="17.0056" x2="-194.499" y2="17.0056" gradientUnits="userSpaceOnUse">
            <stop stop-color="#FFE000"/>
            <stop offset="0.4087" stop-color="#FFBD00"/>
            <stop offset="0.7754" stop-color="#FFA500"/>
            <stop offset="1" stop-color="#FF9C00"/>
        </linearGradient>
        <linearGradient id="paint2_linear_2358_10277" x1="128.517" y1="6.07109" x2="95.7635" y2="116.726" gradientUnits="userSpaceOnUse">
            <stop stop-color="#FF3A44"/>
            <stop offset="1" stop-color="#C31162"/>
        </linearGradient>
        <linearGradient id="paint3_linear_2358_10277" x1="-27.9672" y1="-18.4159" x2="-13.3338" y2="30.9917" gradientUnits="userSpaceOnUse">
            <stop stop-color="#32A071"/>
            <stop offset="0.0685" stop-color="#2DA771"/>
            <stop offset="0.4762" stop-color="#15CF74"/>
            <stop offset="0.8009" stop-color="#06E775"/>
            <stop offset="1" stop-color="#00F076"/>
        </linearGradient>
    </defs>
</svg>
