<svg width="220" height="180" viewBox="0 0 220 180" fill="none" xmlns="http://www.w3.org/2000/svg">
<g clip-path="url(#clip0_113_347)">
<path d="M56 91.5221C56.135 91.5221 56.261 91.5221 56.387 91.5221C59.501 91.5221 62.615 91.5131 65.729 91.5221C66.782 91.5221 67.763 91.8461 68.573 92.5571C69.203 93.1061 69.599 93.8081 69.743 94.6361C69.896 95.4911 69.824 96.3281 69.437 97.1111C69.014 97.9841 68.348 98.5781 67.403 98.8391C67.376 98.8391 67.358 98.8481 67.331 98.8571C67.331 98.8571 67.313 98.8661 67.322 98.8571C67.565 98.9471 67.826 99.0191 68.069 99.1271C68.888 99.5051 69.437 100.153 69.815 100.963C70.103 101.593 70.22 102.259 70.166 102.943C70.085 103.96 69.734 104.86 68.987 105.571C68.429 106.102 67.763 106.426 67.016 106.57C66.566 106.651 66.098 106.705 65.639 106.705C62.975 106.714 60.311 106.705 57.647 106.705C57.584 106.705 57.53 106.705 57.449 106.705V106.507C57.449 102.196 57.449 97.8851 57.449 93.5741C57.449 93.4481 57.422 93.3401 57.332 93.2411C56.9 92.7101 56.468 92.1431 56.027 91.5851C56.027 91.5761 56.018 91.5581 56 91.5311V91.5221ZM60.725 103.852C60.779 103.852 60.824 103.852 60.869 103.852C61.895 103.852 62.912 103.852 63.938 103.852C64.433 103.852 64.928 103.879 65.414 103.807C66.584 103.636 67.007 102.637 66.782 101.683C66.584 100.846 65.882 100.414 65.045 100.405C63.659 100.387 62.273 100.405 60.887 100.405C60.833 100.405 60.788 100.405 60.725 100.405V103.852ZM60.725 97.5431C60.77 97.5431 60.806 97.5431 60.842 97.5431C62.192 97.5431 63.533 97.5431 64.883 97.5431C65.198 97.5431 65.504 97.4711 65.783 97.3181C66.692 96.8231 66.755 95.6351 66.242 94.9781C65.882 94.5191 65.369 94.3571 64.811 94.3571C63.488 94.3481 62.174 94.3571 60.851 94.3571C60.806 94.3571 60.761 94.3571 60.716 94.3571V97.5341L60.725 97.5431Z" fill="#0A1622"/>
<path d="M88.0398 106.723H84.7818V106.525C84.7818 102.205 84.7818 97.8851 84.7818 93.5651C84.7818 93.4571 84.7548 93.3671 84.6828 93.2861C84.2328 92.7191 83.7828 92.1431 83.3328 91.5671C83.3148 91.5491 83.3058 91.5221 83.2788 91.4771C83.3328 91.4771 83.3778 91.4771 83.4228 91.4771C84.9528 91.4771 86.4828 91.4771 88.0128 91.4771C88.0938 91.4771 88.1478 91.4951 88.2018 91.5671C88.8768 92.4851 95.0058 100.801 95.1588 101.017V91.4771H98.4258V106.66C98.4258 106.66 98.3358 106.66 98.2998 106.66C97.3458 106.66 96.3918 106.66 95.4378 106.66C95.3478 106.66 95.2848 106.633 95.2218 106.561C94.3848 105.409 88.8948 97.9211 88.0668 96.7871C88.0668 96.7871 88.0668 96.7871 88.0308 96.7871V106.714L88.0398 106.723Z" fill="#0A1622"/>
<path d="M118.478 106.723V106.525C118.478 102.214 118.478 97.9031 118.478 93.5921C118.478 93.4571 118.442 93.3581 118.361 93.2591C117.902 92.6831 117.443 92.0981 116.993 91.5221C116.993 91.5221 116.993 91.5041 116.984 91.4771C117.029 91.4771 117.065 91.4771 117.11 91.4771C118.64 91.4771 120.179 91.4771 121.709 91.4771C121.799 91.4771 121.853 91.5041 121.907 91.5761C123.032 93.1061 127.181 98.7311 128.135 100.027C128.342 100.306 128.549 100.594 128.756 100.873C128.783 100.909 128.81 100.945 128.864 101.017V91.4771H132.122V106.669H131.987C131.042 106.669 130.097 106.669 129.152 106.669C129.044 106.669 128.981 106.633 128.918 106.552C128.144 105.49 122.42 97.6781 121.844 96.8861C121.826 96.8591 121.808 96.8321 121.763 96.7781V106.714H118.487L118.478 106.723Z" fill="#0A1622"/>
<path d="M164 106.732C163.937 106.732 163.892 106.732 163.847 106.732C162.713 106.732 161.588 106.732 160.454 106.732C160.346 106.732 160.301 106.696 160.265 106.597C159.986 105.832 159.689 105.067 159.41 104.293C159.374 104.185 159.32 104.149 159.203 104.149C157.124 104.149 155.054 104.149 152.975 104.149C152.858 104.149 152.804 104.194 152.759 104.302C152.48 105.058 152.192 105.814 151.913 106.579C151.877 106.678 151.832 106.732 151.706 106.732C150.59 106.732 149.465 106.732 148.349 106.732C148.304 106.732 148.259 106.732 148.187 106.732C148.277 106.498 153.164 93.8081 153.281 93.4931C153.299 93.4481 153.281 93.3761 153.245 93.3311C152.786 92.7371 152.318 92.1431 151.859 91.5491C151.85 91.5311 151.832 91.5131 151.814 91.4771C151.877 91.4771 151.922 91.4771 151.967 91.4771C153.965 91.4771 155.954 91.4771 157.952 91.4771C158.06 91.4771 158.114 91.5041 158.15 91.6031C158.546 92.6471 163.424 105.22 163.901 106.462C163.937 106.543 163.964 106.624 164.009 106.732H164ZM156.017 94.7531C155.225 96.9401 154.442 99.1001 153.65 101.26H158.384C157.592 99.0911 156.818 96.9401 156.017 94.7531Z" fill="#0A1622"/>
<path d="M147.458 94.8251C146.603 95.3021 145.748 95.7701 144.902 96.2381C144.74 96.0401 144.587 95.8421 144.425 95.6621C143.858 95.0411 143.165 94.6181 142.337 94.4381C141.284 94.2041 140.267 94.3301 139.304 94.8161C138.26 95.3381 137.558 96.1661 137.144 97.2551C136.955 97.7411 136.856 98.2541 136.82 98.7761C136.73 100.108 137.027 101.323 137.864 102.376C138.611 103.312 139.601 103.825 140.789 103.987C141.788 104.113 142.733 103.924 143.624 103.474C143.921 103.33 144.182 103.123 144.452 102.934C144.488 102.907 144.515 102.862 144.524 102.826C144.524 102.259 144.524 101.701 144.524 101.116C144.47 101.116 144.416 101.116 144.371 101.116C143.903 101.116 143.435 101.116 142.967 101.116C142.868 101.116 142.805 101.089 142.742 101.008C142.067 100.162 141.392 99.3161 140.717 98.4701C140.699 98.4431 140.681 98.4161 140.654 98.3711H147.62C147.62 98.4251 147.62 98.4791 147.62 98.5331C147.62 100.279 147.62 102.025 147.62 103.771C147.62 103.933 147.575 104.059 147.467 104.176C146.486 105.193 145.334 105.94 143.984 106.363C143.291 106.579 142.589 106.696 141.869 106.732C140.492 106.804 139.16 106.588 137.9 106.039C137.162 105.724 136.496 105.283 135.893 104.743C134.714 103.681 134.003 102.358 133.679 100.819C133.598 100.45 133.571 100.063 133.544 99.6851C133.454 98.5151 133.607 97.3811 134.03 96.2831C134.327 95.4911 134.759 94.7801 135.317 94.1411C136.28 93.0431 137.477 92.3231 138.863 91.9001C139.484 91.7111 140.132 91.6031 140.789 91.5671C141.752 91.5041 142.697 91.5761 143.624 91.8461C144.587 92.1251 145.433 92.6021 146.18 93.2681C146.675 93.7091 147.098 94.2221 147.458 94.7801C147.467 94.7981 147.476 94.8161 147.485 94.8431L147.458 94.8251Z" fill="#0A1622"/>
<path d="M71.543 91.531H82.343V94.357H74.819V97.552H81.029V100.396H74.819V103.852C74.819 103.852 74.909 103.852 74.954 103.852C77.348 103.852 79.742 103.852 82.136 103.852C82.256 103.852 82.316 103.915 82.316 104.041C82.316 104.887 82.316 105.733 82.316 106.579C82.316 106.615 82.316 106.651 82.316 106.705H71.543V91.531Z" fill="#0A1622"/>
<path d="M99.8032 94.366V91.531H111.368C111.368 91.828 111.368 92.134 111.368 92.431C111.368 92.953 111.368 93.475 111.368 94.006C111.368 94.087 111.341 94.177 111.296 94.24C110.504 95.302 104.807 102.853 104.132 103.753C104.114 103.78 104.087 103.816 104.051 103.87H111.386V106.723H99.8032C99.8032 106.669 99.8032 106.606 99.8032 106.552C99.8032 105.805 99.8032 105.067 99.8032 104.32C99.8032 104.167 99.8392 104.05 99.9292 103.933C100.811 102.745 106.571 94.933 106.895 94.483C106.913 94.456 106.94 94.42 106.976 94.366H99.8122H99.8032Z" fill="#0A1622"/>
<path d="M115.994 91.4771V106.723H112.763V91.4771H115.994Z" fill="#0A1622"/>
</g>
<g clip-path="url(#clip1_113_347)">
<path d="M137.013 52.6703C136.447 52.3256 135.824 52.0917 135.179 51.9754C135.631 51.7271 136.048 51.4112 136.422 51.0333C137.779 49.659 138.314 47.6363 137.818 45.7566C137.717 45.3731 137.422 45.0739 137.044 44.9719C136.59 44.8489 136.119 44.7868 135.648 44.7868C135.458 44.7868 135.269 44.7979 135.082 44.8168C135.451 44.451 135.773 44.0321 136.03 43.5633C136.959 41.8631 136.924 39.7695 135.937 38.1015C135.736 37.7612 135.369 37.5573 134.979 37.5628C134.306 37.575 133.653 37.718 133.047 37.9685C133.305 37.5119 133.502 37.0164 133.621 36.4922C134.053 34.5981 133.45 32.5965 132.046 31.2676C131.761 30.9972 131.353 30.9019 130.979 31.0182C130.13 31.282 129.374 31.7531 128.763 32.3682C128.65 32.0933 128.518 31.824 128.359 31.568C127.367 29.9598 125.657 29 123.783 29C123.722 29 123.661 29 123.599 29.0033C123.208 29.0166 122.853 29.2416 122.671 29.5918C121.771 31.3108 121.844 33.4022 122.86 35.0514C123.019 35.3074 123.197 35.5457 123.388 35.7674C122.572 36.0577 121.824 36.5432 121.224 37.196C120.957 37.4853 120.863 37.8987 120.978 38.2777C121.382 39.6132 122.276 40.7238 123.44 41.4065C123.407 41.5162 123.388 41.6304 123.39 41.7478C123.416 43.1443 123.973 44.461 124.906 45.443C124.845 45.5394 124.796 45.6436 124.766 45.7577C124.411 47.1076 124.589 48.5296 125.218 49.7332C125.133 49.8086 125.056 49.8951 124.997 49.9959C124.288 51.194 124.073 52.6104 124.35 53.9437C124.247 53.9925 124.151 54.0557 124.066 54.1355C123.059 55.0886 122.466 56.3909 122.37 57.7497C122.258 57.7674 122.149 57.8007 122.045 57.855C120.817 58.49 119.894 59.5751 119.432 60.8552C119.321 60.8419 119.206 60.843 119.092 60.8663C117.207 61.2387 115.649 62.613 115.023 64.4506C114.555 65.8293 114.659 67.33 115.272 68.6145C113.589 69.0722 111.822 69.3183 109.999 69.3183C108.175 69.3183 106.408 69.0722 104.726 68.6145C105.338 67.33 105.443 65.8293 104.974 64.4506C104.349 62.613 102.79 61.2387 100.905 60.8663C100.791 60.8441 100.677 60.8419 100.565 60.8563C100.103 59.5773 99.1792 58.4923 97.952 57.8561C97.8481 57.8029 97.7387 57.7685 97.6271 57.7508C97.5309 56.392 96.9392 55.0908 95.9307 54.1366C95.8454 54.0557 95.7503 53.9936 95.6475 53.9448C95.9253 52.6115 95.7098 51.1951 95 49.997C94.9398 49.8962 94.8643 49.8086 94.7801 49.7332C95.409 48.5296 95.5873 47.1076 95.2318 45.7577C95.2023 45.6447 95.1531 45.5394 95.0918 45.443C96.0237 44.461 96.5826 43.1443 96.6078 41.7478C96.61 41.6304 96.5914 41.5151 96.5586 41.4065C97.7212 40.7238 98.6159 39.6132 99.0206 38.2777C99.1354 37.8987 99.0414 37.4864 98.7745 37.196C98.174 36.5443 97.4259 36.0577 96.61 35.7674C96.8025 35.5457 96.9807 35.3074 97.1382 35.0514C98.1554 33.4022 98.2276 31.3108 97.3275 29.5918C97.1437 29.2416 96.7893 29.0166 96.3989 29.0033C96.3376 29.0011 96.2764 29 96.2151 29C94.3415 29 92.6309 29.9598 91.64 31.568C91.4814 31.8251 91.349 32.0933 91.2364 32.3682C90.625 31.7531 89.8692 31.282 89.0204 31.0182C88.6464 30.9019 88.2395 30.9972 87.9529 31.2676C86.5496 32.5954 85.9459 34.5981 86.3779 36.4922C86.4971 37.0164 86.6951 37.513 86.9521 37.9685C86.3462 37.718 85.6932 37.575 85.0206 37.5628C84.6268 37.5562 84.2637 37.7612 84.0625 38.1004C83.0748 39.7695 83.0387 41.862 83.9695 43.5621C84.2254 44.031 84.5481 44.4499 84.9178 44.8156C84.7307 44.7957 84.5426 44.7857 84.3512 44.7857C83.8798 44.7857 83.4106 44.8478 82.9556 44.9708C82.5771 45.0728 82.2818 45.372 82.1812 45.7555C81.6857 47.6352 82.2206 49.6579 83.5779 51.0322C83.9509 51.4101 84.3698 51.726 84.8215 51.9743C84.1762 52.0906 83.5539 52.3245 82.9873 52.6692C82.6515 52.8731 82.4492 53.2433 82.4557 53.6401C82.4907 55.5851 83.555 57.3795 85.2328 58.3216C85.6911 58.5787 86.1843 58.7638 86.6929 58.8779C86.1045 59.1683 85.5653 59.5673 85.1103 60.0605C84.8434 60.3498 84.7493 60.7621 84.8642 61.1422C85.4275 63.0031 86.9379 64.4306 88.8071 64.8673C89.2075 64.9615 89.6165 65.008 90.0234 65.008C90.1371 65.008 90.2509 65.0025 90.3636 64.9958C89.8779 65.437 89.4667 65.9678 89.1615 66.573C88.9832 66.9265 89.0051 67.3488 89.2184 67.6813C90.2181 69.2385 91.9068 70.1684 93.7356 70.1684C93.8307 70.1684 93.927 70.1661 94.0221 70.1606C94.5526 70.1329 95.0689 70.022 95.5578 69.8436C95.2089 70.4044 94.9573 71.0317 94.8282 71.7011C94.7528 72.0902 94.8895 72.4903 95.1848 72.7507C96.1681 73.6152 97.4237 74.0907 98.722 74.0907C99.3181 74.0907 99.9087 73.9898 100.477 73.7914C101.976 73.2683 103.159 72.099 103.734 70.6316C104.359 70.8156 104.997 70.9719 105.644 71.1016C105.23 71.5072 104.867 71.9727 104.571 72.4903C104.269 73.02 104.449 73.6983 104.972 74.0042C105.494 74.3101 106.164 74.1284 106.466 73.5986C107.192 72.3229 108.546 71.5316 109.999 71.5316C111.451 71.5316 112.806 72.324 113.531 73.5986C113.734 73.9544 114.101 74.1527 114.48 74.1527C114.666 74.1527 114.854 74.1051 115.025 74.0042C115.548 73.6983 115.728 73.02 115.426 72.4903C115.13 71.9727 114.767 71.5072 114.353 71.1016C115 70.973 115.637 70.8156 116.264 70.6316C116.838 72.099 118.022 73.2683 119.52 73.7914C120.088 73.9898 120.678 74.0907 121.275 74.0907C122.573 74.0907 123.829 73.6141 124.811 72.7496C125.107 72.4892 125.243 72.0891 125.168 71.7C125.039 71.0317 124.787 70.4044 124.438 69.8425C124.926 70.0209 125.442 70.1307 125.973 70.1595C126.068 70.165 126.164 70.1639 126.259 70.1672C128.088 70.1672 129.777 69.2374 130.777 67.6802C130.99 67.3477 131.012 66.9243 130.833 66.5719C130.528 65.9667 130.117 65.437 129.632 64.9947C129.745 65.0025 129.859 65.0069 129.973 65.0069C130.379 65.0069 130.789 64.9593 131.189 64.8662C133.058 64.4295 134.569 63.002 135.132 61.1411C135.247 60.7621 135.153 60.3498 134.886 60.0594C134.431 59.5662 133.893 59.1672 133.303 58.8768C133.812 58.7638 134.304 58.5787 134.763 58.3205C136.441 57.3784 137.505 55.584 137.54 53.6389C137.548 53.2422 137.346 52.872 137.01 52.6681L137.013 52.6703ZM94.884 56.2745C95.3948 57.0193 95.5829 57.9603 95.3773 58.8602C95.1717 59.7602 94.5964 60.5227 93.8154 60.9649C93.3057 60.2201 93.1165 59.2792 93.3221 58.3792C93.5267 57.4793 94.1031 56.7167 94.884 56.2745ZM91.3381 53.3463C91.78 52.5384 92.5412 51.9665 93.4118 51.7592C93.6995 52.6171 93.6251 53.5747 93.1832 54.3826C92.7414 55.1906 91.9801 55.7625 91.1095 55.9697C90.8218 55.1108 90.8962 54.1543 91.3381 53.3463ZM90.0267 50.416C89.9731 50.416 89.9195 50.4149 89.8659 50.4115C89.8221 49.506 90.1546 48.6061 90.8 47.9533C91.4048 47.3404 92.2098 47.0024 93.0651 47.0024C93.1187 47.0024 93.1723 47.0035 93.2259 47.0068C93.2696 47.9123 92.9371 48.8122 92.2918 49.465C91.687 50.0779 90.882 50.416 90.0267 50.416ZM93.4961 32.7417C93.9839 31.9514 94.7637 31.4239 95.6486 31.2654C95.8925 32.1387 95.7678 33.0908 95.2843 33.8744C94.7965 34.6646 94.0167 35.1922 93.1318 35.3506C92.8879 34.4773 93.0126 33.5252 93.4961 32.7417ZM94.1129 37.7579C94.3514 37.7025 94.5953 37.6737 94.837 37.6737C95.4921 37.6737 96.1309 37.882 96.6646 38.2578C96.2271 39.0491 95.4757 39.6332 94.5865 39.8415C94.3481 39.8969 94.1042 39.9258 93.8625 39.9258C93.2073 39.9258 92.5686 39.7174 92.0348 39.3417C92.4723 38.5503 93.2237 37.9663 94.1118 37.759L94.1129 37.7579ZM91.7493 42.6201C92.224 42.353 92.76 42.2122 93.2981 42.2122C93.6536 42.2122 94.0046 42.2721 94.3382 42.3873C94.1337 43.2707 93.5693 44.042 92.772 44.4898C92.2973 44.7569 91.7614 44.8977 91.2232 44.8977C90.8678 44.8977 90.5167 44.8378 90.1831 44.7226C90.3876 43.8392 90.952 43.0678 91.7493 42.6201ZM89.004 33.4078C89.785 33.85 90.3614 34.6125 90.5659 35.5125C90.7125 36.1553 90.6567 36.8181 90.4281 37.4165C90.3023 37.6404 90.1798 37.8654 90.0617 38.0926C89.2862 37.6493 88.7131 36.8901 88.5096 35.9935C88.304 35.0935 88.4932 34.1526 89.0029 33.4078H89.004ZM85.655 39.8648C86.5256 40.0721 87.2868 40.644 87.7287 41.4519C88.0404 42.0227 88.1684 42.6666 88.1159 43.2995C88.0546 43.5555 87.9967 43.8137 87.9442 44.072C87.079 43.8614 86.3221 43.2917 85.8836 42.4882C85.4417 41.6802 85.3662 40.7238 85.655 39.8648ZM84.1926 47.0068C84.2462 47.0046 84.2998 47.0024 84.3534 47.0024C85.2087 47.0024 86.0137 47.3404 86.6186 47.9533C87.0812 48.4221 87.382 49.0184 87.5001 49.6523C87.51 49.9061 87.5231 50.1599 87.5417 50.4115C87.4914 50.4137 87.4421 50.4149 87.3918 50.4149C86.5365 50.4149 85.7315 50.0768 85.1267 49.4639C84.4825 48.8111 84.15 47.9112 84.1926 47.0057V47.0068ZM86.2948 56.3842C85.4975 55.9365 84.9331 55.1651 84.7286 54.2818C85.0621 54.1665 85.4132 54.1067 85.7687 54.1067C86.3068 54.1067 86.8428 54.2474 87.3175 54.5145C87.8851 54.8337 88.3346 55.318 88.6201 55.8888C88.7011 56.1349 88.7842 56.3787 88.8728 56.6203C88.5425 56.7334 88.1946 56.7921 87.8436 56.7921C87.3054 56.7921 86.7695 56.6513 86.2937 56.3842H86.2948ZM90.0256 62.7925C89.7839 62.7925 89.54 62.7637 89.3015 62.7083C88.4134 62.501 87.6609 61.9169 87.2245 61.1256C87.7582 60.7499 88.397 60.5415 89.0521 60.5415C89.2939 60.5415 89.5378 60.5703 89.7762 60.6258C90.4314 60.7787 91.0121 61.1378 91.4475 61.6321C91.5798 61.8272 91.7154 62.0189 91.8532 62.2095C91.3195 62.5853 90.6807 62.7925 90.0267 62.7925H90.0256ZM93.9106 67.9473C92.9875 67.9961 92.1157 67.6469 91.4825 67.0074C92.0479 66.3048 92.889 65.8614 93.8001 65.8127C94.475 65.7772 95.1214 65.9545 95.6671 66.3014C95.8509 66.4555 96.0379 66.6062 96.2271 66.7536C95.6606 67.4552 94.8206 67.8985 93.9106 67.9462V67.9473ZM97.5276 60.2035C98.2211 60.7765 98.6575 61.6288 98.7056 62.5509C98.7526 63.473 98.407 64.3674 97.777 65.0103C97.0836 64.4361 96.6471 63.585 96.599 62.6628C96.5509 61.7407 96.8976 60.8474 97.5276 60.2035ZM99.7665 71.6967C98.9079 71.996 97.9542 71.9051 97.1765 71.4706C97.5298 70.6372 98.2178 69.9766 99.0796 69.6751C99.6965 69.4601 100.362 69.4468 100.975 69.6175C101.204 69.7195 101.433 69.817 101.665 69.9112C101.311 70.7402 100.625 71.3964 99.7676 71.6967H99.7665ZM102.684 67.7943C101.861 67.4364 101.209 66.7392 100.913 65.8659C100.616 64.9925 100.706 64.0372 101.137 63.2425C101.959 63.6005 102.611 64.2976 102.908 65.1698C103.204 66.0432 103.114 66.9986 102.684 67.7943ZM135.649 47.0035C135.703 47.0035 135.756 47.0046 135.81 47.0079C135.854 47.9134 135.521 48.8133 134.876 49.4661C134.271 50.079 133.466 50.4171 132.611 50.4171C132.56 50.4171 132.511 50.416 132.461 50.4137C132.479 50.1622 132.493 49.9084 132.502 49.6546C132.619 49.0206 132.92 48.4243 133.384 47.9555C133.989 47.3426 134.793 47.0046 135.649 47.0046V47.0035ZM132.273 41.4519C132.715 40.644 133.476 40.0732 134.347 39.8648C134.634 40.7226 134.56 41.6802 134.117 42.4882C133.677 43.2917 132.921 43.8614 132.056 44.072C132.004 43.8126 131.946 43.5555 131.884 43.2995C131.832 42.6677 131.96 42.0227 132.273 41.4519ZM129.436 35.5125C129.641 34.6125 130.217 33.85 130.997 33.4078C131.507 34.1526 131.696 35.0935 131.491 35.9935C131.287 36.889 130.714 37.6482 129.939 38.0926C129.821 37.8654 129.698 37.6404 129.572 37.4165C129.344 36.8181 129.288 36.1553 129.434 35.5125H129.436ZM127.71 49.465C127.065 48.8122 126.733 47.9123 126.776 47.0068C126.829 47.0046 126.883 47.0024 126.936 47.0024C127.792 47.0024 128.597 47.3404 129.202 47.9533C129.846 48.6061 130.178 49.506 130.136 50.4115C130.082 50.4137 130.028 50.416 129.975 50.416C129.119 50.416 128.314 50.0779 127.71 49.465ZM128.892 55.9697C128.021 55.7625 127.26 55.1906 126.817 54.3826C126.375 53.5747 126.3 52.6182 126.589 51.7592C127.459 51.9665 128.22 52.5384 128.662 53.3463C129.104 54.1543 129.18 55.1119 128.892 55.9697ZM129.817 44.7226C129.484 44.8378 129.133 44.8977 128.777 44.8977C128.239 44.8977 127.703 44.7569 127.228 44.4898C126.431 44.042 125.867 43.2696 125.662 42.3873C125.996 42.2721 126.347 42.2122 126.702 42.2122C127.24 42.2122 127.776 42.353 128.251 42.6201C129.048 43.0678 129.613 43.8392 129.817 44.7226ZM124.351 31.2665C125.237 31.425 126.017 31.9526 126.503 32.7428C126.987 33.5264 127.11 34.4795 126.867 35.3518C125.982 35.1933 125.202 34.6657 124.715 33.8755C124.232 33.0919 124.108 32.1387 124.351 31.2665ZM123.335 38.2589C123.868 37.8831 124.507 37.6748 125.162 37.6748C125.404 37.6748 125.648 37.7025 125.886 37.759C126.774 37.9674 127.527 38.5515 127.963 39.3428C127.43 39.7185 126.791 39.9269 126.136 39.9269C125.894 39.9269 125.65 39.8981 125.412 39.8426C124.524 39.6343 123.771 39.0502 123.335 38.2589ZM125.115 56.2756C125.896 56.7178 126.473 57.4804 126.677 58.3803C126.883 59.2803 126.694 60.2212 126.184 60.966C125.403 60.5238 124.827 59.7613 124.622 58.8613C124.416 57.9614 124.606 57.0204 125.115 56.2756ZM117.316 67.7954C116.885 67.0008 116.795 66.0443 117.092 65.1721C117.388 64.2987 118.04 63.6016 118.862 63.2436C119.293 64.0383 119.383 64.9947 119.087 65.867C118.79 66.7403 118.138 67.4375 117.316 67.7954ZM120.234 71.6978C119.375 71.3986 118.689 70.7413 118.335 69.9123C118.571 69.817 118.804 69.7162 119.036 69.6131C119.309 69.5377 119.591 69.4978 119.877 69.4978C120.231 69.4978 120.582 69.5577 120.921 69.6751C121.783 69.9755 122.471 70.6372 122.824 71.4706C122.046 71.9062 121.094 71.996 120.234 71.6967V71.6978ZM123.401 62.6651C123.354 63.5872 122.917 64.4395 122.223 65.0125C121.593 64.3685 121.247 63.4752 121.295 62.5531C121.342 61.631 121.779 60.7787 122.473 60.2057C123.103 60.8496 123.449 61.7429 123.401 62.6651ZM126.262 67.9539C126.205 67.9539 126.147 67.9528 126.09 67.9495C125.18 67.9018 124.339 67.4585 123.773 66.7558C123.962 66.6073 124.149 66.4566 124.333 66.3025C124.88 65.9556 125.525 65.7772 126.2 65.8138C127.11 65.8625 127.952 66.3059 128.518 67.0085C127.924 67.6092 127.118 67.9539 126.262 67.9539ZM130.699 62.7094C130.46 62.7648 130.217 62.7936 129.975 62.7936C129.321 62.7936 128.681 62.5864 128.148 62.2106C128.286 62.02 128.422 61.8283 128.554 61.6332C128.989 61.1389 129.57 60.7798 130.225 60.6269C130.464 60.5715 130.708 60.5426 130.949 60.5426C131.604 60.5426 132.243 60.751 132.777 61.1267C132.339 61.9181 131.588 62.5021 130.7 62.7094H130.699ZM133.704 56.3853C133.23 56.6525 132.694 56.7932 132.156 56.7932C131.805 56.7932 131.457 56.7345 131.127 56.6214C131.215 56.3798 131.299 56.136 131.379 55.891C131.665 55.3203 132.114 54.8359 132.682 54.5167C133.157 54.2496 133.692 54.1089 134.231 54.1089C134.586 54.1089 134.937 54.1687 135.271 54.284C135.066 55.1673 134.502 55.9387 133.704 56.3865V56.3853Z" fill="#9F9F9F"/>
<path d="M104.121 74.7833C103.518 74.7833 103.027 75.281 103.027 75.8916C103.027 76.5023 103.518 77 104.121 77C104.724 77 105.215 76.5023 105.215 75.8916C105.215 75.281 104.724 74.7833 104.121 74.7833Z" fill="#9F9F9F"/>
<path d="M115.879 74.7833C115.276 74.7833 114.785 75.281 114.785 75.8916C114.785 76.5023 115.276 77 115.879 77C116.482 77 116.973 76.5023 116.973 75.8916C116.973 75.281 116.482 74.7833 115.879 74.7833Z" fill="#9F9F9F"/>
</g>
<path d="M47.4035 127.618L47.1045 124.16H48.8335L48.5215 127.618H47.4035ZM49.8865 127.618L49.5745 124.16H51.3165L51.0045 127.618H49.8865ZM52.8725 133V124.16H56.3305C58.3195 124.16 59.5545 125.161 59.5545 126.773C59.5545 127.761 59.1255 128.45 58.3715 128.853C58.8265 129.139 59.0995 129.607 59.2815 130.335L59.9445 133H58.1245L57.6045 130.66C57.3965 129.75 57.0585 129.568 56.1875 129.568H54.6275V133H52.8725ZM56.2915 125.551H54.6275V128.19H56.2525C57.2405 128.19 57.7605 127.67 57.7605 126.864C57.7605 126.071 57.2275 125.551 56.2915 125.551ZM67.4155 130.725C67.0385 132.337 65.7905 133.195 64.1265 133.195C62.0205 133.195 60.7335 131.804 60.7335 129.529C60.7335 127.163 62.0335 125.837 64.0615 125.837C66.1025 125.837 67.3635 127.215 67.3635 129.464V129.854H62.4495C62.5275 131.128 63.1125 131.83 64.1265 131.83C64.9065 131.83 65.4395 131.466 65.6605 130.725H67.4155ZM64.0615 127.202C63.1775 127.202 62.6445 127.761 62.4885 128.814H65.6215C65.4655 127.774 64.9325 127.202 64.0615 127.202ZM74.6442 128.502H72.9802C72.8242 127.592 72.2782 127.215 71.5762 127.215C70.5492 127.215 70.0032 128.034 70.0032 129.529C70.0032 130.998 70.5752 131.817 71.6282 131.817C72.3432 131.817 72.8502 131.427 73.0192 130.634H74.6962C74.3842 132.376 73.1622 133.195 71.5892 133.195C69.5352 133.195 68.2872 131.791 68.2872 129.529C68.2872 127.163 69.5742 125.837 71.5762 125.837C73.1622 125.837 74.4102 126.721 74.6442 128.502ZM78.8645 133.195C76.7975 133.195 75.5235 131.804 75.5235 129.529C75.5235 127.163 76.8365 125.837 78.8645 125.837C80.9185 125.837 82.1925 127.241 82.1925 129.529C82.1925 131.869 80.8795 133.195 78.8645 133.195ZM78.8645 131.817C79.9175 131.817 80.4765 131.011 80.4765 129.529C80.4765 128.047 79.9045 127.215 78.8645 127.215C77.7985 127.215 77.2395 128.034 77.2395 129.529C77.2395 130.998 77.8115 131.817 78.8645 131.817ZM83.4023 133V126.032H85.0663V127.046C85.5213 126.214 86.2233 125.837 86.9773 125.837C87.2633 125.837 87.5233 125.915 87.6533 126.032V127.475C87.4323 127.41 87.1853 127.384 86.8863 127.384C85.6253 127.384 85.0663 128.138 85.0663 129.295V133H83.4023ZM91.0172 133.195C89.1972 133.195 88.0792 131.804 88.0792 129.529C88.0792 127.163 89.2232 125.837 91.0172 125.837C91.7842 125.837 92.4212 126.162 92.8502 126.786V123.64H94.5142V133H92.8502V132.207C92.4082 132.844 91.7842 133.195 91.0172 133.195ZM91.3162 131.817C92.3172 131.817 92.8502 131.011 92.8502 129.529C92.8502 128.047 92.2912 127.215 91.3162 127.215C90.3282 127.215 89.7952 128.034 89.7952 129.529C89.7952 130.998 90.3412 131.817 91.3162 131.817ZM96.0081 130.166V128.749H99.5701V130.166H96.0081ZM101.191 133V124.16H104.597C106.534 124.16 107.743 125.109 107.743 126.617C107.743 127.397 107.353 127.995 106.664 128.333C107.678 128.671 108.237 129.425 108.237 130.439C108.237 132.064 107.067 133 105.039 133H101.191ZM104.558 125.551H102.946V127.839H104.519C105.455 127.839 105.949 127.384 105.949 126.708C105.949 125.993 105.442 125.551 104.558 125.551ZM104.896 129.139H102.946V131.609H105C105.91 131.609 106.443 131.115 106.443 130.374C106.443 129.633 105.884 129.139 104.896 129.139ZM109.44 133V126.032H111.104V127.046C111.559 126.214 112.261 125.837 113.015 125.837C113.301 125.837 113.561 125.915 113.691 126.032V127.475C113.47 127.41 113.223 127.384 112.924 127.384C111.663 127.384 111.104 128.138 111.104 129.295V133H109.44ZM120.799 130.725C120.422 132.337 119.174 133.195 117.51 133.195C115.404 133.195 114.117 131.804 114.117 129.529C114.117 127.163 115.417 125.837 117.445 125.837C119.486 125.837 120.747 127.215 120.747 129.464V129.854H115.833C115.911 131.128 116.496 131.83 117.51 131.83C118.29 131.83 118.823 131.466 119.044 130.725H120.799ZM117.445 127.202C116.561 127.202 116.028 127.761 115.872 128.814H119.005C118.849 127.774 118.316 127.202 117.445 127.202ZM123.608 128.32H121.931C122.152 126.773 123.283 125.837 125.038 125.837C126.975 125.837 127.963 126.981 127.963 128.593V131.297C127.963 132.155 128.041 132.636 128.171 133H126.442C126.351 132.766 126.312 132.428 126.299 132.051C125.727 132.857 124.869 133.195 124.037 133.195C122.672 133.195 121.697 132.519 121.697 131.18C121.697 130.231 122.23 129.516 123.296 129.165C124.219 128.853 125.116 128.775 126.286 128.762V128.593C126.286 127.696 125.857 127.215 124.934 127.215C124.141 127.215 123.712 127.657 123.608 128.32ZM123.374 131.089C123.374 131.622 123.79 131.96 124.466 131.96C125.493 131.96 126.286 131.128 126.286 130.088V129.789C123.92 129.828 123.374 130.387 123.374 131.089ZM129.55 133V123.64H131.214V128.944L133.736 126.032H135.686L132.878 129.126L135.881 133H133.84L131.214 129.633V133H129.55ZM136.761 125.252V123.64H138.425V125.252H136.761ZM136.761 133V126.032H138.425V133H136.761ZM139.947 133V126.032H141.611V126.968C142.066 126.214 142.794 125.837 143.678 125.837C145.069 125.837 146.018 126.669 146.018 128.359V133H144.354V128.697C144.354 127.748 143.951 127.215 143.106 127.215C142.183 127.215 141.611 128.021 141.611 128.957V133H139.947ZM150.087 133.026C148.319 133.026 147.227 131.661 147.227 129.438C147.227 127.124 148.345 125.837 150.087 125.837C150.919 125.837 151.569 126.149 151.998 126.734V126.032H153.662V133.221C153.662 135.106 152.362 136.068 150.633 136.068C148.917 136.068 147.669 135.275 147.422 133.624H149.099C149.203 134.365 149.801 134.755 150.607 134.755C151.439 134.755 151.998 134.352 151.998 133.247V132.077C151.543 132.701 150.893 133.026 150.087 133.026ZM150.464 131.648C151.465 131.648 151.998 130.868 151.998 129.438C151.998 128.021 151.439 127.215 150.464 127.215C149.476 127.215 148.943 127.995 148.943 129.438C148.943 130.855 149.476 131.648 150.464 131.648ZM157.799 133V124.16H164.013V125.551H159.554V127.761H163.519V129.139H159.554V131.609H164.013V133H157.799ZM171.578 133L170.902 131.167H167.132L166.456 133H164.701L168.029 124.16H170.096L173.424 133H171.578ZM168.757 126.786L167.639 129.815H170.395L169.277 126.786L169.017 125.876L168.757 126.786ZM75.3827 148V147.584C75.3827 143.84 79.8157 144.048 79.8157 142.072C79.8157 141.292 79.3477 140.824 78.5287 140.824C77.6317 140.824 77.1767 141.305 77.0467 142.111H75.3437C75.5777 140.473 76.7347 139.446 78.5417 139.446C80.4917 139.446 81.4927 140.603 81.4927 142.059C81.4927 144.568 77.8137 144.789 77.1247 146.726H81.5187V148H75.3827ZM85.954 148.195C83.848 148.195 82.613 146.57 82.613 143.827C82.613 141.032 83.861 139.446 85.954 139.446C88.06 139.446 89.295 141.071 89.295 143.827C89.295 146.609 88.047 148.195 85.954 148.195ZM85.954 146.791C87.007 146.791 87.579 145.738 87.579 143.827C87.579 141.916 86.994 140.85 85.954 140.85C84.888 140.85 84.316 141.903 84.316 143.827C84.316 145.712 84.901 146.791 85.954 146.791ZM91.2472 148V146.726H92.8072V141.656H91.2472V140.408H91.9752C92.8462 140.408 93.0932 140.2 93.0932 139.758V139.641H94.5622V146.726H96.1222V148H91.2472ZM100.973 148.195C99.0104 148.195 97.7234 147.194 97.7234 145.634C97.7234 144.724 98.2174 144.048 99.0234 143.645C98.3864 143.255 98.0094 142.644 98.0094 141.864C98.0094 140.408 99.1924 139.446 100.973 139.446C102.754 139.446 103.95 140.382 103.95 141.864C103.95 142.644 103.56 143.255 102.897 143.645C103.729 144.061 104.223 144.763 104.223 145.621C104.223 147.207 102.936 148.195 100.973 148.195ZM100.973 140.798C100.167 140.798 99.6344 141.227 99.6344 141.942C99.6344 142.683 100.167 143.112 100.973 143.112C101.779 143.112 102.312 142.67 102.312 141.942C102.312 141.201 101.792 140.798 100.973 140.798ZM100.973 146.843C101.935 146.843 102.546 146.375 102.546 145.543C102.546 144.724 101.922 144.23 100.973 144.23C100.024 144.23 99.4004 144.711 99.4004 145.556C99.4004 146.362 100.024 146.843 100.973 146.843ZM105.422 145.166V143.749H108.984V145.166H105.422ZM110.396 148V147.584C110.396 143.84 114.829 144.048 114.829 142.072C114.829 141.292 114.361 140.824 113.542 140.824C112.645 140.824 112.19 141.305 112.06 142.111H110.357C110.591 140.473 111.748 139.446 113.555 139.446C115.505 139.446 116.506 140.603 116.506 142.059C116.506 144.568 112.827 144.789 112.138 146.726H116.532V148H110.396ZM120.968 148.195C118.862 148.195 117.627 146.57 117.627 143.827C117.627 141.032 118.875 139.446 120.968 139.446C123.074 139.446 124.309 141.071 124.309 143.827C124.309 146.609 123.061 148.195 120.968 148.195ZM120.968 146.791C122.021 146.791 122.593 145.738 122.593 143.827C122.593 141.916 122.008 140.85 120.968 140.85C119.902 140.85 119.33 141.903 119.33 143.827C119.33 145.712 119.915 146.791 120.968 146.791ZM125.377 148V147.584C125.377 143.84 129.81 144.048 129.81 142.072C129.81 141.292 129.342 140.824 128.523 140.824C127.626 140.824 127.171 141.305 127.041 142.111H125.338C125.572 140.473 126.729 139.446 128.536 139.446C130.486 139.446 131.487 140.603 131.487 142.059C131.487 144.568 127.808 144.789 127.119 146.726H131.513V148H125.377ZM138.262 148H136.572V146.219H132.698V144.737L136.754 139.641H138.262V144.945H139.354V146.219H138.262V148ZM134.037 144.945H136.572V141.643L134.037 144.945ZM140.682 142.618L140.383 139.16H142.112L141.8 142.618H140.682ZM143.165 142.618L142.853 139.16H144.595L144.283 142.618H143.165Z" fill="#2E2E2E"/>
<defs>
<clipPath id="clip0_113_347">
<rect width="108" height="16.2" fill="white" transform="translate(56 91)"/>
</clipPath>
<clipPath id="clip1_113_347">
<rect width="56" height="48" fill="white" transform="translate(82 29)"/>
</clipPath>
</defs>
</svg>
