<svg width="220" height="180" viewBox="0 0 220 180" fill="none" xmlns="http://www.w3.org/2000/svg">
<g clip-path="url(#clip0_113_350)">
<path d="M137.013 49.6703C136.447 49.3256 135.824 49.0917 135.179 48.9754C135.631 48.7271 136.048 48.4112 136.422 48.0333C137.779 46.659 138.314 44.6363 137.818 42.7566C137.717 42.3731 137.422 42.0739 137.044 41.9719C136.59 41.8489 136.119 41.7868 135.648 41.7868C135.458 41.7868 135.269 41.7979 135.082 41.8168C135.451 41.451 135.773 41.0321 136.03 40.5633C136.959 38.8631 136.924 36.7695 135.937 35.1015C135.736 34.7612 135.369 34.5573 134.979 34.5628C134.306 34.575 133.653 34.718 133.047 34.9685C133.305 34.5119 133.502 34.0164 133.621 33.4922C134.053 31.5981 133.45 29.5965 132.046 28.2676C131.761 27.9972 131.353 27.9019 130.979 28.0182C130.13 28.282 129.374 28.7531 128.763 29.3682C128.65 29.0933 128.518 28.824 128.359 28.568C127.367 26.9598 125.657 26 123.783 26C123.722 26 123.661 26 123.599 26.0033C123.208 26.0166 122.853 26.2416 122.671 26.5918C121.771 28.3108 121.844 30.4022 122.86 32.0514C123.019 32.3074 123.197 32.5457 123.388 32.7674C122.572 33.0577 121.824 33.5432 121.224 34.196C120.957 34.4853 120.863 34.8987 120.978 35.2777C121.382 36.6132 122.276 37.7238 123.44 38.4065C123.407 38.5162 123.388 38.6304 123.39 38.7478C123.416 40.1443 123.973 41.461 124.906 42.443C124.845 42.5394 124.796 42.6436 124.766 42.7577C124.411 44.1076 124.589 45.5296 125.218 46.7332C125.133 46.8086 125.056 46.8951 124.997 46.9959C124.288 48.194 124.073 49.6104 124.35 50.9437C124.247 50.9925 124.151 51.0557 124.066 51.1355C123.059 52.0886 122.466 53.3909 122.37 54.7497C122.258 54.7674 122.149 54.8007 122.045 54.855C120.817 55.49 119.894 56.5751 119.432 57.8552C119.321 57.8419 119.206 57.843 119.092 57.8663C117.207 58.2387 115.649 59.613 115.023 61.4506C114.555 62.8293 114.659 64.33 115.272 65.6145C113.589 66.0722 111.822 66.3183 109.999 66.3183C108.175 66.3183 106.408 66.0722 104.726 65.6145C105.338 64.33 105.443 62.8293 104.974 61.4506C104.349 59.613 102.79 58.2387 100.905 57.8663C100.791 57.8441 100.677 57.8419 100.565 57.8563C100.103 56.5773 99.1792 55.4923 97.952 54.8561C97.8481 54.8029 97.7387 54.7685 97.6271 54.7508C97.5309 53.392 96.9392 52.0908 95.9307 51.1366C95.8454 51.0557 95.7503 50.9936 95.6475 50.9448C95.9253 49.6115 95.7098 48.1951 95 46.997C94.9398 46.8962 94.8643 46.8086 94.7801 46.7332C95.409 45.5296 95.5873 44.1076 95.2318 42.7577C95.2023 42.6447 95.1531 42.5394 95.0918 42.443C96.0237 41.461 96.5826 40.1443 96.6078 38.7478C96.61 38.6304 96.5914 38.5151 96.5586 38.4065C97.7212 37.7238 98.6159 36.6132 99.0206 35.2777C99.1354 34.8987 99.0414 34.4864 98.7745 34.196C98.174 33.5443 97.4259 33.0577 96.61 32.7674C96.8025 32.5457 96.9807 32.3074 97.1382 32.0514C98.1554 30.4022 98.2276 28.3108 97.3275 26.5918C97.1437 26.2416 96.7893 26.0166 96.3989 26.0033C96.3376 26.0011 96.2764 26 96.2151 26C94.3415 26 92.6309 26.9598 91.64 28.568C91.4814 28.8251 91.349 29.0933 91.2364 29.3682C90.625 28.7531 89.8692 28.282 89.0204 28.0182C88.6464 27.9019 88.2395 27.9972 87.9529 28.2676C86.5496 29.5954 85.9459 31.5981 86.3779 33.4922C86.4971 34.0164 86.6951 34.513 86.9521 34.9685C86.3462 34.718 85.6932 34.575 85.0206 34.5628C84.6268 34.5562 84.2637 34.7612 84.0625 35.1004C83.0748 36.7695 83.0387 38.862 83.9695 40.5621C84.2254 41.031 84.5481 41.4499 84.9178 41.8156C84.7307 41.7957 84.5426 41.7857 84.3512 41.7857C83.8798 41.7857 83.4106 41.8478 82.9556 41.9708C82.5771 42.0728 82.2818 42.372 82.1812 42.7555C81.6857 44.6352 82.2206 46.6579 83.5779 48.0322C83.9509 48.4101 84.3698 48.726 84.8215 48.9743C84.1762 49.0906 83.5539 49.3245 82.9873 49.6692C82.6515 49.8731 82.4492 50.2433 82.4557 50.6401C82.4907 52.5851 83.555 54.3795 85.2328 55.3216C85.6911 55.5787 86.1843 55.7638 86.6929 55.8779C86.1045 56.1683 85.5653 56.5673 85.1103 57.0605C84.8434 57.3498 84.7493 57.7621 84.8642 58.1422C85.4275 60.0031 86.9379 61.4306 88.8071 61.8673C89.2075 61.9615 89.6165 62.008 90.0234 62.008C90.1371 62.008 90.2509 62.0025 90.3636 61.9958C89.8779 62.437 89.4667 62.9678 89.1615 63.573C88.9832 63.9265 89.0051 64.3488 89.2184 64.6813C90.2181 66.2385 91.9068 67.1684 93.7356 67.1684C93.8307 67.1684 93.927 67.1661 94.0221 67.1606C94.5526 67.1329 95.0689 67.022 95.5578 66.8436C95.2089 67.4044 94.9573 68.0317 94.8282 68.7011C94.7528 69.0902 94.8895 69.4903 95.1848 69.7507C96.1681 70.6152 97.4237 71.0907 98.722 71.0907C99.3181 71.0907 99.9087 70.9898 100.477 70.7914C101.976 70.2683 103.159 69.099 103.734 67.6316C104.359 67.8156 104.997 67.9719 105.644 68.1016C105.23 68.5072 104.867 68.9727 104.571 69.4903C104.269 70.02 104.449 70.6983 104.972 71.0042C105.494 71.3101 106.164 71.1284 106.466 70.5986C107.192 69.3229 108.546 68.5316 109.999 68.5316C111.451 68.5316 112.806 69.324 113.531 70.5986C113.734 70.9544 114.101 71.1527 114.48 71.1527C114.666 71.1527 114.854 71.1051 115.025 71.0042C115.548 70.6983 115.728 70.02 115.426 69.4903C115.13 68.9727 114.767 68.5072 114.353 68.1016C115 67.973 115.637 67.8156 116.264 67.6316C116.838 69.099 118.022 70.2683 119.52 70.7914C120.088 70.9898 120.678 71.0907 121.275 71.0907C122.573 71.0907 123.829 70.6141 124.811 69.7496C125.107 69.4892 125.243 69.0891 125.168 68.7C125.039 68.0317 124.787 67.4044 124.438 66.8425C124.926 67.0209 125.442 67.1307 125.973 67.1595C126.068 67.165 126.164 67.1639 126.259 67.1672C128.088 67.1672 129.777 66.2374 130.777 64.6802C130.99 64.3477 131.012 63.9243 130.833 63.5719C130.528 62.9667 130.117 62.437 129.632 61.9947C129.745 62.0025 129.859 62.0069 129.973 62.0069C130.379 62.0069 130.789 61.9593 131.189 61.8662C133.058 61.4295 134.569 60.002 135.132 58.1411C135.247 57.7621 135.153 57.3498 134.886 57.0594C134.431 56.5662 133.893 56.1672 133.303 55.8768C133.812 55.7638 134.304 55.5787 134.763 55.3205C136.441 54.3784 137.505 52.584 137.54 50.6389C137.548 50.2422 137.346 49.872 137.01 49.6681L137.013 49.6703ZM94.884 53.2745C95.3948 54.0193 95.5829 54.9603 95.3773 55.8602C95.1717 56.7602 94.5964 57.5227 93.8154 57.9649C93.3057 57.2201 93.1165 56.2792 93.3221 55.3792C93.5267 54.4793 94.1031 53.7167 94.884 53.2745ZM91.3381 50.3463C91.78 49.5384 92.5412 48.9665 93.4118 48.7592C93.6995 49.6171 93.6251 50.5747 93.1832 51.3826C92.7414 52.1906 91.9801 52.7625 91.1095 52.9697C90.8218 52.1108 90.8962 51.1543 91.3381 50.3463ZM90.0267 47.416C89.9731 47.416 89.9195 47.4149 89.8659 47.4115C89.8221 46.506 90.1546 45.6061 90.8 44.9533C91.4048 44.3404 92.2098 44.0024 93.0651 44.0024C93.1187 44.0024 93.1723 44.0035 93.2259 44.0068C93.2696 44.9123 92.9371 45.8122 92.2918 46.465C91.687 47.0779 90.882 47.416 90.0267 47.416ZM93.4961 29.7417C93.9839 28.9514 94.7637 28.4239 95.6486 28.2654C95.8925 29.1387 95.7678 30.0908 95.2843 30.8744C94.7965 31.6646 94.0167 32.1922 93.1318 32.3506C92.8879 31.4773 93.0126 30.5252 93.4961 29.7417ZM94.1129 34.7579C94.3514 34.7025 94.5953 34.6737 94.837 34.6737C95.4921 34.6737 96.1309 34.882 96.6646 35.2578C96.2271 36.0491 95.4757 36.6332 94.5865 36.8415C94.3481 36.8969 94.1042 36.9258 93.8625 36.9258C93.2073 36.9258 92.5686 36.7174 92.0348 36.3417C92.4723 35.5503 93.2237 34.9663 94.1118 34.759L94.1129 34.7579ZM91.7493 39.6201C92.224 39.353 92.76 39.2122 93.2981 39.2122C93.6536 39.2122 94.0046 39.2721 94.3382 39.3873C94.1337 40.2707 93.5693 41.042 92.772 41.4898C92.2973 41.7569 91.7614 41.8977 91.2232 41.8977C90.8678 41.8977 90.5167 41.8378 90.1831 41.7226C90.3876 40.8392 90.952 40.0678 91.7493 39.6201ZM89.004 30.4078C89.785 30.85 90.3614 31.6125 90.5659 32.5125C90.7125 33.1553 90.6567 33.8181 90.4281 34.4165C90.3023 34.6404 90.1798 34.8654 90.0617 35.0926C89.2862 34.6493 88.7131 33.8901 88.5096 32.9935C88.304 32.0935 88.4932 31.1526 89.0029 30.4078H89.004ZM85.655 36.8648C86.5256 37.0721 87.2868 37.644 87.7287 38.4519C88.0404 39.0227 88.1684 39.6666 88.1159 40.2995C88.0546 40.5555 87.9967 40.8137 87.9442 41.072C87.079 40.8614 86.3221 40.2917 85.8836 39.4882C85.4417 38.6802 85.3662 37.7238 85.655 36.8648ZM84.1926 44.0068C84.2462 44.0046 84.2998 44.0024 84.3534 44.0024C85.2087 44.0024 86.0137 44.3404 86.6186 44.9533C87.0812 45.4221 87.382 46.0184 87.5001 46.6523C87.51 46.9061 87.5231 47.1599 87.5417 47.4115C87.4914 47.4137 87.4421 47.4149 87.3918 47.4149C86.5365 47.4149 85.7315 47.0768 85.1267 46.4639C84.4825 45.8111 84.15 44.9112 84.1926 44.0057V44.0068ZM86.2948 53.3842C85.4975 52.9365 84.9331 52.1651 84.7286 51.2818C85.0621 51.1665 85.4132 51.1067 85.7687 51.1067C86.3068 51.1067 86.8428 51.2474 87.3175 51.5145C87.8851 51.8337 88.3346 52.318 88.6201 52.8888C88.7011 53.1349 88.7842 53.3787 88.8728 53.6203C88.5425 53.7334 88.1946 53.7921 87.8436 53.7921C87.3054 53.7921 86.7695 53.6513 86.2937 53.3842H86.2948ZM90.0256 59.7925C89.7839 59.7925 89.54 59.7637 89.3015 59.7083C88.4134 59.501 87.6609 58.9169 87.2245 58.1256C87.7582 57.7499 88.397 57.5415 89.0521 57.5415C89.2939 57.5415 89.5378 57.5703 89.7762 57.6258C90.4314 57.7787 91.0121 58.1378 91.4475 58.6321C91.5798 58.8272 91.7154 59.0189 91.8532 59.2095C91.3195 59.5853 90.6807 59.7925 90.0267 59.7925H90.0256ZM93.9106 64.9473C92.9875 64.9961 92.1157 64.6469 91.4825 64.0074C92.0479 63.3048 92.889 62.8614 93.8001 62.8127C94.475 62.7772 95.1214 62.9545 95.6671 63.3014C95.8509 63.4555 96.0379 63.6062 96.2271 63.7536C95.6606 64.4552 94.8206 64.8985 93.9106 64.9462V64.9473ZM97.5276 57.2035C98.2211 57.7765 98.6575 58.6288 98.7056 59.5509C98.7526 60.473 98.407 61.3674 97.777 62.0103C97.0836 61.4361 96.6471 60.585 96.599 59.6628C96.5509 58.7407 96.8976 57.8474 97.5276 57.2035ZM99.7665 68.6967C98.9079 68.996 97.9542 68.9051 97.1765 68.4706C97.5298 67.6372 98.2178 66.9766 99.0796 66.6751C99.6965 66.4601 100.362 66.4468 100.975 66.6175C101.204 66.7195 101.433 66.817 101.665 66.9112C101.311 67.7402 100.625 68.3964 99.7676 68.6967H99.7665ZM102.684 64.7943C101.861 64.4364 101.209 63.7392 100.913 62.8659C100.616 61.9925 100.706 61.0372 101.137 60.2425C101.959 60.6005 102.611 61.2976 102.908 62.1698C103.204 63.0432 103.114 63.9986 102.684 64.7943ZM135.649 44.0035C135.703 44.0035 135.756 44.0046 135.81 44.0079C135.854 44.9134 135.521 45.8133 134.876 46.4661C134.271 47.079 133.466 47.4171 132.611 47.4171C132.56 47.4171 132.511 47.416 132.461 47.4137C132.479 47.1622 132.493 46.9084 132.502 46.6546C132.619 46.0206 132.92 45.4243 133.384 44.9555C133.989 44.3426 134.793 44.0046 135.649 44.0046V44.0035ZM132.273 38.4519C132.715 37.644 133.476 37.0732 134.347 36.8648C134.634 37.7226 134.56 38.6802 134.117 39.4882C133.677 40.2917 132.921 40.8614 132.056 41.072C132.004 40.8126 131.946 40.5555 131.884 40.2995C131.832 39.6677 131.96 39.0227 132.273 38.4519ZM129.436 32.5125C129.641 31.6125 130.217 30.85 130.997 30.4078C131.507 31.1526 131.696 32.0935 131.491 32.9935C131.287 33.889 130.714 34.6482 129.939 35.0926C129.821 34.8654 129.698 34.6404 129.572 34.4165C129.344 33.8181 129.288 33.1553 129.434 32.5125H129.436ZM127.71 46.465C127.065 45.8122 126.733 44.9123 126.776 44.0068C126.829 44.0046 126.883 44.0024 126.936 44.0024C127.792 44.0024 128.597 44.3404 129.202 44.9533C129.846 45.6061 130.178 46.506 130.136 47.4115C130.082 47.4137 130.028 47.416 129.975 47.416C129.119 47.416 128.314 47.0779 127.71 46.465ZM128.892 52.9697C128.021 52.7625 127.26 52.1906 126.817 51.3826C126.375 50.5747 126.3 49.6182 126.589 48.7592C127.459 48.9665 128.22 49.5384 128.662 50.3463C129.104 51.1543 129.18 52.1119 128.892 52.9697ZM129.817 41.7226C129.484 41.8378 129.133 41.8977 128.777 41.8977C128.239 41.8977 127.703 41.7569 127.228 41.4898C126.431 41.042 125.867 40.2696 125.662 39.3873C125.996 39.2721 126.347 39.2122 126.702 39.2122C127.24 39.2122 127.776 39.353 128.251 39.6201C129.048 40.0678 129.613 40.8392 129.817 41.7226ZM124.351 28.2665C125.237 28.425 126.017 28.9526 126.503 29.7428C126.987 30.5264 127.11 31.4795 126.867 32.3518C125.982 32.1933 125.202 31.6657 124.715 30.8755C124.232 30.0919 124.108 29.1387 124.351 28.2665ZM123.335 35.2589C123.868 34.8831 124.507 34.6748 125.162 34.6748C125.404 34.6748 125.648 34.7025 125.886 34.759C126.774 34.9674 127.527 35.5515 127.963 36.3428C127.43 36.7185 126.791 36.9269 126.136 36.9269C125.894 36.9269 125.65 36.8981 125.412 36.8426C124.524 36.6343 123.771 36.0502 123.335 35.2589ZM125.115 53.2756C125.896 53.7178 126.473 54.4804 126.677 55.3803C126.883 56.2803 126.694 57.2212 126.184 57.966C125.403 57.5238 124.827 56.7613 124.622 55.8613C124.416 54.9614 124.606 54.0204 125.115 53.2756ZM117.316 64.7954C116.885 64.0008 116.795 63.0443 117.092 62.1721C117.388 61.2987 118.04 60.6016 118.862 60.2436C119.293 61.0383 119.383 61.9947 119.087 62.867C118.79 63.7403 118.138 64.4375 117.316 64.7954ZM120.234 68.6978C119.375 68.3986 118.689 67.7413 118.335 66.9123C118.571 66.817 118.804 66.7162 119.036 66.6131C119.309 66.5377 119.591 66.4978 119.877 66.4978C120.231 66.4978 120.582 66.5577 120.921 66.6751C121.783 66.9755 122.471 67.6372 122.824 68.4706C122.046 68.9062 121.094 68.996 120.234 68.6967V68.6978ZM123.401 59.6651C123.354 60.5872 122.917 61.4395 122.223 62.0125C121.593 61.3685 121.247 60.4752 121.295 59.5531C121.342 58.631 121.779 57.7787 122.473 57.2057C123.103 57.8496 123.449 58.7429 123.401 59.6651ZM126.262 64.9539C126.205 64.9539 126.147 64.9528 126.09 64.9495C125.18 64.9018 124.339 64.4585 123.773 63.7558C123.962 63.6073 124.149 63.4566 124.333 63.3025C124.88 62.9556 125.525 62.7772 126.2 62.8138C127.11 62.8625 127.952 63.3059 128.518 64.0085C127.924 64.6092 127.118 64.9539 126.262 64.9539ZM130.699 59.7094C130.46 59.7648 130.217 59.7936 129.975 59.7936C129.321 59.7936 128.681 59.5864 128.148 59.2106C128.286 59.02 128.422 58.8283 128.554 58.6332C128.989 58.1389 129.57 57.7798 130.225 57.6269C130.464 57.5715 130.708 57.5426 130.949 57.5426C131.604 57.5426 132.243 57.751 132.777 58.1267C132.339 58.9181 131.588 59.5021 130.7 59.7094H130.699ZM133.704 53.3853C133.23 53.6525 132.694 53.7932 132.156 53.7932C131.805 53.7932 131.457 53.7345 131.127 53.6214C131.215 53.3798 131.299 53.136 131.379 52.891C131.665 52.3203 132.114 51.8359 132.682 51.5167C133.157 51.2496 133.692 51.1089 134.231 51.1089C134.586 51.1089 134.937 51.1687 135.271 51.284C135.066 52.1673 134.502 52.9387 133.704 53.3865V53.3853Z" fill="#9F9F9F"/>
<path d="M104.121 71.7833C103.518 71.7833 103.027 72.281 103.027 72.8916C103.027 73.5023 103.518 74 104.121 74C104.724 74 105.215 73.5023 105.215 72.8916C105.215 72.281 104.724 71.7833 104.121 71.7833Z" fill="#9F9F9F"/>
<path d="M115.879 71.7833C115.276 71.7833 114.785 72.281 114.785 72.8916C114.785 73.5023 115.276 74 115.879 74C116.482 74 116.973 73.5023 116.973 72.8916C116.973 72.281 116.482 71.7833 115.879 71.7833Z" fill="#9F9F9F"/>
</g>
<g clip-path="url(#clip1_113_350)">
<path d="M62.8448 97.4539L57.4097 104.391H62.666L65.473 100.815L62.8448 97.4539Z" fill="url(#paint0_linear_113_350)"/>
<path d="M67.9221 97.6773L78.0058 84.7957H72.7494L65.2939 94.3161L67.9221 97.6773Z" fill="url(#paint1_linear_113_350)"/>
<path d="M51 84.7957H70.8723L67.3502 89.2385H55.4429V91.8488H58.1873L61.3071 95.505H55.4876V104.346L51 110.023V84.7957Z" fill="url(#paint2_linear_113_350)"/>
<path d="M70.0051 104.391L60.2075 91.8489H65.1063L74.9039 104.391H70.0051Z" fill="url(#paint3_linear_113_350)"/>
<path d="M95.688 87.9512H92.4967V99.9121H87.9912V87.9512H84.8267V85.0548H95.6791V87.9512H95.688Z" fill="#303030"/>
<path d="M101.624 94.6378H101.337V99.9121H96.832V85.0548H104.475C107.229 85.0548 108.257 86.1901 108.257 87.9244V91.7683C108.257 93.136 107.64 94.1015 106.049 94.4769L109.088 99.9121H104.252L101.624 94.6378ZM101.337 87.9512V91.8845H103.116C103.554 91.8845 103.76 91.7236 103.76 91.375V88.4607C103.76 88.1121 103.554 87.9512 103.116 87.9512H101.337Z" fill="#303030"/>
<path d="M117.965 97.6862H114.005L113.468 99.9032H109.043L113.29 85.0459H118.77L123.016 99.9032H118.492L117.974 97.6862H117.965ZM117.268 94.8167L116.007 89.4709L114.693 94.8167H117.268Z" fill="#303030"/>
<path d="M131.883 85.0548C134.637 85.0548 135.665 86.1901 135.665 87.9244V97.0425C135.665 98.7768 134.637 99.9121 131.883 99.9121H124.294V85.0548H131.883ZM131.159 88.2283C131.159 87.8797 130.954 87.7187 130.516 87.7187H128.79V97.2481H130.516C130.954 97.2481 131.159 97.0872 131.159 96.7386V88.2283Z" fill="#303030"/>
<path d="M142.146 85.0548V99.9121H137.641V85.0548H142.146Z" fill="#303030"/>
<path d="M155.859 85.0548V99.9121H151.997L148.314 92.1169V99.9121H144.202V85.0548H148.064L151.747 92.993V85.0548H155.859Z" fill="#303030"/>
<path d="M164.494 90.1413V88.2194C164.494 87.8707 164.289 87.7098 163.851 87.7098H162.921C162.483 87.7098 162.277 87.8707 162.277 88.2194V96.7297C162.277 97.0783 162.483 97.2392 162.921 97.2392H163.851C164.289 97.2392 164.494 97.0783 164.494 96.7297V94.2534H163.207V91.6878H168.991V97.0336C168.991 98.7678 167.963 99.9031 165.21 99.9031H161.553C158.8 99.9031 157.772 98.7678 157.772 97.0336V87.9244C157.772 86.1901 158.8 85.0548 161.553 85.0548H165.21C167.963 85.0548 168.991 86.1901 168.991 87.9244V90.1413H164.485H164.494Z" fill="#303030"/>
<path d="M91.3792 105.919C91.3792 106.608 91.0395 106.983 90.4405 107.162C90.8517 107.806 91.1825 108.521 91.4507 109.173C91.1914 109.209 90.6551 109.209 90.3869 109.173C90.1366 108.566 89.8148 107.886 89.4214 107.278H88.2414V109.173C87.9375 109.209 87.5442 109.209 87.2402 109.173V103.828H89.4751C90.6551 103.828 91.3792 104.194 91.3792 105.213V105.928V105.919ZM90.378 105.446C90.378 104.856 89.931 104.793 89.4036 104.793H88.2414V106.331H89.4036C89.931 106.331 90.378 106.277 90.378 105.696V105.455V105.446Z" fill="#303030"/>
<path d="M96.3496 109.173V103.828H99.9254C99.9611 104.096 99.9611 104.489 99.9254 104.757H97.3508V106.018H99.8539C99.8896 106.286 99.8896 106.67 99.8539 106.939H97.3508V108.244H99.9254C99.9611 108.503 99.9611 108.914 99.9254 109.173H96.3496Z" fill="#303030"/>
<path d="M104.207 103.828C104.511 103.792 104.958 103.792 105.253 103.828L106.594 107.707L107.917 103.828C108.203 103.792 108.65 103.792 108.927 103.828L107.068 109.173C106.773 109.209 106.415 109.209 106.129 109.173L104.216 103.828H104.207Z" fill="#303030"/>
<path d="M117.813 107.761C117.813 108.896 116.937 109.272 115.614 109.272C114.291 109.272 113.415 108.896 113.415 107.761V105.231C113.415 104.105 114.291 103.72 115.614 103.72C116.937 103.72 117.813 104.105 117.813 105.231V107.761ZM116.812 105.455C116.812 104.766 116.275 104.686 115.614 104.686C114.952 104.686 114.416 104.766 114.416 105.455V107.529C114.416 108.208 114.952 108.297 115.614 108.297C116.275 108.297 116.812 108.208 116.812 107.529V105.455Z" fill="#303030"/>
<path d="M122.703 109.173V103.828C123.016 103.792 123.418 103.792 123.704 103.828V108.244H126.243C126.278 108.503 126.278 108.914 126.243 109.173H122.703Z" fill="#303030"/>
<path d="M134.145 103.828C134.396 103.792 134.941 103.792 135.137 103.828V107.752C135.137 108.887 134.27 109.272 132.956 109.272C131.642 109.272 130.766 108.887 130.766 107.752V103.828C131.043 103.792 131.517 103.792 131.767 103.828V107.52C131.767 108.199 132.286 108.288 132.956 108.288C133.627 108.288 134.145 108.199 134.145 107.52V103.828Z" fill="#303030"/>
<path d="M141.136 104.757H139.482C139.446 104.498 139.446 104.096 139.482 103.828H143.791C143.818 104.096 143.818 104.498 143.791 104.757H142.137V109.173C141.851 109.209 141.431 109.209 141.136 109.173V104.757Z" fill="#303030"/>
<path d="M148.162 103.828C148.457 103.792 148.886 103.792 149.163 103.828V109.173C148.877 109.209 148.457 109.209 148.162 109.173V103.828Z" fill="#303030"/>
<path d="M158.478 107.761C158.478 108.896 157.602 109.272 156.279 109.272C154.956 109.272 154.08 108.896 154.08 107.761V105.231C154.08 104.105 154.956 103.72 156.279 103.72C157.602 103.72 158.478 104.105 158.478 105.231V107.761ZM157.477 105.455C157.477 104.766 156.941 104.686 156.279 104.686C155.618 104.686 155.081 104.766 155.081 105.455V107.529C155.081 108.208 155.618 108.297 156.279 108.297C156.941 108.297 157.477 108.208 157.477 107.529V105.455Z" fill="#303030"/>
<path d="M164.575 105.464V109.173C164.262 109.209 163.896 109.209 163.574 109.173V103.828C163.913 103.792 164.325 103.792 164.664 103.828L166.98 107.627V103.828C167.337 103.792 167.65 103.792 167.981 103.828V109.173C167.605 109.209 167.23 109.209 166.863 109.173L164.575 105.464Z" fill="#303030"/>
</g>
<path d="M47.6193 130.618L47.3203 127.16H49.0493L48.7373 130.618H47.6193ZM50.1023 130.618L49.7903 127.16H51.5323L51.2203 130.618H50.1023ZM60.3683 132.633C60.3683 134.843 58.9643 136.195 56.6893 136.195C54.4143 136.195 53.0103 134.843 53.0103 132.633V127.16H54.7653V132.633C54.7653 133.972 55.4803 134.778 56.6893 134.778C57.9113 134.778 58.6263 133.972 58.6263 132.633V127.16H60.3683V132.633ZM61.9345 136V129.032H63.5985V129.968C64.0535 129.214 64.7815 128.837 65.6655 128.837C67.0565 128.837 68.0055 129.669 68.0055 131.359V136H66.3415V131.697C66.3415 130.748 65.9385 130.215 65.0935 130.215C64.1705 130.215 63.5985 131.021 63.5985 131.957V136H61.9345ZM71.203 138.86H69.539V129.032H71.203V129.825C71.645 129.188 72.269 128.837 73.036 128.837C74.856 128.837 75.974 130.228 75.974 132.503C75.974 134.869 74.83 136.195 73.036 136.195C72.269 136.195 71.632 135.87 71.203 135.246V138.86ZM72.737 130.215C71.736 130.215 71.203 131.021 71.203 132.503C71.203 133.985 71.762 134.817 72.737 134.817C73.725 134.817 74.258 133.998 74.258 132.503C74.258 131.034 73.712 130.215 72.737 130.215ZM77.1816 136V129.032H78.8456V130.046C79.3006 129.214 80.0026 128.837 80.7566 128.837C81.0426 128.837 81.3026 128.915 81.4326 129.032V130.475C81.2116 130.41 80.9646 130.384 80.6656 130.384C79.4046 130.384 78.8456 131.138 78.8456 132.295V136H77.1816ZM88.5405 133.725C88.1635 135.337 86.9155 136.195 85.2515 136.195C83.1455 136.195 81.8585 134.804 81.8585 132.529C81.8585 130.163 83.1585 128.837 85.1865 128.837C87.2275 128.837 88.4885 130.215 88.4885 132.464V132.854H83.5745C83.6525 134.128 84.2375 134.83 85.2515 134.83C86.0315 134.83 86.5645 134.466 86.7855 133.725H88.5405ZM85.1865 130.202C84.3025 130.202 83.7695 130.761 83.6135 131.814H86.7465C86.5905 130.774 86.0575 130.202 85.1865 130.202ZM95.7692 131.502H94.1052C93.9492 130.592 93.4032 130.215 92.7012 130.215C91.6742 130.215 91.1282 131.034 91.1282 132.529C91.1282 133.998 91.7002 134.817 92.7532 134.817C93.4682 134.817 93.9752 134.427 94.1442 133.634H95.8212C95.5092 135.376 94.2872 136.195 92.7142 136.195C90.6602 136.195 89.4122 134.791 89.4122 132.529C89.4122 130.163 90.6992 128.837 92.7012 128.837C94.2872 128.837 95.5352 129.721 95.7692 131.502ZM103.331 133.725C102.954 135.337 101.706 136.195 100.042 136.195C97.9355 136.195 96.6485 134.804 96.6485 132.529C96.6485 130.163 97.9485 128.837 99.9765 128.837C102.018 128.837 103.279 130.215 103.279 132.464V132.854H98.3645C98.4425 134.128 99.0275 134.83 100.042 134.83C100.822 134.83 101.355 134.466 101.576 133.725H103.331ZM99.9765 130.202C99.0925 130.202 98.5595 130.761 98.4035 131.814H101.537C101.381 130.774 100.848 130.202 99.9765 130.202ZM104.527 136V129.032H106.191V129.968C106.646 129.214 107.374 128.837 108.258 128.837C109.649 128.837 110.598 129.669 110.598 131.359V136H108.934V131.697C108.934 130.748 108.531 130.215 107.686 130.215C106.763 130.215 106.191 131.021 106.191 131.957V136H104.527ZM112.353 133.829V130.319H111.456V129.032H112.353V127.433H114.017V129.032H115.486V130.319H114.017V133.686C114.017 134.414 114.225 134.804 115.148 134.804H115.46V136.026C115.278 136.117 114.901 136.195 114.446 136.195C113.029 136.195 112.353 135.389 112.353 133.829ZM122.818 133.725C122.441 135.337 121.193 136.195 119.529 136.195C117.423 136.195 116.136 134.804 116.136 132.529C116.136 130.163 117.436 128.837 119.464 128.837C121.505 128.837 122.766 130.215 122.766 132.464V132.854H117.852C117.93 134.128 118.515 134.83 119.529 134.83C120.309 134.83 120.842 134.466 121.063 133.725H122.818ZM119.464 130.202C118.58 130.202 118.047 130.761 117.891 131.814H121.024C120.868 130.774 120.335 130.202 119.464 130.202ZM126.628 136.195C124.808 136.195 123.69 134.804 123.69 132.529C123.69 130.163 124.834 128.837 126.628 128.837C127.395 128.837 128.032 129.162 128.461 129.786V126.64H130.125V136H128.461V135.207C128.019 135.844 127.395 136.195 126.628 136.195ZM126.927 134.817C127.928 134.817 128.461 134.011 128.461 132.529C128.461 131.047 127.902 130.215 126.927 130.215C125.939 130.215 125.406 131.034 125.406 132.529C125.406 133.998 125.952 134.817 126.927 134.817ZM134.249 136V127.16H140.463V128.551H136.004V131.047H139.969V132.438H136.004V136H134.249ZM147.764 133.725C147.387 135.337 146.139 136.195 144.475 136.195C142.369 136.195 141.082 134.804 141.082 132.529C141.082 130.163 142.382 128.837 144.41 128.837C146.451 128.837 147.712 130.215 147.712 132.464V132.854H142.798C142.876 134.128 143.461 134.83 144.475 134.83C145.255 134.83 145.788 134.466 146.009 133.725H147.764ZM144.41 130.202C143.526 130.202 142.993 130.761 142.837 131.814H145.97C145.814 130.774 145.281 130.202 144.41 130.202ZM150.573 131.32H148.896C149.117 129.773 150.248 128.837 152.003 128.837C153.94 128.837 154.928 129.981 154.928 131.593V134.297C154.928 135.155 155.006 135.636 155.136 136H153.407C153.316 135.766 153.277 135.428 153.264 135.051C152.692 135.857 151.834 136.195 151.002 136.195C149.637 136.195 148.662 135.519 148.662 134.18C148.662 133.231 149.195 132.516 150.261 132.165C151.184 131.853 152.081 131.775 153.251 131.762V131.593C153.251 130.696 152.822 130.215 151.899 130.215C151.106 130.215 150.677 130.657 150.573 131.32ZM150.339 134.089C150.339 134.622 150.755 134.96 151.431 134.96C152.458 134.96 153.251 134.128 153.251 133.088V132.789C150.885 132.828 150.339 133.387 150.339 134.089ZM156.736 133.829V130.319H155.839V129.032H156.736V127.433H158.4V129.032H159.869V130.319H158.4V133.686C158.4 134.414 158.608 134.804 159.531 134.804H159.843V136.026C159.661 136.117 159.284 136.195 158.829 136.195C157.412 136.195 156.736 135.389 156.736 133.829ZM163.345 128.252V126.64H165.009V128.252H163.345ZM163.345 136V129.032H165.009V136H163.345ZM166.531 136V129.032H168.195V129.968C168.65 129.214 169.378 128.837 170.262 128.837C171.653 128.837 172.602 129.669 172.602 131.359V136H170.938V131.697C170.938 130.748 170.535 130.215 169.69 130.215C168.767 130.215 168.195 131.021 168.195 131.957V136H166.531ZM59.6502 151L58.9742 149.167H55.2042L54.5282 151H52.7732L56.1012 142.16H58.1682L61.4962 151H59.6502ZM56.8292 144.786L55.7112 147.815H58.4672L57.3492 144.786L57.0892 143.876L56.8292 144.786ZM62.4233 151V141.64H64.0873V151H62.4233ZM68.1448 151.026C66.3768 151.026 65.2848 149.661 65.2848 147.438C65.2848 145.124 66.4028 143.837 68.1448 143.837C68.9768 143.837 69.6268 144.149 70.0558 144.734V144.032H71.7198V151.221C71.7198 153.106 70.4198 154.068 68.6908 154.068C66.9748 154.068 65.7268 153.275 65.4798 151.624H67.1568C67.2608 152.365 67.8588 152.755 68.6648 152.755C69.4968 152.755 70.0558 152.352 70.0558 151.247V150.077C69.6008 150.701 68.9508 151.026 68.1448 151.026ZM68.5218 149.648C69.5228 149.648 70.0558 148.868 70.0558 147.438C70.0558 146.021 69.4968 145.215 68.5218 145.215C67.5338 145.215 67.0008 145.995 67.0008 147.438C67.0008 148.855 67.5338 149.648 68.5218 149.648ZM76.2684 151.195C74.2014 151.195 72.9274 149.804 72.9274 147.529C72.9274 145.163 74.2404 143.837 76.2684 143.837C78.3224 143.837 79.5964 145.241 79.5964 147.529C79.5964 149.869 78.2834 151.195 76.2684 151.195ZM76.2684 149.817C77.3214 149.817 77.8804 149.011 77.8804 147.529C77.8804 146.047 77.3084 145.215 76.2684 145.215C75.2024 145.215 74.6434 146.034 74.6434 147.529C74.6434 148.998 75.2154 149.817 76.2684 149.817ZM80.7801 148.166V146.749H84.3421V148.166H80.7801ZM86.9949 151V143.603H84.1479V142.16H91.5969V143.603H88.7499V151H86.9949ZM92.1684 151V144.032H93.8324V145.046C94.2874 144.214 94.9894 143.837 95.7434 143.837C96.0294 143.837 96.2894 143.915 96.4194 144.032V145.475C96.1984 145.41 95.9514 145.384 95.6524 145.384C94.3914 145.384 93.8324 146.138 93.8324 147.295V151H92.1684ZM98.8331 146.32H97.1561C97.3771 144.773 98.5081 143.837 100.263 143.837C102.2 143.837 103.188 144.981 103.188 146.593V149.297C103.188 150.155 103.266 150.636 103.396 151H101.667C101.576 150.766 101.537 150.428 101.524 150.051C100.952 150.857 100.094 151.195 99.2621 151.195C97.8971 151.195 96.9221 150.519 96.9221 149.18C96.9221 148.231 97.4551 147.516 98.5211 147.165C99.4441 146.853 100.341 146.775 101.511 146.762V146.593C101.511 145.696 101.082 145.215 100.159 145.215C99.3661 145.215 98.9371 145.657 98.8331 146.32ZM98.5991 149.089C98.5991 149.622 99.0151 149.96 99.6911 149.96C100.718 149.96 101.511 149.128 101.511 148.088V147.789C99.1451 147.828 98.5991 148.387 98.5991 149.089ZM107.388 151.195C105.568 151.195 104.45 149.804 104.45 147.529C104.45 145.163 105.594 143.837 107.388 143.837C108.155 143.837 108.792 144.162 109.221 144.786V141.64H110.885V151H109.221V150.207C108.779 150.844 108.155 151.195 107.388 151.195ZM107.687 149.817C108.688 149.817 109.221 149.011 109.221 147.529C109.221 146.047 108.662 145.215 107.687 145.215C106.699 145.215 106.166 146.034 106.166 147.529C106.166 148.998 106.712 149.817 107.687 149.817ZM112.405 143.252V141.64H114.069V143.252H112.405ZM112.405 151V144.032H114.069V151H112.405ZM115.591 151V144.032H117.255V144.968C117.71 144.214 118.438 143.837 119.322 143.837C120.713 143.837 121.662 144.669 121.662 146.359V151H119.998V146.697C119.998 145.748 119.595 145.215 118.75 145.215C117.827 145.215 117.255 146.021 117.255 146.957V151H115.591ZM125.731 151.026C123.963 151.026 122.871 149.661 122.871 147.438C122.871 145.124 123.989 143.837 125.731 143.837C126.563 143.837 127.213 144.149 127.642 144.734V144.032H129.306V151.221C129.306 153.106 128.006 154.068 126.277 154.068C124.561 154.068 123.313 153.275 123.066 151.624H124.743C124.847 152.365 125.445 152.755 126.251 152.755C127.083 152.755 127.642 152.352 127.642 151.247V150.077C127.187 150.701 126.537 151.026 125.731 151.026ZM126.108 149.648C127.109 149.648 127.642 148.868 127.642 147.438C127.642 146.021 127.083 145.215 126.108 145.215C125.12 145.215 124.587 145.995 124.587 147.438C124.587 148.855 125.12 149.648 126.108 149.648ZM135.516 151V143.603H132.669V142.16H140.118V143.603H137.271V151H135.516ZM146.526 148.725C146.149 150.337 144.901 151.195 143.237 151.195C141.131 151.195 139.844 149.804 139.844 147.529C139.844 145.163 141.144 143.837 143.172 143.837C145.213 143.837 146.474 145.215 146.474 147.464V147.854H141.56C141.638 149.128 142.223 149.83 143.237 149.83C144.017 149.83 144.55 149.466 144.771 148.725H146.526ZM143.172 145.202C142.288 145.202 141.755 145.761 141.599 146.814H144.732C144.576 145.774 144.043 145.202 143.172 145.202ZM153.755 146.502H152.091C151.935 145.592 151.389 145.215 150.687 145.215C149.66 145.215 149.114 146.034 149.114 147.529C149.114 148.998 149.686 149.817 150.739 149.817C151.454 149.817 151.961 149.427 152.13 148.634H153.807C153.495 150.376 152.273 151.195 150.7 151.195C148.646 151.195 147.398 149.791 147.398 147.529C147.398 145.163 148.685 143.837 150.687 143.837C152.273 143.837 153.521 144.721 153.755 146.502ZM154.959 151V141.64H156.623V144.968C157.078 144.214 157.806 143.837 158.69 143.837C160.081 143.837 161.03 144.669 161.03 146.359V151H159.366V146.697C159.366 145.748 158.963 145.215 158.118 145.215C157.195 145.215 156.623 146.021 156.623 146.957V151H154.959ZM162.785 145.618L162.486 142.16H164.215L163.903 145.618H162.785ZM165.268 145.618L164.956 142.16H166.698L166.386 145.618H165.268Z" fill="#2E2E2E"/>
<defs>
<linearGradient id="paint0_linear_113_350" x1="58.7327" y1="105.061" x2="63.8103" y2="99.8407" gradientUnits="userSpaceOnUse">
<stop stop-color="#1FB4E4"/>
<stop offset="1" stop-color="#1F639F"/>
</linearGradient>
<linearGradient id="paint1_linear_113_350" x1="75.2524" y1="85.4214" x2="67.0103" y2="95.1743" gradientUnits="userSpaceOnUse">
<stop stop-color="#1FB4E4"/>
<stop offset="1" stop-color="#1F639F"/>
</linearGradient>
<linearGradient id="paint2_linear_113_350" x1="48.7115" y1="87.7099" x2="60.6635" y2="97.1946" gradientUnits="userSpaceOnUse">
<stop stop-color="#1FB4E4"/>
<stop offset="1" stop-color="#1F639F"/>
</linearGradient>
<linearGradient id="paint3_linear_113_350" x1="59.9304" y1="92.8769" x2="84.5137" y2="109.772" gradientUnits="userSpaceOnUse">
<stop stop-color="#1FB4E4"/>
<stop offset="1" stop-color="#1F639F"/>
</linearGradient>
<clipPath id="clip0_113_350">
<rect width="56" height="48" fill="white" transform="translate(82 26)"/>
</clipPath>
<clipPath id="clip1_113_350">
<rect width="118" height="26.8182" fill="white" transform="translate(51 84)"/>
</clipPath>
</defs>
</svg>
