<svg width="220" height="180" viewBox="0 0 220 180" fill="none" xmlns="http://www.w3.org/2000/svg">
<g clip-path="url(#clip0_113_348)">
<path d="M116.608 107.558C115.908 107.408 115.191 107.3 114.508 107.092C111.033 106.025 109.191 103.6 108.741 100.058C108.508 98.2417 108.625 96.4251 109.033 94.6334C109.866 90.9917 112.766 88.2834 116.841 88.2667C117.841 88.2667 118.858 88.2751 119.833 88.4584C122.691 88.9917 124.541 90.9251 124.975 93.8001C125.141 94.9084 125.158 96.0417 125.25 97.2251C124.533 97.3834 123.925 97.5251 123.308 97.6417C121.325 98.0084 119.316 97.9501 117.316 97.9834C116.216 98.0001 115.116 98.0251 114.016 98.0501C113.933 98.0501 113.858 98.0751 113.741 98.0917C113.85 99.8334 114.316 101.417 115.533 102.692C117.45 104.717 119.8 104.925 122.325 104.2C123.008 104 123.658 103.675 124.358 103.392C124.491 103.542 124.641 103.708 124.816 103.9C124.541 104.517 124.283 105.125 123.991 105.717C123.941 105.825 123.791 105.908 123.666 105.975C122.291 106.758 120.85 107.333 119.258 107.492C119.191 107.492 119.125 107.533 119.058 107.558H116.6H116.608ZM120.15 95.9834C120.191 94.7334 120.166 93.5584 119.741 92.4417C119.141 90.8751 117.608 90.1251 116.041 90.6167C115.35 90.8334 114.816 91.2584 114.433 91.8584C113.633 93.1084 113.583 94.5001 113.591 95.9667C115.808 96.1417 117.958 96.2084 120.15 95.9751V95.9834Z" fill="#525252"/>
<path d="M160 101.458C159.917 102.2 159.817 102.942 159.758 103.683C159.683 104.567 159.65 105.458 159.592 106.35C159.592 106.458 159.558 106.567 159.533 106.725C159.3 106.75 159.083 106.8 158.867 106.8C156.258 106.783 153.642 106.742 151.033 106.75C148.492 106.75 145.95 106.817 143.408 106.85C143.117 106.85 142.825 106.85 142.492 106.85C142.467 106.225 142.425 105.675 142.867 105.075C146.267 100.5 149.608 95.8834 152.975 91.2751C153.025 91.2084 153.058 91.1334 153.117 91.0334C153.008 91.0168 152.933 90.9834 152.85 90.9834C150.9 91.0251 148.95 91.0501 147.008 91.1168C146.117 91.1501 145.983 91.3001 145.825 92.1751C145.767 92.5084 145.717 92.8418 145.658 93.1751C145.6 93.5084 145.533 93.8418 145.467 94.2084H143.958C144.008 92.4668 144.058 90.7168 144.117 88.8584C144.317 88.8251 144.567 88.7584 144.808 88.7584C148.067 88.8001 151.333 88.8751 154.592 88.9001C156.117 88.9084 157.642 88.8334 159.167 88.7918C159.292 88.7918 159.417 88.7918 159.583 88.7918C159.592 89.4834 159.667 90.0918 159.2 90.7251C155.933 95.1751 152.717 99.6584 149.483 104.133C149.383 104.267 149.3 104.408 149.167 104.608C149.342 104.633 149.458 104.667 149.567 104.658C152.008 104.583 154.45 104.517 156.883 104.417C157.583 104.392 157.65 104.308 157.817 103.617C158.05 102.658 158.258 101.692 158.492 100.7H160V101.467V101.458Z" fill="#525252"/>
<path d="M60 89.9334C62.325 89.6917 64.575 89.0917 66.7583 88.2417C66.9 88.325 67.0333 88.4 67.175 88.475C67.1167 89.6167 67.0083 90.7417 67.0083 91.8667C67.0083 95.9334 67.025 100 67.0583 104.067C67.0667 104.983 67.2583 105.15 68.1667 105.308C68.525 105.375 68.8917 105.392 69.2917 105.442V106.767C66.1833 106.808 63.1 106.842 60.0083 106.883C60 106.4 60 105.917 60 105.442C60.3333 105.417 60.675 105.417 61.0083 105.358C61.6167 105.25 61.8583 105 61.9417 104.383C61.9833 104.058 62.0333 103.742 62.0333 103.417C62.0667 100.933 62.1083 98.45 62.1083 95.9667C62.1083 94.725 62.0333 93.4834 61.9583 92.2417C61.925 91.7 61.6833 91.5084 61.1417 91.45C60.7583 91.4 60.3833 91.3917 60 91.3667V89.925V89.9334Z" fill="#525252"/>
<path d="M64.5751 80.7751C65.2001 80.9501 65.8001 81.1584 66.2668 81.6584C67.3834 82.8417 67.3668 84.5584 66.2001 85.7167C65.1084 86.8084 63.3668 86.7751 62.2084 85.6501C61.1168 84.5834 61.1084 82.8501 62.1751 81.6834C62.6501 81.1751 63.2501 80.9334 63.9001 80.7667H64.5751V80.7751Z" fill="#F7AF00"/>
<path d="M91.4832 105.433V106.842H83.8332C83.7915 106.8 83.6915 106.708 83.5498 106.575C83.6248 105.6 83.7165 104.6 83.7582 103.6C83.8915 100.683 84.0248 97.7584 83.7248 94.8417C83.4498 92.1584 80.5998 90.8584 78.3415 92.375C78.0998 92.5417 77.8582 92.725 77.6415 92.925C77.2498 93.3 77.0248 93.75 77.0248 94.3084C77.0332 97.3334 77.0248 100.35 77.0498 103.375C77.0665 104.95 77.2165 105.075 78.7748 105.292C79.1665 105.342 79.5582 105.375 79.9748 105.425V106.85H69.4248V105.475C69.9082 105.433 70.3998 105.408 70.8832 105.358C71.7498 105.258 71.9915 104.992 72.0415 104.108C72.2498 100.342 72.2165 96.575 72.0332 92.8084C71.9915 91.9334 71.8582 91.7917 70.9915 91.7C70.7248 91.6667 70.4582 91.65 70.1915 91.6334C69.9415 91.6167 69.6915 91.6084 69.4165 91.5917V90.1167C71.7665 89.5834 74.2165 89.4417 76.4165 88.3C76.5998 88.3834 76.7665 88.4584 76.9498 88.5417V91.5084C77.0415 91.4084 77.0832 91.3834 77.1082 91.3417C78.3498 89.3584 80.2415 88.5334 82.4832 88.4C83.2332 88.3584 84.0165 88.4167 84.7582 88.5584C86.9748 88.975 88.5915 90.7667 88.7248 93.0167C88.8165 94.5917 88.7498 96.175 88.7582 97.75C88.7748 99.8084 88.8082 101.875 88.8332 103.933C88.8332 104.075 88.8665 104.217 88.8915 104.35C88.9915 104.983 89.1748 105.167 89.8165 105.258C90.1332 105.308 90.4582 105.325 90.7832 105.358C91.0082 105.383 91.2248 105.408 91.4832 105.442V105.433Z" fill="#525252"/>
<path d="M126.242 88.875C126.425 88.8417 126.617 88.775 126.817 88.775C130.95 88.8 135.092 88.8417 139.225 88.875C140.042 88.875 140.85 88.875 141.692 88.875C141.758 89.5667 141.733 90.1917 141.258 90.8334C138.042 95.2084 134.875 99.625 131.692 104.033C131.558 104.217 131.442 104.4 131.25 104.683C131.692 104.683 132.033 104.683 132.375 104.683C134.658 104.683 136.95 104.717 139.225 104.425C139.608 104.375 139.808 104.2 139.892 103.842C140.125 102.808 140.367 101.783 140.617 100.725H142.125C141.975 102.733 141.825 104.733 141.667 106.775C140.983 106.808 140.35 106.883 139.725 106.867C137.367 106.825 135.008 106.725 132.658 106.725C130.15 106.725 127.633 106.808 125.125 106.85C124.975 106.85 124.817 106.85 124.625 106.85V105.75C128.2 100.85 131.75 96 135.367 91.05C135.083 91.0334 134.95 91.0084 134.817 91.0167C133.008 91.05 131.2 91.075 129.4 91.1084C129.333 91.1084 129.258 91.1084 129.192 91.1167C128.267 91.1834 128.117 91.3167 127.958 92.2334C127.842 92.8834 127.733 93.5417 127.608 94.225H126.092C126.142 92.4584 126.2 90.7 126.25 88.8667L126.242 88.875Z" fill="#525252"/>
<path d="M110.117 90.3584C109.75 90.4084 109.408 90.4918 109.058 90.5084C108.433 90.5418 108.042 90.8834 107.792 91.4168C107.092 92.9251 106.367 94.4251 105.708 95.9501C104.192 99.4751 102.708 103.008 101.208 106.542C101.142 106.7 101.067 106.85 100.992 107.008H97.6332C97.5166 106.717 97.4082 106.417 97.2916 106.117C95.3999 101.375 93.4999 96.6418 91.6249 91.8918C91.2249 90.8751 90.5999 90.3084 89.4916 90.3168C89.3832 90.3168 89.2749 90.2751 89.1499 90.2501V88.8501H99.2916V90.3084C98.8249 90.3501 98.3666 90.3834 97.9082 90.4334C97.7416 90.4501 97.5749 90.4751 97.4082 90.5084C96.9332 90.6168 96.7749 90.8334 96.9166 91.3001C97.1666 92.1418 97.4082 92.9834 97.7166 93.8001C98.6666 96.3168 99.6499 98.8251 100.617 101.342C100.667 101.467 100.733 101.583 100.825 101.783C101.158 101.017 101.483 100.333 101.767 99.6334C102.75 97.2168 103.725 94.8001 104.692 92.3751C104.833 92.0084 104.925 91.6168 104.992 91.2334C105.067 90.8001 104.908 90.5834 104.475 90.5251C103.85 90.4334 103.217 90.3834 102.558 90.3168V88.8751H110.125V90.3668L110.117 90.3584Z" fill="#525252"/>
</g>
<g clip-path="url(#clip1_113_348)">
<path d="M137.013 50.6703C136.447 50.3256 135.824 50.0917 135.179 49.9754C135.631 49.7271 136.048 49.4112 136.422 49.0333C137.779 47.659 138.314 45.6363 137.818 43.7566C137.717 43.3731 137.422 43.0739 137.044 42.9719C136.59 42.8489 136.119 42.7868 135.648 42.7868C135.458 42.7868 135.269 42.7979 135.082 42.8168C135.451 42.451 135.773 42.0321 136.03 41.5633C136.959 39.8631 136.924 37.7695 135.937 36.1015C135.736 35.7612 135.369 35.5573 134.979 35.5628C134.306 35.575 133.653 35.718 133.047 35.9685C133.305 35.5119 133.502 35.0164 133.621 34.4922C134.053 32.5981 133.45 30.5965 132.046 29.2676C131.761 28.9972 131.353 28.9019 130.979 29.0182C130.13 29.282 129.374 29.7531 128.763 30.3682C128.65 30.0933 128.518 29.824 128.359 29.568C127.367 27.9598 125.657 27 123.783 27C123.722 27 123.661 27 123.599 27.0033C123.208 27.0166 122.853 27.2416 122.671 27.5918C121.771 29.3108 121.844 31.4022 122.86 33.0514C123.019 33.3074 123.197 33.5457 123.388 33.7674C122.572 34.0577 121.824 34.5432 121.224 35.196C120.957 35.4853 120.863 35.8987 120.978 36.2777C121.382 37.6132 122.276 38.7238 123.44 39.4065C123.407 39.5162 123.388 39.6304 123.39 39.7478C123.416 41.1443 123.973 42.461 124.906 43.443C124.845 43.5394 124.796 43.6436 124.766 43.7577C124.411 45.1076 124.589 46.5296 125.218 47.7332C125.133 47.8086 125.056 47.8951 124.997 47.9959C124.288 49.194 124.073 50.6104 124.35 51.9437C124.247 51.9925 124.151 52.0557 124.066 52.1355C123.059 53.0886 122.466 54.3909 122.37 55.7497C122.258 55.7674 122.149 55.8007 122.045 55.855C120.817 56.49 119.894 57.5751 119.432 58.8552C119.321 58.8419 119.206 58.843 119.092 58.8663C117.207 59.2387 115.649 60.613 115.023 62.4506C114.555 63.8293 114.659 65.33 115.272 66.6145C113.589 67.0722 111.822 67.3183 109.999 67.3183C108.175 67.3183 106.408 67.0722 104.726 66.6145C105.338 65.33 105.443 63.8293 104.974 62.4506C104.349 60.613 102.79 59.2387 100.905 58.8663C100.791 58.8441 100.677 58.8419 100.565 58.8563C100.103 57.5773 99.1792 56.4923 97.952 55.8561C97.8481 55.8029 97.7387 55.7685 97.6271 55.7508C97.5309 54.392 96.9392 53.0908 95.9307 52.1366C95.8454 52.0557 95.7503 51.9936 95.6475 51.9448C95.9253 50.6115 95.7098 49.1951 95 47.997C94.9398 47.8962 94.8643 47.8086 94.7801 47.7332C95.409 46.5296 95.5873 45.1076 95.2318 43.7577C95.2023 43.6447 95.1531 43.5394 95.0918 43.443C96.0237 42.461 96.5826 41.1443 96.6078 39.7478C96.61 39.6304 96.5914 39.5151 96.5586 39.4065C97.7212 38.7238 98.6159 37.6132 99.0206 36.2777C99.1354 35.8987 99.0414 35.4864 98.7745 35.196C98.174 34.5443 97.4259 34.0577 96.61 33.7674C96.8025 33.5457 96.9807 33.3074 97.1382 33.0514C98.1554 31.4022 98.2276 29.3108 97.3275 27.5918C97.1437 27.2416 96.7893 27.0166 96.3989 27.0033C96.3376 27.0011 96.2764 27 96.2151 27C94.3415 27 92.6309 27.9598 91.64 29.568C91.4814 29.8251 91.349 30.0933 91.2364 30.3682C90.625 29.7531 89.8692 29.282 89.0204 29.0182C88.6464 28.9019 88.2395 28.9972 87.9529 29.2676C86.5496 30.5954 85.9459 32.5981 86.3779 34.4922C86.4971 35.0164 86.6951 35.513 86.9521 35.9685C86.3462 35.718 85.6932 35.575 85.0206 35.5628C84.6268 35.5562 84.2637 35.7612 84.0625 36.1004C83.0748 37.7695 83.0387 39.862 83.9695 41.5621C84.2254 42.031 84.5481 42.4499 84.9178 42.8156C84.7307 42.7957 84.5426 42.7857 84.3512 42.7857C83.8798 42.7857 83.4106 42.8478 82.9556 42.9708C82.5771 43.0728 82.2818 43.372 82.1812 43.7555C81.6857 45.6352 82.2206 47.6579 83.5779 49.0322C83.9509 49.4101 84.3698 49.726 84.8215 49.9743C84.1762 50.0906 83.5539 50.3245 82.9873 50.6692C82.6515 50.8731 82.4492 51.2433 82.4557 51.6401C82.4907 53.5851 83.555 55.3795 85.2328 56.3216C85.6911 56.5787 86.1843 56.7638 86.6929 56.8779C86.1045 57.1683 85.5653 57.5673 85.1103 58.0605C84.8434 58.3498 84.7493 58.7621 84.8642 59.1422C85.4275 61.0031 86.9379 62.4306 88.8071 62.8673C89.2075 62.9615 89.6165 63.008 90.0234 63.008C90.1371 63.008 90.2509 63.0025 90.3636 62.9958C89.8779 63.437 89.4667 63.9678 89.1615 64.573C88.9832 64.9265 89.0051 65.3488 89.2184 65.6813C90.2181 67.2385 91.9068 68.1684 93.7356 68.1684C93.8307 68.1684 93.927 68.1661 94.0221 68.1606C94.5526 68.1329 95.0689 68.022 95.5578 67.8436C95.2089 68.4044 94.9573 69.0317 94.8282 69.7011C94.7528 70.0902 94.8895 70.4903 95.1848 70.7507C96.1681 71.6152 97.4237 72.0907 98.722 72.0907C99.3181 72.0907 99.9087 71.9898 100.477 71.7914C101.976 71.2683 103.159 70.099 103.734 68.6316C104.359 68.8156 104.997 68.9719 105.644 69.1016C105.23 69.5072 104.867 69.9727 104.571 70.4903C104.269 71.02 104.449 71.6983 104.972 72.0042C105.494 72.3101 106.164 72.1284 106.466 71.5986C107.192 70.3229 108.546 69.5316 109.999 69.5316C111.451 69.5316 112.806 70.324 113.531 71.5986C113.734 71.9544 114.101 72.1527 114.48 72.1527C114.666 72.1527 114.854 72.1051 115.025 72.0042C115.548 71.6983 115.728 71.02 115.426 70.4903C115.13 69.9727 114.767 69.5072 114.353 69.1016C115 68.973 115.637 68.8156 116.264 68.6316C116.838 70.099 118.022 71.2683 119.52 71.7914C120.088 71.9898 120.678 72.0907 121.275 72.0907C122.573 72.0907 123.829 71.6141 124.811 70.7496C125.107 70.4892 125.243 70.0891 125.168 69.7C125.039 69.0317 124.787 68.4044 124.438 67.8425C124.926 68.0209 125.442 68.1307 125.973 68.1595C126.068 68.165 126.164 68.1639 126.259 68.1672C128.088 68.1672 129.777 67.2374 130.777 65.6802C130.99 65.3477 131.012 64.9243 130.833 64.5719C130.528 63.9667 130.117 63.437 129.632 62.9947C129.745 63.0025 129.859 63.0069 129.973 63.0069C130.379 63.0069 130.789 62.9593 131.189 62.8662C133.058 62.4295 134.569 61.002 135.132 59.1411C135.247 58.7621 135.153 58.3498 134.886 58.0594C134.431 57.5662 133.893 57.1672 133.303 56.8768C133.812 56.7638 134.304 56.5787 134.763 56.3205C136.441 55.3784 137.505 53.584 137.54 51.6389C137.548 51.2422 137.346 50.872 137.01 50.6681L137.013 50.6703ZM94.884 54.2745C95.3948 55.0193 95.5829 55.9603 95.3773 56.8602C95.1717 57.7602 94.5964 58.5227 93.8154 58.9649C93.3057 58.2201 93.1165 57.2792 93.3221 56.3792C93.5267 55.4793 94.1031 54.7167 94.884 54.2745ZM91.3381 51.3463C91.78 50.5384 92.5412 49.9665 93.4118 49.7592C93.6995 50.6171 93.6251 51.5747 93.1832 52.3826C92.7414 53.1906 91.9801 53.7625 91.1095 53.9697C90.8218 53.1108 90.8962 52.1543 91.3381 51.3463ZM90.0267 48.416C89.9731 48.416 89.9195 48.4149 89.8659 48.4115C89.8221 47.506 90.1546 46.6061 90.8 45.9533C91.4048 45.3404 92.2098 45.0024 93.0651 45.0024C93.1187 45.0024 93.1723 45.0035 93.2259 45.0068C93.2696 45.9123 92.9371 46.8122 92.2918 47.465C91.687 48.0779 90.882 48.416 90.0267 48.416ZM93.4961 30.7417C93.9839 29.9514 94.7637 29.4239 95.6486 29.2654C95.8925 30.1387 95.7678 31.0908 95.2843 31.8744C94.7965 32.6646 94.0167 33.1922 93.1318 33.3506C92.8879 32.4773 93.0126 31.5252 93.4961 30.7417ZM94.1129 35.7579C94.3514 35.7025 94.5953 35.6737 94.837 35.6737C95.4921 35.6737 96.1309 35.882 96.6646 36.2578C96.2271 37.0491 95.4757 37.6332 94.5865 37.8415C94.3481 37.8969 94.1042 37.9258 93.8625 37.9258C93.2073 37.9258 92.5686 37.7174 92.0348 37.3417C92.4723 36.5503 93.2237 35.9663 94.1118 35.759L94.1129 35.7579ZM91.7493 40.6201C92.224 40.353 92.76 40.2122 93.2981 40.2122C93.6536 40.2122 94.0046 40.2721 94.3382 40.3873C94.1337 41.2707 93.5693 42.042 92.772 42.4898C92.2973 42.7569 91.7614 42.8977 91.2232 42.8977C90.8678 42.8977 90.5167 42.8378 90.1831 42.7226C90.3876 41.8392 90.952 41.0678 91.7493 40.6201ZM89.004 31.4078C89.785 31.85 90.3614 32.6125 90.5659 33.5125C90.7125 34.1553 90.6567 34.8181 90.4281 35.4165C90.3023 35.6404 90.1798 35.8654 90.0617 36.0926C89.2862 35.6493 88.7131 34.8901 88.5096 33.9935C88.304 33.0935 88.4932 32.1526 89.0029 31.4078H89.004ZM85.655 37.8648C86.5256 38.0721 87.2868 38.644 87.7287 39.4519C88.0404 40.0227 88.1684 40.6666 88.1159 41.2995C88.0546 41.5555 87.9967 41.8137 87.9442 42.072C87.079 41.8614 86.3221 41.2917 85.8836 40.4882C85.4417 39.6802 85.3662 38.7238 85.655 37.8648ZM84.1926 45.0068C84.2462 45.0046 84.2998 45.0024 84.3534 45.0024C85.2087 45.0024 86.0137 45.3404 86.6186 45.9533C87.0812 46.4221 87.382 47.0184 87.5001 47.6523C87.51 47.9061 87.5231 48.1599 87.5417 48.4115C87.4914 48.4137 87.4421 48.4149 87.3918 48.4149C86.5365 48.4149 85.7315 48.0768 85.1267 47.4639C84.4825 46.8111 84.15 45.9112 84.1926 45.0057V45.0068ZM86.2948 54.3842C85.4975 53.9365 84.9331 53.1651 84.7286 52.2818C85.0621 52.1665 85.4132 52.1067 85.7687 52.1067C86.3068 52.1067 86.8428 52.2474 87.3175 52.5145C87.8851 52.8337 88.3346 53.318 88.6201 53.8888C88.7011 54.1349 88.7842 54.3787 88.8728 54.6203C88.5425 54.7334 88.1946 54.7921 87.8436 54.7921C87.3054 54.7921 86.7695 54.6513 86.2937 54.3842H86.2948ZM90.0256 60.7925C89.7839 60.7925 89.54 60.7637 89.3015 60.7083C88.4134 60.501 87.6609 59.9169 87.2245 59.1256C87.7582 58.7499 88.397 58.5415 89.0521 58.5415C89.2939 58.5415 89.5378 58.5703 89.7762 58.6258C90.4314 58.7787 91.0121 59.1378 91.4475 59.6321C91.5798 59.8272 91.7154 60.0189 91.8532 60.2095C91.3195 60.5853 90.6807 60.7925 90.0267 60.7925H90.0256ZM93.9106 65.9473C92.9875 65.9961 92.1157 65.6469 91.4825 65.0074C92.0479 64.3048 92.889 63.8614 93.8001 63.8127C94.475 63.7772 95.1214 63.9545 95.6671 64.3014C95.8509 64.4555 96.0379 64.6062 96.2271 64.7536C95.6606 65.4552 94.8206 65.8985 93.9106 65.9462V65.9473ZM97.5276 58.2035C98.2211 58.7765 98.6575 59.6288 98.7056 60.5509C98.7526 61.473 98.407 62.3674 97.777 63.0103C97.0836 62.4361 96.6471 61.585 96.599 60.6628C96.5509 59.7407 96.8976 58.8474 97.5276 58.2035ZM99.7665 69.6967C98.9079 69.996 97.9542 69.9051 97.1765 69.4706C97.5298 68.6372 98.2178 67.9766 99.0796 67.6751C99.6965 67.4601 100.362 67.4468 100.975 67.6175C101.204 67.7195 101.433 67.817 101.665 67.9112C101.311 68.7402 100.625 69.3964 99.7676 69.6967H99.7665ZM102.684 65.7943C101.861 65.4364 101.209 64.7392 100.913 63.8659C100.616 62.9925 100.706 62.0372 101.137 61.2425C101.959 61.6005 102.611 62.2976 102.908 63.1698C103.204 64.0432 103.114 64.9986 102.684 65.7943ZM135.649 45.0035C135.703 45.0035 135.756 45.0046 135.81 45.0079C135.854 45.9134 135.521 46.8133 134.876 47.4661C134.271 48.079 133.466 48.4171 132.611 48.4171C132.56 48.4171 132.511 48.416 132.461 48.4137C132.479 48.1622 132.493 47.9084 132.502 47.6546C132.619 47.0206 132.92 46.4243 133.384 45.9555C133.989 45.3426 134.793 45.0046 135.649 45.0046V45.0035ZM132.273 39.4519C132.715 38.644 133.476 38.0732 134.347 37.8648C134.634 38.7226 134.56 39.6802 134.117 40.4882C133.677 41.2917 132.921 41.8614 132.056 42.072C132.004 41.8126 131.946 41.5555 131.884 41.2995C131.832 40.6677 131.96 40.0227 132.273 39.4519ZM129.436 33.5125C129.641 32.6125 130.217 31.85 130.997 31.4078C131.507 32.1526 131.696 33.0935 131.491 33.9935C131.287 34.889 130.714 35.6482 129.939 36.0926C129.821 35.8654 129.698 35.6404 129.572 35.4165C129.344 34.8181 129.288 34.1553 129.434 33.5125H129.436ZM127.71 47.465C127.065 46.8122 126.733 45.9123 126.776 45.0068C126.829 45.0046 126.883 45.0024 126.936 45.0024C127.792 45.0024 128.597 45.3404 129.202 45.9533C129.846 46.6061 130.178 47.506 130.136 48.4115C130.082 48.4137 130.028 48.416 129.975 48.416C129.119 48.416 128.314 48.0779 127.71 47.465ZM128.892 53.9697C128.021 53.7625 127.26 53.1906 126.817 52.3826C126.375 51.5747 126.3 50.6182 126.589 49.7592C127.459 49.9665 128.22 50.5384 128.662 51.3463C129.104 52.1543 129.18 53.1119 128.892 53.9697ZM129.817 42.7226C129.484 42.8378 129.133 42.8977 128.777 42.8977C128.239 42.8977 127.703 42.7569 127.228 42.4898C126.431 42.042 125.867 41.2696 125.662 40.3873C125.996 40.2721 126.347 40.2122 126.702 40.2122C127.24 40.2122 127.776 40.353 128.251 40.6201C129.048 41.0678 129.613 41.8392 129.817 42.7226ZM124.351 29.2665C125.237 29.425 126.017 29.9526 126.503 30.7428C126.987 31.5264 127.11 32.4795 126.867 33.3518C125.982 33.1933 125.202 32.6657 124.715 31.8755C124.232 31.0919 124.108 30.1387 124.351 29.2665ZM123.335 36.2589C123.868 35.8831 124.507 35.6748 125.162 35.6748C125.404 35.6748 125.648 35.7025 125.886 35.759C126.774 35.9674 127.527 36.5515 127.963 37.3428C127.43 37.7185 126.791 37.9269 126.136 37.9269C125.894 37.9269 125.65 37.8981 125.412 37.8426C124.524 37.6343 123.771 37.0502 123.335 36.2589ZM125.115 54.2756C125.896 54.7178 126.473 55.4804 126.677 56.3803C126.883 57.2803 126.694 58.2212 126.184 58.966C125.403 58.5238 124.827 57.7613 124.622 56.8613C124.416 55.9614 124.606 55.0204 125.115 54.2756ZM117.316 65.7954C116.885 65.0008 116.795 64.0443 117.092 63.1721C117.388 62.2987 118.04 61.6016 118.862 61.2436C119.293 62.0383 119.383 62.9947 119.087 63.867C118.79 64.7403 118.138 65.4375 117.316 65.7954ZM120.234 69.6978C119.375 69.3986 118.689 68.7413 118.335 67.9123C118.571 67.817 118.804 67.7162 119.036 67.6131C119.309 67.5377 119.591 67.4978 119.877 67.4978C120.231 67.4978 120.582 67.5577 120.921 67.6751C121.783 67.9755 122.471 68.6372 122.824 69.4706C122.046 69.9062 121.094 69.996 120.234 69.6967V69.6978ZM123.401 60.6651C123.354 61.5872 122.917 62.4395 122.223 63.0125C121.593 62.3685 121.247 61.4752 121.295 60.5531C121.342 59.631 121.779 58.7787 122.473 58.2057C123.103 58.8496 123.449 59.7429 123.401 60.6651ZM126.262 65.9539C126.205 65.9539 126.147 65.9528 126.09 65.9495C125.18 65.9018 124.339 65.4585 123.773 64.7558C123.962 64.6073 124.149 64.4566 124.333 64.3025C124.88 63.9556 125.525 63.7772 126.2 63.8138C127.11 63.8625 127.952 64.3059 128.518 65.0085C127.924 65.6092 127.118 65.9539 126.262 65.9539ZM130.699 60.7094C130.46 60.7648 130.217 60.7936 129.975 60.7936C129.321 60.7936 128.681 60.5864 128.148 60.2106C128.286 60.02 128.422 59.8283 128.554 59.6332C128.989 59.1389 129.57 58.7798 130.225 58.6269C130.464 58.5715 130.708 58.5426 130.949 58.5426C131.604 58.5426 132.243 58.751 132.777 59.1267C132.339 59.9181 131.588 60.5021 130.7 60.7094H130.699ZM133.704 54.3853C133.23 54.6525 132.694 54.7932 132.156 54.7932C131.805 54.7932 131.457 54.7345 131.127 54.6214C131.215 54.3798 131.299 54.136 131.379 53.891C131.665 53.3203 132.114 52.8359 132.682 52.5167C133.157 52.2496 133.692 52.1089 134.231 52.1089C134.586 52.1089 134.937 52.1687 135.271 52.284C135.066 53.1673 134.502 53.9387 133.704 54.3865V54.3853Z" fill="#9F9F9F"/>
<path d="M104.121 72.7833C103.518 72.7833 103.027 73.281 103.027 73.8916C103.027 74.5023 103.518 75 104.121 75C104.724 75 105.215 74.5023 105.215 73.8916C105.215 73.281 104.724 72.7833 104.121 72.7833Z" fill="#9F9F9F"/>
<path d="M115.879 72.7833C115.276 72.7833 114.785 73.281 114.785 73.8916C114.785 74.5023 115.276 75 115.879 75C116.482 75 116.973 74.5023 116.973 73.8916C116.973 73.281 116.482 72.7833 115.879 72.7833Z" fill="#9F9F9F"/>
</g>
<path d="M34.4987 129.218L34.1997 125.76H35.9287L35.6167 129.218H34.4987ZM36.9817 129.218L36.6697 125.76H38.4117L38.0997 129.218H36.9817ZM39.9677 134.6V125.76H43.3737C45.3107 125.76 46.5197 126.709 46.5197 128.217C46.5197 128.997 46.1297 129.595 45.4407 129.933C46.4547 130.271 47.0137 131.025 47.0137 132.039C47.0137 133.664 45.8437 134.6 43.8157 134.6H39.9677ZM43.3347 127.151H41.7227V129.439H43.2957C44.2317 129.439 44.7257 128.984 44.7257 128.308C44.7257 127.593 44.2187 127.151 43.3347 127.151ZM43.6727 130.739H41.7227V133.209H43.7767C44.6867 133.209 45.2197 132.715 45.2197 131.974C45.2197 131.233 44.6607 130.739 43.6727 130.739ZM52.5462 131.675V127.632H54.2102V134.6H52.5462V133.664C52.0912 134.431 51.3762 134.795 50.5182 134.795C49.1402 134.795 48.2172 133.963 48.2172 132.286V127.632H49.8812V131.948C49.8812 132.897 50.2712 133.417 51.0902 133.417C51.9872 133.417 52.5462 132.611 52.5462 131.675ZM55.7455 126.852V125.24H57.4095V126.852H55.7455ZM55.7455 134.6V127.632H57.4095V134.6H55.7455ZM58.932 134.6V125.24H60.596V134.6H58.932ZM62.3396 132.429V128.919H61.4426V127.632H62.3396V126.033H64.0036V127.632H65.4726V128.919H64.0036V132.286C64.0036 133.014 64.2116 133.404 65.1346 133.404H65.4466V134.626C65.2646 134.717 64.8876 134.795 64.4326 134.795C63.0156 134.795 62.3396 133.989 62.3396 132.429ZM71.1257 134.6V127.203H68.2787V125.76H75.7277V127.203H72.8807V134.6H71.1257ZM78.7947 134.795C76.7277 134.795 75.4537 133.404 75.4537 131.129C75.4537 128.763 76.7667 127.437 78.7947 127.437C80.8487 127.437 82.1227 128.841 82.1227 131.129C82.1227 133.469 80.8097 134.795 78.7947 134.795ZM78.7947 133.417C79.8477 133.417 80.4067 132.611 80.4067 131.129C80.4067 129.647 79.8347 128.815 78.7947 128.815C77.7287 128.815 77.1697 129.634 77.1697 131.129C77.1697 132.598 77.7417 133.417 78.7947 133.417ZM85.9374 134.6V125.76H88.2644L90.5004 131.467L90.8254 132.572L91.1634 131.467L93.3864 125.76H95.6484V134.6H93.9064L93.9714 127.736L93.3214 129.777L91.4234 134.6H90.1624L88.2514 129.751L87.6144 127.762L87.6924 134.6H85.9374ZM98.8966 129.92H97.2196C97.4406 128.373 98.5716 127.437 100.327 127.437C102.264 127.437 103.252 128.581 103.252 130.193V132.897C103.252 133.755 103.33 134.236 103.46 134.6H101.731C101.64 134.366 101.601 134.028 101.588 133.651C101.016 134.457 100.158 134.795 99.3256 134.795C97.9606 134.795 96.9856 134.119 96.9856 132.78C96.9856 131.831 97.5186 131.116 98.5846 130.765C99.5076 130.453 100.405 130.375 101.575 130.362V130.193C101.575 129.296 101.146 128.815 100.223 128.815C99.4296 128.815 99.0006 129.257 98.8966 129.92ZM98.6626 132.689C98.6626 133.222 99.0786 133.56 99.7546 133.56C100.782 133.56 101.575 132.728 101.575 131.688V131.389C99.2086 131.428 98.6626 131.987 98.6626 132.689ZM104.838 134.6V125.24H106.502V130.544L109.024 127.632H110.974L108.166 130.726L111.169 134.6H109.128L106.502 131.233V134.6H104.838ZM117.873 132.325C117.496 133.937 116.248 134.795 114.584 134.795C112.478 134.795 111.191 133.404 111.191 131.129C111.191 128.763 112.491 127.437 114.519 127.437C116.56 127.437 117.821 128.815 117.821 131.064V131.454H112.907C112.985 132.728 113.57 133.43 114.584 133.43C115.364 133.43 115.897 133.066 116.118 132.325H117.873ZM114.519 128.802C113.635 128.802 113.102 129.361 112.946 130.414H116.079C115.923 129.374 115.39 128.802 114.519 128.802ZM123.761 134.6V131.454L120.667 125.76H122.63L124.307 129.01L124.684 129.959L125.061 129.01L126.738 125.76H128.597L125.503 131.454V134.6H123.761ZM131.62 134.795C129.553 134.795 128.279 133.404 128.279 131.129C128.279 128.763 129.592 127.437 131.62 127.437C133.674 127.437 134.948 128.841 134.948 131.129C134.948 133.469 133.635 134.795 131.62 134.795ZM131.62 133.417C132.673 133.417 133.232 132.611 133.232 131.129C133.232 129.647 132.66 128.815 131.62 128.815C130.554 128.815 129.995 129.634 129.995 131.129C129.995 132.598 130.567 133.417 131.62 133.417ZM140.487 131.675V127.632H142.151V134.6H140.487V133.664C140.032 134.431 139.317 134.795 138.459 134.795C137.081 134.795 136.158 133.963 136.158 132.286V127.632H137.822V131.948C137.822 132.897 138.212 133.417 139.031 133.417C139.928 133.417 140.487 132.611 140.487 131.675ZM146.291 134.6V125.76H148.618L150.854 131.467L151.179 132.572L151.517 131.467L153.74 125.76H156.002V134.6H154.26L154.325 127.736L153.675 129.777L151.777 134.6H150.516L148.605 129.751L147.968 127.762L148.046 134.6H146.291ZM160.654 134.795C158.587 134.795 157.313 133.404 157.313 131.129C157.313 128.763 158.626 127.437 160.654 127.437C162.708 127.437 163.982 128.841 163.982 131.129C163.982 133.469 162.669 134.795 160.654 134.795ZM160.654 133.417C161.707 133.417 162.266 132.611 162.266 131.129C162.266 129.647 161.694 128.815 160.654 128.815C159.588 128.815 159.029 129.634 159.029 131.129C159.029 132.598 159.601 133.417 160.654 133.417ZM165.192 134.6V127.632H166.856V128.568C167.311 127.814 168.039 127.437 168.923 127.437C170.314 127.437 171.263 128.269 171.263 129.959V134.6H169.599V130.297C169.599 129.348 169.196 128.815 168.351 128.815C167.428 128.815 166.856 129.621 166.856 130.557V134.6H165.192ZM179.153 132.325C178.776 133.937 177.528 134.795 175.864 134.795C173.758 134.795 172.471 133.404 172.471 131.129C172.471 128.763 173.771 127.437 175.799 127.437C177.84 127.437 179.101 128.815 179.101 131.064V131.454H174.187C174.265 132.728 174.85 133.43 175.864 133.43C176.644 133.43 177.177 133.066 177.398 132.325H179.153ZM175.799 128.802C174.915 128.802 174.382 129.361 174.226 130.414H177.359C177.203 129.374 176.67 128.802 175.799 128.802ZM180.747 137.655C180.409 137.655 180.058 137.564 179.889 137.499V136.225H180.279C181.033 136.225 181.384 136.069 181.917 134.743L182.086 134.314L179.343 127.632H181.124L182.671 131.675L182.957 132.689L183.243 131.675L184.725 127.632H186.428L183.36 135.289C182.645 137.096 182.021 137.655 180.747 137.655ZM57.8808 149.6V140.76H59.6358V149.6H57.8808ZM61.268 149.6V142.632H62.932V143.568C63.387 142.814 64.115 142.437 64.999 142.437C66.39 142.437 67.339 143.269 67.339 144.959V149.6H65.675V145.297C65.675 144.348 65.272 143.815 64.427 143.815C63.504 143.815 62.932 144.621 62.932 145.557V149.6H61.268ZM71.5944 147.429V143.919H70.6974V142.632H71.5944V141.033H73.2584V142.632H74.7274V143.919H73.2584V147.286C73.2584 148.014 73.4664 148.404 74.3894 148.404H74.7014V149.626C74.5194 149.717 74.1424 149.795 73.6874 149.795C72.2704 149.795 71.5944 148.989 71.5944 147.429ZM75.7025 149.6V140.24H77.3665V143.568C77.8215 142.814 78.5495 142.437 79.4335 142.437C80.8245 142.437 81.7735 143.269 81.7735 144.959V149.6H80.1095V145.297C80.1095 144.348 79.7065 143.815 78.8615 143.815C77.9385 143.815 77.3665 144.621 77.3665 145.557V149.6H75.7025ZM89.664 147.325C89.287 148.937 88.039 149.795 86.375 149.795C84.269 149.795 82.982 148.404 82.982 146.129C82.982 143.763 84.282 142.437 86.31 142.437C88.351 142.437 89.612 143.815 89.612 146.064V146.454H84.698C84.776 147.728 85.361 148.43 86.375 148.43C87.155 148.43 87.688 148.066 87.909 147.325H89.664ZM86.31 143.802C85.426 143.802 84.893 144.361 84.737 145.414H87.87C87.714 144.374 87.181 143.802 86.31 143.802ZM93.4657 149.6V140.76H95.2207V148.183H99.3157V149.6H93.4657ZM103.449 149.795C101.382 149.795 100.108 148.404 100.108 146.129C100.108 143.763 101.421 142.437 103.449 142.437C105.503 142.437 106.777 143.841 106.777 146.129C106.777 148.469 105.464 149.795 103.449 149.795ZM103.449 148.417C104.502 148.417 105.061 147.611 105.061 146.129C105.061 144.647 104.489 143.815 103.449 143.815C102.383 143.815 101.824 144.634 101.824 146.129C101.824 147.598 102.396 148.417 103.449 148.417ZM107.987 149.6V142.632H109.651V143.568C110.106 142.814 110.834 142.437 111.718 142.437C113.109 142.437 114.058 143.269 114.058 144.959V149.6H112.394V145.297C112.394 144.348 111.991 143.815 111.146 143.815C110.223 143.815 109.651 144.621 109.651 145.557V149.6H107.987ZM118.126 149.626C116.358 149.626 115.266 148.261 115.266 146.038C115.266 143.724 116.384 142.437 118.126 142.437C118.958 142.437 119.608 142.749 120.037 143.334V142.632H121.701V149.821C121.701 151.706 120.401 152.668 118.672 152.668C116.956 152.668 115.708 151.875 115.461 150.224H117.138C117.242 150.965 117.84 151.355 118.646 151.355C119.478 151.355 120.037 150.952 120.037 149.847V148.677C119.582 149.301 118.932 149.626 118.126 149.626ZM118.503 148.248C119.504 148.248 120.037 147.468 120.037 146.038C120.037 144.621 119.478 143.815 118.503 143.815C117.515 143.815 116.982 144.595 116.982 146.038C116.982 147.455 117.515 148.248 118.503 148.248ZM123.208 146.766V145.349H126.77V146.766H123.208ZM129.423 149.6V142.203H126.576V140.76H134.025V142.203H131.178V149.6H129.423ZM140.433 147.325C140.056 148.937 138.808 149.795 137.144 149.795C135.038 149.795 133.751 148.404 133.751 146.129C133.751 143.763 135.051 142.437 137.079 142.437C139.12 142.437 140.381 143.815 140.381 146.064V146.454H135.467C135.545 147.728 136.13 148.43 137.144 148.43C137.924 148.43 138.457 148.066 138.678 147.325H140.433ZM137.079 143.802C136.195 143.802 135.662 144.361 135.506 145.414H138.639C138.483 144.374 137.95 143.802 137.079 143.802ZM141.629 149.6V142.632H143.293V143.646C143.748 142.814 144.45 142.437 145.204 142.437C145.49 142.437 145.75 142.515 145.88 142.632V144.075C145.659 144.01 145.412 143.984 145.113 143.984C143.852 143.984 143.293 144.738 143.293 145.895V149.6H141.629ZM146.758 149.6V142.632H148.422V143.529C148.864 142.801 149.54 142.437 150.359 142.437C151.243 142.437 151.932 142.827 152.283 143.62C152.751 142.827 153.492 142.437 154.389 142.437C155.728 142.437 156.638 143.269 156.638 144.959V149.6H154.974V145.297C154.974 144.348 154.623 143.815 153.882 143.815C153.05 143.815 152.53 144.621 152.53 145.557V149.6H150.866V145.297C150.866 144.348 150.515 143.815 149.774 143.815C148.942 143.815 148.422 144.621 148.422 145.557V149.6H146.758ZM158.392 144.218L158.093 140.76H159.822L159.51 144.218H158.392ZM160.875 144.218L160.563 140.76H162.305L161.993 144.218H160.875Z" fill="#2E2E2E"/>
<defs>
<clipPath id="clip0_113_348">
<rect width="100" height="28.3333" fill="white" transform="translate(60 80)"/>
</clipPath>
<clipPath id="clip1_113_348">
<rect width="56" height="48" fill="white" transform="translate(82 27)"/>
</clipPath>
</defs>
</svg>
