<svg xmlns="http://www.w3.org/2000/svg" xmlns:xlink="http://www.w3.org/1999/xlink" viewBox="0 0 286 302.61"><defs><style>.cls-1{fill:#b5b5b5;}.cls-1,.cls-2,.cls-3,.cls-4,.cls-5,.cls-6,.cls-7{fill-rule:evenodd;}.cls-2{fill:#006665;}.cls-3{fill:url(#linear-gradient);}.cls-4{fill:url(#linear-gradient-2);}.cls-5{fill:#ffcb00;}.cls-6{fill:url(#linear-gradient-3);}.cls-7{fill:url(#linear-gradient-4);}.cls-8,.cls-9{isolation:isolate;}

.season{font-size:34px;fill:#231f20;font-family:Arial-BoldMT, Arial;font-weight:700;letter-spacing:-0.03em;}
.cls-10{fill:#f1f2f2;}.cls-11{fill:#fff;}</style><linearGradient id="linear-gradient" x1="275.42" y1="201.94" x2="87.22" y2="87.3" gradientUnits="userSpaceOnUse"><stop offset="0" stop-color="#122e2d"/><stop offset="0.21" stop-color="#103634"/><stop offset="0.54" stop-color="#094b48"/><stop offset="0.9" stop-color="#006a65"/></linearGradient><linearGradient id="linear-gradient-2" x1="134.85" y1="161.47" x2="135.04" y2="162.05" gradientTransform="matrix(131.41, 0, 0, -279.84, -17642.81, 45348.22)" gradientUnits="userSpaceOnUse"><stop offset="0" stop-color="#122e2d"/><stop offset="1" stop-color="#006665"/></linearGradient><linearGradient id="linear-gradient-3" x1="135.68" y1="163.72" x2="134.49" y2="162.57" gradientTransform="matrix(251.22, 0, 0, -61.76, -33857.12, 10281.2)" gradientUnits="userSpaceOnUse"><stop offset="0.06" stop-color="#e6e7e8"/><stop offset="0.21" stop-color="#f0f1f1"/><stop offset="0.48" stop-color="#fbfbfc"/><stop offset="0.77" stop-color="#fff"/></linearGradient><linearGradient id="linear-gradient-4" x1="-15.56" y1="194.9" x2="235.65" y2="194.9" gradientUnits="userSpaceOnUse"><stop offset="0" stop-color="#d1d3d4"/><stop offset="0.71" stop-color="#fff"/></linearGradient></defs><g id="Layer_2" data-name="Layer 2"><g id="Layer_1-2" data-name="Layer 1"><g id="Artboard"><g id="White-leader-badge"><path id="Fill-161" class="cls-1" d="M0,211.17V22.93a2,2,0,0,1,1.71-2L142.71,0a1.88,1.88,0,0,1,.58,0L284.29,21a2,2,0,0,1,1.71,2V211.17a2,2,0,0,1-.93,1.69l-141,89.44a2,2,0,0,1-2.14,0L.93,212.86A2,2,0,0,1,0,211.17Z"/><path id="Fill-162" class="cls-2" d="M280.55,28.25a5.41,5.41,0,0,0-1.16-2.32L144.93,5.77a13.31,13.31,0,0,0-1.93,0h-1.93L6.35,25.93a5.49,5.49,0,0,0-1.15,2.3v179a5.23,5.23,0,0,0,1.16,2.3L143,297.19l136.39-87.72a5.3,5.3,0,0,0,1.15-2.28Z"/><g id="right"><polygon class="cls-3" points="143 11.56 143 291.4 273.83 204.56 273.83 30.86 143 11.56"/></g><polygon id="left" class="cls-4" points="11.6 204.55 143 291.4 143 11.56 11.91 30.86 11.6 204.55"/><polygon id="Fill-18-Copy-4" class="cls-5" points="254.43 121.67 257.59 128.4 264.67 129.48 259.55 134.72 260.76 142.13 254.43 138.63 248.1 142.13 249.31 134.72 244.19 129.48 251.26 128.4 254.43 121.67"/><polygon id="Fill-18-Copy-4-2" data-name="Fill-18-Copy-4" class="cls-5" points="31.57 121.67 34.74 128.4 41.81 129.48 36.69 134.72 37.9 142.13 31.57 138.63 25.24 142.13 26.45 134.72 21.33 129.48 28.41 128.4 31.57 121.67"/><g id="Sash-and-text"><polygon id="Rectangle" class="cls-6" points="17.39 164.02 268.61 164.02 268.61 201.45 229.36 225.78 56.64 225.78 17.39 201.45 17.39 164.02"/></g><polygon id="Rectangle-2" data-name="Rectangle" class="cls-7" points="17.39 164.02 268.61 164.02 56.64 225.78 17.39 201.45 17.39 164.02"/><g id="year" class="cls-8">

<text class="season" text-anchor="middle" transform="translate(143 205)">Spring 2024</text></g></g></g><g id="logo"><path class="cls-10" d="M232.05,124.58v-6.74h-2.71s0,2-3.37,4.73c-2.61,2.11-7.38,2-7.38,2v4h2.71l-.05,16.13h10.8V128.59h2.72v-4Z"/><path class="cls-10" d="M205.18,124.58c-7,0-12.11,4-12.11,10.09,0,6.73,5,10.1,12.11,10.1s12.1-3.37,12.1-10.1c-.05-6.08-5.07-10.09-12.1-10.09m1.3,16.12s0,.65-1.35.65-1.36-.65-1.36-.65V128.59s0-.65,1.36-.65,1.35.65,1.35.65Z"/><path class="cls-10" d="M178.25,124.58s-14.77-2-14.77,10.09c0,10.45,12.11,10.1,12.11,10.1h14.77V117.89H178.25Zm0,16.12H176.9c-.66,0-2.72-2-2.72-6.73,0-5.38,1.36-5.38,1.36-5.38h2.71Z"/><path class="cls-10" d="M65.33,123.92c0-.65,1.36-.65,1.36-.65H69.4v-2.71s-4-2.72-7.39-2.72c-10.09,0-10.09,4.58-10.09,6.74,0,2,1.15,3.61,2.46,6.43,1.66,3.56,3.41,6.12,2.26,7.68a3.35,3.35,0,0,1-2,.65H51.92v4a11.23,11.23,0,0,0,2,.66,37.19,37.19,0,0,0,7.38.65c4,0,9.39-1.36,9.39-6.73,0-3.37-5.22-11-5.37-13.46Z"/><rect class="cls-10" x="73.42" y="117.84" width="12.11" height="26.87"/><path class="cls-10" d="M110.39,126.58a17.67,17.67,0,0,0-8.09-2c-6,0-9.34,1.2-10.55,1.85-.25.15-.4.86-.4,1.51a5.86,5.86,0,0,0,.2,1.36s2-.66,8.09-.66c0,0,.65,0,.65,1.36s-.65,1.36-.65,1.36h-2c-2,0-4.62.2-5.93.85-2.16,1.16-3.51,2.51-3.51,5.83a7.79,7.79,0,0,0,4,6.73h21.5V130c0-.05,0-1.41-3.31-3.42m-10.1,15.48H98.94c-.66,0-1.36-1.36-1.36-4,0-4,1.36-4,1.36-4h1.35Z"/><path class="cls-10" d="M128.52,129.1c0-.51,1-.51,1-.51h1.65v-2.71a23.81,23.81,0,0,0-6.73-1.35c-7.58,0-8.08,3.11-8.08,4.72s1,3.26,2,5.37c1.25,2.66,2.91,4.87,2,6a3,3,0,0,1-1.85.65h-2.16V144a19.11,19.11,0,0,0,5.37.65h2.16c2.51,0,8.59-1,8.59-5,0-2.52-3.92-8.24-4-10.1v-.45Z"/><path class="cls-10" d="M154,123.92a16.3,16.3,0,0,0-6.73,1.36v-7.39H135.2v26.88h12.11V128.64s0-.65,1.36-.65,1.35.65,1.35.65v16.13h10.75V127.94s0-4-6.73-4"/></g><g id="top-performer"><path class="cls-11" d="M108.33,32.31v-4.6H132v4.6H122.9V58.08h-5.12V32.31Z"/><path class="cls-11" d="M141.74,58.5a10.65,10.65,0,0,1-5.42-1.33,9.06,9.06,0,0,1-3.58-3.84,13.16,13.16,0,0,1-1.27-6,13.58,13.58,0,0,1,1.23-6,9.37,9.37,0,0,1,3.54-4,11.42,11.42,0,0,1,10.92-.06,9.16,9.16,0,0,1,3.54,3.91A13.75,13.75,0,0,1,152,47.33a13.49,13.49,0,0,1-1.19,5.81,9.18,9.18,0,0,1-3.46,3.93A10.22,10.22,0,0,1,141.74,58.5Zm0-3.88a4.37,4.37,0,0,0,2.91-1,5.72,5.72,0,0,0,1.7-2.65,12.14,12.14,0,0,0,.56-3.82,12.92,12.92,0,0,0-.5-3.67,5.67,5.67,0,0,0-1.63-2.7,4.42,4.42,0,0,0-3-1,4.59,4.59,0,0,0-2.95.93,5.58,5.58,0,0,0-1.74,2.61,11.63,11.63,0,0,0-.58,3.85,12.33,12.33,0,0,0,.52,3.67,5.91,5.91,0,0,0,1.66,2.73A4.46,4.46,0,0,0,141.76,54.62Z"/><path class="cls-11" d="M156.48,64.84V36.37h5.1l0,3.42a7.91,7.91,0,0,1,1.08-1.41,8.21,8.21,0,0,1,1.53-1.24,8.63,8.63,0,0,1,8.73,0,7.93,7.93,0,0,1,3,3.65A15.11,15.11,0,0,1,177.1,47,16,16,0,0,1,176,53.4a8.33,8.33,0,0,1-3.17,3.83,8.72,8.72,0,0,1-4.73,1.27,7,7,0,0,1-2.25-.34,6.36,6.36,0,0,1-1.82-.92A8.63,8.63,0,0,1,162.6,56a7.46,7.46,0,0,1-1-1.45V64.84Zm10.46-10.16a4.73,4.73,0,0,0,3.82-1.84q1.52-1.83,1.51-5.76a9.05,9.05,0,0,0-1.41-5.37,4.58,4.58,0,0,0-3.92-2,4.48,4.48,0,0,0-4,2.07,9.44,9.44,0,0,0-1.35,5.26,11.54,11.54,0,0,0,.6,3.79A6.38,6.38,0,0,0,164,53.64,4.37,4.37,0,0,0,166.94,54.68Z"/><path class="cls-11" d="M45.65,97.08V66.71H56.42a14.63,14.63,0,0,1,5.87,1.13,8.89,8.89,0,0,1,5.57,8.68,9.48,9.48,0,0,1-1.35,5.15,8.66,8.66,0,0,1-3.77,3.27,13.1,13.1,0,0,1-5.65,1.14H50.83v11ZM50.79,82H57a6.11,6.11,0,0,0,4.36-1.59A5.46,5.46,0,0,0,63,76.23a4.92,4.92,0,0,0-1.76-4,6.78,6.78,0,0,0-4.43-1.44h-6Z"/><path class="cls-11" d="M75.15,87.4a8.1,8.1,0,0,0,.59,3.28,5.05,5.05,0,0,0,1.8,2.23,5.19,5.19,0,0,0,3,.81,5.94,5.94,0,0,0,3.14-.81,3.94,3.94,0,0,0,1.77-2.47H90.1a7.38,7.38,0,0,1-1.8,3.85,9.31,9.31,0,0,1-3.46,2.39,11.74,11.74,0,0,1-9.74-.51,9.35,9.35,0,0,1-3.72-3.81,12.31,12.31,0,0,1-1.33-5.91,13.7,13.7,0,0,1,1.22-5.93,9.58,9.58,0,0,1,3.51-4.08,11.22,11.22,0,0,1,10.94-.13A8.57,8.57,0,0,1,89,80.12a13.59,13.59,0,0,1,1.13,5.73V87.4Zm0-3.17H85.34a7.24,7.24,0,0,0-.55-2.85,4.45,4.45,0,0,0-1.67-2,5,5,0,0,0-2.82-.75,4.76,4.76,0,0,0-2.84.82,5.18,5.18,0,0,0-1.74,2.11A6.27,6.27,0,0,0,75.15,84.23Z"/><path class="cls-11" d="M94.91,97.08V75.37H99.8v4.7a7.83,7.83,0,0,1,1.51-2.76,6.53,6.53,0,0,1,2.3-1.75,6.72,6.72,0,0,1,2.87-.61,6,6,0,0,1,.74,0,1.35,1.35,0,0,1,.52.15V80a2,2,0,0,0-.6-.15,5.1,5.1,0,0,0-.64,0,9.91,9.91,0,0,0-2.78.13,5.24,5.24,0,0,0-2,.85,3.81,3.81,0,0,0-1.25,1.51,5.06,5.06,0,0,0-.42,2.13V97.08Z"/><path class="cls-11" d="M125,75.37V79h-4.89v18.1H115V79H110.7V75.37H115V72.13a5.36,5.36,0,0,1,1.44-4,5.68,5.68,0,0,1,4.16-1.41h4.58l0,3.49h-3a1.94,1.94,0,0,0-1.7.64,3.47,3.47,0,0,0-.46,2v2.52Z"/><path class="cls-11" d="M138,97.5a10.65,10.65,0,0,1-5.42-1.33A9.06,9.06,0,0,1,129,92.33a13,13,0,0,1-1.27-6,13.58,13.58,0,0,1,1.23-6,9.37,9.37,0,0,1,3.54-4,11.42,11.42,0,0,1,10.92-.06,9.16,9.16,0,0,1,3.54,3.91,13.75,13.75,0,0,1,1.25,6.11A13.49,13.49,0,0,1,147,92.14a9.18,9.18,0,0,1-3.46,3.93A10.22,10.22,0,0,1,138,97.5Zm0-3.88a4.37,4.37,0,0,0,2.91-1,5.72,5.72,0,0,0,1.7-2.65,12.14,12.14,0,0,0,.56-3.82,12.92,12.92,0,0,0-.5-3.67,5.67,5.67,0,0,0-1.63-2.7,4.42,4.42,0,0,0-3-1,4.59,4.59,0,0,0-2.95.93,5.58,5.58,0,0,0-1.74,2.61,11.63,11.63,0,0,0-.58,3.85,12.33,12.33,0,0,0,.52,3.67,5.91,5.91,0,0,0,1.66,2.73A4.46,4.46,0,0,0,138,93.62Z"/><path class="cls-11" d="M152.7,97.08V75.37h4.89v4.7a8,8,0,0,1,1.51-2.76,6.53,6.53,0,0,1,2.3-1.75,6.72,6.72,0,0,1,2.87-.61,6,6,0,0,1,.74,0,1.29,1.29,0,0,1,.52.15V80a2,2,0,0,0-.6-.15,5.1,5.1,0,0,0-.64,0,9.91,9.91,0,0,0-2.78.13,5.24,5.24,0,0,0-2,.85,3.81,3.81,0,0,0-1.25,1.51,5.06,5.06,0,0,0-.42,2.13V97.08Z"/><path class="cls-11" d="M169.42,97.08V75.37h5v3.1A8.61,8.61,0,0,1,177,76a7.48,7.48,0,0,1,4.14-1,7.25,7.25,0,0,1,2.35.4,7.41,7.41,0,0,1,2.2,1.17,5.86,5.86,0,0,1,1.63,1.93A8.12,8.12,0,0,1,190,75.93a7.63,7.63,0,0,1,3.85-1,8.13,8.13,0,0,1,2.43.38,6.55,6.55,0,0,1,2.3,1.25,6.37,6.37,0,0,1,1.7,2.41A9.8,9.8,0,0,1,201,82.8V97.08h-5.1V83.41a4.83,4.83,0,0,0-.57-2.54,3.22,3.22,0,0,0-1.46-1.31,4.72,4.72,0,0,0-1.9-.39,5.65,5.65,0,0,0-1.88.35,4,4,0,0,0-1.66,1.18,3.37,3.37,0,0,0-.68,2.21V97.08h-5.1V82.59A3,3,0,0,0,182,80.7a3.78,3.78,0,0,0-1.48-1.14,4.52,4.52,0,0,0-1.82-.39,5,5,0,0,0-1.92.4,4,4,0,0,0-1.63,1.21,3.36,3.36,0,0,0-.65,2.13V97.08Z"/><path class="cls-11" d="M210.45,87.4a8.1,8.1,0,0,0,.59,3.28,5.05,5.05,0,0,0,1.8,2.23,5.19,5.19,0,0,0,3,.81,5.94,5.94,0,0,0,3.14-.81,3.94,3.94,0,0,0,1.77-2.47h4.68a7.38,7.38,0,0,1-1.8,3.85,9.31,9.31,0,0,1-3.46,2.39,11.74,11.74,0,0,1-9.74-.51,9.35,9.35,0,0,1-3.72-3.81,12.31,12.31,0,0,1-1.33-5.91,13.7,13.7,0,0,1,1.22-5.93,9.58,9.58,0,0,1,3.51-4.08A11.22,11.22,0,0,1,221,76.31a8.57,8.57,0,0,1,3.32,3.81,13.59,13.59,0,0,1,1.13,5.73V87.4Zm0-3.17h10.19a7.24,7.24,0,0,0-.55-2.85,4.45,4.45,0,0,0-1.67-2,5,5,0,0,0-2.82-.75,4.76,4.76,0,0,0-2.84.82A5.18,5.18,0,0,0,211,81.55,6.27,6.27,0,0,0,210.45,84.23Z"/><path class="cls-11" d="M230.21,97.08V75.37h4.89v4.7a8,8,0,0,1,1.51-2.76,6.53,6.53,0,0,1,2.3-1.75,6.72,6.72,0,0,1,2.87-.61,6,6,0,0,1,.74,0,1.35,1.35,0,0,1,.52.15V80a2,2,0,0,0-.6-.15,5.1,5.1,0,0,0-.64,0A9.91,9.91,0,0,0,239,80a5.24,5.24,0,0,0-2,.85,3.81,3.81,0,0,0-1.25,1.51,5.06,5.06,0,0,0-.42,2.13V97.08Z"/></g></g></g></svg>