<?xml version="1.0" encoding="UTF-8"?>
<svg width="371px" height="371px" viewBox="0 0 371 371" version="1.1" xmlns="http://www.w3.org/2000/svg" xmlns:xlink="http://www.w3.org/1999/xlink">
    <title>Outstanding Spring 2021 white</title>
    <defs>
        <linearGradient x1="50%" y1="0%" x2="50%" y2="100%" id="linearGradient-1">
            <stop stop-color="#1E1E1E" offset="0%"></stop>
            <stop stop-color="#0D0D0D" offset="100%"></stop>
        </linearGradient>
        <linearGradient x1="198.040385%" y1="39.4626219%" x2="77.3770612%" y2="50%" id="linearGradient-2">
            <stop stop-color="#FFCB00" offset="0%"></stop>
            <stop stop-color="#F06A2B" offset="100%"></stop>
        </linearGradient>
        <linearGradient x1="-23.8878218%" y1="50.8948637%" x2="-111.319272%" y2="25.1770851%" id="linearGradient-3">
            <stop stop-color="#FFFFFF" offset="0%"></stop>
            <stop stop-color="#DDDDDD" offset="100%"></stop>
        </linearGradient>
        <linearGradient x1="-23.8878218%" y1="51.831876%" x2="-111.319272%" y2="-0.815003839%" id="linearGradient-4">
            <stop stop-color="#FFFFFF" offset="0%"></stop>
            <stop stop-color="#DDDDDD" offset="100%"></stop>
        </linearGradient>
        <linearGradient x1="-23.8878218%" y1="50.2533672%" x2="-111.319272%" y2="42.9717654%" id="linearGradient-5">
            <stop stop-color="#FFFFFF" offset="0%"></stop>
            <stop stop-color="#DDDDDD" offset="100%"></stop>
        </linearGradient>
    </defs>
    <g id="Outstanding-Spring-2021-white" stroke="none" stroke-width="1" fill="none" fill-rule="evenodd">
        <g id="Group-4">
            <g id="Group-2" transform="translate(185.261977, 185.261977) rotate(-315.000000) translate(-185.261977, -185.261977) translate(54.261977, 54.261977)">
                <rect id="Rectangle" fill="#C7BAAF" x="0" y="0" width="262" height="262"></rect>
                <rect id="Rectangle" fill="#F06A2B" x="7" y="7" width="248" height="248"></rect>
                <rect id="Rectangle" fill="url(#linearGradient-1)" x="15" y="15" width="232" height="232"></rect>
            </g>
            <polygon id="Fill-18-Copy-4" fill="#FFCB00" points="120.499235 242 123.435612 248.253959 130 249.257939 125.248852 254.124989 126.37199 261 120.499235 257.754763 114.62801 261 115.749617 254.124989 111 249.257939 117.564388 248.253959"></polygon>
            <polygon id="Fill-18-Copy-4" fill="#FFCB00" points="250.499235 242 253.435612 248.253959 260 249.257939 255.248852 254.124989 256.37199 261 250.499235 257.754763 244.62801 261 245.749617 254.124989 241 249.257939 247.564388 248.253959"></polygon>
            <g id="SF-logo-vector" transform="translate(155.000000, 50.000000)" fill="#F06A2A">
                <path d="M25.8876253,0 L33.3403115,0 C33.7046474,-5.95374649e-15 34,0.295352614 34,0.659688527 L34,0.925682962 C34,1.17869482 33.9040935,1.42230147 33.7316092,1.60740726 L10.3048278,26.7484328 C9.94769517,27.1316984 9.9468783,27.7256197 10.3029553,28.1098663 L28.8234058,48.0954869 C29.1758654,48.4758299 29.1791211,49.0624913 28.8309046,49.4467227 L25.4359844,53.1927687 C25.0651105,53.6020009 24.4327095,53.6330964 24.0234773,53.2622225 C24.0023484,53.243074 23.9820481,53.2230305 23.9626322,53.202147 L0.632441143,28.1085243 C0.275856992,27.7249874 0.275569784,27.1313049 0.631782677,26.7474232 L25.1545951,0.319803933 C25.3438187,0.115882371 25.6094355,2.04950409e-15 25.8876253,0 Z" id="Rectangle"></path>
                <path d="M52.9140361,3 L60.3345687,3 C60.7020763,3 61,3.29792372 61,3.66543126 L61,3.94383716 C61,4.19285434 60.9070913,4.43291269 60.7394501,4.61704848 L37.3177608,30.3432522 C36.9706531,30.7245127 36.9703233,31.3071841 37.3169992,31.6888373 L55.8181864,52.0566719 C56.1628186,52.4360752 56.1647875,53.0146256 55.8227456,53.3963658 L52.4347453,57.1775859 C52.0661946,57.5889116 51.4339799,57.6235875 51.0226542,57.2550368 C50.9980705,57.2330096 50.9745924,57.2097786 50.9523063,57.1854294 L27.6159019,31.6886185 C27.2669843,31.3073993 27.2660158,30.7231141 27.6136677,30.3407404 L52.1741339,3.32728552 C52.3636546,3.11883632 52.6323107,3 52.9140361,3 Z" id="Rectangle" transform="translate(44.000000, 30.500000) rotate(-180.000000) translate(-44.000000, -30.500000) "></path>
                <path d="M31.728575,42 C36.5861891,42 40.4177373,36.5317636 39.9633726,30.6848695 C39.7612106,28.0833911 38.1840781,23.4263763 37.649386,24.2550212 C37.3853509,24.6642124 37.9844168,27.8593484 37.788203,29.8139048 C37.4620231,33.0631013 36.2326234,35.0417283 35.6045136,33.8849416 C34.9764038,32.728155 35.1919932,30.4451045 35.0394967,28.042066 C34.8741421,25.4364088 34.4430874,22.8414106 33.9073729,21.2319133 C33.6737237,20.5299394 31.4751841,14.5633155 29.8896962,14 C29.7868443,14 29.7222803,14 29.6960041,14 C29.6447435,14 29.4994101,14.0498406 29.410697,14.1288742 C29.0612941,14.4401538 29.5867645,16.4881328 28.131553,18.9825264 C27.1762537,20.6200153 25.3147769,22.7549428 24.4022809,24.8512238 C23.1667858,27.6895319 22.9462796,30.4710018 23.009807,31.9397653 C23.2869354,38.3470165 26.8709609,42 31.728575,42 Z" id="Oval"></path>
            </g>
            <polygon id="Rectangle" fill="url(#linearGradient-2)" points="67.3460111 149 303.181678 149 340 185.5 303.181678 222 67.3460111 222 31 185.5"></polygon>
            <text id="Spring" fill="url(#linearGradient-3)" font-family="Arial-BoldMT, Arial" font-size="30" font-weight="bold" letter-spacing="-0.466666667">
                <tspan x="139.402441" y="259">Spring</tspan>
            </text>
            <text id="2021" fill="url(#linearGradient-4)" font-family="Arial-BoldMT, Arial" font-size="30" font-weight="bold" letter-spacing="-0.466666667">
                <tspan x="153.064193" y="295">2024</tspan>
            </text>
        </g>
        <text id="Top-Performer" fill="url(#linearGradient-5)" font-family="Arial-BoldMT, Arial" font-size="39" font-weight="bold">
            <tspan x="50.642334" y="199">Top Performer</tspan>
        </text>
        <g id="SourceForge-Logo-White" transform="translate(92.000000, 120.000000)" fill="#FFFFFF">
            <path d="M10.1703246,2.64585656 C10.0989181,2.79821628 9.99690881,2.87625418 9.82349304,2.87625418 C9.72148377,2.87625418 9.5820711,2.79821628 9.40865533,2.60869565 C9.23863988,2.41917503 8.99381762,2.23337049 8.71839258,2.04384987 C8.40556414,1.81345225 8.05873261,1.62764771 7.60989181,1.475288 C7.161051,1.28576737 6.60680062,1.20772947 5.95054096,1.20772947 C5.29088099,1.20772947 4.74003091,1.32664437 4.21978362,1.5124489 C3.73693972,1.70196953 3.32210201,2.00297287 2.97527048,2.34485321 C2.62843895,2.68673356 2.387017,3.09921962 2.21360124,3.55258268 C2.04018547,4.00594575 1.9381762,4.5001858 1.9381762,4.99070977 C1.9381762,5.67075437 2.07758887,6.20215533 2.31561051,6.65551839 C2.56043277,7.06800446 2.9072643,7.44704571 3.3561051,7.75176514 C3.77094281,8.05276849 4.25378671,8.31661093 4.80803709,8.50613155 C5.36228748,8.73652917 5.91653787,8.9223337 6.47078825,9.11185433 C7.02163833,9.30137495 7.57588872,9.52805648 8.1301391,9.79189892 C8.68438949,10.0185805 9.13323029,10.3604608 9.5820711,10.698625 C10.0309119,11.0405054 10.3437403,11.5347454 10.6191654,12.0587142 C10.8639876,12.5901152 11,13.2701598 11,14.0654032 C11,14.8978075 10.8639876,15.6521739 10.6191654,16.3693794 C10.3777434,17.090301 9.99690881,17.7331847 9.51406491,18.2608696 C9.03122102,18.7922705 8.40556414,19.2047566 7.71530139,19.5466369 C6.98763524,19.8476403 6.19196291,20 5.29088099,20 C4.11777434,20 3.08068006,19.7733185 2.24760433,19.3199554 C1.38392581,18.8665923 0.65625966,18.2199926 0,17.4321813 L0.34683153,16.8227425 C0.448840804,16.6703828 0.554250386,16.6369379 0.690262751,16.6369379 C0.761669243,16.6369379 0.863678516,16.6703828 0.969088099,16.7892977 C1.07109737,16.9007804 1.24451314,17.0531401 1.38392581,17.2017837 C1.55734158,17.3541434 1.76476043,17.5436641 2.00618238,17.7331847 C2.24760433,17.9189892 2.52302937,18.1085098 2.83585781,18.2608696 C3.14868624,18.4132293 3.49551777,18.5618729 3.91035549,18.6733556 C4.3251932,18.7922705 4.774034,18.8257153 5.29088099,18.8257153 C6.01854714,18.8257153 6.64080371,18.7142326 7.1950541,18.4875511 C7.74930448,18.2608696 8.23214838,17.9189892 8.612983,17.5436641 C8.99381762,17.1646228 9.30664606,16.6369379 9.51406491,16.105537 C9.72148377,15.5406912 9.82349304,14.9349684 9.82349304,14.3292456 C9.82349304,13.649201 9.68408037,13.0843553 9.44605873,12.6309922 C9.20123648,12.173913 8.85440495,11.7948718 8.40556414,11.4938685 C7.99072643,11.1928651 7.50788253,10.9290227 6.95363215,10.739502 C6.39938176,10.5499814 5.84853168,10.3195838 5.29088099,10.1337793 C4.74003091,9.94425864 4.18578053,9.71386102 3.63153014,9.49089558 C3.08068006,9.26049796 2.62843895,8.95949461 2.17959815,8.58416945 C1.76476043,8.20512821 1.4179289,7.75176514 1.14250386,7.18320327 C0.897681607,6.6146414 0.761669243,5.93831289 0.761669243,5.06503159 C0.761669243,4.42586399 0.863678516,3.7829803 1.10510046,3.17725753 C1.34992272,2.56781865 1.66275116,2.04384987 2.10819165,1.54960981 C2.56043277,1.09624675 3.08068006,0.7172055 3.73693972,0.416202155 C4.39319938,0.152359718 5.12086553,0 5.95054096,0 C6.88562597,0 7.71530139,0.152359718 8.47357032,0.494240059 C9.20123648,0.832404311 9.89149923,1.32664437 10.5171561,1.96581197 L10.1703246,2.64585656 Z" id="Fill-953"></path>
            <path d="M30.7586207,9.9981544 C30.7586207,8.64717359 30.5721066,7.40692892 30.1990784,6.31802362 C29.8297073,5.22911833 29.3067365,4.32846446 28.63748,3.57914997 C27.9682235,2.82614427 27.1490244,2.26139 26.1835396,1.85166632 C25.2143978,1.43825142 24.1721131,1.25 23.0201143,1.25 C21.8644583,1.25 20.8258308,1.43825142 19.8566889,1.85166632 C18.887547,2.26139 18.072005,2.82614427 17.4027485,3.57914997 C16.7334921,4.32846446 16.1739498,5.22911833 15.8009216,6.31802362 C15.4278934,7.40692892 15.2413793,8.61026155 15.2413793,9.9981544 C15.2413793,11.3491352 15.4278934,12.5893799 15.8009216,13.6782852 C16.1739498,14.7671905 16.6932635,15.6678443 17.4027485,16.42085 C18.072005,17.1701645 18.887547,17.7349188 19.8566889,18.1483337 C20.8258308,18.5580574 21.8644583,18.75 23.0201143,18.75 C24.1721131,18.75 25.2509691,18.5580574 26.1835396,18.1483337 C27.1490244,17.7718308 27.9682235,17.1701645 28.63748,16.42085 C29.3067365,15.6678443 29.8297073,14.7671905 30.1990784,13.6782852 C30.5721066,12.5893799 30.7586207,11.3897385 30.7586207,9.9981544 M32,10 C32,11.504065 31.7819265,12.8566149 31.3457795,14.0983001 C30.9096326,15.3399852 30.2911619,16.3895048 29.4939424,17.2579453 C28.693148,18.1189948 27.7493545,18.7989653 26.6554121,19.2867701 C25.5650447,19.7782705 24.3281033,20 22.9839126,20 C21.6718967,20 20.4385303,19.7782705 19.3445879,19.2867701 C18.2542205,18.7989653 17.310427,18.1596452 16.5060576,17.2579453 C15.7088381,16.3895048 15.0903674,15.3399852 14.6542205,14.0983001 C14.2180735,12.8566149 14,11.504065 14,10 C14,8.49963045 14.2180735,7.14338507 14.6542205,5.90539542 C15.0903674,4.66371027 15.7088381,3.6104952 16.5060576,2.74575018 C17.310427,1.88100517 18.2542205,1.20103474 19.3445879,0.71322986 C20.4385303,0.225424982 21.6718967,0 22.9839126,0 C24.3281033,0 25.5650447,0.225424982 26.6554121,0.71322986 C27.7493545,1.20103474 28.693148,1.84405026 29.4939424,2.74575018 C30.2911619,3.6104952 30.9096326,4.66371027 31.3457795,5.90539542 C31.7819265,7.14338507 32,8.49963045 32,10" id="Fill-955"></path>
            <path d="M43.0366675,18.7455533 C43.9236717,18.7455533 44.7059117,18.592024 45.4183088,18.2475192 C46.1272138,17.9030144 46.696433,17.4461711 47.1923173,16.8769893 C47.6916937,16.3078075 48.0444001,15.5813518 48.2923422,14.8211945 C48.5437765,14.0198465 48.6834622,13.1847969 48.6834622,12.2299195 L48.6834622,0 L50,0 L50,12.2299195 C50,13.3345815 49.8219007,14.3231605 49.5041157,15.2780378 C49.1828386,16.2291706 48.7183836,17.0305186 48.1177351,17.7532297 C47.5135944,18.4384947 46.7662759,19.0114211 45.9141931,19.393372 C45.0621103,19.7715784 44.0668496,20 43.0017461,20 C41.9366426,20 40.9378897,19.8090245 40.0858069,19.393372 C39.2337241,18.9739749 38.4898977,18.4384947 37.8822649,17.7532297 C37.2816164,17.0679648 36.8171614,16.2291706 36.4993764,15.2780378 C36.1780993,14.3231605 36,13.2971354 36,12.2299195 L36,0 L37.3514592,0 L37.3514592,12.1924733 C37.3514592,13.1061599 37.4946371,13.9824003 37.7425792,14.7800037 C37.9905213,15.5813518 38.3816413,16.2666167 38.8426041,16.8395432 C39.3419805,17.4124696 39.9077077,17.8693129 40.6201048,18.210073 C41.3290097,18.592024 42.1496633,18.7455533 43.0366675,18.7455533" id="Fill-957"></path>
            <path d="M57.7545979,9.86363636 L58.1081526,9.86363636 L58.9651386,9.86363636 C59.8643975,9.86363636 60.6867966,9.75 61.3900631,9.55681818 C62.0933297,9.3219697 62.7197365,9.0530303 63.1885808,8.63257576 C63.6958551,8.24242424 64.0494098,7.74242424 64.3222619,7.20454545 C64.5951139,6.66287879 64.7142465,6.00757576 64.7142465,5.31818182 C64.7142465,3.89015152 64.2454021,2.84848485 63.3077134,2.15530303 C62.3700247,1.46212121 60.9980785,1.11363636 59.1611309,1.11363636 L55.4488059,1.11363636 L55.4488059,9.86363636 L55.4488059,10.9431818 L55.4488059,20 L54,20 L54,0 L59.1611309,0 C61.5091957,0 63.2692836,0.462121212 64.3991216,1.34848485 C65.5750755,2.23106061 66.1207796,3.54166667 66.1207796,5.27651515 C66.1207796,6.04924242 66.001647,6.74242424 65.7326379,7.35984848 C65.4559429,7.97348485 65.0639583,8.5530303 64.5566841,9.01515152 C64.0494098,9.47727273 63.4614329,9.90151515 62.7581663,10.1704545 C62.0548998,10.4810606 61.2325007,10.6742424 60.3755147,10.7878788 C60.6099369,10.9431818 60.8020862,11.1363636 60.9980785,11.3636364 L68,20 L66.7087565,20 C66.5511941,20 66.4359045,19.9583333 66.3167719,19.9204545 C66.2014823,19.8863636 66.0823497,19.7651515 66.001647,19.6515152 L59.5146857,11.5568182 C59.3571233,11.3636364 59.1611309,11.2121212 59.0074115,11.1363636 C58.8114192,11.0568182 57.6738951,11.0227273 57.2857535,11.0227273 C57.2857535,9.97727273 57.439473,9.86363636 57.7545979,9.86363636" id="Fill-959"></path>
            <path d="M82.2678735,16.4975935 C82.340055,16.4975935 82.4431714,16.5383191 82.4775435,16.6086635 L83,17.2121437 C82.6184693,17.6305072 82.2335014,18.0414661 81.776352,18.3820807 C81.3226398,18.7226953 80.8345555,19.0225842 80.3086618,19.2484265 C79.7862053,19.4742688 79.1881302,19.6593854 78.5969294,19.8148834 C77.9679193,19.966679 77.2667278,20 76.5346013,20 C75.2731439,20 74.1182401,19.7741577 73.06989,19.2854498 C72.0215399,18.7967419 71.1106783,18.1525361 70.3785518,17.249167 C69.6429881,16.3865235 69.0483501,15.3313588 68.6290101,14.087375 C68.20967,12.8470937 68,11.4883377 68,9.98148834 C68,8.51536468 68.20967,7.15660866 68.6633822,5.91632729 C69.0861595,4.67234358 69.7151696,3.65420215 70.4816682,2.75083302 C71.251604,1.88448723 72.1968378,1.20325805 73.27956,0.714550167 C74.3657195,0.225842281 75.5893676,0 76.8817599,0 C77.5451421,0 78.13978,0.0370233247 78.7000458,0.151795631 C79.2603116,0.262865605 79.7518332,0.414661237 80.2399175,0.603480193 C80.7280018,0.792299148 81.1473419,1.05516475 81.5666819,1.35505368 C81.986022,1.65494261 82.4087993,1.9955572 82.79033,2.37319511 L82.4087993,2.97667531 C82.340055,3.08774528 82.2335014,3.12847094 82.0925756,3.12847094 C82.0238313,3.12847094 81.9172777,3.08774528 81.8141613,2.97667531 C81.7076077,2.861903 81.5323098,2.75083302 81.3570119,2.59903739 C81.1851512,2.44724176 80.9376719,2.29914846 80.6936297,2.14735283 C80.4495875,1.95853388 80.1333639,1.80673825 79.7518332,1.69566827 C79.4012374,1.54387264 78.9784601,1.43280267 78.4903758,1.31803036 C78.0366636,1.20325805 77.4763978,1.16623473 76.8817599,1.16623473 C75.7612282,1.16623473 74.7472502,1.35505368 73.8398258,1.76971492 C72.9324015,2.18437616 72.1280935,2.75083302 71.4612741,3.53942984 C70.7978918,4.29470566 70.2719982,5.23509811 69.8870302,6.29026287 C69.5054995,7.34542762 69.3302016,8.585709 69.3302016,9.94076268 C69.3302016,11.336542 69.5054995,12.5435024 69.8870302,13.6356905 C70.2719982,14.7241762 70.7635197,15.6312477 71.4269019,16.3865235 C72.0937214,17.138097 72.86022,17.7008515 73.7367094,18.1155128 C74.6097617,18.5338763 75.5893676,18.7226953 76.6033456,18.7226953 C77.2667278,18.7226953 77.8269936,18.6819696 78.34945,18.5708997 C78.8753437,18.4931507 79.3324931,18.3450574 79.7518332,18.1525361 C80.1711732,17.9637171 80.5905133,17.7415772 80.9376719,17.4787116 C81.3226398,17.2121437 81.6732356,16.9122547 82.0238313,16.5383191 C82.0582035,16.4975935 82.0925756,16.4605702 82.1269478,16.4605702 C82.1613199,16.5383191 82.2335014,16.4975935 82.2678735,16.4975935" id="Fill-961"></path>
            <polygon id="Fill-963" points="98 0 98 1.19544592 87.4677623 1.19544592 87.4677623 9.30550285 96.2250316 9.30550285 96.2250316 10.4629981 87.4677623 10.4629981 87.4677623 18.8045541 98 18.8045541 98 20 86 20 86 0"></polygon>
            <polygon id="Fill-965" points="114 0 114 2.98037764 104.85256 2.98037764 104.85256 8.88930026 112.561507 8.88930026 112.561507 11.8659756 104.85256 11.8659756 104.85256 20 101 20 101 0.0407256572 114 0.0407256572"></polygon>
            <path d="M132.25,10 C132.25,8.93368822 132.10054,7.97581493 131.801619,7.13360936 C131.506343,6.28778917 131.101706,5.55402208 130.580417,4.96122503 C130.059128,4.37204259 129.392024,3.93105941 128.615558,3.60212934 C127.835448,3.27319926 126.982429,3.125 126.02005,3.125 C125.054024,3.125 124.201006,3.27319926 123.424541,3.60212934 C122.64443,3.93105941 122.01378,4.37204259 121.456037,4.96122503 C120.901939,5.55402208 120.493657,6.28778917 120.194736,7.13360936 C119.89946,7.97581493 119.75,8.93368822 119.75,10 C119.75,11.0663118 119.89946,12.0241851 120.194736,12.8700053 C120.493657,13.7122108 120.901939,14.4495925 121.456037,15.038775 C122.01378,15.6279574 122.64443,16.0689406 123.424541,16.4014853 C124.201006,16.7304154 125.054024,16.875 126.02005,16.875 C126.982429,16.875 127.835448,16.7304154 128.615558,16.4014853 C129.392024,16.0689406 130.022674,15.6279574 130.580417,15.038775 C131.101706,14.4495925 131.506343,13.7122108 131.801619,12.8700053 C132.10054,12.0241851 132.25,11.0663118 132.25,10 M136,10 C136,11.439971 135.777088,12.771128 135.29472,13.9862169 C134.812352,15.2049329 134.143614,16.2713094 133.24831,17.1599565 C132.396857,18.0449764 131.318838,18.7450127 130.090992,19.2636924 C128.863146,19.778745 127.489128,20 126.001827,20 C124.514526,20 123.136854,19.7461008 121.909008,19.2636924 C120.684816,18.7450127 119.64334,18.0848749 118.75169,17.1599565 C117.856386,16.2713094 117.187648,15.2049329 116.70528,13.9862169 C116.222912,12.771128 116,11.439971 116,10 C116,8.56365615 116.222912,7.23249909 116.70528,6.0137831 C117.187648,4.7950671 117.856386,3.72869061 118.75169,2.84004353 C119.64334,1.95502358 120.684816,1.25498731 121.909008,0.736307581 C123.136854,0.221254987 124.514526,0 126.001827,0 C127.489128,0 128.863146,0.257526297 130.090992,0.776206021 C131.318838,1.29488575 132.35666,1.99492202 133.24831,2.87994197 C134.103417,3.76496192 134.812352,4.83496554 135.29472,6.05368154 C135.740544,7.23249909 136,8.56365615 136,10" id="Fill-966"></path>
            <path d="M142.677772,9.50843999 L143.457401,9.50843999 C144.100428,9.50843999 144.643503,9.43053237 145.116611,9.24503803 C145.593051,9.0558338 145.966207,8.8295307 146.272727,8.52531998 C146.575916,8.22481914 146.81247,7.85012057 146.949072,7.43090336 C147.085673,7.01910592 147.185626,6.52569097 147.185626,6.0359859 C147.185626,5.01576702 146.882437,4.22556112 146.272727,3.69875719 C145.663018,3.16824337 144.746787,2.86774253 143.524036,2.86774253 L141.358401,2.86774253 L141.358401,9.50843999 L141.358401,12.1906882 L141.358401,20 L138,20 L138,0 L143.490719,0 C144.710138,0 145.76297,0.152105361 146.642551,0.415507327 C147.525464,0.675199406 148.235126,1.09070673 148.781533,1.5804118 C149.321276,2.07382675 149.761066,2.71563717 150.000952,3.39825635 C150.270823,4.11055463 150.407425,4.86737155 150.407425,5.73177518 C150.407425,6.41439436 150.304141,7.05620479 150.134222,7.66091634 C149.967634,8.26191801 149.694431,8.79243183 149.354593,9.28213689 C149.014755,9.77184196 148.608282,10.1910592 148.101856,10.5657577 C147.592099,10.9441662 147.049024,11.244667 146.405997,11.4375812 C146.81247,11.6972732 147.185626,12.0756817 147.492147,12.5653868 L152,19.9629011 L148.984769,19.9629011 C148.678248,19.9629011 148.438363,19.8887034 148.235126,19.7774068 C148.03189,19.6624003 147.865302,19.476906 147.728701,19.2097941 L143.967158,12.7953997 C143.863874,12.6432944 143.660638,12.3019848 143.457401,12.2648859 L142.271299,12.2648859 L142.271299,9.84974958 C142.304617,9.50843999 142.677772,9.50843999 142.677772,9.50843999" id="Fill-967"></path>
            <path d="M162.982434,17.1650978 C163.778754,17.1650978 164.500418,17.0890659 165.079883,16.9406227 C165.659348,16.7958001 166.238812,16.5749457 166.779172,16.3178856 L166.779172,11.897176 L164.393768,11.897176 C164.176913,11.897176 163.995609,11.8211441 163.849854,11.7125272 C163.707654,11.564084 163.632999,11.4192614 163.632999,11.2346126 L163.632999,9.17089066 L170,9.17089066 L170,17.9398986 C169.53074,18.3055757 169.022376,18.5988414 168.478461,18.8595221 C167.938101,19.1165822 167.394187,19.3410572 166.779172,19.5220854 C166.167712,19.7067343 165.552698,19.8153512 164.863028,19.8913831 C164.176913,19.9637944 163.451694,20 162.658929,20 C161.247595,20 159.982016,19.7429399 158.787537,19.2650253 C157.593057,18.7834902 156.579883,18.0847212 155.748013,17.2013034 C154.880594,16.3178856 154.230029,15.249819 153.72522,14.0333092 C153.252405,12.82042 153,11.4554671 153,10.0181028 C153,8.54453295 153.216855,7.21940623 153.68967,5.9666908 C154.158929,4.75018103 154.809494,3.68211441 155.676913,2.7986966 C156.544333,1.91527878 157.593057,1.21650978 158.823087,0.738595221 C160.053116,0.257060101 161.4289,0 162.946884,0 C164.500418,0 165.876202,0.220854453 166.996027,0.698769008 C168.154956,1.18030413 169.097031,1.80666184 169.889795,2.5416365 L168.841071,4.19985518 C168.624216,4.53294714 168.371811,4.71759594 168.044751,4.71759594 C167.827896,4.71759594 167.611041,4.64156408 167.394187,4.49312093 C167.106232,4.30847212 166.818277,4.16002896 166.526767,3.97538016 C166.238812,3.79435192 165.911752,3.64952933 165.552698,3.53367125 C165.190088,3.42505431 164.791928,3.31643736 164.358218,3.2404055 C163.924509,3.16799421 163.380594,3.13178856 162.801129,3.13178856 C161.86261,3.13178856 160.991635,3.27661115 160.234421,3.60970311 C159.473651,3.94279508 158.823087,4.38450398 158.282727,5.01086169 C157.738812,5.60101376 157.340652,6.33598841 157.052698,7.18320058 C156.761188,8.03041274 156.615433,8.98624185 156.615433,10.0181028 C156.615433,11.1622013 156.761188,12.1542361 157.088248,13.0376539 C157.415307,13.9210717 157.849017,14.6596669 158.389377,15.249819 C158.933292,15.839971 159.619406,16.3178856 160.380176,16.647357 C161.13739,16.980449 162.079465,17.1650978 162.982434,17.1650978" id="Fill-968"></path>
            <path d="M183.157446,11.9636566 L176.890818,11.9636566 L176.890818,17.0183571 L186,17.0183571 L186,20 L173,20 L173,0 L186,0 L186,2.98535138 L176.85256,2.98535138 L176.85256,9.13406267 L184.052678,9.13406267 L184.052678,11.3220842 C184.052678,11.3220842 184.01442,11.9636566 183.157446,11.9636566" id="Fill-969"></path>
        </g>
    </g>
</svg>