<svg width="220" height="180" viewBox="0 0 220 180" fill="none" xmlns="http://www.w3.org/2000/svg">
<g clip-path="url(#clip0_113_349)">
<path d="M87.2131 91.3731H82.6514V102.991H79.3625V91.3731H74.8228V88.2313H87.2131V91.3731Z" fill="#1C2642"/>
<path d="M88.383 96.575H92.5254C92.496 96.1041 92.312 95.6921 91.9662 95.3463C91.6351 95.0004 91.1274 94.8239 90.4431 94.8239C89.8325 94.8239 89.3469 95.0078 88.9863 95.3683C88.6258 95.7289 88.4271 96.1335 88.383 96.575ZM92.7535 99.2606L95.3949 100.011C95.13 100.968 94.5855 101.762 93.7468 102.388C92.9153 102.998 91.8705 103.307 90.6271 103.307C89.1261 103.307 87.8532 102.807 86.7937 101.806C85.7563 100.806 85.2339 99.4666 85.2339 97.789C85.2339 96.1115 85.7416 94.868 86.7569 93.8526C87.787 92.8373 89.001 92.3296 90.399 92.3296C92.0103 92.3296 93.2685 92.8005 94.1882 93.7423C95.1153 94.6693 95.5862 95.9717 95.5862 97.6345C95.5862 98.1643 95.5641 98.488 95.5273 98.6131H88.3241C88.3536 99.1796 88.5964 99.6579 89.0525 100.048C89.5087 100.423 90.0532 100.607 90.6786 100.607C91.7455 100.607 92.4444 100.158 92.7608 99.2532L92.7535 99.2606Z" fill="#1C2642"/>
<path d="M101.347 95.2433C100.67 95.2433 100.097 95.4714 99.6404 95.9275C99.1989 96.3837 98.9708 97.0165 98.9708 97.8185C98.9708 98.6205 99.1989 99.2312 99.6551 99.6947C100.126 100.151 100.7 100.379 101.384 100.379C101.951 100.379 102.422 100.232 102.782 99.9449C103.157 99.6358 103.408 99.2753 103.533 98.8412L106.321 99.6947C106.071 100.681 105.512 101.527 104.636 102.233C103.775 102.939 102.694 103.293 101.392 103.293C99.8391 103.293 98.522 102.778 97.4331 101.755C96.3662 100.717 95.8291 99.4004 95.8291 97.8185C95.8291 96.2366 96.3515 94.9122 97.3889 93.8821C98.4411 92.8447 99.7434 92.3223 101.281 92.3223C102.628 92.3223 103.731 92.6681 104.592 93.3597C105.453 94.0513 106.005 94.9048 106.255 95.9202L103.422 96.7737C103.297 96.3322 103.062 95.9643 102.716 95.67C102.37 95.3757 101.914 95.2359 101.34 95.2359L101.347 95.2433Z" fill="#1C2642"/>
<path d="M110.375 96.9134V102.991H107.211V87.9149H110.375V93.3081C111.001 92.6827 111.884 92.3737 113.017 92.3737C114.304 92.3737 115.275 92.7637 115.93 93.5362C116.6 94.3014 116.931 95.2873 116.931 96.494V102.991H113.767V97.0385C113.767 96.494 113.62 96.0673 113.333 95.7509C113.053 95.4198 112.641 95.2506 112.082 95.2506C111.597 95.2506 111.192 95.4124 110.876 95.7288C110.567 96.0305 110.405 96.4278 110.375 96.9134Z" fill="#1C2642"/>
<path d="M123.296 100.386C123.95 100.386 124.495 100.166 124.944 99.7167C125.4 99.2753 125.628 98.6352 125.628 97.8037C125.628 96.9723 125.4 96.3395 124.944 95.9128C124.502 95.4713 123.95 95.2432 123.296 95.2432C122.641 95.2432 122.111 95.464 121.647 95.9128C121.191 96.3543 120.963 96.987 120.963 97.8037C120.963 98.6204 121.191 99.2606 121.647 99.7167C122.104 100.158 122.655 100.386 123.296 100.386ZM123.296 92.3296C124.863 92.3296 126.165 92.8446 127.21 93.8674C128.262 94.8974 128.792 96.2071 128.792 97.8037C128.792 99.4004 128.262 100.717 127.21 101.762C126.165 102.792 124.863 103.3 123.296 103.3C121.728 103.3 120.433 102.778 119.381 101.74C118.329 100.703 117.799 99.3856 117.799 97.8037C117.799 96.2218 118.329 94.9195 119.381 93.8894C120.433 92.852 121.743 92.3296 123.296 92.3296Z" fill="#1C2642"/>
<path d="M132.956 106.949H129.792V92.6459H132.853V93.7054C133.089 93.3449 133.479 93.0359 134.016 92.7931C134.568 92.5282 135.193 92.3958 135.892 92.3958C137.364 92.3958 138.526 92.9034 139.387 93.9188C140.263 94.9194 140.697 96.207 140.697 97.789C140.697 99.3709 140.233 100.673 139.299 101.703C138.386 102.719 137.202 103.226 135.76 103.226C134.457 103.226 133.515 102.88 132.949 102.189V106.957L132.956 106.949ZM136.915 99.724C137.371 99.2679 137.599 98.6277 137.599 97.811C137.599 96.9943 137.371 96.3616 136.915 95.9201C136.473 95.4786 135.914 95.2505 135.252 95.2505C134.59 95.2505 134.045 95.4713 133.589 95.9201C133.148 96.3616 132.92 96.9943 132.92 97.811C132.92 98.6277 133.14 99.2679 133.589 99.724C134.045 100.165 134.604 100.394 135.252 100.394C135.899 100.394 136.473 100.173 136.915 99.724Z" fill="#1C2642"/>
<path d="M144.095 96.575H148.238C148.208 96.1041 148.024 95.6921 147.679 95.3463C147.348 95.0004 146.84 94.8239 146.156 94.8239C145.545 94.8239 145.059 95.0078 144.699 95.3683C144.338 95.7289 144.14 96.1335 144.095 96.575ZM148.466 99.2606L151.107 100.011C150.842 100.968 150.298 101.762 149.459 102.388C148.628 102.998 147.583 103.307 146.332 103.307C144.831 103.307 143.558 102.807 142.499 101.806C141.454 100.806 140.939 99.4666 140.939 97.789C140.939 96.1115 141.447 94.868 142.462 93.8526C143.492 92.8373 144.706 92.3296 146.104 92.3296C147.715 92.3296 148.974 92.8005 149.893 93.7423C150.82 94.6693 151.291 95.9717 151.291 97.6345C151.291 98.1643 151.269 98.488 151.232 98.6131H144.029C144.059 99.1796 144.301 99.6579 144.758 100.048C145.214 100.423 145.758 100.607 146.384 100.607C147.451 100.607 148.15 100.158 148.466 99.2532V99.2606Z" fill="#1C2642"/>
<path d="M162.468 87.9149V101.137C162.468 101.762 162.497 102.38 162.549 102.991H159.51C159.451 102.66 159.429 102.321 159.429 101.99C159.179 102.351 158.804 102.652 158.303 102.888C157.818 103.109 157.273 103.219 156.655 103.219C155.184 103.219 153.962 102.711 152.991 101.696C152.02 100.666 151.534 99.3635 151.534 97.7816C151.534 96.1997 152.005 94.9415 152.947 93.9335C153.889 92.9034 155.095 92.3958 156.552 92.3958C158.009 92.3958 158.899 92.7489 159.341 93.4553V87.9149H162.468ZM155.39 95.9128C154.948 96.3542 154.72 96.987 154.72 97.8037C154.72 98.6204 154.941 99.2605 155.39 99.7167C155.846 100.158 156.405 100.386 157.052 100.386C157.7 100.386 158.252 100.166 158.701 99.7167C159.157 99.2605 159.385 98.6204 159.385 97.8037C159.385 96.987 159.157 96.3542 158.701 95.9128C158.259 95.4713 157.707 95.2432 157.052 95.2432C156.398 95.2432 155.846 95.4639 155.39 95.9128Z" fill="#1C2642"/>
<path d="M167.442 102.991H164.278V92.646H167.442V102.991ZM164.55 90.7919C164.19 90.4313 164.006 89.9972 164.006 89.4822C164.006 88.9672 164.182 88.5331 164.55 88.1725C164.911 87.812 165.338 87.6281 165.838 87.6281C166.338 87.6281 166.787 87.812 167.148 88.1725C167.523 88.5331 167.707 88.9672 167.707 89.4822C167.707 89.9972 167.523 90.4313 167.148 90.7919C166.787 91.1524 166.346 91.3363 165.838 91.3363C165.33 91.3363 164.911 91.1524 164.55 90.7919Z" fill="#1C2642"/>
<path d="M168.553 100.136C168.553 99.2606 168.84 98.5616 169.406 98.0319C169.973 97.4874 170.709 97.1489 171.614 97.0091L174.049 96.6339C174.549 96.5677 174.799 96.3322 174.799 95.9275C174.799 95.6112 174.66 95.3463 174.38 95.1329C174.115 94.9122 173.747 94.8018 173.276 94.8018C172.747 94.8018 172.327 94.9563 172.004 95.258C171.702 95.5523 171.533 95.9055 171.503 96.3175L168.751 95.7583C168.818 94.8975 169.244 94.1102 170.024 93.4038C170.812 92.6828 171.908 92.3223 173.291 92.3223C174.858 92.3223 176.013 92.6975 176.749 93.448C177.5 94.1985 177.875 95.155 177.875 96.3175V101.38C177.875 102.034 177.919 102.564 178 102.984H175.145C175.079 102.704 175.042 102.314 175.042 101.821C174.446 102.792 173.475 103.278 172.129 103.278C171.032 103.278 170.157 102.976 169.502 102.366C168.862 101.74 168.545 100.997 168.545 100.136H168.553ZM172.901 100.99C173.446 100.99 173.894 100.828 174.255 100.511C174.616 100.195 174.799 99.6653 174.799 98.9295V98.4733L172.842 98.7823C172.062 98.9074 171.672 99.29 171.672 99.9301C171.672 100.224 171.768 100.475 171.967 100.681C172.173 100.887 172.489 100.99 172.901 100.99Z" fill="#1C2642"/>
<path d="M59.857 96.8693C59.857 97.0459 59.9011 97.2225 59.9968 97.3843C60.0851 97.5388 60.2175 97.6713 60.372 97.7596L63.5947 99.6211C63.7492 99.7094 63.9258 99.7609 64.1097 99.7609C64.2863 99.7609 64.4629 99.7167 64.6174 99.6211C64.7719 99.5328 64.9044 99.4003 64.9927 99.2458C65.081 99.0913 65.1325 98.9147 65.1325 98.7308V88.923C65.1325 88.7464 65.0883 88.5698 64.9927 88.4153C64.9044 88.2608 64.7719 88.1283 64.6174 88.04L56.1266 83.1398C55.9648 83.0441 55.7882 83 55.6116 83C55.435 83 55.2584 83.0441 55.1039 83.1398C54.9494 83.2281 54.817 83.3605 54.7287 83.515C54.6404 83.6696 54.5889 83.8461 54.5889 84.0227V87.7457C54.5889 87.9223 54.633 88.0989 54.7287 88.2608C54.817 88.4153 54.9494 88.5477 55.1039 88.636L59.3493 91.0861C59.5038 91.1744 59.6363 91.3069 59.7246 91.4614C59.8128 91.6159 59.8643 91.7925 59.8643 91.9691V96.8693H59.857Z" fill="#82A5FF"/>
<path d="M53.5665 95.5964V100.497C53.5665 100.673 53.6106 100.85 53.7063 101.012C53.7946 101.166 53.927 101.299 54.0815 101.387L57.3042 103.248C57.4587 103.337 57.6353 103.388 57.8193 103.388C57.9958 103.388 58.1724 103.344 58.3269 103.248C58.4815 103.16 58.6139 103.028 58.7022 102.873C58.7905 102.719 58.842 102.542 58.842 102.358V92.5503C58.842 92.3737 58.7978 92.1971 58.7022 92.0353C58.6139 91.8808 58.4815 91.7483 58.3269 91.66L49.8361 86.7598C49.6816 86.6715 49.505 86.62 49.3211 86.62C49.1445 86.62 48.9679 86.6641 48.8061 86.7598C48.6515 86.8481 48.5191 86.9805 48.4308 87.135C48.3425 87.2895 48.291 87.4661 48.291 87.6501V91.3731C48.291 91.5497 48.3352 91.7262 48.4308 91.8808C48.5191 92.0353 48.6515 92.1677 48.8061 92.256L53.0515 94.7061C53.206 94.7944 53.3384 94.9269 53.4267 95.0814C53.515 95.2359 53.5665 95.4125 53.5665 95.5964Z" fill="#0077CC"/>
<path d="M52.0286 95.3021L43.5304 90.4092C43.3759 90.3209 43.1993 90.2694 43.0154 90.2694C42.8388 90.2694 42.6622 90.3136 42.5077 90.4092C42.3532 90.4975 42.2207 90.6299 42.1324 90.7844C42.0441 90.939 42 91.1155 42 91.2921V101.1C42 101.277 42.0441 101.453 42.1398 101.608C42.2281 101.762 42.3605 101.895 42.515 101.983L47.7832 105.022L51.0058 106.883C51.1604 106.971 51.3369 107.023 51.5135 107.023C51.6901 107.023 51.8667 106.979 52.0286 106.883C52.1831 106.795 52.3155 106.662 52.4038 106.508C52.4921 106.353 52.5436 106.177 52.5436 105.993V96.185C52.5436 96.0084 52.4995 95.8318 52.4038 95.67C52.3155 95.5155 52.1831 95.383 52.0286 95.2947V95.3021Z" fill="#004ED6"/>
</g>
<g clip-path="url(#clip1_113_349)">
<path d="M137.013 50.6703C136.447 50.3256 135.824 50.0917 135.179 49.9754C135.631 49.7271 136.048 49.4112 136.422 49.0333C137.779 47.659 138.314 45.6363 137.818 43.7566C137.717 43.3731 137.422 43.0739 137.044 42.9719C136.59 42.8489 136.119 42.7868 135.648 42.7868C135.458 42.7868 135.269 42.7979 135.082 42.8168C135.451 42.451 135.773 42.0321 136.03 41.5633C136.959 39.8631 136.924 37.7695 135.937 36.1015C135.736 35.7612 135.369 35.5573 134.979 35.5628C134.306 35.575 133.653 35.718 133.047 35.9685C133.305 35.5119 133.502 35.0164 133.621 34.4922C134.053 32.5981 133.45 30.5965 132.046 29.2676C131.761 28.9972 131.353 28.9019 130.979 29.0182C130.13 29.282 129.374 29.7531 128.763 30.3682C128.65 30.0933 128.518 29.824 128.359 29.568C127.367 27.9598 125.657 27 123.783 27C123.722 27 123.661 27 123.599 27.0033C123.208 27.0166 122.853 27.2416 122.671 27.5918C121.771 29.3108 121.844 31.4022 122.86 33.0514C123.019 33.3074 123.197 33.5457 123.388 33.7674C122.572 34.0577 121.824 34.5432 121.224 35.196C120.957 35.4853 120.863 35.8987 120.978 36.2777C121.382 37.6132 122.276 38.7238 123.44 39.4065C123.407 39.5162 123.388 39.6304 123.39 39.7478C123.416 41.1443 123.973 42.461 124.906 43.443C124.845 43.5394 124.796 43.6436 124.766 43.7577C124.411 45.1076 124.589 46.5296 125.218 47.7332C125.133 47.8086 125.056 47.8951 124.997 47.9959C124.288 49.194 124.073 50.6104 124.35 51.9437C124.247 51.9925 124.151 52.0557 124.066 52.1355C123.059 53.0886 122.466 54.3909 122.37 55.7497C122.258 55.7674 122.149 55.8007 122.045 55.855C120.817 56.49 119.894 57.5751 119.432 58.8552C119.321 58.8419 119.206 58.843 119.092 58.8663C117.207 59.2387 115.649 60.613 115.023 62.4506C114.555 63.8293 114.659 65.33 115.272 66.6145C113.589 67.0722 111.822 67.3183 109.999 67.3183C108.175 67.3183 106.408 67.0722 104.726 66.6145C105.338 65.33 105.443 63.8293 104.974 62.4506C104.349 60.613 102.79 59.2387 100.905 58.8663C100.791 58.8441 100.677 58.8419 100.565 58.8563C100.103 57.5773 99.1792 56.4923 97.952 55.8561C97.8481 55.8029 97.7387 55.7685 97.6271 55.7508C97.5309 54.392 96.9392 53.0908 95.9307 52.1366C95.8454 52.0557 95.7503 51.9936 95.6475 51.9448C95.9253 50.6115 95.7098 49.1951 95 47.997C94.9398 47.8962 94.8643 47.8086 94.7801 47.7332C95.409 46.5296 95.5873 45.1076 95.2318 43.7577C95.2023 43.6447 95.1531 43.5394 95.0918 43.443C96.0237 42.461 96.5826 41.1443 96.6078 39.7478C96.61 39.6304 96.5914 39.5151 96.5586 39.4065C97.7212 38.7238 98.6159 37.6132 99.0206 36.2777C99.1354 35.8987 99.0414 35.4864 98.7745 35.196C98.174 34.5443 97.4259 34.0577 96.61 33.7674C96.8025 33.5457 96.9807 33.3074 97.1382 33.0514C98.1554 31.4022 98.2276 29.3108 97.3275 27.5918C97.1437 27.2416 96.7893 27.0166 96.3989 27.0033C96.3376 27.0011 96.2764 27 96.2151 27C94.3415 27 92.6309 27.9598 91.64 29.568C91.4814 29.8251 91.349 30.0933 91.2364 30.3682C90.625 29.7531 89.8692 29.282 89.0204 29.0182C88.6464 28.9019 88.2395 28.9972 87.9529 29.2676C86.5496 30.5954 85.9459 32.5981 86.3779 34.4922C86.4971 35.0164 86.6951 35.513 86.9521 35.9685C86.3462 35.718 85.6932 35.575 85.0206 35.5628C84.6268 35.5562 84.2637 35.7612 84.0625 36.1004C83.0748 37.7695 83.0387 39.862 83.9695 41.5621C84.2254 42.031 84.5481 42.4499 84.9178 42.8156C84.7307 42.7957 84.5426 42.7857 84.3512 42.7857C83.8798 42.7857 83.4106 42.8478 82.9556 42.9708C82.5771 43.0728 82.2818 43.372 82.1812 43.7555C81.6857 45.6352 82.2206 47.6579 83.5779 49.0322C83.9509 49.4101 84.3698 49.726 84.8215 49.9743C84.1762 50.0906 83.5539 50.3245 82.9873 50.6692C82.6515 50.8731 82.4492 51.2433 82.4557 51.6401C82.4907 53.5851 83.555 55.3795 85.2328 56.3216C85.6911 56.5787 86.1843 56.7638 86.6929 56.8779C86.1045 57.1683 85.5653 57.5673 85.1103 58.0605C84.8434 58.3498 84.7493 58.7621 84.8642 59.1422C85.4275 61.0031 86.9379 62.4306 88.8071 62.8673C89.2075 62.9615 89.6165 63.008 90.0234 63.008C90.1371 63.008 90.2509 63.0025 90.3636 62.9958C89.8779 63.437 89.4667 63.9678 89.1615 64.573C88.9832 64.9265 89.0051 65.3488 89.2184 65.6813C90.2181 67.2385 91.9068 68.1684 93.7356 68.1684C93.8307 68.1684 93.927 68.1661 94.0221 68.1606C94.5526 68.1329 95.0689 68.022 95.5578 67.8436C95.2089 68.4044 94.9573 69.0317 94.8282 69.7011C94.7528 70.0902 94.8895 70.4903 95.1848 70.7507C96.1681 71.6152 97.4237 72.0907 98.722 72.0907C99.3181 72.0907 99.9087 71.9898 100.477 71.7914C101.976 71.2683 103.159 70.099 103.734 68.6316C104.359 68.8156 104.997 68.9719 105.644 69.1016C105.23 69.5072 104.867 69.9727 104.571 70.4903C104.269 71.02 104.449 71.6983 104.972 72.0042C105.494 72.3101 106.164 72.1284 106.466 71.5986C107.192 70.3229 108.546 69.5316 109.999 69.5316C111.451 69.5316 112.806 70.324 113.531 71.5986C113.734 71.9544 114.101 72.1527 114.48 72.1527C114.666 72.1527 114.854 72.1051 115.025 72.0042C115.548 71.6983 115.728 71.02 115.426 70.4903C115.13 69.9727 114.767 69.5072 114.353 69.1016C115 68.973 115.637 68.8156 116.264 68.6316C116.838 70.099 118.022 71.2683 119.52 71.7914C120.088 71.9898 120.678 72.0907 121.275 72.0907C122.573 72.0907 123.829 71.6141 124.811 70.7496C125.107 70.4892 125.243 70.0891 125.168 69.7C125.039 69.0317 124.787 68.4044 124.438 67.8425C124.926 68.0209 125.442 68.1307 125.973 68.1595C126.068 68.165 126.164 68.1639 126.259 68.1672C128.088 68.1672 129.777 67.2374 130.777 65.6802C130.99 65.3477 131.012 64.9243 130.833 64.5719C130.528 63.9667 130.117 63.437 129.632 62.9947C129.745 63.0025 129.859 63.0069 129.973 63.0069C130.379 63.0069 130.789 62.9593 131.189 62.8662C133.058 62.4295 134.569 61.002 135.132 59.1411C135.247 58.7621 135.153 58.3498 134.886 58.0594C134.431 57.5662 133.893 57.1672 133.303 56.8768C133.812 56.7638 134.304 56.5787 134.763 56.3205C136.441 55.3784 137.505 53.584 137.54 51.6389C137.548 51.2422 137.346 50.872 137.01 50.6681L137.013 50.6703ZM94.884 54.2745C95.3948 55.0193 95.5829 55.9603 95.3773 56.8602C95.1717 57.7602 94.5964 58.5227 93.8154 58.9649C93.3057 58.2201 93.1165 57.2792 93.3221 56.3792C93.5267 55.4793 94.1031 54.7167 94.884 54.2745ZM91.3381 51.3463C91.78 50.5384 92.5412 49.9665 93.4118 49.7592C93.6995 50.6171 93.6251 51.5747 93.1832 52.3826C92.7414 53.1906 91.9801 53.7625 91.1095 53.9697C90.8218 53.1108 90.8962 52.1543 91.3381 51.3463ZM90.0267 48.416C89.9731 48.416 89.9195 48.4149 89.8659 48.4115C89.8221 47.506 90.1546 46.6061 90.8 45.9533C91.4048 45.3404 92.2098 45.0024 93.0651 45.0024C93.1187 45.0024 93.1723 45.0035 93.2259 45.0068C93.2696 45.9123 92.9371 46.8122 92.2918 47.465C91.687 48.0779 90.882 48.416 90.0267 48.416ZM93.4961 30.7417C93.9839 29.9514 94.7637 29.4239 95.6486 29.2654C95.8925 30.1387 95.7678 31.0908 95.2843 31.8744C94.7965 32.6646 94.0167 33.1922 93.1318 33.3506C92.8879 32.4773 93.0126 31.5252 93.4961 30.7417ZM94.1129 35.7579C94.3514 35.7025 94.5953 35.6737 94.837 35.6737C95.4921 35.6737 96.1309 35.882 96.6646 36.2578C96.2271 37.0491 95.4757 37.6332 94.5865 37.8415C94.3481 37.8969 94.1042 37.9258 93.8625 37.9258C93.2073 37.9258 92.5686 37.7174 92.0348 37.3417C92.4723 36.5503 93.2237 35.9663 94.1118 35.759L94.1129 35.7579ZM91.7493 40.6201C92.224 40.353 92.76 40.2122 93.2981 40.2122C93.6536 40.2122 94.0046 40.2721 94.3382 40.3873C94.1337 41.2707 93.5693 42.042 92.772 42.4898C92.2973 42.7569 91.7614 42.8977 91.2232 42.8977C90.8678 42.8977 90.5167 42.8378 90.1831 42.7226C90.3876 41.8392 90.952 41.0678 91.7493 40.6201ZM89.004 31.4078C89.785 31.85 90.3614 32.6125 90.5659 33.5125C90.7125 34.1553 90.6567 34.8181 90.4281 35.4165C90.3023 35.6404 90.1798 35.8654 90.0617 36.0926C89.2862 35.6493 88.7131 34.8901 88.5096 33.9935C88.304 33.0935 88.4932 32.1526 89.0029 31.4078H89.004ZM85.655 37.8648C86.5256 38.0721 87.2868 38.644 87.7287 39.4519C88.0404 40.0227 88.1684 40.6666 88.1159 41.2995C88.0546 41.5555 87.9967 41.8137 87.9442 42.072C87.079 41.8614 86.3221 41.2917 85.8836 40.4882C85.4417 39.6802 85.3662 38.7238 85.655 37.8648ZM84.1926 45.0068C84.2462 45.0046 84.2998 45.0024 84.3534 45.0024C85.2087 45.0024 86.0137 45.3404 86.6186 45.9533C87.0812 46.4221 87.382 47.0184 87.5001 47.6523C87.51 47.9061 87.5231 48.1599 87.5417 48.4115C87.4914 48.4137 87.4421 48.4149 87.3918 48.4149C86.5365 48.4149 85.7315 48.0768 85.1267 47.4639C84.4825 46.8111 84.15 45.9112 84.1926 45.0057V45.0068ZM86.2948 54.3842C85.4975 53.9365 84.9331 53.1651 84.7286 52.2818C85.0621 52.1665 85.4132 52.1067 85.7687 52.1067C86.3068 52.1067 86.8428 52.2474 87.3175 52.5145C87.8851 52.8337 88.3346 53.318 88.6201 53.8888C88.7011 54.1349 88.7842 54.3787 88.8728 54.6203C88.5425 54.7334 88.1946 54.7921 87.8436 54.7921C87.3054 54.7921 86.7695 54.6513 86.2937 54.3842H86.2948ZM90.0256 60.7925C89.7839 60.7925 89.54 60.7637 89.3015 60.7083C88.4134 60.501 87.6609 59.9169 87.2245 59.1256C87.7582 58.7499 88.397 58.5415 89.0521 58.5415C89.2939 58.5415 89.5378 58.5703 89.7762 58.6258C90.4314 58.7787 91.0121 59.1378 91.4475 59.6321C91.5798 59.8272 91.7154 60.0189 91.8532 60.2095C91.3195 60.5853 90.6807 60.7925 90.0267 60.7925H90.0256ZM93.9106 65.9473C92.9875 65.9961 92.1157 65.6469 91.4825 65.0074C92.0479 64.3048 92.889 63.8614 93.8001 63.8127C94.475 63.7772 95.1214 63.9545 95.6671 64.3014C95.8509 64.4555 96.0379 64.6062 96.2271 64.7536C95.6606 65.4552 94.8206 65.8985 93.9106 65.9462V65.9473ZM97.5276 58.2035C98.2211 58.7765 98.6575 59.6288 98.7056 60.5509C98.7526 61.473 98.407 62.3674 97.777 63.0103C97.0836 62.4361 96.6471 61.585 96.599 60.6628C96.5509 59.7407 96.8976 58.8474 97.5276 58.2035ZM99.7665 69.6967C98.9079 69.996 97.9542 69.9051 97.1765 69.4706C97.5298 68.6372 98.2178 67.9766 99.0796 67.6751C99.6965 67.4601 100.362 67.4468 100.975 67.6175C101.204 67.7195 101.433 67.817 101.665 67.9112C101.311 68.7402 100.625 69.3964 99.7676 69.6967H99.7665ZM102.684 65.7943C101.861 65.4364 101.209 64.7392 100.913 63.8659C100.616 62.9925 100.706 62.0372 101.137 61.2425C101.959 61.6005 102.611 62.2976 102.908 63.1698C103.204 64.0432 103.114 64.9986 102.684 65.7943ZM135.649 45.0035C135.703 45.0035 135.756 45.0046 135.81 45.0079C135.854 45.9134 135.521 46.8133 134.876 47.4661C134.271 48.079 133.466 48.4171 132.611 48.4171C132.56 48.4171 132.511 48.416 132.461 48.4137C132.479 48.1622 132.493 47.9084 132.502 47.6546C132.619 47.0206 132.92 46.4243 133.384 45.9555C133.989 45.3426 134.793 45.0046 135.649 45.0046V45.0035ZM132.273 39.4519C132.715 38.644 133.476 38.0732 134.347 37.8648C134.634 38.7226 134.56 39.6802 134.117 40.4882C133.677 41.2917 132.921 41.8614 132.056 42.072C132.004 41.8126 131.946 41.5555 131.884 41.2995C131.832 40.6677 131.96 40.0227 132.273 39.4519ZM129.436 33.5125C129.641 32.6125 130.217 31.85 130.997 31.4078C131.507 32.1526 131.696 33.0935 131.491 33.9935C131.287 34.889 130.714 35.6482 129.939 36.0926C129.821 35.8654 129.698 35.6404 129.572 35.4165C129.344 34.8181 129.288 34.1553 129.434 33.5125H129.436ZM127.71 47.465C127.065 46.8122 126.733 45.9123 126.776 45.0068C126.829 45.0046 126.883 45.0024 126.936 45.0024C127.792 45.0024 128.597 45.3404 129.202 45.9533C129.846 46.6061 130.178 47.506 130.136 48.4115C130.082 48.4137 130.028 48.416 129.975 48.416C129.119 48.416 128.314 48.0779 127.71 47.465ZM128.892 53.9697C128.021 53.7625 127.26 53.1906 126.817 52.3826C126.375 51.5747 126.3 50.6182 126.589 49.7592C127.459 49.9665 128.22 50.5384 128.662 51.3463C129.104 52.1543 129.18 53.1119 128.892 53.9697ZM129.817 42.7226C129.484 42.8378 129.133 42.8977 128.777 42.8977C128.239 42.8977 127.703 42.7569 127.228 42.4898C126.431 42.042 125.867 41.2696 125.662 40.3873C125.996 40.2721 126.347 40.2122 126.702 40.2122C127.24 40.2122 127.776 40.353 128.251 40.6201C129.048 41.0678 129.613 41.8392 129.817 42.7226ZM124.351 29.2665C125.237 29.425 126.017 29.9526 126.503 30.7428C126.987 31.5264 127.11 32.4795 126.867 33.3518C125.982 33.1933 125.202 32.6657 124.715 31.8755C124.232 31.0919 124.108 30.1387 124.351 29.2665ZM123.335 36.2589C123.868 35.8831 124.507 35.6748 125.162 35.6748C125.404 35.6748 125.648 35.7025 125.886 35.759C126.774 35.9674 127.527 36.5515 127.963 37.3428C127.43 37.7185 126.791 37.9269 126.136 37.9269C125.894 37.9269 125.65 37.8981 125.412 37.8426C124.524 37.6343 123.771 37.0502 123.335 36.2589ZM125.115 54.2756C125.896 54.7178 126.473 55.4804 126.677 56.3803C126.883 57.2803 126.694 58.2212 126.184 58.966C125.403 58.5238 124.827 57.7613 124.622 56.8613C124.416 55.9614 124.606 55.0204 125.115 54.2756ZM117.316 65.7954C116.885 65.0008 116.795 64.0443 117.092 63.1721C117.388 62.2987 118.04 61.6016 118.862 61.2436C119.293 62.0383 119.383 62.9947 119.087 63.867C118.79 64.7403 118.138 65.4375 117.316 65.7954ZM120.234 69.6978C119.375 69.3986 118.689 68.7413 118.335 67.9123C118.571 67.817 118.804 67.7162 119.036 67.6131C119.309 67.5377 119.591 67.4978 119.877 67.4978C120.231 67.4978 120.582 67.5577 120.921 67.6751C121.783 67.9755 122.471 68.6372 122.824 69.4706C122.046 69.9062 121.094 69.996 120.234 69.6967V69.6978ZM123.401 60.6651C123.354 61.5872 122.917 62.4395 122.223 63.0125C121.593 62.3685 121.247 61.4752 121.295 60.5531C121.342 59.631 121.779 58.7787 122.473 58.2057C123.103 58.8496 123.449 59.7429 123.401 60.6651ZM126.262 65.9539C126.205 65.9539 126.147 65.9528 126.09 65.9495C125.18 65.9018 124.339 65.4585 123.773 64.7558C123.962 64.6073 124.149 64.4566 124.333 64.3025C124.88 63.9556 125.525 63.7772 126.2 63.8138C127.11 63.8625 127.952 64.3059 128.518 65.0085C127.924 65.6092 127.118 65.9539 126.262 65.9539ZM130.699 60.7094C130.46 60.7648 130.217 60.7936 129.975 60.7936C129.321 60.7936 128.681 60.5864 128.148 60.2106C128.286 60.02 128.422 59.8283 128.554 59.6332C128.989 59.1389 129.57 58.7798 130.225 58.6269C130.464 58.5715 130.708 58.5426 130.949 58.5426C131.604 58.5426 132.243 58.751 132.777 59.1267C132.339 59.9181 131.588 60.5021 130.7 60.7094H130.699ZM133.704 54.3853C133.23 54.6525 132.694 54.7932 132.156 54.7932C131.805 54.7932 131.457 54.7345 131.127 54.6214C131.215 54.3798 131.299 54.136 131.379 53.891C131.665 53.3203 132.114 52.8359 132.682 52.5167C133.157 52.2496 133.692 52.1089 134.231 52.1089C134.586 52.1089 134.937 52.1687 135.271 52.284C135.066 53.1673 134.502 53.9387 133.704 54.3865V54.3853Z" fill="#9F9F9F"/>
<path d="M104.121 72.7833C103.518 72.7833 103.027 73.281 103.027 73.8916C103.027 74.5023 103.518 75 104.121 75C104.724 75 105.215 74.5023 105.215 73.8916C105.215 73.281 104.724 72.7833 104.121 72.7833Z" fill="#9F9F9F"/>
<path d="M115.879 72.7833C115.276 72.7833 114.785 73.281 114.785 73.8916C114.785 74.5023 115.276 75 115.879 75C116.482 75 116.973 74.5023 116.973 73.8916C116.973 73.281 116.482 72.7833 115.879 72.7833Z" fill="#9F9F9F"/>
</g>
<path d="M51.028 129.268L50.729 125.81H52.458L52.146 129.268H51.028ZM53.511 129.268L53.199 125.81H54.941L54.629 129.268H53.511ZM56.497 134.65V125.81H58.252V129.398H62.165V125.81H63.907V134.65H62.165V130.828H58.252V134.65H56.497ZM65.559 126.902V125.29H67.223V126.902H65.559ZM65.559 134.65V127.682H67.223V134.65H65.559ZM71.2805 134.676C69.5125 134.676 68.4205 133.311 68.4205 131.088C68.4205 128.774 69.5385 127.487 71.2805 127.487C72.1125 127.487 72.7625 127.799 73.1915 128.384V127.682H74.8555V134.871C74.8555 136.756 73.5555 137.718 71.8265 137.718C70.1105 137.718 68.8625 136.925 68.6155 135.274H70.2925C70.3965 136.015 70.9945 136.405 71.8005 136.405C72.6325 136.405 73.1915 136.002 73.1915 134.897V133.727C72.7365 134.351 72.0865 134.676 71.2805 134.676ZM71.6575 133.298C72.6585 133.298 73.1915 132.518 73.1915 131.088C73.1915 129.671 72.6325 128.865 71.6575 128.865C70.6695 128.865 70.1365 129.645 70.1365 131.088C70.1365 132.505 70.6695 133.298 71.6575 133.298ZM76.3881 134.65V125.29H78.0521V128.618C78.5071 127.864 79.2351 127.487 80.1191 127.487C81.5101 127.487 82.4591 128.319 82.4591 130.009V134.65H80.7951V130.347C80.7951 129.398 80.3921 128.865 79.5471 128.865C78.6241 128.865 78.0521 129.671 78.0521 130.607V134.65H76.3881ZM83.9926 134.65V125.29H85.6566V134.65H83.9926ZM87.8811 137.705C87.5431 137.705 87.1921 137.614 87.0231 137.549V136.275H87.4131C88.1671 136.275 88.5181 136.119 89.0511 134.793L89.2201 134.364L86.4771 127.682H88.2581L89.8051 131.725L90.0911 132.739L90.3771 131.725L91.8591 127.682H93.5621L90.4941 135.339C89.7791 137.146 89.1551 137.705 87.8811 137.705ZM99.0681 134.65V127.253H96.2211V125.81H103.67V127.253H100.823V134.65H99.0681ZM104.242 134.65V127.682H105.906V128.696C106.361 127.864 107.063 127.487 107.817 127.487C108.103 127.487 108.363 127.565 108.493 127.682V129.125C108.272 129.06 108.025 129.034 107.726 129.034C106.465 129.034 105.906 129.788 105.906 130.945V134.65H104.242ZM113.7 131.725V127.682H115.364V134.65H113.7V133.714C113.245 134.481 112.53 134.845 111.672 134.845C110.294 134.845 109.371 134.013 109.371 132.336V127.682H111.035V131.998C111.035 132.947 111.425 133.467 112.244 133.467C113.141 133.467 113.7 132.661 113.7 131.725ZM118.29 129.554C118.29 131.153 122.684 129.801 122.684 132.596C122.684 133.935 121.449 134.845 119.707 134.845C117.991 134.845 116.756 134.052 116.509 132.375H118.173C118.29 133.129 118.888 133.558 119.759 133.558C120.578 133.558 121.007 133.207 121.007 132.7C121.007 131.14 116.704 132.479 116.704 129.658C116.704 128.527 117.588 127.487 119.408 127.487C121.007 127.487 122.216 128.241 122.424 129.97H120.76C120.63 129.125 120.136 128.787 119.343 128.787C118.68 128.787 118.29 129.112 118.29 129.554ZM124.039 132.479V128.969H123.142V127.682H124.039V126.083H125.703V127.682H127.172V128.969H125.703V132.336C125.703 133.064 125.911 133.454 126.834 133.454H127.146V134.676C126.964 134.767 126.587 134.845 126.132 134.845C124.715 134.845 124.039 134.039 124.039 132.479ZM134.309 134.65L133.048 129.983L132.918 129.164L132.762 129.983L131.514 134.65H129.447L127.51 127.682H129.291L130.409 132.596L130.578 133.441L130.773 132.596L132.112 127.682H133.841L135.18 132.596L135.349 133.415L135.505 132.596L136.636 127.682H138.339L136.389 134.65H134.309ZM142.208 134.845C140.141 134.845 138.867 133.454 138.867 131.179C138.867 128.813 140.18 127.487 142.208 127.487C144.262 127.487 145.536 128.891 145.536 131.179C145.536 133.519 144.223 134.845 142.208 134.845ZM142.208 133.467C143.261 133.467 143.82 132.661 143.82 131.179C143.82 129.697 143.248 128.865 142.208 128.865C141.142 128.865 140.583 129.684 140.583 131.179C140.583 132.648 141.155 133.467 142.208 133.467ZM146.746 134.65V127.682H148.41V128.696C148.865 127.864 149.567 127.487 150.321 127.487C150.607 127.487 150.867 127.565 150.997 127.682V129.125C150.776 129.06 150.529 129.034 150.23 129.034C148.969 129.034 148.41 129.788 148.41 130.945V134.65H146.746ZM152.095 132.479V128.969H151.198V127.682H152.095V126.083H153.759V127.682H155.228V128.969H153.759V132.336C153.759 133.064 153.967 133.454 154.89 133.454H155.202V134.676C155.02 134.767 154.643 134.845 154.188 134.845C152.771 134.845 152.095 134.039 152.095 132.479ZM156.204 134.65V125.29H157.868V128.618C158.323 127.864 159.051 127.487 159.935 127.487C161.326 127.487 162.275 128.319 162.275 130.009V134.65H160.611V130.347C160.611 129.398 160.208 128.865 159.363 128.865C158.44 128.865 157.868 129.671 157.868 130.607V134.65H156.204ZM164.218 137.705C163.88 137.705 163.529 137.614 163.36 137.549V136.275H163.75C164.504 136.275 164.855 136.119 165.388 134.793L165.557 134.364L162.814 127.682H164.595L166.142 131.725L166.428 132.739L166.714 131.725L168.196 127.682H169.899L166.831 135.339C166.116 137.146 165.492 137.705 164.218 137.705ZM60.6674 149.65V140.81H66.8814V142.201H62.4224V144.411H66.3874V145.789H62.4224V148.259H66.8814V149.65H60.6674ZM72.4966 149.65L71.1966 147.7L70.8716 147.076L70.5336 147.7L69.2726 149.65H67.4786L69.9616 146.049L67.6606 142.682H69.6236L70.7286 144.385L71.0666 145.022L71.4046 144.385L72.4966 142.682H74.2776L71.9766 146.049L74.4596 149.65H72.4966ZM76.9539 152.51H75.2899V142.682H76.9539V143.475C77.3959 142.838 78.0199 142.487 78.7869 142.487C80.6069 142.487 81.7249 143.878 81.7249 146.153C81.7249 148.519 80.5809 149.845 78.7869 149.845C78.0199 149.845 77.3829 149.52 76.9539 148.896V152.51ZM78.4879 143.865C77.4869 143.865 76.9539 144.671 76.9539 146.153C76.9539 147.635 77.5129 148.467 78.4879 148.467C79.4759 148.467 80.0089 147.648 80.0089 146.153C80.0089 144.684 79.4629 143.865 78.4879 143.865ZM89.2895 147.375C88.9125 148.987 87.6645 149.845 86.0005 149.845C83.8945 149.845 82.6075 148.454 82.6075 146.179C82.6075 143.813 83.9075 142.487 85.9355 142.487C87.9765 142.487 89.2375 143.865 89.2375 146.114V146.504H84.3235C84.4015 147.778 84.9865 148.48 86.0005 148.48C86.7805 148.48 87.3135 148.116 87.5345 147.375H89.2895ZM85.9355 143.852C85.0515 143.852 84.5185 144.411 84.3625 145.464H87.4955C87.3395 144.424 86.8065 143.852 85.9355 143.852ZM90.4862 149.65V142.682H92.1502V143.696C92.6052 142.864 93.3072 142.487 94.0612 142.487C94.3472 142.487 94.6072 142.565 94.7372 142.682V144.125C94.5162 144.06 94.2692 144.034 93.9702 144.034C92.7092 144.034 92.1502 144.788 92.1502 145.945V149.65H90.4862ZM95.8361 147.479V143.969H94.9391V142.682H95.8361V141.083H97.5001V142.682H98.9691V143.969H97.5001V147.336C97.5001 148.064 97.7081 148.454 98.6311 148.454H98.9431V149.676C98.7611 149.767 98.3841 149.845 97.9291 149.845C96.5121 149.845 95.8361 149.039 95.8361 147.479ZM108.318 149.65L107.642 147.817H103.872L103.196 149.65H101.441L104.769 140.81H106.836L110.164 149.65H108.318ZM105.497 143.436L104.379 146.465H107.135L106.017 143.436L105.757 142.526L105.497 143.436ZM113.513 149.845C111.693 149.845 110.575 148.454 110.575 146.179C110.575 143.813 111.719 142.487 113.513 142.487C114.28 142.487 114.917 142.812 115.346 143.436V140.29H117.01V149.65H115.346V148.857C114.904 149.494 114.28 149.845 113.513 149.845ZM113.812 148.467C114.813 148.467 115.346 147.661 115.346 146.179C115.346 144.697 114.787 143.865 113.812 143.865C112.824 143.865 112.291 144.684 112.291 146.179C112.291 147.648 112.837 148.467 113.812 148.467ZM120.311 149.65L117.802 142.682H119.596L121.208 147.596L121.39 148.35L121.559 147.596L123.171 142.682H124.874L122.365 149.65H120.311ZM125.678 141.902V140.29H127.342V141.902H125.678ZM125.678 149.65V142.682H127.342V149.65H125.678ZM130.255 144.554C130.255 146.153 134.649 144.801 134.649 147.596C134.649 148.935 133.414 149.845 131.672 149.845C129.956 149.845 128.721 149.052 128.474 147.375H130.138C130.255 148.129 130.853 148.558 131.724 148.558C132.543 148.558 132.972 148.207 132.972 147.7C132.972 146.14 128.669 147.479 128.669 144.658C128.669 143.527 129.553 142.487 131.373 142.487C132.972 142.487 134.181 143.241 134.389 144.97H132.725C132.595 144.125 132.101 143.787 131.308 143.787C130.645 143.787 130.255 144.112 130.255 144.554ZM138.799 149.845C136.732 149.845 135.458 148.454 135.458 146.179C135.458 143.813 136.771 142.487 138.799 142.487C140.853 142.487 142.127 143.891 142.127 146.179C142.127 148.519 140.814 149.845 138.799 149.845ZM138.799 148.467C139.852 148.467 140.411 147.661 140.411 146.179C140.411 144.697 139.839 143.865 138.799 143.865C137.733 143.865 137.174 144.684 137.174 146.179C137.174 147.648 137.746 148.467 138.799 148.467ZM143.337 149.65V142.682H145.001V143.696C145.456 142.864 146.158 142.487 146.912 142.487C147.198 142.487 147.458 142.565 147.588 142.682V144.125C147.367 144.06 147.12 144.034 146.821 144.034C145.56 144.034 145.001 144.788 145.001 145.945V149.65H143.337ZM149.857 144.554C149.857 146.153 154.251 144.801 154.251 147.596C154.251 148.935 153.016 149.845 151.274 149.845C149.558 149.845 148.323 149.052 148.076 147.375H149.74C149.857 148.129 150.455 148.558 151.326 148.558C152.145 148.558 152.574 148.207 152.574 147.7C152.574 146.14 148.271 147.479 148.271 144.658C148.271 143.527 149.155 142.487 150.975 142.487C152.574 142.487 153.783 143.241 153.991 144.97H152.327C152.197 144.125 151.703 143.787 150.91 143.787C150.247 143.787 149.857 144.112 149.857 144.554ZM155.606 144.268L155.307 140.81H157.036L156.724 144.268H155.606ZM158.089 144.268L157.777 140.81H159.519L159.207 144.268H158.089Z" fill="#2E2E2E"/>
<defs>
<clipPath id="clip0_113_349">
<rect width="136" height="24.0229" fill="white" transform="translate(42 83)"/>
</clipPath>
<clipPath id="clip1_113_349">
<rect width="56" height="48" fill="white" transform="translate(82 27)"/>
</clipPath>
</defs>
</svg>
